<svg width="1284" height="114" viewBox="0 0 1284 114" fill="none" xmlns="http://www.w3.org/2000/svg">
<g id="BandS">
<rect id="Rectangle 17" width="1284" height="114" fill="white"/>
<rect id="RectangleDay1BuyBT" x="260" y="23" width="249" height="44" rx="7" fill="#6BB8FF"/>
<path id="Buy:" d="M330.611 55V33.6719H338.272C341.017 33.6719 343.102 34.1748 344.527 35.1807C345.963 36.1865 346.681 37.6465 346.681 39.5605C346.681 40.6641 346.427 41.6064 345.919 42.3877C345.411 43.1689 344.664 43.7451 343.678 44.1162C344.791 44.4092 345.646 44.9561 346.241 45.7568C346.837 46.5576 347.135 47.5342 347.135 48.6865C347.135 50.7764 346.471 52.3486 345.143 53.4033C343.824 54.4482 341.866 54.9805 339.269 55H330.611ZM335.753 45.9326V51.0449H339.122C340.05 51.0449 340.763 50.835 341.261 50.415C341.759 49.9854 342.008 49.3848 342.008 48.6133C342.008 46.8359 341.124 45.9424 339.356 45.9326H335.753ZM335.753 42.5635H338.434C339.557 42.5537 340.357 42.3486 340.836 41.9482C341.314 41.5479 341.554 40.957 341.554 40.1758C341.554 39.2773 341.295 38.6328 340.777 38.2422C340.26 37.8418 339.425 37.6416 338.272 37.6416H335.753V42.5635ZM359.19 53.2861C358.146 54.624 356.734 55.293 354.957 55.293C353.219 55.293 351.9 54.79 351.002 53.7842C350.113 52.7686 349.669 51.3135 349.669 49.4189V39.1504H354.605V49.4482C354.605 50.8057 355.265 51.4844 356.583 51.4844C357.716 51.4844 358.521 51.0791 359 50.2686V39.1504H363.966V55H359.337L359.19 53.2861ZM373.019 48.0859L375.655 39.1504H380.943L374.483 57.6514L374.205 58.3252C373.287 60.376 371.666 61.4014 369.342 61.4014C368.697 61.4014 368.019 61.3037 367.306 61.1084V57.5781H367.95C368.644 57.5781 369.171 57.4756 369.532 57.2705C369.903 57.0752 370.177 56.7188 370.353 56.2012L370.748 55.1465L365.24 39.1504H370.514L373.019 48.0859ZM385.309 50.21C386.09 50.21 386.739 50.4443 387.257 50.9131C387.774 51.3721 388.033 51.9629 388.033 52.6855C388.033 53.4082 387.774 54.0039 387.257 54.4727C386.739 54.9316 386.09 55.1611 385.309 55.1611C384.518 55.1611 383.863 54.9268 383.346 54.458C382.838 53.9893 382.584 53.3984 382.584 52.6855C382.584 51.9727 382.838 51.3818 383.346 50.9131C383.863 50.4443 384.518 50.21 385.309 50.21ZM385.309 38.5205C386.09 38.5205 386.739 38.7549 387.257 39.2236C387.774 39.6826 388.033 40.2734 388.033 40.9961C388.033 41.7188 387.774 42.3145 387.257 42.7832C386.739 43.2422 386.09 43.4717 385.309 43.4717C384.518 43.4717 383.863 43.2373 383.346 42.7686C382.838 42.2998 382.584 41.709 382.584 40.9961C382.584 40.2832 382.838 39.6924 383.346 39.2236C383.863 38.7549 384.518 38.5205 385.309 38.5205Z" fill="white"/>
<g id="Group 16">
<circle id="Ellipse 3" cx="308" cy="45" r="11" stroke="white" stroke-width="2"/>
<line id="Line 5" x1="302" y1="45" x2="314" y2="45" stroke="white" stroke-width="2" stroke-linecap="round"/>
<line id="Line 7" x1="308" y1="39" x2="308" y2="52" stroke="white" stroke-width="2" stroke-linecap="round"/>
</g>
<rect id="D1InputPlaceHolder" x="396" y="27" width="86" height="30" fill="#6BB8FF"/>
<g id="Group 18">
<rect id="RectangleDay1BuyBT_2" x="521" y="23" width="249" height="44" rx="7" fill="#6BB8FF"/>
<path id="Buy:_2" d="M591.611 55V33.6719H599.272C602.017 33.6719 604.102 34.1748 605.527 35.1807C606.963 36.1865 607.681 37.6465 607.681 39.5605C607.681 40.6641 607.427 41.6064 606.919 42.3877C606.411 43.1689 605.664 43.7451 604.678 44.1162C605.791 44.4092 606.646 44.9561 607.241 45.7568C607.837 46.5576 608.135 47.5342 608.135 48.6865C608.135 50.7764 607.471 52.3486 606.143 53.4033C604.824 54.4482 602.866 54.9805 600.269 55H591.611ZM596.753 45.9326V51.0449H600.122C601.05 51.0449 601.763 50.835 602.261 50.415C602.759 49.9854 603.008 49.3848 603.008 48.6133C603.008 46.8359 602.124 45.9424 600.356 45.9326H596.753ZM596.753 42.5635H599.434C600.557 42.5537 601.357 42.3486 601.836 41.9482C602.314 41.5479 602.554 40.957 602.554 40.1758C602.554 39.2773 602.295 38.6328 601.777 38.2422C601.26 37.8418 600.425 37.6416 599.272 37.6416H596.753V42.5635ZM620.19 53.2861C619.146 54.624 617.734 55.293 615.957 55.293C614.219 55.293 612.9 54.79 612.002 53.7842C611.113 52.7686 610.669 51.3135 610.669 49.4189V39.1504H615.605V49.4482C615.605 50.8057 616.265 51.4844 617.583 51.4844C618.716 51.4844 619.521 51.0791 620 50.2686V39.1504H624.966V55H620.337L620.19 53.2861ZM634.019 48.0859L636.655 39.1504H641.943L635.483 57.6514L635.205 58.3252C634.287 60.376 632.666 61.4014 630.342 61.4014C629.697 61.4014 629.019 61.3037 628.306 61.1084V57.5781H628.95C629.644 57.5781 630.171 57.4756 630.532 57.2705C630.903 57.0752 631.177 56.7188 631.353 56.2012L631.748 55.1465L626.24 39.1504H631.514L634.019 48.0859ZM646.309 50.21C647.09 50.21 647.739 50.4443 648.257 50.9131C648.774 51.3721 649.033 51.9629 649.033 52.6855C649.033 53.4082 648.774 54.0039 648.257 54.4727C647.739 54.9316 647.09 55.1611 646.309 55.1611C645.518 55.1611 644.863 54.9268 644.346 54.458C643.838 53.9893 643.584 53.3984 643.584 52.6855C643.584 51.9727 643.838 51.3818 644.346 50.9131C644.863 50.4443 645.518 50.21 646.309 50.21ZM646.309 38.5205C647.09 38.5205 647.739 38.7549 648.257 39.2236C648.774 39.6826 649.033 40.2734 649.033 40.9961C649.033 41.7188 648.774 42.3145 648.257 42.7832C647.739 43.2422 647.09 43.4717 646.309 43.4717C645.518 43.4717 644.863 43.2373 644.346 42.7686C643.838 42.2998 643.584 41.709 643.584 40.9961C643.584 40.2832 643.838 39.6924 644.346 39.2236C644.863 38.7549 645.518 38.5205 646.309 38.5205Z" fill="white"/>
</g>
<g id="Group 16_2">
<circle id="Ellipse 3_2" cx="569" cy="45" r="11" stroke="white" stroke-width="2"/>
<line id="Line 5_2" x1="563" y1="45" x2="575" y2="45" stroke="white" stroke-width="2" stroke-linecap="round"/>
<line id="Line 7_2" x1="569" y1="39" x2="569" y2="52" stroke="white" stroke-width="2" stroke-linecap="round"/>
</g>
<rect id="D2InputPlaceHolder" x="657" y="27" width="86" height="30" fill="#6BB8FF"/>
<rect id="RectangleDay1BuyBT_3" x="521" y="70" width="249" height="44" rx="7" fill="#6BB8FF"/>
<path id="Sell:" d="M602.612 96.3311C602.612 95.5791 602.344 94.9932 601.807 94.5732C601.279 94.1533 600.347 93.7188 599.009 93.2695C597.671 92.8203 596.577 92.3857 595.728 91.9658C592.964 90.6084 591.582 88.7432 591.582 86.3701C591.582 85.1885 591.924 84.1484 592.607 83.25C593.301 82.3418 594.277 81.6387 595.537 81.1406C596.797 80.6328 598.213 80.3789 599.785 80.3789C601.318 80.3789 602.69 80.6523 603.901 81.1992C605.122 81.7461 606.069 82.5273 606.743 83.543C607.417 84.5488 607.754 85.7012 607.754 87H602.627C602.627 86.1309 602.358 85.457 601.821 84.9785C601.294 84.5 600.576 84.2607 599.668 84.2607C598.75 84.2607 598.022 84.4658 597.485 84.876C596.958 85.2764 596.694 85.7891 596.694 86.4141C596.694 86.9609 596.987 87.459 597.573 87.9082C598.159 88.3477 599.189 88.8066 600.664 89.2852C602.139 89.7539 603.35 90.2617 604.297 90.8086C606.602 92.1367 607.754 93.9678 607.754 96.3018C607.754 98.167 607.051 99.6318 605.645 100.696C604.238 101.761 602.31 102.293 599.858 102.293C598.13 102.293 596.562 101.985 595.156 101.37C593.76 100.745 592.705 99.8955 591.992 98.8213C591.289 97.7373 590.938 96.4922 590.938 95.0859H596.094C596.094 96.2285 596.387 97.0732 596.973 97.6201C597.568 98.1572 598.53 98.4258 599.858 98.4258C600.708 98.4258 601.377 98.2451 601.865 97.8838C602.363 97.5127 602.612 96.9951 602.612 96.3311ZM617.832 102.293C615.4 102.293 613.433 101.57 611.929 100.125C610.425 98.6699 609.673 96.7803 609.673 94.4561V94.0459C609.673 92.4248 609.971 90.9941 610.566 89.7539C611.172 88.5137 612.051 87.5566 613.203 86.8828C614.355 86.1992 615.723 85.8574 617.305 85.8574C619.531 85.8574 621.289 86.5508 622.578 87.9375C623.867 89.3145 624.512 91.2383 624.512 93.709V95.6279H614.697C614.873 96.5166 615.259 97.2148 615.854 97.7227C616.45 98.2305 617.222 98.4844 618.169 98.4844C619.731 98.4844 620.952 97.9375 621.831 96.8438L624.087 99.5098C623.472 100.359 622.598 101.038 621.465 101.546C620.342 102.044 619.131 102.293 617.832 102.293ZM617.275 89.666C615.83 89.666 614.971 90.623 614.697 92.5371H619.678V92.1562C619.697 91.3652 619.497 90.7549 619.077 90.3252C618.657 89.8857 618.057 89.666 617.275 89.666ZM631.719 102H626.768V79.5H631.719V102ZM639.98 102H635.029V79.5H639.98V102ZM646.104 97.21C646.885 97.21 647.534 97.4443 648.052 97.9131C648.569 98.3721 648.828 98.9629 648.828 99.6855C648.828 100.408 648.569 101.004 648.052 101.473C647.534 101.932 646.885 102.161 646.104 102.161C645.312 102.161 644.658 101.927 644.141 101.458C643.633 100.989 643.379 100.398 643.379 99.6855C643.379 98.9727 643.633 98.3818 644.141 97.9131C644.658 97.4443 645.312 97.21 646.104 97.21ZM646.104 85.5205C646.885 85.5205 647.534 85.7549 648.052 86.2236C648.569 86.6826 648.828 87.2734 648.828 87.9961C648.828 88.7188 648.569 89.3145 648.052 89.7832C647.534 90.2422 646.885 90.4717 646.104 90.4717C645.312 90.4717 644.658 90.2373 644.141 89.7686C643.633 89.2998 643.379 88.709 643.379 87.9961C643.379 87.2832 643.633 86.6924 644.141 86.2236C644.658 85.7549 645.312 85.5205 646.104 85.5205Z" fill="white"/>
<g id="Group 16_3">
<circle id="Ellipse 3_3" cx="569" cy="92" r="11" stroke="white" stroke-width="2"/>
<line id="Line 5_3" x1="563" y1="92" x2="575" y2="92" stroke="white" stroke-width="2" stroke-linecap="round"/>
</g>
<rect id="D2sellPlaceHolder" x="657" y="74" width="86" height="30" fill="#6BB8FF"/>
<rect id="RectangleDay1BuyBT_4" x="780" y="23" width="249" height="44" rx="7" fill="#6BB8FF"/>
<path id="Buy:_3" d="M850.611 55V33.6719H858.272C861.017 33.6719 863.102 34.1748 864.527 35.1807C865.963 36.1865 866.681 37.6465 866.681 39.5605C866.681 40.6641 866.427 41.6064 865.919 42.3877C865.411 43.1689 864.664 43.7451 863.678 44.1162C864.791 44.4092 865.646 44.9561 866.241 45.7568C866.837 46.5576 867.135 47.5342 867.135 48.6865C867.135 50.7764 866.471 52.3486 865.143 53.4033C863.824 54.4482 861.866 54.9805 859.269 55H850.611ZM855.753 45.9326V51.0449H859.122C860.05 51.0449 860.763 50.835 861.261 50.415C861.759 49.9854 862.008 49.3848 862.008 48.6133C862.008 46.8359 861.124 45.9424 859.356 45.9326H855.753ZM855.753 42.5635H858.434C859.557 42.5537 860.357 42.3486 860.836 41.9482C861.314 41.5479 861.554 40.957 861.554 40.1758C861.554 39.2773 861.295 38.6328 860.777 38.2422C860.26 37.8418 859.425 37.6416 858.272 37.6416H855.753V42.5635ZM879.19 53.2861C878.146 54.624 876.734 55.293 874.957 55.293C873.219 55.293 871.9 54.79 871.002 53.7842C870.113 52.7686 869.669 51.3135 869.669 49.4189V39.1504H874.605V49.4482C874.605 50.8057 875.265 51.4844 876.583 51.4844C877.716 51.4844 878.521 51.0791 879 50.2686V39.1504H883.966V55H879.337L879.19 53.2861ZM893.019 48.0859L895.655 39.1504H900.943L894.483 57.6514L894.205 58.3252C893.287 60.376 891.666 61.4014 889.342 61.4014C888.697 61.4014 888.019 61.3037 887.306 61.1084V57.5781H887.95C888.644 57.5781 889.171 57.4756 889.532 57.2705C889.903 57.0752 890.177 56.7188 890.353 56.2012L890.748 55.1465L885.24 39.1504H890.514L893.019 48.0859ZM905.309 50.21C906.09 50.21 906.739 50.4443 907.257 50.9131C907.774 51.3721 908.033 51.9629 908.033 52.6855C908.033 53.4082 907.774 54.0039 907.257 54.4727C906.739 54.9316 906.09 55.1611 905.309 55.1611C904.518 55.1611 903.863 54.9268 903.346 54.458C902.838 53.9893 902.584 53.3984 902.584 52.6855C902.584 51.9727 902.838 51.3818 903.346 50.9131C903.863 50.4443 904.518 50.21 905.309 50.21ZM905.309 38.5205C906.09 38.5205 906.739 38.7549 907.257 39.2236C907.774 39.6826 908.033 40.2734 908.033 40.9961C908.033 41.7188 907.774 42.3145 907.257 42.7832C906.739 43.2422 906.09 43.4717 905.309 43.4717C904.518 43.4717 903.863 43.2373 903.346 42.7686C902.838 42.2998 902.584 41.709 902.584 40.9961C902.584 40.2832 902.838 39.6924 903.346 39.2236C903.863 38.7549 904.518 38.5205 905.309 38.5205Z" fill="white"/>
<g id="Group 16_4">
<circle id="Ellipse 3_4" cx="828" cy="45" r="11" stroke="white" stroke-width="2"/>
<line id="Line 5_4" x1="822" y1="45" x2="834" y2="45" stroke="white" stroke-width="2" stroke-linecap="round"/>
<line id="Line 7_3" x1="828" y1="39" x2="828" y2="52" stroke="white" stroke-width="2" stroke-linecap="round"/>
</g>
<rect id="D3InputPlaceHolder" x="916" y="27" width="86" height="30" fill="#6BB8FF"/>
<rect id="RectangleDay1BuyBT_5" x="780" y="70" width="249" height="44" rx="7" fill="#6BB8FF"/>
<path id="Sell:_2" d="M861.612 96.3311C861.612 95.5791 861.344 94.9932 860.807 94.5732C860.279 94.1533 859.347 93.7188 858.009 93.2695C856.671 92.8203 855.577 92.3857 854.728 91.9658C851.964 90.6084 850.582 88.7432 850.582 86.3701C850.582 85.1885 850.924 84.1484 851.607 83.25C852.301 82.3418 853.277 81.6387 854.537 81.1406C855.797 80.6328 857.213 80.3789 858.785 80.3789C860.318 80.3789 861.69 80.6523 862.901 81.1992C864.122 81.7461 865.069 82.5273 865.743 83.543C866.417 84.5488 866.754 85.7012 866.754 87H861.627C861.627 86.1309 861.358 85.457 860.821 84.9785C860.294 84.5 859.576 84.2607 858.668 84.2607C857.75 84.2607 857.022 84.4658 856.485 84.876C855.958 85.2764 855.694 85.7891 855.694 86.4141C855.694 86.9609 855.987 87.459 856.573 87.9082C857.159 88.3477 858.189 88.8066 859.664 89.2852C861.139 89.7539 862.35 90.2617 863.297 90.8086C865.602 92.1367 866.754 93.9678 866.754 96.3018C866.754 98.167 866.051 99.6318 864.645 100.696C863.238 101.761 861.31 102.293 858.858 102.293C857.13 102.293 855.562 101.985 854.156 101.37C852.76 100.745 851.705 99.8955 850.992 98.8213C850.289 97.7373 849.938 96.4922 849.938 95.0859H855.094C855.094 96.2285 855.387 97.0732 855.973 97.6201C856.568 98.1572 857.53 98.4258 858.858 98.4258C859.708 98.4258 860.377 98.2451 860.865 97.8838C861.363 97.5127 861.612 96.9951 861.612 96.3311ZM876.832 102.293C874.4 102.293 872.433 101.57 870.929 100.125C869.425 98.6699 868.673 96.7803 868.673 94.4561V94.0459C868.673 92.4248 868.971 90.9941 869.566 89.7539C870.172 88.5137 871.051 87.5566 872.203 86.8828C873.355 86.1992 874.723 85.8574 876.305 85.8574C878.531 85.8574 880.289 86.5508 881.578 87.9375C882.867 89.3145 883.512 91.2383 883.512 93.709V95.6279H873.697C873.873 96.5166 874.259 97.2148 874.854 97.7227C875.45 98.2305 876.222 98.4844 877.169 98.4844C878.731 98.4844 879.952 97.9375 880.831 96.8438L883.087 99.5098C882.472 100.359 881.598 101.038 880.465 101.546C879.342 102.044 878.131 102.293 876.832 102.293ZM876.275 89.666C874.83 89.666 873.971 90.623 873.697 92.5371H878.678V92.1562C878.697 91.3652 878.497 90.7549 878.077 90.3252C877.657 89.8857 877.057 89.666 876.275 89.666ZM890.719 102H885.768V79.5H890.719V102ZM898.98 102H894.029V79.5H898.98V102ZM905.104 97.21C905.885 97.21 906.534 97.4443 907.052 97.9131C907.569 98.3721 907.828 98.9629 907.828 99.6855C907.828 100.408 907.569 101.004 907.052 101.473C906.534 101.932 905.885 102.161 905.104 102.161C904.312 102.161 903.658 101.927 903.141 101.458C902.633 100.989 902.379 100.398 902.379 99.6855C902.379 98.9727 902.633 98.3818 903.141 97.9131C903.658 97.4443 904.312 97.21 905.104 97.21ZM905.104 85.5205C905.885 85.5205 906.534 85.7549 907.052 86.2236C907.569 86.6826 907.828 87.2734 907.828 87.9961C907.828 88.7188 907.569 89.3145 907.052 89.7832C906.534 90.2422 905.885 90.4717 905.104 90.4717C904.312 90.4717 903.658 90.2373 903.141 89.7686C902.633 89.2998 902.379 88.709 902.379 87.9961C902.379 87.2832 902.633 86.6924 903.141 86.2236C903.658 85.7549 904.312 85.5205 905.104 85.5205Z" fill="white"/>
<g id="Group 16_5">
<circle id="Ellipse 3_5" cx="828" cy="92" r="11" stroke="white" stroke-width="2"/>
<line id="Line 5_5" x1="822" y1="92" x2="834" y2="92" stroke="white" stroke-width="2" stroke-linecap="round"/>
</g>
<rect id="D3sellPlaceHolder" x="916" y="74" width="86" height="30" fill="#6BB8FF"/>
<rect id="RectangleDay1BuyBT_6" x="1040" y="23" width="244" height="44" rx="7" fill="#6BB8FF"/>
<path id="Buy:_4" d="M1110.61 55V33.6719H1118.27C1121.02 33.6719 1123.1 34.1748 1124.53 35.1807C1125.96 36.1865 1126.68 37.6465 1126.68 39.5605C1126.68 40.6641 1126.43 41.6064 1125.92 42.3877C1125.41 43.1689 1124.66 43.7451 1123.68 44.1162C1124.79 44.4092 1125.65 44.9561 1126.24 45.7568C1126.84 46.5576 1127.13 47.5342 1127.13 48.6865C1127.13 50.7764 1126.47 52.3486 1125.14 53.4033C1123.82 54.4482 1121.87 54.9805 1119.27 55H1110.61ZM1115.75 45.9326V51.0449H1119.12C1120.05 51.0449 1120.76 50.835 1121.26 50.415C1121.76 49.9854 1122.01 49.3848 1122.01 48.6133C1122.01 46.8359 1121.12 45.9424 1119.36 45.9326H1115.75ZM1115.75 42.5635H1118.43C1119.56 42.5537 1120.36 42.3486 1120.84 41.9482C1121.31 41.5479 1121.55 40.957 1121.55 40.1758C1121.55 39.2773 1121.29 38.6328 1120.78 38.2422C1120.26 37.8418 1119.42 37.6416 1118.27 37.6416H1115.75V42.5635ZM1139.19 53.2861C1138.15 54.624 1136.73 55.293 1134.96 55.293C1133.22 55.293 1131.9 54.79 1131 53.7842C1130.11 52.7686 1129.67 51.3135 1129.67 49.4189V39.1504H1134.61V49.4482C1134.61 50.8057 1135.26 51.4844 1136.58 51.4844C1137.72 51.4844 1138.52 51.0791 1139 50.2686V39.1504H1143.97V55H1139.34L1139.19 53.2861ZM1153.02 48.0859L1155.66 39.1504H1160.94L1154.48 57.6514L1154.21 58.3252C1153.29 60.376 1151.67 61.4014 1149.34 61.4014C1148.7 61.4014 1148.02 61.3037 1147.31 61.1084V57.5781H1147.95C1148.64 57.5781 1149.17 57.4756 1149.53 57.2705C1149.9 57.0752 1150.18 56.7188 1150.35 56.2012L1150.75 55.1465L1145.24 39.1504H1150.51L1153.02 48.0859ZM1165.31 50.21C1166.09 50.21 1166.74 50.4443 1167.26 50.9131C1167.77 51.3721 1168.03 51.9629 1168.03 52.6855C1168.03 53.4082 1167.77 54.0039 1167.26 54.4727C1166.74 54.9316 1166.09 55.1611 1165.31 55.1611C1164.52 55.1611 1163.86 54.9268 1163.35 54.458C1162.84 53.9893 1162.58 53.3984 1162.58 52.6855C1162.58 51.9727 1162.84 51.3818 1163.35 50.9131C1163.86 50.4443 1164.52 50.21 1165.31 50.21ZM1165.31 38.5205C1166.09 38.5205 1166.74 38.7549 1167.26 39.2236C1167.77 39.6826 1168.03 40.2734 1168.03 40.9961C1168.03 41.7188 1167.77 42.3145 1167.26 42.7832C1166.74 43.2422 1166.09 43.4717 1165.31 43.4717C1164.52 43.4717 1163.86 43.2373 1163.35 42.7686C1162.84 42.2998 1162.58 41.709 1162.58 40.9961C1162.58 40.2832 1162.84 39.6924 1163.35 39.2236C1163.86 38.7549 1164.52 38.5205 1165.31 38.5205Z" fill="white"/>
<g id="Group 16_6">
<circle id="Ellipse 3_6" cx="1088" cy="45" r="11" stroke="white" stroke-width="2"/>
<line id="Line 5_6" x1="1082" y1="45" x2="1094" y2="45" stroke="white" stroke-width="2" stroke-linecap="round"/>
<line id="Line 7_4" x1="1088" y1="39" x2="1088" y2="52" stroke="white" stroke-width="2" stroke-linecap="round"/>
</g>
<rect id="D4InputPlaceHolder" x="1176" y="27" width="86" height="30" fill="#6BB8FF"/>
<rect id="RectangleDay1BuyBT_7" x="1040" y="70" width="244" height="44" rx="7" fill="#6BB8FF"/>
<path id="Sell:_3" d="M1121.61 96.3311C1121.61 95.5791 1121.34 94.9932 1120.81 94.5732C1120.28 94.1533 1119.35 93.7188 1118.01 93.2695C1116.67 92.8203 1115.58 92.3857 1114.73 91.9658C1111.96 90.6084 1110.58 88.7432 1110.58 86.3701C1110.58 85.1885 1110.92 84.1484 1111.61 83.25C1112.3 82.3418 1113.28 81.6387 1114.54 81.1406C1115.8 80.6328 1117.21 80.3789 1118.79 80.3789C1120.32 80.3789 1121.69 80.6523 1122.9 81.1992C1124.12 81.7461 1125.07 82.5273 1125.74 83.543C1126.42 84.5488 1126.75 85.7012 1126.75 87H1121.63C1121.63 86.1309 1121.36 85.457 1120.82 84.9785C1120.29 84.5 1119.58 84.2607 1118.67 84.2607C1117.75 84.2607 1117.02 84.4658 1116.49 84.876C1115.96 85.2764 1115.69 85.7891 1115.69 86.4141C1115.69 86.9609 1115.99 87.459 1116.57 87.9082C1117.16 88.3477 1118.19 88.8066 1119.66 89.2852C1121.14 89.7539 1122.35 90.2617 1123.3 90.8086C1125.6 92.1367 1126.75 93.9678 1126.75 96.3018C1126.75 98.167 1126.05 99.6318 1124.64 100.696C1123.24 101.761 1121.31 102.293 1118.86 102.293C1117.13 102.293 1115.56 101.985 1114.16 101.37C1112.76 100.745 1111.71 99.8955 1110.99 98.8213C1110.29 97.7373 1109.94 96.4922 1109.94 95.0859H1115.09C1115.09 96.2285 1115.39 97.0732 1115.97 97.6201C1116.57 98.1572 1117.53 98.4258 1118.86 98.4258C1119.71 98.4258 1120.38 98.2451 1120.87 97.8838C1121.36 97.5127 1121.61 96.9951 1121.61 96.3311ZM1136.83 102.293C1134.4 102.293 1132.43 101.57 1130.93 100.125C1129.42 98.6699 1128.67 96.7803 1128.67 94.4561V94.0459C1128.67 92.4248 1128.97 90.9941 1129.57 89.7539C1130.17 88.5137 1131.05 87.5566 1132.2 86.8828C1133.36 86.1992 1134.72 85.8574 1136.3 85.8574C1138.53 85.8574 1140.29 86.5508 1141.58 87.9375C1142.87 89.3145 1143.51 91.2383 1143.51 93.709V95.6279H1133.7C1133.87 96.5166 1134.26 97.2148 1134.85 97.7227C1135.45 98.2305 1136.22 98.4844 1137.17 98.4844C1138.73 98.4844 1139.95 97.9375 1140.83 96.8438L1143.09 99.5098C1142.47 100.359 1141.6 101.038 1140.46 101.546C1139.34 102.044 1138.13 102.293 1136.83 102.293ZM1136.28 89.666C1134.83 89.666 1133.97 90.623 1133.7 92.5371H1138.68V92.1562C1138.7 91.3652 1138.5 90.7549 1138.08 90.3252C1137.66 89.8857 1137.06 89.666 1136.28 89.666ZM1150.72 102H1145.77V79.5H1150.72V102ZM1158.98 102H1154.03V79.5H1158.98V102ZM1165.1 97.21C1165.88 97.21 1166.53 97.4443 1167.05 97.9131C1167.57 98.3721 1167.83 98.9629 1167.83 99.6855C1167.83 100.408 1167.57 101.004 1167.05 101.473C1166.53 101.932 1165.88 102.161 1165.1 102.161C1164.31 102.161 1163.66 101.927 1163.14 101.458C1162.63 100.989 1162.38 100.398 1162.38 99.6855C1162.38 98.9727 1162.63 98.3818 1163.14 97.9131C1163.66 97.4443 1164.31 97.21 1165.1 97.21ZM1165.1 85.5205C1165.88 85.5205 1166.53 85.7549 1167.05 86.2236C1167.57 86.6826 1167.83 87.2734 1167.83 87.9961C1167.83 88.7188 1167.57 89.3145 1167.05 89.7832C1166.53 90.2422 1165.88 90.4717 1165.1 90.4717C1164.31 90.4717 1163.66 90.2373 1163.14 89.7686C1162.63 89.2998 1162.38 88.709 1162.38 87.9961C1162.38 87.2832 1162.63 86.6924 1163.14 86.2236C1163.66 85.7549 1164.31 85.5205 1165.1 85.5205Z" fill="white"/>
<g id="Group 16_7">
<circle id="Ellipse 3_7" cx="1088" cy="92" r="11" stroke="white" stroke-width="2"/>
<line id="Line 5_7" x1="1082" y1="92" x2="1094" y2="92" stroke="white" stroke-width="2" stroke-linecap="round"/>
</g>
<rect id="D4sellPlaceHolder" x="1176" y="74" width="86" height="30" fill="#6BB8FF"/>
<rect id="cashIconPlaceHolder" x="21" y="60" width="207" height="49" fill="white"/>
<rect id="inMarketIcon" x="21" y="30" width="207" height="19" fill="white"/>
<path id="You have $ virtual cash left available to invest." d="M24.8911 35.3979L27.3032 30.7578H28.687L25.5005 36.5532V40H24.2817V36.5532L21.0952 30.7578H22.4917L24.8911 35.3979ZM28.9663 36.5024C28.9663 35.8296 29.0975 35.2244 29.3599 34.687C29.6265 34.1496 29.9946 33.7349 30.4644 33.4429C30.9383 33.1509 31.4779 33.0049 32.083 33.0049C33.0182 33.0049 33.7736 33.3286 34.3491 33.9761C34.9289 34.6235 35.2188 35.4847 35.2188 36.5596V36.6421C35.2188 37.3107 35.0897 37.9116 34.8315 38.4448C34.5776 38.9738 34.2116 39.3864 33.7334 39.6826C33.2594 39.9788 32.7135 40.127 32.0957 40.127C31.1647 40.127 30.4093 39.8032 29.8296 39.1558C29.2541 38.5083 28.9663 37.6514 28.9663 36.585V36.5024ZM30.147 36.6421C30.147 37.4038 30.3226 38.0153 30.6738 38.4766C31.0293 38.9378 31.5033 39.1685 32.0957 39.1685C32.6924 39.1685 33.1663 38.9357 33.5176 38.4702C33.8688 38.0005 34.0444 37.3446 34.0444 36.5024C34.0444 35.7492 33.8646 35.1398 33.5049 34.6743C33.1494 34.2046 32.6755 33.9697 32.083 33.9697C31.5033 33.9697 31.0356 34.2004 30.6802 34.6616C30.3247 35.1229 30.147 35.783 30.147 36.6421ZM40.9316 39.3208C40.4746 39.8582 39.8039 40.127 38.9194 40.127C38.1873 40.127 37.6287 39.9154 37.2437 39.4922C36.8628 39.0648 36.6702 38.4342 36.666 37.6006V33.1318H37.8403V37.5688C37.8403 38.6099 38.2635 39.1304 39.1099 39.1304C40.007 39.1304 40.6037 38.7961 40.8999 38.1274V33.1318H42.0742V40H40.957L40.9316 39.3208ZM48.2632 33.9634C48.7837 33.3244 49.4608 33.0049 50.2944 33.0049C51.7459 33.0049 52.478 33.8237 52.4907 35.4614V40H51.3164V35.4551C51.3122 34.96 51.1979 34.5939 50.9736 34.3569C50.7536 34.12 50.4087 34.0015 49.939 34.0015C49.5581 34.0015 49.2238 34.103 48.936 34.3062C48.6483 34.5093 48.424 34.7759 48.2632 35.106V40H47.0889V30.25H48.2632V33.9634ZM58.4893 40C58.4215 39.8646 58.3665 39.6234 58.3242 39.2764C57.7783 39.8434 57.1266 40.127 56.3691 40.127C55.6921 40.127 55.1356 39.9365 54.6997 39.5557C54.2681 39.1706 54.0522 38.6839 54.0522 38.0957C54.0522 37.3805 54.3231 36.8262 54.8647 36.4326C55.4106 36.0348 56.1766 35.8359 57.1626 35.8359H58.3052V35.2964C58.3052 34.8859 58.1825 34.5601 57.937 34.3188C57.6916 34.0734 57.3298 33.9507 56.8516 33.9507C56.4326 33.9507 56.0814 34.0565 55.7979 34.2681C55.5143 34.4797 55.3726 34.7357 55.3726 35.0361H54.1919C54.1919 34.6934 54.3125 34.3633 54.5537 34.0459C54.7992 33.7243 55.1292 33.4704 55.5439 33.2842C55.9629 33.098 56.422 33.0049 56.9214 33.0049C57.7127 33.0049 58.3327 33.2038 58.7812 33.6016C59.2298 33.9951 59.4626 34.5389 59.4795 35.2329V38.394C59.4795 39.0246 59.5599 39.526 59.7207 39.8984V40H58.4893ZM56.5405 39.105C56.9087 39.105 57.2578 39.0098 57.5879 38.8193C57.918 38.6289 58.1571 38.3813 58.3052 38.0767V36.6675H57.3848C55.946 36.6675 55.2266 37.0885 55.2266 37.9307C55.2266 38.2988 55.3493 38.5866 55.5947 38.7939C55.8402 39.0013 56.1554 39.105 56.5405 39.105ZM63.4849 38.4067L65.186 33.1318H66.3857L63.9229 40H63.0278L60.5396 33.1318H61.7393L63.4849 38.4067ZM70.2769 40.127C69.3459 40.127 68.5884 39.8223 68.0044 39.2129C67.4204 38.5993 67.1284 37.7804 67.1284 36.7563V36.5405C67.1284 35.8592 67.2575 35.252 67.5156 34.7188C67.778 34.1813 68.1419 33.7624 68.6074 33.4619C69.0771 33.1572 69.585 33.0049 70.1309 33.0049C71.0238 33.0049 71.7178 33.299 72.2129 33.8872C72.708 34.4754 72.9556 35.3175 72.9556 36.4136V36.9023H68.3027C68.3197 37.5794 68.5164 38.1274 68.8931 38.5464C69.2739 38.9611 69.7563 39.1685 70.3403 39.1685C70.755 39.1685 71.1063 39.0838 71.394 38.9146C71.6818 38.7453 71.9336 38.521 72.1494 38.2417L72.8667 38.8003C72.2912 39.6847 71.4279 40.127 70.2769 40.127ZM70.1309 33.9697C69.6569 33.9697 69.2591 34.1432 68.9375 34.4902C68.6159 34.833 68.417 35.3154 68.3408 35.9375H71.7812V35.8486C71.7474 35.252 71.5866 34.7907 71.2988 34.4648C71.0111 34.1348 70.6217 33.9697 70.1309 33.9697ZM85.3145 37.6196C85.3145 37.2303 85.1769 36.9023 84.9019 36.6357C84.631 36.3691 84.1719 36.1279 83.5244 35.9121C82.623 35.637 81.965 35.2795 81.5503 34.8394C81.1398 34.395 80.9346 33.8322 80.9346 33.1509C80.9346 32.4569 81.1356 31.8877 81.5376 31.4434C81.9438 30.999 82.5003 30.7345 83.207 30.6499V29.2598H84.1528V30.6562C84.8638 30.7536 85.416 31.0519 85.8096 31.5513C86.2074 32.0506 86.4062 32.734 86.4062 33.6016H85.2383C85.2383 33.0049 85.0965 32.5309 84.813 32.1797C84.5295 31.8285 84.1465 31.6528 83.6641 31.6528C83.1605 31.6528 82.7754 31.784 82.5088 32.0464C82.2422 32.3045 82.1089 32.6663 82.1089 33.1318C82.1089 33.5635 82.2485 33.9084 82.5278 34.1665C82.8114 34.4204 83.2747 34.6532 83.918 34.8647C84.5654 35.0721 85.069 35.3027 85.4287 35.5566C85.7926 35.8063 86.0592 36.0983 86.2285 36.4326C86.402 36.7669 86.4888 37.1584 86.4888 37.6069C86.4888 38.3221 86.2729 38.8976 85.8413 39.3335C85.4139 39.7694 84.813 40.0275 84.0386 40.1079V41.3203H83.0991V40.1079C82.312 40.036 81.6942 39.7567 81.2456 39.27C80.8013 38.7791 80.5791 38.1147 80.5791 37.2769H81.7534C81.7534 37.8651 81.9079 38.3179 82.2168 38.6353C82.5257 38.9526 82.9637 39.1113 83.5308 39.1113C84.0851 39.1113 84.521 38.978 84.8384 38.7114C85.1558 38.4448 85.3145 38.0809 85.3145 37.6196ZM135.48 38.4067L137.181 33.1318H138.381L135.918 40H135.023L132.535 33.1318H133.734L135.48 38.4067ZM140.787 40H139.612V33.1318H140.787V40ZM139.517 31.3101C139.517 31.1196 139.574 30.9588 139.688 30.8276C139.807 30.6965 139.98 30.6309 140.209 30.6309C140.438 30.6309 140.611 30.6965 140.729 30.8276C140.848 30.9588 140.907 31.1196 140.907 31.3101C140.907 31.5005 140.848 31.6592 140.729 31.7861C140.611 31.9131 140.438 31.9766 140.209 31.9766C139.98 31.9766 139.807 31.9131 139.688 31.7861C139.574 31.6592 139.517 31.5005 139.517 31.3101ZM145.992 34.1855C145.814 34.1559 145.621 34.1411 145.414 34.1411C144.644 34.1411 144.121 34.4691 143.846 35.125V40H142.672V33.1318H143.814L143.833 33.9253C144.219 33.3117 144.764 33.0049 145.471 33.0049C145.7 33.0049 145.873 33.0345 145.992 33.0938V34.1855ZM148.988 31.4688V33.1318H150.27V34.0396H148.988V38.2988C148.988 38.5739 149.045 38.7812 149.159 38.9209C149.273 39.0563 149.468 39.124 149.743 39.124C149.879 39.124 150.065 39.0986 150.302 39.0479V40C149.993 40.0846 149.692 40.127 149.4 40.127C148.876 40.127 148.48 39.9683 148.213 39.6509C147.947 39.3335 147.813 38.8828 147.813 38.2988V34.0396H146.563V33.1318H147.813V31.4688H148.988ZM155.888 39.3208C155.431 39.8582 154.76 40.127 153.875 40.127C153.143 40.127 152.585 39.9154 152.2 39.4922C151.819 39.0648 151.626 38.4342 151.622 37.6006V33.1318H152.796V37.5688C152.796 38.6099 153.22 39.1304 154.066 39.1304C154.963 39.1304 155.56 38.7961 155.856 38.1274V33.1318H157.03V40H155.913L155.888 39.3208ZM163.061 40C162.993 39.8646 162.938 39.6234 162.896 39.2764C162.35 39.8434 161.698 40.127 160.94 40.127C160.263 40.127 159.707 39.9365 159.271 39.5557C158.839 39.1706 158.624 38.6839 158.624 38.0957C158.624 37.3805 158.894 36.8262 159.436 36.4326C159.982 36.0348 160.748 35.8359 161.734 35.8359H162.876V35.2964C162.876 34.8859 162.754 34.5601 162.508 34.3188C162.263 34.0734 161.901 33.9507 161.423 33.9507C161.004 33.9507 160.653 34.0565 160.369 34.2681C160.086 34.4797 159.944 34.7357 159.944 35.0361H158.763C158.763 34.6934 158.884 34.3633 159.125 34.0459C159.37 33.7243 159.701 33.4704 160.115 33.2842C160.534 33.098 160.993 33.0049 161.493 33.0049C162.284 33.0049 162.904 33.2038 163.353 33.6016C163.801 33.9951 164.034 34.5389 164.051 35.2329V38.394C164.051 39.0246 164.131 39.526 164.292 39.8984V40H163.061ZM161.112 39.105C161.48 39.105 161.829 39.0098 162.159 38.8193C162.489 38.6289 162.728 38.3813 162.876 38.0767V36.6675H161.956C160.517 36.6675 159.798 37.0885 159.798 37.9307C159.798 38.2988 159.921 38.5866 160.166 38.7939C160.411 39.0013 160.727 39.105 161.112 39.105ZM167.167 40H165.993V30.25H167.167V40ZM175.032 39.1685C175.451 39.1685 175.817 39.0415 176.13 38.7876C176.444 38.5337 176.617 38.2163 176.651 37.8354H177.762C177.741 38.229 177.605 38.6035 177.355 38.959C177.106 39.3145 176.771 39.598 176.353 39.8096C175.938 40.0212 175.498 40.127 175.032 40.127C174.097 40.127 173.352 39.8159 172.798 39.1938C172.248 38.5675 171.973 37.7127 171.973 36.6294V36.4326C171.973 35.764 172.095 35.1694 172.341 34.6489C172.586 34.1284 172.938 33.7243 173.395 33.4365C173.856 33.1488 174.4 33.0049 175.026 33.0049C175.796 33.0049 176.435 33.2355 176.943 33.6968C177.455 34.158 177.728 34.7568 177.762 35.4932H176.651C176.617 35.0488 176.448 34.6849 176.143 34.4014C175.843 34.1136 175.47 33.9697 175.026 33.9697C174.429 33.9697 173.966 34.1855 173.636 34.6172C173.31 35.0446 173.147 35.6646 173.147 36.4771V36.6992C173.147 37.4906 173.31 38.0999 173.636 38.5273C173.962 38.9548 174.427 39.1685 175.032 39.1685ZM183.322 40C183.255 39.8646 183.2 39.6234 183.157 39.2764C182.611 39.8434 181.96 40.127 181.202 40.127C180.525 40.127 179.969 39.9365 179.533 39.5557C179.101 39.1706 178.885 38.6839 178.885 38.0957C178.885 37.3805 179.156 36.8262 179.698 36.4326C180.244 36.0348 181.01 35.8359 181.996 35.8359H183.138V35.2964C183.138 34.8859 183.015 34.5601 182.77 34.3188C182.525 34.0734 182.163 33.9507 181.685 33.9507C181.266 33.9507 180.914 34.0565 180.631 34.2681C180.347 34.4797 180.206 34.7357 180.206 35.0361H179.025C179.025 34.6934 179.146 34.3633 179.387 34.0459C179.632 33.7243 179.962 33.4704 180.377 33.2842C180.796 33.098 181.255 33.0049 181.754 33.0049C182.546 33.0049 183.166 33.2038 183.614 33.6016C184.063 33.9951 184.296 34.5389 184.312 35.2329V38.394C184.312 39.0246 184.393 39.526 184.554 39.8984V40H183.322ZM181.374 39.105C181.742 39.105 182.091 39.0098 182.421 38.8193C182.751 38.6289 182.99 38.3813 183.138 38.0767V36.6675H182.218C180.779 36.6675 180.06 37.0885 180.06 37.9307C180.06 38.2988 180.182 38.5866 180.428 38.7939C180.673 39.0013 180.988 39.105 181.374 39.105ZM190.152 38.1782C190.152 37.8608 190.032 37.6154 189.791 37.4419C189.554 37.2642 189.137 37.1118 188.54 36.9849C187.948 36.8579 187.476 36.7056 187.125 36.5278C186.778 36.3501 186.519 36.1385 186.35 35.8931C186.185 35.6476 186.103 35.3556 186.103 35.0171C186.103 34.4543 186.34 33.9782 186.813 33.5889C187.292 33.1995 187.901 33.0049 188.642 33.0049C189.42 33.0049 190.051 33.2059 190.533 33.6079C191.02 34.0099 191.263 34.5241 191.263 35.1504H190.083C190.083 34.8288 189.945 34.5516 189.67 34.3188C189.399 34.0861 189.056 33.9697 188.642 33.9697C188.214 33.9697 187.88 34.0628 187.639 34.249C187.397 34.4352 187.277 34.6785 187.277 34.979C187.277 35.2625 187.389 35.4762 187.613 35.6201C187.838 35.764 188.242 35.9015 188.826 36.0327C189.414 36.1639 189.89 36.3205 190.254 36.5024C190.618 36.6844 190.887 36.9045 191.06 37.1626C191.238 37.4165 191.327 37.7275 191.327 38.0957C191.327 38.7093 191.081 39.2023 190.59 39.5747C190.099 39.9429 189.463 40.127 188.68 40.127C188.13 40.127 187.643 40.0296 187.22 39.835C186.797 39.6403 186.464 39.3695 186.223 39.0225C185.986 38.6712 185.868 38.2925 185.868 37.8862H187.042C187.063 38.2798 187.22 38.5929 187.512 38.8257C187.808 39.0542 188.197 39.1685 188.68 39.1685C189.124 39.1685 189.479 39.0796 189.746 38.9019C190.017 38.7199 190.152 38.4787 190.152 38.1782ZM194.031 33.9634C194.551 33.3244 195.228 33.0049 196.062 33.0049C197.514 33.0049 198.246 33.8237 198.258 35.4614V40H197.084V35.4551C197.08 34.96 196.965 34.5939 196.741 34.3569C196.521 34.12 196.176 34.0015 195.707 34.0015C195.326 34.0015 194.991 34.103 194.704 34.3062C194.416 34.5093 194.192 34.7759 194.031 35.106V40H192.856V30.25H194.031V33.9634ZM204.517 40H203.343V30.25H204.517V40ZM209.252 40.127C208.321 40.127 207.564 39.8223 206.98 39.2129C206.396 38.5993 206.104 37.7804 206.104 36.7563V36.5405C206.104 35.8592 206.233 35.252 206.491 34.7188C206.754 34.1813 207.118 33.7624 207.583 33.4619C208.053 33.1572 208.561 33.0049 209.106 33.0049C209.999 33.0049 210.693 33.299 211.188 33.8872C211.684 34.4754 211.931 35.3175 211.931 36.4136V36.9023H207.278C207.295 37.5794 207.492 38.1274 207.869 38.5464C208.25 38.9611 208.732 39.1685 209.316 39.1685C209.731 39.1685 210.082 39.0838 210.37 38.9146C210.657 38.7453 210.909 38.521 211.125 38.2417L211.842 38.8003C211.267 39.6847 210.403 40.127 209.252 40.127ZM209.106 33.9697C208.632 33.9697 208.235 34.1432 207.913 34.4902C207.591 34.833 207.393 35.3154 207.316 35.9375H210.757V35.8486C210.723 35.252 210.562 34.7907 210.274 34.4648C209.987 34.1348 209.597 33.9697 209.106 33.9697ZM213.874 40V34.0396H212.788V33.1318H213.874V32.4272C213.874 31.6909 214.07 31.1217 214.464 30.7197C214.857 30.3177 215.414 30.1167 216.133 30.1167C216.404 30.1167 216.673 30.1527 216.939 30.2246L216.876 31.1768C216.677 31.1387 216.465 31.1196 216.241 31.1196C215.86 31.1196 215.566 31.2318 215.359 31.4561C215.152 31.6761 215.048 31.9935 215.048 32.4082V33.1318H216.514V34.0396H215.048V40H213.874ZM219.409 31.4688V33.1318H220.691V34.0396H219.409V38.2988C219.409 38.5739 219.466 38.7812 219.58 38.9209C219.694 39.0563 219.889 39.124 220.164 39.124C220.299 39.124 220.486 39.0986 220.723 39.0479V40C220.414 40.0846 220.113 40.127 219.821 40.127C219.297 40.127 218.901 39.9683 218.634 39.6509C218.368 39.3335 218.234 38.8828 218.234 38.2988V34.0396H216.984V33.1318H218.234V31.4688H219.409ZM26.1289 55C26.0612 54.8646 26.0062 54.6234 25.9639 54.2764C25.418 54.8434 24.7663 55.127 24.0088 55.127C23.3317 55.127 22.7752 54.9365 22.3394 54.5557C21.9077 54.1706 21.6919 53.6839 21.6919 53.0957C21.6919 52.3805 21.9627 51.8262 22.5044 51.4326C23.0503 51.0348 23.8162 50.8359 24.8022 50.8359H25.9448V50.2964C25.9448 49.8859 25.8221 49.5601 25.5767 49.3188C25.3312 49.0734 24.9694 48.9507 24.4912 48.9507C24.0723 48.9507 23.721 49.0565 23.4375 49.2681C23.154 49.4797 23.0122 49.7357 23.0122 50.0361H21.8315C21.8315 49.6934 21.9521 49.3633 22.1934 49.0459C22.4388 48.7243 22.7689 48.4704 23.1836 48.2842C23.6025 48.098 24.0617 48.0049 24.561 48.0049C25.3524 48.0049 25.9723 48.2038 26.4209 48.6016C26.8695 48.9951 27.1022 49.5389 27.1191 50.2329V53.394C27.1191 54.0246 27.1995 54.526 27.3604 54.8984V55H26.1289ZM24.1802 54.105C24.5483 54.105 24.8975 54.0098 25.2275 53.8193C25.5576 53.6289 25.7967 53.3813 25.9448 53.0767V51.6675H25.0244C23.5856 51.6675 22.8662 52.0885 22.8662 52.9307C22.8662 53.2988 22.9889 53.5866 23.2344 53.7939C23.4798 54.0013 23.7951 54.105 24.1802 54.105ZM31.1245 53.4067L32.8257 48.1318H34.0254L31.5625 55H30.6675L28.1792 48.1318H29.3789L31.1245 53.4067ZM39.2939 55C39.2262 54.8646 39.1712 54.6234 39.1289 54.2764C38.583 54.8434 37.9313 55.127 37.1738 55.127C36.4967 55.127 35.9403 54.9365 35.5044 54.5557C35.0728 54.1706 34.8569 53.6839 34.8569 53.0957C34.8569 52.3805 35.1278 51.8262 35.6694 51.4326C36.2153 51.0348 36.9813 50.8359 37.9673 50.8359H39.1099V50.2964C39.1099 49.8859 38.9871 49.5601 38.7417 49.3188C38.4963 49.0734 38.1344 48.9507 37.6562 48.9507C37.2373 48.9507 36.8861 49.0565 36.6025 49.2681C36.319 49.4797 36.1772 49.7357 36.1772 50.0361H34.9966C34.9966 49.6934 35.1172 49.3633 35.3584 49.0459C35.6038 48.7243 35.9339 48.4704 36.3486 48.2842C36.7676 48.098 37.2267 48.0049 37.7261 48.0049C38.5174 48.0049 39.1374 48.2038 39.5859 48.6016C40.0345 48.9951 40.2673 49.5389 40.2842 50.2329V53.394C40.2842 54.0246 40.3646 54.526 40.5254 54.8984V55H39.2939ZM37.3452 54.105C37.7134 54.105 38.0625 54.0098 38.3926 53.8193C38.7227 53.6289 38.9618 53.3813 39.1099 53.0767V51.6675H38.1895C36.7507 51.6675 36.0312 52.0885 36.0312 52.9307C36.0312 53.2988 36.154 53.5866 36.3994 53.7939C36.6449 54.0013 36.9601 54.105 37.3452 54.105ZM43.4009 55H42.2266V48.1318H43.4009V55ZM42.1313 46.3101C42.1313 46.1196 42.1885 45.9588 42.3027 45.8276C42.4212 45.6965 42.5947 45.6309 42.8232 45.6309C43.0518 45.6309 43.2253 45.6965 43.3438 45.8276C43.4622 45.9588 43.5215 46.1196 43.5215 46.3101C43.5215 46.5005 43.4622 46.6592 43.3438 46.7861C43.2253 46.9131 43.0518 46.9766 42.8232 46.9766C42.5947 46.9766 42.4212 46.9131 42.3027 46.7861C42.1885 46.6592 42.1313 46.5005 42.1313 46.3101ZM46.562 55H45.3877V45.25H46.562V55ZM52.6875 55C52.6198 54.8646 52.5648 54.6234 52.5225 54.2764C51.9766 54.8434 51.3249 55.127 50.5674 55.127C49.8903 55.127 49.3338 54.9365 48.8979 54.5557C48.4663 54.1706 48.2505 53.6839 48.2505 53.0957C48.2505 52.3805 48.5213 51.8262 49.063 51.4326C49.6089 51.0348 50.3748 50.8359 51.3608 50.8359H52.5034V50.2964C52.5034 49.8859 52.3807 49.5601 52.1353 49.3188C51.8898 49.0734 51.528 48.9507 51.0498 48.9507C50.6309 48.9507 50.2796 49.0565 49.9961 49.2681C49.7126 49.4797 49.5708 49.7357 49.5708 50.0361H48.3901C48.3901 49.6934 48.5107 49.3633 48.752 49.0459C48.9974 48.7243 49.3275 48.4704 49.7422 48.2842C50.1611 48.098 50.6203 48.0049 51.1196 48.0049C51.911 48.0049 52.5309 48.2038 52.9795 48.6016C53.4281 48.9951 53.6608 49.5389 53.6777 50.2329V53.394C53.6777 54.0246 53.7581 54.526 53.9189 54.8984V55H52.6875ZM50.7388 54.105C51.1069 54.105 51.4561 54.0098 51.7861 53.8193C52.1162 53.6289 52.3553 53.3813 52.5034 53.0767V51.6675H51.583C50.1442 51.6675 49.4248 52.0885 49.4248 52.9307C49.4248 53.2988 49.5475 53.5866 49.793 53.7939C50.0384 54.0013 50.3537 54.105 50.7388 54.105ZM61.333 51.6421C61.333 52.6916 61.0918 53.5358 60.6094 54.1748C60.127 54.8096 59.4795 55.127 58.667 55.127C57.7995 55.127 57.1287 54.8201 56.6548 54.2065L56.5977 55H55.5186V45.25H56.6929V48.8872C57.1668 48.299 57.8206 48.0049 58.6543 48.0049C59.488 48.0049 60.1418 48.3201 60.6157 48.9507C61.0939 49.5812 61.333 50.4445 61.333 51.5405V51.6421ZM60.1587 51.5088C60.1587 50.709 60.0042 50.0911 59.6953 49.6553C59.3864 49.2194 58.9421 49.0015 58.3623 49.0015C57.5879 49.0015 57.0314 49.3612 56.6929 50.0806V53.0513C57.0526 53.7707 57.6133 54.1304 58.375 54.1304C58.9378 54.1304 59.3758 53.9124 59.689 53.4766C60.0021 53.0407 60.1587 52.3848 60.1587 51.5088ZM64.0942 55H62.9199V45.25H64.0942V55ZM68.8296 55.127C67.8986 55.127 67.1411 54.8223 66.5571 54.2129C65.9731 53.5993 65.6812 52.7804 65.6812 51.7563V51.5405C65.6812 50.8592 65.8102 50.252 66.0684 49.7188C66.3307 49.1813 66.6947 48.7624 67.1602 48.4619C67.6299 48.1572 68.1377 48.0049 68.6836 48.0049C69.5765 48.0049 70.2705 48.299 70.7656 48.8872C71.2607 49.4754 71.5083 50.3175 71.5083 51.4136V51.9023H66.8555C66.8724 52.5794 67.0692 53.1274 67.4458 53.5464C67.8267 53.9611 68.3091 54.1685 68.8931 54.1685C69.3078 54.1685 69.659 54.0838 69.9468 53.9146C70.2345 53.7453 70.4863 53.521 70.7021 53.2417L71.4194 53.8003C70.8439 54.6847 69.9806 55.127 68.8296 55.127ZM68.6836 48.9697C68.2096 48.9697 67.8118 49.1432 67.4902 49.4902C67.1686 49.833 66.9697 50.3154 66.8936 50.9375H70.334V50.8486C70.3001 50.252 70.1393 49.7907 69.8516 49.4648C69.5638 49.1348 69.1745 48.9697 68.6836 48.9697ZM77.6909 46.4688V48.1318H78.9731V49.0396H77.6909V53.2988C77.6909 53.5739 77.748 53.7812 77.8623 53.9209C77.9766 54.0563 78.1712 54.124 78.4463 54.124C78.5817 54.124 78.7679 54.0986 79.0049 54.0479V55C78.696 55.0846 78.3955 55.127 78.1035 55.127C77.5788 55.127 77.1831 54.9683 76.9165 54.6509C76.6499 54.3335 76.5166 53.8828 76.5166 53.2988V49.0396H75.2661V48.1318H76.5166V46.4688H77.6909ZM79.9126 51.5024C79.9126 50.8296 80.0438 50.2244 80.3062 49.687C80.5728 49.1496 80.9409 48.7349 81.4106 48.4429C81.8846 48.1509 82.4242 48.0049 83.0293 48.0049C83.9645 48.0049 84.7199 48.3286 85.2954 48.9761C85.8752 49.6235 86.165 50.4847 86.165 51.5596V51.6421C86.165 52.3107 86.036 52.9116 85.7778 53.4448C85.5239 53.9738 85.1579 54.3864 84.6797 54.6826C84.2057 54.9788 83.6598 55.127 83.042 55.127C82.111 55.127 81.3556 54.8032 80.7759 54.1558C80.2004 53.5083 79.9126 52.6514 79.9126 51.585V51.5024ZM81.0933 51.6421C81.0933 52.4038 81.2689 53.0153 81.6201 53.4766C81.9756 53.9378 82.4495 54.1685 83.042 54.1685C83.6387 54.1685 84.1126 53.9357 84.4639 53.4702C84.8151 53.0005 84.9907 52.3446 84.9907 51.5024C84.9907 50.7492 84.8109 50.1398 84.4512 49.6743C84.0957 49.2046 83.6217 48.9697 83.0293 48.9697C82.4495 48.9697 81.9819 49.2004 81.6265 49.6616C81.271 50.1229 81.0933 50.783 81.0933 51.6421ZM92.1382 55H90.9639V48.1318H92.1382V55ZM90.8687 46.3101C90.8687 46.1196 90.9258 45.9588 91.04 45.8276C91.1585 45.6965 91.332 45.6309 91.5605 45.6309C91.7891 45.6309 91.9626 45.6965 92.0811 45.8276C92.1995 45.9588 92.2588 46.1196 92.2588 46.3101C92.2588 46.5005 92.1995 46.6592 92.0811 46.7861C91.9626 46.9131 91.7891 46.9766 91.5605 46.9766C91.332 46.9766 91.1585 46.9131 91.04 46.7861C90.9258 46.6592 90.8687 46.5005 90.8687 46.3101ZM95.1343 48.1318L95.1724 48.9951C95.6971 48.335 96.3826 48.0049 97.229 48.0049C98.6805 48.0049 99.4126 48.8237 99.4253 50.4614V55H98.251V50.4551C98.2467 49.96 98.1325 49.5939 97.9082 49.3569C97.6882 49.12 97.3433 49.0015 96.8735 49.0015C96.4927 49.0015 96.1584 49.103 95.8706 49.3062C95.5828 49.5093 95.3586 49.7759 95.1978 50.106V55H94.0234V48.1318H95.1343ZM103.462 53.4067L105.164 48.1318H106.363L103.9 55H103.005L100.517 48.1318H101.717L103.462 53.4067ZM110.254 55.127C109.323 55.127 108.566 54.8223 107.982 54.2129C107.398 53.5993 107.106 52.7804 107.106 51.7563V51.5405C107.106 50.8592 107.235 50.252 107.493 49.7188C107.756 49.1813 108.119 48.7624 108.585 48.4619C109.055 48.1572 109.562 48.0049 110.108 48.0049C111.001 48.0049 111.695 48.299 112.19 48.8872C112.686 49.4754 112.933 50.3175 112.933 51.4136V51.9023H108.28C108.297 52.5794 108.494 53.1274 108.871 53.5464C109.251 53.9611 109.734 54.1685 110.318 54.1685C110.733 54.1685 111.084 54.0838 111.372 53.9146C111.659 53.7453 111.911 53.521 112.127 53.2417L112.844 53.8003C112.269 54.6847 111.405 55.127 110.254 55.127ZM110.108 48.9697C109.634 48.9697 109.237 49.1432 108.915 49.4902C108.593 49.833 108.395 50.3154 108.318 50.9375H111.759V50.8486C111.725 50.252 111.564 49.7907 111.276 49.4648C110.989 49.1348 110.599 48.9697 110.108 48.9697ZM118.297 53.1782C118.297 52.8608 118.176 52.6154 117.935 52.4419C117.698 52.2642 117.281 52.1118 116.685 51.9849C116.092 51.8579 115.62 51.7056 115.269 51.5278C114.922 51.3501 114.664 51.1385 114.495 50.8931C114.33 50.6476 114.247 50.3556 114.247 50.0171C114.247 49.4543 114.484 48.9782 114.958 48.5889C115.436 48.1995 116.046 48.0049 116.786 48.0049C117.565 48.0049 118.195 48.2059 118.678 48.6079C119.164 49.0099 119.408 49.5241 119.408 50.1504H118.227C118.227 49.8288 118.09 49.5516 117.814 49.3188C117.544 49.0861 117.201 48.9697 116.786 48.9697C116.359 48.9697 116.024 49.0628 115.783 49.249C115.542 49.4352 115.421 49.6785 115.421 49.979C115.421 50.2625 115.534 50.4762 115.758 50.6201C115.982 50.764 116.386 50.9015 116.97 51.0327C117.558 51.1639 118.035 51.3205 118.398 51.5024C118.762 51.6844 119.031 51.9045 119.205 52.1626C119.382 52.4165 119.471 52.7275 119.471 53.0957C119.471 53.7093 119.226 54.2023 118.735 54.5747C118.244 54.9429 117.607 55.127 116.824 55.127C116.274 55.127 115.787 55.0296 115.364 54.835C114.941 54.6403 114.609 54.3695 114.368 54.0225C114.131 53.6712 114.012 53.2925 114.012 52.8862H115.187C115.208 53.2798 115.364 53.5929 115.656 53.8257C115.952 54.0542 116.342 54.1685 116.824 54.1685C117.269 54.1685 117.624 54.0796 117.891 53.9019C118.161 53.7199 118.297 53.4787 118.297 53.1782ZM122.594 46.4688V48.1318H123.876V49.0396H122.594V53.2988C122.594 53.5739 122.651 53.7812 122.766 53.9209C122.88 54.0563 123.075 54.124 123.35 54.124C123.485 54.124 123.671 54.0986 123.908 54.0479V55C123.599 55.0846 123.299 55.127 123.007 55.127C122.482 55.127 122.086 54.9683 121.82 54.6509C121.553 54.3335 121.42 53.8828 121.42 53.2988V49.0396H120.169V48.1318H121.42V46.4688H122.594ZM125.279 54.3843C125.279 54.1812 125.339 54.0119 125.457 53.8765C125.58 53.741 125.762 53.6733 126.003 53.6733C126.244 53.6733 126.426 53.741 126.549 53.8765C126.676 54.0119 126.739 54.1812 126.739 54.3843C126.739 54.5789 126.676 54.7419 126.549 54.873C126.426 55.0042 126.244 55.0698 126.003 55.0698C125.762 55.0698 125.58 55.0042 125.457 54.873C125.339 54.7419 125.279 54.5789 125.279 54.3843Z" fill="black"/>
<path id="cash" d="M91 28H127V44H91V28Z" fill="white"/>
<rect id="earnedTotal" x="984" y="3" width="33" height="18" fill="white"/>
<rect id="moneyTotal" x="1026" y="3" width="47" height="20" fill="white"/>
<rect id="earnedTotalMonthly" x="1162" y="5" width="41" height="18" fill="white"/>
<rect id="moneyTotalMonthly" x="1218" y="3" width="56" height="20" fill="white"/>
</g>
</svg>
