<svg width="1284" height="114" viewBox="0 0 1284 114" fill="none" xmlns="http://www.w3.org/2000/svg">
<g id="BandS">
<rect id="Rectangle 17" width="1284" height="114" fill="white"/>
<g id="Group 17">
<rect id="RectangleDay1BuyBT" x="260" y="23" width="249" height="44" rx="7" fill="#6BB8FF"/>
<path id="Buy:" d="M330.611 55V33.6719H338.272C341.017 33.6719 343.102 34.1748 344.527 35.1807C345.963 36.1865 346.681 37.6465 346.681 39.5605C346.681 40.6641 346.427 41.6064 345.919 42.3877C345.411 43.1689 344.664 43.7451 343.678 44.1162C344.791 44.4092 345.646 44.9561 346.241 45.7568C346.837 46.5576 347.135 47.5342 347.135 48.6865C347.135 50.7764 346.471 52.3486 345.143 53.4033C343.824 54.4482 341.866 54.9805 339.269 55H330.611ZM335.753 45.9326V51.0449H339.122C340.05 51.0449 340.763 50.835 341.261 50.415C341.759 49.9854 342.008 49.3848 342.008 48.6133C342.008 46.8359 341.124 45.9424 339.356 45.9326H335.753ZM335.753 42.5635H338.434C339.557 42.5537 340.357 42.3486 340.836 41.9482C341.314 41.5479 341.554 40.957 341.554 40.1758C341.554 39.2773 341.295 38.6328 340.777 38.2422C340.26 37.8418 339.425 37.6416 338.272 37.6416H335.753V42.5635ZM359.19 53.2861C358.146 54.624 356.734 55.293 354.957 55.293C353.219 55.293 351.9 54.79 351.002 53.7842C350.113 52.7686 349.669 51.3135 349.669 49.4189V39.1504H354.605V49.4482C354.605 50.8057 355.265 51.4844 356.583 51.4844C357.716 51.4844 358.521 51.0791 359 50.2686V39.1504H363.966V55H359.337L359.19 53.2861ZM373.019 48.0859L375.655 39.1504H380.943L374.483 57.6514L374.205 58.3252C373.287 60.376 371.666 61.4014 369.342 61.4014C368.697 61.4014 368.019 61.3037 367.306 61.1084V57.5781H367.95C368.644 57.5781 369.171 57.4756 369.532 57.2705C369.903 57.0752 370.177 56.7188 370.353 56.2012L370.748 55.1465L365.24 39.1504H370.514L373.019 48.0859ZM385.309 50.21C386.09 50.21 386.739 50.4443 387.257 50.9131C387.774 51.3721 388.033 51.9629 388.033 52.6855C388.033 53.4082 387.774 54.0039 387.257 54.4727C386.739 54.9316 386.09 55.1611 385.309 55.1611C384.518 55.1611 383.863 54.9268 383.346 54.458C382.838 53.9893 382.584 53.3984 382.584 52.6855C382.584 51.9727 382.838 51.3818 383.346 50.9131C383.863 50.4443 384.518 50.21 385.309 50.21ZM385.309 38.5205C386.09 38.5205 386.739 38.7549 387.257 39.2236C387.774 39.6826 388.033 40.2734 388.033 40.9961C388.033 41.7188 387.774 42.3145 387.257 42.7832C386.739 43.2422 386.09 43.4717 385.309 43.4717C384.518 43.4717 383.863 43.2373 383.346 42.7686C382.838 42.2998 382.584 41.709 382.584 40.9961C382.584 40.2832 382.838 39.6924 383.346 39.2236C383.863 38.7549 384.518 38.5205 385.309 38.5205Z" fill="white"/>
<g id="Group 16">
<circle id="Ellipse 3" cx="308" cy="45" r="11" stroke="white" stroke-width="2"/>
<line id="Line 5" x1="302" y1="45" x2="314" y2="45" stroke="white" stroke-width="2" stroke-linecap="round"/>
<line id="Line 7" x1="308" y1="39" x2="308" y2="52" stroke="white" stroke-width="2" stroke-linecap="round"/>
</g>
<rect id="D1InputPlaceHolder" x="396" y="27" width="86" height="30" fill="#6BB8FF"/>
</g>
<g id="Group 18">
<rect id="RectangleDay1BuyBT_2" x="521" y="23" width="249" height="44" rx="7" fill="#6BB8FF"/>
<path id="Buy:_2" d="M591.611 55V33.6719H599.272C602.017 33.6719 604.102 34.1748 605.527 35.1807C606.963 36.1865 607.681 37.6465 607.681 39.5605C607.681 40.6641 607.427 41.6064 606.919 42.3877C606.411 43.1689 605.664 43.7451 604.678 44.1162C605.791 44.4092 606.646 44.9561 607.241 45.7568C607.837 46.5576 608.135 47.5342 608.135 48.6865C608.135 50.7764 607.471 52.3486 606.143 53.4033C604.824 54.4482 602.866 54.9805 600.269 55H591.611ZM596.753 45.9326V51.0449H600.122C601.05 51.0449 601.763 50.835 602.261 50.415C602.759 49.9854 603.008 49.3848 603.008 48.6133C603.008 46.8359 602.124 45.9424 600.356 45.9326H596.753ZM596.753 42.5635H599.434C600.557 42.5537 601.357 42.3486 601.836 41.9482C602.314 41.5479 602.554 40.957 602.554 40.1758C602.554 39.2773 602.295 38.6328 601.777 38.2422C601.26 37.8418 600.425 37.6416 599.272 37.6416H596.753V42.5635ZM620.19 53.2861C619.146 54.624 617.734 55.293 615.957 55.293C614.219 55.293 612.9 54.79 612.002 53.7842C611.113 52.7686 610.669 51.3135 610.669 49.4189V39.1504H615.605V49.4482C615.605 50.8057 616.265 51.4844 617.583 51.4844C618.716 51.4844 619.521 51.0791 620 50.2686V39.1504H624.966V55H620.337L620.19 53.2861ZM634.019 48.0859L636.655 39.1504H641.943L635.483 57.6514L635.205 58.3252C634.287 60.376 632.666 61.4014 630.342 61.4014C629.697 61.4014 629.019 61.3037 628.306 61.1084V57.5781H628.95C629.644 57.5781 630.171 57.4756 630.532 57.2705C630.903 57.0752 631.177 56.7188 631.353 56.2012L631.748 55.1465L626.24 39.1504H631.514L634.019 48.0859ZM646.309 50.21C647.09 50.21 647.739 50.4443 648.257 50.9131C648.774 51.3721 649.033 51.9629 649.033 52.6855C649.033 53.4082 648.774 54.0039 648.257 54.4727C647.739 54.9316 647.09 55.1611 646.309 55.1611C645.518 55.1611 644.863 54.9268 644.346 54.458C643.838 53.9893 643.584 53.3984 643.584 52.6855C643.584 51.9727 643.838 51.3818 644.346 50.9131C644.863 50.4443 645.518 50.21 646.309 50.21ZM646.309 38.5205C647.09 38.5205 647.739 38.7549 648.257 39.2236C648.774 39.6826 649.033 40.2734 649.033 40.9961C649.033 41.7188 648.774 42.3145 648.257 42.7832C647.739 43.2422 647.09 43.4717 646.309 43.4717C645.518 43.4717 644.863 43.2373 644.346 42.7686C643.838 42.2998 643.584 41.709 643.584 40.9961C643.584 40.2832 643.838 39.6924 644.346 39.2236C644.863 38.7549 645.518 38.5205 646.309 38.5205Z" fill="white"/>
<g id="Group 16_2">
<circle id="Ellipse 3_2" cx="569" cy="45" r="11" stroke="white" stroke-width="2"/>
<line id="Line 5_2" x1="563" y1="45" x2="575" y2="45" stroke="white" stroke-width="2" stroke-linecap="round"/>
<line id="Line 7_2" x1="569" y1="39" x2="569" y2="52" stroke="white" stroke-width="2" stroke-linecap="round"/>
</g>
<rect id="D2InputPlaceHolder" x="657" y="27" width="86" height="30" fill="#6BB8FF"/>
</g>
<g id="Group 21">
<rect id="RectangleDay1BuyBT_3" x="521" y="70" width="249" height="44" rx="7" fill="#6BB8FF"/>
<path id="Sell:" d="M602.612 96.3311C602.612 95.5791 602.344 94.9932 601.807 94.5732C601.279 94.1533 600.347 93.7188 599.009 93.2695C597.671 92.8203 596.577 92.3857 595.728 91.9658C592.964 90.6084 591.582 88.7432 591.582 86.3701C591.582 85.1885 591.924 84.1484 592.607 83.25C593.301 82.3418 594.277 81.6387 595.537 81.1406C596.797 80.6328 598.213 80.3789 599.785 80.3789C601.318 80.3789 602.69 80.6523 603.901 81.1992C605.122 81.7461 606.069 82.5273 606.743 83.543C607.417 84.5488 607.754 85.7012 607.754 87H602.627C602.627 86.1309 602.358 85.457 601.821 84.9785C601.294 84.5 600.576 84.2607 599.668 84.2607C598.75 84.2607 598.022 84.4658 597.485 84.876C596.958 85.2764 596.694 85.7891 596.694 86.4141C596.694 86.9609 596.987 87.459 597.573 87.9082C598.159 88.3477 599.189 88.8066 600.664 89.2852C602.139 89.7539 603.35 90.2617 604.297 90.8086C606.602 92.1367 607.754 93.9678 607.754 96.3018C607.754 98.167 607.051 99.6318 605.645 100.696C604.238 101.761 602.31 102.293 599.858 102.293C598.13 102.293 596.562 101.985 595.156 101.37C593.76 100.745 592.705 99.8955 591.992 98.8213C591.289 97.7373 590.938 96.4922 590.938 95.0859H596.094C596.094 96.2285 596.387 97.0732 596.973 97.6201C597.568 98.1572 598.53 98.4258 599.858 98.4258C600.708 98.4258 601.377 98.2451 601.865 97.8838C602.363 97.5127 602.612 96.9951 602.612 96.3311ZM617.832 102.293C615.4 102.293 613.433 101.57 611.929 100.125C610.425 98.6699 609.673 96.7803 609.673 94.4561V94.0459C609.673 92.4248 609.971 90.9941 610.566 89.7539C611.172 88.5137 612.051 87.5566 613.203 86.8828C614.355 86.1992 615.723 85.8574 617.305 85.8574C619.531 85.8574 621.289 86.5508 622.578 87.9375C623.867 89.3145 624.512 91.2383 624.512 93.709V95.6279H614.697C614.873 96.5166 615.259 97.2148 615.854 97.7227C616.45 98.2305 617.222 98.4844 618.169 98.4844C619.731 98.4844 620.952 97.9375 621.831 96.8438L624.087 99.5098C623.472 100.359 622.598 101.038 621.465 101.546C620.342 102.044 619.131 102.293 617.832 102.293ZM617.275 89.666C615.83 89.666 614.971 90.623 614.697 92.5371H619.678V92.1562C619.697 91.3652 619.497 90.7549 619.077 90.3252C618.657 89.8857 618.057 89.666 617.275 89.666ZM631.719 102H626.768V79.5H631.719V102ZM639.98 102H635.029V79.5H639.98V102ZM646.104 97.21C646.885 97.21 647.534 97.4443 648.052 97.9131C648.569 98.3721 648.828 98.9629 648.828 99.6855C648.828 100.408 648.569 101.004 648.052 101.473C647.534 101.932 646.885 102.161 646.104 102.161C645.312 102.161 644.658 101.927 644.141 101.458C643.633 100.989 643.379 100.398 643.379 99.6855C643.379 98.9727 643.633 98.3818 644.141 97.9131C644.658 97.4443 645.312 97.21 646.104 97.21ZM646.104 85.5205C646.885 85.5205 647.534 85.7549 648.052 86.2236C648.569 86.6826 648.828 87.2734 648.828 87.9961C648.828 88.7188 648.569 89.3145 648.052 89.7832C647.534 90.2422 646.885 90.4717 646.104 90.4717C645.312 90.4717 644.658 90.2373 644.141 89.7686C643.633 89.2998 643.379 88.709 643.379 87.9961C643.379 87.2832 643.633 86.6924 644.141 86.2236C644.658 85.7549 645.312 85.5205 646.104 85.5205Z" fill="white"/>
<g id="Group 16_3">
<circle id="Ellipse 3_3" cx="569" cy="92" r="11" stroke="white" stroke-width="2"/>
<line id="Line 5_3" x1="563" y1="92" x2="575" y2="92" stroke="white" stroke-width="2" stroke-linecap="round"/>
</g>
<rect id="D2sellPlaceHolder" x="657" y="74" width="86" height="30" fill="#6BB8FF"/>
</g>
<g id="Group 19">
<rect id="RectangleDay1BuyBT_4" x="780" y="23" width="249" height="44" rx="7" fill="#6BB8FF"/>
<path id="Buy:_3" d="M850.611 55V33.6719H858.272C861.017 33.6719 863.102 34.1748 864.527 35.1807C865.963 36.1865 866.681 37.6465 866.681 39.5605C866.681 40.6641 866.427 41.6064 865.919 42.3877C865.411 43.1689 864.664 43.7451 863.678 44.1162C864.791 44.4092 865.646 44.9561 866.241 45.7568C866.837 46.5576 867.135 47.5342 867.135 48.6865C867.135 50.7764 866.471 52.3486 865.143 53.4033C863.824 54.4482 861.866 54.9805 859.269 55H850.611ZM855.753 45.9326V51.0449H859.122C860.05 51.0449 860.763 50.835 861.261 50.415C861.759 49.9854 862.008 49.3848 862.008 48.6133C862.008 46.8359 861.124 45.9424 859.356 45.9326H855.753ZM855.753 42.5635H858.434C859.557 42.5537 860.357 42.3486 860.836 41.9482C861.314 41.5479 861.554 40.957 861.554 40.1758C861.554 39.2773 861.295 38.6328 860.777 38.2422C860.26 37.8418 859.425 37.6416 858.272 37.6416H855.753V42.5635ZM879.19 53.2861C878.146 54.624 876.734 55.293 874.957 55.293C873.219 55.293 871.9 54.79 871.002 53.7842C870.113 52.7686 869.669 51.3135 869.669 49.4189V39.1504H874.605V49.4482C874.605 50.8057 875.265 51.4844 876.583 51.4844C877.716 51.4844 878.521 51.0791 879 50.2686V39.1504H883.966V55H879.337L879.19 53.2861ZM893.019 48.0859L895.655 39.1504H900.943L894.483 57.6514L894.205 58.3252C893.287 60.376 891.666 61.4014 889.342 61.4014C888.697 61.4014 888.019 61.3037 887.306 61.1084V57.5781H887.95C888.644 57.5781 889.171 57.4756 889.532 57.2705C889.903 57.0752 890.177 56.7188 890.353 56.2012L890.748 55.1465L885.24 39.1504H890.514L893.019 48.0859ZM905.309 50.21C906.09 50.21 906.739 50.4443 907.257 50.9131C907.774 51.3721 908.033 51.9629 908.033 52.6855C908.033 53.4082 907.774 54.0039 907.257 54.4727C906.739 54.9316 906.09 55.1611 905.309 55.1611C904.518 55.1611 903.863 54.9268 903.346 54.458C902.838 53.9893 902.584 53.3984 902.584 52.6855C902.584 51.9727 902.838 51.3818 903.346 50.9131C903.863 50.4443 904.518 50.21 905.309 50.21ZM905.309 38.5205C906.09 38.5205 906.739 38.7549 907.257 39.2236C907.774 39.6826 908.033 40.2734 908.033 40.9961C908.033 41.7188 907.774 42.3145 907.257 42.7832C906.739 43.2422 906.09 43.4717 905.309 43.4717C904.518 43.4717 903.863 43.2373 903.346 42.7686C902.838 42.2998 902.584 41.709 902.584 40.9961C902.584 40.2832 902.838 39.6924 903.346 39.2236C903.863 38.7549 904.518 38.5205 905.309 38.5205Z" fill="white"/>
<g id="Group 16_4">
<circle id="Ellipse 3_4" cx="828" cy="45" r="11" stroke="white" stroke-width="2"/>
<line id="Line 5_4" x1="822" y1="45" x2="834" y2="45" stroke="white" stroke-width="2" stroke-linecap="round"/>
<line id="Line 7_3" x1="828" y1="39" x2="828" y2="52" stroke="white" stroke-width="2" stroke-linecap="round"/>
</g>
<rect id="D3InputPlaceHolder" x="916" y="27" width="86" height="30" fill="#6BB8FF"/>
</g>
<g id="Group 22">
<rect id="RectangleDay1BuyBT_5" x="780" y="70" width="249" height="44" rx="7" fill="#6BB8FF"/>
<path id="Sell:_2" d="M861.612 96.3311C861.612 95.5791 861.344 94.9932 860.807 94.5732C860.279 94.1533 859.347 93.7188 858.009 93.2695C856.671 92.8203 855.577 92.3857 854.728 91.9658C851.964 90.6084 850.582 88.7432 850.582 86.3701C850.582 85.1885 850.924 84.1484 851.607 83.25C852.301 82.3418 853.277 81.6387 854.537 81.1406C855.797 80.6328 857.213 80.3789 858.785 80.3789C860.318 80.3789 861.69 80.6523 862.901 81.1992C864.122 81.7461 865.069 82.5273 865.743 83.543C866.417 84.5488 866.754 85.7012 866.754 87H861.627C861.627 86.1309 861.358 85.457 860.821 84.9785C860.294 84.5 859.576 84.2607 858.668 84.2607C857.75 84.2607 857.022 84.4658 856.485 84.876C855.958 85.2764 855.694 85.7891 855.694 86.4141C855.694 86.9609 855.987 87.459 856.573 87.9082C857.159 88.3477 858.189 88.8066 859.664 89.2852C861.139 89.7539 862.35 90.2617 863.297 90.8086C865.602 92.1367 866.754 93.9678 866.754 96.3018C866.754 98.167 866.051 99.6318 864.645 100.696C863.238 101.761 861.31 102.293 858.858 102.293C857.13 102.293 855.562 101.985 854.156 101.37C852.76 100.745 851.705 99.8955 850.992 98.8213C850.289 97.7373 849.938 96.4922 849.938 95.0859H855.094C855.094 96.2285 855.387 97.0732 855.973 97.6201C856.568 98.1572 857.53 98.4258 858.858 98.4258C859.708 98.4258 860.377 98.2451 860.865 97.8838C861.363 97.5127 861.612 96.9951 861.612 96.3311ZM876.832 102.293C874.4 102.293 872.433 101.57 870.929 100.125C869.425 98.6699 868.673 96.7803 868.673 94.4561V94.0459C868.673 92.4248 868.971 90.9941 869.566 89.7539C870.172 88.5137 871.051 87.5566 872.203 86.8828C873.355 86.1992 874.723 85.8574 876.305 85.8574C878.531 85.8574 880.289 86.5508 881.578 87.9375C882.867 89.3145 883.512 91.2383 883.512 93.709V95.6279H873.697C873.873 96.5166 874.259 97.2148 874.854 97.7227C875.45 98.2305 876.222 98.4844 877.169 98.4844C878.731 98.4844 879.952 97.9375 880.831 96.8438L883.087 99.5098C882.472 100.359 881.598 101.038 880.465 101.546C879.342 102.044 878.131 102.293 876.832 102.293ZM876.275 89.666C874.83 89.666 873.971 90.623 873.697 92.5371H878.678V92.1562C878.697 91.3652 878.497 90.7549 878.077 90.3252C877.657 89.8857 877.057 89.666 876.275 89.666ZM890.719 102H885.768V79.5H890.719V102ZM898.98 102H894.029V79.5H898.98V102ZM905.104 97.21C905.885 97.21 906.534 97.4443 907.052 97.9131C907.569 98.3721 907.828 98.9629 907.828 99.6855C907.828 100.408 907.569 101.004 907.052 101.473C906.534 101.932 905.885 102.161 905.104 102.161C904.312 102.161 903.658 101.927 903.141 101.458C902.633 100.989 902.379 100.398 902.379 99.6855C902.379 98.9727 902.633 98.3818 903.141 97.9131C903.658 97.4443 904.312 97.21 905.104 97.21ZM905.104 85.5205C905.885 85.5205 906.534 85.7549 907.052 86.2236C907.569 86.6826 907.828 87.2734 907.828 87.9961C907.828 88.7188 907.569 89.3145 907.052 89.7832C906.534 90.2422 905.885 90.4717 905.104 90.4717C904.312 90.4717 903.658 90.2373 903.141 89.7686C902.633 89.2998 902.379 88.709 902.379 87.9961C902.379 87.2832 902.633 86.6924 903.141 86.2236C903.658 85.7549 904.312 85.5205 905.104 85.5205Z" fill="white"/>
<g id="Group 16_5">
<circle id="Ellipse 3_5" cx="828" cy="92" r="11" stroke="white" stroke-width="2"/>
<line id="Line 5_5" x1="822" y1="92" x2="834" y2="92" stroke="white" stroke-width="2" stroke-linecap="round"/>
</g>
<rect id="D3sellPlaceHolder" x="916" y="74" width="86" height="30" fill="#6BB8FF"/>
</g>
<g id="Group 20">
<rect id="RectangleDay1BuyBT_6" x="1040" y="23" width="244" height="44" rx="7" fill="#6BB8FF"/>
<path id="Buy:_4" d="M1110.61 55V33.6719H1118.27C1121.02 33.6719 1123.1 34.1748 1124.53 35.1807C1125.96 36.1865 1126.68 37.6465 1126.68 39.5605C1126.68 40.6641 1126.43 41.6064 1125.92 42.3877C1125.41 43.1689 1124.66 43.7451 1123.68 44.1162C1124.79 44.4092 1125.65 44.9561 1126.24 45.7568C1126.84 46.5576 1127.13 47.5342 1127.13 48.6865C1127.13 50.7764 1126.47 52.3486 1125.14 53.4033C1123.82 54.4482 1121.87 54.9805 1119.27 55H1110.61ZM1115.75 45.9326V51.0449H1119.12C1120.05 51.0449 1120.76 50.835 1121.26 50.415C1121.76 49.9854 1122.01 49.3848 1122.01 48.6133C1122.01 46.8359 1121.12 45.9424 1119.36 45.9326H1115.75ZM1115.75 42.5635H1118.43C1119.56 42.5537 1120.36 42.3486 1120.84 41.9482C1121.31 41.5479 1121.55 40.957 1121.55 40.1758C1121.55 39.2773 1121.29 38.6328 1120.78 38.2422C1120.26 37.8418 1119.42 37.6416 1118.27 37.6416H1115.75V42.5635ZM1139.19 53.2861C1138.15 54.624 1136.73 55.293 1134.96 55.293C1133.22 55.293 1131.9 54.79 1131 53.7842C1130.11 52.7686 1129.67 51.3135 1129.67 49.4189V39.1504H1134.61V49.4482C1134.61 50.8057 1135.26 51.4844 1136.58 51.4844C1137.72 51.4844 1138.52 51.0791 1139 50.2686V39.1504H1143.97V55H1139.34L1139.19 53.2861ZM1153.02 48.0859L1155.66 39.1504H1160.94L1154.48 57.6514L1154.21 58.3252C1153.29 60.376 1151.67 61.4014 1149.34 61.4014C1148.7 61.4014 1148.02 61.3037 1147.31 61.1084V57.5781H1147.95C1148.64 57.5781 1149.17 57.4756 1149.53 57.2705C1149.9 57.0752 1150.18 56.7188 1150.35 56.2012L1150.75 55.1465L1145.24 39.1504H1150.51L1153.02 48.0859ZM1165.31 50.21C1166.09 50.21 1166.74 50.4443 1167.26 50.9131C1167.77 51.3721 1168.03 51.9629 1168.03 52.6855C1168.03 53.4082 1167.77 54.0039 1167.26 54.4727C1166.74 54.9316 1166.09 55.1611 1165.31 55.1611C1164.52 55.1611 1163.86 54.9268 1163.35 54.458C1162.84 53.9893 1162.58 53.3984 1162.58 52.6855C1162.58 51.9727 1162.84 51.3818 1163.35 50.9131C1163.86 50.4443 1164.52 50.21 1165.31 50.21ZM1165.31 38.5205C1166.09 38.5205 1166.74 38.7549 1167.26 39.2236C1167.77 39.6826 1168.03 40.2734 1168.03 40.9961C1168.03 41.7188 1167.77 42.3145 1167.26 42.7832C1166.74 43.2422 1166.09 43.4717 1165.31 43.4717C1164.52 43.4717 1163.86 43.2373 1163.35 42.7686C1162.84 42.2998 1162.58 41.709 1162.58 40.9961C1162.58 40.2832 1162.84 39.6924 1163.35 39.2236C1163.86 38.7549 1164.52 38.5205 1165.31 38.5205Z" fill="white"/>
<g id="Group 16_6">
<circle id="Ellipse 3_6" cx="1088" cy="45" r="11" stroke="white" stroke-width="2"/>
<line id="Line 5_6" x1="1082" y1="45" x2="1094" y2="45" stroke="white" stroke-width="2" stroke-linecap="round"/>
<line id="Line 7_4" x1="1088" y1="39" x2="1088" y2="52" stroke="white" stroke-width="2" stroke-linecap="round"/>
</g>
<rect id="D4InputPlaceHolder" x="1176" y="27" width="86" height="30" fill="#6BB8FF"/>
</g>
<g id="Group 23">
<rect id="RectangleDay1BuyBT_7" x="1040" y="70" width="244" height="44" rx="7" fill="#6BB8FF"/>
<path id="Sell:_3" d="M1121.61 96.3311C1121.61 95.5791 1121.34 94.9932 1120.81 94.5732C1120.28 94.1533 1119.35 93.7188 1118.01 93.2695C1116.67 92.8203 1115.58 92.3857 1114.73 91.9658C1111.96 90.6084 1110.58 88.7432 1110.58 86.3701C1110.58 85.1885 1110.92 84.1484 1111.61 83.25C1112.3 82.3418 1113.28 81.6387 1114.54 81.1406C1115.8 80.6328 1117.21 80.3789 1118.79 80.3789C1120.32 80.3789 1121.69 80.6523 1122.9 81.1992C1124.12 81.7461 1125.07 82.5273 1125.74 83.543C1126.42 84.5488 1126.75 85.7012 1126.75 87H1121.63C1121.63 86.1309 1121.36 85.457 1120.82 84.9785C1120.29 84.5 1119.58 84.2607 1118.67 84.2607C1117.75 84.2607 1117.02 84.4658 1116.49 84.876C1115.96 85.2764 1115.69 85.7891 1115.69 86.4141C1115.69 86.9609 1115.99 87.459 1116.57 87.9082C1117.16 88.3477 1118.19 88.8066 1119.66 89.2852C1121.14 89.7539 1122.35 90.2617 1123.3 90.8086C1125.6 92.1367 1126.75 93.9678 1126.75 96.3018C1126.75 98.167 1126.05 99.6318 1124.64 100.696C1123.24 101.761 1121.31 102.293 1118.86 102.293C1117.13 102.293 1115.56 101.985 1114.16 101.37C1112.76 100.745 1111.71 99.8955 1110.99 98.8213C1110.29 97.7373 1109.94 96.4922 1109.94 95.0859H1115.09C1115.09 96.2285 1115.39 97.0732 1115.97 97.6201C1116.57 98.1572 1117.53 98.4258 1118.86 98.4258C1119.71 98.4258 1120.38 98.2451 1120.87 97.8838C1121.36 97.5127 1121.61 96.9951 1121.61 96.3311ZM1136.83 102.293C1134.4 102.293 1132.43 101.57 1130.93 100.125C1129.42 98.6699 1128.67 96.7803 1128.67 94.4561V94.0459C1128.67 92.4248 1128.97 90.9941 1129.57 89.7539C1130.17 88.5137 1131.05 87.5566 1132.2 86.8828C1133.36 86.1992 1134.72 85.8574 1136.3 85.8574C1138.53 85.8574 1140.29 86.5508 1141.58 87.9375C1142.87 89.3145 1143.51 91.2383 1143.51 93.709V95.6279H1133.7C1133.87 96.5166 1134.26 97.2148 1134.85 97.7227C1135.45 98.2305 1136.22 98.4844 1137.17 98.4844C1138.73 98.4844 1139.95 97.9375 1140.83 96.8438L1143.09 99.5098C1142.47 100.359 1141.6 101.038 1140.46 101.546C1139.34 102.044 1138.13 102.293 1136.83 102.293ZM1136.28 89.666C1134.83 89.666 1133.97 90.623 1133.7 92.5371H1138.68V92.1562C1138.7 91.3652 1138.5 90.7549 1138.08 90.3252C1137.66 89.8857 1137.06 89.666 1136.28 89.666ZM1150.72 102H1145.77V79.5H1150.72V102ZM1158.98 102H1154.03V79.5H1158.98V102ZM1165.1 97.21C1165.88 97.21 1166.53 97.4443 1167.05 97.9131C1167.57 98.3721 1167.83 98.9629 1167.83 99.6855C1167.83 100.408 1167.57 101.004 1167.05 101.473C1166.53 101.932 1165.88 102.161 1165.1 102.161C1164.31 102.161 1163.66 101.927 1163.14 101.458C1162.63 100.989 1162.38 100.398 1162.38 99.6855C1162.38 98.9727 1162.63 98.3818 1163.14 97.9131C1163.66 97.4443 1164.31 97.21 1165.1 97.21ZM1165.1 85.5205C1165.88 85.5205 1166.53 85.7549 1167.05 86.2236C1167.57 86.6826 1167.83 87.2734 1167.83 87.9961C1167.83 88.7188 1167.57 89.3145 1167.05 89.7832C1166.53 90.2422 1165.88 90.4717 1165.1 90.4717C1164.31 90.4717 1163.66 90.2373 1163.14 89.7686C1162.63 89.2998 1162.38 88.709 1162.38 87.9961C1162.38 87.2832 1162.63 86.6924 1163.14 86.2236C1163.66 85.7549 1164.31 85.5205 1165.1 85.5205Z" fill="white"/>
<g id="Group 16_7">
<circle id="Ellipse 3_7" cx="1088" cy="92" r="11" stroke="white" stroke-width="2"/>
<line id="Line 5_7" x1="1082" y1="92" x2="1094" y2="92" stroke="white" stroke-width="2" stroke-linecap="round"/>
</g>
<rect id="D4sellPlaceHolder" x="1176" y="74" width="86" height="30" fill="#6BB8FF"/>
</g>
</g>
</svg>
