<svg width="1284" height="114" viewBox="0 0 1284 114" fill="none" xmlns="http://www.w3.org/2000/svg">
<g id="BandS">
<rect id="Rectangle 17" width="1284" height="114" fill="white"/>
<rect id="RectangleDay1BuyBT" x="260" y="23" width="249" height="44" rx="7" fill="#6BB8FF"/>
<path id="Buy:" d="M330.611 55V33.6719H338.272C341.017 33.6719 343.102 34.1748 344.527 35.1807C345.963 36.1865 346.681 37.6465 346.681 39.5605C346.681 40.6641 346.427 41.6064 345.919 42.3877C345.411 43.1689 344.664 43.7451 343.678 44.1162C344.791 44.4092 345.646 44.9561 346.241 45.7568C346.837 46.5576 347.135 47.5342 347.135 48.6865C347.135 50.7764 346.471 52.3486 345.143 53.4033C343.824 54.4482 341.866 54.9805 339.269 55H330.611ZM335.753 45.9326V51.0449H339.122C340.05 51.0449 340.763 50.835 341.261 50.415C341.759 49.9854 342.008 49.3848 342.008 48.6133C342.008 46.8359 341.124 45.9424 339.356 45.9326H335.753ZM335.753 42.5635H338.434C339.557 42.5537 340.357 42.3486 340.836 41.9482C341.314 41.5479 341.554 40.957 341.554 40.1758C341.554 39.2773 341.295 38.6328 340.777 38.2422C340.26 37.8418 339.425 37.6416 338.272 37.6416H335.753V42.5635ZM359.19 53.2861C358.146 54.624 356.734 55.293 354.957 55.293C353.219 55.293 351.9 54.79 351.002 53.7842C350.113 52.7686 349.669 51.3135 349.669 49.4189V39.1504H354.605V49.4482C354.605 50.8057 355.265 51.4844 356.583 51.4844C357.716 51.4844 358.521 51.0791 359 50.2686V39.1504H363.966V55H359.337L359.19 53.2861ZM373.019 48.0859L375.655 39.1504H380.943L374.483 57.6514L374.205 58.3252C373.287 60.376 371.666 61.4014 369.342 61.4014C368.697 61.4014 368.019 61.3037 367.306 61.1084V57.5781H367.95C368.644 57.5781 369.171 57.4756 369.532 57.2705C369.903 57.0752 370.177 56.7188 370.353 56.2012L370.748 55.1465L365.24 39.1504H370.514L373.019 48.0859ZM385.309 50.21C386.09 50.21 386.739 50.4443 387.257 50.9131C387.774 51.3721 388.033 51.9629 388.033 52.6855C388.033 53.4082 387.774 54.0039 387.257 54.4727C386.739 54.9316 386.09 55.1611 385.309 55.1611C384.518 55.1611 383.863 54.9268 383.346 54.458C382.838 53.9893 382.584 53.3984 382.584 52.6855C382.584 51.9727 382.838 51.3818 383.346 50.9131C383.863 50.4443 384.518 50.21 385.309 50.21ZM385.309 38.5205C386.09 38.5205 386.739 38.7549 387.257 39.2236C387.774 39.6826 388.033 40.2734 388.033 40.9961C388.033 41.7188 387.774 42.3145 387.257 42.7832C386.739 43.2422 386.09 43.4717 385.309 43.4717C384.518 43.4717 383.863 43.2373 383.346 42.7686C382.838 42.2998 382.584 41.709 382.584 40.9961C382.584 40.2832 382.838 39.6924 383.346 39.2236C383.863 38.7549 384.518 38.5205 385.309 38.5205Z" fill="white"/>
<g id="Group 16">
<circle id="Ellipse 3" cx="308" cy="45" r="11" stroke="white" stroke-width="2"/>
<line id="Line 5" x1="302" y1="45" x2="314" y2="45" stroke="white" stroke-width="2" stroke-linecap="round"/>
<line id="Line 7" x1="308" y1="39" x2="308" y2="52" stroke="white" stroke-width="2" stroke-linecap="round"/>
</g>
<rect id="D1InputPlaceHolder" x="396" y="27" width="86" height="30" fill="#6BB8FF"/>
<g id="Group 18">
<rect id="RectangleDay1BuyBT_2" x="521" y="23" width="249" height="44" rx="7" fill="#6BB8FF"/>
<path id="Buy:_2" d="M591.611 55V33.6719H599.272C602.017 33.6719 604.102 34.1748 605.527 35.1807C606.963 36.1865 607.681 37.6465 607.681 39.5605C607.681 40.6641 607.427 41.6064 606.919 42.3877C606.411 43.1689 605.664 43.7451 604.678 44.1162C605.791 44.4092 606.646 44.9561 607.241 45.7568C607.837 46.5576 608.135 47.5342 608.135 48.6865C608.135 50.7764 607.471 52.3486 606.143 53.4033C604.824 54.4482 602.866 54.9805 600.269 55H591.611ZM596.753 45.9326V51.0449H600.122C601.05 51.0449 601.763 50.835 602.261 50.415C602.759 49.9854 603.008 49.3848 603.008 48.6133C603.008 46.8359 602.124 45.9424 600.356 45.9326H596.753ZM596.753 42.5635H599.434C600.557 42.5537 601.357 42.3486 601.836 41.9482C602.314 41.5479 602.554 40.957 602.554 40.1758C602.554 39.2773 602.295 38.6328 601.777 38.2422C601.26 37.8418 600.425 37.6416 599.272 37.6416H596.753V42.5635ZM620.19 53.2861C619.146 54.624 617.734 55.293 615.957 55.293C614.219 55.293 612.9 54.79 612.002 53.7842C611.113 52.7686 610.669 51.3135 610.669 49.4189V39.1504H615.605V49.4482C615.605 50.8057 616.265 51.4844 617.583 51.4844C618.716 51.4844 619.521 51.0791 620 50.2686V39.1504H624.966V55H620.337L620.19 53.2861ZM634.019 48.0859L636.655 39.1504H641.943L635.483 57.6514L635.205 58.3252C634.287 60.376 632.666 61.4014 630.342 61.4014C629.697 61.4014 629.019 61.3037 628.306 61.1084V57.5781H628.95C629.644 57.5781 630.171 57.4756 630.532 57.2705C630.903 57.0752 631.177 56.7188 631.353 56.2012L631.748 55.1465L626.24 39.1504H631.514L634.019 48.0859ZM646.309 50.21C647.09 50.21 647.739 50.4443 648.257 50.9131C648.774 51.3721 649.033 51.9629 649.033 52.6855C649.033 53.4082 648.774 54.0039 648.257 54.4727C647.739 54.9316 647.09 55.1611 646.309 55.1611C645.518 55.1611 644.863 54.9268 644.346 54.458C643.838 53.9893 643.584 53.3984 643.584 52.6855C643.584 51.9727 643.838 51.3818 644.346 50.9131C644.863 50.4443 645.518 50.21 646.309 50.21ZM646.309 38.5205C647.09 38.5205 647.739 38.7549 648.257 39.2236C648.774 39.6826 649.033 40.2734 649.033 40.9961C649.033 41.7188 648.774 42.3145 648.257 42.7832C647.739 43.2422 647.09 43.4717 646.309 43.4717C645.518 43.4717 644.863 43.2373 644.346 42.7686C643.838 42.2998 643.584 41.709 643.584 40.9961C643.584 40.2832 643.838 39.6924 644.346 39.2236C644.863 38.7549 645.518 38.5205 646.309 38.5205Z" fill="white"/>
</g>
<g id="Group 16_2">
<circle id="Ellipse 3_2" cx="569" cy="45" r="11" stroke="white" stroke-width="2"/>
<line id="Line 5_2" x1="563" y1="45" x2="575" y2="45" stroke="white" stroke-width="2" stroke-linecap="round"/>
<line id="Line 7_2" x1="569" y1="39" x2="569" y2="52" stroke="white" stroke-width="2" stroke-linecap="round"/>
</g>
<rect id="D2InputPlaceHolder" x="657" y="27" width="86" height="30" fill="#6BB8FF"/>
<rect id="RectangleDay1BuyBT_3" x="521" y="70" width="249" height="44" rx="7" fill="#6BB8FF"/>
<path id="Sell:" d="M602.612 96.3311C602.612 95.5791 602.344 94.9932 601.807 94.5732C601.279 94.1533 600.347 93.7188 599.009 93.2695C597.671 92.8203 596.577 92.3857 595.728 91.9658C592.964 90.6084 591.582 88.7432 591.582 86.3701C591.582 85.1885 591.924 84.1484 592.607 83.25C593.301 82.3418 594.277 81.6387 595.537 81.1406C596.797 80.6328 598.213 80.3789 599.785 80.3789C601.318 80.3789 602.69 80.6523 603.901 81.1992C605.122 81.7461 606.069 82.5273 606.743 83.543C607.417 84.5488 607.754 85.7012 607.754 87H602.627C602.627 86.1309 602.358 85.457 601.821 84.9785C601.294 84.5 600.576 84.2607 599.668 84.2607C598.75 84.2607 598.022 84.4658 597.485 84.876C596.958 85.2764 596.694 85.7891 596.694 86.4141C596.694 86.9609 596.987 87.459 597.573 87.9082C598.159 88.3477 599.189 88.8066 600.664 89.2852C602.139 89.7539 603.35 90.2617 604.297 90.8086C606.602 92.1367 607.754 93.9678 607.754 96.3018C607.754 98.167 607.051 99.6318 605.645 100.696C604.238 101.761 602.31 102.293 599.858 102.293C598.13 102.293 596.562 101.985 595.156 101.37C593.76 100.745 592.705 99.8955 591.992 98.8213C591.289 97.7373 590.938 96.4922 590.938 95.0859H596.094C596.094 96.2285 596.387 97.0732 596.973 97.6201C597.568 98.1572 598.53 98.4258 599.858 98.4258C600.708 98.4258 601.377 98.2451 601.865 97.8838C602.363 97.5127 602.612 96.9951 602.612 96.3311ZM617.832 102.293C615.4 102.293 613.433 101.57 611.929 100.125C610.425 98.6699 609.673 96.7803 609.673 94.4561V94.0459C609.673 92.4248 609.971 90.9941 610.566 89.7539C611.172 88.5137 612.051 87.5566 613.203 86.8828C614.355 86.1992 615.723 85.8574 617.305 85.8574C619.531 85.8574 621.289 86.5508 622.578 87.9375C623.867 89.3145 624.512 91.2383 624.512 93.709V95.6279H614.697C614.873 96.5166 615.259 97.2148 615.854 97.7227C616.45 98.2305 617.222 98.4844 618.169 98.4844C619.731 98.4844 620.952 97.9375 621.831 96.8438L624.087 99.5098C623.472 100.359 622.598 101.038 621.465 101.546C620.342 102.044 619.131 102.293 617.832 102.293ZM617.275 89.666C615.83 89.666 614.971 90.623 614.697 92.5371H619.678V92.1562C619.697 91.3652 619.497 90.7549 619.077 90.3252C618.657 89.8857 618.057 89.666 617.275 89.666ZM631.719 102H626.768V79.5H631.719V102ZM639.98 102H635.029V79.5H639.98V102ZM646.104 97.21C646.885 97.21 647.534 97.4443 648.052 97.9131C648.569 98.3721 648.828 98.9629 648.828 99.6855C648.828 100.408 648.569 101.004 648.052 101.473C647.534 101.932 646.885 102.161 646.104 102.161C645.312 102.161 644.658 101.927 644.141 101.458C643.633 100.989 643.379 100.398 643.379 99.6855C643.379 98.9727 643.633 98.3818 644.141 97.9131C644.658 97.4443 645.312 97.21 646.104 97.21ZM646.104 85.5205C646.885 85.5205 647.534 85.7549 648.052 86.2236C648.569 86.6826 648.828 87.2734 648.828 87.9961C648.828 88.7188 648.569 89.3145 648.052 89.7832C647.534 90.2422 646.885 90.4717 646.104 90.4717C645.312 90.4717 644.658 90.2373 644.141 89.7686C643.633 89.2998 643.379 88.709 643.379 87.9961C643.379 87.2832 643.633 86.6924 644.141 86.2236C644.658 85.7549 645.312 85.5205 646.104 85.5205Z" fill="white"/>
<g id="Group 16_3">
<circle id="Ellipse 3_3" cx="569" cy="92" r="11" stroke="white" stroke-width="2"/>
<line id="Line 5_3" x1="563" y1="92" x2="575" y2="92" stroke="white" stroke-width="2" stroke-linecap="round"/>
</g>
<rect id="D2sellPlaceHolder" x="657" y="74" width="86" height="30" fill="#6BB8FF"/>
<rect id="RectangleDay1BuyBT_4" x="780" y="23" width="249" height="44" rx="7" fill="#6BB8FF"/>
<path id="Buy:_3" d="M850.611 55V33.6719H858.272C861.017 33.6719 863.102 34.1748 864.527 35.1807C865.963 36.1865 866.681 37.6465 866.681 39.5605C866.681 40.6641 866.427 41.6064 865.919 42.3877C865.411 43.1689 864.664 43.7451 863.678 44.1162C864.791 44.4092 865.646 44.9561 866.241 45.7568C866.837 46.5576 867.135 47.5342 867.135 48.6865C867.135 50.7764 866.471 52.3486 865.143 53.4033C863.824 54.4482 861.866 54.9805 859.269 55H850.611ZM855.753 45.9326V51.0449H859.122C860.05 51.0449 860.763 50.835 861.261 50.415C861.759 49.9854 862.008 49.3848 862.008 48.6133C862.008 46.8359 861.124 45.9424 859.356 45.9326H855.753ZM855.753 42.5635H858.434C859.557 42.5537 860.357 42.3486 860.836 41.9482C861.314 41.5479 861.554 40.957 861.554 40.1758C861.554 39.2773 861.295 38.6328 860.777 38.2422C860.26 37.8418 859.425 37.6416 858.272 37.6416H855.753V42.5635ZM879.19 53.2861C878.146 54.624 876.734 55.293 874.957 55.293C873.219 55.293 871.9 54.79 871.002 53.7842C870.113 52.7686 869.669 51.3135 869.669 49.4189V39.1504H874.605V49.4482C874.605 50.8057 875.265 51.4844 876.583 51.4844C877.716 51.4844 878.521 51.0791 879 50.2686V39.1504H883.966V55H879.337L879.19 53.2861ZM893.019 48.0859L895.655 39.1504H900.943L894.483 57.6514L894.205 58.3252C893.287 60.376 891.666 61.4014 889.342 61.4014C888.697 61.4014 888.019 61.3037 887.306 61.1084V57.5781H887.95C888.644 57.5781 889.171 57.4756 889.532 57.2705C889.903 57.0752 890.177 56.7188 890.353 56.2012L890.748 55.1465L885.24 39.1504H890.514L893.019 48.0859ZM905.309 50.21C906.09 50.21 906.739 50.4443 907.257 50.9131C907.774 51.3721 908.033 51.9629 908.033 52.6855C908.033 53.4082 907.774 54.0039 907.257 54.4727C906.739 54.9316 906.09 55.1611 905.309 55.1611C904.518 55.1611 903.863 54.9268 903.346 54.458C902.838 53.9893 902.584 53.3984 902.584 52.6855C902.584 51.9727 902.838 51.3818 903.346 50.9131C903.863 50.4443 904.518 50.21 905.309 50.21ZM905.309 38.5205C906.09 38.5205 906.739 38.7549 907.257 39.2236C907.774 39.6826 908.033 40.2734 908.033 40.9961C908.033 41.7188 907.774 42.3145 907.257 42.7832C906.739 43.2422 906.09 43.4717 905.309 43.4717C904.518 43.4717 903.863 43.2373 903.346 42.7686C902.838 42.2998 902.584 41.709 902.584 40.9961C902.584 40.2832 902.838 39.6924 903.346 39.2236C903.863 38.7549 904.518 38.5205 905.309 38.5205Z" fill="white"/>
<g id="Group 16_4">
<circle id="Ellipse 3_4" cx="828" cy="45" r="11" stroke="white" stroke-width="2"/>
<line id="Line 5_4" x1="822" y1="45" x2="834" y2="45" stroke="white" stroke-width="2" stroke-linecap="round"/>
<line id="Line 7_3" x1="828" y1="39" x2="828" y2="52" stroke="white" stroke-width="2" stroke-linecap="round"/>
</g>
<rect id="D3InputPlaceHolder" x="916" y="27" width="86" height="30" fill="#6BB8FF"/>
<rect id="RectangleDay1BuyBT_5" x="780" y="70" width="249" height="44" rx="7" fill="#6BB8FF"/>
<path id="Sell:_2" d="M861.612 96.3311C861.612 95.5791 861.344 94.9932 860.807 94.5732C860.279 94.1533 859.347 93.7188 858.009 93.2695C856.671 92.8203 855.577 92.3857 854.728 91.9658C851.964 90.6084 850.582 88.7432 850.582 86.3701C850.582 85.1885 850.924 84.1484 851.607 83.25C852.301 82.3418 853.277 81.6387 854.537 81.1406C855.797 80.6328 857.213 80.3789 858.785 80.3789C860.318 80.3789 861.69 80.6523 862.901 81.1992C864.122 81.7461 865.069 82.5273 865.743 83.543C866.417 84.5488 866.754 85.7012 866.754 87H861.627C861.627 86.1309 861.358 85.457 860.821 84.9785C860.294 84.5 859.576 84.2607 858.668 84.2607C857.75 84.2607 857.022 84.4658 856.485 84.876C855.958 85.2764 855.694 85.7891 855.694 86.4141C855.694 86.9609 855.987 87.459 856.573 87.9082C857.159 88.3477 858.189 88.8066 859.664 89.2852C861.139 89.7539 862.35 90.2617 863.297 90.8086C865.602 92.1367 866.754 93.9678 866.754 96.3018C866.754 98.167 866.051 99.6318 864.645 100.696C863.238 101.761 861.31 102.293 858.858 102.293C857.13 102.293 855.562 101.985 854.156 101.37C852.76 100.745 851.705 99.8955 850.992 98.8213C850.289 97.7373 849.938 96.4922 849.938 95.0859H855.094C855.094 96.2285 855.387 97.0732 855.973 97.6201C856.568 98.1572 857.53 98.4258 858.858 98.4258C859.708 98.4258 860.377 98.2451 860.865 97.8838C861.363 97.5127 861.612 96.9951 861.612 96.3311ZM876.832 102.293C874.4 102.293 872.433 101.57 870.929 100.125C869.425 98.6699 868.673 96.7803 868.673 94.4561V94.0459C868.673 92.4248 868.971 90.9941 869.566 89.7539C870.172 88.5137 871.051 87.5566 872.203 86.8828C873.355 86.1992 874.723 85.8574 876.305 85.8574C878.531 85.8574 880.289 86.5508 881.578 87.9375C882.867 89.3145 883.512 91.2383 883.512 93.709V95.6279H873.697C873.873 96.5166 874.259 97.2148 874.854 97.7227C875.45 98.2305 876.222 98.4844 877.169 98.4844C878.731 98.4844 879.952 97.9375 880.831 96.8438L883.087 99.5098C882.472 100.359 881.598 101.038 880.465 101.546C879.342 102.044 878.131 102.293 876.832 102.293ZM876.275 89.666C874.83 89.666 873.971 90.623 873.697 92.5371H878.678V92.1562C878.697 91.3652 878.497 90.7549 878.077 90.3252C877.657 89.8857 877.057 89.666 876.275 89.666ZM890.719 102H885.768V79.5H890.719V102ZM898.98 102H894.029V79.5H898.98V102ZM905.104 97.21C905.885 97.21 906.534 97.4443 907.052 97.9131C907.569 98.3721 907.828 98.9629 907.828 99.6855C907.828 100.408 907.569 101.004 907.052 101.473C906.534 101.932 905.885 102.161 905.104 102.161C904.312 102.161 903.658 101.927 903.141 101.458C902.633 100.989 902.379 100.398 902.379 99.6855C902.379 98.9727 902.633 98.3818 903.141 97.9131C903.658 97.4443 904.312 97.21 905.104 97.21ZM905.104 85.5205C905.885 85.5205 906.534 85.7549 907.052 86.2236C907.569 86.6826 907.828 87.2734 907.828 87.9961C907.828 88.7188 907.569 89.3145 907.052 89.7832C906.534 90.2422 905.885 90.4717 905.104 90.4717C904.312 90.4717 903.658 90.2373 903.141 89.7686C902.633 89.2998 902.379 88.709 902.379 87.9961C902.379 87.2832 902.633 86.6924 903.141 86.2236C903.658 85.7549 904.312 85.5205 905.104 85.5205Z" fill="white"/>
<g id="Group 16_5">
<circle id="Ellipse 3_5" cx="828" cy="92" r="11" stroke="white" stroke-width="2"/>
<line id="Line 5_5" x1="822" y1="92" x2="834" y2="92" stroke="white" stroke-width="2" stroke-linecap="round"/>
</g>
<rect id="D3sellPlaceHolder" x="916" y="74" width="86" height="30" fill="#6BB8FF"/>
<rect id="RectangleDay1BuyBT_6" x="1040" y="23" width="244" height="44" rx="7" fill="#6BB8FF"/>
<path id="Buy:_4" d="M1110.61 55V33.6719H1118.27C1121.02 33.6719 1123.1 34.1748 1124.53 35.1807C1125.96 36.1865 1126.68 37.6465 1126.68 39.5605C1126.68 40.6641 1126.43 41.6064 1125.92 42.3877C1125.41 43.1689 1124.66 43.7451 1123.68 44.1162C1124.79 44.4092 1125.65 44.9561 1126.24 45.7568C1126.84 46.5576 1127.13 47.5342 1127.13 48.6865C1127.13 50.7764 1126.47 52.3486 1125.14 53.4033C1123.82 54.4482 1121.87 54.9805 1119.27 55H1110.61ZM1115.75 45.9326V51.0449H1119.12C1120.05 51.0449 1120.76 50.835 1121.26 50.415C1121.76 49.9854 1122.01 49.3848 1122.01 48.6133C1122.01 46.8359 1121.12 45.9424 1119.36 45.9326H1115.75ZM1115.75 42.5635H1118.43C1119.56 42.5537 1120.36 42.3486 1120.84 41.9482C1121.31 41.5479 1121.55 40.957 1121.55 40.1758C1121.55 39.2773 1121.29 38.6328 1120.78 38.2422C1120.26 37.8418 1119.42 37.6416 1118.27 37.6416H1115.75V42.5635ZM1139.19 53.2861C1138.15 54.624 1136.73 55.293 1134.96 55.293C1133.22 55.293 1131.9 54.79 1131 53.7842C1130.11 52.7686 1129.67 51.3135 1129.67 49.4189V39.1504H1134.61V49.4482C1134.61 50.8057 1135.26 51.4844 1136.58 51.4844C1137.72 51.4844 1138.52 51.0791 1139 50.2686V39.1504H1143.97V55H1139.34L1139.19 53.2861ZM1153.02 48.0859L1155.66 39.1504H1160.94L1154.48 57.6514L1154.21 58.3252C1153.29 60.376 1151.67 61.4014 1149.34 61.4014C1148.7 61.4014 1148.02 61.3037 1147.31 61.1084V57.5781H1147.95C1148.64 57.5781 1149.17 57.4756 1149.53 57.2705C1149.9 57.0752 1150.18 56.7188 1150.35 56.2012L1150.75 55.1465L1145.24 39.1504H1150.51L1153.02 48.0859ZM1165.31 50.21C1166.09 50.21 1166.74 50.4443 1167.26 50.9131C1167.77 51.3721 1168.03 51.9629 1168.03 52.6855C1168.03 53.4082 1167.77 54.0039 1167.26 54.4727C1166.74 54.9316 1166.09 55.1611 1165.31 55.1611C1164.52 55.1611 1163.86 54.9268 1163.35 54.458C1162.84 53.9893 1162.58 53.3984 1162.58 52.6855C1162.58 51.9727 1162.84 51.3818 1163.35 50.9131C1163.86 50.4443 1164.52 50.21 1165.31 50.21ZM1165.31 38.5205C1166.09 38.5205 1166.74 38.7549 1167.26 39.2236C1167.77 39.6826 1168.03 40.2734 1168.03 40.9961C1168.03 41.7188 1167.77 42.3145 1167.26 42.7832C1166.74 43.2422 1166.09 43.4717 1165.31 43.4717C1164.52 43.4717 1163.86 43.2373 1163.35 42.7686C1162.84 42.2998 1162.58 41.709 1162.58 40.9961C1162.58 40.2832 1162.84 39.6924 1163.35 39.2236C1163.86 38.7549 1164.52 38.5205 1165.31 38.5205Z" fill="white"/>
<g id="Group 16_6">
<circle id="Ellipse 3_6" cx="1088" cy="45" r="11" stroke="white" stroke-width="2"/>
<line id="Line 5_6" x1="1082" y1="45" x2="1094" y2="45" stroke="white" stroke-width="2" stroke-linecap="round"/>
<line id="Line 7_4" x1="1088" y1="39" x2="1088" y2="52" stroke="white" stroke-width="2" stroke-linecap="round"/>
</g>
<rect id="D4InputPlaceHolder" x="1176" y="27" width="86" height="30" fill="#6BB8FF"/>
<rect id="RectangleDay1BuyBT_7" x="1040" y="70" width="244" height="44" rx="7" fill="#6BB8FF"/>
<path id="Sell:_3" d="M1121.61 96.3311C1121.61 95.5791 1121.34 94.9932 1120.81 94.5732C1120.28 94.1533 1119.35 93.7188 1118.01 93.2695C1116.67 92.8203 1115.58 92.3857 1114.73 91.9658C1111.96 90.6084 1110.58 88.7432 1110.58 86.3701C1110.58 85.1885 1110.92 84.1484 1111.61 83.25C1112.3 82.3418 1113.28 81.6387 1114.54 81.1406C1115.8 80.6328 1117.21 80.3789 1118.79 80.3789C1120.32 80.3789 1121.69 80.6523 1122.9 81.1992C1124.12 81.7461 1125.07 82.5273 1125.74 83.543C1126.42 84.5488 1126.75 85.7012 1126.75 87H1121.63C1121.63 86.1309 1121.36 85.457 1120.82 84.9785C1120.29 84.5 1119.58 84.2607 1118.67 84.2607C1117.75 84.2607 1117.02 84.4658 1116.49 84.876C1115.96 85.2764 1115.69 85.7891 1115.69 86.4141C1115.69 86.9609 1115.99 87.459 1116.57 87.9082C1117.16 88.3477 1118.19 88.8066 1119.66 89.2852C1121.14 89.7539 1122.35 90.2617 1123.3 90.8086C1125.6 92.1367 1126.75 93.9678 1126.75 96.3018C1126.75 98.167 1126.05 99.6318 1124.64 100.696C1123.24 101.761 1121.31 102.293 1118.86 102.293C1117.13 102.293 1115.56 101.985 1114.16 101.37C1112.76 100.745 1111.71 99.8955 1110.99 98.8213C1110.29 97.7373 1109.94 96.4922 1109.94 95.0859H1115.09C1115.09 96.2285 1115.39 97.0732 1115.97 97.6201C1116.57 98.1572 1117.53 98.4258 1118.86 98.4258C1119.71 98.4258 1120.38 98.2451 1120.87 97.8838C1121.36 97.5127 1121.61 96.9951 1121.61 96.3311ZM1136.83 102.293C1134.4 102.293 1132.43 101.57 1130.93 100.125C1129.42 98.6699 1128.67 96.7803 1128.67 94.4561V94.0459C1128.67 92.4248 1128.97 90.9941 1129.57 89.7539C1130.17 88.5137 1131.05 87.5566 1132.2 86.8828C1133.36 86.1992 1134.72 85.8574 1136.3 85.8574C1138.53 85.8574 1140.29 86.5508 1141.58 87.9375C1142.87 89.3145 1143.51 91.2383 1143.51 93.709V95.6279H1133.7C1133.87 96.5166 1134.26 97.2148 1134.85 97.7227C1135.45 98.2305 1136.22 98.4844 1137.17 98.4844C1138.73 98.4844 1139.95 97.9375 1140.83 96.8438L1143.09 99.5098C1142.47 100.359 1141.6 101.038 1140.46 101.546C1139.34 102.044 1138.13 102.293 1136.83 102.293ZM1136.28 89.666C1134.83 89.666 1133.97 90.623 1133.7 92.5371H1138.68V92.1562C1138.7 91.3652 1138.5 90.7549 1138.08 90.3252C1137.66 89.8857 1137.06 89.666 1136.28 89.666ZM1150.72 102H1145.77V79.5H1150.72V102ZM1158.98 102H1154.03V79.5H1158.98V102ZM1165.1 97.21C1165.88 97.21 1166.53 97.4443 1167.05 97.9131C1167.57 98.3721 1167.83 98.9629 1167.83 99.6855C1167.83 100.408 1167.57 101.004 1167.05 101.473C1166.53 101.932 1165.88 102.161 1165.1 102.161C1164.31 102.161 1163.66 101.927 1163.14 101.458C1162.63 100.989 1162.38 100.398 1162.38 99.6855C1162.38 98.9727 1162.63 98.3818 1163.14 97.9131C1163.66 97.4443 1164.31 97.21 1165.1 97.21ZM1165.1 85.5205C1165.88 85.5205 1166.53 85.7549 1167.05 86.2236C1167.57 86.6826 1167.83 87.2734 1167.83 87.9961C1167.83 88.7188 1167.57 89.3145 1167.05 89.7832C1166.53 90.2422 1165.88 90.4717 1165.1 90.4717C1164.31 90.4717 1163.66 90.2373 1163.14 89.7686C1162.63 89.2998 1162.38 88.709 1162.38 87.9961C1162.38 87.2832 1162.63 86.6924 1163.14 86.2236C1163.66 85.7549 1164.31 85.5205 1165.1 85.5205Z" fill="white"/>
<g id="Group 16_7">
<circle id="Ellipse 3_7" cx="1088" cy="92" r="11" stroke="white" stroke-width="2"/>
<line id="Line 5_7" x1="1082" y1="92" x2="1094" y2="92" stroke="white" stroke-width="2" stroke-linecap="round"/>
</g>
<rect id="D4sellPlaceHolder" x="1176" y="74" width="86" height="30" fill="#6BB8FF"/>
<rect id="cashIconPlaceHolder" x="21" y="60" width="207" height="49" fill="white"/>
<rect id="inMarketIcon" x="21" y="30" width="207" height="19" fill="white"/>
<path id="You have $ virtual money left available to invest." d="M24.8911 35.3979L27.3032 30.7578H28.687L25.5005 36.5532V40H24.2817V36.5532L21.0952 30.7578H22.4917L24.8911 35.3979ZM28.9663 36.5024C28.9663 35.8296 29.0975 35.2244 29.3599 34.687C29.6265 34.1496 29.9946 33.7349 30.4644 33.4429C30.9383 33.1509 31.4779 33.0049 32.083 33.0049C33.0182 33.0049 33.7736 33.3286 34.3491 33.9761C34.9289 34.6235 35.2188 35.4847 35.2188 36.5596V36.6421C35.2188 37.3107 35.0897 37.9116 34.8315 38.4448C34.5776 38.9738 34.2116 39.3864 33.7334 39.6826C33.2594 39.9788 32.7135 40.127 32.0957 40.127C31.1647 40.127 30.4093 39.8032 29.8296 39.1558C29.2541 38.5083 28.9663 37.6514 28.9663 36.585V36.5024ZM30.147 36.6421C30.147 37.4038 30.3226 38.0153 30.6738 38.4766C31.0293 38.9378 31.5033 39.1685 32.0957 39.1685C32.6924 39.1685 33.1663 38.9357 33.5176 38.4702C33.8688 38.0005 34.0444 37.3446 34.0444 36.5024C34.0444 35.7492 33.8646 35.1398 33.5049 34.6743C33.1494 34.2046 32.6755 33.9697 32.083 33.9697C31.5033 33.9697 31.0356 34.2004 30.6802 34.6616C30.3247 35.1229 30.147 35.783 30.147 36.6421ZM40.9316 39.3208C40.4746 39.8582 39.8039 40.127 38.9194 40.127C38.1873 40.127 37.6287 39.9154 37.2437 39.4922C36.8628 39.0648 36.6702 38.4342 36.666 37.6006V33.1318H37.8403V37.5688C37.8403 38.6099 38.2635 39.1304 39.1099 39.1304C40.007 39.1304 40.6037 38.7961 40.8999 38.1274V33.1318H42.0742V40H40.957L40.9316 39.3208ZM48.2632 33.9634C48.7837 33.3244 49.4608 33.0049 50.2944 33.0049C51.7459 33.0049 52.478 33.8237 52.4907 35.4614V40H51.3164V35.4551C51.3122 34.96 51.1979 34.5939 50.9736 34.3569C50.7536 34.12 50.4087 34.0015 49.939 34.0015C49.5581 34.0015 49.2238 34.103 48.936 34.3062C48.6483 34.5093 48.424 34.7759 48.2632 35.106V40H47.0889V30.25H48.2632V33.9634ZM58.4893 40C58.4215 39.8646 58.3665 39.6234 58.3242 39.2764C57.7783 39.8434 57.1266 40.127 56.3691 40.127C55.6921 40.127 55.1356 39.9365 54.6997 39.5557C54.2681 39.1706 54.0522 38.6839 54.0522 38.0957C54.0522 37.3805 54.3231 36.8262 54.8647 36.4326C55.4106 36.0348 56.1766 35.8359 57.1626 35.8359H58.3052V35.2964C58.3052 34.8859 58.1825 34.5601 57.937 34.3188C57.6916 34.0734 57.3298 33.9507 56.8516 33.9507C56.4326 33.9507 56.0814 34.0565 55.7979 34.2681C55.5143 34.4797 55.3726 34.7357 55.3726 35.0361H54.1919C54.1919 34.6934 54.3125 34.3633 54.5537 34.0459C54.7992 33.7243 55.1292 33.4704 55.5439 33.2842C55.9629 33.098 56.422 33.0049 56.9214 33.0049C57.7127 33.0049 58.3327 33.2038 58.7812 33.6016C59.2298 33.9951 59.4626 34.5389 59.4795 35.2329V38.394C59.4795 39.0246 59.5599 39.526 59.7207 39.8984V40H58.4893ZM56.5405 39.105C56.9087 39.105 57.2578 39.0098 57.5879 38.8193C57.918 38.6289 58.1571 38.3813 58.3052 38.0767V36.6675H57.3848C55.946 36.6675 55.2266 37.0885 55.2266 37.9307C55.2266 38.2988 55.3493 38.5866 55.5947 38.7939C55.8402 39.0013 56.1554 39.105 56.5405 39.105ZM63.4849 38.4067L65.186 33.1318H66.3857L63.9229 40H63.0278L60.5396 33.1318H61.7393L63.4849 38.4067ZM70.2769 40.127C69.3459 40.127 68.5884 39.8223 68.0044 39.2129C67.4204 38.5993 67.1284 37.7804 67.1284 36.7563V36.5405C67.1284 35.8592 67.2575 35.252 67.5156 34.7188C67.778 34.1813 68.1419 33.7624 68.6074 33.4619C69.0771 33.1572 69.585 33.0049 70.1309 33.0049C71.0238 33.0049 71.7178 33.299 72.2129 33.8872C72.708 34.4754 72.9556 35.3175 72.9556 36.4136V36.9023H68.3027C68.3197 37.5794 68.5164 38.1274 68.8931 38.5464C69.2739 38.9611 69.7563 39.1685 70.3403 39.1685C70.755 39.1685 71.1063 39.0838 71.394 38.9146C71.6818 38.7453 71.9336 38.521 72.1494 38.2417L72.8667 38.8003C72.2912 39.6847 71.4279 40.127 70.2769 40.127ZM70.1309 33.9697C69.6569 33.9697 69.2591 34.1432 68.9375 34.4902C68.6159 34.833 68.417 35.3154 68.3408 35.9375H71.7812V35.8486C71.7474 35.252 71.5866 34.7907 71.2988 34.4648C71.0111 34.1348 70.6217 33.9697 70.1309 33.9697ZM85.3145 37.6196C85.3145 37.2303 85.1769 36.9023 84.9019 36.6357C84.631 36.3691 84.1719 36.1279 83.5244 35.9121C82.623 35.637 81.965 35.2795 81.5503 34.8394C81.1398 34.395 80.9346 33.8322 80.9346 33.1509C80.9346 32.4569 81.1356 31.8877 81.5376 31.4434C81.9438 30.999 82.5003 30.7345 83.207 30.6499V29.2598H84.1528V30.6562C84.8638 30.7536 85.416 31.0519 85.8096 31.5513C86.2074 32.0506 86.4062 32.734 86.4062 33.6016H85.2383C85.2383 33.0049 85.0965 32.5309 84.813 32.1797C84.5295 31.8285 84.1465 31.6528 83.6641 31.6528C83.1605 31.6528 82.7754 31.784 82.5088 32.0464C82.2422 32.3045 82.1089 32.6663 82.1089 33.1318C82.1089 33.5635 82.2485 33.9084 82.5278 34.1665C82.8114 34.4204 83.2747 34.6532 83.918 34.8647C84.5654 35.0721 85.069 35.3027 85.4287 35.5566C85.7926 35.8063 86.0592 36.0983 86.2285 36.4326C86.402 36.7669 86.4888 37.1584 86.4888 37.6069C86.4888 38.3221 86.2729 38.8976 85.8413 39.3335C85.4139 39.7694 84.813 40.0275 84.0386 40.1079V41.3203H83.0991V40.1079C82.312 40.036 81.6942 39.7567 81.2456 39.27C80.8013 38.7791 80.5791 38.1147 80.5791 37.2769H81.7534C81.7534 37.8651 81.9079 38.3179 82.2168 38.6353C82.5257 38.9526 82.9637 39.1113 83.5308 39.1113C84.0851 39.1113 84.521 38.978 84.8384 38.7114C85.1558 38.4448 85.3145 38.0809 85.3145 37.6196ZM135.48 38.4067L137.181 33.1318H138.381L135.918 40H135.023L132.535 33.1318H133.734L135.48 38.4067ZM140.787 40H139.612V33.1318H140.787V40ZM139.517 31.3101C139.517 31.1196 139.574 30.9588 139.688 30.8276C139.807 30.6965 139.98 30.6309 140.209 30.6309C140.438 30.6309 140.611 30.6965 140.729 30.8276C140.848 30.9588 140.907 31.1196 140.907 31.3101C140.907 31.5005 140.848 31.6592 140.729 31.7861C140.611 31.9131 140.438 31.9766 140.209 31.9766C139.98 31.9766 139.807 31.9131 139.688 31.7861C139.574 31.6592 139.517 31.5005 139.517 31.3101ZM145.992 34.1855C145.814 34.1559 145.621 34.1411 145.414 34.1411C144.644 34.1411 144.121 34.4691 143.846 35.125V40H142.672V33.1318H143.814L143.833 33.9253C144.219 33.3117 144.764 33.0049 145.471 33.0049C145.7 33.0049 145.873 33.0345 145.992 33.0938V34.1855ZM148.988 31.4688V33.1318H150.27V34.0396H148.988V38.2988C148.988 38.5739 149.045 38.7812 149.159 38.9209C149.273 39.0563 149.468 39.124 149.743 39.124C149.879 39.124 150.065 39.0986 150.302 39.0479V40C149.993 40.0846 149.692 40.127 149.4 40.127C148.876 40.127 148.48 39.9683 148.213 39.6509C147.947 39.3335 147.813 38.8828 147.813 38.2988V34.0396H146.563V33.1318H147.813V31.4688H148.988ZM155.888 39.3208C155.431 39.8582 154.76 40.127 153.875 40.127C153.143 40.127 152.585 39.9154 152.2 39.4922C151.819 39.0648 151.626 38.4342 151.622 37.6006V33.1318H152.796V37.5688C152.796 38.6099 153.22 39.1304 154.066 39.1304C154.963 39.1304 155.56 38.7961 155.856 38.1274V33.1318H157.03V40H155.913L155.888 39.3208ZM163.061 40C162.993 39.8646 162.938 39.6234 162.896 39.2764C162.35 39.8434 161.698 40.127 160.94 40.127C160.263 40.127 159.707 39.9365 159.271 39.5557C158.839 39.1706 158.624 38.6839 158.624 38.0957C158.624 37.3805 158.894 36.8262 159.436 36.4326C159.982 36.0348 160.748 35.8359 161.734 35.8359H162.876V35.2964C162.876 34.8859 162.754 34.5601 162.508 34.3188C162.263 34.0734 161.901 33.9507 161.423 33.9507C161.004 33.9507 160.653 34.0565 160.369 34.2681C160.086 34.4797 159.944 34.7357 159.944 35.0361H158.763C158.763 34.6934 158.884 34.3633 159.125 34.0459C159.37 33.7243 159.701 33.4704 160.115 33.2842C160.534 33.098 160.993 33.0049 161.493 33.0049C162.284 33.0049 162.904 33.2038 163.353 33.6016C163.801 33.9951 164.034 34.5389 164.051 35.2329V38.394C164.051 39.0246 164.131 39.526 164.292 39.8984V40H163.061ZM161.112 39.105C161.48 39.105 161.829 39.0098 162.159 38.8193C162.489 38.6289 162.728 38.3813 162.876 38.0767V36.6675H161.956C160.517 36.6675 159.798 37.0885 159.798 37.9307C159.798 38.2988 159.921 38.5866 160.166 38.7939C160.411 39.0013 160.727 39.105 161.112 39.105ZM167.167 40H165.993V30.25H167.167V40ZM173.382 33.1318L173.414 33.8936C173.917 33.3011 174.596 33.0049 175.451 33.0049C176.412 33.0049 177.066 33.373 177.413 34.1094C177.641 33.7793 177.937 33.5127 178.301 33.3096C178.669 33.1064 179.103 33.0049 179.603 33.0049C181.109 33.0049 181.875 33.8026 181.9 35.3979V40H180.726V35.4678C180.726 34.9769 180.614 34.6108 180.39 34.3696C180.165 34.1242 179.789 34.0015 179.26 34.0015C178.824 34.0015 178.462 34.1326 178.174 34.395C177.887 34.6532 177.719 35.0023 177.673 35.4424V40H176.492V35.4995C176.492 34.5008 176.003 34.0015 175.026 34.0015C174.256 34.0015 173.729 34.3294 173.445 34.9854V40H172.271V33.1318H173.382ZM183.367 36.5024C183.367 35.8296 183.498 35.2244 183.76 34.687C184.027 34.1496 184.395 33.7349 184.865 33.4429C185.339 33.1509 185.878 33.0049 186.483 33.0049C187.419 33.0049 188.174 33.3286 188.75 33.9761C189.329 34.6235 189.619 35.4847 189.619 36.5596V36.6421C189.619 37.3107 189.49 37.9116 189.232 38.4448C188.978 38.9738 188.612 39.3864 188.134 39.6826C187.66 39.9788 187.114 40.127 186.496 40.127C185.565 40.127 184.81 39.8032 184.23 39.1558C183.654 38.5083 183.367 37.6514 183.367 36.585V36.5024ZM184.547 36.6421C184.547 37.4038 184.723 38.0153 185.074 38.4766C185.43 38.9378 185.904 39.1685 186.496 39.1685C187.093 39.1685 187.567 38.9357 187.918 38.4702C188.269 38.0005 188.445 37.3446 188.445 36.5024C188.445 35.7492 188.265 35.1398 187.905 34.6743C187.55 34.2046 187.076 33.9697 186.483 33.9697C185.904 33.9697 185.436 34.2004 185.081 34.6616C184.725 35.1229 184.547 35.783 184.547 36.6421ZM192.203 33.1318L192.241 33.9951C192.765 33.335 193.451 33.0049 194.297 33.0049C195.749 33.0049 196.481 33.8237 196.494 35.4614V40H195.319V35.4551C195.315 34.96 195.201 34.5939 194.977 34.3569C194.757 34.12 194.412 34.0015 193.942 34.0015C193.561 34.0015 193.227 34.103 192.939 34.3062C192.651 34.5093 192.427 34.7759 192.266 35.106V40H191.092V33.1318H192.203ZM201.115 40.127C200.184 40.127 199.426 39.8223 198.842 39.2129C198.258 38.5993 197.966 37.7804 197.966 36.7563V36.5405C197.966 35.8592 198.095 35.252 198.354 34.7188C198.616 34.1813 198.98 33.7624 199.445 33.4619C199.915 33.1572 200.423 33.0049 200.969 33.0049C201.862 33.0049 202.556 33.299 203.051 33.8872C203.546 34.4754 203.793 35.3175 203.793 36.4136V36.9023H199.141C199.158 37.5794 199.354 38.1274 199.731 38.5464C200.112 38.9611 200.594 39.1685 201.178 39.1685C201.593 39.1685 201.944 39.0838 202.232 38.9146C202.52 38.7453 202.771 38.521 202.987 38.2417L203.705 38.8003C203.129 39.6847 202.266 40.127 201.115 40.127ZM200.969 33.9697C200.495 33.9697 200.097 34.1432 199.775 34.4902C199.454 34.833 199.255 35.3154 199.179 35.9375H202.619V35.8486C202.585 35.252 202.424 34.7907 202.137 34.4648C201.849 34.1348 201.46 33.9697 200.969 33.9697ZM207.316 38.2798L208.916 33.1318H210.173L207.412 41.0601C206.984 42.2026 206.305 42.7739 205.374 42.7739L205.152 42.7549L204.714 42.6724V41.7202L205.031 41.7456C205.429 41.7456 205.738 41.6652 205.958 41.5044C206.182 41.3436 206.366 41.0495 206.51 40.6221L206.771 39.9238L204.32 33.1318H205.603L207.316 38.2798ZM23.1646 55H21.9902V45.25H23.1646V55ZM27.8999 55.127C26.9689 55.127 26.2114 54.8223 25.6274 54.2129C25.0435 53.5993 24.7515 52.7804 24.7515 51.7563V51.5405C24.7515 50.8592 24.8805 50.252 25.1387 49.7188C25.401 49.1813 25.765 48.7624 26.2305 48.4619C26.7002 48.1572 27.208 48.0049 27.7539 48.0049C28.6468 48.0049 29.3408 48.299 29.8359 48.8872C30.3311 49.4754 30.5786 50.3175 30.5786 51.4136V51.9023H25.9258C25.9427 52.5794 26.1395 53.1274 26.5161 53.5464C26.897 53.9611 27.3794 54.1685 27.9634 54.1685C28.3781 54.1685 28.7293 54.0838 29.0171 53.9146C29.3049 53.7453 29.5566 53.521 29.7725 53.2417L30.4897 53.8003C29.9142 54.6847 29.0509 55.127 27.8999 55.127ZM27.7539 48.9697C27.2799 48.9697 26.8822 49.1432 26.5605 49.4902C26.2389 49.833 26.04 50.3154 25.9639 50.9375H29.4043V50.8486C29.3704 50.252 29.2096 49.7907 28.9219 49.4648C28.6341 49.1348 28.2448 48.9697 27.7539 48.9697ZM32.521 55V49.0396H31.4355V48.1318H32.521V47.4272C32.521 46.6909 32.7178 46.1217 33.1113 45.7197C33.5049 45.3177 34.0614 45.1167 34.7808 45.1167C35.0516 45.1167 35.3203 45.1527 35.5869 45.2246L35.5234 46.1768C35.3245 46.1387 35.113 46.1196 34.8887 46.1196C34.5078 46.1196 34.2137 46.2318 34.0063 46.4561C33.799 46.6761 33.6953 46.9935 33.6953 47.4082V48.1318H35.1616V49.0396H33.6953V55H32.521ZM38.0562 46.4688V48.1318H39.3384V49.0396H38.0562V53.2988C38.0562 53.5739 38.1133 53.7812 38.2275 53.9209C38.3418 54.0563 38.5365 54.124 38.8115 54.124C38.9469 54.124 39.1331 54.0986 39.3701 54.0479V55C39.0612 55.0846 38.7607 55.127 38.4688 55.127C37.944 55.127 37.5483 54.9683 37.2817 54.6509C37.0151 54.3335 36.8818 53.8828 36.8818 53.2988V49.0396H35.6313V48.1318H36.8818V46.4688H38.0562ZM48.1807 55C48.113 54.8646 48.0579 54.6234 48.0156 54.2764C47.4697 54.8434 46.818 55.127 46.0605 55.127C45.3835 55.127 44.827 54.9365 44.3911 54.5557C43.9595 54.1706 43.7437 53.6839 43.7437 53.0957C43.7437 52.3805 44.0145 51.8262 44.5562 51.4326C45.1021 51.0348 45.868 50.8359 46.854 50.8359H47.9966V50.2964C47.9966 49.8859 47.8739 49.5601 47.6284 49.3188C47.383 49.0734 47.0212 48.9507 46.543 48.9507C46.124 48.9507 45.7728 49.0565 45.4893 49.2681C45.2057 49.4797 45.064 49.7357 45.064 50.0361H43.8833C43.8833 49.6934 44.0039 49.3633 44.2451 49.0459C44.4906 48.7243 44.8206 48.4704 45.2354 48.2842C45.6543 48.098 46.1134 48.0049 46.6128 48.0049C47.4041 48.0049 48.0241 48.2038 48.4727 48.6016C48.9212 48.9951 49.154 49.5389 49.1709 50.2329V53.394C49.1709 54.0246 49.2513 54.526 49.4121 54.8984V55H48.1807ZM46.2319 54.105C46.6001 54.105 46.9492 54.0098 47.2793 53.8193C47.6094 53.6289 47.8485 53.3813 47.9966 53.0767V51.6675H47.0762C45.6374 51.6675 44.918 52.0885 44.918 52.9307C44.918 53.2988 45.0407 53.5866 45.2861 53.7939C45.5316 54.0013 45.8468 54.105 46.2319 54.105ZM53.1763 53.4067L54.8774 48.1318H56.0771L53.6143 55H52.7192L50.231 48.1318H51.4307L53.1763 53.4067ZM61.3457 55C61.278 54.8646 61.223 54.6234 61.1807 54.2764C60.6348 54.8434 59.9831 55.127 59.2256 55.127C58.5485 55.127 57.992 54.9365 57.5562 54.5557C57.1245 54.1706 56.9087 53.6839 56.9087 53.0957C56.9087 52.3805 57.1795 51.8262 57.7212 51.4326C58.2671 51.0348 59.033 50.8359 60.019 50.8359H61.1616V50.2964C61.1616 49.8859 61.0389 49.5601 60.7935 49.3188C60.548 49.0734 60.1862 48.9507 59.708 48.9507C59.2891 48.9507 58.9378 49.0565 58.6543 49.2681C58.3708 49.4797 58.229 49.7357 58.229 50.0361H57.0483C57.0483 49.6934 57.1689 49.3633 57.4102 49.0459C57.6556 48.7243 57.9857 48.4704 58.4004 48.2842C58.8193 48.098 59.2785 48.0049 59.7778 48.0049C60.5692 48.0049 61.1891 48.2038 61.6377 48.6016C62.0863 48.9951 62.319 49.5389 62.3359 50.2329V53.394C62.3359 54.0246 62.4163 54.526 62.5771 54.8984V55H61.3457ZM59.397 54.105C59.7651 54.105 60.1143 54.0098 60.4443 53.8193C60.7744 53.6289 61.0135 53.3813 61.1616 53.0767V51.6675H60.2412C58.8024 51.6675 58.083 52.0885 58.083 52.9307C58.083 53.2988 58.2057 53.5866 58.4512 53.7939C58.6966 54.0013 59.0119 54.105 59.397 54.105ZM65.4526 55H64.2783V48.1318H65.4526V55ZM64.1831 46.3101C64.1831 46.1196 64.2402 45.9588 64.3545 45.8276C64.473 45.6965 64.6465 45.6309 64.875 45.6309C65.1035 45.6309 65.277 45.6965 65.3955 45.8276C65.514 45.9588 65.5732 46.1196 65.5732 46.3101C65.5732 46.5005 65.514 46.6592 65.3955 46.7861C65.277 46.9131 65.1035 46.9766 64.875 46.9766C64.6465 46.9766 64.473 46.9131 64.3545 46.7861C64.2402 46.6592 64.1831 46.5005 64.1831 46.3101ZM68.6138 55H67.4395V45.25H68.6138V55ZM74.7393 55C74.6715 54.8646 74.6165 54.6234 74.5742 54.2764C74.0283 54.8434 73.3766 55.127 72.6191 55.127C71.9421 55.127 71.3856 54.9365 70.9497 54.5557C70.5181 54.1706 70.3022 53.6839 70.3022 53.0957C70.3022 52.3805 70.5731 51.8262 71.1147 51.4326C71.6606 51.0348 72.4266 50.8359 73.4126 50.8359H74.5552V50.2964C74.5552 49.8859 74.4325 49.5601 74.187 49.3188C73.9416 49.0734 73.5798 48.9507 73.1016 48.9507C72.6826 48.9507 72.3314 49.0565 72.0479 49.2681C71.7643 49.4797 71.6226 49.7357 71.6226 50.0361H70.4419C70.4419 49.6934 70.5625 49.3633 70.8037 49.0459C71.0492 48.7243 71.3792 48.4704 71.7939 48.2842C72.2129 48.098 72.672 48.0049 73.1714 48.0049C73.9627 48.0049 74.5827 48.2038 75.0312 48.6016C75.4798 48.9951 75.7126 49.5389 75.7295 50.2329V53.394C75.7295 54.0246 75.8099 54.526 75.9707 54.8984V55H74.7393ZM72.7905 54.105C73.1587 54.105 73.5078 54.0098 73.8379 53.8193C74.168 53.6289 74.4071 53.3813 74.5552 53.0767V51.6675H73.6348C72.196 51.6675 71.4766 52.0885 71.4766 52.9307C71.4766 53.2988 71.5993 53.5866 71.8447 53.7939C72.0902 54.0013 72.4054 54.105 72.7905 54.105ZM83.3848 51.6421C83.3848 52.6916 83.1436 53.5358 82.6611 54.1748C82.1787 54.8096 81.5312 55.127 80.7188 55.127C79.8512 55.127 79.1805 54.8201 78.7065 54.2065L78.6494 55H77.5703V45.25H78.7446V48.8872C79.2186 48.299 79.8724 48.0049 80.7061 48.0049C81.5397 48.0049 82.1935 48.3201 82.6675 48.9507C83.1457 49.5812 83.3848 50.4445 83.3848 51.5405V51.6421ZM82.2104 51.5088C82.2104 50.709 82.056 50.0911 81.7471 49.6553C81.4382 49.2194 80.9938 49.0015 80.4141 49.0015C79.6396 49.0015 79.0832 49.3612 78.7446 50.0806V53.0513C79.1043 53.7707 79.665 54.1304 80.4268 54.1304C80.9896 54.1304 81.4276 53.9124 81.7407 53.4766C82.0539 53.0407 82.2104 52.3848 82.2104 51.5088ZM86.146 55H84.9717V45.25H86.146V55ZM90.8813 55.127C89.9504 55.127 89.1929 54.8223 88.6089 54.2129C88.0249 53.5993 87.7329 52.7804 87.7329 51.7563V51.5405C87.7329 50.8592 87.862 50.252 88.1201 49.7188C88.3825 49.1813 88.7464 48.7624 89.2119 48.4619C89.6816 48.1572 90.1895 48.0049 90.7354 48.0049C91.6283 48.0049 92.3223 48.299 92.8174 48.8872C93.3125 49.4754 93.5601 50.3175 93.5601 51.4136V51.9023H88.9072C88.9242 52.5794 89.1209 53.1274 89.4976 53.5464C89.8784 53.9611 90.3608 54.1685 90.9448 54.1685C91.3595 54.1685 91.7108 54.0838 91.9985 53.9146C92.2863 53.7453 92.5381 53.521 92.7539 53.2417L93.4712 53.8003C92.8957 54.6847 92.0324 55.127 90.8813 55.127ZM90.7354 48.9697C90.2614 48.9697 89.8636 49.1432 89.542 49.4902C89.2204 49.833 89.0215 50.3154 88.9453 50.9375H92.3857V50.8486C92.3519 50.252 92.1911 49.7907 91.9033 49.4648C91.6156 49.1348 91.2262 48.9697 90.7354 48.9697ZM99.7427 46.4688V48.1318H101.025V49.0396H99.7427V53.2988C99.7427 53.5739 99.7998 53.7812 99.9141 53.9209C100.028 54.0563 100.223 54.124 100.498 54.124C100.633 54.124 100.82 54.0986 101.057 54.0479V55C100.748 55.0846 100.447 55.127 100.155 55.127C99.6305 55.127 99.2349 54.9683 98.9683 54.6509C98.7017 54.3335 98.5684 53.8828 98.5684 53.2988V49.0396H97.3179V48.1318H98.5684V46.4688H99.7427ZM101.964 51.5024C101.964 50.8296 102.096 50.2244 102.358 49.687C102.625 49.1496 102.993 48.7349 103.462 48.4429C103.936 48.1509 104.476 48.0049 105.081 48.0049C106.016 48.0049 106.772 48.3286 107.347 48.9761C107.927 49.6235 108.217 50.4847 108.217 51.5596V51.6421C108.217 52.3107 108.088 52.9116 107.83 53.4448C107.576 53.9738 107.21 54.3864 106.731 54.6826C106.257 54.9788 105.712 55.127 105.094 55.127C104.163 55.127 103.407 54.8032 102.828 54.1558C102.252 53.5083 101.964 52.6514 101.964 51.585V51.5024ZM103.145 51.6421C103.145 52.4038 103.321 53.0153 103.672 53.4766C104.027 53.9378 104.501 54.1685 105.094 54.1685C105.69 54.1685 106.164 53.9357 106.516 53.4702C106.867 53.0005 107.042 52.3446 107.042 51.5024C107.042 50.7492 106.863 50.1398 106.503 49.6743C106.147 49.2046 105.674 48.9697 105.081 48.9697C104.501 48.9697 104.034 49.2004 103.678 49.6616C103.323 50.1229 103.145 50.783 103.145 51.6421ZM114.19 55H113.016V48.1318H114.19V55ZM112.92 46.3101C112.92 46.1196 112.978 45.9588 113.092 45.8276C113.21 45.6965 113.384 45.6309 113.612 45.6309C113.841 45.6309 114.014 45.6965 114.133 45.8276C114.251 45.9588 114.311 46.1196 114.311 46.3101C114.311 46.5005 114.251 46.6592 114.133 46.7861C114.014 46.9131 113.841 46.9766 113.612 46.9766C113.384 46.9766 113.21 46.9131 113.092 46.7861C112.978 46.6592 112.92 46.5005 112.92 46.3101ZM117.186 48.1318L117.224 48.9951C117.749 48.335 118.434 48.0049 119.281 48.0049C120.732 48.0049 121.464 48.8237 121.477 50.4614V55H120.303V50.4551C120.299 49.96 120.184 49.5939 119.96 49.3569C119.74 49.12 119.395 49.0015 118.925 49.0015C118.544 49.0015 118.21 49.103 117.922 49.3062C117.635 49.5093 117.41 49.7759 117.25 50.106V55H116.075V48.1318H117.186ZM125.514 53.4067L127.215 48.1318H128.415L125.952 55H125.057L122.569 48.1318H123.769L125.514 53.4067ZM132.306 55.127C131.375 55.127 130.618 54.8223 130.034 54.2129C129.45 53.5993 129.158 52.7804 129.158 51.7563V51.5405C129.158 50.8592 129.287 50.252 129.545 49.7188C129.807 49.1813 130.171 48.7624 130.637 48.4619C131.106 48.1572 131.614 48.0049 132.16 48.0049C133.053 48.0049 133.747 48.299 134.242 48.8872C134.737 49.4754 134.985 50.3175 134.985 51.4136V51.9023H130.332C130.349 52.5794 130.546 53.1274 130.922 53.5464C131.303 53.9611 131.786 54.1685 132.37 54.1685C132.784 54.1685 133.136 54.0838 133.423 53.9146C133.711 53.7453 133.963 53.521 134.179 53.2417L134.896 53.8003C134.32 54.6847 133.457 55.127 132.306 55.127ZM132.16 48.9697C131.686 48.9697 131.288 49.1432 130.967 49.4902C130.645 49.833 130.446 50.3154 130.37 50.9375H133.811V50.8486C133.777 50.252 133.616 49.7907 133.328 49.4648C133.04 49.1348 132.651 48.9697 132.16 48.9697ZM140.349 53.1782C140.349 52.8608 140.228 52.6154 139.987 52.4419C139.75 52.2642 139.333 52.1118 138.736 51.9849C138.144 51.8579 137.672 51.7056 137.321 51.5278C136.974 51.3501 136.716 51.1385 136.546 50.8931C136.381 50.6476 136.299 50.3556 136.299 50.0171C136.299 49.4543 136.536 48.9782 137.01 48.5889C137.488 48.1995 138.097 48.0049 138.838 48.0049C139.617 48.0049 140.247 48.2059 140.729 48.6079C141.216 49.0099 141.459 49.5241 141.459 50.1504H140.279C140.279 49.8288 140.141 49.5516 139.866 49.3188C139.595 49.0861 139.253 48.9697 138.838 48.9697C138.41 48.9697 138.076 49.0628 137.835 49.249C137.594 49.4352 137.473 49.6785 137.473 49.979C137.473 50.2625 137.585 50.4762 137.81 50.6201C138.034 50.764 138.438 50.9015 139.022 51.0327C139.61 51.1639 140.086 51.3205 140.45 51.5024C140.814 51.6844 141.083 51.9045 141.256 52.1626C141.434 52.4165 141.523 52.7275 141.523 53.0957C141.523 53.7093 141.278 54.2023 140.787 54.5747C140.296 54.9429 139.659 55.127 138.876 55.127C138.326 55.127 137.839 55.0296 137.416 54.835C136.993 54.6403 136.661 54.3695 136.419 54.0225C136.182 53.6712 136.064 53.2925 136.064 52.8862H137.238C137.259 53.2798 137.416 53.5929 137.708 53.8257C138.004 54.0542 138.394 54.1685 138.876 54.1685C139.32 54.1685 139.676 54.0796 139.942 53.9019C140.213 53.7199 140.349 53.4787 140.349 53.1782ZM144.646 46.4688V48.1318H145.928V49.0396H144.646V53.2988C144.646 53.5739 144.703 53.7812 144.817 53.9209C144.932 54.0563 145.126 54.124 145.401 54.124C145.537 54.124 145.723 54.0986 145.96 54.0479V55C145.651 55.0846 145.351 55.127 145.059 55.127C144.534 55.127 144.138 54.9683 143.872 54.6509C143.605 54.3335 143.472 53.8828 143.472 53.2988V49.0396H142.221V48.1318H143.472V46.4688H144.646ZM147.331 54.3843C147.331 54.1812 147.39 54.0119 147.509 53.8765C147.632 53.741 147.813 53.6733 148.055 53.6733C148.296 53.6733 148.478 53.741 148.601 53.8765C148.728 54.0119 148.791 54.1812 148.791 54.3843C148.791 54.5789 148.728 54.7419 148.601 54.873C148.478 55.0042 148.296 55.0698 148.055 55.0698C147.813 55.0698 147.632 55.0042 147.509 54.873C147.39 54.7419 147.331 54.5789 147.331 54.3843Z" fill="#2B2E55"/>
<path id="cash" d="M91 28H127V44H91V28Z" fill="white"/>
<rect id="earnedTotal" x="984" y="3" width="33" height="18" fill="white"/>
<rect id="moneyTotal" x="1026" y="3" width="47" height="20" fill="white"/>
<rect id="earnedTotalMonthly" x="1162" y="5" width="41" height="18" fill="white"/>
<rect id="moneyTotalMonthly" x="1218" y="3" width="56" height="20" fill="white"/>
</g>
</svg>
