<svg width="1284" height="114" viewBox="0 0 1284 114" fill="none" xmlns="http://www.w3.org/2000/svg">
<g id="BandS">
<rect id="Rectangle 17" width="1284" height="114" fill="white"/>
<rect id="RectangleDay1BuyBT" x="260" y="23" width="249" height="44" rx="7" fill="#6BB8FF"/>
<path id="Buy:" d="M330.611 55V33.6719H338.272C341.017 33.6719 343.102 34.1748 344.527 35.1807C345.963 36.1865 346.681 37.6465 346.681 39.5605C346.681 40.6641 346.427 41.6064 345.919 42.3877C345.411 43.1689 344.664 43.7451 343.678 44.1162C344.791 44.4092 345.646 44.9561 346.241 45.7568C346.837 46.5576 347.135 47.5342 347.135 48.6865C347.135 50.7764 346.471 52.3486 345.143 53.4033C343.824 54.4482 341.866 54.9805 339.269 55H330.611ZM335.753 45.9326V51.0449H339.122C340.05 51.0449 340.763 50.835 341.261 50.415C341.759 49.9854 342.008 49.3848 342.008 48.6133C342.008 46.8359 341.124 45.9424 339.356 45.9326H335.753ZM335.753 42.5635H338.434C339.557 42.5537 340.357 42.3486 340.836 41.9482C341.314 41.5479 341.554 40.957 341.554 40.1758C341.554 39.2773 341.295 38.6328 340.777 38.2422C340.26 37.8418 339.425 37.6416 338.272 37.6416H335.753V42.5635ZM359.19 53.2861C358.146 54.624 356.734 55.293 354.957 55.293C353.219 55.293 351.9 54.79 351.002 53.7842C350.113 52.7686 349.669 51.3135 349.669 49.4189V39.1504H354.605V49.4482C354.605 50.8057 355.265 51.4844 356.583 51.4844C357.716 51.4844 358.521 51.0791 359 50.2686V39.1504H363.966V55H359.337L359.19 53.2861ZM373.019 48.0859L375.655 39.1504H380.943L374.483 57.6514L374.205 58.3252C373.287 60.376 371.666 61.4014 369.342 61.4014C368.697 61.4014 368.019 61.3037 367.306 61.1084V57.5781H367.95C368.644 57.5781 369.171 57.4756 369.532 57.2705C369.903 57.0752 370.177 56.7188 370.353 56.2012L370.748 55.1465L365.24 39.1504H370.514L373.019 48.0859ZM385.309 50.21C386.09 50.21 386.739 50.4443 387.257 50.9131C387.774 51.3721 388.033 51.9629 388.033 52.6855C388.033 53.4082 387.774 54.0039 387.257 54.4727C386.739 54.9316 386.09 55.1611 385.309 55.1611C384.518 55.1611 383.863 54.9268 383.346 54.458C382.838 53.9893 382.584 53.3984 382.584 52.6855C382.584 51.9727 382.838 51.3818 383.346 50.9131C383.863 50.4443 384.518 50.21 385.309 50.21ZM385.309 38.5205C386.09 38.5205 386.739 38.7549 387.257 39.2236C387.774 39.6826 388.033 40.2734 388.033 40.9961C388.033 41.7188 387.774 42.3145 387.257 42.7832C386.739 43.2422 386.09 43.4717 385.309 43.4717C384.518 43.4717 383.863 43.2373 383.346 42.7686C382.838 42.2998 382.584 41.709 382.584 40.9961C382.584 40.2832 382.838 39.6924 383.346 39.2236C383.863 38.7549 384.518 38.5205 385.309 38.5205Z" fill="white"/>
<g id="Group 16">
<circle id="Ellipse 3" cx="308" cy="45" r="11" stroke="white" stroke-width="2"/>
<line id="Line 5" x1="302" y1="45" x2="314" y2="45" stroke="white" stroke-width="2" stroke-linecap="round"/>
<line id="Line 7" x1="308" y1="39" x2="308" y2="52" stroke="white" stroke-width="2" stroke-linecap="round"/>
</g>
<rect id="D1InputPlaceHolder" x="396" y="27" width="86" height="30" fill="#6BB8FF"/>
<g id="Group 18">
<rect id="RectangleDay1BuyBT_2" x="521" y="23" width="249" height="44" rx="7" fill="#6BB8FF"/>
<path id="Buy:_2" d="M591.611 55V33.6719H599.272C602.017 33.6719 604.102 34.1748 605.527 35.1807C606.963 36.1865 607.681 37.6465 607.681 39.5605C607.681 40.6641 607.427 41.6064 606.919 42.3877C606.411 43.1689 605.664 43.7451 604.678 44.1162C605.791 44.4092 606.646 44.9561 607.241 45.7568C607.837 46.5576 608.135 47.5342 608.135 48.6865C608.135 50.7764 607.471 52.3486 606.143 53.4033C604.824 54.4482 602.866 54.9805 600.269 55H591.611ZM596.753 45.9326V51.0449H600.122C601.05 51.0449 601.763 50.835 602.261 50.415C602.759 49.9854 603.008 49.3848 603.008 48.6133C603.008 46.8359 602.124 45.9424 600.356 45.9326H596.753ZM596.753 42.5635H599.434C600.557 42.5537 601.357 42.3486 601.836 41.9482C602.314 41.5479 602.554 40.957 602.554 40.1758C602.554 39.2773 602.295 38.6328 601.777 38.2422C601.26 37.8418 600.425 37.6416 599.272 37.6416H596.753V42.5635ZM620.19 53.2861C619.146 54.624 617.734 55.293 615.957 55.293C614.219 55.293 612.9 54.79 612.002 53.7842C611.113 52.7686 610.669 51.3135 610.669 49.4189V39.1504H615.605V49.4482C615.605 50.8057 616.265 51.4844 617.583 51.4844C618.716 51.4844 619.521 51.0791 620 50.2686V39.1504H624.966V55H620.337L620.19 53.2861ZM634.019 48.0859L636.655 39.1504H641.943L635.483 57.6514L635.205 58.3252C634.287 60.376 632.666 61.4014 630.342 61.4014C629.697 61.4014 629.019 61.3037 628.306 61.1084V57.5781H628.95C629.644 57.5781 630.171 57.4756 630.532 57.2705C630.903 57.0752 631.177 56.7188 631.353 56.2012L631.748 55.1465L626.24 39.1504H631.514L634.019 48.0859ZM646.309 50.21C647.09 50.21 647.739 50.4443 648.257 50.9131C648.774 51.3721 649.033 51.9629 649.033 52.6855C649.033 53.4082 648.774 54.0039 648.257 54.4727C647.739 54.9316 647.09 55.1611 646.309 55.1611C645.518 55.1611 644.863 54.9268 644.346 54.458C643.838 53.9893 643.584 53.3984 643.584 52.6855C643.584 51.9727 643.838 51.3818 644.346 50.9131C644.863 50.4443 645.518 50.21 646.309 50.21ZM646.309 38.5205C647.09 38.5205 647.739 38.7549 648.257 39.2236C648.774 39.6826 649.033 40.2734 649.033 40.9961C649.033 41.7188 648.774 42.3145 648.257 42.7832C647.739 43.2422 647.09 43.4717 646.309 43.4717C645.518 43.4717 644.863 43.2373 644.346 42.7686C643.838 42.2998 643.584 41.709 643.584 40.9961C643.584 40.2832 643.838 39.6924 644.346 39.2236C644.863 38.7549 645.518 38.5205 646.309 38.5205Z" fill="white"/>
</g>
<g id="Group 16_2">
<circle id="Ellipse 3_2" cx="569" cy="45" r="11" stroke="white" stroke-width="2"/>
<line id="Line 5_2" x1="563" y1="45" x2="575" y2="45" stroke="white" stroke-width="2" stroke-linecap="round"/>
<line id="Line 7_2" x1="569" y1="39" x2="569" y2="52" stroke="white" stroke-width="2" stroke-linecap="round"/>
</g>
<rect id="D2InputPlaceHolder" x="657" y="27" width="86" height="30" fill="#6BB8FF"/>
<rect id="RectangleDay1BuyBT_3" x="521" y="70" width="249" height="44" rx="7" fill="#6BB8FF"/>
<path id="Sell:" d="M602.612 96.3311C602.612 95.5791 602.344 94.9932 601.807 94.5732C601.279 94.1533 600.347 93.7188 599.009 93.2695C597.671 92.8203 596.577 92.3857 595.728 91.9658C592.964 90.6084 591.582 88.7432 591.582 86.3701C591.582 85.1885 591.924 84.1484 592.607 83.25C593.301 82.3418 594.277 81.6387 595.537 81.1406C596.797 80.6328 598.213 80.3789 599.785 80.3789C601.318 80.3789 602.69 80.6523 603.901 81.1992C605.122 81.7461 606.069 82.5273 606.743 83.543C607.417 84.5488 607.754 85.7012 607.754 87H602.627C602.627 86.1309 602.358 85.457 601.821 84.9785C601.294 84.5 600.576 84.2607 599.668 84.2607C598.75 84.2607 598.022 84.4658 597.485 84.876C596.958 85.2764 596.694 85.7891 596.694 86.4141C596.694 86.9609 596.987 87.459 597.573 87.9082C598.159 88.3477 599.189 88.8066 600.664 89.2852C602.139 89.7539 603.35 90.2617 604.297 90.8086C606.602 92.1367 607.754 93.9678 607.754 96.3018C607.754 98.167 607.051 99.6318 605.645 100.696C604.238 101.761 602.31 102.293 599.858 102.293C598.13 102.293 596.562 101.985 595.156 101.37C593.76 100.745 592.705 99.8955 591.992 98.8213C591.289 97.7373 590.938 96.4922 590.938 95.0859H596.094C596.094 96.2285 596.387 97.0732 596.973 97.6201C597.568 98.1572 598.53 98.4258 599.858 98.4258C600.708 98.4258 601.377 98.2451 601.865 97.8838C602.363 97.5127 602.612 96.9951 602.612 96.3311ZM617.832 102.293C615.4 102.293 613.433 101.57 611.929 100.125C610.425 98.6699 609.673 96.7803 609.673 94.4561V94.0459C609.673 92.4248 609.971 90.9941 610.566 89.7539C611.172 88.5137 612.051 87.5566 613.203 86.8828C614.355 86.1992 615.723 85.8574 617.305 85.8574C619.531 85.8574 621.289 86.5508 622.578 87.9375C623.867 89.3145 624.512 91.2383 624.512 93.709V95.6279H614.697C614.873 96.5166 615.259 97.2148 615.854 97.7227C616.45 98.2305 617.222 98.4844 618.169 98.4844C619.731 98.4844 620.952 97.9375 621.831 96.8438L624.087 99.5098C623.472 100.359 622.598 101.038 621.465 101.546C620.342 102.044 619.131 102.293 617.832 102.293ZM617.275 89.666C615.83 89.666 614.971 90.623 614.697 92.5371H619.678V92.1562C619.697 91.3652 619.497 90.7549 619.077 90.3252C618.657 89.8857 618.057 89.666 617.275 89.666ZM631.719 102H626.768V79.5H631.719V102ZM639.98 102H635.029V79.5H639.98V102ZM646.104 97.21C646.885 97.21 647.534 97.4443 648.052 97.9131C648.569 98.3721 648.828 98.9629 648.828 99.6855C648.828 100.408 648.569 101.004 648.052 101.473C647.534 101.932 646.885 102.161 646.104 102.161C645.312 102.161 644.658 101.927 644.141 101.458C643.633 100.989 643.379 100.398 643.379 99.6855C643.379 98.9727 643.633 98.3818 644.141 97.9131C644.658 97.4443 645.312 97.21 646.104 97.21ZM646.104 85.5205C646.885 85.5205 647.534 85.7549 648.052 86.2236C648.569 86.6826 648.828 87.2734 648.828 87.9961C648.828 88.7188 648.569 89.3145 648.052 89.7832C647.534 90.2422 646.885 90.4717 646.104 90.4717C645.312 90.4717 644.658 90.2373 644.141 89.7686C643.633 89.2998 643.379 88.709 643.379 87.9961C643.379 87.2832 643.633 86.6924 644.141 86.2236C644.658 85.7549 645.312 85.5205 646.104 85.5205Z" fill="white"/>
<g id="Group 16_3">
<circle id="Ellipse 3_3" cx="569" cy="92" r="11" stroke="white" stroke-width="2"/>
<line id="Line 5_3" x1="563" y1="92" x2="575" y2="92" stroke="white" stroke-width="2" stroke-linecap="round"/>
</g>
<rect id="D2sellPlaceHolder" x="657" y="74" width="86" height="30" fill="#6BB8FF"/>
<rect id="RectangleDay1BuyBT_4" x="780" y="23" width="249" height="44" rx="7" fill="#6BB8FF"/>
<path id="Buy:_3" d="M850.611 55V33.6719H858.272C861.017 33.6719 863.102 34.1748 864.527 35.1807C865.963 36.1865 866.681 37.6465 866.681 39.5605C866.681 40.6641 866.427 41.6064 865.919 42.3877C865.411 43.1689 864.664 43.7451 863.678 44.1162C864.791 44.4092 865.646 44.9561 866.241 45.7568C866.837 46.5576 867.135 47.5342 867.135 48.6865C867.135 50.7764 866.471 52.3486 865.143 53.4033C863.824 54.4482 861.866 54.9805 859.269 55H850.611ZM855.753 45.9326V51.0449H859.122C860.05 51.0449 860.763 50.835 861.261 50.415C861.759 49.9854 862.008 49.3848 862.008 48.6133C862.008 46.8359 861.124 45.9424 859.356 45.9326H855.753ZM855.753 42.5635H858.434C859.557 42.5537 860.357 42.3486 860.836 41.9482C861.314 41.5479 861.554 40.957 861.554 40.1758C861.554 39.2773 861.295 38.6328 860.777 38.2422C860.26 37.8418 859.425 37.6416 858.272 37.6416H855.753V42.5635ZM879.19 53.2861C878.146 54.624 876.734 55.293 874.957 55.293C873.219 55.293 871.9 54.79 871.002 53.7842C870.113 52.7686 869.669 51.3135 869.669 49.4189V39.1504H874.605V49.4482C874.605 50.8057 875.265 51.4844 876.583 51.4844C877.716 51.4844 878.521 51.0791 879 50.2686V39.1504H883.966V55H879.337L879.19 53.2861ZM893.019 48.0859L895.655 39.1504H900.943L894.483 57.6514L894.205 58.3252C893.287 60.376 891.666 61.4014 889.342 61.4014C888.697 61.4014 888.019 61.3037 887.306 61.1084V57.5781H887.95C888.644 57.5781 889.171 57.4756 889.532 57.2705C889.903 57.0752 890.177 56.7188 890.353 56.2012L890.748 55.1465L885.24 39.1504H890.514L893.019 48.0859ZM905.309 50.21C906.09 50.21 906.739 50.4443 907.257 50.9131C907.774 51.3721 908.033 51.9629 908.033 52.6855C908.033 53.4082 907.774 54.0039 907.257 54.4727C906.739 54.9316 906.09 55.1611 905.309 55.1611C904.518 55.1611 903.863 54.9268 903.346 54.458C902.838 53.9893 902.584 53.3984 902.584 52.6855C902.584 51.9727 902.838 51.3818 903.346 50.9131C903.863 50.4443 904.518 50.21 905.309 50.21ZM905.309 38.5205C906.09 38.5205 906.739 38.7549 907.257 39.2236C907.774 39.6826 908.033 40.2734 908.033 40.9961C908.033 41.7188 907.774 42.3145 907.257 42.7832C906.739 43.2422 906.09 43.4717 905.309 43.4717C904.518 43.4717 903.863 43.2373 903.346 42.7686C902.838 42.2998 902.584 41.709 902.584 40.9961C902.584 40.2832 902.838 39.6924 903.346 39.2236C903.863 38.7549 904.518 38.5205 905.309 38.5205Z" fill="white"/>
<g id="Group 16_4">
<circle id="Ellipse 3_4" cx="828" cy="45" r="11" stroke="white" stroke-width="2"/>
<line id="Line 5_4" x1="822" y1="45" x2="834" y2="45" stroke="white" stroke-width="2" stroke-linecap="round"/>
<line id="Line 7_3" x1="828" y1="39" x2="828" y2="52" stroke="white" stroke-width="2" stroke-linecap="round"/>
</g>
<rect id="D3InputPlaceHolder" x="916" y="27" width="86" height="30" fill="#6BB8FF"/>
<rect id="RectangleDay1BuyBT_5" x="780" y="70" width="249" height="44" rx="7" fill="#6BB8FF"/>
<path id="Sell:_2" d="M861.612 96.3311C861.612 95.5791 861.344 94.9932 860.807 94.5732C860.279 94.1533 859.347 93.7188 858.009 93.2695C856.671 92.8203 855.577 92.3857 854.728 91.9658C851.964 90.6084 850.582 88.7432 850.582 86.3701C850.582 85.1885 850.924 84.1484 851.607 83.25C852.301 82.3418 853.277 81.6387 854.537 81.1406C855.797 80.6328 857.213 80.3789 858.785 80.3789C860.318 80.3789 861.69 80.6523 862.901 81.1992C864.122 81.7461 865.069 82.5273 865.743 83.543C866.417 84.5488 866.754 85.7012 866.754 87H861.627C861.627 86.1309 861.358 85.457 860.821 84.9785C860.294 84.5 859.576 84.2607 858.668 84.2607C857.75 84.2607 857.022 84.4658 856.485 84.876C855.958 85.2764 855.694 85.7891 855.694 86.4141C855.694 86.9609 855.987 87.459 856.573 87.9082C857.159 88.3477 858.189 88.8066 859.664 89.2852C861.139 89.7539 862.35 90.2617 863.297 90.8086C865.602 92.1367 866.754 93.9678 866.754 96.3018C866.754 98.167 866.051 99.6318 864.645 100.696C863.238 101.761 861.31 102.293 858.858 102.293C857.13 102.293 855.562 101.985 854.156 101.37C852.76 100.745 851.705 99.8955 850.992 98.8213C850.289 97.7373 849.938 96.4922 849.938 95.0859H855.094C855.094 96.2285 855.387 97.0732 855.973 97.6201C856.568 98.1572 857.53 98.4258 858.858 98.4258C859.708 98.4258 860.377 98.2451 860.865 97.8838C861.363 97.5127 861.612 96.9951 861.612 96.3311ZM876.832 102.293C874.4 102.293 872.433 101.57 870.929 100.125C869.425 98.6699 868.673 96.7803 868.673 94.4561V94.0459C868.673 92.4248 868.971 90.9941 869.566 89.7539C870.172 88.5137 871.051 87.5566 872.203 86.8828C873.355 86.1992 874.723 85.8574 876.305 85.8574C878.531 85.8574 880.289 86.5508 881.578 87.9375C882.867 89.3145 883.512 91.2383 883.512 93.709V95.6279H873.697C873.873 96.5166 874.259 97.2148 874.854 97.7227C875.45 98.2305 876.222 98.4844 877.169 98.4844C878.731 98.4844 879.952 97.9375 880.831 96.8438L883.087 99.5098C882.472 100.359 881.598 101.038 880.465 101.546C879.342 102.044 878.131 102.293 876.832 102.293ZM876.275 89.666C874.83 89.666 873.971 90.623 873.697 92.5371H878.678V92.1562C878.697 91.3652 878.497 90.7549 878.077 90.3252C877.657 89.8857 877.057 89.666 876.275 89.666ZM890.719 102H885.768V79.5H890.719V102ZM898.98 102H894.029V79.5H898.98V102ZM905.104 97.21C905.885 97.21 906.534 97.4443 907.052 97.9131C907.569 98.3721 907.828 98.9629 907.828 99.6855C907.828 100.408 907.569 101.004 907.052 101.473C906.534 101.932 905.885 102.161 905.104 102.161C904.312 102.161 903.658 101.927 903.141 101.458C902.633 100.989 902.379 100.398 902.379 99.6855C902.379 98.9727 902.633 98.3818 903.141 97.9131C903.658 97.4443 904.312 97.21 905.104 97.21ZM905.104 85.5205C905.885 85.5205 906.534 85.7549 907.052 86.2236C907.569 86.6826 907.828 87.2734 907.828 87.9961C907.828 88.7188 907.569 89.3145 907.052 89.7832C906.534 90.2422 905.885 90.4717 905.104 90.4717C904.312 90.4717 903.658 90.2373 903.141 89.7686C902.633 89.2998 902.379 88.709 902.379 87.9961C902.379 87.2832 902.633 86.6924 903.141 86.2236C903.658 85.7549 904.312 85.5205 905.104 85.5205Z" fill="white"/>
<g id="Group 16_5">
<circle id="Ellipse 3_5" cx="828" cy="92" r="11" stroke="white" stroke-width="2"/>
<line id="Line 5_5" x1="822" y1="92" x2="834" y2="92" stroke="white" stroke-width="2" stroke-linecap="round"/>
</g>
<rect id="D3sellPlaceHolder" x="916" y="74" width="86" height="30" fill="#6BB8FF"/>
<rect id="RectangleDay1BuyBT_6" x="1040" y="23" width="244" height="44" rx="7" fill="#6BB8FF"/>
<path id="Buy:_4" d="M1110.61 55V33.6719H1118.27C1121.02 33.6719 1123.1 34.1748 1124.53 35.1807C1125.96 36.1865 1126.68 37.6465 1126.68 39.5605C1126.68 40.6641 1126.43 41.6064 1125.92 42.3877C1125.41 43.1689 1124.66 43.7451 1123.68 44.1162C1124.79 44.4092 1125.65 44.9561 1126.24 45.7568C1126.84 46.5576 1127.13 47.5342 1127.13 48.6865C1127.13 50.7764 1126.47 52.3486 1125.14 53.4033C1123.82 54.4482 1121.87 54.9805 1119.27 55H1110.61ZM1115.75 45.9326V51.0449H1119.12C1120.05 51.0449 1120.76 50.835 1121.26 50.415C1121.76 49.9854 1122.01 49.3848 1122.01 48.6133C1122.01 46.8359 1121.12 45.9424 1119.36 45.9326H1115.75ZM1115.75 42.5635H1118.43C1119.56 42.5537 1120.36 42.3486 1120.84 41.9482C1121.31 41.5479 1121.55 40.957 1121.55 40.1758C1121.55 39.2773 1121.29 38.6328 1120.78 38.2422C1120.26 37.8418 1119.42 37.6416 1118.27 37.6416H1115.75V42.5635ZM1139.19 53.2861C1138.15 54.624 1136.73 55.293 1134.96 55.293C1133.22 55.293 1131.9 54.79 1131 53.7842C1130.11 52.7686 1129.67 51.3135 1129.67 49.4189V39.1504H1134.61V49.4482C1134.61 50.8057 1135.26 51.4844 1136.58 51.4844C1137.72 51.4844 1138.52 51.0791 1139 50.2686V39.1504H1143.97V55H1139.34L1139.19 53.2861ZM1153.02 48.0859L1155.66 39.1504H1160.94L1154.48 57.6514L1154.21 58.3252C1153.29 60.376 1151.67 61.4014 1149.34 61.4014C1148.7 61.4014 1148.02 61.3037 1147.31 61.1084V57.5781H1147.95C1148.64 57.5781 1149.17 57.4756 1149.53 57.2705C1149.9 57.0752 1150.18 56.7188 1150.35 56.2012L1150.75 55.1465L1145.24 39.1504H1150.51L1153.02 48.0859ZM1165.31 50.21C1166.09 50.21 1166.74 50.4443 1167.26 50.9131C1167.77 51.3721 1168.03 51.9629 1168.03 52.6855C1168.03 53.4082 1167.77 54.0039 1167.26 54.4727C1166.74 54.9316 1166.09 55.1611 1165.31 55.1611C1164.52 55.1611 1163.86 54.9268 1163.35 54.458C1162.84 53.9893 1162.58 53.3984 1162.58 52.6855C1162.58 51.9727 1162.84 51.3818 1163.35 50.9131C1163.86 50.4443 1164.52 50.21 1165.31 50.21ZM1165.31 38.5205C1166.09 38.5205 1166.74 38.7549 1167.26 39.2236C1167.77 39.6826 1168.03 40.2734 1168.03 40.9961C1168.03 41.7188 1167.77 42.3145 1167.26 42.7832C1166.74 43.2422 1166.09 43.4717 1165.31 43.4717C1164.52 43.4717 1163.86 43.2373 1163.35 42.7686C1162.84 42.2998 1162.58 41.709 1162.58 40.9961C1162.58 40.2832 1162.84 39.6924 1163.35 39.2236C1163.86 38.7549 1164.52 38.5205 1165.31 38.5205Z" fill="white"/>
<g id="Group 16_6">
<circle id="Ellipse 3_6" cx="1088" cy="45" r="11" stroke="white" stroke-width="2"/>
<line id="Line 5_6" x1="1082" y1="45" x2="1094" y2="45" stroke="white" stroke-width="2" stroke-linecap="round"/>
<line id="Line 7_4" x1="1088" y1="39" x2="1088" y2="52" stroke="white" stroke-width="2" stroke-linecap="round"/>
</g>
<rect id="D4InputPlaceHolder" x="1176" y="27" width="86" height="30" fill="#6BB8FF"/>
<rect id="RectangleDay1BuyBT_7" x="1040" y="70" width="244" height="44" rx="7" fill="#6BB8FF"/>
<path id="Sell:_3" d="M1121.61 96.3311C1121.61 95.5791 1121.34 94.9932 1120.81 94.5732C1120.28 94.1533 1119.35 93.7188 1118.01 93.2695C1116.67 92.8203 1115.58 92.3857 1114.73 91.9658C1111.96 90.6084 1110.58 88.7432 1110.58 86.3701C1110.58 85.1885 1110.92 84.1484 1111.61 83.25C1112.3 82.3418 1113.28 81.6387 1114.54 81.1406C1115.8 80.6328 1117.21 80.3789 1118.79 80.3789C1120.32 80.3789 1121.69 80.6523 1122.9 81.1992C1124.12 81.7461 1125.07 82.5273 1125.74 83.543C1126.42 84.5488 1126.75 85.7012 1126.75 87H1121.63C1121.63 86.1309 1121.36 85.457 1120.82 84.9785C1120.29 84.5 1119.58 84.2607 1118.67 84.2607C1117.75 84.2607 1117.02 84.4658 1116.49 84.876C1115.96 85.2764 1115.69 85.7891 1115.69 86.4141C1115.69 86.9609 1115.99 87.459 1116.57 87.9082C1117.16 88.3477 1118.19 88.8066 1119.66 89.2852C1121.14 89.7539 1122.35 90.2617 1123.3 90.8086C1125.6 92.1367 1126.75 93.9678 1126.75 96.3018C1126.75 98.167 1126.05 99.6318 1124.64 100.696C1123.24 101.761 1121.31 102.293 1118.86 102.293C1117.13 102.293 1115.56 101.985 1114.16 101.37C1112.76 100.745 1111.71 99.8955 1110.99 98.8213C1110.29 97.7373 1109.94 96.4922 1109.94 95.0859H1115.09C1115.09 96.2285 1115.39 97.0732 1115.97 97.6201C1116.57 98.1572 1117.53 98.4258 1118.86 98.4258C1119.71 98.4258 1120.38 98.2451 1120.87 97.8838C1121.36 97.5127 1121.61 96.9951 1121.61 96.3311ZM1136.83 102.293C1134.4 102.293 1132.43 101.57 1130.93 100.125C1129.42 98.6699 1128.67 96.7803 1128.67 94.4561V94.0459C1128.67 92.4248 1128.97 90.9941 1129.57 89.7539C1130.17 88.5137 1131.05 87.5566 1132.2 86.8828C1133.36 86.1992 1134.72 85.8574 1136.3 85.8574C1138.53 85.8574 1140.29 86.5508 1141.58 87.9375C1142.87 89.3145 1143.51 91.2383 1143.51 93.709V95.6279H1133.7C1133.87 96.5166 1134.26 97.2148 1134.85 97.7227C1135.45 98.2305 1136.22 98.4844 1137.17 98.4844C1138.73 98.4844 1139.95 97.9375 1140.83 96.8438L1143.09 99.5098C1142.47 100.359 1141.6 101.038 1140.46 101.546C1139.34 102.044 1138.13 102.293 1136.83 102.293ZM1136.28 89.666C1134.83 89.666 1133.97 90.623 1133.7 92.5371H1138.68V92.1562C1138.7 91.3652 1138.5 90.7549 1138.08 90.3252C1137.66 89.8857 1137.06 89.666 1136.28 89.666ZM1150.72 102H1145.77V79.5H1150.72V102ZM1158.98 102H1154.03V79.5H1158.98V102ZM1165.1 97.21C1165.88 97.21 1166.53 97.4443 1167.05 97.9131C1167.57 98.3721 1167.83 98.9629 1167.83 99.6855C1167.83 100.408 1167.57 101.004 1167.05 101.473C1166.53 101.932 1165.88 102.161 1165.1 102.161C1164.31 102.161 1163.66 101.927 1163.14 101.458C1162.63 100.989 1162.38 100.398 1162.38 99.6855C1162.38 98.9727 1162.63 98.3818 1163.14 97.9131C1163.66 97.4443 1164.31 97.21 1165.1 97.21ZM1165.1 85.5205C1165.88 85.5205 1166.53 85.7549 1167.05 86.2236C1167.57 86.6826 1167.83 87.2734 1167.83 87.9961C1167.83 88.7188 1167.57 89.3145 1167.05 89.7832C1166.53 90.2422 1165.88 90.4717 1165.1 90.4717C1164.31 90.4717 1163.66 90.2373 1163.14 89.7686C1162.63 89.2998 1162.38 88.709 1162.38 87.9961C1162.38 87.2832 1162.63 86.6924 1163.14 86.2236C1163.66 85.7549 1164.31 85.5205 1165.1 85.5205Z" fill="white"/>
<g id="Group 16_7">
<circle id="Ellipse 3_7" cx="1088" cy="92" r="11" stroke="white" stroke-width="2"/>
<line id="Line 5_7" x1="1082" y1="92" x2="1094" y2="92" stroke="white" stroke-width="2" stroke-linecap="round"/>
</g>
<rect id="D4sellPlaceHolder" x="1176" y="74" width="86" height="30" fill="#6BB8FF"/>
<rect id="cashIconPlaceHolder" x="21" y="80" width="207" height="29" fill="white"/>
<rect id="inMarketIcon" x="21" y="30" width="207" height="19" fill="white"/>
<path id="You have $ in the market" d="M24.8911 21.3979L27.3032 16.7578H28.687L25.5005 22.5532V26H24.2817V22.5532L21.0952 16.7578H22.4917L24.8911 21.3979ZM28.9663 22.5024C28.9663 21.8296 29.0975 21.2244 29.3599 20.687C29.6265 20.1496 29.9946 19.7349 30.4644 19.4429C30.9383 19.1509 31.4779 19.0049 32.083 19.0049C33.0182 19.0049 33.7736 19.3286 34.3491 19.9761C34.9289 20.6235 35.2188 21.4847 35.2188 22.5596V22.6421C35.2188 23.3107 35.0897 23.9116 34.8315 24.4448C34.5776 24.9738 34.2116 25.3864 33.7334 25.6826C33.2594 25.9788 32.7135 26.127 32.0957 26.127C31.1647 26.127 30.4093 25.8032 29.8296 25.1558C29.2541 24.5083 28.9663 23.6514 28.9663 22.585V22.5024ZM30.147 22.6421C30.147 23.4038 30.3226 24.0153 30.6738 24.4766C31.0293 24.9378 31.5033 25.1685 32.0957 25.1685C32.6924 25.1685 33.1663 24.9357 33.5176 24.4702C33.8688 24.0005 34.0444 23.3446 34.0444 22.5024C34.0444 21.7492 33.8646 21.1398 33.5049 20.6743C33.1494 20.2046 32.6755 19.9697 32.083 19.9697C31.5033 19.9697 31.0356 20.2004 30.6802 20.6616C30.3247 21.1229 30.147 21.783 30.147 22.6421ZM40.9316 25.3208C40.4746 25.8582 39.8039 26.127 38.9194 26.127C38.1873 26.127 37.6287 25.9154 37.2437 25.4922C36.8628 25.0648 36.6702 24.4342 36.666 23.6006V19.1318H37.8403V23.5688C37.8403 24.6099 38.2635 25.1304 39.1099 25.1304C40.007 25.1304 40.6037 24.7961 40.8999 24.1274V19.1318H42.0742V26H40.957L40.9316 25.3208ZM48.2632 19.9634C48.7837 19.3244 49.4608 19.0049 50.2944 19.0049C51.7459 19.0049 52.478 19.8237 52.4907 21.4614V26H51.3164V21.4551C51.3122 20.96 51.1979 20.5939 50.9736 20.3569C50.7536 20.12 50.4087 20.0015 49.939 20.0015C49.5581 20.0015 49.2238 20.103 48.936 20.3062C48.6483 20.5093 48.424 20.7759 48.2632 21.106V26H47.0889V16.25H48.2632V19.9634ZM58.4893 26C58.4215 25.8646 58.3665 25.6234 58.3242 25.2764C57.7783 25.8434 57.1266 26.127 56.3691 26.127C55.6921 26.127 55.1356 25.9365 54.6997 25.5557C54.2681 25.1706 54.0522 24.6839 54.0522 24.0957C54.0522 23.3805 54.3231 22.8262 54.8647 22.4326C55.4106 22.0348 56.1766 21.8359 57.1626 21.8359H58.3052V21.2964C58.3052 20.8859 58.1825 20.5601 57.937 20.3188C57.6916 20.0734 57.3298 19.9507 56.8516 19.9507C56.4326 19.9507 56.0814 20.0565 55.7979 20.2681C55.5143 20.4797 55.3726 20.7357 55.3726 21.0361H54.1919C54.1919 20.6934 54.3125 20.3633 54.5537 20.0459C54.7992 19.7243 55.1292 19.4704 55.5439 19.2842C55.9629 19.098 56.422 19.0049 56.9214 19.0049C57.7127 19.0049 58.3327 19.2038 58.7812 19.6016C59.2298 19.9951 59.4626 20.5389 59.4795 21.2329V24.394C59.4795 25.0246 59.5599 25.526 59.7207 25.8984V26H58.4893ZM56.5405 25.105C56.9087 25.105 57.2578 25.0098 57.5879 24.8193C57.918 24.6289 58.1571 24.3813 58.3052 24.0767V22.6675H57.3848C55.946 22.6675 55.2266 23.0885 55.2266 23.9307C55.2266 24.2988 55.3493 24.5866 55.5947 24.7939C55.8402 25.0013 56.1554 25.105 56.5405 25.105ZM63.4849 24.4067L65.186 19.1318H66.3857L63.9229 26H63.0278L60.5396 19.1318H61.7393L63.4849 24.4067ZM70.2769 26.127C69.3459 26.127 68.5884 25.8223 68.0044 25.2129C67.4204 24.5993 67.1284 23.7804 67.1284 22.7563V22.5405C67.1284 21.8592 67.2575 21.252 67.5156 20.7188C67.778 20.1813 68.1419 19.7624 68.6074 19.4619C69.0771 19.1572 69.585 19.0049 70.1309 19.0049C71.0238 19.0049 71.7178 19.299 72.2129 19.8872C72.708 20.4754 72.9556 21.3175 72.9556 22.4136V22.9023H68.3027C68.3197 23.5794 68.5164 24.1274 68.8931 24.5464C69.2739 24.9611 69.7563 25.1685 70.3403 25.1685C70.755 25.1685 71.1063 25.0838 71.394 24.9146C71.6818 24.7453 71.9336 24.521 72.1494 24.2417L72.8667 24.8003C72.2912 25.6847 71.4279 26.127 70.2769 26.127ZM70.1309 19.9697C69.6569 19.9697 69.2591 20.1432 68.9375 20.4902C68.6159 20.833 68.417 21.3154 68.3408 21.9375H71.7812V21.8486C71.7474 21.252 71.5866 20.7907 71.2988 20.4648C71.0111 20.1348 70.6217 19.9697 70.1309 19.9697ZM82.0898 23.6196C82.0898 23.2303 81.9523 22.9023 81.6772 22.6357C81.4064 22.3691 80.9473 22.1279 80.2998 21.9121C79.3984 21.637 78.7404 21.2795 78.3257 20.8394C77.9152 20.395 77.71 19.8322 77.71 19.1509C77.71 18.4569 77.911 17.8877 78.313 17.4434C78.7192 16.999 79.2757 16.7345 79.9824 16.6499V15.2598H80.9282V16.6562C81.6392 16.7536 82.1914 17.0519 82.585 17.5513C82.9827 18.0506 83.1816 18.734 83.1816 19.6016H82.0137C82.0137 19.0049 81.8719 18.5309 81.5884 18.1797C81.3049 17.8285 80.9219 17.6528 80.4395 17.6528C79.9359 17.6528 79.5508 17.784 79.2842 18.0464C79.0176 18.3045 78.8843 18.6663 78.8843 19.1318C78.8843 19.5635 79.0239 19.9084 79.3032 20.1665C79.5868 20.4204 80.0501 20.6532 80.6934 20.8647C81.3408 21.0721 81.8444 21.3027 82.2041 21.5566C82.568 21.8063 82.8346 22.0983 83.0039 22.4326C83.1774 22.7669 83.2642 23.1584 83.2642 23.6069C83.2642 24.3221 83.0483 24.8976 82.6167 25.3335C82.1893 25.7694 81.5884 26.0275 80.814 26.1079V27.3203H79.8745V26.1079C79.0874 26.036 78.4696 25.7567 78.021 25.27C77.5767 24.7791 77.3545 24.1147 77.3545 23.2769H78.5288C78.5288 23.8651 78.6833 24.3179 78.9922 24.6353C79.3011 24.9526 79.7391 25.1113 80.3062 25.1113C80.8605 25.1113 81.2964 24.978 81.6138 24.7114C81.9312 24.4448 82.0898 24.0809 82.0898 23.6196ZM118.367 26H117.192V19.1318H118.367V26ZM117.097 17.3101C117.097 17.1196 117.154 16.9588 117.269 16.8276C117.387 16.6965 117.561 16.6309 117.789 16.6309C118.018 16.6309 118.191 16.6965 118.31 16.8276C118.428 16.9588 118.487 17.1196 118.487 17.3101C118.487 17.5005 118.428 17.6592 118.31 17.7861C118.191 17.9131 118.018 17.9766 117.789 17.9766C117.561 17.9766 117.387 17.9131 117.269 17.7861C117.154 17.6592 117.097 17.5005 117.097 17.3101ZM121.363 19.1318L121.401 19.9951C121.926 19.335 122.611 19.0049 123.458 19.0049C124.909 19.0049 125.641 19.8237 125.654 21.4614V26H124.479V21.4551C124.475 20.96 124.361 20.5939 124.137 20.3569C123.917 20.12 123.572 20.0015 123.102 20.0015C122.721 20.0015 122.387 20.103 122.099 20.3062C121.811 20.5093 121.587 20.7759 121.426 21.106V26H120.252V19.1318H121.363ZM132.243 17.4688V19.1318H133.525V20.0396H132.243V24.2988C132.243 24.5739 132.3 24.7812 132.414 24.9209C132.528 25.0563 132.723 25.124 132.998 25.124C133.133 25.124 133.32 25.0986 133.557 25.0479V26C133.248 26.0846 132.947 26.127 132.655 26.127C132.131 26.127 131.735 25.9683 131.468 25.6509C131.202 25.3335 131.068 24.8828 131.068 24.2988V20.0396H129.818V19.1318H131.068V17.4688H132.243ZM136.077 19.9634C136.597 19.3244 137.274 19.0049 138.108 19.0049C139.559 19.0049 140.292 19.8237 140.304 21.4614V26H139.13V21.4551C139.126 20.96 139.011 20.5939 138.787 20.3569C138.567 20.12 138.222 20.0015 137.752 20.0015C137.372 20.0015 137.037 20.103 136.75 20.3062C136.462 20.5093 136.237 20.7759 136.077 21.106V26H134.902V16.25H136.077V19.9634ZM144.913 26.127C143.982 26.127 143.224 25.8223 142.64 25.2129C142.056 24.5993 141.764 23.7804 141.764 22.7563V22.5405C141.764 21.8592 141.893 21.252 142.151 20.7188C142.414 20.1813 142.778 19.7624 143.243 19.4619C143.713 19.1572 144.221 19.0049 144.767 19.0049C145.66 19.0049 146.354 19.299 146.849 19.8872C147.344 20.4754 147.591 21.3175 147.591 22.4136V22.9023H142.938C142.955 23.5794 143.152 24.1274 143.529 24.5464C143.91 24.9611 144.392 25.1685 144.976 25.1685C145.391 25.1685 145.742 25.0838 146.03 24.9146C146.318 24.7453 146.569 24.521 146.785 24.2417L147.502 24.8003C146.927 25.6847 146.064 26.127 144.913 26.127ZM144.767 19.9697C144.293 19.9697 143.895 20.1432 143.573 20.4902C143.252 20.833 143.053 21.3154 142.977 21.9375H146.417V21.8486C146.383 21.252 146.222 20.7907 145.935 20.4648C145.647 20.1348 145.257 19.9697 144.767 19.9697ZM153.285 19.1318L153.317 19.8936C153.82 19.3011 154.5 19.0049 155.354 19.0049C156.315 19.0049 156.969 19.373 157.316 20.1094C157.544 19.7793 157.841 19.5127 158.205 19.3096C158.573 19.1064 159.007 19.0049 159.506 19.0049C161.012 19.0049 161.778 19.8026 161.804 21.3979V26H160.629V21.4678C160.629 20.9769 160.517 20.6108 160.293 20.3696C160.069 20.1242 159.692 20.0015 159.163 20.0015C158.727 20.0015 158.365 20.1326 158.078 20.395C157.79 20.6532 157.623 21.0023 157.576 21.4424V26H156.396V21.4995C156.396 20.5008 155.907 20.0015 154.929 20.0015C154.159 20.0015 153.632 20.3294 153.349 20.9854V26H152.174V19.1318H153.285ZM167.821 26C167.754 25.8646 167.699 25.6234 167.656 25.2764C167.11 25.8434 166.459 26.127 165.701 26.127C165.024 26.127 164.468 25.9365 164.032 25.5557C163.6 25.1706 163.384 24.6839 163.384 24.0957C163.384 23.3805 163.655 22.8262 164.197 22.4326C164.743 22.0348 165.509 21.8359 166.495 21.8359H167.637V21.2964C167.637 20.8859 167.514 20.5601 167.269 20.3188C167.024 20.0734 166.662 19.9507 166.184 19.9507C165.765 19.9507 165.413 20.0565 165.13 20.2681C164.846 20.4797 164.705 20.7357 164.705 21.0361H163.524C163.524 20.6934 163.645 20.3633 163.886 20.0459C164.131 19.7243 164.461 19.4704 164.876 19.2842C165.295 19.098 165.754 19.0049 166.253 19.0049C167.045 19.0049 167.665 19.2038 168.113 19.6016C168.562 19.9951 168.795 20.5389 168.812 21.2329V24.394C168.812 25.0246 168.892 25.526 169.053 25.8984V26H167.821ZM165.873 25.105C166.241 25.105 166.59 25.0098 166.92 24.8193C167.25 24.6289 167.489 24.3813 167.637 24.0767V22.6675H166.717C165.278 22.6675 164.559 23.0885 164.559 23.9307C164.559 24.2988 164.681 24.5866 164.927 24.7939C165.172 25.0013 165.487 25.105 165.873 25.105ZM173.972 20.1855C173.794 20.1559 173.602 20.1411 173.395 20.1411C172.624 20.1411 172.102 20.4691 171.827 21.125V26H170.652V19.1318H171.795L171.814 19.9253C172.199 19.3117 172.745 19.0049 173.452 19.0049C173.68 19.0049 173.854 19.0345 173.972 19.0938V20.1855ZM176.975 22.8198L176.238 23.5879V26H175.064V16.25H176.238V22.147L176.867 21.3916L179.006 19.1318H180.434L177.762 22.001L180.745 26H179.368L176.975 22.8198ZM184.37 26.127C183.439 26.127 182.681 25.8223 182.097 25.2129C181.513 24.5993 181.221 23.7804 181.221 22.7563V22.5405C181.221 21.8592 181.35 21.252 181.608 20.7188C181.871 20.1813 182.235 19.7624 182.7 19.4619C183.17 19.1572 183.678 19.0049 184.224 19.0049C185.117 19.0049 185.811 19.299 186.306 19.8872C186.801 20.4754 187.048 21.3175 187.048 22.4136V22.9023H182.396C182.412 23.5794 182.609 24.1274 182.986 24.5464C183.367 24.9611 183.849 25.1685 184.433 25.1685C184.848 25.1685 185.199 25.0838 185.487 24.9146C185.775 24.7453 186.026 24.521 186.242 24.2417L186.959 24.8003C186.384 25.6847 185.521 26.127 184.37 26.127ZM184.224 19.9697C183.75 19.9697 183.352 20.1432 183.03 20.4902C182.709 20.833 182.51 21.3154 182.434 21.9375H185.874V21.8486C185.84 21.252 185.679 20.7907 185.392 20.4648C185.104 20.1348 184.715 19.9697 184.224 19.9697ZM190.006 17.4688V19.1318H191.289V20.0396H190.006V24.2988C190.006 24.5739 190.063 24.7812 190.178 24.9209C190.292 25.0563 190.487 25.124 190.762 25.124C190.897 25.124 191.083 25.0986 191.32 25.0479V26C191.011 26.0846 190.711 26.127 190.419 26.127C189.894 26.127 189.499 25.9683 189.232 25.6509C188.965 25.3335 188.832 24.8828 188.832 24.2988V20.0396H187.582V19.1318H188.832V17.4688H190.006Z" fill="black"/>
<path id="and $ virtual cash left available to invest." d="M26.1289 60C26.0612 59.8646 26.0062 59.6234 25.9639 59.2764C25.418 59.8434 24.7663 60.127 24.0088 60.127C23.3317 60.127 22.7752 59.9365 22.3394 59.5557C21.9077 59.1706 21.6919 58.6839 21.6919 58.0957C21.6919 57.3805 21.9627 56.8262 22.5044 56.4326C23.0503 56.0348 23.8162 55.8359 24.8022 55.8359H25.9448V55.2964C25.9448 54.8859 25.8221 54.5601 25.5767 54.3188C25.3312 54.0734 24.9694 53.9507 24.4912 53.9507C24.0723 53.9507 23.721 54.0565 23.4375 54.2681C23.154 54.4797 23.0122 54.7357 23.0122 55.0361H21.8315C21.8315 54.6934 21.9521 54.3633 22.1934 54.0459C22.4388 53.7243 22.7689 53.4704 23.1836 53.2842C23.6025 53.098 24.0617 53.0049 24.561 53.0049C25.3524 53.0049 25.9723 53.2038 26.4209 53.6016C26.8695 53.9951 27.1022 54.5389 27.1191 55.2329V58.394C27.1191 59.0246 27.1995 59.526 27.3604 59.8984V60H26.1289ZM24.1802 59.105C24.5483 59.105 24.8975 59.0098 25.2275 58.8193C25.5576 58.6289 25.7967 58.3813 25.9448 58.0767V56.6675H25.0244C23.5856 56.6675 22.8662 57.0885 22.8662 57.9307C22.8662 58.2988 22.9889 58.5866 23.2344 58.7939C23.4798 59.0013 23.7951 59.105 24.1802 59.105ZM30.0708 53.1318L30.1089 53.9951C30.6336 53.335 31.3192 53.0049 32.1655 53.0049C33.617 53.0049 34.3491 53.8237 34.3618 55.4614V60H33.1875V55.4551C33.1833 54.96 33.069 54.5939 32.8447 54.3569C32.6247 54.12 32.2798 54.0015 31.8101 54.0015C31.4292 54.0015 31.0949 54.103 30.8071 54.3062C30.5194 54.5093 30.2951 54.7759 30.1343 55.106V60H28.96V53.1318H30.0708ZM35.8472 56.5088C35.8472 55.4551 36.0968 54.6087 36.5962 53.9697C37.0955 53.3265 37.7493 53.0049 38.5576 53.0049C39.3617 53.0049 39.9985 53.2799 40.4683 53.8301V50.25H41.6426V60H40.5635L40.5063 59.2637C40.0366 59.8392 39.3828 60.127 38.5449 60.127C37.7493 60.127 37.0998 59.8011 36.5962 59.1494C36.0968 58.4977 35.8472 57.6471 35.8472 56.5977V56.5088ZM37.0215 56.6421C37.0215 57.4207 37.1823 58.0301 37.5039 58.4702C37.8255 58.9103 38.2699 59.1304 38.8369 59.1304C39.5817 59.1304 40.1255 58.7961 40.4683 58.1274V54.9727C40.117 54.3252 39.5775 54.0015 38.8496 54.0015C38.2741 54.0015 37.8255 54.2236 37.5039 54.668C37.1823 55.1123 37.0215 55.7703 37.0215 56.6421ZM54.4648 57.6196C54.4648 57.2303 54.3273 56.9023 54.0522 56.6357C53.7814 56.3691 53.3223 56.1279 52.6748 55.9121C51.7734 55.637 51.1154 55.2795 50.7007 54.8394C50.2902 54.395 50.085 53.8322 50.085 53.1509C50.085 52.4569 50.286 51.8877 50.688 51.4434C51.0942 50.999 51.6507 50.7345 52.3574 50.6499V49.2598H53.3032V50.6562C54.0142 50.7536 54.5664 51.0519 54.96 51.5513C55.3577 52.0506 55.5566 52.734 55.5566 53.6016H54.3887C54.3887 53.0049 54.2469 52.5309 53.9634 52.1797C53.6799 51.8285 53.2969 51.6528 52.8145 51.6528C52.3109 51.6528 51.9258 51.784 51.6592 52.0464C51.3926 52.3045 51.2593 52.6663 51.2593 53.1318C51.2593 53.5635 51.3989 53.9084 51.6782 54.1665C51.9618 54.4204 52.4251 54.6532 53.0684 54.8647C53.7158 55.0721 54.2194 55.3027 54.5791 55.5566C54.943 55.8063 55.2096 56.0983 55.3789 56.4326C55.5524 56.7669 55.6392 57.1584 55.6392 57.6069C55.6392 58.3221 55.4233 58.8976 54.9917 59.3335C54.5643 59.7694 53.9634 60.0275 53.189 60.1079V61.3203H52.2495V60.1079C51.4624 60.036 50.8446 59.7567 50.396 59.27C49.9517 58.7791 49.7295 58.1147 49.7295 57.2769H50.9038C50.9038 57.8651 51.0583 58.3179 51.3672 58.6353C51.6761 58.9526 52.1141 59.1113 52.6812 59.1113C53.2355 59.1113 53.6714 58.978 53.9888 58.7114C54.3062 58.4448 54.4648 58.0809 54.4648 57.6196ZM104.63 58.4067L106.332 53.1318H107.531L105.068 60H104.173L101.685 53.1318H102.885L104.63 58.4067ZM109.937 60H108.763V53.1318H109.937V60ZM108.667 51.3101C108.667 51.1196 108.725 50.9588 108.839 50.8276C108.957 50.6965 109.131 50.6309 109.359 50.6309C109.588 50.6309 109.761 50.6965 109.88 50.8276C109.998 50.9588 110.058 51.1196 110.058 51.3101C110.058 51.5005 109.998 51.6592 109.88 51.7861C109.761 51.9131 109.588 51.9766 109.359 51.9766C109.131 51.9766 108.957 51.9131 108.839 51.7861C108.725 51.6592 108.667 51.5005 108.667 51.3101ZM115.142 54.1855C114.964 54.1559 114.772 54.1411 114.564 54.1411C113.794 54.1411 113.272 54.4691 112.997 55.125V60H111.822V53.1318H112.965L112.984 53.9253C113.369 53.3117 113.915 53.0049 114.622 53.0049C114.85 53.0049 115.024 53.0345 115.142 53.0938V54.1855ZM118.138 51.4688V53.1318H119.42V54.0396H118.138V58.2988C118.138 58.5739 118.195 58.7812 118.31 58.9209C118.424 59.0563 118.618 59.124 118.894 59.124C119.029 59.124 119.215 59.0986 119.452 59.0479V60C119.143 60.0846 118.843 60.127 118.551 60.127C118.026 60.127 117.63 59.9683 117.364 59.6509C117.097 59.3335 116.964 58.8828 116.964 58.2988V54.0396H115.713V53.1318H116.964V51.4688H118.138ZM125.038 59.3208C124.581 59.8582 123.91 60.127 123.026 60.127C122.294 60.127 121.735 59.9154 121.35 59.4922C120.969 59.0648 120.777 58.4342 120.772 57.6006V53.1318H121.947V57.5688C121.947 58.6099 122.37 59.1304 123.216 59.1304C124.113 59.1304 124.71 58.7961 125.006 58.1274V53.1318H126.181V60H125.063L125.038 59.3208ZM132.211 60C132.143 59.8646 132.088 59.6234 132.046 59.2764C131.5 59.8434 130.848 60.127 130.091 60.127C129.414 60.127 128.857 59.9365 128.421 59.5557C127.99 59.1706 127.774 58.6839 127.774 58.0957C127.774 57.3805 128.045 56.8262 128.586 56.4326C129.132 56.0348 129.898 55.8359 130.884 55.8359H132.027V55.2964C132.027 54.8859 131.904 54.5601 131.659 54.3188C131.413 54.0734 131.051 53.9507 130.573 53.9507C130.154 53.9507 129.803 54.0565 129.52 54.2681C129.236 54.4797 129.094 54.7357 129.094 55.0361H127.914C127.914 54.6934 128.034 54.3633 128.275 54.0459C128.521 53.7243 128.851 53.4704 129.266 53.2842C129.685 53.098 130.144 53.0049 130.643 53.0049C131.434 53.0049 132.054 53.2038 132.503 53.6016C132.951 53.9951 133.184 54.5389 133.201 55.2329V58.394C133.201 59.0246 133.282 59.526 133.442 59.8984V60H132.211ZM130.262 59.105C130.63 59.105 130.979 59.0098 131.31 58.8193C131.64 58.6289 131.879 58.3813 132.027 58.0767V56.6675H131.106C129.668 56.6675 128.948 57.0885 128.948 57.9307C128.948 58.2988 129.071 58.5866 129.316 58.7939C129.562 59.0013 129.877 59.105 130.262 59.105ZM136.318 60H135.144V50.25H136.318V60ZM144.183 59.1685C144.602 59.1685 144.968 59.0415 145.281 58.7876C145.594 58.5337 145.767 58.2163 145.801 57.8354H146.912C146.891 58.229 146.756 58.6035 146.506 58.959C146.256 59.3145 145.922 59.598 145.503 59.8096C145.088 60.0212 144.648 60.127 144.183 60.127C143.247 60.127 142.503 59.8159 141.948 59.1938C141.398 58.5675 141.123 57.7127 141.123 56.6294V56.4326C141.123 55.764 141.246 55.1694 141.491 54.6489C141.737 54.1284 142.088 53.7243 142.545 53.4365C143.006 53.1488 143.55 53.0049 144.176 53.0049C144.946 53.0049 145.585 53.2355 146.093 53.6968C146.605 54.158 146.878 54.7568 146.912 55.4932H145.801C145.767 55.0488 145.598 54.6849 145.293 54.4014C144.993 54.1136 144.621 53.9697 144.176 53.9697C143.58 53.9697 143.116 54.1855 142.786 54.6172C142.46 55.0446 142.297 55.6646 142.297 56.4771V56.6992C142.297 57.4906 142.46 58.0999 142.786 58.5273C143.112 58.9548 143.577 59.1685 144.183 59.1685ZM152.473 60C152.405 59.8646 152.35 59.6234 152.308 59.2764C151.762 59.8434 151.11 60.127 150.353 60.127C149.675 60.127 149.119 59.9365 148.683 59.5557C148.251 59.1706 148.036 58.6839 148.036 58.0957C148.036 57.3805 148.306 56.8262 148.848 56.4326C149.394 56.0348 150.16 55.8359 151.146 55.8359H152.289V55.2964C152.289 54.8859 152.166 54.5601 151.92 54.3188C151.675 54.0734 151.313 53.9507 150.835 53.9507C150.416 53.9507 150.065 54.0565 149.781 54.2681C149.498 54.4797 149.356 54.7357 149.356 55.0361H148.175C148.175 54.6934 148.296 54.3633 148.537 54.0459C148.783 53.7243 149.113 53.4704 149.527 53.2842C149.946 53.098 150.405 53.0049 150.905 53.0049C151.696 53.0049 152.316 53.2038 152.765 53.6016C153.213 53.9951 153.446 54.5389 153.463 55.2329V58.394C153.463 59.0246 153.543 59.526 153.704 59.8984V60H152.473ZM150.524 59.105C150.892 59.105 151.241 59.0098 151.571 58.8193C151.901 58.6289 152.14 58.3813 152.289 58.0767V56.6675H151.368C149.929 56.6675 149.21 57.0885 149.21 57.9307C149.21 58.2988 149.333 58.5866 149.578 58.7939C149.824 59.0013 150.139 59.105 150.524 59.105ZM159.303 58.1782C159.303 57.8608 159.182 57.6154 158.941 57.4419C158.704 57.2642 158.287 57.1118 157.69 56.9849C157.098 56.8579 156.626 56.7056 156.275 56.5278C155.928 56.3501 155.67 56.1385 155.5 55.8931C155.335 55.6476 155.253 55.3556 155.253 55.0171C155.253 54.4543 155.49 53.9782 155.964 53.5889C156.442 53.1995 157.051 53.0049 157.792 53.0049C158.571 53.0049 159.201 53.2059 159.684 53.6079C160.17 54.0099 160.414 54.5241 160.414 55.1504H159.233C159.233 54.8288 159.095 54.5516 158.82 54.3188C158.549 54.0861 158.207 53.9697 157.792 53.9697C157.365 53.9697 157.03 54.0628 156.789 54.249C156.548 54.4352 156.427 54.6785 156.427 54.979C156.427 55.2625 156.539 55.4762 156.764 55.6201C156.988 55.764 157.392 55.9015 157.976 56.0327C158.564 56.1639 159.04 56.3205 159.404 56.5024C159.768 56.6844 160.037 56.9045 160.21 57.1626C160.388 57.4165 160.477 57.7275 160.477 58.0957C160.477 58.7093 160.232 59.2023 159.741 59.5747C159.25 59.9429 158.613 60.127 157.83 60.127C157.28 60.127 156.793 60.0296 156.37 59.835C155.947 59.6403 155.615 59.3695 155.374 59.0225C155.137 58.6712 155.018 58.2925 155.018 57.8862H156.192C156.214 58.2798 156.37 58.5929 156.662 58.8257C156.958 59.0542 157.348 59.1685 157.83 59.1685C158.274 59.1685 158.63 59.0796 158.896 58.9019C159.167 58.7199 159.303 58.4787 159.303 58.1782ZM163.181 53.9634C163.702 53.3244 164.379 53.0049 165.212 53.0049C166.664 53.0049 167.396 53.8237 167.409 55.4614V60H166.234V55.4551C166.23 54.96 166.116 54.5939 165.892 54.3569C165.672 54.12 165.327 54.0015 164.857 54.0015C164.476 54.0015 164.142 54.103 163.854 54.3062C163.566 54.5093 163.342 54.7759 163.181 55.106V60H162.007V50.25H163.181V53.9634ZM173.667 60H172.493V50.25H173.667V60ZM178.403 60.127C177.472 60.127 176.714 59.8223 176.13 59.2129C175.546 58.5993 175.254 57.7804 175.254 56.7563V56.5405C175.254 55.8592 175.383 55.252 175.642 54.7188C175.904 54.1813 176.268 53.7624 176.733 53.4619C177.203 53.1572 177.711 53.0049 178.257 53.0049C179.15 53.0049 179.844 53.299 180.339 53.8872C180.834 54.4754 181.082 55.3175 181.082 56.4136V56.9023H176.429C176.446 57.5794 176.642 58.1274 177.019 58.5464C177.4 58.9611 177.882 59.1685 178.466 59.1685C178.881 59.1685 179.232 59.0838 179.52 58.9146C179.808 58.7453 180.06 58.521 180.275 58.2417L180.993 58.8003C180.417 59.6847 179.554 60.127 178.403 60.127ZM178.257 53.9697C177.783 53.9697 177.385 54.1432 177.063 54.4902C176.742 54.833 176.543 55.3154 176.467 55.9375H179.907V55.8486C179.873 55.252 179.713 54.7907 179.425 54.4648C179.137 54.1348 178.748 53.9697 178.257 53.9697ZM183.024 60V54.0396H181.938V53.1318H183.024V52.4272C183.024 51.6909 183.221 51.1217 183.614 50.7197C184.008 50.3177 184.564 50.1167 185.284 50.1167C185.555 50.1167 185.823 50.1527 186.09 50.2246L186.026 51.1768C185.827 51.1387 185.616 51.1196 185.392 51.1196C185.011 51.1196 184.717 51.2318 184.509 51.4561C184.302 51.6761 184.198 51.9935 184.198 52.4082V53.1318H185.665V54.0396H184.198V60H183.024ZM188.559 51.4688V53.1318H189.841V54.0396H188.559V58.2988C188.559 58.5739 188.616 58.7812 188.73 58.9209C188.845 59.0563 189.039 59.124 189.314 59.124C189.45 59.124 189.636 59.0986 189.873 59.0479V60C189.564 60.0846 189.264 60.127 188.972 60.127C188.447 60.127 188.051 59.9683 187.785 59.6509C187.518 59.3335 187.385 58.8828 187.385 58.2988V54.0396H186.134V53.1318H187.385V51.4688H188.559ZM26.1289 75C26.0612 74.8646 26.0062 74.6234 25.9639 74.2764C25.418 74.8434 24.7663 75.127 24.0088 75.127C23.3317 75.127 22.7752 74.9365 22.3394 74.5557C21.9077 74.1706 21.6919 73.6839 21.6919 73.0957C21.6919 72.3805 21.9627 71.8262 22.5044 71.4326C23.0503 71.0348 23.8162 70.8359 24.8022 70.8359H25.9448V70.2964C25.9448 69.8859 25.8221 69.5601 25.5767 69.3188C25.3312 69.0734 24.9694 68.9507 24.4912 68.9507C24.0723 68.9507 23.721 69.0565 23.4375 69.2681C23.154 69.4797 23.0122 69.7357 23.0122 70.0361H21.8315C21.8315 69.6934 21.9521 69.3633 22.1934 69.0459C22.4388 68.7243 22.7689 68.4704 23.1836 68.2842C23.6025 68.098 24.0617 68.0049 24.561 68.0049C25.3524 68.0049 25.9723 68.2038 26.4209 68.6016C26.8695 68.9951 27.1022 69.5389 27.1191 70.2329V73.394C27.1191 74.0246 27.1995 74.526 27.3604 74.8984V75H26.1289ZM24.1802 74.105C24.5483 74.105 24.8975 74.0098 25.2275 73.8193C25.5576 73.6289 25.7967 73.3813 25.9448 73.0767V71.6675H25.0244C23.5856 71.6675 22.8662 72.0885 22.8662 72.9307C22.8662 73.2988 22.9889 73.5866 23.2344 73.7939C23.4798 74.0013 23.7951 74.105 24.1802 74.105ZM31.1245 73.4067L32.8257 68.1318H34.0254L31.5625 75H30.6675L28.1792 68.1318H29.3789L31.1245 73.4067ZM39.2939 75C39.2262 74.8646 39.1712 74.6234 39.1289 74.2764C38.583 74.8434 37.9313 75.127 37.1738 75.127C36.4967 75.127 35.9403 74.9365 35.5044 74.5557C35.0728 74.1706 34.8569 73.6839 34.8569 73.0957C34.8569 72.3805 35.1278 71.8262 35.6694 71.4326C36.2153 71.0348 36.9813 70.8359 37.9673 70.8359H39.1099V70.2964C39.1099 69.8859 38.9871 69.5601 38.7417 69.3188C38.4963 69.0734 38.1344 68.9507 37.6562 68.9507C37.2373 68.9507 36.8861 69.0565 36.6025 69.2681C36.319 69.4797 36.1772 69.7357 36.1772 70.0361H34.9966C34.9966 69.6934 35.1172 69.3633 35.3584 69.0459C35.6038 68.7243 35.9339 68.4704 36.3486 68.2842C36.7676 68.098 37.2267 68.0049 37.7261 68.0049C38.5174 68.0049 39.1374 68.2038 39.5859 68.6016C40.0345 68.9951 40.2673 69.5389 40.2842 70.2329V73.394C40.2842 74.0246 40.3646 74.526 40.5254 74.8984V75H39.2939ZM37.3452 74.105C37.7134 74.105 38.0625 74.0098 38.3926 73.8193C38.7227 73.6289 38.9618 73.3813 39.1099 73.0767V71.6675H38.1895C36.7507 71.6675 36.0312 72.0885 36.0312 72.9307C36.0312 73.2988 36.154 73.5866 36.3994 73.7939C36.6449 74.0013 36.9601 74.105 37.3452 74.105ZM43.4009 75H42.2266V68.1318H43.4009V75ZM42.1313 66.3101C42.1313 66.1196 42.1885 65.9588 42.3027 65.8276C42.4212 65.6965 42.5947 65.6309 42.8232 65.6309C43.0518 65.6309 43.2253 65.6965 43.3438 65.8276C43.4622 65.9588 43.5215 66.1196 43.5215 66.3101C43.5215 66.5005 43.4622 66.6592 43.3438 66.7861C43.2253 66.9131 43.0518 66.9766 42.8232 66.9766C42.5947 66.9766 42.4212 66.9131 42.3027 66.7861C42.1885 66.6592 42.1313 66.5005 42.1313 66.3101ZM46.562 75H45.3877V65.25H46.562V75ZM52.6875 75C52.6198 74.8646 52.5648 74.6234 52.5225 74.2764C51.9766 74.8434 51.3249 75.127 50.5674 75.127C49.8903 75.127 49.3338 74.9365 48.8979 74.5557C48.4663 74.1706 48.2505 73.6839 48.2505 73.0957C48.2505 72.3805 48.5213 71.8262 49.063 71.4326C49.6089 71.0348 50.3748 70.8359 51.3608 70.8359H52.5034V70.2964C52.5034 69.8859 52.3807 69.5601 52.1353 69.3188C51.8898 69.0734 51.528 68.9507 51.0498 68.9507C50.6309 68.9507 50.2796 69.0565 49.9961 69.2681C49.7126 69.4797 49.5708 69.7357 49.5708 70.0361H48.3901C48.3901 69.6934 48.5107 69.3633 48.752 69.0459C48.9974 68.7243 49.3275 68.4704 49.7422 68.2842C50.1611 68.098 50.6203 68.0049 51.1196 68.0049C51.911 68.0049 52.5309 68.2038 52.9795 68.6016C53.4281 68.9951 53.6608 69.5389 53.6777 70.2329V73.394C53.6777 74.0246 53.7581 74.526 53.9189 74.8984V75H52.6875ZM50.7388 74.105C51.1069 74.105 51.4561 74.0098 51.7861 73.8193C52.1162 73.6289 52.3553 73.3813 52.5034 73.0767V71.6675H51.583C50.1442 71.6675 49.4248 72.0885 49.4248 72.9307C49.4248 73.2988 49.5475 73.5866 49.793 73.7939C50.0384 74.0013 50.3537 74.105 50.7388 74.105ZM61.333 71.6421C61.333 72.6916 61.0918 73.5358 60.6094 74.1748C60.127 74.8096 59.4795 75.127 58.667 75.127C57.7995 75.127 57.1287 74.8201 56.6548 74.2065L56.5977 75H55.5186V65.25H56.6929V68.8872C57.1668 68.299 57.8206 68.0049 58.6543 68.0049C59.488 68.0049 60.1418 68.3201 60.6157 68.9507C61.0939 69.5812 61.333 70.4445 61.333 71.5405V71.6421ZM60.1587 71.5088C60.1587 70.709 60.0042 70.0911 59.6953 69.6553C59.3864 69.2194 58.9421 69.0015 58.3623 69.0015C57.5879 69.0015 57.0314 69.3612 56.6929 70.0806V73.0513C57.0526 73.7707 57.6133 74.1304 58.375 74.1304C58.9378 74.1304 59.3758 73.9124 59.689 73.4766C60.0021 73.0407 60.1587 72.3848 60.1587 71.5088ZM64.0942 75H62.9199V65.25H64.0942V75ZM68.8296 75.127C67.8986 75.127 67.1411 74.8223 66.5571 74.2129C65.9731 73.5993 65.6812 72.7804 65.6812 71.7563V71.5405C65.6812 70.8592 65.8102 70.252 66.0684 69.7188C66.3307 69.1813 66.6947 68.7624 67.1602 68.4619C67.6299 68.1572 68.1377 68.0049 68.6836 68.0049C69.5765 68.0049 70.2705 68.299 70.7656 68.8872C71.2607 69.4754 71.5083 70.3175 71.5083 71.4136V71.9023H66.8555C66.8724 72.5794 67.0692 73.1274 67.4458 73.5464C67.8267 73.9611 68.3091 74.1685 68.8931 74.1685C69.3078 74.1685 69.659 74.0838 69.9468 73.9146C70.2345 73.7453 70.4863 73.521 70.7021 73.2417L71.4194 73.8003C70.8439 74.6847 69.9806 75.127 68.8296 75.127ZM68.6836 68.9697C68.2096 68.9697 67.8118 69.1432 67.4902 69.4902C67.1686 69.833 66.9697 70.3154 66.8936 70.9375H70.334V70.8486C70.3001 70.252 70.1393 69.7907 69.8516 69.4648C69.5638 69.1348 69.1745 68.9697 68.6836 68.9697ZM77.6909 66.4688V68.1318H78.9731V69.0396H77.6909V73.2988C77.6909 73.5739 77.748 73.7812 77.8623 73.9209C77.9766 74.0563 78.1712 74.124 78.4463 74.124C78.5817 74.124 78.7679 74.0986 79.0049 74.0479V75C78.696 75.0846 78.3955 75.127 78.1035 75.127C77.5788 75.127 77.1831 74.9683 76.9165 74.6509C76.6499 74.3335 76.5166 73.8828 76.5166 73.2988V69.0396H75.2661V68.1318H76.5166V66.4688H77.6909ZM79.9126 71.5024C79.9126 70.8296 80.0438 70.2244 80.3062 69.687C80.5728 69.1496 80.9409 68.7349 81.4106 68.4429C81.8846 68.1509 82.4242 68.0049 83.0293 68.0049C83.9645 68.0049 84.7199 68.3286 85.2954 68.9761C85.8752 69.6235 86.165 70.4847 86.165 71.5596V71.6421C86.165 72.3107 86.036 72.9116 85.7778 73.4448C85.5239 73.9738 85.1579 74.3864 84.6797 74.6826C84.2057 74.9788 83.6598 75.127 83.042 75.127C82.111 75.127 81.3556 74.8032 80.7759 74.1558C80.2004 73.5083 79.9126 72.6514 79.9126 71.585V71.5024ZM81.0933 71.6421C81.0933 72.4038 81.2689 73.0153 81.6201 73.4766C81.9756 73.9378 82.4495 74.1685 83.042 74.1685C83.6387 74.1685 84.1126 73.9357 84.4639 73.4702C84.8151 73.0005 84.9907 72.3446 84.9907 71.5024C84.9907 70.7492 84.8109 70.1398 84.4512 69.6743C84.0957 69.2046 83.6217 68.9697 83.0293 68.9697C82.4495 68.9697 81.9819 69.2004 81.6265 69.6616C81.271 70.1229 81.0933 70.783 81.0933 71.6421ZM92.1382 75H90.9639V68.1318H92.1382V75ZM90.8687 66.3101C90.8687 66.1196 90.9258 65.9588 91.04 65.8276C91.1585 65.6965 91.332 65.6309 91.5605 65.6309C91.7891 65.6309 91.9626 65.6965 92.0811 65.8276C92.1995 65.9588 92.2588 66.1196 92.2588 66.3101C92.2588 66.5005 92.1995 66.6592 92.0811 66.7861C91.9626 66.9131 91.7891 66.9766 91.5605 66.9766C91.332 66.9766 91.1585 66.9131 91.04 66.7861C90.9258 66.6592 90.8687 66.5005 90.8687 66.3101ZM95.1343 68.1318L95.1724 68.9951C95.6971 68.335 96.3826 68.0049 97.229 68.0049C98.6805 68.0049 99.4126 68.8237 99.4253 70.4614V75H98.251V70.4551C98.2467 69.96 98.1325 69.5939 97.9082 69.3569C97.6882 69.12 97.3433 69.0015 96.8735 69.0015C96.4927 69.0015 96.1584 69.103 95.8706 69.3062C95.5828 69.5093 95.3586 69.7759 95.1978 70.106V75H94.0234V68.1318H95.1343ZM103.462 73.4067L105.164 68.1318H106.363L103.9 75H103.005L100.517 68.1318H101.717L103.462 73.4067ZM110.254 75.127C109.323 75.127 108.566 74.8223 107.982 74.2129C107.398 73.5993 107.106 72.7804 107.106 71.7563V71.5405C107.106 70.8592 107.235 70.252 107.493 69.7188C107.756 69.1813 108.119 68.7624 108.585 68.4619C109.055 68.1572 109.562 68.0049 110.108 68.0049C111.001 68.0049 111.695 68.299 112.19 68.8872C112.686 69.4754 112.933 70.3175 112.933 71.4136V71.9023H108.28C108.297 72.5794 108.494 73.1274 108.871 73.5464C109.251 73.9611 109.734 74.1685 110.318 74.1685C110.733 74.1685 111.084 74.0838 111.372 73.9146C111.659 73.7453 111.911 73.521 112.127 73.2417L112.844 73.8003C112.269 74.6847 111.405 75.127 110.254 75.127ZM110.108 68.9697C109.634 68.9697 109.237 69.1432 108.915 69.4902C108.593 69.833 108.395 70.3154 108.318 70.9375H111.759V70.8486C111.725 70.252 111.564 69.7907 111.276 69.4648C110.989 69.1348 110.599 68.9697 110.108 68.9697ZM118.297 73.1782C118.297 72.8608 118.176 72.6154 117.935 72.4419C117.698 72.2642 117.281 72.1118 116.685 71.9849C116.092 71.8579 115.62 71.7056 115.269 71.5278C114.922 71.3501 114.664 71.1385 114.495 70.8931C114.33 70.6476 114.247 70.3556 114.247 70.0171C114.247 69.4543 114.484 68.9782 114.958 68.5889C115.436 68.1995 116.046 68.0049 116.786 68.0049C117.565 68.0049 118.195 68.2059 118.678 68.6079C119.164 69.0099 119.408 69.5241 119.408 70.1504H118.227C118.227 69.8288 118.09 69.5516 117.814 69.3188C117.544 69.0861 117.201 68.9697 116.786 68.9697C116.359 68.9697 116.024 69.0628 115.783 69.249C115.542 69.4352 115.421 69.6785 115.421 69.979C115.421 70.2625 115.534 70.4762 115.758 70.6201C115.982 70.764 116.386 70.9015 116.97 71.0327C117.558 71.1639 118.035 71.3205 118.398 71.5024C118.762 71.6844 119.031 71.9045 119.205 72.1626C119.382 72.4165 119.471 72.7275 119.471 73.0957C119.471 73.7093 119.226 74.2023 118.735 74.5747C118.244 74.9429 117.607 75.127 116.824 75.127C116.274 75.127 115.787 75.0296 115.364 74.835C114.941 74.6403 114.609 74.3695 114.368 74.0225C114.131 73.6712 114.012 73.2925 114.012 72.8862H115.187C115.208 73.2798 115.364 73.5929 115.656 73.8257C115.952 74.0542 116.342 74.1685 116.824 74.1685C117.269 74.1685 117.624 74.0796 117.891 73.9019C118.161 73.7199 118.297 73.4787 118.297 73.1782ZM122.594 66.4688V68.1318H123.876V69.0396H122.594V73.2988C122.594 73.5739 122.651 73.7812 122.766 73.9209C122.88 74.0563 123.075 74.124 123.35 74.124C123.485 74.124 123.671 74.0986 123.908 74.0479V75C123.599 75.0846 123.299 75.127 123.007 75.127C122.482 75.127 122.086 74.9683 121.82 74.6509C121.553 74.3335 121.42 73.8828 121.42 73.2988V69.0396H120.169V68.1318H121.42V66.4688H122.594ZM125.279 74.3843C125.279 74.1812 125.339 74.0119 125.457 73.8765C125.58 73.741 125.762 73.6733 126.003 73.6733C126.244 73.6733 126.426 73.741 126.549 73.8765C126.676 74.0119 126.739 74.1812 126.739 74.3843C126.739 74.5789 126.676 74.7419 126.549 74.873C126.426 75.0042 126.244 75.0698 126.003 75.0698C125.762 75.0698 125.58 75.0042 125.457 74.873C125.339 74.7419 125.279 74.5789 125.279 74.3843Z" fill="black"/>
<rect id="cash" x="59" y="48" width="36" height="16" fill="white"/>
<rect id="inMarket" x="85" y="13" width="22" height="16" fill="white"/>
</g>
</svg>
