<svg width="245" height="292" viewBox="0 0 245 292" fill="none" xmlns="http://www.w3.org/2000/svg">
<g id="contrats">
<rect id="Rectangle 19" x="1.5" y="1.5" width="242" height="289" fill="white" stroke="#53C874" stroke-width="3"/>
<path id="Congrats! With $ earned in the market, you have $ in total." d="M40.3203 52.667C40.2793 53.5576 40.0391 54.3457 39.5996 55.0312C39.1602 55.7109 38.542 56.2383 37.7451 56.6133C36.9541 56.9883 36.0488 57.1758 35.0293 57.1758C33.3477 57.1758 32.0234 56.6279 31.0566 55.5322C30.0898 54.4365 29.6064 52.8896 29.6064 50.8916V50.2588C29.6064 49.0049 29.8232 47.9092 30.2568 46.9717C30.6963 46.0283 31.3262 45.3018 32.1465 44.792C32.9668 44.2764 33.916 44.0186 34.9941 44.0186C36.5469 44.0186 37.7949 44.4287 38.7383 45.249C39.6816 46.0635 40.2178 47.1885 40.3467 48.624H37.2705C37.2471 47.8447 37.0508 47.2852 36.6816 46.9453C36.3125 46.6055 35.75 46.4355 34.9941 46.4355C34.2266 46.4355 33.6641 46.7227 33.3066 47.2969C32.9492 47.8711 32.7617 48.7881 32.7441 50.0479V50.9531C32.7441 52.3184 32.9141 53.2939 33.2539 53.8799C33.5996 54.4658 34.1914 54.7588 35.0293 54.7588C35.7383 54.7588 36.2803 54.5918 36.6553 54.2578C37.0303 53.9238 37.2295 53.3936 37.2529 52.667H40.3203ZM41.2695 52.1572C41.2695 51.208 41.4541 50.3643 41.8232 49.626C42.1924 48.8818 42.7227 48.3105 43.4141 47.9121C44.1055 47.5137 44.917 47.3145 45.8486 47.3145C47.2725 47.3145 48.3945 47.7568 49.2148 48.6416C50.0352 49.5205 50.4453 50.7188 50.4453 52.2363V52.3418C50.4453 53.8242 50.0322 55.002 49.2061 55.875C48.3857 56.7422 47.2725 57.1758 45.8662 57.1758C44.5127 57.1758 43.4258 56.7715 42.6055 55.9629C41.7852 55.1484 41.3428 54.0469 41.2783 52.6582L41.2695 52.1572ZM44.2314 52.3418C44.2314 53.2207 44.3691 53.8652 44.6445 54.2754C44.9199 54.6855 45.3271 54.8906 45.8662 54.8906C46.9209 54.8906 47.46 54.0791 47.4834 52.4561V52.1572C47.4834 50.4521 46.9385 49.5996 45.8486 49.5996C44.8584 49.5996 44.3223 50.335 44.2402 51.8057L44.2314 52.3418ZM54.4707 47.4902L54.5674 48.6064C55.2236 47.7451 56.1289 47.3145 57.2832 47.3145C58.2734 47.3145 59.0117 47.6104 59.498 48.2021C59.9902 48.7939 60.2451 49.6846 60.2627 50.874V57H57.292V50.9971C57.292 50.5166 57.1953 50.165 57.002 49.9424C56.8086 49.7139 56.457 49.5996 55.9473 49.5996C55.3672 49.5996 54.9365 49.8281 54.6553 50.2852V57H51.6934V47.4902H54.4707ZM61.5635 52.1748C61.5635 51.2139 61.7217 50.3643 62.0381 49.626C62.3545 48.8877 62.8086 48.3193 63.4004 47.9209C63.9922 47.5166 64.6807 47.3145 65.4658 47.3145C66.4561 47.3145 67.2295 47.6484 67.7861 48.3164L67.8916 47.4902H70.5811V56.6396C70.5811 57.4775 70.3848 58.2041 69.9922 58.8193C69.6055 59.4404 69.043 59.915 68.3047 60.2432C67.5664 60.5771 66.7109 60.7441 65.7383 60.7441C65.041 60.7441 64.3643 60.6123 63.708 60.3486C63.0576 60.085 62.5596 59.7422 62.2139 59.3203L63.4531 57.5801C64.0039 58.2305 64.7305 58.5557 65.6328 58.5557C66.9453 58.5557 67.6016 57.8818 67.6016 56.5342V56.2354C67.0332 56.8623 66.3154 57.1758 65.4482 57.1758C64.2881 57.1758 63.3506 56.7334 62.6357 55.8486C61.9209 54.958 61.5635 53.7686 61.5635 52.2803V52.1748ZM64.5342 52.3594C64.5342 53.1387 64.6807 53.7568 64.9736 54.2139C65.2666 54.665 65.6768 54.8906 66.2041 54.8906C66.8428 54.8906 67.3086 54.6768 67.6016 54.249V50.25C67.3145 49.8164 66.8545 49.5996 66.2217 49.5996C65.6943 49.5996 65.2812 49.8369 64.9824 50.3115C64.6836 50.7803 64.5342 51.4629 64.5342 52.3594ZM78.0166 50.1709L77.041 50.1006C76.1094 50.1006 75.5117 50.3936 75.248 50.9795V57H72.2861V47.4902H75.0635L75.1602 48.7119C75.6582 47.7803 76.3525 47.3145 77.2432 47.3145C77.5596 47.3145 77.835 47.3496 78.0693 47.4199L78.0166 50.1709ZM84.1777 57C84.0723 56.8066 83.9785 56.5225 83.8965 56.1475C83.3516 56.833 82.5898 57.1758 81.6113 57.1758C80.7148 57.1758 79.9531 56.9062 79.3262 56.3672C78.6992 55.8223 78.3857 55.1396 78.3857 54.3193C78.3857 53.2881 78.7666 52.5088 79.5283 51.9814C80.29 51.4541 81.3975 51.1904 82.8506 51.1904H83.7646V50.6895C83.7646 49.8164 83.3867 49.3799 82.6309 49.3799C81.9277 49.3799 81.5762 49.7256 81.5762 50.417H78.6143C78.6143 49.4971 79.0039 48.75 79.7832 48.1758C80.5684 47.6016 81.5674 47.3145 82.7803 47.3145C83.9932 47.3145 84.9512 47.6104 85.6543 48.2021C86.3574 48.7939 86.7178 49.6055 86.7354 50.6367V54.8467C86.7471 55.7197 86.8818 56.3877 87.1396 56.8506V57H84.1777ZM82.3232 55.0664C82.6924 55.0664 82.9971 54.9873 83.2373 54.8291C83.4834 54.6709 83.6592 54.4922 83.7646 54.293V52.7725H82.9033C81.8721 52.7725 81.3564 53.2354 81.3564 54.1611C81.3564 54.4307 81.4473 54.6504 81.6289 54.8203C81.8105 54.9844 82.042 55.0664 82.3232 55.0664ZM91.833 45.126V47.4902H93.3975V49.5469H91.833V53.8975C91.833 54.2549 91.8975 54.5039 92.0264 54.6445C92.1553 54.7852 92.4102 54.8555 92.791 54.8555C93.084 54.8555 93.3301 54.8379 93.5293 54.8027V56.9209C92.9961 57.0908 92.4395 57.1758 91.8594 57.1758C90.8398 57.1758 90.0869 56.9355 89.6006 56.4551C89.1143 55.9746 88.8711 55.2451 88.8711 54.2666V49.5469H87.6582V47.4902H88.8711V45.126H91.833ZM99.5498 54.3281C99.5498 54.0762 99.418 53.874 99.1543 53.7217C98.8906 53.5693 98.3896 53.4111 97.6514 53.2471C96.9131 53.083 96.3037 52.8691 95.8232 52.6055C95.3428 52.3359 94.9766 52.0107 94.7246 51.6299C94.4727 51.249 94.3467 50.8125 94.3467 50.3203C94.3467 49.4473 94.707 48.7295 95.4277 48.167C96.1484 47.5986 97.0918 47.3145 98.2578 47.3145C99.5117 47.3145 100.52 47.5986 101.281 48.167C102.043 48.7354 102.424 49.4824 102.424 50.4082H99.4531C99.4531 49.6465 99.0518 49.2656 98.249 49.2656C97.9385 49.2656 97.6777 49.3535 97.4668 49.5293C97.2559 49.6992 97.1504 49.9131 97.1504 50.1709C97.1504 50.4346 97.2793 50.6484 97.5371 50.8125C97.7949 50.9766 98.2051 51.1113 98.7676 51.2168C99.3359 51.3223 99.834 51.4482 100.262 51.5947C101.691 52.0869 102.406 52.9688 102.406 54.2402C102.406 55.1074 102.02 55.8135 101.246 56.3584C100.479 56.9033 99.4824 57.1758 98.2578 57.1758C97.4434 57.1758 96.7168 57.0293 96.0781 56.7363C95.4395 56.4434 94.9414 56.0449 94.584 55.541C94.2266 55.0371 94.0479 54.5068 94.0479 53.9502H96.8164C96.8281 54.3896 96.9746 54.7119 97.2559 54.917C97.5371 55.1162 97.8975 55.2158 98.3369 55.2158C98.7412 55.2158 99.043 55.1338 99.2422 54.9697C99.4473 54.8057 99.5498 54.5918 99.5498 54.3281ZM106.739 52.9482H104.34L103.962 44.2031H107.117L106.739 52.9482ZM103.874 55.6729C103.874 55.2393 104.029 54.8848 104.34 54.6094C104.656 54.3281 105.049 54.1875 105.518 54.1875C105.986 54.1875 106.376 54.3281 106.687 54.6094C107.003 54.8848 107.161 55.2393 107.161 55.6729C107.161 56.1064 107.003 56.4639 106.687 56.7451C106.376 57.0205 105.986 57.1582 105.518 57.1582C105.049 57.1582 104.656 57.0205 104.34 56.7451C104.029 56.4639 103.874 56.1064 103.874 55.6729ZM33.2451 94.9658L33.4912 96.6533L33.8516 95.1328L36.3828 86.2031H37.8066L40.2764 95.1328L40.6279 96.6797L40.9004 94.957L42.8867 86.2031H44.583L41.4805 99H39.9424L37.3057 89.6748L37.1035 88.6992L36.9014 89.6748L34.168 99H32.6299L29.5361 86.2031H31.2236L33.2451 94.9658ZM47.9756 99H46.3496V89.4902H47.9756V99ZM46.2178 86.9678C46.2178 86.7041 46.2969 86.4814 46.4551 86.2998C46.6191 86.1182 46.8594 86.0273 47.1758 86.0273C47.4922 86.0273 47.7324 86.1182 47.8965 86.2998C48.0605 86.4814 48.1426 86.7041 48.1426 86.9678C48.1426 87.2314 48.0605 87.4512 47.8965 87.627C47.7324 87.8027 47.4922 87.8906 47.1758 87.8906C46.8594 87.8906 46.6191 87.8027 46.4551 87.627C46.2969 87.4512 46.2178 87.2314 46.2178 86.9678ZM52.792 87.1875V89.4902H54.5674V90.7471H52.792V96.6445C52.792 97.0254 52.8711 97.3125 53.0293 97.5059C53.1875 97.6934 53.457 97.7871 53.8379 97.7871C54.0254 97.7871 54.2832 97.752 54.6113 97.6816V99C54.1836 99.1172 53.7676 99.1758 53.3633 99.1758C52.6367 99.1758 52.0889 98.9561 51.7197 98.5166C51.3506 98.0771 51.166 97.4531 51.166 96.6445V90.7471H49.4346V89.4902H51.166V87.1875H52.792ZM58.1006 90.6416C58.8213 89.7568 59.7588 89.3145 60.9131 89.3145C62.9229 89.3145 63.9365 90.4482 63.9541 92.7158V99H62.3281V92.707C62.3223 92.0215 62.1641 91.5146 61.8535 91.1865C61.5488 90.8584 61.0713 90.6943 60.4209 90.6943C59.8936 90.6943 59.4307 90.835 59.0322 91.1162C58.6338 91.3975 58.3232 91.7666 58.1006 92.2236V99H56.4746V85.5H58.1006V90.6416ZM77.1465 95.7041C77.1465 95.165 76.9561 94.7109 76.5752 94.3418C76.2002 93.9727 75.5645 93.6387 74.668 93.3398C73.4199 92.959 72.5088 92.4639 71.9346 91.8545C71.3662 91.2393 71.082 90.46 71.082 89.5166C71.082 88.5557 71.3604 87.7676 71.917 87.1523C72.4795 86.5371 73.25 86.1709 74.2285 86.0537V84.1289H75.5381V86.0625C76.5225 86.1973 77.2871 86.6104 77.832 87.3018C78.3828 87.9932 78.6582 88.9395 78.6582 90.1406H77.041C77.041 89.3145 76.8447 88.6582 76.4521 88.1719C76.0596 87.6855 75.5293 87.4424 74.8613 87.4424C74.1641 87.4424 73.6309 87.624 73.2617 87.9873C72.8926 88.3447 72.708 88.8457 72.708 89.4902C72.708 90.0879 72.9014 90.5654 73.2881 90.9229C73.6807 91.2744 74.3223 91.5967 75.2129 91.8896C76.1094 92.1768 76.8066 92.4961 77.3047 92.8477C77.8086 93.1934 78.1777 93.5977 78.4121 94.0605C78.6523 94.5234 78.7725 95.0654 78.7725 95.6865C78.7725 96.6768 78.4736 97.4736 77.876 98.0771C77.2842 98.6807 76.4521 99.0381 75.3799 99.1494V100.828H74.0791V99.1494C72.9893 99.0498 72.1338 98.6631 71.5127 97.9893C70.8975 97.3096 70.5898 96.3896 70.5898 95.2295H72.2158C72.2158 96.0439 72.4297 96.6709 72.8574 97.1104C73.2852 97.5498 73.8916 97.7695 74.6768 97.7695C75.4443 97.7695 76.0479 97.585 76.4873 97.2158C76.9268 96.8467 77.1465 96.3428 77.1465 95.7041ZM125.091 99.1758C123.802 99.1758 122.753 98.7539 121.944 97.9102C121.136 97.0605 120.731 95.9268 120.731 94.5088V94.21C120.731 93.2666 120.91 92.4258 121.268 91.6875C121.631 90.9434 122.135 90.3633 122.779 89.9473C123.43 89.5254 124.133 89.3145 124.889 89.3145C126.125 89.3145 127.086 89.7217 127.771 90.5361C128.457 91.3506 128.8 92.5166 128.8 94.0342V94.7109H122.357C122.381 95.6484 122.653 96.4072 123.175 96.9873C123.702 97.5615 124.37 97.8486 125.179 97.8486C125.753 97.8486 126.239 97.7314 126.638 97.4971C127.036 97.2627 127.385 96.9521 127.684 96.5654L128.677 97.3389C127.88 98.5635 126.685 99.1758 125.091 99.1758ZM124.889 90.6504C124.232 90.6504 123.682 90.8906 123.236 91.3711C122.791 91.8457 122.516 92.5137 122.41 93.375H127.174V93.252C127.127 92.4258 126.904 91.7871 126.506 91.3359C126.107 90.8789 125.568 90.6504 124.889 90.6504ZM136.561 99C136.467 98.8125 136.391 98.4785 136.332 97.998C135.576 98.7832 134.674 99.1758 133.625 99.1758C132.688 99.1758 131.917 98.9121 131.313 98.3848C130.716 97.8516 130.417 97.1777 130.417 96.3633C130.417 95.373 130.792 94.6055 131.542 94.0605C132.298 93.5098 133.358 93.2344 134.724 93.2344H136.306V92.4873C136.306 91.9189 136.136 91.4678 135.796 91.1338C135.456 90.7939 134.955 90.624 134.293 90.624C133.713 90.624 133.227 90.7705 132.834 91.0635C132.441 91.3564 132.245 91.7109 132.245 92.127H130.61C130.61 91.6523 130.777 91.1953 131.111 90.7559C131.451 90.3105 131.908 89.959 132.482 89.7012C133.062 89.4434 133.698 89.3145 134.39 89.3145C135.485 89.3145 136.344 89.5898 136.965 90.1406C137.586 90.6855 137.908 91.4385 137.932 92.3994V96.7764C137.932 97.6494 138.043 98.3438 138.266 98.8594V99H136.561ZM133.862 97.7607C134.372 97.7607 134.855 97.6289 135.312 97.3652C135.77 97.1016 136.101 96.7588 136.306 96.3369V94.3857H135.031C133.039 94.3857 132.043 94.9688 132.043 96.1348C132.043 96.6445 132.213 97.043 132.553 97.3301C132.893 97.6172 133.329 97.7607 133.862 97.7607ZM145.077 90.9492C144.831 90.9082 144.564 90.8877 144.277 90.8877C143.211 90.8877 142.487 91.3418 142.106 92.25V99H140.48V89.4902H142.062L142.089 90.5889C142.622 89.7393 143.378 89.3145 144.356 89.3145C144.673 89.3145 144.913 89.3555 145.077 89.4375V90.9492ZM148.118 89.4902L148.171 90.6855C148.897 89.7715 149.847 89.3145 151.019 89.3145C153.028 89.3145 154.042 90.4482 154.06 92.7158V99H152.434V92.707C152.428 92.0215 152.27 91.5146 151.959 91.1865C151.654 90.8584 151.177 90.6943 150.526 90.6943C149.999 90.6943 149.536 90.835 149.138 91.1162C148.739 91.3975 148.429 91.7666 148.206 92.2236V99H146.58V89.4902H148.118ZM160.458 99.1758C159.169 99.1758 158.12 98.7539 157.312 97.9102C156.503 97.0605 156.099 95.9268 156.099 94.5088V94.21C156.099 93.2666 156.277 92.4258 156.635 91.6875C156.998 90.9434 157.502 90.3633 158.146 89.9473C158.797 89.5254 159.5 89.3145 160.256 89.3145C161.492 89.3145 162.453 89.7217 163.139 90.5361C163.824 91.3506 164.167 92.5166 164.167 94.0342V94.7109H157.725C157.748 95.6484 158.021 96.4072 158.542 96.9873C159.069 97.5615 159.737 97.8486 160.546 97.8486C161.12 97.8486 161.606 97.7314 162.005 97.4971C162.403 97.2627 162.752 96.9521 163.051 96.5654L164.044 97.3389C163.247 98.5635 162.052 99.1758 160.458 99.1758ZM160.256 90.6504C159.6 90.6504 159.049 90.8906 158.604 91.3711C158.158 91.8457 157.883 92.5137 157.777 93.375H162.541V93.252C162.494 92.4258 162.271 91.7871 161.873 91.3359C161.475 90.8789 160.936 90.6504 160.256 90.6504ZM165.661 94.166C165.661 92.707 166.007 91.5352 166.698 90.6504C167.39 89.7598 168.295 89.3145 169.414 89.3145C170.527 89.3145 171.409 89.6953 172.06 90.457V85.5H173.686V99H172.191L172.112 97.9805C171.462 98.7773 170.557 99.1758 169.396 99.1758C168.295 99.1758 167.396 98.7246 166.698 97.8223C166.007 96.9199 165.661 95.7422 165.661 94.2891V94.166ZM167.287 94.3506C167.287 95.4287 167.51 96.2725 167.955 96.8818C168.4 97.4912 169.016 97.7959 169.801 97.7959C170.832 97.7959 171.585 97.333 172.06 96.4072V92.0391C171.573 91.1426 170.826 90.6943 169.818 90.6943C169.021 90.6943 168.4 91.002 167.955 91.6172C167.51 92.2324 167.287 93.1436 167.287 94.3506ZM182.448 99H180.822V89.4902H182.448V99ZM180.69 86.9678C180.69 86.7041 180.77 86.4814 180.928 86.2998C181.092 86.1182 181.332 86.0273 181.648 86.0273C181.965 86.0273 182.205 86.1182 182.369 86.2998C182.533 86.4814 182.615 86.7041 182.615 86.9678C182.615 87.2314 182.533 87.4512 182.369 87.627C182.205 87.8027 181.965 87.8906 181.648 87.8906C181.332 87.8906 181.092 87.8027 180.928 87.627C180.77 87.4512 180.69 87.2314 180.69 86.9678ZM186.597 89.4902L186.649 90.6855C187.376 89.7715 188.325 89.3145 189.497 89.3145C191.507 89.3145 192.521 90.4482 192.538 92.7158V99H190.912V92.707C190.906 92.0215 190.748 91.5146 190.438 91.1865C190.133 90.8584 189.655 90.6943 189.005 90.6943C188.478 90.6943 188.015 90.835 187.616 91.1162C187.218 91.3975 186.907 91.7666 186.685 92.2236V99H185.059V89.4902H186.597ZM32.4365 108.188V110.49H34.2119V111.747H32.4365V117.645C32.4365 118.025 32.5156 118.312 32.6738 118.506C32.832 118.693 33.1016 118.787 33.4824 118.787C33.6699 118.787 33.9277 118.752 34.2559 118.682V120C33.8281 120.117 33.4121 120.176 33.0078 120.176C32.2812 120.176 31.7334 119.956 31.3643 119.517C30.9951 119.077 30.8105 118.453 30.8105 117.645V111.747H29.0791V110.49H30.8105V108.188H32.4365ZM37.7451 111.642C38.4658 110.757 39.4033 110.314 40.5576 110.314C42.5674 110.314 43.5811 111.448 43.5986 113.716V120H41.9727V113.707C41.9668 113.021 41.8086 112.515 41.498 112.187C41.1934 111.858 40.7158 111.694 40.0654 111.694C39.5381 111.694 39.0752 111.835 38.6768 112.116C38.2783 112.397 37.9678 112.767 37.7451 113.224V120H36.1191V106.5H37.7451V111.642ZM49.9795 120.176C48.6904 120.176 47.6416 119.754 46.833 118.91C46.0244 118.061 45.6201 116.927 45.6201 115.509V115.21C45.6201 114.267 45.7988 113.426 46.1562 112.688C46.5195 111.943 47.0234 111.363 47.668 110.947C48.3184 110.525 49.0215 110.314 49.7773 110.314C51.0137 110.314 51.9746 110.722 52.6602 111.536C53.3457 112.351 53.6885 113.517 53.6885 115.034V115.711H47.2461C47.2695 116.648 47.542 117.407 48.0635 117.987C48.5908 118.562 49.2588 118.849 50.0674 118.849C50.6416 118.849 51.1279 118.731 51.5264 118.497C51.9248 118.263 52.2734 117.952 52.5723 117.565L53.5654 118.339C52.7686 119.563 51.5732 120.176 49.9795 120.176ZM49.7773 111.65C49.1211 111.65 48.5703 111.891 48.125 112.371C47.6797 112.846 47.4043 113.514 47.2988 114.375H52.0625V114.252C52.0156 113.426 51.793 112.787 51.3945 112.336C50.9961 111.879 50.457 111.65 49.7773 111.65ZM61.5723 110.49L61.6162 111.545C62.3135 110.725 63.2539 110.314 64.4375 110.314C65.7676 110.314 66.6729 110.824 67.1533 111.844C67.4697 111.387 67.8799 111.018 68.3838 110.736C68.8936 110.455 69.4941 110.314 70.1855 110.314C72.2715 110.314 73.332 111.419 73.3672 113.628V120H71.7412V113.725C71.7412 113.045 71.5859 112.538 71.2754 112.204C70.9648 111.864 70.4434 111.694 69.7109 111.694C69.1074 111.694 68.6064 111.876 68.208 112.239C67.8096 112.597 67.5781 113.08 67.5137 113.689V120H65.8789V113.769C65.8789 112.386 65.2021 111.694 63.8486 111.694C62.7822 111.694 62.0527 112.148 61.6602 113.057V120H60.0342V110.49H61.5723ZM81.6992 120C81.6055 119.812 81.5293 119.479 81.4707 118.998C80.7148 119.783 79.8125 120.176 78.7637 120.176C77.8262 120.176 77.0557 119.912 76.4521 119.385C75.8545 118.852 75.5557 118.178 75.5557 117.363C75.5557 116.373 75.9307 115.605 76.6807 115.061C77.4365 114.51 78.4971 114.234 79.8623 114.234H81.4443V113.487C81.4443 112.919 81.2744 112.468 80.9346 112.134C80.5947 111.794 80.0938 111.624 79.4316 111.624C78.8516 111.624 78.3652 111.771 77.9727 112.063C77.5801 112.356 77.3838 112.711 77.3838 113.127H75.749C75.749 112.652 75.916 112.195 76.25 111.756C76.5898 111.311 77.0469 110.959 77.6211 110.701C78.2012 110.443 78.8369 110.314 79.5283 110.314C80.624 110.314 81.4824 110.59 82.1035 111.141C82.7246 111.686 83.0469 112.438 83.0703 113.399V117.776C83.0703 118.649 83.1816 119.344 83.4043 119.859V120H81.6992ZM79.001 118.761C79.5107 118.761 79.9941 118.629 80.4512 118.365C80.9082 118.102 81.2393 117.759 81.4443 117.337V115.386H80.1699C78.1777 115.386 77.1816 115.969 77.1816 117.135C77.1816 117.645 77.3516 118.043 77.6914 118.33C78.0312 118.617 78.4678 118.761 79.001 118.761ZM90.2158 111.949C89.9697 111.908 89.7031 111.888 89.416 111.888C88.3496 111.888 87.626 112.342 87.2451 113.25V120H85.6191V110.49H87.2012L87.2275 111.589C87.7607 110.739 88.5166 110.314 89.4951 110.314C89.8115 110.314 90.0518 110.355 90.2158 110.438V111.949ZM94.373 115.597L93.3535 116.66V120H91.7275V106.5H93.3535V114.665L94.2236 113.619L97.1855 110.49H99.1631L95.4629 114.463L99.5938 120H97.6865L94.373 115.597ZM104.612 120.176C103.323 120.176 102.274 119.754 101.466 118.91C100.657 118.061 100.253 116.927 100.253 115.509V115.21C100.253 114.267 100.432 113.426 100.789 112.688C101.152 111.943 101.656 111.363 102.301 110.947C102.951 110.525 103.654 110.314 104.41 110.314C105.646 110.314 106.607 110.722 107.293 111.536C107.979 112.351 108.321 113.517 108.321 115.034V115.711H101.879C101.902 116.648 102.175 117.407 102.696 117.987C103.224 118.562 103.892 118.849 104.7 118.849C105.274 118.849 105.761 118.731 106.159 118.497C106.558 118.263 106.906 117.952 107.205 117.565L108.198 118.339C107.401 119.563 106.206 120.176 104.612 120.176ZM104.41 111.65C103.754 111.65 103.203 111.891 102.758 112.371C102.312 112.846 102.037 113.514 101.932 114.375H106.695V114.252C106.648 113.426 106.426 112.787 106.027 112.336C105.629 111.879 105.09 111.65 104.41 111.65ZM112.417 108.188V110.49H114.192V111.747H112.417V117.645C112.417 118.025 112.496 118.312 112.654 118.506C112.812 118.693 113.082 118.787 113.463 118.787C113.65 118.787 113.908 118.752 114.236 118.682V120C113.809 120.117 113.393 120.176 112.988 120.176C112.262 120.176 111.714 119.956 111.345 119.517C110.976 119.077 110.791 118.453 110.791 117.645V111.747H109.06V110.49H110.791V108.188H112.417ZM116.047 122.549L115.124 121.916C115.675 121.148 115.962 120.357 115.985 119.543V118.075H117.576V119.35C117.576 119.941 117.43 120.533 117.137 121.125C116.85 121.717 116.486 122.191 116.047 122.549ZM127.209 117.618L129.424 110.49H131.164L127.341 121.468C126.749 123.05 125.809 123.841 124.52 123.841L124.212 123.814L123.605 123.7V122.382L124.045 122.417C124.596 122.417 125.023 122.306 125.328 122.083C125.639 121.86 125.894 121.453 126.093 120.861L126.453 119.895L123.061 110.49H124.836L127.209 117.618ZM132.052 115.157C132.052 114.226 132.233 113.388 132.597 112.644C132.966 111.899 133.476 111.325 134.126 110.921C134.782 110.517 135.529 110.314 136.367 110.314C137.662 110.314 138.708 110.763 139.505 111.659C140.308 112.556 140.709 113.748 140.709 115.236V115.351C140.709 116.276 140.53 117.108 140.173 117.847C139.821 118.579 139.314 119.15 138.652 119.561C137.996 119.971 137.24 120.176 136.385 120.176C135.096 120.176 134.05 119.728 133.247 118.831C132.45 117.935 132.052 116.748 132.052 115.271V115.157ZM133.687 115.351C133.687 116.405 133.93 117.252 134.416 117.891C134.908 118.529 135.564 118.849 136.385 118.849C137.211 118.849 137.867 118.526 138.354 117.882C138.84 117.231 139.083 116.323 139.083 115.157C139.083 114.114 138.834 113.271 138.336 112.626C137.844 111.976 137.188 111.65 136.367 111.65C135.564 111.65 134.917 111.97 134.425 112.608C133.933 113.247 133.687 114.161 133.687 115.351ZM148.619 119.06C147.986 119.804 147.058 120.176 145.833 120.176C144.819 120.176 144.046 119.883 143.513 119.297C142.985 118.705 142.719 117.832 142.713 116.678V110.49H144.339V116.634C144.339 118.075 144.925 118.796 146.097 118.796C147.339 118.796 148.165 118.333 148.575 117.407V110.49H150.201V120H148.654L148.619 119.06ZM158.771 111.642C159.491 110.757 160.429 110.314 161.583 110.314C163.593 110.314 164.606 111.448 164.624 113.716V120H162.998V113.707C162.992 113.021 162.834 112.515 162.523 112.187C162.219 111.858 161.741 111.694 161.091 111.694C160.563 111.694 160.101 111.835 159.702 112.116C159.304 112.397 158.993 112.767 158.771 113.224V120H157.145V106.5H158.771V111.642ZM172.93 120C172.836 119.812 172.76 119.479 172.701 118.998C171.945 119.783 171.043 120.176 169.994 120.176C169.057 120.176 168.286 119.912 167.683 119.385C167.085 118.852 166.786 118.178 166.786 117.363C166.786 116.373 167.161 115.605 167.911 115.061C168.667 114.51 169.728 114.234 171.093 114.234H172.675V113.487C172.675 112.919 172.505 112.468 172.165 112.134C171.825 111.794 171.324 111.624 170.662 111.624C170.082 111.624 169.596 111.771 169.203 112.063C168.811 112.356 168.614 112.711 168.614 113.127H166.979C166.979 112.652 167.146 112.195 167.48 111.756C167.82 111.311 168.277 110.959 168.852 110.701C169.432 110.443 170.067 110.314 170.759 110.314C171.854 110.314 172.713 110.59 173.334 111.141C173.955 111.686 174.277 112.438 174.301 113.399V117.776C174.301 118.649 174.412 119.344 174.635 119.859V120H172.93ZM170.231 118.761C170.741 118.761 171.225 118.629 171.682 118.365C172.139 118.102 172.47 117.759 172.675 117.337V115.386H171.4C169.408 115.386 168.412 115.969 168.412 117.135C168.412 117.645 168.582 118.043 168.922 118.33C169.262 118.617 169.698 118.761 170.231 118.761ZM179.847 117.794L182.202 110.49H183.863L180.453 120H179.214L175.769 110.49H177.43L179.847 117.794ZM189.251 120.176C187.962 120.176 186.913 119.754 186.104 118.91C185.296 118.061 184.892 116.927 184.892 115.509V115.21C184.892 114.267 185.07 113.426 185.428 112.688C185.791 111.943 186.295 111.363 186.939 110.947C187.59 110.525 188.293 110.314 189.049 110.314C190.285 110.314 191.246 110.722 191.932 111.536C192.617 112.351 192.96 113.517 192.96 115.034V115.711H186.518C186.541 116.648 186.813 117.407 187.335 117.987C187.862 118.562 188.53 118.849 189.339 118.849C189.913 118.849 190.399 118.731 190.798 118.497C191.196 118.263 191.545 117.952 191.844 117.565L192.837 118.339C192.04 119.563 190.845 120.176 189.251 120.176ZM189.049 111.65C188.393 111.65 187.842 111.891 187.396 112.371C186.951 112.846 186.676 113.514 186.57 114.375H191.334V114.252C191.287 113.426 191.064 112.787 190.666 112.336C190.268 111.879 189.729 111.65 189.049 111.65ZM36.5234 137.704C36.5234 137.165 36.333 136.711 35.9521 136.342C35.5771 135.973 34.9414 135.639 34.0449 135.34C32.7969 134.959 31.8857 134.464 31.3115 133.854C30.7432 133.239 30.459 132.46 30.459 131.517C30.459 130.556 30.7373 129.768 31.2939 129.152C31.8564 128.537 32.627 128.171 33.6055 128.054V126.129H34.915V128.062C35.8994 128.197 36.6641 128.61 37.209 129.302C37.7598 129.993 38.0352 130.939 38.0352 132.141H36.418C36.418 131.314 36.2217 130.658 35.8291 130.172C35.4365 129.686 34.9062 129.442 34.2383 129.442C33.541 129.442 33.0078 129.624 32.6387 129.987C32.2695 130.345 32.085 130.846 32.085 131.49C32.085 132.088 32.2783 132.565 32.665 132.923C33.0576 133.274 33.6992 133.597 34.5898 133.89C35.4863 134.177 36.1836 134.496 36.6816 134.848C37.1855 135.193 37.5547 135.598 37.7891 136.061C38.0293 136.523 38.1494 137.065 38.1494 137.687C38.1494 138.677 37.8506 139.474 37.2529 140.077C36.6611 140.681 35.8291 141.038 34.7568 141.149V142.828H33.4561V141.149C32.3662 141.05 31.5107 140.663 30.8896 139.989C30.2744 139.31 29.9668 138.39 29.9668 137.229H31.5928C31.5928 138.044 31.8066 138.671 32.2344 139.11C32.6621 139.55 33.2686 139.77 34.0537 139.77C34.8213 139.77 35.4248 139.585 35.8643 139.216C36.3037 138.847 36.5234 138.343 36.5234 137.704ZM100.147 141H98.5215V131.49H100.147V141ZM98.3896 128.968C98.3896 128.704 98.4688 128.481 98.627 128.3C98.791 128.118 99.0312 128.027 99.3477 128.027C99.6641 128.027 99.9043 128.118 100.068 128.3C100.232 128.481 100.314 128.704 100.314 128.968C100.314 129.231 100.232 129.451 100.068 129.627C99.9043 129.803 99.6641 129.891 99.3477 129.891C99.0312 129.891 98.791 129.803 98.627 129.627C98.4688 129.451 98.3896 129.231 98.3896 128.968ZM104.296 131.49L104.349 132.686C105.075 131.771 106.024 131.314 107.196 131.314C109.206 131.314 110.22 132.448 110.237 134.716V141H108.611V134.707C108.605 134.021 108.447 133.515 108.137 133.187C107.832 132.858 107.354 132.694 106.704 132.694C106.177 132.694 105.714 132.835 105.315 133.116C104.917 133.397 104.606 133.767 104.384 134.224V141H102.758V131.49H104.296ZM119.36 129.188V131.49H121.136V132.747H119.36V138.645C119.36 139.025 119.439 139.312 119.598 139.506C119.756 139.693 120.025 139.787 120.406 139.787C120.594 139.787 120.852 139.752 121.18 139.682V141C120.752 141.117 120.336 141.176 119.932 141.176C119.205 141.176 118.657 140.956 118.288 140.517C117.919 140.077 117.734 139.453 117.734 138.645V132.747H116.003V131.49H117.734V129.188H119.36ZM122.437 136.157C122.437 135.226 122.618 134.388 122.981 133.644C123.351 132.899 123.86 132.325 124.511 131.921C125.167 131.517 125.914 131.314 126.752 131.314C128.047 131.314 129.093 131.763 129.89 132.659C130.692 133.556 131.094 134.748 131.094 136.236V136.351C131.094 137.276 130.915 138.108 130.558 138.847C130.206 139.579 129.699 140.15 129.037 140.561C128.381 140.971 127.625 141.176 126.77 141.176C125.48 141.176 124.435 140.728 123.632 139.831C122.835 138.935 122.437 137.748 122.437 136.271V136.157ZM124.071 136.351C124.071 137.405 124.314 138.252 124.801 138.891C125.293 139.529 125.949 139.849 126.77 139.849C127.596 139.849 128.252 139.526 128.738 138.882C129.225 138.231 129.468 137.323 129.468 136.157C129.468 135.114 129.219 134.271 128.721 133.626C128.229 132.976 127.572 132.65 126.752 132.65C125.949 132.65 125.302 132.97 124.81 133.608C124.317 134.247 124.071 135.161 124.071 136.351ZM135.339 129.188V131.49H137.114V132.747H135.339V138.645C135.339 139.025 135.418 139.312 135.576 139.506C135.734 139.693 136.004 139.787 136.385 139.787C136.572 139.787 136.83 139.752 137.158 139.682V141C136.73 141.117 136.314 141.176 135.91 141.176C135.184 141.176 134.636 140.956 134.267 140.517C133.897 140.077 133.713 139.453 133.713 138.645V132.747H131.981V131.49H133.713V129.188H135.339ZM144.893 141C144.799 140.812 144.723 140.479 144.664 139.998C143.908 140.783 143.006 141.176 141.957 141.176C141.02 141.176 140.249 140.912 139.646 140.385C139.048 139.852 138.749 139.178 138.749 138.363C138.749 137.373 139.124 136.605 139.874 136.061C140.63 135.51 141.69 135.234 143.056 135.234H144.638V134.487C144.638 133.919 144.468 133.468 144.128 133.134C143.788 132.794 143.287 132.624 142.625 132.624C142.045 132.624 141.559 132.771 141.166 133.063C140.773 133.356 140.577 133.711 140.577 134.127H138.942C138.942 133.652 139.109 133.195 139.443 132.756C139.783 132.311 140.24 131.959 140.814 131.701C141.395 131.443 142.03 131.314 142.722 131.314C143.817 131.314 144.676 131.59 145.297 132.141C145.918 132.686 146.24 133.438 146.264 134.399V138.776C146.264 139.649 146.375 140.344 146.598 140.859V141H144.893ZM142.194 139.761C142.704 139.761 143.188 139.629 143.645 139.365C144.102 139.102 144.433 138.759 144.638 138.337V136.386H143.363C141.371 136.386 140.375 136.969 140.375 138.135C140.375 138.645 140.545 139.043 140.885 139.33C141.225 139.617 141.661 139.761 142.194 139.761ZM150.579 141H148.953V127.5H150.579V141ZM153.225 140.147C153.225 139.866 153.307 139.632 153.471 139.444C153.641 139.257 153.893 139.163 154.227 139.163C154.561 139.163 154.812 139.257 154.982 139.444C155.158 139.632 155.246 139.866 155.246 140.147C155.246 140.417 155.158 140.643 154.982 140.824C154.812 141.006 154.561 141.097 154.227 141.097C153.893 141.097 153.641 141.006 153.471 140.824C153.307 140.643 153.225 140.417 153.225 140.147Z" fill="black"/>
<rect id="earnedTotal" x="85" y="81" width="33" height="20" fill="white"/>
<rect id="moneyTotal" x="45" y="125" width="47" height="20" fill="white"/>
</g>
</svg>
