<svg width="249" height="373" viewBox="0 0 249 373" fill="none" xmlns="http://www.w3.org/2000/svg">
<g id="day1Action">
<rect id="Rectangle 25" x="1.5" y="1.5" width="246" height="370" fill="white" stroke="#E5E5E5" stroke-width="3"/>
<rect id="day1SkipBT" x="14" y="182" width="219" height="56" rx="9" fill="#6BB8FF"/>
<path id="Your trades will take action in the next day when the market opens again." d="M18.5918 265.752L20.8184 261.469H22.0957L19.1543 266.818V270H18.0293V266.818L15.0879 261.469H16.377L18.5918 265.752ZM22.3535 266.771C22.3535 266.15 22.4746 265.592 22.7168 265.096C22.9629 264.6 23.3027 264.217 23.7363 263.947C24.1738 263.678 24.6719 263.543 25.2305 263.543C26.0938 263.543 26.791 263.842 27.3223 264.439C27.8574 265.037 28.125 265.832 28.125 266.824V266.9C28.125 267.518 28.0059 268.072 27.7676 268.564C27.5332 269.053 27.1953 269.434 26.7539 269.707C26.3164 269.98 25.8125 270.117 25.2422 270.117C24.3828 270.117 23.6855 269.818 23.1504 269.221C22.6191 268.623 22.3535 267.832 22.3535 266.848V266.771ZM23.4434 266.9C23.4434 267.604 23.6055 268.168 23.9297 268.594C24.2578 269.02 24.6953 269.232 25.2422 269.232C25.793 269.232 26.2305 269.018 26.5547 268.588C26.8789 268.154 27.041 267.549 27.041 266.771C27.041 266.076 26.875 265.514 26.543 265.084C26.2148 264.65 25.7773 264.434 25.2305 264.434C24.6953 264.434 24.2637 264.646 23.9355 265.072C23.6074 265.498 23.4434 266.107 23.4434 266.9ZM33.3984 269.373C32.9766 269.869 32.3574 270.117 31.541 270.117C30.8652 270.117 30.3496 269.922 29.9941 269.531C29.6426 269.137 29.4648 268.555 29.4609 267.785V263.66H30.5449V267.756C30.5449 268.717 30.9355 269.197 31.7168 269.197C32.5449 269.197 33.0957 268.889 33.3691 268.271V263.66H34.4531V270H33.4219L33.3984 269.373ZM39.1699 264.633C39.0059 264.605 38.8281 264.592 38.6367 264.592C37.9258 264.592 37.4434 264.895 37.1895 265.5V270H36.1055V263.66H37.1602L37.1777 264.393C37.5332 263.826 38.0371 263.543 38.6895 263.543C38.9004 263.543 39.0605 263.57 39.1699 263.625V264.633ZM44.6191 262.125V263.66H45.8027V264.498H44.6191V268.43C44.6191 268.684 44.6719 268.875 44.7773 269.004C44.8828 269.129 45.0625 269.191 45.3164 269.191C45.4414 269.191 45.6133 269.168 45.832 269.121V270C45.5469 270.078 45.2695 270.117 45 270.117C44.5156 270.117 44.1504 269.971 43.9043 269.678C43.6582 269.385 43.5352 268.969 43.5352 268.43V264.498H42.3809V263.66H43.5352V262.125H44.6191ZM50.1387 264.633C49.9746 264.605 49.7969 264.592 49.6055 264.592C48.8945 264.592 48.4121 264.895 48.1582 265.5V270H47.0742V263.66H48.1289L48.1465 264.393C48.502 263.826 49.0059 263.543 49.6582 263.543C49.8691 263.543 50.0293 263.57 50.1387 263.625V264.633ZM54.8203 270C54.7578 269.875 54.707 269.652 54.668 269.332C54.1641 269.855 53.5625 270.117 52.8633 270.117C52.2383 270.117 51.7246 269.941 51.3223 269.59C50.9238 269.234 50.7246 268.785 50.7246 268.242C50.7246 267.582 50.9746 267.07 51.4746 266.707C51.9785 266.34 52.6855 266.156 53.5957 266.156H54.6504V265.658C54.6504 265.279 54.5371 264.979 54.3105 264.756C54.084 264.529 53.75 264.416 53.3086 264.416C52.9219 264.416 52.5977 264.514 52.3359 264.709C52.0742 264.904 51.9434 265.141 51.9434 265.418H50.8535C50.8535 265.102 50.9648 264.797 51.1875 264.504C51.4141 264.207 51.7188 263.973 52.1016 263.801C52.4883 263.629 52.9121 263.543 53.373 263.543C54.1035 263.543 54.6758 263.727 55.0898 264.094C55.5039 264.457 55.7188 264.959 55.7344 265.6V268.518C55.7344 269.1 55.8086 269.562 55.957 269.906V270H54.8203ZM53.0215 269.174C53.3613 269.174 53.6836 269.086 53.9883 268.91C54.293 268.734 54.5137 268.506 54.6504 268.225V266.924H53.8008C52.4727 266.924 51.8086 267.312 51.8086 268.09C51.8086 268.43 51.9219 268.695 52.1484 268.887C52.375 269.078 52.666 269.174 53.0215 269.174ZM57.1699 266.777C57.1699 265.805 57.4004 265.023 57.8613 264.434C58.3223 263.84 58.9258 263.543 59.6719 263.543C60.4141 263.543 61.002 263.797 61.4355 264.305V261H62.5195V270H61.5234L61.4707 269.32C61.0371 269.852 60.4336 270.117 59.6602 270.117C58.9258 270.117 58.3262 269.816 57.8613 269.215C57.4004 268.613 57.1699 267.828 57.1699 266.859V266.777ZM58.2539 266.9C58.2539 267.619 58.4023 268.182 58.6992 268.588C58.9961 268.994 59.4062 269.197 59.9297 269.197C60.6172 269.197 61.1191 268.889 61.4355 268.271V265.359C61.1113 264.762 60.6133 264.463 59.9414 264.463C59.4102 264.463 58.9961 264.668 58.6992 265.078C58.4023 265.488 58.2539 266.096 58.2539 266.9ZM66.8379 270.117C65.9785 270.117 65.2793 269.836 64.7402 269.273C64.2012 268.707 63.9316 267.951 63.9316 267.006V266.807C63.9316 266.178 64.0508 265.617 64.2891 265.125C64.5312 264.629 64.8672 264.242 65.2969 263.965C65.7305 263.684 66.1992 263.543 66.7031 263.543C67.5273 263.543 68.168 263.814 68.625 264.357C69.082 264.9 69.3105 265.678 69.3105 266.689V267.141H65.0156C65.0312 267.766 65.2129 268.271 65.5605 268.658C65.9121 269.041 66.3574 269.232 66.8965 269.232C67.2793 269.232 67.6035 269.154 67.8691 268.998C68.1348 268.842 68.3672 268.635 68.5664 268.377L69.2285 268.893C68.6973 269.709 67.9004 270.117 66.8379 270.117ZM66.7031 264.434C66.2656 264.434 65.8984 264.594 65.6016 264.914C65.3047 265.23 65.1211 265.676 65.0508 266.25H68.2266V266.168C68.1953 265.617 68.0469 265.191 67.7812 264.891C67.5156 264.586 67.1562 264.434 66.7031 264.434ZM74.2617 268.318C74.2617 268.025 74.1504 267.799 73.9277 267.639C73.709 267.475 73.3242 267.334 72.7734 267.217C72.2266 267.1 71.791 266.959 71.4668 266.795C71.1465 266.631 70.9082 266.436 70.752 266.209C70.5996 265.982 70.5234 265.713 70.5234 265.4C70.5234 264.881 70.7422 264.441 71.1797 264.082C71.6211 263.723 72.1836 263.543 72.8672 263.543C73.5859 263.543 74.168 263.729 74.6133 264.1C75.0625 264.471 75.2871 264.945 75.2871 265.523H74.1973C74.1973 265.227 74.0703 264.971 73.8164 264.756C73.5664 264.541 73.25 264.434 72.8672 264.434C72.4727 264.434 72.1641 264.52 71.9414 264.691C71.7188 264.863 71.6074 265.088 71.6074 265.365C71.6074 265.627 71.7109 265.824 71.918 265.957C72.125 266.09 72.498 266.217 73.0371 266.338C73.5801 266.459 74.0195 266.604 74.3555 266.771C74.6914 266.939 74.9395 267.143 75.0996 267.381C75.2637 267.615 75.3457 267.902 75.3457 268.242C75.3457 268.809 75.1191 269.264 74.666 269.607C74.2129 269.947 73.625 270.117 72.9023 270.117C72.3945 270.117 71.9453 270.027 71.5547 269.848C71.1641 269.668 70.8574 269.418 70.6348 269.098C70.416 268.773 70.3066 268.424 70.3066 268.049H71.3906C71.4102 268.412 71.5547 268.701 71.8242 268.916C72.0977 269.127 72.457 269.232 72.9023 269.232C73.3125 269.232 73.6406 269.15 73.8867 268.986C74.1367 268.818 74.2617 268.596 74.2617 268.318ZM85.3477 268.506L86.5664 263.66H87.6504L85.8047 270H84.9258L83.3848 265.195L81.8848 270H81.0059L79.166 263.66H80.2441L81.4922 268.406L82.9688 263.66H83.8418L85.3477 268.506ZM89.9355 270H88.8516V263.66H89.9355V270ZM88.7637 261.979C88.7637 261.803 88.8164 261.654 88.9219 261.533C89.0312 261.412 89.1914 261.352 89.4023 261.352C89.6133 261.352 89.7734 261.412 89.8828 261.533C89.9922 261.654 90.0469 261.803 90.0469 261.979C90.0469 262.154 89.9922 262.301 89.8828 262.418C89.7734 262.535 89.6133 262.594 89.4023 262.594C89.1914 262.594 89.0312 262.535 88.9219 262.418C88.8164 262.301 88.7637 262.154 88.7637 261.979ZM92.8535 270H91.7695V261H92.8535V270ZM95.7715 270H94.6875V261H95.7715V270ZM101.959 262.125V263.66H103.143V264.498H101.959V268.43C101.959 268.684 102.012 268.875 102.117 269.004C102.223 269.129 102.402 269.191 102.656 269.191C102.781 269.191 102.953 269.168 103.172 269.121V270C102.887 270.078 102.609 270.117 102.34 270.117C101.855 270.117 101.49 269.971 101.244 269.678C100.998 269.385 100.875 268.969 100.875 268.43V264.498H99.7207V263.66H100.875V262.125H101.959ZM108.328 270C108.266 269.875 108.215 269.652 108.176 269.332C107.672 269.855 107.07 270.117 106.371 270.117C105.746 270.117 105.232 269.941 104.83 269.59C104.432 269.234 104.232 268.785 104.232 268.242C104.232 267.582 104.482 267.07 104.982 266.707C105.486 266.34 106.193 266.156 107.104 266.156H108.158V265.658C108.158 265.279 108.045 264.979 107.818 264.756C107.592 264.529 107.258 264.416 106.816 264.416C106.43 264.416 106.105 264.514 105.844 264.709C105.582 264.904 105.451 265.141 105.451 265.418H104.361C104.361 265.102 104.473 264.797 104.695 264.504C104.922 264.207 105.227 263.973 105.609 263.801C105.996 263.629 106.42 263.543 106.881 263.543C107.611 263.543 108.184 263.727 108.598 264.094C109.012 264.457 109.227 264.959 109.242 265.6V268.518C109.242 269.1 109.316 269.562 109.465 269.906V270H108.328ZM106.529 269.174C106.869 269.174 107.191 269.086 107.496 268.91C107.801 268.734 108.021 268.506 108.158 268.225V266.924H107.309C105.98 266.924 105.316 267.312 105.316 268.09C105.316 268.43 105.43 268.695 105.656 268.887C105.883 269.078 106.174 269.174 106.529 269.174ZM112.711 267.064L112.031 267.773V270H110.947V261H112.031V266.443L112.611 265.746L114.586 263.66H115.904L113.438 266.309L116.191 270H114.92L112.711 267.064ZM119.537 270.117C118.678 270.117 117.979 269.836 117.439 269.273C116.9 268.707 116.631 267.951 116.631 267.006V266.807C116.631 266.178 116.75 265.617 116.988 265.125C117.23 264.629 117.566 264.242 117.996 263.965C118.43 263.684 118.898 263.543 119.402 263.543C120.227 263.543 120.867 263.814 121.324 264.357C121.781 264.9 122.01 265.678 122.01 266.689V267.141H117.715C117.73 267.766 117.912 268.271 118.26 268.658C118.611 269.041 119.057 269.232 119.596 269.232C119.979 269.232 120.303 269.154 120.568 268.998C120.834 268.842 121.066 268.635 121.266 268.377L121.928 268.893C121.396 269.709 120.6 270.117 119.537 270.117ZM119.402 264.434C118.965 264.434 118.598 264.594 118.301 264.914C118.004 265.23 117.82 265.676 117.75 266.25H120.926V266.168C120.895 265.617 120.746 265.191 120.48 264.891C120.215 264.586 119.855 264.434 119.402 264.434ZM130.16 270C130.098 269.875 130.047 269.652 130.008 269.332C129.504 269.855 128.902 270.117 128.203 270.117C127.578 270.117 127.064 269.941 126.662 269.59C126.264 269.234 126.064 268.785 126.064 268.242C126.064 267.582 126.314 267.07 126.814 266.707C127.318 266.34 128.025 266.156 128.936 266.156H129.99V265.658C129.99 265.279 129.877 264.979 129.65 264.756C129.424 264.529 129.09 264.416 128.648 264.416C128.262 264.416 127.938 264.514 127.676 264.709C127.414 264.904 127.283 265.141 127.283 265.418H126.193C126.193 265.102 126.305 264.797 126.527 264.504C126.754 264.207 127.059 263.973 127.441 263.801C127.828 263.629 128.252 263.543 128.713 263.543C129.443 263.543 130.016 263.727 130.43 264.094C130.844 264.457 131.059 264.959 131.074 265.6V268.518C131.074 269.1 131.148 269.562 131.297 269.906V270H130.16ZM128.361 269.174C128.701 269.174 129.023 269.086 129.328 268.91C129.633 268.734 129.854 268.506 129.99 268.225V266.924H129.141C127.812 266.924 127.148 267.312 127.148 268.09C127.148 268.43 127.262 268.695 127.488 268.887C127.715 269.078 128.006 269.174 128.361 269.174ZM135.316 269.232C135.703 269.232 136.041 269.115 136.33 268.881C136.619 268.646 136.779 268.354 136.811 268.002H137.836C137.816 268.365 137.691 268.711 137.461 269.039C137.23 269.367 136.922 269.629 136.535 269.824C136.152 270.02 135.746 270.117 135.316 270.117C134.453 270.117 133.766 269.83 133.254 269.256C132.746 268.678 132.492 267.889 132.492 266.889V266.707C132.492 266.09 132.605 265.541 132.832 265.061C133.059 264.58 133.383 264.207 133.805 263.941C134.23 263.676 134.732 263.543 135.311 263.543C136.021 263.543 136.611 263.756 137.08 264.182C137.553 264.607 137.805 265.16 137.836 265.84H136.811C136.779 265.43 136.623 265.094 136.342 264.832C136.064 264.566 135.721 264.434 135.311 264.434C134.76 264.434 134.332 264.633 134.027 265.031C133.727 265.426 133.576 265.998 133.576 266.748V266.953C133.576 267.684 133.727 268.246 134.027 268.641C134.328 269.035 134.758 269.232 135.316 269.232ZM140.525 262.125V263.66H141.709V264.498H140.525V268.43C140.525 268.684 140.578 268.875 140.684 269.004C140.789 269.129 140.969 269.191 141.223 269.191C141.348 269.191 141.52 269.168 141.738 269.121V270C141.453 270.078 141.176 270.117 140.906 270.117C140.422 270.117 140.057 269.971 139.811 269.678C139.564 269.385 139.441 268.969 139.441 268.43V264.498H138.287V263.66H139.441V262.125H140.525ZM144.158 270H143.074V263.66H144.158V270ZM142.986 261.979C142.986 261.803 143.039 261.654 143.145 261.533C143.254 261.412 143.414 261.352 143.625 261.352C143.836 261.352 143.996 261.412 144.105 261.533C144.215 261.654 144.27 261.803 144.27 261.979C144.27 262.154 144.215 262.301 144.105 262.418C143.996 262.535 143.836 262.594 143.625 262.594C143.414 262.594 143.254 262.535 143.145 262.418C143.039 262.301 142.986 262.154 142.986 261.979ZM145.611 266.771C145.611 266.15 145.732 265.592 145.975 265.096C146.221 264.6 146.561 264.217 146.994 263.947C147.432 263.678 147.93 263.543 148.488 263.543C149.352 263.543 150.049 263.842 150.58 264.439C151.115 265.037 151.383 265.832 151.383 266.824V266.9C151.383 267.518 151.264 268.072 151.025 268.564C150.791 269.053 150.453 269.434 150.012 269.707C149.574 269.98 149.07 270.117 148.5 270.117C147.641 270.117 146.943 269.818 146.408 269.221C145.877 268.623 145.611 267.832 145.611 266.848V266.771ZM146.701 266.9C146.701 267.604 146.863 268.168 147.188 268.594C147.516 269.02 147.953 269.232 148.5 269.232C149.051 269.232 149.488 269.018 149.812 268.588C150.137 268.154 150.299 267.549 150.299 266.771C150.299 266.076 150.133 265.514 149.801 265.084C149.473 264.65 149.035 264.434 148.488 264.434C147.953 264.434 147.521 264.646 147.193 265.072C146.865 265.498 146.701 266.107 146.701 266.9ZM153.768 263.66L153.803 264.457C154.287 263.848 154.92 263.543 155.701 263.543C157.041 263.543 157.717 264.299 157.729 265.811V270H156.645V265.805C156.641 265.348 156.535 265.01 156.328 264.791C156.125 264.572 155.807 264.463 155.373 264.463C155.021 264.463 154.713 264.557 154.447 264.744C154.182 264.932 153.975 265.178 153.826 265.482V270H152.742V263.66H153.768ZM163.518 270H162.434V263.66H163.518V270ZM162.346 261.979C162.346 261.803 162.398 261.654 162.504 261.533C162.613 261.412 162.773 261.352 162.984 261.352C163.195 261.352 163.355 261.412 163.465 261.533C163.574 261.654 163.629 261.803 163.629 261.979C163.629 262.154 163.574 262.301 163.465 262.418C163.355 262.535 163.195 262.594 162.984 262.594C162.773 262.594 162.613 262.535 162.504 262.418C162.398 262.301 162.346 262.154 162.346 261.979ZM166.283 263.66L166.318 264.457C166.803 263.848 167.436 263.543 168.217 263.543C169.557 263.543 170.232 264.299 170.244 265.811V270H169.16V265.805C169.156 265.348 169.051 265.01 168.844 264.791C168.641 264.572 168.322 264.463 167.889 264.463C167.537 264.463 167.229 264.557 166.963 264.744C166.697 264.932 166.49 265.178 166.342 265.482V270H165.258V263.66H166.283ZM176.326 262.125V263.66H177.51V264.498H176.326V268.43C176.326 268.684 176.379 268.875 176.484 269.004C176.59 269.129 176.77 269.191 177.023 269.191C177.148 269.191 177.32 269.168 177.539 269.121V270C177.254 270.078 176.977 270.117 176.707 270.117C176.223 270.117 175.857 269.971 175.611 269.678C175.365 269.385 175.242 268.969 175.242 268.43V264.498H174.088V263.66H175.242V262.125H176.326ZM179.865 264.428C180.346 263.838 180.971 263.543 181.74 263.543C183.08 263.543 183.756 264.299 183.768 265.811V270H182.684V265.805C182.68 265.348 182.574 265.01 182.367 264.791C182.164 264.572 181.846 264.463 181.412 264.463C181.061 264.463 180.752 264.557 180.486 264.744C180.221 264.932 180.014 265.178 179.865 265.482V270H178.781V261H179.865V264.428ZM188.021 270.117C187.162 270.117 186.463 269.836 185.924 269.273C185.385 268.707 185.115 267.951 185.115 267.006V266.807C185.115 266.178 185.234 265.617 185.473 265.125C185.715 264.629 186.051 264.242 186.48 263.965C186.914 263.684 187.383 263.543 187.887 263.543C188.711 263.543 189.352 263.814 189.809 264.357C190.266 264.9 190.494 265.678 190.494 266.689V267.141H186.199C186.215 267.766 186.396 268.271 186.744 268.658C187.096 269.041 187.541 269.232 188.08 269.232C188.463 269.232 188.787 269.154 189.053 268.998C189.318 268.842 189.551 268.635 189.75 268.377L190.412 268.893C189.881 269.709 189.084 270.117 188.021 270.117ZM187.887 264.434C187.449 264.434 187.082 264.594 186.785 264.914C186.488 265.23 186.305 265.676 186.234 266.25H189.41V266.168C189.379 265.617 189.23 265.191 188.965 264.891C188.699 264.586 188.34 264.434 187.887 264.434ZM195.756 263.66L195.791 264.457C196.275 263.848 196.908 263.543 197.689 263.543C199.029 263.543 199.705 264.299 199.717 265.811V270H198.633V265.805C198.629 265.348 198.523 265.01 198.316 264.791C198.113 264.572 197.795 264.463 197.361 264.463C197.01 264.463 196.701 264.557 196.436 264.744C196.17 264.932 195.963 265.178 195.814 265.482V270H194.73V263.66H195.756ZM203.982 270.117C203.123 270.117 202.424 269.836 201.885 269.273C201.346 268.707 201.076 267.951 201.076 267.006V266.807C201.076 266.178 201.195 265.617 201.434 265.125C201.676 264.629 202.012 264.242 202.441 263.965C202.875 263.684 203.344 263.543 203.848 263.543C204.672 263.543 205.312 263.814 205.77 264.357C206.227 264.9 206.455 265.678 206.455 266.689V267.141H202.16C202.176 267.766 202.357 268.271 202.705 268.658C203.057 269.041 203.502 269.232 204.041 269.232C204.424 269.232 204.748 269.154 205.014 268.998C205.279 268.842 205.512 268.635 205.711 268.377L206.373 268.893C205.842 269.709 205.045 270.117 203.982 270.117ZM203.848 264.434C203.41 264.434 203.043 264.594 202.746 264.914C202.449 265.23 202.266 265.676 202.195 266.25H205.371V266.168C205.34 265.617 205.191 265.191 204.926 264.891C204.66 264.586 204.301 264.434 203.848 264.434ZM209.842 265.975L211.248 263.66H212.514L210.439 266.795L212.578 270H211.324L209.859 267.627L208.395 270H207.135L209.273 266.795L207.199 263.66H208.453L209.842 265.975ZM215.139 262.125V263.66H216.322V264.498H215.139V268.43C215.139 268.684 215.191 268.875 215.297 269.004C215.402 269.129 215.582 269.191 215.836 269.191C215.961 269.191 216.133 269.168 216.352 269.121V270C216.066 270.078 215.789 270.117 215.52 270.117C215.035 270.117 214.67 269.971 214.424 269.678C214.178 269.385 214.055 268.969 214.055 268.43V264.498H212.9V263.66H214.055V262.125H215.139ZM15.5566 280.777C15.5566 279.805 15.7871 279.023 16.248 278.434C16.709 277.84 17.3125 277.543 18.0586 277.543C18.8008 277.543 19.3887 277.797 19.8223 278.305V275H20.9062V284H19.9102L19.8574 283.32C19.4238 283.852 18.8203 284.117 18.0469 284.117C17.3125 284.117 16.7129 283.816 16.248 283.215C15.7871 282.613 15.5566 281.828 15.5566 280.859V280.777ZM16.6406 280.9C16.6406 281.619 16.7891 282.182 17.0859 282.588C17.3828 282.994 17.793 283.197 18.3164 283.197C19.0039 283.197 19.5059 282.889 19.8223 282.271V279.359C19.498 278.762 19 278.463 18.3281 278.463C17.7969 278.463 17.3828 278.668 17.0859 279.078C16.7891 279.488 16.6406 280.096 16.6406 280.9ZM26.5078 284C26.4453 283.875 26.3945 283.652 26.3555 283.332C25.8516 283.855 25.25 284.117 24.5508 284.117C23.9258 284.117 23.4121 283.941 23.0098 283.59C22.6113 283.234 22.4121 282.785 22.4121 282.242C22.4121 281.582 22.6621 281.07 23.1621 280.707C23.666 280.34 24.373 280.156 25.2832 280.156H26.3379V279.658C26.3379 279.279 26.2246 278.979 25.998 278.756C25.7715 278.529 25.4375 278.416 24.9961 278.416C24.6094 278.416 24.2852 278.514 24.0234 278.709C23.7617 278.904 23.6309 279.141 23.6309 279.418H22.541C22.541 279.102 22.6523 278.797 22.875 278.504C23.1016 278.207 23.4062 277.973 23.7891 277.801C24.1758 277.629 24.5996 277.543 25.0605 277.543C25.791 277.543 26.3633 277.727 26.7773 278.094C27.1914 278.457 27.4062 278.959 27.4219 279.6V282.518C27.4219 283.1 27.4961 283.562 27.6445 283.906V284H26.5078ZM24.709 283.174C25.0488 283.174 25.3711 283.086 25.6758 282.91C25.9805 282.734 26.2012 282.506 26.3379 282.225V280.924H25.4883C24.1602 280.924 23.4961 281.312 23.4961 282.09C23.4961 282.43 23.6094 282.695 23.8359 282.887C24.0625 283.078 24.3535 283.174 24.709 283.174ZM31.1016 282.412L32.5781 277.66H33.7383L31.1895 284.979C30.7949 286.033 30.168 286.561 29.3086 286.561L29.1035 286.543L28.6992 286.467V285.588L28.9922 285.611C29.3594 285.611 29.6445 285.537 29.8477 285.389C30.0547 285.24 30.2246 284.969 30.3574 284.574L30.5977 283.93L28.3359 277.66H29.5195L31.1016 282.412ZM43.3008 282.506L44.5195 277.66H45.6035L43.7578 284H42.8789L41.3379 279.195L39.8379 284H38.959L37.1191 277.66H38.1973L39.4453 282.406L40.9219 277.66H41.7949L43.3008 282.506ZM47.7949 278.428C48.2754 277.838 48.9004 277.543 49.6699 277.543C51.0098 277.543 51.6855 278.299 51.6973 279.811V284H50.6133V279.805C50.6094 279.348 50.5039 279.01 50.2969 278.791C50.0938 278.572 49.7754 278.463 49.3418 278.463C48.9902 278.463 48.6816 278.557 48.416 278.744C48.1504 278.932 47.9434 279.178 47.7949 279.482V284H46.7109V275H47.7949V278.428ZM55.9512 284.117C55.0918 284.117 54.3926 283.836 53.8535 283.273C53.3145 282.707 53.0449 281.951 53.0449 281.006V280.807C53.0449 280.178 53.1641 279.617 53.4023 279.125C53.6445 278.629 53.9805 278.242 54.4102 277.965C54.8438 277.684 55.3125 277.543 55.8164 277.543C56.6406 277.543 57.2812 277.814 57.7383 278.357C58.1953 278.9 58.4238 279.678 58.4238 280.689V281.141H54.1289C54.1445 281.766 54.3262 282.271 54.6738 282.658C55.0254 283.041 55.4707 283.232 56.0098 283.232C56.3926 283.232 56.7168 283.154 56.9824 282.998C57.248 282.842 57.4805 282.635 57.6797 282.377L58.3418 282.893C57.8105 283.709 57.0137 284.117 55.9512 284.117ZM55.8164 278.434C55.3789 278.434 55.0117 278.594 54.7148 278.914C54.418 279.23 54.2344 279.676 54.1641 280.25H57.3398V280.168C57.3086 279.617 57.1602 279.191 56.8945 278.891C56.6289 278.586 56.2695 278.434 55.8164 278.434ZM60.709 277.66L60.7441 278.457C61.2285 277.848 61.8613 277.543 62.6426 277.543C63.9824 277.543 64.6582 278.299 64.6699 279.811V284H63.5859V279.805C63.582 279.348 63.4766 279.01 63.2695 278.791C63.0664 278.572 62.748 278.463 62.3145 278.463C61.9629 278.463 61.6543 278.557 61.3887 278.744C61.123 278.932 60.916 279.178 60.7676 279.482V284H59.6836V277.66H60.709ZM70.752 276.125V277.66H71.9355V278.498H70.752V282.43C70.752 282.684 70.8047 282.875 70.9102 283.004C71.0156 283.129 71.1953 283.191 71.4492 283.191C71.5742 283.191 71.7461 283.168 71.9648 283.121V284C71.6797 284.078 71.4023 284.117 71.1328 284.117C70.6484 284.117 70.2832 283.971 70.0371 283.678C69.791 283.385 69.668 282.969 69.668 282.43V278.498H68.5137V277.66H69.668V276.125H70.752ZM74.291 278.428C74.7715 277.838 75.3965 277.543 76.166 277.543C77.5059 277.543 78.1816 278.299 78.1934 279.811V284H77.1094V279.805C77.1055 279.348 77 279.01 76.793 278.791C76.5898 278.572 76.2715 278.463 75.8379 278.463C75.4863 278.463 75.1777 278.557 74.9121 278.744C74.6465 278.932 74.4395 279.178 74.291 279.482V284H73.207V275H74.291V278.428ZM82.4473 284.117C81.5879 284.117 80.8887 283.836 80.3496 283.273C79.8105 282.707 79.541 281.951 79.541 281.006V280.807C79.541 280.178 79.6602 279.617 79.8984 279.125C80.1406 278.629 80.4766 278.242 80.9062 277.965C81.3398 277.684 81.8086 277.543 82.3125 277.543C83.1367 277.543 83.7773 277.814 84.2344 278.357C84.6914 278.9 84.9199 279.678 84.9199 280.689V281.141H80.625C80.6406 281.766 80.8223 282.271 81.1699 282.658C81.5215 283.041 81.9668 283.232 82.5059 283.232C82.8887 283.232 83.2129 283.154 83.4785 282.998C83.7441 282.842 83.9766 282.635 84.1758 282.377L84.8379 282.893C84.3066 283.709 83.5098 284.117 82.4473 284.117ZM82.3125 278.434C81.875 278.434 81.5078 278.594 81.2109 278.914C80.9141 279.23 80.7305 279.676 80.6602 280.25H83.8359V280.168C83.8047 279.617 83.6562 279.191 83.3906 278.891C83.125 278.586 82.7656 278.434 82.3125 278.434ZM90.1758 277.66L90.2051 278.363C90.6699 277.816 91.2969 277.543 92.0859 277.543C92.9727 277.543 93.5762 277.883 93.8965 278.562C94.1074 278.258 94.3809 278.012 94.7168 277.824C95.0566 277.637 95.457 277.543 95.918 277.543C97.3086 277.543 98.0156 278.279 98.0391 279.752V284H96.9551V279.816C96.9551 279.363 96.8516 279.025 96.6445 278.803C96.4375 278.576 96.0898 278.463 95.6016 278.463C95.1992 278.463 94.8652 278.584 94.5996 278.826C94.334 279.064 94.1797 279.387 94.1367 279.793V284H93.0469V279.846C93.0469 278.924 92.5957 278.463 91.6934 278.463C90.9824 278.463 90.4961 278.766 90.2344 279.371V284H89.1504V277.66H90.1758ZM103.594 284C103.531 283.875 103.48 283.652 103.441 283.332C102.938 283.855 102.336 284.117 101.637 284.117C101.012 284.117 100.498 283.941 100.096 283.59C99.6973 283.234 99.498 282.785 99.498 282.242C99.498 281.582 99.748 281.07 100.248 280.707C100.752 280.34 101.459 280.156 102.369 280.156H103.424V279.658C103.424 279.279 103.311 278.979 103.084 278.756C102.857 278.529 102.523 278.416 102.082 278.416C101.695 278.416 101.371 278.514 101.109 278.709C100.848 278.904 100.717 279.141 100.717 279.418H99.627C99.627 279.102 99.7383 278.797 99.9609 278.504C100.188 278.207 100.492 277.973 100.875 277.801C101.262 277.629 101.686 277.543 102.146 277.543C102.877 277.543 103.449 277.727 103.863 278.094C104.277 278.457 104.492 278.959 104.508 279.6V282.518C104.508 283.1 104.582 283.562 104.73 283.906V284H103.594ZM101.795 283.174C102.135 283.174 102.457 283.086 102.762 282.91C103.066 282.734 103.287 282.506 103.424 282.225V280.924H102.574C101.246 280.924 100.582 281.312 100.582 282.09C100.582 282.43 100.695 282.695 100.922 282.887C101.148 283.078 101.439 283.174 101.795 283.174ZM109.271 278.633C109.107 278.605 108.93 278.592 108.738 278.592C108.027 278.592 107.545 278.895 107.291 279.5V284H106.207V277.66H107.262L107.279 278.393C107.635 277.826 108.139 277.543 108.791 277.543C109.002 277.543 109.162 277.57 109.271 277.625V278.633ZM112.043 281.064L111.363 281.773V284H110.279V275H111.363V280.443L111.943 279.746L113.918 277.66H115.236L112.77 280.309L115.523 284H114.252L112.043 281.064ZM118.869 284.117C118.01 284.117 117.311 283.836 116.771 283.273C116.232 282.707 115.963 281.951 115.963 281.006V280.807C115.963 280.178 116.082 279.617 116.32 279.125C116.562 278.629 116.898 278.242 117.328 277.965C117.762 277.684 118.23 277.543 118.734 277.543C119.559 277.543 120.199 277.814 120.656 278.357C121.113 278.9 121.342 279.678 121.342 280.689V281.141H117.047C117.062 281.766 117.244 282.271 117.592 282.658C117.943 283.041 118.389 283.232 118.928 283.232C119.311 283.232 119.635 283.154 119.9 282.998C120.166 282.842 120.398 282.635 120.598 282.377L121.26 282.893C120.729 283.709 119.932 284.117 118.869 284.117ZM118.734 278.434C118.297 278.434 117.93 278.594 117.633 278.914C117.336 279.23 117.152 279.676 117.082 280.25H120.258V280.168C120.227 279.617 120.078 279.191 119.812 278.891C119.547 278.586 119.188 278.434 118.734 278.434ZM124.072 276.125V277.66H125.256V278.498H124.072V282.43C124.072 282.684 124.125 282.875 124.23 283.004C124.336 283.129 124.516 283.191 124.77 283.191C124.895 283.191 125.066 283.168 125.285 283.121V284C125 284.078 124.723 284.117 124.453 284.117C123.969 284.117 123.604 283.971 123.357 283.678C123.111 283.385 122.988 282.969 122.988 282.43V278.498H121.834V277.66H122.988V276.125H124.072ZM129.217 280.771C129.217 280.15 129.338 279.592 129.58 279.096C129.826 278.6 130.166 278.217 130.6 277.947C131.037 277.678 131.535 277.543 132.094 277.543C132.957 277.543 133.654 277.842 134.186 278.439C134.721 279.037 134.988 279.832 134.988 280.824V280.9C134.988 281.518 134.869 282.072 134.631 282.564C134.396 283.053 134.059 283.434 133.617 283.707C133.18 283.98 132.676 284.117 132.105 284.117C131.246 284.117 130.549 283.818 130.014 283.221C129.482 282.623 129.217 281.832 129.217 280.848V280.771ZM130.307 280.9C130.307 281.604 130.469 282.168 130.793 282.594C131.121 283.02 131.559 283.232 132.105 283.232C132.656 283.232 133.094 283.018 133.418 282.588C133.742 282.154 133.904 281.549 133.904 280.771C133.904 280.076 133.738 279.514 133.406 279.084C133.078 278.65 132.641 278.434 132.094 278.434C131.559 278.434 131.127 278.646 130.799 279.072C130.471 279.498 130.307 280.107 130.307 280.9ZM141.703 280.9C141.703 281.865 141.482 282.643 141.041 283.232C140.6 283.822 140.002 284.117 139.248 284.117C138.479 284.117 137.873 283.873 137.432 283.385V286.438H136.348V277.66H137.338L137.391 278.363C137.832 277.816 138.445 277.543 139.23 277.543C139.992 277.543 140.594 277.83 141.035 278.404C141.48 278.979 141.703 279.777 141.703 280.801V280.9ZM140.619 280.777C140.619 280.062 140.467 279.498 140.162 279.084C139.857 278.67 139.439 278.463 138.908 278.463C138.252 278.463 137.76 278.754 137.432 279.336V282.365C137.756 282.943 138.252 283.232 138.92 283.232C139.439 283.232 139.852 283.027 140.156 282.617C140.465 282.203 140.619 281.59 140.619 280.777ZM145.717 284.117C144.857 284.117 144.158 283.836 143.619 283.273C143.08 282.707 142.811 281.951 142.811 281.006V280.807C142.811 280.178 142.93 279.617 143.168 279.125C143.41 278.629 143.746 278.242 144.176 277.965C144.609 277.684 145.078 277.543 145.582 277.543C146.406 277.543 147.047 277.814 147.504 278.357C147.961 278.9 148.189 279.678 148.189 280.689V281.141H143.895C143.91 281.766 144.092 282.271 144.439 282.658C144.791 283.041 145.236 283.232 145.775 283.232C146.158 283.232 146.482 283.154 146.748 282.998C147.014 282.842 147.246 282.635 147.445 282.377L148.107 282.893C147.576 283.709 146.779 284.117 145.717 284.117ZM145.582 278.434C145.145 278.434 144.777 278.594 144.48 278.914C144.184 279.23 144 279.676 143.93 280.25H147.105V280.168C147.074 279.617 146.926 279.191 146.66 278.891C146.395 278.586 146.035 278.434 145.582 278.434ZM150.475 277.66L150.51 278.457C150.994 277.848 151.627 277.543 152.408 277.543C153.748 277.543 154.424 278.299 154.436 279.811V284H153.352V279.805C153.348 279.348 153.242 279.01 153.035 278.791C152.832 278.572 152.514 278.463 152.08 278.463C151.729 278.463 151.42 278.557 151.154 278.744C150.889 278.932 150.682 279.178 150.533 279.482V284H149.449V277.66H150.475ZM159.762 282.318C159.762 282.025 159.65 281.799 159.428 281.639C159.209 281.475 158.824 281.334 158.273 281.217C157.727 281.1 157.291 280.959 156.967 280.795C156.646 280.631 156.408 280.436 156.252 280.209C156.1 279.982 156.023 279.713 156.023 279.4C156.023 278.881 156.242 278.441 156.68 278.082C157.121 277.723 157.684 277.543 158.367 277.543C159.086 277.543 159.668 277.729 160.113 278.1C160.562 278.471 160.787 278.945 160.787 279.523H159.697C159.697 279.227 159.57 278.971 159.316 278.756C159.066 278.541 158.75 278.434 158.367 278.434C157.973 278.434 157.664 278.52 157.441 278.691C157.219 278.863 157.107 279.088 157.107 279.365C157.107 279.627 157.211 279.824 157.418 279.957C157.625 280.09 157.998 280.217 158.537 280.338C159.08 280.459 159.52 280.604 159.855 280.771C160.191 280.939 160.439 281.143 160.6 281.381C160.764 281.615 160.846 281.902 160.846 282.242C160.846 282.809 160.619 283.264 160.166 283.607C159.713 283.947 159.125 284.117 158.402 284.117C157.895 284.117 157.445 284.027 157.055 283.848C156.664 283.668 156.357 283.418 156.135 283.098C155.916 282.773 155.807 282.424 155.807 282.049H156.891C156.91 282.412 157.055 282.701 157.324 282.916C157.598 283.127 157.957 283.232 158.402 283.232C158.812 283.232 159.141 283.15 159.387 282.986C159.637 282.818 159.762 282.596 159.762 282.318ZM169.148 284C169.086 283.875 169.035 283.652 168.996 283.332C168.492 283.855 167.891 284.117 167.191 284.117C166.566 284.117 166.053 283.941 165.65 283.59C165.252 283.234 165.053 282.785 165.053 282.242C165.053 281.582 165.303 281.07 165.803 280.707C166.307 280.34 167.014 280.156 167.924 280.156H168.979V279.658C168.979 279.279 168.865 278.979 168.639 278.756C168.412 278.529 168.078 278.416 167.637 278.416C167.25 278.416 166.926 278.514 166.664 278.709C166.402 278.904 166.271 279.141 166.271 279.418H165.182C165.182 279.102 165.293 278.797 165.516 278.504C165.742 278.207 166.047 277.973 166.43 277.801C166.816 277.629 167.24 277.543 167.701 277.543C168.432 277.543 169.004 277.727 169.418 278.094C169.832 278.457 170.047 278.959 170.062 279.6V282.518C170.062 283.1 170.137 283.562 170.285 283.906V284H169.148ZM167.35 283.174C167.689 283.174 168.012 283.086 168.316 282.91C168.621 282.734 168.842 282.506 168.979 282.225V280.924H168.129C166.801 280.924 166.137 281.312 166.137 282.09C166.137 282.43 166.25 282.695 166.477 282.887C166.703 283.078 166.994 283.174 167.35 283.174ZM171.504 280.777C171.504 279.789 171.732 279.004 172.189 278.422C172.646 277.836 173.252 277.543 174.006 277.543C174.779 277.543 175.383 277.816 175.816 278.363L175.869 277.66H176.859V283.848C176.859 284.668 176.615 285.314 176.127 285.787C175.643 286.26 174.99 286.496 174.17 286.496C173.713 286.496 173.266 286.398 172.828 286.203C172.391 286.008 172.057 285.74 171.826 285.4L172.389 284.75C172.854 285.324 173.422 285.611 174.094 285.611C174.621 285.611 175.031 285.463 175.324 285.166C175.621 284.869 175.77 284.451 175.77 283.912V283.367C175.336 283.867 174.744 284.117 173.994 284.117C173.252 284.117 172.65 283.818 172.189 283.221C171.732 282.623 171.504 281.809 171.504 280.777ZM172.594 280.9C172.594 281.615 172.74 282.178 173.033 282.588C173.326 282.994 173.736 283.197 174.264 283.197C174.947 283.197 175.449 282.887 175.77 282.266V279.371C175.438 278.766 174.939 278.463 174.275 278.463C173.748 278.463 173.336 278.668 173.039 279.078C172.742 279.488 172.594 280.096 172.594 280.9ZM182.414 284C182.352 283.875 182.301 283.652 182.262 283.332C181.758 283.855 181.156 284.117 180.457 284.117C179.832 284.117 179.318 283.941 178.916 283.59C178.518 283.234 178.318 282.785 178.318 282.242C178.318 281.582 178.568 281.07 179.068 280.707C179.572 280.34 180.279 280.156 181.189 280.156H182.244V279.658C182.244 279.279 182.131 278.979 181.904 278.756C181.678 278.529 181.344 278.416 180.902 278.416C180.516 278.416 180.191 278.514 179.93 278.709C179.668 278.904 179.537 279.141 179.537 279.418H178.447C178.447 279.102 178.559 278.797 178.781 278.504C179.008 278.207 179.312 277.973 179.695 277.801C180.082 277.629 180.506 277.543 180.967 277.543C181.697 277.543 182.27 277.727 182.684 278.094C183.098 278.457 183.312 278.959 183.328 279.6V282.518C183.328 283.1 183.402 283.562 183.551 283.906V284H182.414ZM180.615 283.174C180.955 283.174 181.277 283.086 181.582 282.91C181.887 282.734 182.107 282.506 182.244 282.225V280.924H181.395C180.066 280.924 179.402 281.312 179.402 282.09C179.402 282.43 179.516 282.695 179.742 282.887C179.969 283.078 180.26 283.174 180.615 283.174ZM186.205 284H185.121V277.66H186.205V284ZM185.033 275.979C185.033 275.803 185.086 275.654 185.191 275.533C185.301 275.412 185.461 275.352 185.672 275.352C185.883 275.352 186.043 275.412 186.152 275.533C186.262 275.654 186.316 275.803 186.316 275.979C186.316 276.154 186.262 276.301 186.152 276.418C186.043 276.535 185.883 276.594 185.672 276.594C185.461 276.594 185.301 276.535 185.191 276.418C185.086 276.301 185.033 276.154 185.033 275.979ZM188.971 277.66L189.006 278.457C189.49 277.848 190.123 277.543 190.904 277.543C192.244 277.543 192.92 278.299 192.932 279.811V284H191.848V279.805C191.844 279.348 191.738 279.01 191.531 278.791C191.328 278.572 191.01 278.463 190.576 278.463C190.225 278.463 189.916 278.557 189.65 278.744C189.385 278.932 189.178 279.178 189.029 279.482V284H187.945V277.66H188.971ZM194.59 283.432C194.59 283.244 194.645 283.088 194.754 282.963C194.867 282.838 195.035 282.775 195.258 282.775C195.48 282.775 195.648 282.838 195.762 282.963C195.879 283.088 195.938 283.244 195.938 283.432C195.938 283.611 195.879 283.762 195.762 283.883C195.648 284.004 195.48 284.064 195.258 284.064C195.035 284.064 194.867 284.004 194.754 283.883C194.645 283.762 194.59 283.611 194.59 283.432Z" fill="black"/>
<path id="Take no action and go to next trading day" d="M47.1377 195.585H43.2969V206H40.2119V195.585H36.4414V193.203H47.1377V195.585ZM52.1914 206C52.0859 205.807 51.9922 205.522 51.9102 205.147C51.3652 205.833 50.6035 206.176 49.625 206.176C48.7285 206.176 47.9668 205.906 47.3398 205.367C46.7129 204.822 46.3994 204.14 46.3994 203.319C46.3994 202.288 46.7803 201.509 47.542 200.981C48.3037 200.454 49.4111 200.19 50.8643 200.19H51.7783V199.689C51.7783 198.816 51.4004 198.38 50.6445 198.38C49.9414 198.38 49.5898 198.726 49.5898 199.417H46.6279C46.6279 198.497 47.0176 197.75 47.7969 197.176C48.582 196.602 49.5811 196.314 50.7939 196.314C52.0068 196.314 52.9648 196.61 53.668 197.202C54.3711 197.794 54.7314 198.605 54.749 199.637V203.847C54.7607 204.72 54.8955 205.388 55.1533 205.851V206H52.1914ZM50.3369 204.066C50.7061 204.066 51.0107 203.987 51.251 203.829C51.4971 203.671 51.6729 203.492 51.7783 203.293V201.772H50.917C49.8857 201.772 49.3701 202.235 49.3701 203.161C49.3701 203.431 49.4609 203.65 49.6426 203.82C49.8242 203.984 50.0557 204.066 50.3369 204.066ZM60.2158 202.458L59.3809 203.293V206H56.4189V192.491H59.3809V199.663L59.6797 199.268L61.9121 196.49H65.4629L62.1318 200.401L65.6826 206H62.29L60.2158 202.458ZM70.666 206.176C69.207 206.176 68.0264 205.742 67.124 204.875C66.2217 204.002 65.7705 202.868 65.7705 201.474V201.228C65.7705 200.255 65.9492 199.396 66.3066 198.652C66.6699 197.908 67.1973 197.334 67.8887 196.93C68.5801 196.52 69.4004 196.314 70.3496 196.314C71.6855 196.314 72.7402 196.73 73.5137 197.562C74.2871 198.389 74.6738 199.543 74.6738 201.025V202.177H68.7852C68.8906 202.71 69.1221 203.129 69.4795 203.434C69.8369 203.738 70.2998 203.891 70.8682 203.891C71.8057 203.891 72.5381 203.562 73.0654 202.906L74.4189 204.506C74.0498 205.016 73.5254 205.423 72.8457 205.728C72.1719 206.026 71.4453 206.176 70.666 206.176ZM70.332 198.6C69.4648 198.6 68.9492 199.174 68.7852 200.322H71.7734V200.094C71.7852 199.619 71.665 199.253 71.4131 198.995C71.1611 198.731 70.8008 198.6 70.332 198.6ZM83.0762 196.49L83.1729 197.606C83.8291 196.745 84.7344 196.314 85.8887 196.314C86.8789 196.314 87.6172 196.61 88.1035 197.202C88.5957 197.794 88.8506 198.685 88.8682 199.874V206H85.8975V199.997C85.8975 199.517 85.8008 199.165 85.6074 198.942C85.4141 198.714 85.0625 198.6 84.5527 198.6C83.9727 198.6 83.542 198.828 83.2607 199.285V206H80.2988V196.49H83.0762ZM90.1426 201.157C90.1426 200.208 90.3271 199.364 90.6963 198.626C91.0654 197.882 91.5957 197.311 92.2871 196.912C92.9785 196.514 93.79 196.314 94.7217 196.314C96.1455 196.314 97.2676 196.757 98.0879 197.642C98.9082 198.521 99.3184 199.719 99.3184 201.236V201.342C99.3184 202.824 98.9053 204.002 98.0791 204.875C97.2588 205.742 96.1455 206.176 94.7393 206.176C93.3857 206.176 92.2988 205.771 91.4785 204.963C90.6582 204.148 90.2158 203.047 90.1514 201.658L90.1426 201.157ZM93.1045 201.342C93.1045 202.221 93.2422 202.865 93.5176 203.275C93.793 203.686 94.2002 203.891 94.7393 203.891C95.7939 203.891 96.333 203.079 96.3564 201.456V201.157C96.3564 199.452 95.8115 198.6 94.7217 198.6C93.7314 198.6 93.1953 199.335 93.1133 200.806L93.1045 201.342ZM110.463 206C110.357 205.807 110.264 205.522 110.182 205.147C109.637 205.833 108.875 206.176 107.896 206.176C107 206.176 106.238 205.906 105.611 205.367C104.984 204.822 104.671 204.14 104.671 203.319C104.671 202.288 105.052 201.509 105.813 200.981C106.575 200.454 107.683 200.19 109.136 200.19H110.05V199.689C110.05 198.816 109.672 198.38 108.916 198.38C108.213 198.38 107.861 198.726 107.861 199.417H104.899C104.899 198.497 105.289 197.75 106.068 197.176C106.854 196.602 107.853 196.314 109.065 196.314C110.278 196.314 111.236 196.61 111.939 197.202C112.643 197.794 113.003 198.605 113.021 199.637V203.847C113.032 204.72 113.167 205.388 113.425 205.851V206H110.463ZM108.608 204.066C108.978 204.066 109.282 203.987 109.522 203.829C109.769 203.671 109.944 203.492 110.05 203.293V201.772H109.188C108.157 201.772 107.642 202.235 107.642 203.161C107.642 203.431 107.732 203.65 107.914 203.82C108.096 203.984 108.327 204.066 108.608 204.066ZM118.689 203.891C119.105 203.891 119.428 203.779 119.656 203.557C119.885 203.328 119.996 203.012 119.99 202.607H122.768C122.768 203.65 122.393 204.506 121.643 205.174C120.898 205.842 119.938 206.176 118.76 206.176C117.377 206.176 116.287 205.742 115.49 204.875C114.693 204.008 114.295 202.807 114.295 201.271V201.148C114.295 200.188 114.471 199.341 114.822 198.608C115.18 197.87 115.692 197.305 116.36 196.912C117.028 196.514 117.819 196.314 118.733 196.314C119.97 196.314 120.951 196.657 121.678 197.343C122.404 198.028 122.768 198.957 122.768 200.129H119.99C119.99 199.637 119.87 199.259 119.63 198.995C119.39 198.731 119.067 198.6 118.663 198.6C117.896 198.6 117.447 199.089 117.318 200.067C117.277 200.378 117.257 200.806 117.257 201.351C117.257 202.306 117.371 202.968 117.6 203.337C117.828 203.706 118.191 203.891 118.689 203.891ZM127.47 194.126V196.49H129.034V198.547H127.47V202.897C127.47 203.255 127.534 203.504 127.663 203.645C127.792 203.785 128.047 203.855 128.428 203.855C128.721 203.855 128.967 203.838 129.166 203.803V205.921C128.633 206.091 128.076 206.176 127.496 206.176C126.477 206.176 125.724 205.936 125.237 205.455C124.751 204.975 124.508 204.245 124.508 203.267V198.547H123.295V196.49H124.508V194.126H127.47ZM133.332 206H130.361V196.49H133.332V206ZM130.186 194.038C130.186 193.616 130.338 193.271 130.643 193.001C130.947 192.731 131.343 192.597 131.829 192.597C132.315 192.597 132.711 192.731 133.016 193.001C133.32 193.271 133.473 193.616 133.473 194.038C133.473 194.46 133.32 194.806 133.016 195.075C132.711 195.345 132.315 195.479 131.829 195.479C131.343 195.479 130.947 195.345 130.643 195.075C130.338 194.806 130.186 194.46 130.186 194.038ZM134.791 201.157C134.791 200.208 134.976 199.364 135.345 198.626C135.714 197.882 136.244 197.311 136.936 196.912C137.627 196.514 138.438 196.314 139.37 196.314C140.794 196.314 141.916 196.757 142.736 197.642C143.557 198.521 143.967 199.719 143.967 201.236V201.342C143.967 202.824 143.554 204.002 142.728 204.875C141.907 205.742 140.794 206.176 139.388 206.176C138.034 206.176 136.947 205.771 136.127 204.963C135.307 204.148 134.864 203.047 134.8 201.658L134.791 201.157ZM137.753 201.342C137.753 202.221 137.891 202.865 138.166 203.275C138.441 203.686 138.849 203.891 139.388 203.891C140.442 203.891 140.981 203.079 141.005 201.456V201.157C141.005 199.452 140.46 198.6 139.37 198.6C138.38 198.6 137.844 199.335 137.762 200.806L137.753 201.342ZM147.992 196.49L148.089 197.606C148.745 196.745 149.65 196.314 150.805 196.314C151.795 196.314 152.533 196.61 153.02 197.202C153.512 197.794 153.767 198.685 153.784 199.874V206H150.813V199.997C150.813 199.517 150.717 199.165 150.523 198.942C150.33 198.714 149.979 198.6 149.469 198.6C148.889 198.6 148.458 198.828 148.177 199.285V206H145.215V196.49H147.992ZM165.271 206C165.166 205.807 165.072 205.522 164.99 205.147C164.445 205.833 163.684 206.176 162.705 206.176C161.809 206.176 161.047 205.906 160.42 205.367C159.793 204.822 159.479 204.14 159.479 203.319C159.479 202.288 159.86 201.509 160.622 200.981C161.384 200.454 162.491 200.19 163.944 200.19H164.858V199.689C164.858 198.816 164.48 198.38 163.725 198.38C163.021 198.38 162.67 198.726 162.67 199.417H159.708C159.708 198.497 160.098 197.75 160.877 197.176C161.662 196.602 162.661 196.314 163.874 196.314C165.087 196.314 166.045 196.61 166.748 197.202C167.451 197.794 167.812 198.605 167.829 199.637V203.847C167.841 204.72 167.976 205.388 168.233 205.851V206H165.271ZM163.417 204.066C163.786 204.066 164.091 203.987 164.331 203.829C164.577 203.671 164.753 203.492 164.858 203.293V201.772H163.997C162.966 201.772 162.45 202.235 162.45 203.161C162.45 203.431 162.541 203.65 162.723 203.82C162.904 203.984 163.136 204.066 163.417 204.066ZM172.197 196.49L172.294 197.606C172.95 196.745 173.855 196.314 175.01 196.314C176 196.314 176.738 196.61 177.225 197.202C177.717 197.794 177.972 198.685 177.989 199.874V206H175.019V199.997C175.019 199.517 174.922 199.165 174.729 198.942C174.535 198.714 174.184 198.6 173.674 198.6C173.094 198.6 172.663 198.828 172.382 199.285V206H169.42V196.49H172.197ZM179.264 201.175C179.264 199.669 179.589 198.482 180.239 197.615C180.89 196.748 181.798 196.314 182.964 196.314C183.813 196.314 184.528 196.648 185.108 197.316V192.5H188.079V206H185.416L185.267 204.98C184.657 205.777 183.884 206.176 182.946 206.176C181.815 206.176 180.919 205.742 180.257 204.875C179.595 204.008 179.264 202.774 179.264 201.175ZM182.226 201.359C182.226 203.047 182.718 203.891 183.702 203.891C184.358 203.891 184.827 203.615 185.108 203.064V199.443C184.839 198.881 184.376 198.6 183.72 198.6C182.806 198.6 182.311 199.338 182.234 200.814L182.226 201.359ZM193.897 201.175C193.897 200.214 194.056 199.364 194.372 198.626C194.688 197.888 195.143 197.319 195.734 196.921C196.326 196.517 197.015 196.314 197.8 196.314C198.79 196.314 199.563 196.648 200.12 197.316L200.226 196.49H202.915V205.64C202.915 206.478 202.719 207.204 202.326 207.819C201.939 208.44 201.377 208.915 200.639 209.243C199.9 209.577 199.045 209.744 198.072 209.744C197.375 209.744 196.698 209.612 196.042 209.349C195.392 209.085 194.894 208.742 194.548 208.32L195.787 206.58C196.338 207.23 197.064 207.556 197.967 207.556C199.279 207.556 199.936 206.882 199.936 205.534V205.235C199.367 205.862 198.649 206.176 197.782 206.176C196.622 206.176 195.685 205.733 194.97 204.849C194.255 203.958 193.897 202.769 193.897 201.28V201.175ZM196.868 201.359C196.868 202.139 197.015 202.757 197.308 203.214C197.601 203.665 198.011 203.891 198.538 203.891C199.177 203.891 199.643 203.677 199.936 203.249V199.25C199.648 198.816 199.188 198.6 198.556 198.6C198.028 198.6 197.615 198.837 197.316 199.312C197.018 199.78 196.868 200.463 196.868 201.359ZM204.225 201.157C204.225 200.208 204.409 199.364 204.778 198.626C205.147 197.882 205.678 197.311 206.369 196.912C207.061 196.514 207.872 196.314 208.804 196.314C210.228 196.314 211.35 196.757 212.17 197.642C212.99 198.521 213.4 199.719 213.4 201.236V201.342C213.4 202.824 212.987 204.002 212.161 204.875C211.341 205.742 210.228 206.176 208.821 206.176C207.468 206.176 206.381 205.771 205.561 204.963C204.74 204.148 204.298 203.047 204.233 201.658L204.225 201.157ZM207.187 201.342C207.187 202.221 207.324 202.865 207.6 203.275C207.875 203.686 208.282 203.891 208.821 203.891C209.876 203.891 210.415 203.079 210.438 201.456V201.157C210.438 199.452 209.894 198.6 208.804 198.6C207.813 198.6 207.277 199.335 207.195 200.806L207.187 201.342ZM53.4395 215.126V217.49H55.0039V219.547H53.4395V223.897C53.4395 224.255 53.5039 224.504 53.6328 224.645C53.7617 224.785 54.0166 224.855 54.3975 224.855C54.6904 224.855 54.9365 224.838 55.1357 224.803V226.921C54.6025 227.091 54.0459 227.176 53.4658 227.176C52.4463 227.176 51.6934 226.936 51.207 226.455C50.7207 225.975 50.4775 225.245 50.4775 224.267V219.547H49.2646V217.49H50.4775V215.126H53.4395ZM55.54 222.157C55.54 221.208 55.7246 220.364 56.0938 219.626C56.4629 218.882 56.9932 218.311 57.6846 217.912C58.376 217.514 59.1875 217.314 60.1191 217.314C61.543 217.314 62.665 217.757 63.4854 218.642C64.3057 219.521 64.7158 220.719 64.7158 222.236V222.342C64.7158 223.824 64.3027 225.002 63.4766 225.875C62.6562 226.742 61.543 227.176 60.1367 227.176C58.7832 227.176 57.6963 226.771 56.876 225.963C56.0557 225.148 55.6133 224.047 55.5488 222.658L55.54 222.157ZM58.502 222.342C58.502 223.221 58.6396 223.865 58.915 224.275C59.1904 224.686 59.5977 224.891 60.1367 224.891C61.1914 224.891 61.7305 224.079 61.7539 222.456V222.157C61.7539 220.452 61.209 219.6 60.1191 219.6C59.1289 219.6 58.5928 220.335 58.5107 221.806L58.502 222.342ZM73.2236 217.49L73.3203 218.606C73.9766 217.745 74.8818 217.314 76.0361 217.314C77.0264 217.314 77.7646 217.61 78.251 218.202C78.7432 218.794 78.998 219.685 79.0156 220.874V227H76.0449V220.997C76.0449 220.517 75.9482 220.165 75.7549 219.942C75.5615 219.714 75.21 219.6 74.7002 219.6C74.1201 219.6 73.6895 219.828 73.4082 220.285V227H70.4463V217.49H73.2236ZM85.2646 227.176C83.8057 227.176 82.625 226.742 81.7227 225.875C80.8203 225.002 80.3691 223.868 80.3691 222.474V222.228C80.3691 221.255 80.5479 220.396 80.9053 219.652C81.2686 218.908 81.7959 218.334 82.4873 217.93C83.1787 217.52 83.999 217.314 84.9482 217.314C86.2842 217.314 87.3389 217.73 88.1123 218.562C88.8857 219.389 89.2725 220.543 89.2725 222.025V223.177H83.3838C83.4893 223.71 83.7207 224.129 84.0781 224.434C84.4355 224.738 84.8984 224.891 85.4668 224.891C86.4043 224.891 87.1367 224.562 87.6641 223.906L89.0176 225.506C88.6484 226.016 88.124 226.423 87.4443 226.728C86.7705 227.026 86.0439 227.176 85.2646 227.176ZM84.9307 219.6C84.0635 219.6 83.5479 220.174 83.3838 221.322H86.3721V221.094C86.3838 220.619 86.2637 220.253 86.0117 219.995C85.7598 219.731 85.3994 219.6 84.9307 219.6ZM94.3262 220.109L95.7061 217.49H98.7822L96.2773 222.122L98.9053 227H95.8115L94.3174 224.188L92.8496 227H89.7383L92.375 222.122L89.8789 217.49H92.9902L94.3262 220.109ZM103.186 215.126V217.49H104.75V219.547H103.186V223.897C103.186 224.255 103.25 224.504 103.379 224.645C103.508 224.785 103.763 224.855 104.144 224.855C104.437 224.855 104.683 224.838 104.882 224.803V226.921C104.349 227.091 103.792 227.176 103.212 227.176C102.192 227.176 101.439 226.936 100.953 226.455C100.467 225.975 100.224 225.245 100.224 224.267V219.547H99.0107V217.49H100.224V215.126H103.186ZM113.855 215.126V217.49H115.42V219.547H113.855V223.897C113.855 224.255 113.92 224.504 114.049 224.645C114.178 224.785 114.433 224.855 114.813 224.855C115.106 224.855 115.353 224.838 115.552 224.803V226.921C115.019 227.091 114.462 227.176 113.882 227.176C112.862 227.176 112.109 226.936 111.623 226.455C111.137 225.975 110.894 225.245 110.894 224.267V219.547H109.681V217.49H110.894V215.126H113.855ZM122.346 220.171L121.37 220.101C120.438 220.101 119.841 220.394 119.577 220.979V227H116.615V217.49H119.393L119.489 218.712C119.987 217.78 120.682 217.314 121.572 217.314C121.889 217.314 122.164 217.35 122.398 217.42L122.346 220.171ZM128.507 227C128.401 226.807 128.308 226.522 128.226 226.147C127.681 226.833 126.919 227.176 125.94 227.176C125.044 227.176 124.282 226.906 123.655 226.367C123.028 225.822 122.715 225.14 122.715 224.319C122.715 223.288 123.096 222.509 123.857 221.981C124.619 221.454 125.727 221.19 127.18 221.19H128.094V220.689C128.094 219.816 127.716 219.38 126.96 219.38C126.257 219.38 125.905 219.726 125.905 220.417H122.943C122.943 219.497 123.333 218.75 124.112 218.176C124.897 217.602 125.896 217.314 127.109 217.314C128.322 217.314 129.28 217.61 129.983 218.202C130.687 218.794 131.047 219.605 131.064 220.637V224.847C131.076 225.72 131.211 226.388 131.469 226.851V227H128.507ZM126.652 225.066C127.021 225.066 127.326 224.987 127.566 224.829C127.812 224.671 127.988 224.492 128.094 224.293V222.772H127.232C126.201 222.772 125.686 223.235 125.686 224.161C125.686 224.431 125.776 224.65 125.958 224.82C126.14 224.984 126.371 225.066 126.652 225.066ZM132.339 222.175C132.339 220.669 132.664 219.482 133.314 218.615C133.965 217.748 134.873 217.314 136.039 217.314C136.889 217.314 137.604 217.648 138.184 218.316V213.5H141.154V227H138.491L138.342 225.98C137.732 226.777 136.959 227.176 136.021 227.176C134.891 227.176 133.994 226.742 133.332 225.875C132.67 225.008 132.339 223.774 132.339 222.175ZM135.301 222.359C135.301 224.047 135.793 224.891 136.777 224.891C137.434 224.891 137.902 224.615 138.184 224.064V220.443C137.914 219.881 137.451 219.6 136.795 219.6C135.881 219.6 135.386 220.338 135.31 221.814L135.301 222.359ZM145.962 227H142.991V217.49H145.962V227ZM142.815 215.038C142.815 214.616 142.968 214.271 143.272 214.001C143.577 213.731 143.973 213.597 144.459 213.597C144.945 213.597 145.341 213.731 145.646 214.001C145.95 214.271 146.103 214.616 146.103 215.038C146.103 215.46 145.95 215.806 145.646 216.075C145.341 216.345 144.945 216.479 144.459 216.479C143.973 216.479 143.577 216.345 143.272 216.075C142.968 215.806 142.815 215.46 142.815 215.038ZM150.515 217.49L150.611 218.606C151.268 217.745 152.173 217.314 153.327 217.314C154.317 217.314 155.056 217.61 155.542 218.202C156.034 218.794 156.289 219.685 156.307 220.874V227H153.336V220.997C153.336 220.517 153.239 220.165 153.046 219.942C152.853 219.714 152.501 219.6 151.991 219.6C151.411 219.6 150.98 219.828 150.699 220.285V227H147.737V217.49H150.515ZM157.607 222.175C157.607 221.214 157.766 220.364 158.082 219.626C158.398 218.888 158.853 218.319 159.444 217.921C160.036 217.517 160.725 217.314 161.51 217.314C162.5 217.314 163.273 217.648 163.83 218.316L163.936 217.49H166.625V226.64C166.625 227.478 166.429 228.204 166.036 228.819C165.649 229.44 165.087 229.915 164.349 230.243C163.61 230.577 162.755 230.744 161.782 230.744C161.085 230.744 160.408 230.612 159.752 230.349C159.102 230.085 158.604 229.742 158.258 229.32L159.497 227.58C160.048 228.23 160.774 228.556 161.677 228.556C162.989 228.556 163.646 227.882 163.646 226.534V226.235C163.077 226.862 162.359 227.176 161.492 227.176C160.332 227.176 159.395 226.733 158.68 225.849C157.965 224.958 157.607 223.769 157.607 222.28V222.175ZM160.578 222.359C160.578 223.139 160.725 223.757 161.018 224.214C161.311 224.665 161.721 224.891 162.248 224.891C162.887 224.891 163.353 224.677 163.646 224.249V220.25C163.358 219.816 162.898 219.6 162.266 219.6C161.738 219.6 161.325 219.837 161.026 220.312C160.728 220.78 160.578 221.463 160.578 222.359ZM172.417 222.175C172.417 220.669 172.742 219.482 173.393 218.615C174.043 217.748 174.951 217.314 176.117 217.314C176.967 217.314 177.682 217.648 178.262 218.316V213.5H181.232V227H178.569L178.42 225.98C177.811 226.777 177.037 227.176 176.1 227.176C174.969 227.176 174.072 226.742 173.41 225.875C172.748 225.008 172.417 223.774 172.417 222.175ZM175.379 222.359C175.379 224.047 175.871 224.891 176.855 224.891C177.512 224.891 177.98 224.615 178.262 224.064V220.443C177.992 219.881 177.529 219.6 176.873 219.6C175.959 219.6 175.464 220.338 175.388 221.814L175.379 222.359ZM188.272 227C188.167 226.807 188.073 226.522 187.991 226.147C187.446 226.833 186.685 227.176 185.706 227.176C184.81 227.176 184.048 226.906 183.421 226.367C182.794 225.822 182.48 225.14 182.48 224.319C182.48 223.288 182.861 222.509 183.623 221.981C184.385 221.454 185.492 221.19 186.945 221.19H187.859V220.689C187.859 219.816 187.481 219.38 186.726 219.38C186.022 219.38 185.671 219.726 185.671 220.417H182.709C182.709 219.497 183.099 218.75 183.878 218.176C184.663 217.602 185.662 217.314 186.875 217.314C188.088 217.314 189.046 217.61 189.749 218.202C190.452 218.794 190.812 219.605 190.83 220.637V224.847C190.842 225.72 190.977 226.388 191.234 226.851V227H188.272ZM186.418 225.066C186.787 225.066 187.092 224.987 187.332 224.829C187.578 224.671 187.754 224.492 187.859 224.293V222.772H186.998C185.967 222.772 185.451 223.235 185.451 224.161C185.451 224.431 185.542 224.65 185.724 224.82C185.905 224.984 186.137 225.066 186.418 225.066ZM196.139 222.852L197.721 217.49H200.894L197.018 228.591L196.851 228.995C196.3 230.226 195.327 230.841 193.933 230.841C193.546 230.841 193.139 230.782 192.711 230.665V228.547H193.098C193.514 228.547 193.83 228.485 194.047 228.362C194.27 228.245 194.434 228.031 194.539 227.721L194.776 227.088L191.472 217.49H194.636L196.139 222.852Z" fill="white"/>
<g id="day1BuyBT">
<rect id="Rectangle 18" x="14" y="117" width="219" height="44" rx="9" fill="#6BB8FF"/>
<path id="Buy" d="M117.611 150V128.672H125.272C128.017 128.672 130.102 129.175 131.527 130.181C132.963 131.187 133.681 132.646 133.681 134.561C133.681 135.664 133.427 136.606 132.919 137.388C132.411 138.169 131.664 138.745 130.678 139.116C131.791 139.409 132.646 139.956 133.241 140.757C133.837 141.558 134.135 142.534 134.135 143.687C134.135 145.776 133.471 147.349 132.143 148.403C130.824 149.448 128.866 149.98 126.269 150H117.611ZM122.753 140.933V146.045H126.122C127.05 146.045 127.763 145.835 128.261 145.415C128.759 144.985 129.008 144.385 129.008 143.613C129.008 141.836 128.124 140.942 126.356 140.933H122.753ZM122.753 137.563H125.434C126.557 137.554 127.357 137.349 127.836 136.948C128.314 136.548 128.554 135.957 128.554 135.176C128.554 134.277 128.295 133.633 127.777 133.242C127.26 132.842 126.425 132.642 125.272 132.642H122.753V137.563ZM146.19 148.286C145.146 149.624 143.734 150.293 141.957 150.293C140.219 150.293 138.9 149.79 138.002 148.784C137.113 147.769 136.669 146.313 136.669 144.419V134.15H141.605V144.448C141.605 145.806 142.265 146.484 143.583 146.484C144.716 146.484 145.521 146.079 146 145.269V134.15H150.966V150H146.337L146.19 148.286ZM160.019 143.086L162.655 134.15H167.943L161.483 152.651L161.205 153.325C160.287 155.376 158.666 156.401 156.342 156.401C155.697 156.401 155.019 156.304 154.306 156.108V152.578H154.95C155.644 152.578 156.171 152.476 156.532 152.271C156.903 152.075 157.177 151.719 157.353 151.201L157.748 150.146L152.24 134.15H157.514L160.019 143.086Z" fill="white"/>
<g id="Group 12">
<circle id="Ellipse 1" cx="91" cy="139" r="12" fill="#6BB8FF"/>
</g>
</g>
<g id="Group 16">
<circle id="Ellipse 3" cx="96" cy="138" r="11" fill="#6BB8FF" stroke="white" stroke-width="2"/>
<line id="Line 5" x1="90" y1="138" x2="102" y2="138" stroke="white" stroke-width="2" stroke-linecap="round"/>
<line id="Line 7" x1="96" y1="132" x2="96" y2="145" stroke="white" stroke-width="2" stroke-linecap="round"/>
</g>
</g>
</svg>
