<svg width="249" height="373" viewBox="0 0 249 373" fill="none" xmlns="http://www.w3.org/2000/svg">
<g id="day1Action">
<rect id="back" x="1.5" y="1.5" width="246" height="370" fill="white" stroke="#E5E5E5" stroke-width="3"/>
<rect id="confirmBT" x="14" y="243" width="219" height="56" rx="7" fill="#6BB8FF"/>
<path id="Your trades will take action in the next day when the market opens again." d="M22.5918 318.752L24.8184 314.469H26.0957L23.1543 319.818V323H22.0293V319.818L19.0879 314.469H20.377L22.5918 318.752ZM26.3535 319.771C26.3535 319.15 26.4746 318.592 26.7168 318.096C26.9629 317.6 27.3027 317.217 27.7363 316.947C28.1738 316.678 28.6719 316.543 29.2305 316.543C30.0938 316.543 30.791 316.842 31.3223 317.439C31.8574 318.037 32.125 318.832 32.125 319.824V319.9C32.125 320.518 32.0059 321.072 31.7676 321.564C31.5332 322.053 31.1953 322.434 30.7539 322.707C30.3164 322.98 29.8125 323.117 29.2422 323.117C28.3828 323.117 27.6855 322.818 27.1504 322.221C26.6191 321.623 26.3535 320.832 26.3535 319.848V319.771ZM27.4434 319.9C27.4434 320.604 27.6055 321.168 27.9297 321.594C28.2578 322.02 28.6953 322.232 29.2422 322.232C29.793 322.232 30.2305 322.018 30.5547 321.588C30.8789 321.154 31.041 320.549 31.041 319.771C31.041 319.076 30.875 318.514 30.543 318.084C30.2148 317.65 29.7773 317.434 29.2305 317.434C28.6953 317.434 28.2637 317.646 27.9355 318.072C27.6074 318.498 27.4434 319.107 27.4434 319.9ZM37.3984 322.373C36.9766 322.869 36.3574 323.117 35.541 323.117C34.8652 323.117 34.3496 322.922 33.9941 322.531C33.6426 322.137 33.4648 321.555 33.4609 320.785V316.66H34.5449V320.756C34.5449 321.717 34.9355 322.197 35.7168 322.197C36.5449 322.197 37.0957 321.889 37.3691 321.271V316.66H38.4531V323H37.4219L37.3984 322.373ZM43.1699 317.633C43.0059 317.605 42.8281 317.592 42.6367 317.592C41.9258 317.592 41.4434 317.895 41.1895 318.5V323H40.1055V316.66H41.1602L41.1777 317.393C41.5332 316.826 42.0371 316.543 42.6895 316.543C42.9004 316.543 43.0605 316.57 43.1699 316.625V317.633ZM48.6191 315.125V316.66H49.8027V317.498H48.6191V321.43C48.6191 321.684 48.6719 321.875 48.7773 322.004C48.8828 322.129 49.0625 322.191 49.3164 322.191C49.4414 322.191 49.6133 322.168 49.832 322.121V323C49.5469 323.078 49.2695 323.117 49 323.117C48.5156 323.117 48.1504 322.971 47.9043 322.678C47.6582 322.385 47.5352 321.969 47.5352 321.43V317.498H46.3809V316.66H47.5352V315.125H48.6191ZM54.1387 317.633C53.9746 317.605 53.7969 317.592 53.6055 317.592C52.8945 317.592 52.4121 317.895 52.1582 318.5V323H51.0742V316.66H52.1289L52.1465 317.393C52.502 316.826 53.0059 316.543 53.6582 316.543C53.8691 316.543 54.0293 316.57 54.1387 316.625V317.633ZM58.8203 323C58.7578 322.875 58.707 322.652 58.668 322.332C58.1641 322.855 57.5625 323.117 56.8633 323.117C56.2383 323.117 55.7246 322.941 55.3223 322.59C54.9238 322.234 54.7246 321.785 54.7246 321.242C54.7246 320.582 54.9746 320.07 55.4746 319.707C55.9785 319.34 56.6855 319.156 57.5957 319.156H58.6504V318.658C58.6504 318.279 58.5371 317.979 58.3105 317.756C58.084 317.529 57.75 317.416 57.3086 317.416C56.9219 317.416 56.5977 317.514 56.3359 317.709C56.0742 317.904 55.9434 318.141 55.9434 318.418H54.8535C54.8535 318.102 54.9648 317.797 55.1875 317.504C55.4141 317.207 55.7188 316.973 56.1016 316.801C56.4883 316.629 56.9121 316.543 57.373 316.543C58.1035 316.543 58.6758 316.727 59.0898 317.094C59.5039 317.457 59.7188 317.959 59.7344 318.6V321.518C59.7344 322.1 59.8086 322.562 59.957 322.906V323H58.8203ZM57.0215 322.174C57.3613 322.174 57.6836 322.086 57.9883 321.91C58.293 321.734 58.5137 321.506 58.6504 321.225V319.924H57.8008C56.4727 319.924 55.8086 320.312 55.8086 321.09C55.8086 321.43 55.9219 321.695 56.1484 321.887C56.375 322.078 56.666 322.174 57.0215 322.174ZM61.1699 319.777C61.1699 318.805 61.4004 318.023 61.8613 317.434C62.3223 316.84 62.9258 316.543 63.6719 316.543C64.4141 316.543 65.002 316.797 65.4355 317.305V314H66.5195V323H65.5234L65.4707 322.32C65.0371 322.852 64.4336 323.117 63.6602 323.117C62.9258 323.117 62.3262 322.816 61.8613 322.215C61.4004 321.613 61.1699 320.828 61.1699 319.859V319.777ZM62.2539 319.9C62.2539 320.619 62.4023 321.182 62.6992 321.588C62.9961 321.994 63.4062 322.197 63.9297 322.197C64.6172 322.197 65.1191 321.889 65.4355 321.271V318.359C65.1113 317.762 64.6133 317.463 63.9414 317.463C63.4102 317.463 62.9961 317.668 62.6992 318.078C62.4023 318.488 62.2539 319.096 62.2539 319.9ZM70.8379 323.117C69.9785 323.117 69.2793 322.836 68.7402 322.273C68.2012 321.707 67.9316 320.951 67.9316 320.006V319.807C67.9316 319.178 68.0508 318.617 68.2891 318.125C68.5312 317.629 68.8672 317.242 69.2969 316.965C69.7305 316.684 70.1992 316.543 70.7031 316.543C71.5273 316.543 72.168 316.814 72.625 317.357C73.082 317.9 73.3105 318.678 73.3105 319.689V320.141H69.0156C69.0312 320.766 69.2129 321.271 69.5605 321.658C69.9121 322.041 70.3574 322.232 70.8965 322.232C71.2793 322.232 71.6035 322.154 71.8691 321.998C72.1348 321.842 72.3672 321.635 72.5664 321.377L73.2285 321.893C72.6973 322.709 71.9004 323.117 70.8379 323.117ZM70.7031 317.434C70.2656 317.434 69.8984 317.594 69.6016 317.914C69.3047 318.23 69.1211 318.676 69.0508 319.25H72.2266V319.168C72.1953 318.617 72.0469 318.191 71.7812 317.891C71.5156 317.586 71.1562 317.434 70.7031 317.434ZM78.2617 321.318C78.2617 321.025 78.1504 320.799 77.9277 320.639C77.709 320.475 77.3242 320.334 76.7734 320.217C76.2266 320.1 75.791 319.959 75.4668 319.795C75.1465 319.631 74.9082 319.436 74.752 319.209C74.5996 318.982 74.5234 318.713 74.5234 318.4C74.5234 317.881 74.7422 317.441 75.1797 317.082C75.6211 316.723 76.1836 316.543 76.8672 316.543C77.5859 316.543 78.168 316.729 78.6133 317.1C79.0625 317.471 79.2871 317.945 79.2871 318.523H78.1973C78.1973 318.227 78.0703 317.971 77.8164 317.756C77.5664 317.541 77.25 317.434 76.8672 317.434C76.4727 317.434 76.1641 317.52 75.9414 317.691C75.7188 317.863 75.6074 318.088 75.6074 318.365C75.6074 318.627 75.7109 318.824 75.918 318.957C76.125 319.09 76.498 319.217 77.0371 319.338C77.5801 319.459 78.0195 319.604 78.3555 319.771C78.6914 319.939 78.9395 320.143 79.0996 320.381C79.2637 320.615 79.3457 320.902 79.3457 321.242C79.3457 321.809 79.1191 322.264 78.666 322.607C78.2129 322.947 77.625 323.117 76.9023 323.117C76.3945 323.117 75.9453 323.027 75.5547 322.848C75.1641 322.668 74.8574 322.418 74.6348 322.098C74.416 321.773 74.3066 321.424 74.3066 321.049H75.3906C75.4102 321.412 75.5547 321.701 75.8242 321.916C76.0977 322.127 76.457 322.232 76.9023 322.232C77.3125 322.232 77.6406 322.15 77.8867 321.986C78.1367 321.818 78.2617 321.596 78.2617 321.318ZM89.3477 321.506L90.5664 316.66H91.6504L89.8047 323H88.9258L87.3848 318.195L85.8848 323H85.0059L83.166 316.66H84.2441L85.4922 321.406L86.9688 316.66H87.8418L89.3477 321.506ZM93.9355 323H92.8516V316.66H93.9355V323ZM92.7637 314.979C92.7637 314.803 92.8164 314.654 92.9219 314.533C93.0312 314.412 93.1914 314.352 93.4023 314.352C93.6133 314.352 93.7734 314.412 93.8828 314.533C93.9922 314.654 94.0469 314.803 94.0469 314.979C94.0469 315.154 93.9922 315.301 93.8828 315.418C93.7734 315.535 93.6133 315.594 93.4023 315.594C93.1914 315.594 93.0312 315.535 92.9219 315.418C92.8164 315.301 92.7637 315.154 92.7637 314.979ZM96.8535 323H95.7695V314H96.8535V323ZM99.7715 323H98.6875V314H99.7715V323ZM105.959 315.125V316.66H107.143V317.498H105.959V321.43C105.959 321.684 106.012 321.875 106.117 322.004C106.223 322.129 106.402 322.191 106.656 322.191C106.781 322.191 106.953 322.168 107.172 322.121V323C106.887 323.078 106.609 323.117 106.34 323.117C105.855 323.117 105.49 322.971 105.244 322.678C104.998 322.385 104.875 321.969 104.875 321.43V317.498H103.721V316.66H104.875V315.125H105.959ZM112.328 323C112.266 322.875 112.215 322.652 112.176 322.332C111.672 322.855 111.07 323.117 110.371 323.117C109.746 323.117 109.232 322.941 108.83 322.59C108.432 322.234 108.232 321.785 108.232 321.242C108.232 320.582 108.482 320.07 108.982 319.707C109.486 319.34 110.193 319.156 111.104 319.156H112.158V318.658C112.158 318.279 112.045 317.979 111.818 317.756C111.592 317.529 111.258 317.416 110.816 317.416C110.43 317.416 110.105 317.514 109.844 317.709C109.582 317.904 109.451 318.141 109.451 318.418H108.361C108.361 318.102 108.473 317.797 108.695 317.504C108.922 317.207 109.227 316.973 109.609 316.801C109.996 316.629 110.42 316.543 110.881 316.543C111.611 316.543 112.184 316.727 112.598 317.094C113.012 317.457 113.227 317.959 113.242 318.6V321.518C113.242 322.1 113.316 322.562 113.465 322.906V323H112.328ZM110.529 322.174C110.869 322.174 111.191 322.086 111.496 321.91C111.801 321.734 112.021 321.506 112.158 321.225V319.924H111.309C109.98 319.924 109.316 320.312 109.316 321.09C109.316 321.43 109.43 321.695 109.656 321.887C109.883 322.078 110.174 322.174 110.529 322.174ZM116.711 320.064L116.031 320.773V323H114.947V314H116.031V319.443L116.611 318.746L118.586 316.66H119.904L117.438 319.309L120.191 323H118.92L116.711 320.064ZM123.537 323.117C122.678 323.117 121.979 322.836 121.439 322.273C120.9 321.707 120.631 320.951 120.631 320.006V319.807C120.631 319.178 120.75 318.617 120.988 318.125C121.23 317.629 121.566 317.242 121.996 316.965C122.43 316.684 122.898 316.543 123.402 316.543C124.227 316.543 124.867 316.814 125.324 317.357C125.781 317.9 126.01 318.678 126.01 319.689V320.141H121.715C121.73 320.766 121.912 321.271 122.26 321.658C122.611 322.041 123.057 322.232 123.596 322.232C123.979 322.232 124.303 322.154 124.568 321.998C124.834 321.842 125.066 321.635 125.266 321.377L125.928 321.893C125.396 322.709 124.6 323.117 123.537 323.117ZM123.402 317.434C122.965 317.434 122.598 317.594 122.301 317.914C122.004 318.23 121.82 318.676 121.75 319.25H124.926V319.168C124.895 318.617 124.746 318.191 124.48 317.891C124.215 317.586 123.855 317.434 123.402 317.434ZM134.16 323C134.098 322.875 134.047 322.652 134.008 322.332C133.504 322.855 132.902 323.117 132.203 323.117C131.578 323.117 131.064 322.941 130.662 322.59C130.264 322.234 130.064 321.785 130.064 321.242C130.064 320.582 130.314 320.07 130.814 319.707C131.318 319.34 132.025 319.156 132.936 319.156H133.99V318.658C133.99 318.279 133.877 317.979 133.65 317.756C133.424 317.529 133.09 317.416 132.648 317.416C132.262 317.416 131.938 317.514 131.676 317.709C131.414 317.904 131.283 318.141 131.283 318.418H130.193C130.193 318.102 130.305 317.797 130.527 317.504C130.754 317.207 131.059 316.973 131.441 316.801C131.828 316.629 132.252 316.543 132.713 316.543C133.443 316.543 134.016 316.727 134.43 317.094C134.844 317.457 135.059 317.959 135.074 318.6V321.518C135.074 322.1 135.148 322.562 135.297 322.906V323H134.16ZM132.361 322.174C132.701 322.174 133.023 322.086 133.328 321.91C133.633 321.734 133.854 321.506 133.99 321.225V319.924H133.141C131.812 319.924 131.148 320.312 131.148 321.09C131.148 321.43 131.262 321.695 131.488 321.887C131.715 322.078 132.006 322.174 132.361 322.174ZM139.316 322.232C139.703 322.232 140.041 322.115 140.33 321.881C140.619 321.646 140.779 321.354 140.811 321.002H141.836C141.816 321.365 141.691 321.711 141.461 322.039C141.23 322.367 140.922 322.629 140.535 322.824C140.152 323.02 139.746 323.117 139.316 323.117C138.453 323.117 137.766 322.83 137.254 322.256C136.746 321.678 136.492 320.889 136.492 319.889V319.707C136.492 319.09 136.605 318.541 136.832 318.061C137.059 317.58 137.383 317.207 137.805 316.941C138.23 316.676 138.732 316.543 139.311 316.543C140.021 316.543 140.611 316.756 141.08 317.182C141.553 317.607 141.805 318.16 141.836 318.84H140.811C140.779 318.43 140.623 318.094 140.342 317.832C140.064 317.566 139.721 317.434 139.311 317.434C138.76 317.434 138.332 317.633 138.027 318.031C137.727 318.426 137.576 318.998 137.576 319.748V319.953C137.576 320.684 137.727 321.246 138.027 321.641C138.328 322.035 138.758 322.232 139.316 322.232ZM144.525 315.125V316.66H145.709V317.498H144.525V321.43C144.525 321.684 144.578 321.875 144.684 322.004C144.789 322.129 144.969 322.191 145.223 322.191C145.348 322.191 145.52 322.168 145.738 322.121V323C145.453 323.078 145.176 323.117 144.906 323.117C144.422 323.117 144.057 322.971 143.811 322.678C143.564 322.385 143.441 321.969 143.441 321.43V317.498H142.287V316.66H143.441V315.125H144.525ZM148.158 323H147.074V316.66H148.158V323ZM146.986 314.979C146.986 314.803 147.039 314.654 147.145 314.533C147.254 314.412 147.414 314.352 147.625 314.352C147.836 314.352 147.996 314.412 148.105 314.533C148.215 314.654 148.27 314.803 148.27 314.979C148.27 315.154 148.215 315.301 148.105 315.418C147.996 315.535 147.836 315.594 147.625 315.594C147.414 315.594 147.254 315.535 147.145 315.418C147.039 315.301 146.986 315.154 146.986 314.979ZM149.611 319.771C149.611 319.15 149.732 318.592 149.975 318.096C150.221 317.6 150.561 317.217 150.994 316.947C151.432 316.678 151.93 316.543 152.488 316.543C153.352 316.543 154.049 316.842 154.58 317.439C155.115 318.037 155.383 318.832 155.383 319.824V319.9C155.383 320.518 155.264 321.072 155.025 321.564C154.791 322.053 154.453 322.434 154.012 322.707C153.574 322.98 153.07 323.117 152.5 323.117C151.641 323.117 150.943 322.818 150.408 322.221C149.877 321.623 149.611 320.832 149.611 319.848V319.771ZM150.701 319.9C150.701 320.604 150.863 321.168 151.188 321.594C151.516 322.02 151.953 322.232 152.5 322.232C153.051 322.232 153.488 322.018 153.812 321.588C154.137 321.154 154.299 320.549 154.299 319.771C154.299 319.076 154.133 318.514 153.801 318.084C153.473 317.65 153.035 317.434 152.488 317.434C151.953 317.434 151.521 317.646 151.193 318.072C150.865 318.498 150.701 319.107 150.701 319.9ZM157.768 316.66L157.803 317.457C158.287 316.848 158.92 316.543 159.701 316.543C161.041 316.543 161.717 317.299 161.729 318.811V323H160.645V318.805C160.641 318.348 160.535 318.01 160.328 317.791C160.125 317.572 159.807 317.463 159.373 317.463C159.021 317.463 158.713 317.557 158.447 317.744C158.182 317.932 157.975 318.178 157.826 318.482V323H156.742V316.66H157.768ZM167.518 323H166.434V316.66H167.518V323ZM166.346 314.979C166.346 314.803 166.398 314.654 166.504 314.533C166.613 314.412 166.773 314.352 166.984 314.352C167.195 314.352 167.355 314.412 167.465 314.533C167.574 314.654 167.629 314.803 167.629 314.979C167.629 315.154 167.574 315.301 167.465 315.418C167.355 315.535 167.195 315.594 166.984 315.594C166.773 315.594 166.613 315.535 166.504 315.418C166.398 315.301 166.346 315.154 166.346 314.979ZM170.283 316.66L170.318 317.457C170.803 316.848 171.436 316.543 172.217 316.543C173.557 316.543 174.232 317.299 174.244 318.811V323H173.16V318.805C173.156 318.348 173.051 318.01 172.844 317.791C172.641 317.572 172.322 317.463 171.889 317.463C171.537 317.463 171.229 317.557 170.963 317.744C170.697 317.932 170.49 318.178 170.342 318.482V323H169.258V316.66H170.283ZM180.326 315.125V316.66H181.51V317.498H180.326V321.43C180.326 321.684 180.379 321.875 180.484 322.004C180.59 322.129 180.77 322.191 181.023 322.191C181.148 322.191 181.32 322.168 181.539 322.121V323C181.254 323.078 180.977 323.117 180.707 323.117C180.223 323.117 179.857 322.971 179.611 322.678C179.365 322.385 179.242 321.969 179.242 321.43V317.498H178.088V316.66H179.242V315.125H180.326ZM183.865 317.428C184.346 316.838 184.971 316.543 185.74 316.543C187.08 316.543 187.756 317.299 187.768 318.811V323H186.684V318.805C186.68 318.348 186.574 318.01 186.367 317.791C186.164 317.572 185.846 317.463 185.412 317.463C185.061 317.463 184.752 317.557 184.486 317.744C184.221 317.932 184.014 318.178 183.865 318.482V323H182.781V314H183.865V317.428ZM192.021 323.117C191.162 323.117 190.463 322.836 189.924 322.273C189.385 321.707 189.115 320.951 189.115 320.006V319.807C189.115 319.178 189.234 318.617 189.473 318.125C189.715 317.629 190.051 317.242 190.48 316.965C190.914 316.684 191.383 316.543 191.887 316.543C192.711 316.543 193.352 316.814 193.809 317.357C194.266 317.9 194.494 318.678 194.494 319.689V320.141H190.199C190.215 320.766 190.396 321.271 190.744 321.658C191.096 322.041 191.541 322.232 192.08 322.232C192.463 322.232 192.787 322.154 193.053 321.998C193.318 321.842 193.551 321.635 193.75 321.377L194.412 321.893C193.881 322.709 193.084 323.117 192.021 323.117ZM191.887 317.434C191.449 317.434 191.082 317.594 190.785 317.914C190.488 318.23 190.305 318.676 190.234 319.25H193.41V319.168C193.379 318.617 193.23 318.191 192.965 317.891C192.699 317.586 192.34 317.434 191.887 317.434ZM199.756 316.66L199.791 317.457C200.275 316.848 200.908 316.543 201.689 316.543C203.029 316.543 203.705 317.299 203.717 318.811V323H202.633V318.805C202.629 318.348 202.523 318.01 202.316 317.791C202.113 317.572 201.795 317.463 201.361 317.463C201.01 317.463 200.701 317.557 200.436 317.744C200.17 317.932 199.963 318.178 199.814 318.482V323H198.73V316.66H199.756ZM207.982 323.117C207.123 323.117 206.424 322.836 205.885 322.273C205.346 321.707 205.076 320.951 205.076 320.006V319.807C205.076 319.178 205.195 318.617 205.434 318.125C205.676 317.629 206.012 317.242 206.441 316.965C206.875 316.684 207.344 316.543 207.848 316.543C208.672 316.543 209.312 316.814 209.77 317.357C210.227 317.9 210.455 318.678 210.455 319.689V320.141H206.16C206.176 320.766 206.357 321.271 206.705 321.658C207.057 322.041 207.502 322.232 208.041 322.232C208.424 322.232 208.748 322.154 209.014 321.998C209.279 321.842 209.512 321.635 209.711 321.377L210.373 321.893C209.842 322.709 209.045 323.117 207.982 323.117ZM207.848 317.434C207.41 317.434 207.043 317.594 206.746 317.914C206.449 318.23 206.266 318.676 206.195 319.25H209.371V319.168C209.34 318.617 209.191 318.191 208.926 317.891C208.66 317.586 208.301 317.434 207.848 317.434ZM213.842 318.975L215.248 316.66H216.514L214.439 319.795L216.578 323H215.324L213.859 320.627L212.395 323H211.135L213.273 319.795L211.199 316.66H212.453L213.842 318.975ZM219.139 315.125V316.66H220.322V317.498H219.139V321.43C219.139 321.684 219.191 321.875 219.297 322.004C219.402 322.129 219.582 322.191 219.836 322.191C219.961 322.191 220.133 322.168 220.352 322.121V323C220.066 323.078 219.789 323.117 219.52 323.117C219.035 323.117 218.67 322.971 218.424 322.678C218.178 322.385 218.055 321.969 218.055 321.43V317.498H216.9V316.66H218.055V315.125H219.139ZM19.5566 333.777C19.5566 332.805 19.7871 332.023 20.248 331.434C20.709 330.84 21.3125 330.543 22.0586 330.543C22.8008 330.543 23.3887 330.797 23.8223 331.305V328H24.9062V337H23.9102L23.8574 336.32C23.4238 336.852 22.8203 337.117 22.0469 337.117C21.3125 337.117 20.7129 336.816 20.248 336.215C19.7871 335.613 19.5566 334.828 19.5566 333.859V333.777ZM20.6406 333.9C20.6406 334.619 20.7891 335.182 21.0859 335.588C21.3828 335.994 21.793 336.197 22.3164 336.197C23.0039 336.197 23.5059 335.889 23.8223 335.271V332.359C23.498 331.762 23 331.463 22.3281 331.463C21.7969 331.463 21.3828 331.668 21.0859 332.078C20.7891 332.488 20.6406 333.096 20.6406 333.9ZM30.5078 337C30.4453 336.875 30.3945 336.652 30.3555 336.332C29.8516 336.855 29.25 337.117 28.5508 337.117C27.9258 337.117 27.4121 336.941 27.0098 336.59C26.6113 336.234 26.4121 335.785 26.4121 335.242C26.4121 334.582 26.6621 334.07 27.1621 333.707C27.666 333.34 28.373 333.156 29.2832 333.156H30.3379V332.658C30.3379 332.279 30.2246 331.979 29.998 331.756C29.7715 331.529 29.4375 331.416 28.9961 331.416C28.6094 331.416 28.2852 331.514 28.0234 331.709C27.7617 331.904 27.6309 332.141 27.6309 332.418H26.541C26.541 332.102 26.6523 331.797 26.875 331.504C27.1016 331.207 27.4062 330.973 27.7891 330.801C28.1758 330.629 28.5996 330.543 29.0605 330.543C29.791 330.543 30.3633 330.727 30.7773 331.094C31.1914 331.457 31.4062 331.959 31.4219 332.6V335.518C31.4219 336.1 31.4961 336.562 31.6445 336.906V337H30.5078ZM28.709 336.174C29.0488 336.174 29.3711 336.086 29.6758 335.91C29.9805 335.734 30.2012 335.506 30.3379 335.225V333.924H29.4883C28.1602 333.924 27.4961 334.312 27.4961 335.09C27.4961 335.43 27.6094 335.695 27.8359 335.887C28.0625 336.078 28.3535 336.174 28.709 336.174ZM35.1016 335.412L36.5781 330.66H37.7383L35.1895 337.979C34.7949 339.033 34.168 339.561 33.3086 339.561L33.1035 339.543L32.6992 339.467V338.588L32.9922 338.611C33.3594 338.611 33.6445 338.537 33.8477 338.389C34.0547 338.24 34.2246 337.969 34.3574 337.574L34.5977 336.93L32.3359 330.66H33.5195L35.1016 335.412ZM47.3008 335.506L48.5195 330.66H49.6035L47.7578 337H46.8789L45.3379 332.195L43.8379 337H42.959L41.1191 330.66H42.1973L43.4453 335.406L44.9219 330.66H45.7949L47.3008 335.506ZM51.7949 331.428C52.2754 330.838 52.9004 330.543 53.6699 330.543C55.0098 330.543 55.6855 331.299 55.6973 332.811V337H54.6133V332.805C54.6094 332.348 54.5039 332.01 54.2969 331.791C54.0938 331.572 53.7754 331.463 53.3418 331.463C52.9902 331.463 52.6816 331.557 52.416 331.744C52.1504 331.932 51.9434 332.178 51.7949 332.482V337H50.7109V328H51.7949V331.428ZM59.9512 337.117C59.0918 337.117 58.3926 336.836 57.8535 336.273C57.3145 335.707 57.0449 334.951 57.0449 334.006V333.807C57.0449 333.178 57.1641 332.617 57.4023 332.125C57.6445 331.629 57.9805 331.242 58.4102 330.965C58.8438 330.684 59.3125 330.543 59.8164 330.543C60.6406 330.543 61.2812 330.814 61.7383 331.357C62.1953 331.9 62.4238 332.678 62.4238 333.689V334.141H58.1289C58.1445 334.766 58.3262 335.271 58.6738 335.658C59.0254 336.041 59.4707 336.232 60.0098 336.232C60.3926 336.232 60.7168 336.154 60.9824 335.998C61.248 335.842 61.4805 335.635 61.6797 335.377L62.3418 335.893C61.8105 336.709 61.0137 337.117 59.9512 337.117ZM59.8164 331.434C59.3789 331.434 59.0117 331.594 58.7148 331.914C58.418 332.23 58.2344 332.676 58.1641 333.25H61.3398V333.168C61.3086 332.617 61.1602 332.191 60.8945 331.891C60.6289 331.586 60.2695 331.434 59.8164 331.434ZM64.709 330.66L64.7441 331.457C65.2285 330.848 65.8613 330.543 66.6426 330.543C67.9824 330.543 68.6582 331.299 68.6699 332.811V337H67.5859V332.805C67.582 332.348 67.4766 332.01 67.2695 331.791C67.0664 331.572 66.748 331.463 66.3145 331.463C65.9629 331.463 65.6543 331.557 65.3887 331.744C65.123 331.932 64.916 332.178 64.7676 332.482V337H63.6836V330.66H64.709ZM74.752 329.125V330.66H75.9355V331.498H74.752V335.43C74.752 335.684 74.8047 335.875 74.9102 336.004C75.0156 336.129 75.1953 336.191 75.4492 336.191C75.5742 336.191 75.7461 336.168 75.9648 336.121V337C75.6797 337.078 75.4023 337.117 75.1328 337.117C74.6484 337.117 74.2832 336.971 74.0371 336.678C73.791 336.385 73.668 335.969 73.668 335.43V331.498H72.5137V330.66H73.668V329.125H74.752ZM78.291 331.428C78.7715 330.838 79.3965 330.543 80.166 330.543C81.5059 330.543 82.1816 331.299 82.1934 332.811V337H81.1094V332.805C81.1055 332.348 81 332.01 80.793 331.791C80.5898 331.572 80.2715 331.463 79.8379 331.463C79.4863 331.463 79.1777 331.557 78.9121 331.744C78.6465 331.932 78.4395 332.178 78.291 332.482V337H77.207V328H78.291V331.428ZM86.4473 337.117C85.5879 337.117 84.8887 336.836 84.3496 336.273C83.8105 335.707 83.541 334.951 83.541 334.006V333.807C83.541 333.178 83.6602 332.617 83.8984 332.125C84.1406 331.629 84.4766 331.242 84.9062 330.965C85.3398 330.684 85.8086 330.543 86.3125 330.543C87.1367 330.543 87.7773 330.814 88.2344 331.357C88.6914 331.9 88.9199 332.678 88.9199 333.689V334.141H84.625C84.6406 334.766 84.8223 335.271 85.1699 335.658C85.5215 336.041 85.9668 336.232 86.5059 336.232C86.8887 336.232 87.2129 336.154 87.4785 335.998C87.7441 335.842 87.9766 335.635 88.1758 335.377L88.8379 335.893C88.3066 336.709 87.5098 337.117 86.4473 337.117ZM86.3125 331.434C85.875 331.434 85.5078 331.594 85.2109 331.914C84.9141 332.23 84.7305 332.676 84.6602 333.25H87.8359V333.168C87.8047 332.617 87.6562 332.191 87.3906 331.891C87.125 331.586 86.7656 331.434 86.3125 331.434ZM94.1758 330.66L94.2051 331.363C94.6699 330.816 95.2969 330.543 96.0859 330.543C96.9727 330.543 97.5762 330.883 97.8965 331.562C98.1074 331.258 98.3809 331.012 98.7168 330.824C99.0566 330.637 99.457 330.543 99.918 330.543C101.309 330.543 102.016 331.279 102.039 332.752V337H100.955V332.816C100.955 332.363 100.852 332.025 100.645 331.803C100.438 331.576 100.09 331.463 99.6016 331.463C99.1992 331.463 98.8652 331.584 98.5996 331.826C98.334 332.064 98.1797 332.387 98.1367 332.793V337H97.0469V332.846C97.0469 331.924 96.5957 331.463 95.6934 331.463C94.9824 331.463 94.4961 331.766 94.2344 332.371V337H93.1504V330.66H94.1758ZM107.594 337C107.531 336.875 107.48 336.652 107.441 336.332C106.938 336.855 106.336 337.117 105.637 337.117C105.012 337.117 104.498 336.941 104.096 336.59C103.697 336.234 103.498 335.785 103.498 335.242C103.498 334.582 103.748 334.07 104.248 333.707C104.752 333.34 105.459 333.156 106.369 333.156H107.424V332.658C107.424 332.279 107.311 331.979 107.084 331.756C106.857 331.529 106.523 331.416 106.082 331.416C105.695 331.416 105.371 331.514 105.109 331.709C104.848 331.904 104.717 332.141 104.717 332.418H103.627C103.627 332.102 103.738 331.797 103.961 331.504C104.188 331.207 104.492 330.973 104.875 330.801C105.262 330.629 105.686 330.543 106.146 330.543C106.877 330.543 107.449 330.727 107.863 331.094C108.277 331.457 108.492 331.959 108.508 332.6V335.518C108.508 336.1 108.582 336.562 108.73 336.906V337H107.594ZM105.795 336.174C106.135 336.174 106.457 336.086 106.762 335.91C107.066 335.734 107.287 335.506 107.424 335.225V333.924H106.574C105.246 333.924 104.582 334.312 104.582 335.09C104.582 335.43 104.695 335.695 104.922 335.887C105.148 336.078 105.439 336.174 105.795 336.174ZM113.271 331.633C113.107 331.605 112.93 331.592 112.738 331.592C112.027 331.592 111.545 331.895 111.291 332.5V337H110.207V330.66H111.262L111.279 331.393C111.635 330.826 112.139 330.543 112.791 330.543C113.002 330.543 113.162 330.57 113.271 330.625V331.633ZM116.043 334.064L115.363 334.773V337H114.279V328H115.363V333.443L115.943 332.746L117.918 330.66H119.236L116.77 333.309L119.523 337H118.252L116.043 334.064ZM122.869 337.117C122.01 337.117 121.311 336.836 120.771 336.273C120.232 335.707 119.963 334.951 119.963 334.006V333.807C119.963 333.178 120.082 332.617 120.32 332.125C120.562 331.629 120.898 331.242 121.328 330.965C121.762 330.684 122.23 330.543 122.734 330.543C123.559 330.543 124.199 330.814 124.656 331.357C125.113 331.9 125.342 332.678 125.342 333.689V334.141H121.047C121.062 334.766 121.244 335.271 121.592 335.658C121.943 336.041 122.389 336.232 122.928 336.232C123.311 336.232 123.635 336.154 123.9 335.998C124.166 335.842 124.398 335.635 124.598 335.377L125.26 335.893C124.729 336.709 123.932 337.117 122.869 337.117ZM122.734 331.434C122.297 331.434 121.93 331.594 121.633 331.914C121.336 332.23 121.152 332.676 121.082 333.25H124.258V333.168C124.227 332.617 124.078 332.191 123.812 331.891C123.547 331.586 123.188 331.434 122.734 331.434ZM128.072 329.125V330.66H129.256V331.498H128.072V335.43C128.072 335.684 128.125 335.875 128.23 336.004C128.336 336.129 128.516 336.191 128.77 336.191C128.895 336.191 129.066 336.168 129.285 336.121V337C129 337.078 128.723 337.117 128.453 337.117C127.969 337.117 127.604 336.971 127.357 336.678C127.111 336.385 126.988 335.969 126.988 335.43V331.498H125.834V330.66H126.988V329.125H128.072ZM133.217 333.771C133.217 333.15 133.338 332.592 133.58 332.096C133.826 331.6 134.166 331.217 134.6 330.947C135.037 330.678 135.535 330.543 136.094 330.543C136.957 330.543 137.654 330.842 138.186 331.439C138.721 332.037 138.988 332.832 138.988 333.824V333.9C138.988 334.518 138.869 335.072 138.631 335.564C138.396 336.053 138.059 336.434 137.617 336.707C137.18 336.98 136.676 337.117 136.105 337.117C135.246 337.117 134.549 336.818 134.014 336.221C133.482 335.623 133.217 334.832 133.217 333.848V333.771ZM134.307 333.9C134.307 334.604 134.469 335.168 134.793 335.594C135.121 336.02 135.559 336.232 136.105 336.232C136.656 336.232 137.094 336.018 137.418 335.588C137.742 335.154 137.904 334.549 137.904 333.771C137.904 333.076 137.738 332.514 137.406 332.084C137.078 331.65 136.641 331.434 136.094 331.434C135.559 331.434 135.127 331.646 134.799 332.072C134.471 332.498 134.307 333.107 134.307 333.9ZM145.703 333.9C145.703 334.865 145.482 335.643 145.041 336.232C144.6 336.822 144.002 337.117 143.248 337.117C142.479 337.117 141.873 336.873 141.432 336.385V339.438H140.348V330.66H141.338L141.391 331.363C141.832 330.816 142.445 330.543 143.23 330.543C143.992 330.543 144.594 330.83 145.035 331.404C145.48 331.979 145.703 332.777 145.703 333.801V333.9ZM144.619 333.777C144.619 333.062 144.467 332.498 144.162 332.084C143.857 331.67 143.439 331.463 142.908 331.463C142.252 331.463 141.76 331.754 141.432 332.336V335.365C141.756 335.943 142.252 336.232 142.92 336.232C143.439 336.232 143.852 336.027 144.156 335.617C144.465 335.203 144.619 334.59 144.619 333.777ZM149.717 337.117C148.857 337.117 148.158 336.836 147.619 336.273C147.08 335.707 146.811 334.951 146.811 334.006V333.807C146.811 333.178 146.93 332.617 147.168 332.125C147.41 331.629 147.746 331.242 148.176 330.965C148.609 330.684 149.078 330.543 149.582 330.543C150.406 330.543 151.047 330.814 151.504 331.357C151.961 331.9 152.189 332.678 152.189 333.689V334.141H147.895C147.91 334.766 148.092 335.271 148.439 335.658C148.791 336.041 149.236 336.232 149.775 336.232C150.158 336.232 150.482 336.154 150.748 335.998C151.014 335.842 151.246 335.635 151.445 335.377L152.107 335.893C151.576 336.709 150.779 337.117 149.717 337.117ZM149.582 331.434C149.145 331.434 148.777 331.594 148.48 331.914C148.184 332.23 148 332.676 147.93 333.25H151.105V333.168C151.074 332.617 150.926 332.191 150.66 331.891C150.395 331.586 150.035 331.434 149.582 331.434ZM154.475 330.66L154.51 331.457C154.994 330.848 155.627 330.543 156.408 330.543C157.748 330.543 158.424 331.299 158.436 332.811V337H157.352V332.805C157.348 332.348 157.242 332.01 157.035 331.791C156.832 331.572 156.514 331.463 156.08 331.463C155.729 331.463 155.42 331.557 155.154 331.744C154.889 331.932 154.682 332.178 154.533 332.482V337H153.449V330.66H154.475ZM163.762 335.318C163.762 335.025 163.65 334.799 163.428 334.639C163.209 334.475 162.824 334.334 162.273 334.217C161.727 334.1 161.291 333.959 160.967 333.795C160.646 333.631 160.408 333.436 160.252 333.209C160.1 332.982 160.023 332.713 160.023 332.4C160.023 331.881 160.242 331.441 160.68 331.082C161.121 330.723 161.684 330.543 162.367 330.543C163.086 330.543 163.668 330.729 164.113 331.1C164.562 331.471 164.787 331.945 164.787 332.523H163.697C163.697 332.227 163.57 331.971 163.316 331.756C163.066 331.541 162.75 331.434 162.367 331.434C161.973 331.434 161.664 331.52 161.441 331.691C161.219 331.863 161.107 332.088 161.107 332.365C161.107 332.627 161.211 332.824 161.418 332.957C161.625 333.09 161.998 333.217 162.537 333.338C163.08 333.459 163.52 333.604 163.855 333.771C164.191 333.939 164.439 334.143 164.6 334.381C164.764 334.615 164.846 334.902 164.846 335.242C164.846 335.809 164.619 336.264 164.166 336.607C163.713 336.947 163.125 337.117 162.402 337.117C161.895 337.117 161.445 337.027 161.055 336.848C160.664 336.668 160.357 336.418 160.135 336.098C159.916 335.773 159.807 335.424 159.807 335.049H160.891C160.91 335.412 161.055 335.701 161.324 335.916C161.598 336.127 161.957 336.232 162.402 336.232C162.812 336.232 163.141 336.15 163.387 335.986C163.637 335.818 163.762 335.596 163.762 335.318ZM173.148 337C173.086 336.875 173.035 336.652 172.996 336.332C172.492 336.855 171.891 337.117 171.191 337.117C170.566 337.117 170.053 336.941 169.65 336.59C169.252 336.234 169.053 335.785 169.053 335.242C169.053 334.582 169.303 334.07 169.803 333.707C170.307 333.34 171.014 333.156 171.924 333.156H172.979V332.658C172.979 332.279 172.865 331.979 172.639 331.756C172.412 331.529 172.078 331.416 171.637 331.416C171.25 331.416 170.926 331.514 170.664 331.709C170.402 331.904 170.271 332.141 170.271 332.418H169.182C169.182 332.102 169.293 331.797 169.516 331.504C169.742 331.207 170.047 330.973 170.43 330.801C170.816 330.629 171.24 330.543 171.701 330.543C172.432 330.543 173.004 330.727 173.418 331.094C173.832 331.457 174.047 331.959 174.062 332.6V335.518C174.062 336.1 174.137 336.562 174.285 336.906V337H173.148ZM171.35 336.174C171.689 336.174 172.012 336.086 172.316 335.91C172.621 335.734 172.842 335.506 172.979 335.225V333.924H172.129C170.801 333.924 170.137 334.312 170.137 335.09C170.137 335.43 170.25 335.695 170.477 335.887C170.703 336.078 170.994 336.174 171.35 336.174ZM175.504 333.777C175.504 332.789 175.732 332.004 176.189 331.422C176.646 330.836 177.252 330.543 178.006 330.543C178.779 330.543 179.383 330.816 179.816 331.363L179.869 330.66H180.859V336.848C180.859 337.668 180.615 338.314 180.127 338.787C179.643 339.26 178.99 339.496 178.17 339.496C177.713 339.496 177.266 339.398 176.828 339.203C176.391 339.008 176.057 338.74 175.826 338.4L176.389 337.75C176.854 338.324 177.422 338.611 178.094 338.611C178.621 338.611 179.031 338.463 179.324 338.166C179.621 337.869 179.77 337.451 179.77 336.912V336.367C179.336 336.867 178.744 337.117 177.994 337.117C177.252 337.117 176.65 336.818 176.189 336.221C175.732 335.623 175.504 334.809 175.504 333.777ZM176.594 333.9C176.594 334.615 176.74 335.178 177.033 335.588C177.326 335.994 177.736 336.197 178.264 336.197C178.947 336.197 179.449 335.887 179.77 335.266V332.371C179.438 331.766 178.939 331.463 178.275 331.463C177.748 331.463 177.336 331.668 177.039 332.078C176.742 332.488 176.594 333.096 176.594 333.9ZM186.414 337C186.352 336.875 186.301 336.652 186.262 336.332C185.758 336.855 185.156 337.117 184.457 337.117C183.832 337.117 183.318 336.941 182.916 336.59C182.518 336.234 182.318 335.785 182.318 335.242C182.318 334.582 182.568 334.07 183.068 333.707C183.572 333.34 184.279 333.156 185.189 333.156H186.244V332.658C186.244 332.279 186.131 331.979 185.904 331.756C185.678 331.529 185.344 331.416 184.902 331.416C184.516 331.416 184.191 331.514 183.93 331.709C183.668 331.904 183.537 332.141 183.537 332.418H182.447C182.447 332.102 182.559 331.797 182.781 331.504C183.008 331.207 183.312 330.973 183.695 330.801C184.082 330.629 184.506 330.543 184.967 330.543C185.697 330.543 186.27 330.727 186.684 331.094C187.098 331.457 187.312 331.959 187.328 332.6V335.518C187.328 336.1 187.402 336.562 187.551 336.906V337H186.414ZM184.615 336.174C184.955 336.174 185.277 336.086 185.582 335.91C185.887 335.734 186.107 335.506 186.244 335.225V333.924H185.395C184.066 333.924 183.402 334.312 183.402 335.09C183.402 335.43 183.516 335.695 183.742 335.887C183.969 336.078 184.26 336.174 184.615 336.174ZM190.205 337H189.121V330.66H190.205V337ZM189.033 328.979C189.033 328.803 189.086 328.654 189.191 328.533C189.301 328.412 189.461 328.352 189.672 328.352C189.883 328.352 190.043 328.412 190.152 328.533C190.262 328.654 190.316 328.803 190.316 328.979C190.316 329.154 190.262 329.301 190.152 329.418C190.043 329.535 189.883 329.594 189.672 329.594C189.461 329.594 189.301 329.535 189.191 329.418C189.086 329.301 189.033 329.154 189.033 328.979ZM192.971 330.66L193.006 331.457C193.49 330.848 194.123 330.543 194.904 330.543C196.244 330.543 196.92 331.299 196.932 332.811V337H195.848V332.805C195.844 332.348 195.738 332.01 195.531 331.791C195.328 331.572 195.01 331.463 194.576 331.463C194.225 331.463 193.916 331.557 193.65 331.744C193.385 331.932 193.178 332.178 193.029 332.482V337H191.945V330.66H192.971ZM198.59 336.432C198.59 336.244 198.645 336.088 198.754 335.963C198.867 335.838 199.035 335.775 199.258 335.775C199.48 335.775 199.648 335.838 199.762 335.963C199.879 336.088 199.938 336.244 199.938 336.432C199.938 336.611 199.879 336.762 199.762 336.883C199.648 337.004 199.48 337.064 199.258 337.064C199.035 337.064 198.867 337.004 198.754 336.883C198.645 336.762 198.59 336.611 198.59 336.432Z" fill="#858383"/>
<path id="Confirm and go to the next trading day" d="M48.1836 262.667C48.1426 263.558 47.9023 264.346 47.4629 265.031C47.0234 265.711 46.4053 266.238 45.6084 266.613C44.8174 266.988 43.9121 267.176 42.8926 267.176C41.2109 267.176 39.8867 266.628 38.9199 265.532C37.9531 264.437 37.4697 262.89 37.4697 260.892V260.259C37.4697 259.005 37.6865 257.909 38.1201 256.972C38.5596 256.028 39.1895 255.302 40.0098 254.792C40.8301 254.276 41.7793 254.019 42.8574 254.019C44.4102 254.019 45.6582 254.429 46.6016 255.249C47.5449 256.063 48.0811 257.188 48.21 258.624H45.1338C45.1104 257.845 44.9141 257.285 44.5449 256.945C44.1758 256.605 43.6133 256.436 42.8574 256.436C42.0898 256.436 41.5273 256.723 41.1699 257.297C40.8125 257.871 40.625 258.788 40.6074 260.048V260.953C40.6074 262.318 40.7773 263.294 41.1172 263.88C41.4629 264.466 42.0547 264.759 42.8926 264.759C43.6016 264.759 44.1436 264.592 44.5186 264.258C44.8936 263.924 45.0928 263.394 45.1162 262.667H48.1836ZM49.1328 262.157C49.1328 261.208 49.3174 260.364 49.6865 259.626C50.0557 258.882 50.5859 258.311 51.2773 257.912C51.9688 257.514 52.7803 257.314 53.7119 257.314C55.1357 257.314 56.2578 257.757 57.0781 258.642C57.8984 259.521 58.3086 260.719 58.3086 262.236V262.342C58.3086 263.824 57.8955 265.002 57.0693 265.875C56.249 266.742 55.1357 267.176 53.7295 267.176C52.376 267.176 51.2891 266.771 50.4688 265.963C49.6484 265.148 49.2061 264.047 49.1416 262.658L49.1328 262.157ZM52.0947 262.342C52.0947 263.221 52.2324 263.865 52.5078 264.275C52.7832 264.686 53.1904 264.891 53.7295 264.891C54.7842 264.891 55.3232 264.079 55.3467 262.456V262.157C55.3467 260.452 54.8018 259.6 53.7119 259.6C52.7217 259.6 52.1855 260.335 52.1035 261.806L52.0947 262.342ZM62.334 257.49L62.4307 258.606C63.0869 257.745 63.9922 257.314 65.1465 257.314C66.1367 257.314 66.875 257.61 67.3613 258.202C67.8535 258.794 68.1084 259.685 68.126 260.874V267H65.1553V260.997C65.1553 260.517 65.0586 260.165 64.8652 259.942C64.6719 259.714 64.3203 259.6 63.8105 259.6C63.2305 259.6 62.7998 259.828 62.5186 260.285V267H59.5566V257.49H62.334ZM70.4639 267V259.547H69.084V257.49H70.4639V257.174C70.4814 255.908 70.8975 254.938 71.7119 254.265C72.4854 253.632 73.5664 253.315 74.9551 253.315C75.8281 253.315 76.8594 253.485 78.0488 253.825L77.6445 256.163L77.1523 256.031C76.5137 255.861 75.8398 255.776 75.1309 255.776C74 255.776 73.4346 256.292 73.4346 257.323V257.49H75.2979V259.547H73.4346V267H70.4639ZM79.4111 267H76.4316V257.49H79.4111V267ZM86.9697 260.171L85.9941 260.101C85.0625 260.101 84.4648 260.394 84.2012 260.979V267H81.2393V257.49H84.0166L84.1133 258.712C84.6113 257.78 85.3057 257.314 86.1963 257.314C86.5127 257.314 86.7881 257.35 87.0225 257.42L86.9697 260.171ZM90.8369 257.49L90.9336 258.606C91.6074 257.745 92.5127 257.314 93.6494 257.314C94.8506 257.314 95.6621 257.792 96.084 258.747C96.7285 257.792 97.6602 257.314 98.8789 257.314C100.807 257.314 101.797 258.48 101.85 260.812V267H98.8789V260.997C98.8789 260.511 98.7969 260.156 98.6328 259.934C98.4688 259.711 98.1699 259.6 97.7363 259.6C97.1504 259.6 96.7139 259.86 96.4268 260.382L96.4355 260.505V267H93.4648V261.015C93.4648 260.517 93.3857 260.156 93.2275 259.934C93.0693 259.711 92.7676 259.6 92.3223 259.6C91.7539 259.6 91.3203 259.86 91.0215 260.382V267H88.0596V257.49H90.8369ZM113.381 267C113.275 266.807 113.182 266.522 113.1 266.147C112.555 266.833 111.793 267.176 110.814 267.176C109.918 267.176 109.156 266.906 108.529 266.367C107.902 265.822 107.589 265.14 107.589 264.319C107.589 263.288 107.97 262.509 108.731 261.981C109.493 261.454 110.601 261.19 112.054 261.19H112.968V260.689C112.968 259.816 112.59 259.38 111.834 259.38C111.131 259.38 110.779 259.726 110.779 260.417H107.817C107.817 259.497 108.207 258.75 108.986 258.176C109.771 257.602 110.771 257.314 111.983 257.314C113.196 257.314 114.154 257.61 114.857 258.202C115.561 258.794 115.921 259.605 115.938 260.637V264.847C115.95 265.72 116.085 266.388 116.343 266.851V267H113.381ZM111.526 265.066C111.896 265.066 112.2 264.987 112.44 264.829C112.687 264.671 112.862 264.492 112.968 264.293V262.772H112.106C111.075 262.772 110.56 263.235 110.56 264.161C110.56 264.431 110.65 264.65 110.832 264.82C111.014 264.984 111.245 265.066 111.526 265.066ZM120.307 257.49L120.403 258.606C121.06 257.745 121.965 257.314 123.119 257.314C124.109 257.314 124.848 257.61 125.334 258.202C125.826 258.794 126.081 259.685 126.099 260.874V267H123.128V260.997C123.128 260.517 123.031 260.165 122.838 259.942C122.645 259.714 122.293 259.6 121.783 259.6C121.203 259.6 120.772 259.828 120.491 260.285V267H117.529V257.49H120.307ZM127.373 262.175C127.373 260.669 127.698 259.482 128.349 258.615C128.999 257.748 129.907 257.314 131.073 257.314C131.923 257.314 132.638 257.648 133.218 258.316V253.5H136.188V267H133.525L133.376 265.98C132.767 266.777 131.993 267.176 131.056 267.176C129.925 267.176 129.028 266.742 128.366 265.875C127.704 265.008 127.373 263.774 127.373 262.175ZM130.335 262.359C130.335 264.047 130.827 264.891 131.812 264.891C132.468 264.891 132.937 264.615 133.218 264.064V260.443C132.948 259.881 132.485 259.6 131.829 259.6C130.915 259.6 130.42 260.338 130.344 261.814L130.335 262.359ZM142.007 262.175C142.007 261.214 142.165 260.364 142.481 259.626C142.798 258.888 143.252 258.319 143.844 257.921C144.436 257.517 145.124 257.314 145.909 257.314C146.899 257.314 147.673 257.648 148.229 258.316L148.335 257.49H151.024V266.64C151.024 267.478 150.828 268.204 150.436 268.819C150.049 269.44 149.486 269.915 148.748 270.243C148.01 270.577 147.154 270.744 146.182 270.744C145.484 270.744 144.808 270.612 144.151 270.349C143.501 270.085 143.003 269.742 142.657 269.32L143.896 267.58C144.447 268.23 145.174 268.556 146.076 268.556C147.389 268.556 148.045 267.882 148.045 266.534V266.235C147.477 266.862 146.759 267.176 145.892 267.176C144.731 267.176 143.794 266.733 143.079 265.849C142.364 264.958 142.007 263.769 142.007 262.28V262.175ZM144.978 262.359C144.978 263.139 145.124 263.757 145.417 264.214C145.71 264.665 146.12 264.891 146.647 264.891C147.286 264.891 147.752 264.677 148.045 264.249V260.25C147.758 259.816 147.298 259.6 146.665 259.6C146.138 259.6 145.725 259.837 145.426 260.312C145.127 260.78 144.978 261.463 144.978 262.359ZM152.334 262.157C152.334 261.208 152.519 260.364 152.888 259.626C153.257 258.882 153.787 258.311 154.479 257.912C155.17 257.514 155.981 257.314 156.913 257.314C158.337 257.314 159.459 257.757 160.279 258.642C161.1 259.521 161.51 260.719 161.51 262.236V262.342C161.51 263.824 161.097 265.002 160.271 265.875C159.45 266.742 158.337 267.176 156.931 267.176C155.577 267.176 154.49 266.771 153.67 265.963C152.85 265.148 152.407 264.047 152.343 262.658L152.334 262.157ZM155.296 262.342C155.296 263.221 155.434 263.865 155.709 264.275C155.984 264.686 156.392 264.891 156.931 264.891C157.985 264.891 158.524 264.079 158.548 262.456V262.157C158.548 260.452 158.003 259.6 156.913 259.6C155.923 259.6 155.387 260.335 155.305 261.806L155.296 262.342ZM170.747 255.126V257.49H172.312V259.547H170.747V263.897C170.747 264.255 170.812 264.504 170.94 264.645C171.069 264.785 171.324 264.855 171.705 264.855C171.998 264.855 172.244 264.838 172.443 264.803V266.921C171.91 267.091 171.354 267.176 170.773 267.176C169.754 267.176 169.001 266.936 168.515 266.455C168.028 265.975 167.785 265.245 167.785 264.267V259.547H166.572V257.49H167.785V255.126H170.747ZM172.848 262.157C172.848 261.208 173.032 260.364 173.401 259.626C173.771 258.882 174.301 258.311 174.992 257.912C175.684 257.514 176.495 257.314 177.427 257.314C178.851 257.314 179.973 257.757 180.793 258.642C181.613 259.521 182.023 260.719 182.023 262.236V262.342C182.023 263.824 181.61 265.002 180.784 265.875C179.964 266.742 178.851 267.176 177.444 267.176C176.091 267.176 175.004 266.771 174.184 265.963C173.363 265.148 172.921 264.047 172.856 262.658L172.848 262.157ZM175.81 262.342C175.81 263.221 175.947 263.865 176.223 264.275C176.498 264.686 176.905 264.891 177.444 264.891C178.499 264.891 179.038 264.079 179.062 262.456V262.157C179.062 260.452 178.517 259.6 177.427 259.6C176.437 259.6 175.9 260.335 175.818 261.806L175.81 262.342ZM191.261 255.126V257.49H192.825V259.547H191.261V263.897C191.261 264.255 191.325 264.504 191.454 264.645C191.583 264.785 191.838 264.855 192.219 264.855C192.512 264.855 192.758 264.838 192.957 264.803V266.921C192.424 267.091 191.867 267.176 191.287 267.176C190.268 267.176 189.515 266.936 189.028 266.455C188.542 265.975 188.299 265.245 188.299 264.267V259.547H187.086V257.49H188.299V255.126H191.261ZM196.895 258.51C197.527 257.713 198.336 257.314 199.32 257.314C200.369 257.314 201.16 257.625 201.693 258.246C202.227 258.867 202.499 259.784 202.511 260.997V267H199.54V261.067C199.54 260.563 199.438 260.194 199.232 259.96C199.027 259.72 198.679 259.6 198.187 259.6C197.577 259.6 197.146 259.793 196.895 260.18V267H193.933V253.5H196.895V258.51ZM208.76 267.176C207.301 267.176 206.12 266.742 205.218 265.875C204.315 265.002 203.864 263.868 203.864 262.474V262.228C203.864 261.255 204.043 260.396 204.4 259.652C204.764 258.908 205.291 258.334 205.982 257.93C206.674 257.52 207.494 257.314 208.443 257.314C209.779 257.314 210.834 257.73 211.607 258.562C212.381 259.389 212.768 260.543 212.768 262.025V263.177H206.879C206.984 263.71 207.216 264.129 207.573 264.434C207.931 264.738 208.394 264.891 208.962 264.891C209.899 264.891 210.632 264.562 211.159 263.906L212.513 265.506C212.144 266.016 211.619 266.423 210.939 266.728C210.266 267.026 209.539 267.176 208.76 267.176ZM208.426 259.6C207.559 259.6 207.043 260.174 206.879 261.322H209.867V261.094C209.879 260.619 209.759 260.253 209.507 259.995C209.255 259.731 208.895 259.6 208.426 259.6ZM62.9668 278.49L63.0635 279.606C63.7197 278.745 64.625 278.314 65.7793 278.314C66.7695 278.314 67.5078 278.61 67.9941 279.202C68.4863 279.794 68.7412 280.685 68.7588 281.874V288H65.7881V281.997C65.7881 281.517 65.6914 281.165 65.498 280.942C65.3047 280.714 64.9531 280.6 64.4434 280.6C63.8633 280.6 63.4326 280.828 63.1514 281.285V288H60.1895V278.49H62.9668ZM75.0078 288.176C73.5488 288.176 72.3682 287.742 71.4658 286.875C70.5635 286.002 70.1123 284.868 70.1123 283.474V283.228C70.1123 282.255 70.291 281.396 70.6484 280.652C71.0117 279.908 71.5391 279.334 72.2305 278.93C72.9219 278.52 73.7422 278.314 74.6914 278.314C76.0273 278.314 77.082 278.73 77.8555 279.562C78.6289 280.389 79.0156 281.543 79.0156 283.025V284.177H73.127C73.2324 284.71 73.4639 285.129 73.8213 285.434C74.1787 285.738 74.6416 285.891 75.21 285.891C76.1475 285.891 76.8799 285.562 77.4072 284.906L78.7607 286.506C78.3916 287.016 77.8672 287.423 77.1875 287.728C76.5137 288.026 75.7871 288.176 75.0078 288.176ZM74.6738 280.6C73.8066 280.6 73.291 281.174 73.127 282.322H76.1152V282.094C76.127 281.619 76.0068 281.253 75.7549 280.995C75.5029 280.731 75.1426 280.6 74.6738 280.6ZM84.0693 281.109L85.4492 278.49H88.5254L86.0205 283.122L88.6484 288H85.5547L84.0605 285.188L82.5928 288H79.4814L82.1182 283.122L79.6221 278.49H82.7334L84.0693 281.109ZM92.9287 276.126V278.49H94.4932V280.547H92.9287V284.897C92.9287 285.255 92.9932 285.504 93.1221 285.645C93.251 285.785 93.5059 285.855 93.8867 285.855C94.1797 285.855 94.4258 285.838 94.625 285.803V287.921C94.0918 288.091 93.5352 288.176 92.9551 288.176C91.9355 288.176 91.1826 287.936 90.6963 287.455C90.21 286.975 89.9668 286.245 89.9668 285.267V280.547H88.7539V278.49H89.9668V276.126H92.9287ZM103.599 276.126V278.49H105.163V280.547H103.599V284.897C103.599 285.255 103.663 285.504 103.792 285.645C103.921 285.785 104.176 285.855 104.557 285.855C104.85 285.855 105.096 285.838 105.295 285.803V287.921C104.762 288.091 104.205 288.176 103.625 288.176C102.605 288.176 101.853 287.936 101.366 287.455C100.88 286.975 100.637 286.245 100.637 285.267V280.547H99.4238V278.49H100.637V276.126H103.599ZM112.089 281.171L111.113 281.101C110.182 281.101 109.584 281.394 109.32 281.979V288H106.358V278.49H109.136L109.232 279.712C109.73 278.78 110.425 278.314 111.315 278.314C111.632 278.314 111.907 278.35 112.142 278.42L112.089 281.171ZM118.25 288C118.145 287.807 118.051 287.522 117.969 287.147C117.424 287.833 116.662 288.176 115.684 288.176C114.787 288.176 114.025 287.906 113.398 287.367C112.771 286.822 112.458 286.14 112.458 285.319C112.458 284.288 112.839 283.509 113.601 282.981C114.362 282.454 115.47 282.19 116.923 282.19H117.837V281.689C117.837 280.816 117.459 280.38 116.703 280.38C116 280.38 115.648 280.726 115.648 281.417H112.687C112.687 280.497 113.076 279.75 113.855 279.176C114.641 278.602 115.64 278.314 116.853 278.314C118.065 278.314 119.023 278.61 119.727 279.202C120.43 279.794 120.79 280.605 120.808 281.637V285.847C120.819 286.72 120.954 287.388 121.212 287.851V288H118.25ZM116.396 286.066C116.765 286.066 117.069 285.987 117.31 285.829C117.556 285.671 117.731 285.492 117.837 285.293V283.772H116.976C115.944 283.772 115.429 284.235 115.429 285.161C115.429 285.431 115.52 285.65 115.701 285.82C115.883 285.984 116.114 286.066 116.396 286.066ZM122.082 283.175C122.082 281.669 122.407 280.482 123.058 279.615C123.708 278.748 124.616 278.314 125.782 278.314C126.632 278.314 127.347 278.648 127.927 279.316V274.5H130.897V288H128.234L128.085 286.98C127.476 287.777 126.702 288.176 125.765 288.176C124.634 288.176 123.737 287.742 123.075 286.875C122.413 286.008 122.082 284.774 122.082 283.175ZM125.044 283.359C125.044 285.047 125.536 285.891 126.521 285.891C127.177 285.891 127.646 285.615 127.927 285.064V281.443C127.657 280.881 127.194 280.6 126.538 280.6C125.624 280.6 125.129 281.338 125.053 282.814L125.044 283.359ZM135.705 288H132.734V278.49H135.705V288ZM132.559 276.038C132.559 275.616 132.711 275.271 133.016 275.001C133.32 274.731 133.716 274.597 134.202 274.597C134.688 274.597 135.084 274.731 135.389 275.001C135.693 275.271 135.846 275.616 135.846 276.038C135.846 276.46 135.693 276.806 135.389 277.075C135.084 277.345 134.688 277.479 134.202 277.479C133.716 277.479 133.32 277.345 133.016 277.075C132.711 276.806 132.559 276.46 132.559 276.038ZM140.258 278.49L140.354 279.606C141.011 278.745 141.916 278.314 143.07 278.314C144.061 278.314 144.799 278.61 145.285 279.202C145.777 279.794 146.032 280.685 146.05 281.874V288H143.079V281.997C143.079 281.517 142.982 281.165 142.789 280.942C142.596 280.714 142.244 280.6 141.734 280.6C141.154 280.6 140.724 280.828 140.442 281.285V288H137.48V278.49H140.258ZM147.351 283.175C147.351 282.214 147.509 281.364 147.825 280.626C148.142 279.888 148.596 279.319 149.188 278.921C149.779 278.517 150.468 278.314 151.253 278.314C152.243 278.314 153.017 278.648 153.573 279.316L153.679 278.49H156.368V287.64C156.368 288.478 156.172 289.204 155.779 289.819C155.393 290.44 154.83 290.915 154.092 291.243C153.354 291.577 152.498 291.744 151.525 291.744C150.828 291.744 150.151 291.612 149.495 291.349C148.845 291.085 148.347 290.742 148.001 290.32L149.24 288.58C149.791 289.23 150.518 289.556 151.42 289.556C152.732 289.556 153.389 288.882 153.389 287.534V287.235C152.82 287.862 152.103 288.176 151.235 288.176C150.075 288.176 149.138 287.733 148.423 286.849C147.708 285.958 147.351 284.769 147.351 283.28V283.175ZM150.321 283.359C150.321 284.139 150.468 284.757 150.761 285.214C151.054 285.665 151.464 285.891 151.991 285.891C152.63 285.891 153.096 285.677 153.389 285.249V281.25C153.102 280.816 152.642 280.6 152.009 280.6C151.481 280.6 151.068 280.837 150.77 281.312C150.471 281.78 150.321 282.463 150.321 283.359ZM162.16 283.175C162.16 281.669 162.485 280.482 163.136 279.615C163.786 278.748 164.694 278.314 165.86 278.314C166.71 278.314 167.425 278.648 168.005 279.316V274.5H170.976V288H168.312L168.163 286.98C167.554 287.777 166.78 288.176 165.843 288.176C164.712 288.176 163.815 287.742 163.153 286.875C162.491 286.008 162.16 284.774 162.16 283.175ZM165.122 283.359C165.122 285.047 165.614 285.891 166.599 285.891C167.255 285.891 167.724 285.615 168.005 285.064V281.443C167.735 280.881 167.272 280.6 166.616 280.6C165.702 280.6 165.207 281.338 165.131 282.814L165.122 283.359ZM178.016 288C177.91 287.807 177.816 287.522 177.734 287.147C177.189 287.833 176.428 288.176 175.449 288.176C174.553 288.176 173.791 287.906 173.164 287.367C172.537 286.822 172.224 286.14 172.224 285.319C172.224 284.288 172.604 283.509 173.366 282.981C174.128 282.454 175.235 282.19 176.688 282.19H177.603V281.689C177.603 280.816 177.225 280.38 176.469 280.38C175.766 280.38 175.414 280.726 175.414 281.417H172.452C172.452 280.497 172.842 279.75 173.621 279.176C174.406 278.602 175.405 278.314 176.618 278.314C177.831 278.314 178.789 278.61 179.492 279.202C180.195 279.794 180.556 280.605 180.573 281.637V285.847C180.585 286.72 180.72 287.388 180.978 287.851V288H178.016ZM176.161 286.066C176.53 286.066 176.835 285.987 177.075 285.829C177.321 285.671 177.497 285.492 177.603 285.293V283.772H176.741C175.71 283.772 175.194 284.235 175.194 285.161C175.194 285.431 175.285 285.65 175.467 285.82C175.648 285.984 175.88 286.066 176.161 286.066ZM185.882 283.852L187.464 278.49H190.637L186.761 289.591L186.594 289.995C186.043 291.226 185.07 291.841 183.676 291.841C183.289 291.841 182.882 291.782 182.454 291.665V289.547H182.841C183.257 289.547 183.573 289.485 183.79 289.362C184.013 289.245 184.177 289.031 184.282 288.721L184.52 288.088L181.215 278.49H184.379L185.882 283.852Z" fill="white"/>
<path id="After day 1" d="M22.3672 32.3633H17.7441L16.8652 35H14.0615L18.8252 22.2031H21.2686L26.0586 35H23.2549L22.3672 32.3633ZM18.4561 30.2275H21.6553L20.0469 25.4375L18.4561 30.2275ZM27.7812 35V27.3535H26.3662V25.4902H27.7812V24.6816C27.7812 23.6152 28.0859 22.7891 28.6953 22.2031C29.3105 21.6113 30.1689 21.3154 31.2705 21.3154C31.6221 21.3154 32.0527 21.374 32.5625 21.4912L32.5361 23.46C32.3252 23.4072 32.0674 23.3809 31.7627 23.3809C30.8076 23.3809 30.3301 23.8291 30.3301 24.7256V25.4902H32.2197V27.3535H30.3301V35H27.7812ZM36.5791 23.1523V25.4902H38.2051V27.3535H36.5791V32.0996C36.5791 32.4512 36.6465 32.7031 36.7812 32.8555C36.916 33.0078 37.1738 33.084 37.5547 33.084C37.8359 33.084 38.085 33.0635 38.3018 33.0225V34.9473C37.8037 35.0996 37.291 35.1758 36.7637 35.1758C34.9824 35.1758 34.0742 34.2764 34.0391 32.4775V27.3535H32.6504V25.4902H34.0391V23.1523H36.5791ZM43.9971 35.1758C42.6025 35.1758 41.4658 34.748 40.5869 33.8926C39.7139 33.0371 39.2773 31.8975 39.2773 30.4736V30.2275C39.2773 29.2725 39.4619 28.4199 39.8311 27.6699C40.2002 26.9141 40.7217 26.334 41.3955 25.9297C42.0752 25.5195 42.8486 25.3145 43.7158 25.3145C45.0166 25.3145 46.0391 25.7246 46.7832 26.5449C47.5332 27.3652 47.9082 28.5283 47.9082 30.0342V31.0713H41.8525C41.9346 31.6924 42.1807 32.1904 42.5908 32.5654C43.0068 32.9404 43.5312 33.1279 44.1641 33.1279C45.1426 33.1279 45.9072 32.7734 46.458 32.0645L47.7061 33.4619C47.3252 34.001 46.8096 34.4229 46.1592 34.7275C45.5088 35.0264 44.7881 35.1758 43.9971 35.1758ZM43.707 27.3711C43.2031 27.3711 42.793 27.541 42.4766 27.8809C42.166 28.2207 41.9668 28.707 41.8789 29.3398H45.4121V29.1377C45.4004 28.5752 45.248 28.1416 44.9551 27.8369C44.6621 27.5264 44.2461 27.3711 43.707 27.3711ZM54.7021 27.8721C54.3564 27.8252 54.0518 27.8018 53.7881 27.8018C52.8271 27.8018 52.1973 28.127 51.8984 28.7773V35H49.3584V25.4902H51.7578L51.8281 26.624C52.3379 25.751 53.0439 25.3145 53.9463 25.3145C54.2275 25.3145 54.4912 25.3525 54.7373 25.4287L54.7021 27.8721ZM60.0195 30.1748C60.0195 28.6924 60.3506 27.5117 61.0127 26.6328C61.6807 25.7539 62.5918 25.3145 63.7461 25.3145C64.6719 25.3145 65.4365 25.6602 66.04 26.3516V21.5H68.5889V35H66.2949L66.1719 33.9893C65.5391 34.7803 64.7246 35.1758 63.7285 35.1758C62.6094 35.1758 61.71 34.7363 61.0303 33.8574C60.3564 32.9727 60.0195 31.7451 60.0195 30.1748ZM62.5596 30.3594C62.5596 31.25 62.7148 31.9326 63.0254 32.4072C63.3359 32.8818 63.7871 33.1191 64.3789 33.1191C65.1641 33.1191 65.7178 32.7881 66.04 32.126V28.373C65.7236 27.7109 65.1758 27.3799 64.3965 27.3799C63.1719 27.3799 62.5596 28.373 62.5596 30.3594ZM76.0684 35C75.9512 34.7715 75.8662 34.4873 75.8135 34.1475C75.1982 34.833 74.3984 35.1758 73.4141 35.1758C72.4824 35.1758 71.709 34.9062 71.0938 34.3672C70.4844 33.8281 70.1797 33.1484 70.1797 32.3281C70.1797 31.3203 70.5518 30.5469 71.2959 30.0078C72.0459 29.4688 73.127 29.1963 74.5391 29.1904H75.708V28.6455C75.708 28.2061 75.5938 27.8545 75.3652 27.5908C75.1426 27.3271 74.7881 27.1953 74.3018 27.1953C73.874 27.1953 73.5371 27.2979 73.291 27.5029C73.0508 27.708 72.9307 27.9893 72.9307 28.3467H70.3906C70.3906 27.7959 70.5605 27.2861 70.9004 26.8174C71.2402 26.3486 71.7207 25.9824 72.3418 25.7188C72.9629 25.4492 73.6602 25.3145 74.4336 25.3145C75.6055 25.3145 76.5342 25.6104 77.2197 26.2021C77.9111 26.7881 78.2568 27.6143 78.2568 28.6807V32.8027C78.2627 33.7051 78.3887 34.3877 78.6348 34.8506V35H76.0684ZM73.9678 33.2334C74.3428 33.2334 74.6885 33.1514 75.0049 32.9873C75.3213 32.8174 75.5557 32.5918 75.708 32.3105V30.6758H74.7588C73.4873 30.6758 72.8105 31.1152 72.7285 31.9941L72.7197 32.1436C72.7197 32.46 72.8311 32.7207 73.0537 32.9258C73.2764 33.1309 73.5811 33.2334 73.9678 33.2334ZM83.6182 31.4053L85.376 25.4902H88.1006L84.2773 36.4766L84.0664 36.9775C83.498 38.2197 82.5605 38.8408 81.2539 38.8408C80.8848 38.8408 80.5098 38.7852 80.1289 38.6738V36.749L80.5156 36.7578C80.9961 36.7578 81.3535 36.6846 81.5879 36.5381C81.8281 36.3916 82.0156 36.1484 82.1504 35.8086L82.4492 35.0264L79.1182 25.4902H81.8516L83.6182 31.4053ZM99.6494 35H97.1094V25.209L94.0771 26.1494V24.084L99.377 22.1855H99.6494V35Z" fill="black"/>
</g>
</svg>
