<svg width="249" height="373" viewBox="0 0 249 373" fill="none" xmlns="http://www.w3.org/2000/svg">
<g id="Day1Buy">
<rect id="Rectangle 21" x="1.5" y="1.5" width="246" height="370" fill="white" stroke="#E5E5E5" stroke-width="3"/>
<rect id="confirmDay1BT" x="14.5" y="182.5" width="218" height="55" rx="8.5" fill="#6BB8FF" stroke="white"/>
<path id="Confirm and go to next trading day" d="M63.5029 201.667C63.4619 202.558 63.2217 203.346 62.7822 204.031C62.3428 204.711 61.7246 205.238 60.9277 205.613C60.1367 205.988 59.2314 206.176 58.2119 206.176C56.5303 206.176 55.2061 205.628 54.2393 204.532C53.2725 203.437 52.7891 201.89 52.7891 199.892V199.259C52.7891 198.005 53.0059 196.909 53.4395 195.972C53.8789 195.028 54.5088 194.302 55.3291 193.792C56.1494 193.276 57.0986 193.019 58.1768 193.019C59.7295 193.019 60.9775 193.429 61.9209 194.249C62.8643 195.063 63.4004 196.188 63.5293 197.624H60.4531C60.4297 196.845 60.2334 196.285 59.8643 195.945C59.4951 195.605 58.9326 195.436 58.1768 195.436C57.4092 195.436 56.8467 195.723 56.4893 196.297C56.1318 196.871 55.9443 197.788 55.9268 199.048V199.953C55.9268 201.318 56.0967 202.294 56.4365 202.88C56.7822 203.466 57.374 203.759 58.2119 203.759C58.9209 203.759 59.4629 203.592 59.8379 203.258C60.2129 202.924 60.4121 202.394 60.4355 201.667H63.5029ZM64.4521 201.157C64.4521 200.208 64.6367 199.364 65.0059 198.626C65.375 197.882 65.9053 197.311 66.5967 196.912C67.2881 196.514 68.0996 196.314 69.0312 196.314C70.4551 196.314 71.5771 196.757 72.3975 197.642C73.2178 198.521 73.6279 199.719 73.6279 201.236V201.342C73.6279 202.824 73.2148 204.002 72.3887 204.875C71.5684 205.742 70.4551 206.176 69.0488 206.176C67.6953 206.176 66.6084 205.771 65.7881 204.963C64.9678 204.148 64.5254 203.047 64.4609 201.658L64.4521 201.157ZM67.4141 201.342C67.4141 202.221 67.5518 202.865 67.8271 203.275C68.1025 203.686 68.5098 203.891 69.0488 203.891C70.1035 203.891 70.6426 203.079 70.666 201.456V201.157C70.666 199.452 70.1211 198.6 69.0312 198.6C68.041 198.6 67.5049 199.335 67.4229 200.806L67.4141 201.342ZM77.6533 196.49L77.75 197.606C78.4062 196.745 79.3115 196.314 80.4658 196.314C81.4561 196.314 82.1943 196.61 82.6807 197.202C83.1729 197.794 83.4277 198.685 83.4453 199.874V206H80.4746V199.997C80.4746 199.517 80.3779 199.165 80.1846 198.942C79.9912 198.714 79.6396 198.6 79.1299 198.6C78.5498 198.6 78.1191 198.828 77.8379 199.285V206H74.876V196.49H77.6533ZM85.7832 206V198.547H84.4033V196.49H85.7832V196.174C85.8008 194.908 86.2168 193.938 87.0312 193.265C87.8047 192.632 88.8857 192.315 90.2744 192.315C91.1475 192.315 92.1787 192.485 93.3682 192.825L92.9639 195.163L92.4717 195.031C91.833 194.861 91.1592 194.776 90.4502 194.776C89.3193 194.776 88.7539 195.292 88.7539 196.323V196.49H90.6172V198.547H88.7539V206H85.7832ZM94.7305 206H91.751V196.49H94.7305V206ZM102.289 199.171L101.313 199.101C100.382 199.101 99.7842 199.394 99.5205 199.979V206H96.5586V196.49H99.3359L99.4326 197.712C99.9307 196.78 100.625 196.314 101.516 196.314C101.832 196.314 102.107 196.35 102.342 196.42L102.289 199.171ZM106.156 196.49L106.253 197.606C106.927 196.745 107.832 196.314 108.969 196.314C110.17 196.314 110.981 196.792 111.403 197.747C112.048 196.792 112.979 196.314 114.198 196.314C116.126 196.314 117.116 197.48 117.169 199.812V206H114.198V199.997C114.198 199.511 114.116 199.156 113.952 198.934C113.788 198.711 113.489 198.6 113.056 198.6C112.47 198.6 112.033 198.86 111.746 199.382L111.755 199.505V206H108.784V200.015C108.784 199.517 108.705 199.156 108.547 198.934C108.389 198.711 108.087 198.6 107.642 198.6C107.073 198.6 106.64 198.86 106.341 199.382V206H103.379V196.49H106.156ZM128.7 206C128.595 205.807 128.501 205.522 128.419 205.147C127.874 205.833 127.112 206.176 126.134 206.176C125.237 206.176 124.476 205.906 123.849 205.367C123.222 204.822 122.908 204.14 122.908 203.319C122.908 202.288 123.289 201.509 124.051 200.981C124.812 200.454 125.92 200.19 127.373 200.19H128.287V199.689C128.287 198.816 127.909 198.38 127.153 198.38C126.45 198.38 126.099 198.726 126.099 199.417H123.137C123.137 198.497 123.526 197.75 124.306 197.176C125.091 196.602 126.09 196.314 127.303 196.314C128.516 196.314 129.474 196.61 130.177 197.202C130.88 197.794 131.24 198.605 131.258 199.637V203.847C131.27 204.72 131.404 205.388 131.662 205.851V206H128.7ZM126.846 204.066C127.215 204.066 127.52 203.987 127.76 203.829C128.006 203.671 128.182 203.492 128.287 203.293V201.772H127.426C126.395 201.772 125.879 202.235 125.879 203.161C125.879 203.431 125.97 203.65 126.151 203.82C126.333 203.984 126.564 204.066 126.846 204.066ZM135.626 196.49L135.723 197.606C136.379 196.745 137.284 196.314 138.438 196.314C139.429 196.314 140.167 196.61 140.653 197.202C141.146 197.794 141.4 198.685 141.418 199.874V206H138.447V199.997C138.447 199.517 138.351 199.165 138.157 198.942C137.964 198.714 137.612 198.6 137.103 198.6C136.522 198.6 136.092 198.828 135.811 199.285V206H132.849V196.49H135.626ZM142.692 201.175C142.692 199.669 143.018 198.482 143.668 197.615C144.318 196.748 145.227 196.314 146.393 196.314C147.242 196.314 147.957 196.648 148.537 197.316V192.5H151.508V206H148.845L148.695 204.98C148.086 205.777 147.312 206.176 146.375 206.176C145.244 206.176 144.348 205.742 143.686 204.875C143.023 204.008 142.692 202.774 142.692 201.175ZM145.654 201.359C145.654 203.047 146.146 203.891 147.131 203.891C147.787 203.891 148.256 203.615 148.537 203.064V199.443C148.268 198.881 147.805 198.6 147.148 198.6C146.234 198.6 145.739 199.338 145.663 200.814L145.654 201.359ZM157.326 201.175C157.326 200.214 157.484 199.364 157.801 198.626C158.117 197.888 158.571 197.319 159.163 196.921C159.755 196.517 160.443 196.314 161.229 196.314C162.219 196.314 162.992 196.648 163.549 197.316L163.654 196.49H166.344V205.64C166.344 206.478 166.147 207.204 165.755 207.819C165.368 208.44 164.806 208.915 164.067 209.243C163.329 209.577 162.474 209.744 161.501 209.744C160.804 209.744 160.127 209.612 159.471 209.349C158.82 209.085 158.322 208.742 157.977 208.32L159.216 206.58C159.767 207.23 160.493 207.556 161.396 207.556C162.708 207.556 163.364 206.882 163.364 205.534V205.235C162.796 205.862 162.078 206.176 161.211 206.176C160.051 206.176 159.113 205.733 158.398 204.849C157.684 203.958 157.326 202.769 157.326 201.28V201.175ZM160.297 201.359C160.297 202.139 160.443 202.757 160.736 203.214C161.029 203.665 161.439 203.891 161.967 203.891C162.605 203.891 163.071 203.677 163.364 203.249V199.25C163.077 198.816 162.617 198.6 161.984 198.6C161.457 198.6 161.044 198.837 160.745 199.312C160.446 199.78 160.297 200.463 160.297 201.359ZM167.653 201.157C167.653 200.208 167.838 199.364 168.207 198.626C168.576 197.882 169.106 197.311 169.798 196.912C170.489 196.514 171.301 196.314 172.232 196.314C173.656 196.314 174.778 196.757 175.599 197.642C176.419 198.521 176.829 199.719 176.829 201.236V201.342C176.829 202.824 176.416 204.002 175.59 204.875C174.77 205.742 173.656 206.176 172.25 206.176C170.896 206.176 169.81 205.771 168.989 204.963C168.169 204.148 167.727 203.047 167.662 201.658L167.653 201.157ZM170.615 201.342C170.615 202.221 170.753 202.865 171.028 203.275C171.304 203.686 171.711 203.891 172.25 203.891C173.305 203.891 173.844 203.079 173.867 201.456V201.157C173.867 199.452 173.322 198.6 172.232 198.6C171.242 198.6 170.706 199.335 170.624 200.806L170.615 201.342ZM186.066 194.126V196.49H187.631V198.547H186.066V202.897C186.066 203.255 186.131 203.504 186.26 203.645C186.389 203.785 186.644 203.855 187.024 203.855C187.317 203.855 187.563 203.838 187.763 203.803V205.921C187.229 206.091 186.673 206.176 186.093 206.176C185.073 206.176 184.32 205.936 183.834 205.455C183.348 204.975 183.104 204.245 183.104 203.267V198.547H181.892V196.49H183.104V194.126H186.066ZM188.167 201.157C188.167 200.208 188.352 199.364 188.721 198.626C189.09 197.882 189.62 197.311 190.312 196.912C191.003 196.514 191.814 196.314 192.746 196.314C194.17 196.314 195.292 196.757 196.112 197.642C196.933 198.521 197.343 199.719 197.343 201.236V201.342C197.343 202.824 196.93 204.002 196.104 204.875C195.283 205.742 194.17 206.176 192.764 206.176C191.41 206.176 190.323 205.771 189.503 204.963C188.683 204.148 188.24 203.047 188.176 201.658L188.167 201.157ZM191.129 201.342C191.129 202.221 191.267 202.865 191.542 203.275C191.817 203.686 192.225 203.891 192.764 203.891C193.818 203.891 194.357 203.079 194.381 201.456V201.157C194.381 199.452 193.836 198.6 192.746 198.6C191.756 198.6 191.22 199.335 191.138 200.806L191.129 201.342ZM62.9668 217.49L63.0635 218.606C63.7197 217.745 64.625 217.314 65.7793 217.314C66.7695 217.314 67.5078 217.61 67.9941 218.202C68.4863 218.794 68.7412 219.685 68.7588 220.874V227H65.7881V220.997C65.7881 220.517 65.6914 220.165 65.498 219.942C65.3047 219.714 64.9531 219.6 64.4434 219.6C63.8633 219.6 63.4326 219.828 63.1514 220.285V227H60.1895V217.49H62.9668ZM75.0078 227.176C73.5488 227.176 72.3682 226.742 71.4658 225.875C70.5635 225.002 70.1123 223.868 70.1123 222.474V222.228C70.1123 221.255 70.291 220.396 70.6484 219.652C71.0117 218.908 71.5391 218.334 72.2305 217.93C72.9219 217.52 73.7422 217.314 74.6914 217.314C76.0273 217.314 77.082 217.73 77.8555 218.562C78.6289 219.389 79.0156 220.543 79.0156 222.025V223.177H73.127C73.2324 223.71 73.4639 224.129 73.8213 224.434C74.1787 224.738 74.6416 224.891 75.21 224.891C76.1475 224.891 76.8799 224.562 77.4072 223.906L78.7607 225.506C78.3916 226.016 77.8672 226.423 77.1875 226.728C76.5137 227.026 75.7871 227.176 75.0078 227.176ZM74.6738 219.6C73.8066 219.6 73.291 220.174 73.127 221.322H76.1152V221.094C76.127 220.619 76.0068 220.253 75.7549 219.995C75.5029 219.731 75.1426 219.6 74.6738 219.6ZM84.0693 220.109L85.4492 217.49H88.5254L86.0205 222.122L88.6484 227H85.5547L84.0605 224.188L82.5928 227H79.4814L82.1182 222.122L79.6221 217.49H82.7334L84.0693 220.109ZM92.9287 215.126V217.49H94.4932V219.547H92.9287V223.897C92.9287 224.255 92.9932 224.504 93.1221 224.645C93.251 224.785 93.5059 224.855 93.8867 224.855C94.1797 224.855 94.4258 224.838 94.625 224.803V226.921C94.0918 227.091 93.5352 227.176 92.9551 227.176C91.9355 227.176 91.1826 226.936 90.6963 226.455C90.21 225.975 89.9668 225.245 89.9668 224.267V219.547H88.7539V217.49H89.9668V215.126H92.9287ZM103.599 215.126V217.49H105.163V219.547H103.599V223.897C103.599 224.255 103.663 224.504 103.792 224.645C103.921 224.785 104.176 224.855 104.557 224.855C104.85 224.855 105.096 224.838 105.295 224.803V226.921C104.762 227.091 104.205 227.176 103.625 227.176C102.605 227.176 101.853 226.936 101.366 226.455C100.88 225.975 100.637 225.245 100.637 224.267V219.547H99.4238V217.49H100.637V215.126H103.599ZM112.089 220.171L111.113 220.101C110.182 220.101 109.584 220.394 109.32 220.979V227H106.358V217.49H109.136L109.232 218.712C109.73 217.78 110.425 217.314 111.315 217.314C111.632 217.314 111.907 217.35 112.142 217.42L112.089 220.171ZM118.25 227C118.145 226.807 118.051 226.522 117.969 226.147C117.424 226.833 116.662 227.176 115.684 227.176C114.787 227.176 114.025 226.906 113.398 226.367C112.771 225.822 112.458 225.14 112.458 224.319C112.458 223.288 112.839 222.509 113.601 221.981C114.362 221.454 115.47 221.19 116.923 221.19H117.837V220.689C117.837 219.816 117.459 219.38 116.703 219.38C116 219.38 115.648 219.726 115.648 220.417H112.687C112.687 219.497 113.076 218.75 113.855 218.176C114.641 217.602 115.64 217.314 116.853 217.314C118.065 217.314 119.023 217.61 119.727 218.202C120.43 218.794 120.79 219.605 120.808 220.637V224.847C120.819 225.72 120.954 226.388 121.212 226.851V227H118.25ZM116.396 225.066C116.765 225.066 117.069 224.987 117.31 224.829C117.556 224.671 117.731 224.492 117.837 224.293V222.772H116.976C115.944 222.772 115.429 223.235 115.429 224.161C115.429 224.431 115.52 224.65 115.701 224.82C115.883 224.984 116.114 225.066 116.396 225.066ZM122.082 222.175C122.082 220.669 122.407 219.482 123.058 218.615C123.708 217.748 124.616 217.314 125.782 217.314C126.632 217.314 127.347 217.648 127.927 218.316V213.5H130.897V227H128.234L128.085 225.98C127.476 226.777 126.702 227.176 125.765 227.176C124.634 227.176 123.737 226.742 123.075 225.875C122.413 225.008 122.082 223.774 122.082 222.175ZM125.044 222.359C125.044 224.047 125.536 224.891 126.521 224.891C127.177 224.891 127.646 224.615 127.927 224.064V220.443C127.657 219.881 127.194 219.6 126.538 219.6C125.624 219.6 125.129 220.338 125.053 221.814L125.044 222.359ZM135.705 227H132.734V217.49H135.705V227ZM132.559 215.038C132.559 214.616 132.711 214.271 133.016 214.001C133.32 213.731 133.716 213.597 134.202 213.597C134.688 213.597 135.084 213.731 135.389 214.001C135.693 214.271 135.846 214.616 135.846 215.038C135.846 215.46 135.693 215.806 135.389 216.075C135.084 216.345 134.688 216.479 134.202 216.479C133.716 216.479 133.32 216.345 133.016 216.075C132.711 215.806 132.559 215.46 132.559 215.038ZM140.258 217.49L140.354 218.606C141.011 217.745 141.916 217.314 143.07 217.314C144.061 217.314 144.799 217.61 145.285 218.202C145.777 218.794 146.032 219.685 146.05 220.874V227H143.079V220.997C143.079 220.517 142.982 220.165 142.789 219.942C142.596 219.714 142.244 219.6 141.734 219.6C141.154 219.6 140.724 219.828 140.442 220.285V227H137.48V217.49H140.258ZM147.351 222.175C147.351 221.214 147.509 220.364 147.825 219.626C148.142 218.888 148.596 218.319 149.188 217.921C149.779 217.517 150.468 217.314 151.253 217.314C152.243 217.314 153.017 217.648 153.573 218.316L153.679 217.49H156.368V226.64C156.368 227.478 156.172 228.204 155.779 228.819C155.393 229.44 154.83 229.915 154.092 230.243C153.354 230.577 152.498 230.744 151.525 230.744C150.828 230.744 150.151 230.612 149.495 230.349C148.845 230.085 148.347 229.742 148.001 229.32L149.24 227.58C149.791 228.23 150.518 228.556 151.42 228.556C152.732 228.556 153.389 227.882 153.389 226.534V226.235C152.82 226.862 152.103 227.176 151.235 227.176C150.075 227.176 149.138 226.733 148.423 225.849C147.708 224.958 147.351 223.769 147.351 222.28V222.175ZM150.321 222.359C150.321 223.139 150.468 223.757 150.761 224.214C151.054 224.665 151.464 224.891 151.991 224.891C152.63 224.891 153.096 224.677 153.389 224.249V220.25C153.102 219.816 152.642 219.6 152.009 219.6C151.481 219.6 151.068 219.837 150.77 220.312C150.471 220.78 150.321 221.463 150.321 222.359ZM162.16 222.175C162.16 220.669 162.485 219.482 163.136 218.615C163.786 217.748 164.694 217.314 165.86 217.314C166.71 217.314 167.425 217.648 168.005 218.316V213.5H170.976V227H168.312L168.163 225.98C167.554 226.777 166.78 227.176 165.843 227.176C164.712 227.176 163.815 226.742 163.153 225.875C162.491 225.008 162.16 223.774 162.16 222.175ZM165.122 222.359C165.122 224.047 165.614 224.891 166.599 224.891C167.255 224.891 167.724 224.615 168.005 224.064V220.443C167.735 219.881 167.272 219.6 166.616 219.6C165.702 219.6 165.207 220.338 165.131 221.814L165.122 222.359ZM178.016 227C177.91 226.807 177.816 226.522 177.734 226.147C177.189 226.833 176.428 227.176 175.449 227.176C174.553 227.176 173.791 226.906 173.164 226.367C172.537 225.822 172.224 225.14 172.224 224.319C172.224 223.288 172.604 222.509 173.366 221.981C174.128 221.454 175.235 221.19 176.688 221.19H177.603V220.689C177.603 219.816 177.225 219.38 176.469 219.38C175.766 219.38 175.414 219.726 175.414 220.417H172.452C172.452 219.497 172.842 218.75 173.621 218.176C174.406 217.602 175.405 217.314 176.618 217.314C177.831 217.314 178.789 217.61 179.492 218.202C180.195 218.794 180.556 219.605 180.573 220.637V224.847C180.585 225.72 180.72 226.388 180.978 226.851V227H178.016ZM176.161 225.066C176.53 225.066 176.835 224.987 177.075 224.829C177.321 224.671 177.497 224.492 177.603 224.293V222.772H176.741C175.71 222.772 175.194 223.235 175.194 224.161C175.194 224.431 175.285 224.65 175.467 224.82C175.648 224.984 175.88 225.066 176.161 225.066ZM185.882 222.852L187.464 217.49H190.637L186.761 228.591L186.594 228.995C186.043 230.226 185.07 230.841 183.676 230.841C183.289 230.841 182.882 230.782 182.454 230.665V228.547H182.841C183.257 228.547 183.573 228.485 183.79 228.362C184.013 228.245 184.177 228.031 184.282 227.721L184.52 227.088L181.215 217.49H184.379L185.882 222.852Z" fill="white"/>
<path id="How much do you want to buy?" d="M32.1758 72H30.9507V67.728H26.2915V72H25.0728V62.7578H26.2915V66.7314H30.9507V62.7578H32.1758V72ZM33.8452 68.5024C33.8452 67.8296 33.9764 67.2244 34.2388 66.687C34.5054 66.1496 34.8735 65.7349 35.3433 65.4429C35.8172 65.1509 36.3568 65.0049 36.9619 65.0049C37.8971 65.0049 38.6525 65.3286 39.228 65.9761C39.8078 66.6235 40.0977 67.4847 40.0977 68.5596V68.6421C40.0977 69.3107 39.9686 69.9116 39.7104 70.4448C39.4565 70.9738 39.0905 71.3864 38.6123 71.6826C38.1383 71.9788 37.5924 72.127 36.9746 72.127C36.0436 72.127 35.2882 71.8032 34.7085 71.1558C34.133 70.5083 33.8452 69.6514 33.8452 68.585V68.5024ZM35.0259 68.6421C35.0259 69.4038 35.2015 70.0153 35.5527 70.4766C35.9082 70.9378 36.3822 71.1685 36.9746 71.1685C37.5713 71.1685 38.0452 70.9357 38.3965 70.4702C38.7477 70.0005 38.9233 69.3446 38.9233 68.5024C38.9233 67.7492 38.7435 67.1398 38.3838 66.6743C38.0283 66.2046 37.5544 65.9697 36.9619 65.9697C36.3822 65.9697 35.9146 66.2004 35.5591 66.6616C35.2036 67.1229 35.0259 67.783 35.0259 68.6421ZM47.6514 70.3813L48.9717 65.1318H50.146L48.1465 72H47.1943L45.5249 66.7949L43.8999 72H42.9478L40.9546 65.1318H42.1226L43.4746 70.2734L45.0742 65.1318H46.02L47.6514 70.3813ZM55.6748 65.1318L55.7065 65.8936C56.2101 65.3011 56.8893 65.0049 57.7441 65.0049C58.7048 65.0049 59.3586 65.373 59.7056 66.1094C59.9341 65.7793 60.2303 65.5127 60.5942 65.3096C60.9624 65.1064 61.3962 65.0049 61.8955 65.0049C63.402 65.0049 64.168 65.8026 64.1934 67.3979V72H63.019V67.4678C63.019 66.9769 62.9069 66.6108 62.6826 66.3696C62.4583 66.1242 62.0817 66.0015 61.5527 66.0015C61.1169 66.0015 60.755 66.1326 60.4673 66.395C60.1795 66.6532 60.0124 67.0023 59.9658 67.4424V72H58.7852V67.4995C58.7852 66.5008 58.2964 66.0015 57.3188 66.0015C56.5487 66.0015 56.0218 66.3294 55.7383 66.9854V72H54.564V65.1318H55.6748ZM70.2109 71.3208C69.7539 71.8582 69.0832 72.127 68.1987 72.127C67.4666 72.127 66.908 71.9154 66.5229 71.4922C66.1421 71.0648 65.9495 70.4342 65.9453 69.6006V65.1318H67.1196V69.5688C67.1196 70.6099 67.5428 71.1304 68.3892 71.1304C69.2863 71.1304 69.883 70.7961 70.1792 70.1274V65.1318H71.3535V72H70.2363L70.2109 71.3208ZM75.8984 71.1685C76.3174 71.1685 76.6834 71.0415 76.9966 70.7876C77.3097 70.5337 77.4832 70.2163 77.5171 69.8354H78.6279C78.6068 70.229 78.4714 70.6035 78.2217 70.959C77.972 71.3145 77.6377 71.598 77.2188 71.8096C76.804 72.0212 76.3639 72.127 75.8984 72.127C74.9632 72.127 74.2184 71.8159 73.6641 71.1938C73.1139 70.5675 72.8389 69.7127 72.8389 68.6294V68.4326C72.8389 67.764 72.9616 67.1694 73.207 66.6489C73.4525 66.1284 73.8037 65.7243 74.2607 65.4365C74.722 65.1488 75.2658 65.0049 75.8921 65.0049C76.6623 65.0049 77.3013 65.2355 77.8091 65.6968C78.3211 66.158 78.5941 66.7568 78.6279 67.4932H77.5171C77.4832 67.0488 77.314 66.6849 77.0093 66.4014C76.7088 66.1136 76.3364 65.9697 75.8921 65.9697C75.2954 65.9697 74.832 66.1855 74.502 66.6172C74.1761 67.0446 74.0132 67.6646 74.0132 68.4771V68.6992C74.0132 69.4906 74.1761 70.0999 74.502 70.5273C74.8278 70.9548 75.2933 71.1685 75.8984 71.1685ZM81.1226 65.9634C81.6431 65.3244 82.3201 65.0049 83.1538 65.0049C84.6053 65.0049 85.3374 65.8237 85.3501 67.4614V72H84.1758V67.4551C84.1715 66.96 84.0573 66.5939 83.833 66.3569C83.613 66.12 83.2681 66.0015 82.7983 66.0015C82.4175 66.0015 82.0832 66.103 81.7954 66.3062C81.5076 66.5093 81.2834 66.7759 81.1226 67.106V72H79.9482V62.25H81.1226V65.9634ZM90.0474 68.5088C90.0474 67.4551 90.297 66.6087 90.7964 65.9697C91.2957 65.3265 91.9495 65.0049 92.7578 65.0049C93.5618 65.0049 94.1987 65.2799 94.6685 65.8301V62.25H95.8428V72H94.7637L94.7065 71.2637C94.2368 71.8392 93.583 72.127 92.7451 72.127C91.9495 72.127 91.3 71.8011 90.7964 71.1494C90.297 70.4977 90.0474 69.6471 90.0474 68.5977V68.5088ZM91.2217 68.6421C91.2217 69.4207 91.3825 70.0301 91.7041 70.4702C92.0257 70.9103 92.4701 71.1304 93.0371 71.1304C93.7819 71.1304 94.3257 70.7961 94.6685 70.1274V66.9727C94.3172 66.3252 93.7777 66.0015 93.0498 66.0015C92.4743 66.0015 92.0257 66.2236 91.7041 66.668C91.3825 67.1123 91.2217 67.7703 91.2217 68.6421ZM97.3599 68.5024C97.3599 67.8296 97.491 67.2244 97.7534 66.687C98.02 66.1496 98.3882 65.7349 98.8579 65.4429C99.3319 65.1509 99.8714 65.0049 100.477 65.0049C101.412 65.0049 102.167 65.3286 102.743 65.9761C103.322 66.6235 103.612 67.4847 103.612 68.5596V68.6421C103.612 69.3107 103.483 69.9116 103.225 70.4448C102.971 70.9738 102.605 71.3864 102.127 71.6826C101.653 71.9788 101.107 72.127 100.489 72.127C99.5583 72.127 98.8029 71.8032 98.2231 71.1558C97.6476 70.5083 97.3599 69.6514 97.3599 68.585V68.5024ZM98.5405 68.6421C98.5405 69.4038 98.7161 70.0153 99.0674 70.4766C99.4229 70.9378 99.8968 71.1685 100.489 71.1685C101.086 71.1685 101.56 70.9357 101.911 70.4702C102.262 70.0005 102.438 69.3446 102.438 68.5024C102.438 67.7492 102.258 67.1398 101.898 66.6743C101.543 66.2046 101.069 65.9697 100.477 65.9697C99.8968 65.9697 99.4292 66.2004 99.0737 66.6616C98.7183 67.1229 98.5405 67.783 98.5405 68.6421ZM110.557 70.2798L112.156 65.1318H113.413L110.652 73.0601C110.224 74.2026 109.545 74.7739 108.614 74.7739L108.392 74.7549L107.954 74.6724V73.7202L108.271 73.7456C108.669 73.7456 108.978 73.6652 109.198 73.5044C109.423 73.3436 109.607 73.0495 109.75 72.6221L110.011 71.9238L107.561 65.1318H108.843L110.557 70.2798ZM114.054 68.5024C114.054 67.8296 114.185 67.2244 114.448 66.687C114.714 66.1496 115.083 65.7349 115.552 65.4429C116.026 65.1509 116.566 65.0049 117.171 65.0049C118.106 65.0049 118.861 65.3286 119.437 65.9761C120.017 66.6235 120.307 67.4847 120.307 68.5596V68.6421C120.307 69.3107 120.178 69.9116 119.919 70.4448C119.666 70.9738 119.299 71.3864 118.821 71.6826C118.347 71.9788 117.801 72.127 117.184 72.127C116.253 72.127 115.497 71.8032 114.917 71.1558C114.342 70.5083 114.054 69.6514 114.054 68.585V68.5024ZM115.235 68.6421C115.235 69.4038 115.41 70.0153 115.762 70.4766C116.117 70.9378 116.591 71.1685 117.184 71.1685C117.78 71.1685 118.254 70.9357 118.605 70.4702C118.957 70.0005 119.132 69.3446 119.132 68.5024C119.132 67.7492 118.952 67.1398 118.593 66.6743C118.237 66.2046 117.763 65.9697 117.171 65.9697C116.591 65.9697 116.124 66.2004 115.768 66.6616C115.413 67.1229 115.235 67.783 115.235 68.6421ZM126.02 71.3208C125.562 71.8582 124.892 72.127 124.007 72.127C123.275 72.127 122.717 71.9154 122.332 71.4922C121.951 71.0648 121.758 70.4342 121.754 69.6006V65.1318H122.928V69.5688C122.928 70.6099 123.351 71.1304 124.198 71.1304C125.095 71.1304 125.692 70.7961 125.988 70.1274V65.1318H127.162V72H126.045L126.02 71.3208ZM138.258 70.3813L139.578 65.1318H140.752L138.753 72H137.801L136.131 66.7949L134.506 72H133.554L131.561 65.1318H132.729L134.081 70.2734L135.681 65.1318H136.626L138.258 70.3813ZM146.192 72C146.125 71.8646 146.07 71.6234 146.027 71.2764C145.481 71.8434 144.83 72.127 144.072 72.127C143.395 72.127 142.839 71.9365 142.403 71.5557C141.971 71.1706 141.755 70.6839 141.755 70.0957C141.755 69.3805 142.026 68.8262 142.568 68.4326C143.114 68.0348 143.88 67.8359 144.866 67.8359H146.008V67.2964C146.008 66.8859 145.886 66.5601 145.64 66.3188C145.395 66.0734 145.033 65.9507 144.555 65.9507C144.136 65.9507 143.785 66.0565 143.501 66.2681C143.217 66.4797 143.076 66.7357 143.076 67.0361H141.895C141.895 66.6934 142.016 66.3633 142.257 66.0459C142.502 65.7243 142.832 65.4704 143.247 65.2842C143.666 65.098 144.125 65.0049 144.625 65.0049C145.416 65.0049 146.036 65.2038 146.484 65.6016C146.933 65.9951 147.166 66.5389 147.183 67.2329V70.394C147.183 71.0246 147.263 71.526 147.424 71.8984V72H146.192ZM144.244 71.105C144.612 71.105 144.961 71.0098 145.291 70.8193C145.621 70.6289 145.86 70.3813 146.008 70.0767V68.6675H145.088C143.649 68.6675 142.93 69.0885 142.93 69.9307C142.93 70.2988 143.052 70.5866 143.298 70.7939C143.543 71.0013 143.859 71.105 144.244 71.105ZM150.134 65.1318L150.172 65.9951C150.697 65.335 151.383 65.0049 152.229 65.0049C153.681 65.0049 154.413 65.8237 154.425 67.4614V72H153.251V67.4551C153.247 66.96 153.132 66.5939 152.908 66.3569C152.688 66.12 152.343 66.0015 151.874 66.0015C151.493 66.0015 151.158 66.103 150.871 66.3062C150.583 66.5093 150.359 66.7759 150.198 67.106V72H149.023V65.1318H150.134ZM157.79 63.4688V65.1318H159.072V66.0396H157.79V70.2988C157.79 70.5739 157.847 70.7812 157.961 70.9209C158.075 71.0563 158.27 71.124 158.545 71.124C158.68 71.124 158.867 71.0986 159.104 71.0479V72C158.795 72.0846 158.494 72.127 158.202 72.127C157.677 72.127 157.282 71.9683 157.015 71.6509C156.749 71.3335 156.615 70.8828 156.615 70.2988V66.0396H155.365V65.1318H156.615V63.4688H157.79ZM165.267 63.4688V65.1318H166.549V66.0396H165.267V70.2988C165.267 70.5739 165.324 70.7812 165.438 70.9209C165.553 71.0563 165.747 71.124 166.022 71.124C166.158 71.124 166.344 71.0986 166.581 71.0479V72C166.272 72.0846 165.972 72.127 165.68 72.127C165.155 72.127 164.759 71.9683 164.493 71.6509C164.226 71.3335 164.093 70.8828 164.093 70.2988V66.0396H162.842V65.1318H164.093V63.4688H165.267ZM167.489 68.5024C167.489 67.8296 167.62 67.2244 167.882 66.687C168.149 66.1496 168.517 65.7349 168.987 65.4429C169.461 65.1509 170 65.0049 170.605 65.0049C171.541 65.0049 172.296 65.3286 172.872 65.9761C173.451 66.6235 173.741 67.4847 173.741 68.5596V68.6421C173.741 69.3107 173.612 69.9116 173.354 70.4448C173.1 70.9738 172.734 71.3864 172.256 71.6826C171.782 71.9788 171.236 72.127 170.618 72.127C169.687 72.127 168.932 71.8032 168.352 71.1558C167.777 70.5083 167.489 69.6514 167.489 68.585V68.5024ZM168.669 68.6421C168.669 69.4038 168.845 70.0153 169.196 70.4766C169.552 70.9378 170.026 71.1685 170.618 71.1685C171.215 71.1685 171.689 70.9357 172.04 70.4702C172.391 70.0005 172.567 69.3446 172.567 68.5024C172.567 67.7492 172.387 67.1398 172.027 66.6743C171.672 66.2046 171.198 65.9697 170.605 65.9697C170.026 65.9697 169.558 66.2004 169.203 66.6616C168.847 67.1229 168.669 67.783 168.669 68.6421ZM184.253 68.6421C184.253 69.6916 184.012 70.5358 183.529 71.1748C183.047 71.8096 182.399 72.127 181.587 72.127C180.719 72.127 180.049 71.8201 179.575 71.2065L179.518 72H178.438V62.25H179.613V65.8872C180.087 65.299 180.741 65.0049 181.574 65.0049C182.408 65.0049 183.062 65.3201 183.536 65.9507C184.014 66.5812 184.253 67.4445 184.253 68.5405V68.6421ZM183.079 68.5088C183.079 67.709 182.924 67.0911 182.615 66.6553C182.306 66.2194 181.862 66.0015 181.282 66.0015C180.508 66.0015 179.951 66.3612 179.613 67.0806V70.0513C179.972 70.7707 180.533 71.1304 181.295 71.1304C181.858 71.1304 182.296 70.9124 182.609 70.4766C182.922 70.0407 183.079 69.3848 183.079 68.5088ZM189.979 71.3208C189.521 71.8582 188.851 72.127 187.966 72.127C187.234 72.127 186.676 71.9154 186.291 71.4922C185.91 71.0648 185.717 70.4342 185.713 69.6006V65.1318H186.887V69.5688C186.887 70.6099 187.31 71.1304 188.157 71.1304C189.054 71.1304 189.651 70.7961 189.947 70.1274V65.1318H191.121V72H190.004L189.979 71.3208ZM195.158 70.2798L196.758 65.1318H198.015L195.253 73.0601C194.826 74.2026 194.147 74.7739 193.216 74.7739L192.994 74.7549L192.556 74.6724V73.7202L192.873 73.7456C193.271 73.7456 193.58 73.6652 193.8 73.5044C194.024 73.3436 194.208 73.0495 194.352 72.6221L194.612 71.9238L192.162 65.1318H193.444L195.158 70.2798ZM200.446 69.3975C200.454 68.8939 200.511 68.4961 200.617 68.2041C200.723 67.9121 200.939 67.5884 201.265 67.2329L202.096 66.376C202.452 65.974 202.629 65.5423 202.629 65.0811C202.629 64.6367 202.513 64.2897 202.28 64.04C202.048 63.7861 201.709 63.6592 201.265 63.6592C200.833 63.6592 200.486 63.7734 200.224 64.002C199.961 64.2305 199.83 64.5373 199.83 64.9224H198.656C198.664 64.2368 198.908 63.6846 199.386 63.2656C199.868 62.8424 200.494 62.6309 201.265 62.6309C202.064 62.6309 202.687 62.8467 203.131 63.2783C203.579 63.7057 203.804 64.2939 203.804 65.043C203.804 65.7835 203.461 66.5135 202.775 67.2329L202.083 67.9185C201.775 68.2612 201.62 68.7542 201.62 69.3975H200.446ZM200.395 71.4097C200.395 71.2192 200.452 71.0605 200.566 70.9336C200.685 70.8024 200.858 70.7368 201.087 70.7368C201.315 70.7368 201.489 70.8024 201.607 70.9336C201.726 71.0605 201.785 71.2192 201.785 71.4097C201.785 71.6001 201.726 71.7588 201.607 71.8857C201.489 72.0085 201.315 72.0698 201.087 72.0698C200.858 72.0698 200.685 72.0085 200.566 71.8857C200.452 71.7588 200.395 71.6001 200.395 71.4097Z" fill="black"/>
<path id="$" d="M29.4336 106.62C29.4336 106.23 29.2961 105.902 29.021 105.636C28.7502 105.369 28.291 105.128 27.6436 104.912C26.7422 104.637 26.0841 104.279 25.6694 103.839C25.259 103.395 25.0537 102.832 25.0537 102.151C25.0537 101.457 25.2547 100.888 25.6567 100.443C26.063 99.999 26.6195 99.7345 27.3262 99.6499V98.2598H28.272V99.6562C28.9829 99.7536 29.5352 100.052 29.9287 100.551C30.3265 101.051 30.5254 101.734 30.5254 102.602H29.3574C29.3574 102.005 29.2157 101.531 28.9321 101.18C28.6486 100.828 28.2656 100.653 27.7832 100.653C27.2796 100.653 26.8945 100.784 26.6279 101.046C26.3613 101.305 26.228 101.666 26.228 102.132C26.228 102.563 26.3677 102.908 26.647 103.167C26.9305 103.42 27.3939 103.653 28.0371 103.865C28.6846 104.072 29.1882 104.303 29.5479 104.557C29.9118 104.806 30.1784 105.098 30.3477 105.433C30.5212 105.767 30.6079 106.158 30.6079 106.607C30.6079 107.322 30.3921 107.898 29.9604 108.333C29.533 108.769 28.9321 109.028 28.1577 109.108V110.32H27.2183V109.108C26.4312 109.036 25.8133 108.757 25.3647 108.27C24.9204 107.779 24.6982 107.115 24.6982 106.277H25.8726C25.8726 106.865 26.027 107.318 26.3359 107.635C26.6449 107.953 27.0828 108.111 27.6499 108.111C28.2043 108.111 28.6401 107.978 28.9575 107.711C29.2749 107.445 29.4336 107.081 29.4336 106.62Z" fill="black"/>
<rect id="amountInputPlaceHolder" x="39" y="87" width="145" height="41" fill="#E34D4D"/>
</g>
</svg>
