<svg width="249" height="373" viewBox="0 0 249 373" fill="none" xmlns="http://www.w3.org/2000/svg">
<g id="Day1Buy">
<rect id="Rectangle 21" x="1.5" y="1.5" width="246" height="370" fill="white" stroke="#E5E5E5" stroke-width="3"/>
<rect id="confirmDay1BT" x="14.5" y="182.5" width="218" height="55" rx="8.5" fill="#6BB8FF" stroke="white"/>
<path id="Confirm and go to next trading day" d="M63.5029 201.667C63.4619 202.558 63.2217 203.346 62.7822 204.031C62.3428 204.711 61.7246 205.238 60.9277 205.613C60.1367 205.988 59.2314 206.176 58.2119 206.176C56.5303 206.176 55.2061 205.628 54.2393 204.532C53.2725 203.437 52.7891 201.89 52.7891 199.892V199.259C52.7891 198.005 53.0059 196.909 53.4395 195.972C53.8789 195.028 54.5088 194.302 55.3291 193.792C56.1494 193.276 57.0986 193.019 58.1768 193.019C59.7295 193.019 60.9775 193.429 61.9209 194.249C62.8643 195.063 63.4004 196.188 63.5293 197.624H60.4531C60.4297 196.845 60.2334 196.285 59.8643 195.945C59.4951 195.605 58.9326 195.436 58.1768 195.436C57.4092 195.436 56.8467 195.723 56.4893 196.297C56.1318 196.871 55.9443 197.788 55.9268 199.048V199.953C55.9268 201.318 56.0967 202.294 56.4365 202.88C56.7822 203.466 57.374 203.759 58.2119 203.759C58.9209 203.759 59.4629 203.592 59.8379 203.258C60.2129 202.924 60.4121 202.394 60.4355 201.667H63.5029ZM64.4521 201.157C64.4521 200.208 64.6367 199.364 65.0059 198.626C65.375 197.882 65.9053 197.311 66.5967 196.912C67.2881 196.514 68.0996 196.314 69.0312 196.314C70.4551 196.314 71.5771 196.757 72.3975 197.642C73.2178 198.521 73.6279 199.719 73.6279 201.236V201.342C73.6279 202.824 73.2148 204.002 72.3887 204.875C71.5684 205.742 70.4551 206.176 69.0488 206.176C67.6953 206.176 66.6084 205.771 65.7881 204.963C64.9678 204.148 64.5254 203.047 64.4609 201.658L64.4521 201.157ZM67.4141 201.342C67.4141 202.221 67.5518 202.865 67.8271 203.275C68.1025 203.686 68.5098 203.891 69.0488 203.891C70.1035 203.891 70.6426 203.079 70.666 201.456V201.157C70.666 199.452 70.1211 198.6 69.0312 198.6C68.041 198.6 67.5049 199.335 67.4229 200.806L67.4141 201.342ZM77.6533 196.49L77.75 197.606C78.4062 196.745 79.3115 196.314 80.4658 196.314C81.4561 196.314 82.1943 196.61 82.6807 197.202C83.1729 197.794 83.4277 198.685 83.4453 199.874V206H80.4746V199.997C80.4746 199.517 80.3779 199.165 80.1846 198.942C79.9912 198.714 79.6396 198.6 79.1299 198.6C78.5498 198.6 78.1191 198.828 77.8379 199.285V206H74.876V196.49H77.6533ZM85.7832 206V198.547H84.4033V196.49H85.7832V196.174C85.8008 194.908 86.2168 193.938 87.0312 193.265C87.8047 192.632 88.8857 192.315 90.2744 192.315C91.1475 192.315 92.1787 192.485 93.3682 192.825L92.9639 195.163L92.4717 195.031C91.833 194.861 91.1592 194.776 90.4502 194.776C89.3193 194.776 88.7539 195.292 88.7539 196.323V196.49H90.6172V198.547H88.7539V206H85.7832ZM94.7305 206H91.751V196.49H94.7305V206ZM102.289 199.171L101.313 199.101C100.382 199.101 99.7842 199.394 99.5205 199.979V206H96.5586V196.49H99.3359L99.4326 197.712C99.9307 196.78 100.625 196.314 101.516 196.314C101.832 196.314 102.107 196.35 102.342 196.42L102.289 199.171ZM106.156 196.49L106.253 197.606C106.927 196.745 107.832 196.314 108.969 196.314C110.17 196.314 110.981 196.792 111.403 197.747C112.048 196.792 112.979 196.314 114.198 196.314C116.126 196.314 117.116 197.48 117.169 199.812V206H114.198V199.997C114.198 199.511 114.116 199.156 113.952 198.934C113.788 198.711 113.489 198.6 113.056 198.6C112.47 198.6 112.033 198.86 111.746 199.382L111.755 199.505V206H108.784V200.015C108.784 199.517 108.705 199.156 108.547 198.934C108.389 198.711 108.087 198.6 107.642 198.6C107.073 198.6 106.64 198.86 106.341 199.382V206H103.379V196.49H106.156ZM128.7 206C128.595 205.807 128.501 205.522 128.419 205.147C127.874 205.833 127.112 206.176 126.134 206.176C125.237 206.176 124.476 205.906 123.849 205.367C123.222 204.822 122.908 204.14 122.908 203.319C122.908 202.288 123.289 201.509 124.051 200.981C124.812 200.454 125.92 200.19 127.373 200.19H128.287V199.689C128.287 198.816 127.909 198.38 127.153 198.38C126.45 198.38 126.099 198.726 126.099 199.417H123.137C123.137 198.497 123.526 197.75 124.306 197.176C125.091 196.602 126.09 196.314 127.303 196.314C128.516 196.314 129.474 196.61 130.177 197.202C130.88 197.794 131.24 198.605 131.258 199.637V203.847C131.27 204.72 131.404 205.388 131.662 205.851V206H128.7ZM126.846 204.066C127.215 204.066 127.52 203.987 127.76 203.829C128.006 203.671 128.182 203.492 128.287 203.293V201.772H127.426C126.395 201.772 125.879 202.235 125.879 203.161C125.879 203.431 125.97 203.65 126.151 203.82C126.333 203.984 126.564 204.066 126.846 204.066ZM135.626 196.49L135.723 197.606C136.379 196.745 137.284 196.314 138.438 196.314C139.429 196.314 140.167 196.61 140.653 197.202C141.146 197.794 141.4 198.685 141.418 199.874V206H138.447V199.997C138.447 199.517 138.351 199.165 138.157 198.942C137.964 198.714 137.612 198.6 137.103 198.6C136.522 198.6 136.092 198.828 135.811 199.285V206H132.849V196.49H135.626ZM142.692 201.175C142.692 199.669 143.018 198.482 143.668 197.615C144.318 196.748 145.227 196.314 146.393 196.314C147.242 196.314 147.957 196.648 148.537 197.316V192.5H151.508V206H148.845L148.695 204.98C148.086 205.777 147.312 206.176 146.375 206.176C145.244 206.176 144.348 205.742 143.686 204.875C143.023 204.008 142.692 202.774 142.692 201.175ZM145.654 201.359C145.654 203.047 146.146 203.891 147.131 203.891C147.787 203.891 148.256 203.615 148.537 203.064V199.443C148.268 198.881 147.805 198.6 147.148 198.6C146.234 198.6 145.739 199.338 145.663 200.814L145.654 201.359ZM157.326 201.175C157.326 200.214 157.484 199.364 157.801 198.626C158.117 197.888 158.571 197.319 159.163 196.921C159.755 196.517 160.443 196.314 161.229 196.314C162.219 196.314 162.992 196.648 163.549 197.316L163.654 196.49H166.344V205.64C166.344 206.478 166.147 207.204 165.755 207.819C165.368 208.44 164.806 208.915 164.067 209.243C163.329 209.577 162.474 209.744 161.501 209.744C160.804 209.744 160.127 209.612 159.471 209.349C158.82 209.085 158.322 208.742 157.977 208.32L159.216 206.58C159.767 207.23 160.493 207.556 161.396 207.556C162.708 207.556 163.364 206.882 163.364 205.534V205.235C162.796 205.862 162.078 206.176 161.211 206.176C160.051 206.176 159.113 205.733 158.398 204.849C157.684 203.958 157.326 202.769 157.326 201.28V201.175ZM160.297 201.359C160.297 202.139 160.443 202.757 160.736 203.214C161.029 203.665 161.439 203.891 161.967 203.891C162.605 203.891 163.071 203.677 163.364 203.249V199.25C163.077 198.816 162.617 198.6 161.984 198.6C161.457 198.6 161.044 198.837 160.745 199.312C160.446 199.78 160.297 200.463 160.297 201.359ZM167.653 201.157C167.653 200.208 167.838 199.364 168.207 198.626C168.576 197.882 169.106 197.311 169.798 196.912C170.489 196.514 171.301 196.314 172.232 196.314C173.656 196.314 174.778 196.757 175.599 197.642C176.419 198.521 176.829 199.719 176.829 201.236V201.342C176.829 202.824 176.416 204.002 175.59 204.875C174.77 205.742 173.656 206.176 172.25 206.176C170.896 206.176 169.81 205.771 168.989 204.963C168.169 204.148 167.727 203.047 167.662 201.658L167.653 201.157ZM170.615 201.342C170.615 202.221 170.753 202.865 171.028 203.275C171.304 203.686 171.711 203.891 172.25 203.891C173.305 203.891 173.844 203.079 173.867 201.456V201.157C173.867 199.452 173.322 198.6 172.232 198.6C171.242 198.6 170.706 199.335 170.624 200.806L170.615 201.342ZM186.066 194.126V196.49H187.631V198.547H186.066V202.897C186.066 203.255 186.131 203.504 186.26 203.645C186.389 203.785 186.644 203.855 187.024 203.855C187.317 203.855 187.563 203.838 187.763 203.803V205.921C187.229 206.091 186.673 206.176 186.093 206.176C185.073 206.176 184.32 205.936 183.834 205.455C183.348 204.975 183.104 204.245 183.104 203.267V198.547H181.892V196.49H183.104V194.126H186.066ZM188.167 201.157C188.167 200.208 188.352 199.364 188.721 198.626C189.09 197.882 189.62 197.311 190.312 196.912C191.003 196.514 191.814 196.314 192.746 196.314C194.17 196.314 195.292 196.757 196.112 197.642C196.933 198.521 197.343 199.719 197.343 201.236V201.342C197.343 202.824 196.93 204.002 196.104 204.875C195.283 205.742 194.17 206.176 192.764 206.176C191.41 206.176 190.323 205.771 189.503 204.963C188.683 204.148 188.24 203.047 188.176 201.658L188.167 201.157ZM191.129 201.342C191.129 202.221 191.267 202.865 191.542 203.275C191.817 203.686 192.225 203.891 192.764 203.891C193.818 203.891 194.357 203.079 194.381 201.456V201.157C194.381 199.452 193.836 198.6 192.746 198.6C191.756 198.6 191.22 199.335 191.138 200.806L191.129 201.342ZM62.9668 217.49L63.0635 218.606C63.7197 217.745 64.625 217.314 65.7793 217.314C66.7695 217.314 67.5078 217.61 67.9941 218.202C68.4863 218.794 68.7412 219.685 68.7588 220.874V227H65.7881V220.997C65.7881 220.517 65.6914 220.165 65.498 219.942C65.3047 219.714 64.9531 219.6 64.4434 219.6C63.8633 219.6 63.4326 219.828 63.1514 220.285V227H60.1895V217.49H62.9668ZM75.0078 227.176C73.5488 227.176 72.3682 226.742 71.4658 225.875C70.5635 225.002 70.1123 223.868 70.1123 222.474V222.228C70.1123 221.255 70.291 220.396 70.6484 219.652C71.0117 218.908 71.5391 218.334 72.2305 217.93C72.9219 217.52 73.7422 217.314 74.6914 217.314C76.0273 217.314 77.082 217.73 77.8555 218.562C78.6289 219.389 79.0156 220.543 79.0156 222.025V223.177H73.127C73.2324 223.71 73.4639 224.129 73.8213 224.434C74.1787 224.738 74.6416 224.891 75.21 224.891C76.1475 224.891 76.8799 224.562 77.4072 223.906L78.7607 225.506C78.3916 226.016 77.8672 226.423 77.1875 226.728C76.5137 227.026 75.7871 227.176 75.0078 227.176ZM74.6738 219.6C73.8066 219.6 73.291 220.174 73.127 221.322H76.1152V221.094C76.127 220.619 76.0068 220.253 75.7549 219.995C75.5029 219.731 75.1426 219.6 74.6738 219.6ZM84.0693 220.109L85.4492 217.49H88.5254L86.0205 222.122L88.6484 227H85.5547L84.0605 224.188L82.5928 227H79.4814L82.1182 222.122L79.6221 217.49H82.7334L84.0693 220.109ZM92.9287 215.126V217.49H94.4932V219.547H92.9287V223.897C92.9287 224.255 92.9932 224.504 93.1221 224.645C93.251 224.785 93.5059 224.855 93.8867 224.855C94.1797 224.855 94.4258 224.838 94.625 224.803V226.921C94.0918 227.091 93.5352 227.176 92.9551 227.176C91.9355 227.176 91.1826 226.936 90.6963 226.455C90.21 225.975 89.9668 225.245 89.9668 224.267V219.547H88.7539V217.49H89.9668V215.126H92.9287ZM103.599 215.126V217.49H105.163V219.547H103.599V223.897C103.599 224.255 103.663 224.504 103.792 224.645C103.921 224.785 104.176 224.855 104.557 224.855C104.85 224.855 105.096 224.838 105.295 224.803V226.921C104.762 227.091 104.205 227.176 103.625 227.176C102.605 227.176 101.853 226.936 101.366 226.455C100.88 225.975 100.637 225.245 100.637 224.267V219.547H99.4238V217.49H100.637V215.126H103.599ZM112.089 220.171L111.113 220.101C110.182 220.101 109.584 220.394 109.32 220.979V227H106.358V217.49H109.136L109.232 218.712C109.73 217.78 110.425 217.314 111.315 217.314C111.632 217.314 111.907 217.35 112.142 217.42L112.089 220.171ZM118.25 227C118.145 226.807 118.051 226.522 117.969 226.147C117.424 226.833 116.662 227.176 115.684 227.176C114.787 227.176 114.025 226.906 113.398 226.367C112.771 225.822 112.458 225.14 112.458 224.319C112.458 223.288 112.839 222.509 113.601 221.981C114.362 221.454 115.47 221.19 116.923 221.19H117.837V220.689C117.837 219.816 117.459 219.38 116.703 219.38C116 219.38 115.648 219.726 115.648 220.417H112.687C112.687 219.497 113.076 218.75 113.855 218.176C114.641 217.602 115.64 217.314 116.853 217.314C118.065 217.314 119.023 217.61 119.727 218.202C120.43 218.794 120.79 219.605 120.808 220.637V224.847C120.819 225.72 120.954 226.388 121.212 226.851V227H118.25ZM116.396 225.066C116.765 225.066 117.069 224.987 117.31 224.829C117.556 224.671 117.731 224.492 117.837 224.293V222.772H116.976C115.944 222.772 115.429 223.235 115.429 224.161C115.429 224.431 115.52 224.65 115.701 224.82C115.883 224.984 116.114 225.066 116.396 225.066ZM122.082 222.175C122.082 220.669 122.407 219.482 123.058 218.615C123.708 217.748 124.616 217.314 125.782 217.314C126.632 217.314 127.347 217.648 127.927 218.316V213.5H130.897V227H128.234L128.085 225.98C127.476 226.777 126.702 227.176 125.765 227.176C124.634 227.176 123.737 226.742 123.075 225.875C122.413 225.008 122.082 223.774 122.082 222.175ZM125.044 222.359C125.044 224.047 125.536 224.891 126.521 224.891C127.177 224.891 127.646 224.615 127.927 224.064V220.443C127.657 219.881 127.194 219.6 126.538 219.6C125.624 219.6 125.129 220.338 125.053 221.814L125.044 222.359ZM135.705 227H132.734V217.49H135.705V227ZM132.559 215.038C132.559 214.616 132.711 214.271 133.016 214.001C133.32 213.731 133.716 213.597 134.202 213.597C134.688 213.597 135.084 213.731 135.389 214.001C135.693 214.271 135.846 214.616 135.846 215.038C135.846 215.46 135.693 215.806 135.389 216.075C135.084 216.345 134.688 216.479 134.202 216.479C133.716 216.479 133.32 216.345 133.016 216.075C132.711 215.806 132.559 215.46 132.559 215.038ZM140.258 217.49L140.354 218.606C141.011 217.745 141.916 217.314 143.07 217.314C144.061 217.314 144.799 217.61 145.285 218.202C145.777 218.794 146.032 219.685 146.05 220.874V227H143.079V220.997C143.079 220.517 142.982 220.165 142.789 219.942C142.596 219.714 142.244 219.6 141.734 219.6C141.154 219.6 140.724 219.828 140.442 220.285V227H137.48V217.49H140.258ZM147.351 222.175C147.351 221.214 147.509 220.364 147.825 219.626C148.142 218.888 148.596 218.319 149.188 217.921C149.779 217.517 150.468 217.314 151.253 217.314C152.243 217.314 153.017 217.648 153.573 218.316L153.679 217.49H156.368V226.64C156.368 227.478 156.172 228.204 155.779 228.819C155.393 229.44 154.83 229.915 154.092 230.243C153.354 230.577 152.498 230.744 151.525 230.744C150.828 230.744 150.151 230.612 149.495 230.349C148.845 230.085 148.347 229.742 148.001 229.32L149.24 227.58C149.791 228.23 150.518 228.556 151.42 228.556C152.732 228.556 153.389 227.882 153.389 226.534V226.235C152.82 226.862 152.103 227.176 151.235 227.176C150.075 227.176 149.138 226.733 148.423 225.849C147.708 224.958 147.351 223.769 147.351 222.28V222.175ZM150.321 222.359C150.321 223.139 150.468 223.757 150.761 224.214C151.054 224.665 151.464 224.891 151.991 224.891C152.63 224.891 153.096 224.677 153.389 224.249V220.25C153.102 219.816 152.642 219.6 152.009 219.6C151.481 219.6 151.068 219.837 150.77 220.312C150.471 220.78 150.321 221.463 150.321 222.359ZM162.16 222.175C162.16 220.669 162.485 219.482 163.136 218.615C163.786 217.748 164.694 217.314 165.86 217.314C166.71 217.314 167.425 217.648 168.005 218.316V213.5H170.976V227H168.312L168.163 225.98C167.554 226.777 166.78 227.176 165.843 227.176C164.712 227.176 163.815 226.742 163.153 225.875C162.491 225.008 162.16 223.774 162.16 222.175ZM165.122 222.359C165.122 224.047 165.614 224.891 166.599 224.891C167.255 224.891 167.724 224.615 168.005 224.064V220.443C167.735 219.881 167.272 219.6 166.616 219.6C165.702 219.6 165.207 220.338 165.131 221.814L165.122 222.359ZM178.016 227C177.91 226.807 177.816 226.522 177.734 226.147C177.189 226.833 176.428 227.176 175.449 227.176C174.553 227.176 173.791 226.906 173.164 226.367C172.537 225.822 172.224 225.14 172.224 224.319C172.224 223.288 172.604 222.509 173.366 221.981C174.128 221.454 175.235 221.19 176.688 221.19H177.603V220.689C177.603 219.816 177.225 219.38 176.469 219.38C175.766 219.38 175.414 219.726 175.414 220.417H172.452C172.452 219.497 172.842 218.75 173.621 218.176C174.406 217.602 175.405 217.314 176.618 217.314C177.831 217.314 178.789 217.61 179.492 218.202C180.195 218.794 180.556 219.605 180.573 220.637V224.847C180.585 225.72 180.72 226.388 180.978 226.851V227H178.016ZM176.161 225.066C176.53 225.066 176.835 224.987 177.075 224.829C177.321 224.671 177.497 224.492 177.603 224.293V222.772H176.741C175.71 222.772 175.194 223.235 175.194 224.161C175.194 224.431 175.285 224.65 175.467 224.82C175.648 224.984 175.88 225.066 176.161 225.066ZM185.882 222.852L187.464 217.49H190.637L186.761 228.591L186.594 228.995C186.043 230.226 185.07 230.841 183.676 230.841C183.289 230.841 182.882 230.782 182.454 230.665V228.547H182.841C183.257 228.547 183.573 228.485 183.79 228.362C184.013 228.245 184.177 228.031 184.282 227.721L184.52 227.088L181.215 217.49H184.379L185.882 222.852Z" fill="white"/>
<g id="How much do you want to buy?">
<path d="M32.1758 72H30.9507V67.728H26.2915V72H25.0728V62.7578H26.2915V66.7314H30.9507V62.7578H32.1758V72ZM33.8452 68.5024C33.8452 67.8296 33.9764 67.2244 34.2388 66.687C34.5054 66.1496 34.8735 65.7349 35.3433 65.4429C35.8172 65.1509 36.3568 65.0049 36.9619 65.0049C37.8971 65.0049 38.6525 65.3286 39.228 65.9761C39.8078 66.6235 40.0977 67.4847 40.0977 68.5596V68.6421C40.0977 69.3107 39.9686 69.9116 39.7104 70.4448C39.4565 70.9738 39.0905 71.3864 38.6123 71.6826C38.1383 71.9788 37.5924 72.127 36.9746 72.127C36.0436 72.127 35.2882 71.8032 34.7085 71.1558C34.133 70.5083 33.8452 69.6514 33.8452 68.585V68.5024ZM35.0259 68.6421C35.0259 69.4038 35.2015 70.0153 35.5527 70.4766C35.9082 70.9378 36.3822 71.1685 36.9746 71.1685C37.5713 71.1685 38.0452 70.9357 38.3965 70.4702C38.7477 70.0005 38.9233 69.3446 38.9233 68.5024C38.9233 67.7492 38.7435 67.1398 38.3838 66.6743C38.0283 66.2046 37.5544 65.9697 36.9619 65.9697C36.3822 65.9697 35.9146 66.2004 35.5591 66.6616C35.2036 67.1229 35.0259 67.783 35.0259 68.6421ZM47.6514 70.3813L48.9717 65.1318H50.146L48.1465 72H47.1943L45.5249 66.7949L43.8999 72H42.9478L40.9546 65.1318H42.1226L43.4746 70.2734L45.0742 65.1318H46.02L47.6514 70.3813ZM55.6748 65.1318L55.7065 65.8936C56.2101 65.3011 56.8893 65.0049 57.7441 65.0049C58.7048 65.0049 59.3586 65.373 59.7056 66.1094C59.9341 65.7793 60.2303 65.5127 60.5942 65.3096C60.9624 65.1064 61.3962 65.0049 61.8955 65.0049C63.402 65.0049 64.168 65.8026 64.1934 67.3979V72H63.019V67.4678C63.019 66.9769 62.9069 66.6108 62.6826 66.3696C62.4583 66.1242 62.0817 66.0015 61.5527 66.0015C61.1169 66.0015 60.755 66.1326 60.4673 66.395C60.1795 66.6532 60.0124 67.0023 59.9658 67.4424V72H58.7852V67.4995C58.7852 66.5008 58.2964 66.0015 57.3188 66.0015C56.5487 66.0015 56.0218 66.3294 55.7383 66.9854V72H54.564V65.1318H55.6748ZM70.2109 71.3208C69.7539 71.8582 69.0832 72.127 68.1987 72.127C67.4666 72.127 66.908 71.9154 66.5229 71.4922C66.1421 71.0648 65.9495 70.4342 65.9453 69.6006V65.1318H67.1196V69.5688C67.1196 70.6099 67.5428 71.1304 68.3892 71.1304C69.2863 71.1304 69.883 70.7961 70.1792 70.1274V65.1318H71.3535V72H70.2363L70.2109 71.3208ZM75.8984 71.1685C76.3174 71.1685 76.6834 71.0415 76.9966 70.7876C77.3097 70.5337 77.4832 70.2163 77.5171 69.8354H78.6279C78.6068 70.229 78.4714 70.6035 78.2217 70.959C77.972 71.3145 77.6377 71.598 77.2188 71.8096C76.804 72.0212 76.3639 72.127 75.8984 72.127C74.9632 72.127 74.2184 71.8159 73.6641 71.1938C73.1139 70.5675 72.8389 69.7127 72.8389 68.6294V68.4326C72.8389 67.764 72.9616 67.1694 73.207 66.6489C73.4525 66.1284 73.8037 65.7243 74.2607 65.4365C74.722 65.1488 75.2658 65.0049 75.8921 65.0049C76.6623 65.0049 77.3013 65.2355 77.8091 65.6968C78.3211 66.158 78.5941 66.7568 78.6279 67.4932H77.5171C77.4832 67.0488 77.314 66.6849 77.0093 66.4014C76.7088 66.1136 76.3364 65.9697 75.8921 65.9697C75.2954 65.9697 74.832 66.1855 74.502 66.6172C74.1761 67.0446 74.0132 67.6646 74.0132 68.4771V68.6992C74.0132 69.4906 74.1761 70.0999 74.502 70.5273C74.8278 70.9548 75.2933 71.1685 75.8984 71.1685ZM81.1226 65.9634C81.6431 65.3244 82.3201 65.0049 83.1538 65.0049C84.6053 65.0049 85.3374 65.8237 85.3501 67.4614V72H84.1758V67.4551C84.1715 66.96 84.0573 66.5939 83.833 66.3569C83.613 66.12 83.2681 66.0015 82.7983 66.0015C82.4175 66.0015 82.0832 66.103 81.7954 66.3062C81.5076 66.5093 81.2834 66.7759 81.1226 67.106V72H79.9482V62.25H81.1226V65.9634ZM90.0474 68.5088C90.0474 67.4551 90.297 66.6087 90.7964 65.9697C91.2957 65.3265 91.9495 65.0049 92.7578 65.0049C93.5618 65.0049 94.1987 65.2799 94.6685 65.8301V62.25H95.8428V72H94.7637L94.7065 71.2637C94.2368 71.8392 93.583 72.127 92.7451 72.127C91.9495 72.127 91.3 71.8011 90.7964 71.1494C90.297 70.4977 90.0474 69.6471 90.0474 68.5977V68.5088ZM91.2217 68.6421C91.2217 69.4207 91.3825 70.0301 91.7041 70.4702C92.0257 70.9103 92.4701 71.1304 93.0371 71.1304C93.7819 71.1304 94.3257 70.7961 94.6685 70.1274V66.9727C94.3172 66.3252 93.7777 66.0015 93.0498 66.0015C92.4743 66.0015 92.0257 66.2236 91.7041 66.668C91.3825 67.1123 91.2217 67.7703 91.2217 68.6421ZM97.3599 68.5024C97.3599 67.8296 97.491 67.2244 97.7534 66.687C98.02 66.1496 98.3882 65.7349 98.8579 65.4429C99.3319 65.1509 99.8714 65.0049 100.477 65.0049C101.412 65.0049 102.167 65.3286 102.743 65.9761C103.322 66.6235 103.612 67.4847 103.612 68.5596V68.6421C103.612 69.3107 103.483 69.9116 103.225 70.4448C102.971 70.9738 102.605 71.3864 102.127 71.6826C101.653 71.9788 101.107 72.127 100.489 72.127C99.5583 72.127 98.8029 71.8032 98.2231 71.1558C97.6476 70.5083 97.3599 69.6514 97.3599 68.585V68.5024ZM98.5405 68.6421C98.5405 69.4038 98.7161 70.0153 99.0674 70.4766C99.4229 70.9378 99.8968 71.1685 100.489 71.1685C101.086 71.1685 101.56 70.9357 101.911 70.4702C102.262 70.0005 102.438 69.3446 102.438 68.5024C102.438 67.7492 102.258 67.1398 101.898 66.6743C101.543 66.2046 101.069 65.9697 100.477 65.9697C99.8968 65.9697 99.4292 66.2004 99.0737 66.6616C98.7183 67.1229 98.5405 67.783 98.5405 68.6421ZM110.557 70.2798L112.156 65.1318H113.413L110.652 73.0601C110.224 74.2026 109.545 74.7739 108.614 74.7739L108.392 74.7549L107.954 74.6724V73.7202L108.271 73.7456C108.669 73.7456 108.978 73.6652 109.198 73.5044C109.423 73.3436 109.607 73.0495 109.75 72.6221L110.011 71.9238L107.561 65.1318H108.843L110.557 70.2798ZM114.054 68.5024C114.054 67.8296 114.185 67.2244 114.448 66.687C114.714 66.1496 115.083 65.7349 115.552 65.4429C116.026 65.1509 116.566 65.0049 117.171 65.0049C118.106 65.0049 118.861 65.3286 119.437 65.9761C120.017 66.6235 120.307 67.4847 120.307 68.5596V68.6421C120.307 69.3107 120.178 69.9116 119.919 70.4448C119.666 70.9738 119.299 71.3864 118.821 71.6826C118.347 71.9788 117.801 72.127 117.184 72.127C116.253 72.127 115.497 71.8032 114.917 71.1558C114.342 70.5083 114.054 69.6514 114.054 68.585V68.5024ZM115.235 68.6421C115.235 69.4038 115.41 70.0153 115.762 70.4766C116.117 70.9378 116.591 71.1685 117.184 71.1685C117.78 71.1685 118.254 70.9357 118.605 70.4702C118.957 70.0005 119.132 69.3446 119.132 68.5024C119.132 67.7492 118.952 67.1398 118.593 66.6743C118.237 66.2046 117.763 65.9697 117.171 65.9697C116.591 65.9697 116.124 66.2004 115.768 66.6616C115.413 67.1229 115.235 67.783 115.235 68.6421ZM126.02 71.3208C125.562 71.8582 124.892 72.127 124.007 72.127C123.275 72.127 122.717 71.9154 122.332 71.4922C121.951 71.0648 121.758 70.4342 121.754 69.6006V65.1318H122.928V69.5688C122.928 70.6099 123.351 71.1304 124.198 71.1304C125.095 71.1304 125.692 70.7961 125.988 70.1274V65.1318H127.162V72H126.045L126.02 71.3208ZM138.258 70.3813L139.578 65.1318H140.752L138.753 72H137.801L136.131 66.7949L134.506 72H133.554L131.561 65.1318H132.729L134.081 70.2734L135.681 65.1318H136.626L138.258 70.3813ZM146.192 72C146.125 71.8646 146.07 71.6234 146.027 71.2764C145.481 71.8434 144.83 72.127 144.072 72.127C143.395 72.127 142.839 71.9365 142.403 71.5557C141.971 71.1706 141.755 70.6839 141.755 70.0957C141.755 69.3805 142.026 68.8262 142.568 68.4326C143.114 68.0348 143.88 67.8359 144.866 67.8359H146.008V67.2964C146.008 66.8859 145.886 66.5601 145.64 66.3188C145.395 66.0734 145.033 65.9507 144.555 65.9507C144.136 65.9507 143.785 66.0565 143.501 66.2681C143.217 66.4797 143.076 66.7357 143.076 67.0361H141.895C141.895 66.6934 142.016 66.3633 142.257 66.0459C142.502 65.7243 142.832 65.4704 143.247 65.2842C143.666 65.098 144.125 65.0049 144.625 65.0049C145.416 65.0049 146.036 65.2038 146.484 65.6016C146.933 65.9951 147.166 66.5389 147.183 67.2329V70.394C147.183 71.0246 147.263 71.526 147.424 71.8984V72H146.192ZM144.244 71.105C144.612 71.105 144.961 71.0098 145.291 70.8193C145.621 70.6289 145.86 70.3813 146.008 70.0767V68.6675H145.088C143.649 68.6675 142.93 69.0885 142.93 69.9307C142.93 70.2988 143.052 70.5866 143.298 70.7939C143.543 71.0013 143.859 71.105 144.244 71.105ZM150.134 65.1318L150.172 65.9951C150.697 65.335 151.383 65.0049 152.229 65.0049C153.681 65.0049 154.413 65.8237 154.425 67.4614V72H153.251V67.4551C153.247 66.96 153.132 66.5939 152.908 66.3569C152.688 66.12 152.343 66.0015 151.874 66.0015C151.493 66.0015 151.158 66.103 150.871 66.3062C150.583 66.5093 150.359 66.7759 150.198 67.106V72H149.023V65.1318H150.134ZM157.79 63.4688V65.1318H159.072V66.0396H157.79V70.2988C157.79 70.5739 157.847 70.7812 157.961 70.9209C158.075 71.0563 158.27 71.124 158.545 71.124C158.68 71.124 158.867 71.0986 159.104 71.0479V72C158.795 72.0846 158.494 72.127 158.202 72.127C157.677 72.127 157.282 71.9683 157.015 71.6509C156.749 71.3335 156.615 70.8828 156.615 70.2988V66.0396H155.365V65.1318H156.615V63.4688H157.79ZM165.267 63.4688V65.1318H166.549V66.0396H165.267V70.2988C165.267 70.5739 165.324 70.7812 165.438 70.9209C165.553 71.0563 165.747 71.124 166.022 71.124C166.158 71.124 166.344 71.0986 166.581 71.0479V72C166.272 72.0846 165.972 72.127 165.68 72.127C165.155 72.127 164.759 71.9683 164.493 71.6509C164.226 71.3335 164.093 70.8828 164.093 70.2988V66.0396H162.842V65.1318H164.093V63.4688H165.267ZM167.489 68.5024C167.489 67.8296 167.62 67.2244 167.882 66.687C168.149 66.1496 168.517 65.7349 168.987 65.4429C169.461 65.1509 170 65.0049 170.605 65.0049C171.541 65.0049 172.296 65.3286 172.872 65.9761C173.451 66.6235 173.741 67.4847 173.741 68.5596V68.6421C173.741 69.3107 173.612 69.9116 173.354 70.4448C173.1 70.9738 172.734 71.3864 172.256 71.6826C171.782 71.9788 171.236 72.127 170.618 72.127C169.687 72.127 168.932 71.8032 168.352 71.1558C167.777 70.5083 167.489 69.6514 167.489 68.585V68.5024ZM168.669 68.6421C168.669 69.4038 168.845 70.0153 169.196 70.4766C169.552 70.9378 170.026 71.1685 170.618 71.1685C171.215 71.1685 171.689 70.9357 172.04 70.4702C172.391 70.0005 172.567 69.3446 172.567 68.5024C172.567 67.7492 172.387 67.1398 172.027 66.6743C171.672 66.2046 171.198 65.9697 170.605 65.9697C170.026 65.9697 169.558 66.2004 169.203 66.6616C168.847 67.1229 168.669 67.783 168.669 68.6421ZM184.253 68.6421C184.253 69.6916 184.012 70.5358 183.529 71.1748C183.047 71.8096 182.399 72.127 181.587 72.127C180.719 72.127 180.049 71.8201 179.575 71.2065L179.518 72H178.438V62.25H179.613V65.8872C180.087 65.299 180.741 65.0049 181.574 65.0049C182.408 65.0049 183.062 65.3201 183.536 65.9507C184.014 66.5812 184.253 67.4445 184.253 68.5405V68.6421ZM183.079 68.5088C183.079 67.709 182.924 67.0911 182.615 66.6553C182.306 66.2194 181.862 66.0015 181.282 66.0015C180.508 66.0015 179.951 66.3612 179.613 67.0806V70.0513C179.972 70.7707 180.533 71.1304 181.295 71.1304C181.858 71.1304 182.296 70.9124 182.609 70.4766C182.922 70.0407 183.079 69.3848 183.079 68.5088ZM189.979 71.3208C189.521 71.8582 188.851 72.127 187.966 72.127C187.234 72.127 186.676 71.9154 186.291 71.4922C185.91 71.0648 185.717 70.4342 185.713 69.6006V65.1318H186.887V69.5688C186.887 70.6099 187.31 71.1304 188.157 71.1304C189.054 71.1304 189.651 70.7961 189.947 70.1274V65.1318H191.121V72H190.004L189.979 71.3208ZM195.158 70.2798L196.758 65.1318H198.015L195.253 73.0601C194.826 74.2026 194.147 74.7739 193.216 74.7739L192.994 74.7549L192.556 74.6724V73.7202L192.873 73.7456C193.271 73.7456 193.58 73.6652 193.8 73.5044C194.024 73.3436 194.208 73.0495 194.352 72.6221L194.612 71.9238L192.162 65.1318H193.444L195.158 70.2798ZM200.446 69.3975C200.454 68.8939 200.511 68.4961 200.617 68.2041C200.723 67.9121 200.939 67.5884 201.265 67.2329L202.096 66.376C202.452 65.974 202.629 65.5423 202.629 65.0811C202.629 64.6367 202.513 64.2897 202.28 64.04C202.048 63.7861 201.709 63.6592 201.265 63.6592C200.833 63.6592 200.486 63.7734 200.224 64.002C199.961 64.2305 199.83 64.5373 199.83 64.9224H198.656C198.664 64.2368 198.908 63.6846 199.386 63.2656C199.868 62.8424 200.494 62.6309 201.265 62.6309C202.064 62.6309 202.687 62.8467 203.131 63.2783C203.579 63.7057 203.804 64.2939 203.804 65.043C203.804 65.7835 203.461 66.5135 202.775 67.2329L202.083 67.9185C201.775 68.2612 201.62 68.7542 201.62 69.3975H200.446ZM200.395 71.4097C200.395 71.2192 200.452 71.0605 200.566 70.9336C200.685 70.8024 200.858 70.7368 201.087 70.7368C201.315 70.7368 201.489 70.8024 201.607 70.9336C201.726 71.0605 201.785 71.2192 201.785 71.4097C201.785 71.6001 201.726 71.7588 201.607 71.8857C201.489 72.0085 201.315 72.0698 201.087 72.0698C200.858 72.0698 200.685 72.0085 200.566 71.8857C200.452 71.7588 200.395 71.6001 200.395 71.4097Z" fill="black"/>
<path d="M32.1758 72V73H33.1758V72H32.1758ZM30.9507 72H29.9507V73H30.9507V72ZM30.9507 67.728H31.9507V66.728H30.9507V67.728ZM26.2915 67.728V66.728H25.2915V67.728H26.2915ZM26.2915 72V73H27.2915V72H26.2915ZM25.0728 72H24.0728V73H25.0728V72ZM25.0728 62.7578V61.7578H24.0728V62.7578H25.0728ZM26.2915 62.7578H27.2915V61.7578H26.2915V62.7578ZM26.2915 66.7314H25.2915V67.7314H26.2915V66.7314ZM30.9507 66.7314V67.7314H31.9507V66.7314H30.9507ZM30.9507 62.7578V61.7578H29.9507V62.7578H30.9507ZM32.1758 62.7578H33.1758V61.7578H32.1758V62.7578ZM32.1758 71H30.9507V73H32.1758V71ZM31.9507 72V67.728H29.9507V72H31.9507ZM30.9507 66.728H26.2915V68.728H30.9507V66.728ZM25.2915 67.728V72H27.2915V67.728H25.2915ZM26.2915 71H25.0728V73H26.2915V71ZM26.0728 72V62.7578H24.0728V72H26.0728ZM25.0728 63.7578H26.2915V61.7578H25.0728V63.7578ZM25.2915 62.7578V66.7314H27.2915V62.7578H25.2915ZM26.2915 67.7314H30.9507V65.7314H26.2915V67.7314ZM31.9507 66.7314V62.7578H29.9507V66.7314H31.9507ZM30.9507 63.7578H32.1758V61.7578H30.9507V63.7578ZM31.1758 62.7578V72H33.1758V62.7578H31.1758ZM34.2388 66.687L33.3429 66.2426L33.3401 66.2483L34.2388 66.687ZM35.3433 65.4429L34.8187 64.5915L34.8153 64.5936L35.3433 65.4429ZM39.228 65.9761L38.4806 66.6404L38.483 66.6432L39.228 65.9761ZM39.7104 70.4448L38.8104 70.0091L38.8089 70.0121L39.7104 70.4448ZM38.6123 71.6826L38.0857 70.8325L38.0823 70.8346L38.6123 71.6826ZM34.7085 71.1558L33.9611 71.8201L33.9635 71.8228L34.7085 71.1558ZM35.5527 70.4766L34.7571 71.0824L34.7607 71.087L35.5527 70.4766ZM38.3965 70.4702L39.1947 71.0725L39.1973 71.0691L38.3965 70.4702ZM38.3838 66.6743L37.5863 67.2778L37.5925 67.2858L38.3838 66.6743ZM34.8452 68.5024C34.8452 67.9625 34.9497 67.5103 35.1374 67.1257L33.3401 66.2483C33.0031 66.9386 32.8452 67.6967 32.8452 68.5024H34.8452ZM35.1346 67.1314C35.3259 66.7459 35.5727 66.4777 35.8712 66.2922L34.8153 64.5936C34.1744 64.992 33.6849 65.5533 33.3429 66.2426L35.1346 67.1314ZM35.8678 66.2943C36.1704 66.1078 36.5253 66.0049 36.9619 66.0049V64.0049C36.1883 64.0049 35.4641 64.1939 34.8187 64.5915L35.8678 66.2943ZM36.9619 66.0049C37.6371 66.0049 38.1112 66.2249 38.4806 66.6404L39.9754 65.3117C39.1938 64.4323 38.1572 64.0049 36.9619 64.0049V66.0049ZM38.483 66.6432C38.8621 67.0665 39.0977 67.6701 39.0977 68.5596H41.0977C41.0977 67.2993 40.7534 66.1806 39.973 65.309L38.483 66.6432ZM39.0977 68.5596V68.6421H41.0977V68.5596H39.0977ZM39.0977 68.6421C39.0977 69.1793 38.9947 69.6283 38.8104 70.0091L40.6105 70.8806C40.9424 70.195 41.0977 69.4421 41.0977 68.6421H39.0977ZM38.8089 70.0121C38.6339 70.3768 38.3944 70.6413 38.0857 70.8325L39.1389 72.5327C39.7865 72.1315 40.2792 71.5708 40.612 70.8776L38.8089 70.0121ZM38.0823 70.8346C37.7837 71.0212 37.4254 71.127 36.9746 71.127V73.127C37.7595 73.127 38.4929 72.9365 39.1423 72.5306L38.0823 70.8346ZM36.9746 71.127C36.3052 71.127 35.8288 70.9079 35.4535 70.4887L33.9635 71.8228C34.7477 72.6986 35.7821 73.127 36.9746 73.127V71.127ZM35.4559 70.4914C35.0784 70.0668 34.8452 69.4655 34.8452 68.585H32.8452C32.8452 69.8373 33.1875 70.9498 33.9611 71.8201L35.4559 70.4914ZM34.8452 68.585V68.5024H32.8452V68.585H34.8452ZM34.0259 68.6421C34.0259 69.554 34.237 70.3993 34.7571 71.0824L36.3483 69.8707C36.166 69.6313 36.0259 69.2536 36.0259 68.6421H34.0259ZM34.7607 71.087C35.3093 71.7989 36.0783 72.1685 36.9746 72.1685V70.1685C36.686 70.1685 36.5071 70.0768 36.3448 69.8661L34.7607 71.087ZM36.9746 72.1685C37.8765 72.1685 38.6494 71.7952 39.1947 71.0725L37.5982 69.8679C37.4411 70.0762 37.2661 70.1685 36.9746 70.1685V72.1685ZM39.1973 71.0691C39.7234 70.3656 39.9233 69.4695 39.9233 68.5024H37.9233C37.9233 69.2196 37.7721 69.6354 37.5956 69.8714L39.1973 71.0691ZM39.9233 68.5024C39.9233 67.5906 39.704 66.7474 39.1751 66.0629L37.5925 67.2858C37.783 67.5323 37.9233 67.9078 37.9233 68.5024H39.9233ZM39.1812 66.0709C38.6354 65.3497 37.8655 64.9697 36.9619 64.9697V66.9697C37.2432 66.9697 37.4212 67.0595 37.5864 67.2778L39.1812 66.0709ZM36.9619 64.9697C36.0704 64.9697 35.3108 65.3456 34.767 66.0512L36.3512 67.272C36.5183 67.0552 36.6939 66.9697 36.9619 66.9697V64.9697ZM34.767 66.0512C34.226 66.7532 34.0259 67.6629 34.0259 68.6421H36.0259C36.0259 67.9032 36.1812 67.4925 36.3512 67.272L34.767 66.0512ZM47.6514 70.3813L46.6964 70.6781L47.7529 74.0776L48.6212 70.6253L47.6514 70.3813ZM48.9717 65.1318V64.1318H48.192L48.0019 64.8879L48.9717 65.1318ZM50.146 65.1318L51.1061 65.4114L51.4786 64.1318H50.146V65.1318ZM48.1465 72V73H48.8969L49.1066 72.2795L48.1465 72ZM47.1943 72L46.2421 72.3054L46.4649 73H47.1943V72ZM45.5249 66.7949L46.4771 66.4895L45.512 63.4805L44.5703 66.4969L45.5249 66.7949ZM43.8999 72V73H44.6353L44.8545 72.298L43.8999 72ZM42.9478 72L41.9874 72.2787L42.1967 73H42.9478V72ZM40.9546 65.1318V64.1318H39.6231L39.9942 65.4105L40.9546 65.1318ZM42.1226 65.1318L43.0897 64.8775L42.8936 64.1318H42.1226V65.1318ZM43.4746 70.2734L42.5075 70.5278L43.394 73.8989L44.4295 70.5705L43.4746 70.2734ZM45.0742 65.1318V64.1318H44.3381L44.1194 64.8348L45.0742 65.1318ZM46.02 65.1318L46.975 64.8351L46.7564 64.1318H46.02V65.1318ZM48.6212 70.6253L49.9415 65.3758L48.0019 64.8879L46.6816 70.1374L48.6212 70.6253ZM48.9717 66.1318H50.146V64.1318H48.9717V66.1318ZM49.1859 64.8523L47.1863 71.7205L49.1066 72.2795L51.1061 65.4114L49.1859 64.8523ZM48.1465 71H47.1943V73H48.1465V71ZM48.1466 71.6946L46.4771 66.4895L44.5727 67.1003L46.2421 72.3054L48.1466 71.6946ZM44.5703 66.4969L42.9453 71.702L44.8545 72.298L46.4795 67.0929L44.5703 66.4969ZM43.8999 71H42.9478V73H43.8999V71ZM43.9081 71.7213L41.915 64.8531L39.9942 65.4105L41.9874 72.2787L43.9081 71.7213ZM40.9546 66.1318H42.1226V64.1318H40.9546V66.1318ZM41.1554 65.3862L42.5075 70.5278L44.4417 70.0191L43.0897 64.8775L41.1554 65.3862ZM44.4295 70.5705L46.0291 65.4289L44.1194 64.8348L42.5198 69.9764L44.4295 70.5705ZM45.0742 66.1318H46.02V64.1318H45.0742V66.1318ZM45.0651 65.4286L46.6964 70.6781L48.6063 70.0846L46.975 64.8351L45.0651 65.4286ZM55.6748 65.1318L56.6739 65.0902L56.634 64.1318H55.6748V65.1318ZM55.7065 65.8936L54.7074 65.9352L54.8138 68.4879L56.4685 66.5412L55.7065 65.8936ZM59.7056 66.1094L58.801 66.5357L59.5404 68.1047L60.5278 66.6786L59.7056 66.1094ZM60.5942 65.3096L60.1112 64.434L60.1069 64.4364L60.5942 65.3096ZM64.1934 67.3979H65.1934V67.39L65.1932 67.382L64.1934 67.3979ZM64.1934 72V73H65.1934V72H64.1934ZM63.019 72H62.019V73H63.019V72ZM62.6826 66.3696L61.9444 67.0442L61.9503 67.0506L62.6826 66.3696ZM60.4673 66.395L61.1351 67.1394L61.141 67.134L60.4673 66.395ZM59.9658 67.4424L58.9714 67.3372L58.9658 67.3896V67.4424H59.9658ZM59.9658 72V73H60.9658V72H59.9658ZM58.7852 72H57.7852V73H58.7852V72ZM55.7383 66.9854L54.8204 66.5886L54.7383 66.7785V66.9854H55.7383ZM55.7383 72V73H56.7383V72H55.7383ZM54.564 72H53.564V73H54.564V72ZM54.564 65.1318V64.1318H53.564V65.1318H54.564ZM54.6757 65.1735L54.7074 65.9352L56.7057 65.8519L56.6739 65.0902L54.6757 65.1735ZM56.4685 66.5412C56.7617 66.1962 57.1498 66.0049 57.7441 66.0049V64.0049C56.6289 64.0049 55.6585 64.406 54.9446 65.2459L56.4685 66.5412ZM57.7441 66.0049C58.0997 66.0049 58.3235 66.0731 58.4643 66.1524C58.5949 66.2259 58.708 66.3384 58.801 66.5357L60.6101 65.6831C60.3561 65.144 59.9688 64.7043 59.4456 64.4097C58.9326 64.1208 58.3492 64.0049 57.7441 64.0049V66.0049ZM60.5278 66.6786C60.666 66.4789 60.8458 66.3144 61.0816 66.1828L60.1069 64.4364C59.6148 64.711 59.2022 65.0797 58.8834 65.5402L60.5278 66.6786ZM61.0773 66.1851C61.2721 66.0777 61.5334 66.0049 61.8955 66.0049V64.0049C61.2589 64.0049 60.6527 64.1352 60.1112 64.434L61.0773 66.1851ZM61.8955 66.0049C62.4783 66.0049 62.7446 66.1563 62.8785 66.2958C63.0223 66.4455 63.183 66.7578 63.1935 67.4139L65.1932 67.382C65.1783 66.4427 64.9433 65.5585 64.3212 64.9105C63.6892 64.2524 62.8193 64.0049 61.8955 64.0049V66.0049ZM63.1934 67.3979V72H65.1934V67.3979H63.1934ZM64.1934 71H63.019V73H64.1934V71ZM64.019 72V67.4678H62.019V72H64.019ZM64.019 67.4678C64.019 66.8457 63.8792 66.1879 63.415 65.6887L61.9503 67.0506C61.9346 67.0338 62.019 67.1081 62.019 67.4678H64.019ZM63.4208 65.6951C62.9199 65.1469 62.2002 65.0015 61.5527 65.0015V67.0015C61.745 67.0015 61.861 67.0244 61.9221 67.0443C61.9777 67.0624 61.9693 67.0714 61.9444 67.0442L63.4208 65.6951ZM61.5527 65.0015C60.8996 65.0015 60.2879 65.2053 59.7935 65.6561L61.141 67.134C61.2222 67.06 61.3341 67.0015 61.5527 67.0015V65.0015ZM59.7995 65.6506C59.3008 66.098 59.0399 66.6891 58.9714 67.3372L60.9603 67.5476C60.9848 67.3155 61.0582 67.2083 61.135 67.1394L59.7995 65.6506ZM58.9658 67.4424V72H60.9658V67.4424H58.9658ZM59.9658 71H58.7852V73H59.9658V71ZM59.7852 72V67.4995H57.7852V72H59.7852ZM59.7852 67.4995C59.7852 66.8513 59.6266 66.1805 59.1332 65.6765C58.636 65.1685 57.9673 65.0015 57.3188 65.0015V67.0015C57.481 67.0015 57.5816 67.0225 57.638 67.0417C57.6893 67.0592 57.7028 67.0743 57.7039 67.0755C57.7055 67.0771 57.7233 67.0944 57.7428 67.1543C57.7639 67.2187 57.7852 67.3284 57.7852 67.4995H59.7852ZM57.3188 65.0015C56.7919 65.0015 56.2738 65.1145 55.8176 65.3985C55.3562 65.6857 55.0303 66.103 54.8204 66.5886L56.6562 67.3821C56.7298 67.2118 56.8091 67.1371 56.8745 67.0964C56.9451 67.0524 57.0757 67.0015 57.3188 67.0015V65.0015ZM54.7383 66.9854V72H56.7383V66.9854H54.7383ZM55.7383 71H54.564V73H55.7383V71ZM55.564 72V65.1318H53.564V72H55.564ZM54.564 66.1318H55.6748V64.1318H54.564V66.1318ZM70.2109 71.3208L71.2102 71.2834L71.1142 68.715L69.4491 70.673L70.2109 71.3208ZM66.5229 71.4922L65.7763 72.1575L65.7833 72.1652L66.5229 71.4922ZM65.9453 69.6006H64.9453L64.9453 69.6057L65.9453 69.6006ZM65.9453 65.1318V64.1318H64.9453V65.1318H65.9453ZM67.1196 65.1318H68.1196V64.1318H67.1196V65.1318ZM70.1792 70.1274L71.0935 70.5325L71.1792 70.339V70.1274H70.1792ZM70.1792 65.1318V64.1318H69.1792V65.1318H70.1792ZM71.3535 65.1318H72.3535V64.1318H71.3535V65.1318ZM71.3535 72V73H72.3535V72H71.3535ZM70.2363 72L69.237 72.0374L69.273 73H70.2363V72ZM69.4491 70.673C69.2288 70.9321 68.8705 71.127 68.1987 71.127V73.127C69.2958 73.127 70.279 72.7844 70.9727 71.9686L69.4491 70.673ZM68.1987 71.127C67.6645 71.127 67.4083 70.9793 67.2626 70.8191L65.7833 72.1652C66.4078 72.8514 67.2688 73.127 68.1987 73.127V71.127ZM67.2695 70.8269C67.111 70.649 66.9488 70.2947 66.9453 69.5955L64.9453 69.6057C64.9502 70.5738 65.1732 71.4806 65.7764 72.1575L67.2695 70.8269ZM66.9453 69.6006V65.1318H64.9453V69.6006H66.9453ZM65.9453 66.1318H67.1196V64.1318H65.9453V66.1318ZM66.1196 65.1318V69.5688H68.1196V65.1318H66.1196ZM66.1196 69.5688C66.1196 70.1991 66.2436 70.8573 66.6611 71.3708C67.1108 71.924 67.7508 72.1304 68.3892 72.1304V70.1304C68.2782 70.1304 68.2268 70.1132 68.2131 70.1075C68.2066 70.1049 68.2064 70.104 68.2093 70.1062C68.2124 70.1084 68.2138 70.1102 68.2129 70.1092C68.2073 70.1022 68.1196 69.9797 68.1196 69.5688H66.1196ZM68.3892 72.1304C68.9572 72.1304 69.5112 72.025 69.9983 71.752C70.4987 71.4717 70.8642 71.0499 71.0935 70.5325L69.2649 69.7224C69.1979 69.8736 69.117 69.9533 69.0207 70.0072C68.9112 70.0686 68.7183 70.1304 68.3892 70.1304V72.1304ZM71.1792 70.1274V65.1318H69.1792V70.1274H71.1792ZM70.1792 66.1318H71.3535V64.1318H70.1792V66.1318ZM70.3535 65.1318V72H72.3535V65.1318H70.3535ZM71.3535 71H70.2363V73H71.3535V71ZM71.2356 71.9626L71.2102 71.2834L69.2116 71.3582L69.237 72.0374L71.2356 71.9626ZM77.5171 69.8354V68.8354H76.602L76.521 69.7469L77.5171 69.8354ZM78.6279 69.8354L79.6265 69.8891L79.6831 68.8354H78.6279V69.8354ZM77.2188 71.8096L76.7679 70.9169L76.7643 70.9188L77.2188 71.8096ZM73.6641 71.1938L72.9127 71.8538L72.9175 71.8592L73.6641 71.1938ZM74.2607 65.4365L73.7314 64.5881L73.7279 64.5903L74.2607 65.4365ZM77.8091 65.6968L77.1367 66.437L77.1398 66.4398L77.8091 65.6968ZM78.6279 67.4932V68.4932H79.675L79.6269 67.4472L78.6279 67.4932ZM77.5171 67.4932L76.52 67.5691L76.5904 68.4932H77.5171V67.4932ZM77.0093 66.4014L76.3176 67.1236L76.3228 67.1285L76.328 67.1334L77.0093 66.4014ZM74.502 66.6172L73.7076 66.0097L73.7067 66.0109L74.502 66.6172ZM75.8984 72.1685C76.537 72.1685 77.1277 71.9687 77.6264 71.5644L76.3668 70.0108C76.2392 70.1143 76.0978 70.1685 75.8984 70.1685V72.1685ZM77.6264 71.5644C78.1369 71.1504 78.4539 70.5903 78.5132 69.924L76.521 69.7469C76.5125 69.8423 76.4825 69.917 76.3668 70.0108L77.6264 71.5644ZM77.5171 70.8354H78.6279V68.8354H77.5171V70.8354ZM77.6294 69.7818C77.6193 69.9693 77.5567 70.1659 77.4034 70.3842L79.04 71.5338C79.386 71.0411 79.5943 70.4887 79.6265 69.8891L77.6294 69.7818ZM77.4034 70.3842C77.2557 70.5944 77.0522 70.7734 76.7679 70.917L77.6696 72.7022C78.2232 72.4226 78.6883 72.0345 79.04 71.5338L77.4034 70.3842ZM76.7643 70.9188C76.4903 71.0586 76.2059 71.127 75.8984 71.127V73.127C76.522 73.127 77.1178 72.9837 77.6732 72.7003L76.7643 70.9188ZM75.8984 71.127C75.2096 71.127 74.7509 70.9103 74.4106 70.5285L72.9175 71.8592C73.686 72.7215 74.7169 73.127 75.8984 73.127V71.127ZM74.4154 70.5339C74.0686 70.1392 73.8389 69.5443 73.8389 68.6294H71.8389C71.8389 69.8812 72.1592 70.9959 72.9127 71.8538L74.4154 70.5339ZM73.8389 68.6294V68.4326H71.8389V68.6294H73.8389ZM73.8389 68.4326C73.8389 67.8877 73.9384 67.4426 74.1115 67.0754L72.3025 66.2224C71.9848 66.8963 71.8389 67.6403 71.8389 68.4326H73.8389ZM74.1115 67.0754C74.2812 66.7156 74.5086 66.4622 74.7936 66.2828L73.7279 64.5903C73.0988 64.9864 72.6237 65.5413 72.3025 66.2224L74.1115 67.0754ZM74.79 66.285C75.0696 66.1106 75.4239 66.0049 75.8921 66.0049V64.0049C75.1077 64.0049 74.3744 64.187 73.7314 64.5881L74.79 66.285ZM75.8921 66.0049C76.4465 66.0049 76.8359 66.1637 77.1367 66.437L78.4814 64.9566C77.7667 64.3073 76.8781 64.0049 75.8921 64.0049V66.0049ZM77.1398 66.4398C77.4384 66.7087 77.6065 67.0492 77.629 67.5391L79.6269 67.4472C79.5817 66.4644 79.2039 65.6073 78.4784 64.9538L77.1398 66.4398ZM78.6279 66.4932H77.5171V68.4932H78.6279V66.4932ZM78.5142 67.4172C78.4627 66.7416 78.193 66.1368 77.6905 65.6693L76.328 67.1334C76.435 67.2329 76.5037 67.356 76.52 67.5691L78.5142 67.4172ZM77.701 65.6792C77.2009 65.2002 76.5749 64.9697 75.8921 64.9697V66.9697C76.098 66.9697 76.2168 67.027 76.3176 67.1236L77.701 65.6792ZM75.8921 64.9697C75.0191 64.9697 74.2473 65.304 73.7076 66.0097L75.2963 67.2246C75.4168 67.0671 75.5717 66.9697 75.8921 66.9697V64.9697ZM73.7067 66.0109C73.1954 66.6815 73.0132 67.5519 73.0132 68.4771H75.0132C75.0132 67.7772 75.1568 67.4077 75.2972 67.2235L73.7067 66.0109ZM73.0132 68.4771V68.6992H75.0132V68.4771H73.0132ZM73.0132 68.6992C73.0132 69.6104 73.1983 70.4668 73.7067 71.1336L75.2972 69.9211C75.1539 69.7331 75.0132 69.3708 75.0132 68.6992H73.0132ZM73.7067 71.1336C74.2474 71.8428 75.0262 72.1685 75.8984 72.1685V70.1685C75.5604 70.1685 75.4082 70.0667 75.2972 69.9211L73.7067 71.1336ZM81.1226 65.9634H80.1226V68.7744L81.8979 66.5949L81.1226 65.9634ZM85.3501 67.4614H86.3501L86.3501 67.4537L85.3501 67.4614ZM85.3501 72V73H86.3501V72H85.3501ZM84.1758 72H83.1758V73H84.1758V72ZM84.1758 67.4551H85.1758L85.1757 67.4465L84.1758 67.4551ZM83.833 66.3569L83.1002 67.0374L83.1067 67.0443L83.833 66.3569ZM81.1226 67.106L80.2236 66.668L80.1226 66.8753V67.106H81.1226ZM81.1226 72V73H82.1226V72H81.1226ZM79.9482 72H78.9482V73H79.9482V72ZM79.9482 62.25V61.25H78.9482V62.25H79.9482ZM81.1226 62.25H82.1226V61.25H81.1226V62.25ZM81.8979 66.5949C82.226 66.1922 82.6168 66.0049 83.1538 66.0049V64.0049C82.0235 64.0049 81.0602 64.4566 80.3472 65.3318L81.8979 66.5949ZM83.1538 66.0049C83.6915 66.0049 83.9257 66.151 84.046 66.2855C84.1864 66.4426 84.3448 66.7774 84.3501 67.4692L86.3501 67.4537C86.3427 66.5077 86.1287 65.6143 85.537 64.9525C84.9252 64.2682 84.0676 64.0049 83.1538 64.0049V66.0049ZM84.3501 67.4614V72H86.3501V67.4614H84.3501ZM85.3501 71H84.1758V73H85.3501V71ZM85.1758 72V67.4551H83.1758V72H85.1758ZM85.1757 67.4465C85.1704 66.826 85.0285 66.1653 84.5593 65.6695L83.1067 67.0443C83.0861 67.0225 83.1727 67.094 83.1758 67.4636L85.1757 67.4465ZM84.5658 65.6765C84.0845 65.1581 83.4187 65.0015 82.7983 65.0015V67.0015C82.9528 67.0015 83.0417 67.0214 83.0844 67.0361C83.1213 67.0487 83.1159 67.0543 83.1002 67.0374L84.5658 65.6765ZM82.7983 65.0015C82.2286 65.0015 81.6891 65.1572 81.2187 65.4892L82.3721 67.1231C82.4772 67.0489 82.6063 67.0015 82.7983 67.0015V65.0015ZM81.2187 65.4892C80.7874 65.7937 80.4549 66.1931 80.2236 66.668L82.0215 67.5439C82.1118 67.3586 82.2279 67.2249 82.3721 67.1231L81.2187 65.4892ZM80.1226 67.106V72H82.1226V67.106H80.1226ZM81.1226 71H79.9482V73H81.1226V71ZM80.9482 72V62.25H78.9482V72H80.9482ZM79.9482 63.25H81.1226V61.25H79.9482V63.25ZM80.1226 62.25V65.9634H82.1226V62.25H80.1226ZM90.7964 65.9697L91.5843 66.5855L91.5863 66.5829L90.7964 65.9697ZM94.6685 65.8301L93.908 66.4794L95.6685 68.5413V65.8301H94.6685ZM94.6685 62.25V61.25H93.6685V62.25H94.6685ZM95.8428 62.25H96.8428V61.25H95.8428V62.25ZM95.8428 72V73H96.8428V72H95.8428ZM94.7637 72L93.7667 72.0774L93.8382 73H94.7637V72ZM94.7065 71.2637L95.7035 71.1863L95.5104 68.6972L93.9318 70.6314L94.7065 71.2637ZM90.7964 71.1494L90.0026 71.7576L90.0051 71.7609L90.7964 71.1494ZM94.6685 70.1274L95.5583 70.5836L95.6685 70.3688V70.1274H94.6685ZM94.6685 66.9727H95.6685V66.7189L95.5474 66.4958L94.6685 66.9727ZM91.0474 68.5088C91.0474 67.611 91.2588 67.0021 91.5843 66.5855L90.0084 65.354C89.3353 66.2153 89.0474 67.2992 89.0474 68.5088H91.0474ZM91.5863 66.5829C91.8979 66.1816 92.2612 66.0049 92.7578 66.0049V64.0049C91.6379 64.0049 90.6936 64.4714 90.0065 65.3565L91.5863 66.5829ZM92.7578 66.0049C93.3059 66.0049 93.6508 66.1783 93.908 66.4794L95.4289 65.1807C94.7466 64.3816 93.8178 64.0049 92.7578 64.0049V66.0049ZM95.6685 65.8301V62.25H93.6685V65.8301H95.6685ZM94.6685 63.25H95.8428V61.25H94.6685V63.25ZM94.8428 62.25V72H96.8428V62.25H94.8428ZM95.8428 71H94.7637V73H95.8428V71ZM95.7607 71.9226L95.7035 71.1863L93.7095 71.341L93.7667 72.0774L95.7607 71.9226ZM93.9318 70.6314C93.6778 70.9426 93.326 71.127 92.7451 71.127V73.127C93.84 73.127 94.7958 72.7358 95.4813 71.896L93.9318 70.6314ZM92.7451 71.127C92.2718 71.127 91.9097 70.9547 91.5877 70.538L90.0051 71.7609C90.6903 72.6475 91.6273 73.127 92.7451 73.127V71.127ZM91.5902 70.5412C91.2578 70.1075 91.0474 69.4891 91.0474 68.5977H89.0474C89.0474 69.8052 89.3363 70.888 90.0026 71.7576L91.5902 70.5412ZM91.0474 68.5977V68.5088H89.0474V68.5977H91.0474ZM90.2217 68.6421C90.2217 69.5451 90.4065 70.3895 90.8967 71.0602L92.5115 69.8802C92.3584 69.6707 92.2217 69.2964 92.2217 68.6421H90.2217ZM90.8967 71.0602C91.4154 71.77 92.1661 72.1304 93.0371 72.1304V70.1304C92.774 70.1304 92.6361 70.0507 92.5115 69.8802L90.8967 71.0602ZM93.0371 72.1304C93.5631 72.1304 94.0732 72.0107 94.5273 71.7315C94.9809 71.4526 95.3184 71.0517 95.5583 70.5836L93.7786 69.6712C93.6758 69.8718 93.57 69.9723 93.4798 70.0278C93.3901 70.0829 93.2559 70.1304 93.0371 70.1304V72.1304ZM95.6685 70.1274V66.9727H93.6685V70.1274H95.6685ZM95.5474 66.4958C95.3013 66.042 94.9624 65.6553 94.5149 65.3868C94.0667 65.1178 93.5661 65.0015 93.0498 65.0015V67.0015C93.2614 67.0015 93.3945 67.0469 93.4859 67.1018C93.5779 67.1569 93.6844 67.2558 93.7895 67.4495L95.5474 66.4958ZM93.0498 65.0015C92.1721 65.0015 91.4143 65.3628 90.894 66.0816L92.5142 67.2543C92.6371 67.0845 92.7764 67.0015 93.0498 67.0015V65.0015ZM90.894 66.0816C90.3954 66.7705 90.2217 67.6745 90.2217 68.6421H92.2217C92.2217 67.8662 92.3696 67.4541 92.5142 67.2543L90.894 66.0816ZM97.7534 66.687L96.8576 66.2426L96.8548 66.2483L97.7534 66.687ZM98.8579 65.4429L98.3334 64.5915L98.33 64.5936L98.8579 65.4429ZM102.743 65.9761L101.995 66.6404L101.998 66.6432L102.743 65.9761ZM103.225 70.4448L102.325 70.0091L102.324 70.0121L103.225 70.4448ZM102.127 71.6826L101.6 70.8325L101.597 70.8346L102.127 71.6826ZM98.2231 71.1558L97.4757 71.8201L97.4782 71.8228L98.2231 71.1558ZM99.0674 70.4766L98.2718 71.0824L98.2753 71.087L99.0674 70.4766ZM101.911 70.4702L102.709 71.0725L102.712 71.0691L101.911 70.4702ZM101.898 66.6743L101.101 67.2778L101.107 67.2858L101.898 66.6743ZM98.3599 68.5024C98.3599 67.9625 98.4643 67.5103 98.6521 67.1257L96.8548 66.2483C96.5178 66.9386 96.3599 67.6967 96.3599 68.5024H98.3599ZM98.6493 67.1314C98.8405 66.7459 99.0873 66.4777 99.3858 66.2922L98.33 64.5936C97.689 64.992 97.1995 65.5533 96.8576 66.2426L98.6493 67.1314ZM99.3824 66.2943C99.685 66.1078 100.04 66.0049 100.477 66.0049V64.0049C99.7029 64.0049 98.9787 64.1939 98.3334 64.5915L99.3824 66.2943ZM100.477 66.0049C101.152 66.0049 101.626 66.2249 101.995 66.6404L103.49 65.3117C102.708 64.4323 101.672 64.0049 100.477 64.0049V66.0049ZM101.998 66.6432C102.377 67.0665 102.612 67.6701 102.612 68.5596H104.612C104.612 67.2993 104.268 66.1806 103.488 65.309L101.998 66.6432ZM102.612 68.5596V68.6421H104.612V68.5596H102.612ZM102.612 68.6421C102.612 69.1793 102.509 69.6283 102.325 70.0091L104.125 70.8806C104.457 70.195 104.612 69.4421 104.612 68.6421H102.612ZM102.324 70.0121C102.149 70.3768 101.909 70.6413 101.6 70.8325L102.654 72.5327C103.301 72.1315 103.794 71.5708 104.127 70.8776L102.324 70.0121ZM101.597 70.8346C101.298 71.0212 100.94 71.127 100.489 71.127V73.127C101.274 73.127 102.008 72.9365 102.657 72.5306L101.597 70.8346ZM100.489 71.127C99.8198 71.127 99.3435 70.9079 98.9681 70.4887L97.4782 71.8228C98.2623 72.6986 99.2967 73.127 100.489 73.127V71.127ZM98.9706 70.4914C98.5931 70.0668 98.3599 69.4655 98.3599 68.585H96.3599C96.3599 69.8373 96.7021 70.9498 97.4757 71.8201L98.9706 70.4914ZM98.3599 68.585V68.5024H96.3599V68.585H98.3599ZM97.5405 68.6421C97.5405 69.554 97.7516 70.3993 98.2718 71.0824L99.863 69.8707C99.6807 69.6313 99.5405 69.2536 99.5405 68.6421H97.5405ZM98.2753 71.087C98.8239 71.7989 99.593 72.1685 100.489 72.1685V70.1685C100.201 70.1685 100.022 70.0768 99.8595 69.8661L98.2753 71.087ZM100.489 72.1685C101.391 72.1685 102.164 71.7952 102.709 71.0725L101.113 69.8679C100.956 70.0762 100.781 70.1685 100.489 70.1685V72.1685ZM102.712 71.0691C103.238 70.3656 103.438 69.4695 103.438 68.5024H101.438C101.438 69.2196 101.287 69.6354 101.11 69.8714L102.712 71.0691ZM103.438 68.5024C103.438 67.5906 103.219 66.7474 102.69 66.0629L101.107 67.2858C101.298 67.5323 101.438 67.9078 101.438 68.5024H103.438ZM102.696 66.0709C102.15 65.3497 101.38 64.9697 100.477 64.9697V66.9697C100.758 66.9697 100.936 67.0595 101.101 67.2778L102.696 66.0709ZM100.477 64.9697C99.585 64.9697 98.8254 65.3456 98.2816 66.0512L99.8658 67.272C100.033 67.0552 100.209 66.9697 100.477 66.9697V64.9697ZM98.2816 66.0512C97.7406 66.7532 97.5405 67.6629 97.5405 68.6421H99.5405C99.5405 67.9032 99.6959 67.4925 99.8658 67.272L98.2816 66.0512ZM110.557 70.2798L109.608 70.5957L110.589 73.5442L111.512 70.5765L110.557 70.2798ZM112.156 65.1318V64.1318H111.42L111.201 64.8351L112.156 65.1318ZM113.413 65.1318L114.357 65.4607L114.82 64.1318H113.413V65.1318ZM110.652 73.0601L111.588 73.4104L111.592 73.3997L111.596 73.389L110.652 73.0601ZM108.614 74.7739L108.529 75.7703L108.571 75.7739H108.614V74.7739ZM108.392 74.7549L108.207 75.7376L108.256 75.7469L108.307 75.7512L108.392 74.7549ZM107.954 74.6724H106.954V75.5016L107.769 75.6551L107.954 74.6724ZM107.954 73.7202L108.034 72.7234L106.954 72.637V73.7202H107.954ZM108.271 73.7456L108.192 74.7424L108.232 74.7456H108.271V73.7456ZM109.198 73.5044L108.616 72.6917L108.608 72.697L109.198 73.5044ZM109.75 72.6221L108.813 72.2728L108.808 72.2878L108.803 72.303L109.75 72.6221ZM110.011 71.9238L110.948 72.2731L111.076 71.9295L110.951 71.5845L110.011 71.9238ZM107.561 65.1318V64.1318H106.137L106.62 65.4712L107.561 65.1318ZM108.843 65.1318L109.792 64.816L109.564 64.1318H108.843V65.1318ZM111.512 70.5765L113.111 65.4286L111.201 64.8351L109.602 69.9831L111.512 70.5765ZM112.156 66.1318H113.413V64.1318H112.156V66.1318ZM112.469 64.8029L109.707 72.7312L111.596 73.389L114.357 65.4607L112.469 64.8029ZM109.715 72.7097C109.54 73.1774 109.346 73.4391 109.178 73.5802C109.028 73.7064 108.857 73.7739 108.614 73.7739V75.7739C109.303 75.7739 109.936 75.5559 110.466 75.1107C110.977 74.6805 111.336 74.0853 111.588 73.4104L109.715 72.7097ZM108.7 73.7776L108.477 73.7585L108.307 75.7512L108.529 75.7703L108.7 73.7776ZM108.577 73.7722L108.139 73.6897L107.769 75.6551L108.207 75.7376L108.577 73.7722ZM108.954 74.6724V73.7202H106.954V74.6724H108.954ZM107.874 74.717L108.192 74.7424L108.351 72.7488L108.034 72.7234L107.874 74.717ZM108.271 74.7456C108.788 74.7456 109.334 74.6434 109.788 74.3118L108.608 72.697C108.622 72.687 108.55 72.7456 108.271 72.7456V74.7456ZM109.781 74.3171C110.253 73.9785 110.526 73.4521 110.698 72.9411L108.803 72.303C108.749 72.4634 108.697 72.5683 108.657 72.6327C108.617 72.6967 108.598 72.704 108.616 72.6917L109.781 74.3171ZM110.688 72.9713L110.948 72.2731L109.074 71.5746L108.813 72.2728L110.688 72.9713ZM110.951 71.5845L108.501 64.7925L106.62 65.4712L109.07 72.2632L110.951 71.5845ZM107.561 66.1318H108.843V64.1318H107.561V66.1318ZM107.894 65.4477L109.608 70.5957L111.505 69.9639L109.792 64.816L107.894 65.4477ZM114.448 66.687L113.552 66.2426L113.549 66.2483L114.448 66.687ZM115.552 65.4429L115.028 64.5915L115.024 64.5936L115.552 65.4429ZM119.437 65.9761L118.69 66.6404L118.692 66.6432L119.437 65.9761ZM119.919 70.4448L119.019 70.0091L119.018 70.0121L119.919 70.4448ZM118.821 71.6826L118.295 70.8325L118.291 70.8346L118.821 71.6826ZM114.917 71.1558L114.17 71.8201L114.172 71.8228L114.917 71.1558ZM115.762 70.4766L114.966 71.0824L114.97 71.087L115.762 70.4766ZM118.605 70.4702L119.404 71.0725L119.406 71.0691L118.605 70.4702ZM118.593 66.6743L117.795 67.2778L117.801 67.2858L118.593 66.6743ZM115.054 68.5024C115.054 67.9625 115.159 67.5103 115.346 67.1257L113.549 66.2483C113.212 66.9386 113.054 67.6967 113.054 68.5024H115.054ZM115.344 67.1314C115.535 66.7459 115.782 66.4777 116.08 66.2922L115.024 64.5936C114.383 64.992 113.894 65.5533 113.552 66.2426L115.344 67.1314ZM116.077 66.2943C116.379 66.1078 116.734 66.0049 117.171 66.0049V64.0049C116.397 64.0049 115.673 64.1939 115.028 64.5915L116.077 66.2943ZM117.171 66.0049C117.846 66.0049 118.32 66.2249 118.69 66.6404L120.184 65.3117C119.403 64.4323 118.366 64.0049 117.171 64.0049V66.0049ZM118.692 66.6432C119.071 67.0665 119.307 67.6701 119.307 68.5596H121.307C121.307 67.2993 120.962 66.1806 120.182 65.309L118.692 66.6432ZM119.307 68.5596V68.6421H121.307V68.5596H119.307ZM119.307 68.6421C119.307 69.1793 119.204 69.6283 119.019 70.0091L120.82 70.8806C121.151 70.195 121.307 69.4421 121.307 68.6421H119.307ZM119.018 70.0121C118.843 70.3768 118.603 70.6413 118.295 70.8325L119.348 72.5327C119.996 72.1315 120.488 71.5708 120.821 70.8776L119.018 70.0121ZM118.291 70.8346C117.993 71.0212 117.634 71.127 117.184 71.127V73.127C117.968 73.127 118.702 72.9365 119.351 72.5306L118.291 70.8346ZM117.184 71.127C116.514 71.127 116.038 70.9079 115.662 70.4887L114.172 71.8228C114.957 72.6986 115.991 73.127 117.184 73.127V71.127ZM115.665 70.4914C115.287 70.0668 115.054 69.4655 115.054 68.585H113.054C113.054 69.8373 113.396 70.9498 114.17 71.8201L115.665 70.4914ZM115.054 68.585V68.5024H113.054V68.585H115.054ZM114.235 68.6421C114.235 69.554 114.446 70.3993 114.966 71.0824L116.557 69.8707C116.375 69.6313 116.235 69.2536 116.235 68.6421H114.235ZM114.97 71.087C115.518 71.7989 116.287 72.1685 117.184 72.1685V70.1685C116.895 70.1685 116.716 70.0768 116.554 69.8661L114.97 71.087ZM117.184 72.1685C118.085 72.1685 118.858 71.7952 119.404 71.0725L117.807 69.8679C117.65 70.0762 117.475 70.1685 117.184 70.1685V72.1685ZM119.406 71.0691C119.932 70.3656 120.132 69.4695 120.132 68.5024H118.132C118.132 69.2196 117.981 69.6354 117.805 69.8714L119.406 71.0691ZM120.132 68.5024C120.132 67.5906 119.913 66.7474 119.384 66.0629L117.801 67.2858C117.992 67.5323 118.132 67.9078 118.132 68.5024H120.132ZM119.39 66.0709C118.844 65.3497 118.074 64.9697 117.171 64.9697V66.9697C117.452 66.9697 117.63 67.0595 117.795 67.2778L119.39 66.0709ZM117.171 64.9697C116.279 64.9697 115.52 65.3456 114.976 66.0512L116.56 67.272C116.727 67.0552 116.903 66.9697 117.171 66.9697V64.9697ZM114.976 66.0512C114.435 66.7532 114.235 67.6629 114.235 68.6421H116.235C116.235 67.9032 116.39 67.4925 116.56 67.272L114.976 66.0512ZM126.02 71.3208L127.019 71.2834L126.923 68.715L125.258 70.673L126.02 71.3208ZM122.332 71.4922L121.585 72.1575L121.592 72.1652L122.332 71.4922ZM121.754 69.6006H120.754L120.754 69.6057L121.754 69.6006ZM121.754 65.1318V64.1318H120.754V65.1318H121.754ZM122.928 65.1318H123.928V64.1318H122.928V65.1318ZM125.988 70.1274L126.902 70.5325L126.988 70.339V70.1274H125.988ZM125.988 65.1318V64.1318H124.988V65.1318H125.988ZM127.162 65.1318H128.162V64.1318H127.162V65.1318ZM127.162 72V73H128.162V72H127.162ZM126.045 72L125.046 72.0374L125.082 73H126.045V72ZM125.258 70.673C125.037 70.9321 124.679 71.127 124.007 71.127V73.127C125.104 73.127 126.088 72.7844 126.781 71.9686L125.258 70.673ZM124.007 71.127C123.473 71.127 123.217 70.9793 123.071 70.8191L121.592 72.1652C122.216 72.8514 123.077 73.127 124.007 73.127V71.127ZM123.078 70.8269C122.92 70.649 122.757 70.2947 122.754 69.5955L120.754 69.6057C120.759 70.5738 120.982 71.4806 121.585 72.1575L123.078 70.8269ZM122.754 69.6006V65.1318H120.754V69.6006H122.754ZM121.754 66.1318H122.928V64.1318H121.754V66.1318ZM121.928 65.1318V69.5688H123.928V65.1318H121.928ZM121.928 69.5688C121.928 70.1991 122.052 70.8573 122.47 71.3708C122.919 71.924 123.559 72.1304 124.198 72.1304V70.1304C124.087 70.1304 124.035 70.1132 124.022 70.1075C124.015 70.1049 124.015 70.104 124.018 70.1062C124.021 70.1084 124.022 70.1102 124.022 70.1092C124.016 70.1022 123.928 69.9797 123.928 69.5688H121.928ZM124.198 72.1304C124.766 72.1304 125.32 72.025 125.807 71.752C126.307 71.4717 126.673 71.0499 126.902 70.5325L125.074 69.7224C125.007 69.8736 124.926 69.9533 124.829 70.0072C124.72 70.0686 124.527 70.1304 124.198 70.1304V72.1304ZM126.988 70.1274V65.1318H124.988V70.1274H126.988ZM125.988 66.1318H127.162V64.1318H125.988V66.1318ZM126.162 65.1318V72H128.162V65.1318H126.162ZM127.162 71H126.045V73H127.162V71ZM127.044 71.9626L127.019 71.2834L125.02 71.3582L125.046 72.0374L127.044 71.9626ZM138.258 70.3813L137.303 70.6781L138.359 74.0776L139.228 70.6253L138.258 70.3813ZM139.578 65.1318V64.1318H138.798L138.608 64.8879L139.578 65.1318ZM140.752 65.1318L141.713 65.4114L142.085 64.1318H140.752V65.1318ZM138.753 72V73H139.503L139.713 72.2795L138.753 72ZM137.801 72L136.849 72.3054L137.071 73H137.801V72ZM136.131 66.7949L137.084 66.4895L136.118 63.4805L135.177 66.4969L136.131 66.7949ZM134.506 72V73H135.242L135.461 72.298L134.506 72ZM133.554 72L132.594 72.2787L132.803 73H133.554V72ZM131.561 65.1318V64.1318H130.23L130.601 65.4105L131.561 65.1318ZM132.729 65.1318L133.696 64.8775L133.5 64.1318H132.729V65.1318ZM134.081 70.2734L133.114 70.5278L134 73.8989L135.036 70.5705L134.081 70.2734ZM135.681 65.1318V64.1318H134.944L134.726 64.8348L135.681 65.1318ZM136.626 65.1318L137.581 64.8351L137.363 64.1318H136.626V65.1318ZM139.228 70.6253L140.548 65.3758L138.608 64.8879L137.288 70.1374L139.228 70.6253ZM139.578 66.1318H140.752V64.1318H139.578V66.1318ZM139.792 64.8523L137.793 71.7205L139.713 72.2795L141.713 65.4114L139.792 64.8523ZM138.753 71H137.801V73H138.753V71ZM138.753 71.6946L137.084 66.4895L135.179 67.1003L136.849 72.3054L138.753 71.6946ZM135.177 66.4969L133.552 71.702L135.461 72.298L137.086 67.0929L135.177 66.4969ZM134.506 71H133.554V73H134.506V71ZM134.515 71.7213L132.521 64.8531L130.601 65.4105L132.594 72.2787L134.515 71.7213ZM131.561 66.1318H132.729V64.1318H131.561V66.1318ZM131.762 65.3862L133.114 70.5278L135.048 70.0191L133.696 64.8775L131.762 65.3862ZM135.036 70.5705L136.636 65.4289L134.726 64.8348L133.126 69.9764L135.036 70.5705ZM135.681 66.1318H136.626V64.1318H135.681V66.1318ZM135.672 65.4286L137.303 70.6781L139.213 70.0846L137.581 64.8351L135.672 65.4286ZM146.192 72L145.298 72.4472L145.574 73H146.192V72ZM146.027 71.2764L147.02 71.1553L146.765 69.0678L145.307 70.5828L146.027 71.2764ZM142.403 71.5557L141.737 72.3019L141.745 72.3087L142.403 71.5557ZM142.568 68.4326L143.156 69.2416L143.157 69.2408L142.568 68.4326ZM146.008 67.8359V68.8359H147.008V67.8359H146.008ZM145.64 66.3188L144.933 67.026L144.939 67.0321L145.64 66.3188ZM143.076 67.0361V68.0361H144.076V67.0361H143.076ZM141.895 67.0361H140.895V68.0361H141.895V67.0361ZM142.257 66.0459L141.462 65.4392L141.461 65.4408L142.257 66.0459ZM143.247 65.2842L142.841 64.3704L142.837 64.3719L143.247 65.2842ZM146.484 65.6016L145.821 66.3498L145.825 66.3533L146.484 65.6016ZM147.183 67.2329H148.183V67.2207L148.182 67.2085L147.183 67.2329ZM147.424 71.8984H148.424V71.6918L148.342 71.502L147.424 71.8984ZM147.424 72V73H148.424V72H147.424ZM146.008 70.0767L146.908 70.5139L147.008 70.3068V70.0767H146.008ZM146.008 68.6675H147.008V67.6675H146.008V68.6675ZM147.087 71.5528C147.104 71.5871 147.095 71.5803 147.075 71.4952C147.058 71.4185 147.039 71.3074 147.02 71.1553L145.035 71.3974C145.077 71.7482 145.146 72.1432 145.298 72.4472L147.087 71.5528ZM145.307 70.5828C144.941 70.9627 144.546 71.127 144.072 71.127V73.127C145.113 73.127 146.022 72.7242 146.748 71.9699L145.307 70.5828ZM144.072 71.127C143.594 71.127 143.284 70.9978 143.061 70.8026L141.745 72.3087C142.393 72.8752 143.197 73.127 144.072 73.127V71.127ZM143.069 70.8095C142.854 70.6177 142.755 70.4044 142.755 70.0957H140.755C140.755 70.9634 141.089 71.7234 141.737 72.3019L143.069 70.8095ZM142.755 70.0957C142.755 69.6751 142.893 69.4325 143.156 69.2416L141.98 67.6236C141.159 68.2198 140.755 69.086 140.755 70.0957H142.755ZM143.157 69.2408C143.469 69.0132 143.998 68.8359 144.866 68.8359V66.8359C143.761 66.8359 142.758 67.0565 141.979 67.6244L143.157 69.2408ZM144.866 68.8359H146.008V66.8359H144.866V68.8359ZM147.008 67.8359V67.2964H145.008V67.8359H147.008ZM147.008 67.2964C147.008 66.6733 146.814 66.0705 146.341 65.6056L144.939 67.0321C144.957 67.0496 145.008 67.0985 145.008 67.2964H147.008ZM146.347 65.6117C145.853 65.1171 145.196 64.9507 144.555 64.9507V66.9507C144.711 66.9507 144.808 66.971 144.863 66.9897C144.914 67.0068 144.929 67.0223 144.933 67.026L146.347 65.6117ZM144.555 64.9507C143.961 64.9507 143.389 65.1036 142.903 65.4666L144.099 67.0695C144.18 67.0094 144.31 66.9507 144.555 66.9507V64.9507ZM142.903 65.4666C142.417 65.8291 142.076 66.3616 142.076 67.0361H144.076C144.076 67.0404 144.075 67.0512 144.071 67.066C144.068 67.0809 144.062 67.0938 144.057 67.1032C144.046 67.1224 144.048 67.1078 144.099 67.0695L142.903 65.4666ZM143.076 66.0361H141.895V68.0361H143.076V66.0361ZM142.895 67.0361C142.895 66.9463 142.922 66.8239 143.053 66.651L141.461 65.4408C141.11 65.9027 140.895 66.4405 140.895 67.0361H142.895ZM143.052 66.6526C143.184 66.479 143.375 66.323 143.657 66.1964L142.837 64.3719C142.29 64.6177 141.82 64.9696 141.462 65.4392L143.052 66.6526ZM143.653 66.198C143.933 66.0735 144.252 66.0049 144.625 66.0049V64.0049C143.998 64.0049 143.399 64.1224 142.841 64.3704L143.653 66.198ZM144.625 66.0049C145.251 66.0049 145.607 66.1602 145.821 66.3498L147.148 64.8534C146.464 64.2473 145.581 64.0049 144.625 64.0049V66.0049ZM145.825 66.3533C146.029 66.532 146.172 66.7926 146.183 67.2573L148.182 67.2085C148.16 66.2852 147.837 65.4582 147.144 64.8499L145.825 66.3533ZM146.183 67.2329V70.394H148.183V67.2329H146.183ZM146.183 70.394C146.183 71.0933 146.269 71.7474 146.506 72.2949L148.342 71.502C148.257 71.3047 148.183 70.9559 148.183 70.394H146.183ZM146.424 71.8984V72H148.424V71.8984H146.424ZM147.424 71H146.192V73H147.424V71ZM144.244 72.105C144.794 72.105 145.314 71.9604 145.791 71.6855L144.791 69.9532C144.608 70.0591 144.43 70.105 144.244 70.105V72.105ZM145.791 71.6855C146.272 71.4082 146.662 71.0202 146.908 70.5139L145.109 69.6395C145.059 69.7425 144.971 69.8497 144.791 69.9532L145.791 71.6855ZM147.008 70.0767V68.6675H145.008V70.0767H147.008ZM146.008 67.6675H145.088V69.6675H146.008V67.6675ZM145.088 67.6675C144.304 67.6675 143.551 67.7764 142.964 68.1202C142.294 68.5124 141.93 69.159 141.93 69.9307H143.93C143.93 69.8659 143.942 69.8575 143.934 69.8729C143.925 69.8888 143.923 69.8761 143.974 69.8463C144.106 69.7691 144.433 69.6675 145.088 69.6675V67.6675ZM141.93 69.9307C141.93 70.5453 142.148 71.1316 142.652 71.5578L143.943 70.0301C143.938 70.0257 143.938 70.0245 143.939 70.0266C143.941 70.0289 143.942 70.0308 143.942 70.0303C143.941 70.0296 143.938 70.023 143.936 70.0078C143.933 69.9923 143.93 69.9673 143.93 69.9307H141.93ZM142.652 71.5578C143.113 71.9465 143.671 72.105 144.244 72.105V70.105C144.046 70.105 143.974 70.0561 143.943 70.0301L142.652 71.5578ZM150.134 65.1318L151.133 65.0878L151.091 64.1318H150.134V65.1318ZM150.172 65.9951L149.173 66.0392L149.291 68.7108L150.955 66.6174L150.172 65.9951ZM154.425 67.4614H155.425L155.425 67.4537L154.425 67.4614ZM154.425 72V73H155.425V72H154.425ZM153.251 72H152.251V73H153.251V72ZM153.251 67.4551H154.251L154.251 67.4465L153.251 67.4551ZM152.908 66.3569L152.175 67.0374L152.182 67.0443L152.908 66.3569ZM150.198 67.106L149.299 66.668L149.198 66.8753V67.106H150.198ZM150.198 72V73H151.198V72H150.198ZM149.023 72H148.023V73H149.023V72ZM149.023 65.1318V64.1318H148.023V65.1318H149.023ZM149.135 65.1759L149.173 66.0392L151.171 65.951L151.133 65.0878L149.135 65.1759ZM150.955 66.6174C151.289 66.1969 151.686 66.0049 152.229 66.0049V64.0049C151.079 64.0049 150.105 64.473 149.39 65.3729L150.955 66.6174ZM152.229 66.0049C152.767 66.0049 153.001 66.151 153.121 66.2855C153.262 66.4426 153.42 66.7774 153.425 67.4692L155.425 67.4537C155.418 66.5077 155.204 65.6143 154.612 64.9525C154 64.2682 153.143 64.0049 152.229 64.0049V66.0049ZM153.425 67.4614V72H155.425V67.4614H153.425ZM154.425 71H153.251V73H154.425V71ZM154.251 72V67.4551H152.251V72H154.251ZM154.251 67.4465C154.246 66.826 154.104 66.1653 153.634 65.6695L152.182 67.0443C152.161 67.0225 152.248 67.094 152.251 67.4636L154.251 67.4465ZM153.641 65.6765C153.16 65.1581 152.494 65.0015 151.874 65.0015V67.0015C152.028 67.0015 152.117 67.0214 152.16 67.0361C152.196 67.0487 152.191 67.0543 152.175 67.0374L153.641 65.6765ZM151.874 65.0015C151.304 65.0015 150.764 65.1572 150.294 65.4892L151.447 67.1231C151.552 67.0489 151.682 67.0015 151.874 67.0015V65.0015ZM150.294 65.4892C149.863 65.7937 149.53 66.1931 149.299 66.668L151.097 67.5439C151.187 67.3586 151.303 67.2249 151.447 67.1231L150.294 65.4892ZM149.198 67.106V72H151.198V67.106H149.198ZM150.198 71H149.023V73H150.198V71ZM150.023 72V65.1318H148.023V72H150.023ZM149.023 66.1318H150.134V64.1318H149.023V66.1318ZM157.79 63.4688H158.79V62.4688H157.79V63.4688ZM157.79 65.1318H156.79V66.1318H157.79V65.1318ZM159.072 65.1318H160.072V64.1318H159.072V65.1318ZM159.072 66.0396V67.0396H160.072V66.0396H159.072ZM157.79 66.0396V65.0396H156.79V66.0396H157.79ZM157.961 70.9209L157.187 71.5541L157.192 71.56L157.197 71.5658L157.961 70.9209ZM159.104 71.0479H160.104V69.8109L158.894 70.07L159.104 71.0479ZM159.104 72L159.368 72.9645L160.104 72.7629V72H159.104ZM156.615 66.0396H157.615V65.0396H156.615V66.0396ZM155.365 66.0396H154.365V67.0396H155.365V66.0396ZM155.365 65.1318V64.1318H154.365V65.1318H155.365ZM156.615 65.1318V66.1318H157.615V65.1318H156.615ZM156.615 63.4688V62.4688H155.615V63.4688H156.615ZM156.79 63.4688V65.1318H158.79V63.4688H156.79ZM157.79 66.1318H159.072V64.1318H157.79V66.1318ZM158.072 65.1318V66.0396H160.072V65.1318H158.072ZM159.072 65.0396H157.79V67.0396H159.072V65.0396ZM156.79 66.0396V70.2988H158.79V66.0396H156.79ZM156.79 70.2988C156.79 70.6892 156.867 71.1632 157.187 71.5541L158.735 70.2877C158.781 70.3445 158.795 70.3897 158.796 70.395C158.797 70.3975 158.795 70.3914 158.793 70.3748C158.791 70.3583 158.79 70.3333 158.79 70.2988H156.79ZM157.197 71.5658C157.586 72.0267 158.138 72.124 158.545 72.124V70.124C158.484 70.124 158.484 70.1159 158.521 70.1287C158.565 70.1441 158.649 70.1855 158.725 70.276L157.197 71.5658ZM158.545 72.124C158.785 72.124 159.052 72.0816 159.313 72.0257L158.894 70.07C158.681 70.1157 158.575 70.124 158.545 70.124V72.124ZM158.104 71.0479V72H160.104V71.0479H158.104ZM158.839 71.0355C158.608 71.0989 158.397 71.127 158.202 71.127V73.127C158.592 73.127 158.981 73.0704 159.368 72.9645L158.839 71.0355ZM158.202 71.127C157.888 71.127 157.809 71.041 157.781 71.0077L156.249 72.2941C156.755 72.8956 157.467 73.127 158.202 73.127V71.127ZM157.781 71.0077C157.717 70.9318 157.615 70.7425 157.615 70.2988H155.615C155.615 71.0231 155.78 71.7352 156.249 72.2941L157.781 71.0077ZM157.615 70.2988V66.0396H155.615V70.2988H157.615ZM156.615 65.0396H155.365V67.0396H156.615V65.0396ZM156.365 66.0396V65.1318H154.365V66.0396H156.365ZM155.365 66.1318H156.615V64.1318H155.365V66.1318ZM157.615 65.1318V63.4688H155.615V65.1318H157.615ZM156.615 64.4688H157.79V62.4688H156.615V64.4688ZM165.267 63.4688H166.267V62.4688H165.267V63.4688ZM165.267 65.1318H164.267V66.1318H165.267V65.1318ZM166.549 65.1318H167.549V64.1318H166.549V65.1318ZM166.549 66.0396V67.0396H167.549V66.0396H166.549ZM165.267 66.0396V65.0396H164.267V66.0396H165.267ZM165.438 70.9209L164.665 71.5541L164.669 71.56L164.674 71.5658L165.438 70.9209ZM166.581 71.0479H167.581V69.8109L166.372 70.07L166.581 71.0479ZM166.581 72L166.845 72.9645L167.581 72.7629V72H166.581ZM164.093 66.0396H165.093V65.0396H164.093V66.0396ZM162.842 66.0396H161.842V67.0396H162.842V66.0396ZM162.842 65.1318V64.1318H161.842V65.1318H162.842ZM164.093 65.1318V66.1318H165.093V65.1318H164.093ZM164.093 63.4688V62.4688H163.093V63.4688H164.093ZM164.267 63.4688V65.1318H166.267V63.4688H164.267ZM165.267 66.1318H166.549V64.1318H165.267V66.1318ZM165.549 65.1318V66.0396H167.549V65.1318H165.549ZM166.549 65.0396H165.267V67.0396H166.549V65.0396ZM164.267 66.0396V70.2988H166.267V66.0396H164.267ZM164.267 70.2988C164.267 70.6892 164.345 71.1632 164.665 71.5541L166.212 70.2877C166.259 70.3445 166.273 70.3897 166.274 70.395C166.275 70.3975 166.273 70.3914 166.271 70.3748C166.269 70.3583 166.267 70.3333 166.267 70.2988H164.267ZM164.674 71.5658C165.063 72.0267 165.616 72.124 166.022 72.124V70.124C165.962 70.124 165.962 70.1159 165.999 70.1287C166.043 70.1441 166.126 70.1855 166.203 70.276L164.674 71.5658ZM166.022 72.124C166.263 72.124 166.53 72.0816 166.791 72.0257L166.372 70.07C166.159 70.1157 166.053 70.124 166.022 70.124V72.124ZM165.581 71.0479V72H167.581V71.0479H165.581ZM166.317 71.0355C166.086 71.0989 165.874 71.127 165.68 71.127V73.127C166.069 73.127 166.459 73.0704 166.845 72.9645L166.317 71.0355ZM165.68 71.127C165.365 71.127 165.286 71.041 165.258 71.0077L163.727 72.2941C164.232 72.8956 164.945 73.127 165.68 73.127V71.127ZM165.258 71.0077C165.195 70.9318 165.093 70.7425 165.093 70.2988H163.093C163.093 71.0231 163.257 71.7352 163.727 72.2941L165.258 71.0077ZM165.093 70.2988V66.0396H163.093V70.2988H165.093ZM164.093 65.0396H162.842V67.0396H164.093V65.0396ZM163.842 66.0396V65.1318H161.842V66.0396H163.842ZM162.842 66.1318H164.093V64.1318H162.842V66.1318ZM165.093 65.1318V63.4688H163.093V65.1318H165.093ZM164.093 64.4688H165.267V62.4688H164.093V64.4688ZM167.882 66.687L166.986 66.2426L166.984 66.2483L167.882 66.687ZM168.987 65.4429L168.462 64.5915L168.459 64.5936L168.987 65.4429ZM172.872 65.9761L172.124 66.6404L172.127 66.6432L172.872 65.9761ZM173.354 70.4448L172.454 70.0091L172.452 70.0121L173.354 70.4448ZM172.256 71.6826L171.729 70.8325L171.726 70.8346L172.256 71.6826ZM168.352 71.1558L167.605 71.8201L167.607 71.8228L168.352 71.1558ZM169.196 70.4766L168.401 71.0824L168.404 71.087L169.196 70.4766ZM172.04 70.4702L172.838 71.0725L172.841 71.0691L172.04 70.4702ZM172.027 66.6743L171.23 67.2778L171.236 67.2858L172.027 66.6743ZM168.489 68.5024C168.489 67.9625 168.593 67.5103 168.781 67.1257L166.984 66.2483C166.647 66.9386 166.489 67.6967 166.489 68.5024H168.489ZM168.778 67.1314C168.969 66.7459 169.216 66.4777 169.515 66.2922L168.459 64.5936C167.818 64.992 167.328 65.5533 166.986 66.2426L168.778 67.1314ZM169.511 66.2943C169.814 66.1078 170.169 66.0049 170.605 66.0049V64.0049C169.832 64.0049 169.108 64.1939 168.462 64.5915L169.511 66.2943ZM170.605 66.0049C171.281 66.0049 171.755 66.2249 172.124 66.6404L173.619 65.3117C172.837 64.4323 171.801 64.0049 170.605 64.0049V66.0049ZM172.127 66.6432C172.506 67.0665 172.741 67.6701 172.741 68.5596H174.741C174.741 67.2993 174.397 66.1806 173.617 65.309L172.127 66.6432ZM172.741 68.5596V68.6421H174.741V68.5596H172.741ZM172.741 68.6421C172.741 69.1793 172.638 69.6283 172.454 70.0091L174.254 70.8806C174.586 70.195 174.741 69.4421 174.741 68.6421H172.741ZM172.452 70.0121C172.277 70.3768 172.038 70.6413 171.729 70.8325L172.782 72.5327C173.43 72.1315 173.923 71.5708 174.256 70.8776L172.452 70.0121ZM171.726 70.8346C171.427 71.0212 171.069 71.127 170.618 71.127V73.127C171.403 73.127 172.137 72.9365 172.786 72.5306L171.726 70.8346ZM170.618 71.127C169.949 71.127 169.472 70.9079 169.097 70.4887L167.607 71.8228C168.391 72.6986 169.426 73.127 170.618 73.127V71.127ZM169.099 70.4914C168.722 70.0668 168.489 69.4655 168.489 68.585H166.489C166.489 69.8373 166.831 70.9498 167.605 71.8201L169.099 70.4914ZM168.489 68.585V68.5024H166.489V68.585H168.489ZM167.669 68.6421C167.669 69.554 167.881 70.3993 168.401 71.0824L169.992 69.8707C169.81 69.6313 169.669 69.2536 169.669 68.6421H167.669ZM168.404 71.087C168.953 71.7989 169.722 72.1685 170.618 72.1685V70.1685C170.33 70.1685 170.151 70.0768 169.988 69.8661L168.404 71.087ZM170.618 72.1685C171.52 72.1685 172.293 71.7952 172.838 71.0725L171.242 69.8679C171.085 70.0762 170.91 70.1685 170.618 70.1685V72.1685ZM172.841 71.0691C173.367 70.3656 173.567 69.4695 173.567 68.5024H171.567C171.567 69.2196 171.416 69.6354 171.239 69.8714L172.841 71.0691ZM173.567 68.5024C173.567 67.5906 173.348 66.7474 172.819 66.0629L171.236 67.2858C171.427 67.5323 171.567 67.9078 171.567 68.5024H173.567ZM172.825 66.0709C172.279 65.3497 171.509 64.9697 170.605 64.9697V66.9697C170.887 66.9697 171.065 67.0595 171.23 67.2778L172.825 66.0709ZM170.605 64.9697C169.714 64.9697 168.954 65.3456 168.411 66.0512L169.995 67.272C170.162 67.0552 170.337 66.9697 170.605 66.9697V64.9697ZM168.411 66.0512C167.87 66.7532 167.669 67.6629 167.669 68.6421H169.669C169.669 67.9032 169.825 67.4925 169.995 67.272L168.411 66.0512ZM183.529 71.1748L184.325 71.7799L184.327 71.7773L183.529 71.1748ZM179.575 71.2065L180.366 70.5953L178.765 68.5228L178.577 71.1347L179.575 71.2065ZM179.518 72V73H180.448L180.515 72.0718L179.518 72ZM178.438 72H177.438V73H178.438V72ZM178.438 62.25V61.25H177.438V62.25H178.438ZM179.613 62.25H180.613V61.25H179.613V62.25ZM179.613 65.8872H178.613V68.7221L180.391 66.5146L179.613 65.8872ZM183.536 65.9507L182.736 66.5515L182.739 66.555L183.536 65.9507ZM179.613 67.0806L178.708 66.6548L178.613 66.857V67.0806H179.613ZM179.613 70.0513H178.613V70.2873L178.718 70.4985L179.613 70.0513ZM183.253 68.6421C183.253 69.5417 183.047 70.154 182.731 70.5723L184.327 71.7773C184.976 70.9177 185.253 69.8415 185.253 68.6421H183.253ZM182.733 70.5697C182.444 70.9501 182.094 71.127 181.587 71.127V73.127C182.705 73.127 183.65 72.669 184.325 71.7799L182.733 70.5697ZM181.587 71.127C180.987 71.127 180.626 70.9322 180.366 70.5953L178.783 71.8178C179.471 72.7081 180.452 73.127 181.587 73.127V71.127ZM178.577 71.1347L178.52 71.9282L180.515 72.0718L180.572 71.2784L178.577 71.1347ZM179.518 71H178.438V73H179.518V71ZM179.438 72V62.25H177.438V72H179.438ZM178.438 63.25H179.613V61.25H178.438V63.25ZM178.613 62.25V65.8872H180.613V62.25H178.613ZM180.391 66.5146C180.654 66.1885 181.007 66.0049 181.574 66.0049V64.0049C180.474 64.0049 179.519 64.4095 178.834 65.2598L180.391 66.5146ZM181.574 66.0049C182.114 66.0049 182.463 66.1885 182.736 66.5515L184.335 65.3498C183.66 64.4518 182.701 64.0049 181.574 64.0049V66.0049ZM182.739 66.555C183.043 66.9558 183.253 67.5803 183.253 68.5405H185.253C185.253 67.3087 184.985 66.2067 184.332 65.3464L182.739 66.555ZM183.253 68.5405V68.6421H185.253V68.5405H183.253ZM184.079 68.5088C184.079 67.5991 183.906 66.747 183.431 66.077L181.799 67.2335C181.942 67.4353 182.079 67.8188 182.079 68.5088H184.079ZM183.431 66.077C182.917 65.3513 182.154 65.0015 181.282 65.0015V67.0015C181.57 67.0015 181.696 67.0875 181.799 67.2335L183.431 66.077ZM181.282 65.0015C180.736 65.0015 180.207 65.1304 179.741 65.4314C179.277 65.7314 178.941 66.16 178.708 66.6548L180.518 67.5064C180.623 67.2817 180.735 67.1708 180.827 67.1111C180.918 67.0524 181.054 67.0015 181.282 67.0015V65.0015ZM178.613 67.0806V70.0513H180.613V67.0806H178.613ZM178.718 70.4985C178.962 70.9857 179.303 71.4069 179.763 71.7023C180.227 71.9997 180.751 72.1304 181.295 72.1304V70.1304C181.077 70.1304 180.94 70.0812 180.843 70.0189C180.743 69.9546 180.623 69.8362 180.507 69.6041L178.718 70.4985ZM181.295 72.1304C182.161 72.1304 182.909 71.7721 183.421 71.06L181.797 69.8931C181.682 70.0528 181.554 70.1304 181.295 70.1304V72.1304ZM183.421 71.06C183.912 70.3769 184.079 69.4732 184.079 68.5088H182.079C182.079 69.2963 181.932 69.7044 181.797 69.8931L183.421 71.06ZM189.979 71.3208L190.978 71.2834L190.882 68.715L189.217 70.673L189.979 71.3208ZM186.291 71.4922L185.544 72.1575L185.551 72.1652L186.291 71.4922ZM185.713 69.6006H184.713L184.713 69.6057L185.713 69.6006ZM185.713 65.1318V64.1318H184.713V65.1318H185.713ZM186.887 65.1318H187.887V64.1318H186.887V65.1318ZM189.947 70.1274L190.861 70.5325L190.947 70.339V70.1274H189.947ZM189.947 65.1318V64.1318H188.947V65.1318H189.947ZM191.121 65.1318H192.121V64.1318H191.121V65.1318ZM191.121 72V73H192.121V72H191.121ZM190.004 72L189.005 72.0374L189.041 73H190.004V72ZM189.217 70.673C188.996 70.9321 188.638 71.127 187.966 71.127V73.127C189.063 73.127 190.047 72.7844 190.74 71.9686L189.217 70.673ZM187.966 71.127C187.432 71.127 187.176 70.9793 187.03 70.8191L185.551 72.1652C186.175 72.8514 187.036 73.127 187.966 73.127V71.127ZM187.037 70.8269C186.879 70.649 186.716 70.2947 186.713 69.5955L184.713 69.6057C184.718 70.5738 184.941 71.4806 185.544 72.1575L187.037 70.8269ZM186.713 69.6006V65.1318H184.713V69.6006H186.713ZM185.713 66.1318H186.887V64.1318H185.713V66.1318ZM185.887 65.1318V69.5688H187.887V65.1318H185.887ZM185.887 69.5688C185.887 70.1991 186.011 70.8573 186.429 71.3708C186.878 71.924 187.518 72.1304 188.157 72.1304V70.1304C188.046 70.1304 187.994 70.1132 187.981 70.1075C187.974 70.1049 187.974 70.104 187.977 70.1062C187.98 70.1084 187.981 70.1102 187.981 70.1092C187.975 70.1022 187.887 69.9797 187.887 69.5688H185.887ZM188.157 72.1304C188.725 72.1304 189.279 72.025 189.766 71.752C190.266 71.4717 190.632 71.0499 190.861 70.5325L189.032 69.7224C188.966 69.8736 188.885 69.9533 188.788 70.0072C188.679 70.0686 188.486 70.1304 188.157 70.1304V72.1304ZM190.947 70.1274V65.1318H188.947V70.1274H190.947ZM189.947 66.1318H191.121V64.1318H189.947V66.1318ZM190.121 65.1318V72H192.121V65.1318H190.121ZM191.121 71H190.004V73H191.121V71ZM191.003 71.9626L190.978 71.2834L188.979 71.3582L189.005 72.0374L191.003 71.9626ZM195.158 70.2798L194.209 70.5957L195.191 73.5442L196.113 70.5765L195.158 70.2798ZM196.758 65.1318V64.1318H196.021L195.803 64.8351L196.758 65.1318ZM198.015 65.1318L198.959 65.4607L199.422 64.1318H198.015V65.1318ZM195.253 73.0601L196.19 73.4104L196.194 73.3997L196.198 73.389L195.253 73.0601ZM193.216 74.7739L193.13 75.7703L193.173 75.7739H193.216V74.7739ZM192.994 74.7549L192.809 75.7376L192.858 75.7469L192.908 75.7512L192.994 74.7549ZM192.556 74.6724H191.556V75.5016L192.371 75.6551L192.556 74.6724ZM192.556 73.7202L192.635 72.7234L191.556 72.637V73.7202H192.556ZM192.873 73.7456L192.793 74.7424L192.833 74.7456H192.873V73.7456ZM193.8 73.5044L193.217 72.6917L193.21 72.697L193.8 73.5044ZM194.352 72.6221L193.415 72.2728L193.409 72.2878L193.404 72.303L194.352 72.6221ZM194.612 71.9238L195.549 72.2731L195.677 71.9295L195.553 71.5845L194.612 71.9238ZM192.162 65.1318V64.1318H190.738L191.221 65.4712L192.162 65.1318ZM193.444 65.1318L194.393 64.816L194.165 64.1318H193.444V65.1318ZM196.113 70.5765L197.713 65.4286L195.803 64.8351L194.203 69.9831L196.113 70.5765ZM196.758 66.1318H198.015V64.1318H196.758V66.1318ZM197.07 64.8029L194.309 72.7312L196.198 73.389L198.959 65.4607L197.07 64.8029ZM194.317 72.7097C194.142 73.1774 193.947 73.4391 193.78 73.5802C193.63 73.7064 193.458 73.7739 193.216 73.7739V75.7739C193.904 75.7739 194.538 75.5559 195.067 75.1107C195.579 74.6805 195.938 74.0853 196.19 73.4104L194.317 72.7097ZM193.301 73.7776L193.079 73.7585L192.908 75.7512L193.13 75.7703L193.301 73.7776ZM193.179 73.7722L192.741 73.6897L192.371 75.6551L192.809 75.7376L193.179 73.7722ZM193.556 74.6724V73.7202H191.556V74.6724H193.556ZM192.476 74.717L192.793 74.7424L192.953 72.7488L192.635 72.7234L192.476 74.717ZM192.873 74.7456C193.39 74.7456 193.936 74.6434 194.39 74.3118L193.21 72.697C193.224 72.687 193.152 72.7456 192.873 72.7456V74.7456ZM194.382 74.3171C194.855 73.9785 195.128 73.4521 195.3 72.9411L193.404 72.303C193.35 72.4634 193.299 72.5683 193.258 72.6327C193.218 72.6967 193.2 72.704 193.217 72.6917L194.382 74.3171ZM195.289 72.9713L195.549 72.2731L193.675 71.5746L193.415 72.2728L195.289 72.9713ZM195.553 71.5845L193.103 64.7925L191.221 65.4712L193.672 72.2632L195.553 71.5845ZM192.162 66.1318H193.444V64.1318H192.162V66.1318ZM192.496 65.4477L194.209 70.5957L196.107 69.9639L194.393 64.816L192.496 65.4477ZM200.446 69.3975L199.446 69.3807L199.429 70.3975H200.446V69.3975ZM201.265 67.2329L200.547 66.5365L200.537 66.5467L200.527 66.5572L201.265 67.2329ZM202.096 66.376L202.814 67.0724L202.83 67.0557L202.845 67.0384L202.096 66.376ZM202.28 64.04L201.543 64.7158L201.549 64.7219L202.28 64.04ZM199.83 64.9224V65.9224H200.83V64.9224H199.83ZM198.656 64.9224L197.656 64.91L197.643 65.9224H198.656V64.9224ZM199.386 63.2656L200.045 64.0178L200.045 64.0174L199.386 63.2656ZM203.131 63.2783L202.434 63.9956L202.441 64.0023L203.131 63.2783ZM202.775 67.2329L203.479 67.9433L203.489 67.9332L203.499 67.9228L202.775 67.2329ZM202.083 67.9185L201.38 67.2081L201.36 67.228L201.341 67.249L202.083 67.9185ZM201.62 69.3975V70.3975H202.62V69.3975H201.62ZM200.566 70.9336L199.824 70.2633L199.823 70.2646L200.566 70.9336ZM201.607 70.9336L200.865 71.6039L200.871 71.6099L200.876 71.6159L201.607 70.9336ZM201.607 71.8857L202.327 72.5803L202.333 72.5742L202.338 72.5681L201.607 71.8857ZM200.566 71.8857L199.823 72.5547L199.835 72.5677L199.847 72.5803L200.566 71.8857ZM201.446 69.4143C201.453 68.9614 201.505 68.6885 201.557 68.5448L199.677 67.8635C199.518 68.3037 199.455 68.8264 199.446 69.3807L201.446 69.4143ZM201.557 68.5448C201.6 68.426 201.721 68.2149 202.002 67.9086L200.527 66.5572C200.157 66.9619 199.846 67.3982 199.677 67.8635L201.557 68.5448ZM201.982 67.9293L202.814 67.0724L201.379 65.6796L200.547 66.5365L201.982 67.9293ZM202.845 67.0384C203.334 66.4853 203.629 65.8256 203.629 65.0811H201.629C201.629 65.2591 201.569 65.4627 201.347 65.7136L202.845 67.0384ZM203.629 65.0811C203.629 64.4624 203.464 63.8435 203.012 63.3582L201.549 64.7219C201.562 64.736 201.629 64.8111 201.629 65.0811H203.629ZM203.017 63.3643C202.544 62.8478 201.903 62.6592 201.265 62.6592V64.6592C201.393 64.6592 201.466 64.6778 201.501 64.6907C201.53 64.7018 201.538 64.7106 201.543 64.7158L203.017 63.3643ZM201.265 62.6592C200.652 62.6592 200.052 62.8252 199.567 63.2479L200.88 64.756C200.92 64.7216 201.014 64.6592 201.265 64.6592V62.6592ZM199.567 63.2479C199.062 63.6879 198.83 64.2828 198.83 64.9224H200.83C200.83 64.8443 200.843 64.8081 200.848 64.7966C200.852 64.7877 200.858 64.7757 200.88 64.756L199.567 63.2479ZM199.83 63.9224H198.656V65.9224H199.83V63.9224ZM199.656 64.9347C199.661 64.508 199.798 64.2338 200.045 64.0178L198.727 62.5135C198.017 63.1353 197.667 63.9657 197.656 64.91L199.656 64.9347ZM200.045 64.0174C200.31 63.7849 200.686 63.6309 201.265 63.6309V61.6309C200.303 61.6309 199.426 61.9 198.726 62.5139L200.045 64.0174ZM201.265 63.6309C201.883 63.6309 202.226 63.7936 202.434 63.9956L203.828 62.561C203.147 61.8998 202.246 61.6309 201.265 61.6309V63.6309ZM202.441 64.0023C202.651 64.2024 202.804 64.506 202.804 65.043H204.804C204.804 64.0819 204.508 63.2091 203.821 62.5543L202.441 64.0023ZM202.804 65.043C202.804 65.449 202.622 65.9446 202.051 66.543L203.499 67.9228C204.3 67.0825 204.804 66.1181 204.804 65.043H202.804ZM202.072 66.5226L201.38 67.2081L202.787 68.6288L203.479 67.9433L202.072 66.5226ZM201.341 67.249C200.811 67.8369 200.62 68.6045 200.62 69.3975H202.62C202.62 68.904 202.738 68.6856 202.826 68.5879L201.341 67.249ZM201.62 68.3975H200.446V70.3975H201.62V68.3975ZM201.395 71.4097C201.395 71.4152 201.394 71.4442 201.379 71.4865C201.363 71.5306 201.338 71.571 201.31 71.6026L199.823 70.2646C199.524 70.5967 199.395 71.0028 199.395 71.4097H201.395ZM201.309 71.6039C201.256 71.6621 201.193 71.7008 201.139 71.7214C201.09 71.74 201.066 71.7368 201.087 71.7368V69.7368C200.663 69.7368 200.184 69.8648 199.824 70.2633L201.309 71.6039ZM201.087 71.7368C201.107 71.7368 201.084 71.74 201.035 71.7214C200.98 71.7008 200.918 71.6621 200.865 71.6039L202.35 70.2633C201.99 69.8648 201.51 69.7368 201.087 69.7368V71.7368ZM200.876 71.6159C200.848 71.5856 200.821 71.5447 200.804 71.4976C200.787 71.452 200.785 71.4191 200.785 71.4097H202.785C202.785 70.9926 202.647 70.582 202.338 70.2513L200.876 71.6159ZM200.785 71.4097C200.785 71.4002 200.787 71.3673 200.804 71.3218C200.821 71.2746 200.848 71.2337 200.876 71.2034L202.338 72.5681C202.647 72.2374 202.785 71.8268 202.785 71.4097H200.785ZM200.888 71.1911C200.945 71.1323 201.007 71.0979 201.055 71.081C201.098 71.0659 201.114 71.0698 201.087 71.0698V73.0698C201.491 73.0698 201.962 72.9577 202.327 72.5803L200.888 71.1911ZM201.087 71.0698C201.06 71.0698 201.076 71.0659 201.119 71.081C201.166 71.0979 201.229 71.1323 201.286 71.1911L199.847 72.5803C200.211 72.9577 200.683 73.0698 201.087 73.0698V71.0698ZM201.31 71.2168C201.338 71.2483 201.363 71.2887 201.379 71.3328C201.394 71.3752 201.395 71.4042 201.395 71.4097H199.395C199.395 71.8166 199.524 72.2226 199.823 72.5547L201.31 71.2168Z" fill="white"/>
</g>
<path id="&#194;&#163;" d="M26.8501 105.052L26.9009 106.448C26.9009 107.1 26.7697 107.618 26.5073 108.003H31.1602L31.1538 109H24.603V108.003H25.0918C25.2611 107.965 25.3986 107.809 25.5044 107.534C25.6102 107.254 25.6673 106.912 25.6758 106.505V106.455L25.625 105.052H24.5776V104.055H25.5933L25.5361 102.405C25.5361 101.563 25.7943 100.89 26.3105 100.386C26.8311 99.8826 27.5145 99.6309 28.3608 99.6309C29.1649 99.6309 29.8018 99.8551 30.2715 100.304C30.7412 100.752 30.9761 101.351 30.9761 102.1H29.7637C29.7637 101.647 29.6283 101.29 29.3574 101.027C29.0908 100.765 28.7227 100.634 28.2529 100.634C27.8086 100.634 27.4489 100.797 27.1738 101.123C26.8988 101.448 26.7612 101.876 26.7612 102.405L26.8184 104.055H28.8433V105.052H26.8501Z" fill="black"/>
</g>
</svg>
