<svg width="249" height="373" viewBox="0 0 249 373" fill="none" xmlns="http://www.w3.org/2000/svg">
<g id="day2Action">
<rect id="back" x="1.5" y="1.5" width="246" height="370" fill="white" stroke="#E5E5E5" stroke-width="3"/>
<rect id="day2SkipBT" x="14" y="243" width="219" height="56" rx="7" fill="#6BB8FF"/>
<path id="Your trades will take action in the next day when the market opens again." d="M26.5918 318.752L28.8184 314.469H30.0957L27.1543 319.818V323H26.0293V319.818L23.0879 314.469H24.377L26.5918 318.752ZM30.3535 319.771C30.3535 319.15 30.4746 318.592 30.7168 318.096C30.9629 317.6 31.3027 317.217 31.7363 316.947C32.1738 316.678 32.6719 316.543 33.2305 316.543C34.0938 316.543 34.791 316.842 35.3223 317.439C35.8574 318.037 36.125 318.832 36.125 319.824V319.9C36.125 320.518 36.0059 321.072 35.7676 321.564C35.5332 322.053 35.1953 322.434 34.7539 322.707C34.3164 322.98 33.8125 323.117 33.2422 323.117C32.3828 323.117 31.6855 322.818 31.1504 322.221C30.6191 321.623 30.3535 320.832 30.3535 319.848V319.771ZM31.4434 319.9C31.4434 320.604 31.6055 321.168 31.9297 321.594C32.2578 322.02 32.6953 322.232 33.2422 322.232C33.793 322.232 34.2305 322.018 34.5547 321.588C34.8789 321.154 35.041 320.549 35.041 319.771C35.041 319.076 34.875 318.514 34.543 318.084C34.2148 317.65 33.7773 317.434 33.2305 317.434C32.6953 317.434 32.2637 317.646 31.9355 318.072C31.6074 318.498 31.4434 319.107 31.4434 319.9ZM41.3984 322.373C40.9766 322.869 40.3574 323.117 39.541 323.117C38.8652 323.117 38.3496 322.922 37.9941 322.531C37.6426 322.137 37.4648 321.555 37.4609 320.785V316.66H38.5449V320.756C38.5449 321.717 38.9355 322.197 39.7168 322.197C40.5449 322.197 41.0957 321.889 41.3691 321.271V316.66H42.4531V323H41.4219L41.3984 322.373ZM47.1699 317.633C47.0059 317.605 46.8281 317.592 46.6367 317.592C45.9258 317.592 45.4434 317.895 45.1895 318.5V323H44.1055V316.66H45.1602L45.1777 317.393C45.5332 316.826 46.0371 316.543 46.6895 316.543C46.9004 316.543 47.0605 316.57 47.1699 316.625V317.633ZM52.6191 315.125V316.66H53.8027V317.498H52.6191V321.43C52.6191 321.684 52.6719 321.875 52.7773 322.004C52.8828 322.129 53.0625 322.191 53.3164 322.191C53.4414 322.191 53.6133 322.168 53.832 322.121V323C53.5469 323.078 53.2695 323.117 53 323.117C52.5156 323.117 52.1504 322.971 51.9043 322.678C51.6582 322.385 51.5352 321.969 51.5352 321.43V317.498H50.3809V316.66H51.5352V315.125H52.6191ZM58.1387 317.633C57.9746 317.605 57.7969 317.592 57.6055 317.592C56.8945 317.592 56.4121 317.895 56.1582 318.5V323H55.0742V316.66H56.1289L56.1465 317.393C56.502 316.826 57.0059 316.543 57.6582 316.543C57.8691 316.543 58.0293 316.57 58.1387 316.625V317.633ZM62.8203 323C62.7578 322.875 62.707 322.652 62.668 322.332C62.1641 322.855 61.5625 323.117 60.8633 323.117C60.2383 323.117 59.7246 322.941 59.3223 322.59C58.9238 322.234 58.7246 321.785 58.7246 321.242C58.7246 320.582 58.9746 320.07 59.4746 319.707C59.9785 319.34 60.6855 319.156 61.5957 319.156H62.6504V318.658C62.6504 318.279 62.5371 317.979 62.3105 317.756C62.084 317.529 61.75 317.416 61.3086 317.416C60.9219 317.416 60.5977 317.514 60.3359 317.709C60.0742 317.904 59.9434 318.141 59.9434 318.418H58.8535C58.8535 318.102 58.9648 317.797 59.1875 317.504C59.4141 317.207 59.7188 316.973 60.1016 316.801C60.4883 316.629 60.9121 316.543 61.373 316.543C62.1035 316.543 62.6758 316.727 63.0898 317.094C63.5039 317.457 63.7188 317.959 63.7344 318.6V321.518C63.7344 322.1 63.8086 322.562 63.957 322.906V323H62.8203ZM61.0215 322.174C61.3613 322.174 61.6836 322.086 61.9883 321.91C62.293 321.734 62.5137 321.506 62.6504 321.225V319.924H61.8008C60.4727 319.924 59.8086 320.312 59.8086 321.09C59.8086 321.43 59.9219 321.695 60.1484 321.887C60.375 322.078 60.666 322.174 61.0215 322.174ZM65.1699 319.777C65.1699 318.805 65.4004 318.023 65.8613 317.434C66.3223 316.84 66.9258 316.543 67.6719 316.543C68.4141 316.543 69.002 316.797 69.4355 317.305V314H70.5195V323H69.5234L69.4707 322.32C69.0371 322.852 68.4336 323.117 67.6602 323.117C66.9258 323.117 66.3262 322.816 65.8613 322.215C65.4004 321.613 65.1699 320.828 65.1699 319.859V319.777ZM66.2539 319.9C66.2539 320.619 66.4023 321.182 66.6992 321.588C66.9961 321.994 67.4062 322.197 67.9297 322.197C68.6172 322.197 69.1191 321.889 69.4355 321.271V318.359C69.1113 317.762 68.6133 317.463 67.9414 317.463C67.4102 317.463 66.9961 317.668 66.6992 318.078C66.4023 318.488 66.2539 319.096 66.2539 319.9ZM74.8379 323.117C73.9785 323.117 73.2793 322.836 72.7402 322.273C72.2012 321.707 71.9316 320.951 71.9316 320.006V319.807C71.9316 319.178 72.0508 318.617 72.2891 318.125C72.5312 317.629 72.8672 317.242 73.2969 316.965C73.7305 316.684 74.1992 316.543 74.7031 316.543C75.5273 316.543 76.168 316.814 76.625 317.357C77.082 317.9 77.3105 318.678 77.3105 319.689V320.141H73.0156C73.0312 320.766 73.2129 321.271 73.5605 321.658C73.9121 322.041 74.3574 322.232 74.8965 322.232C75.2793 322.232 75.6035 322.154 75.8691 321.998C76.1348 321.842 76.3672 321.635 76.5664 321.377L77.2285 321.893C76.6973 322.709 75.9004 323.117 74.8379 323.117ZM74.7031 317.434C74.2656 317.434 73.8984 317.594 73.6016 317.914C73.3047 318.23 73.1211 318.676 73.0508 319.25H76.2266V319.168C76.1953 318.617 76.0469 318.191 75.7812 317.891C75.5156 317.586 75.1562 317.434 74.7031 317.434ZM82.2617 321.318C82.2617 321.025 82.1504 320.799 81.9277 320.639C81.709 320.475 81.3242 320.334 80.7734 320.217C80.2266 320.1 79.791 319.959 79.4668 319.795C79.1465 319.631 78.9082 319.436 78.752 319.209C78.5996 318.982 78.5234 318.713 78.5234 318.4C78.5234 317.881 78.7422 317.441 79.1797 317.082C79.6211 316.723 80.1836 316.543 80.8672 316.543C81.5859 316.543 82.168 316.729 82.6133 317.1C83.0625 317.471 83.2871 317.945 83.2871 318.523H82.1973C82.1973 318.227 82.0703 317.971 81.8164 317.756C81.5664 317.541 81.25 317.434 80.8672 317.434C80.4727 317.434 80.1641 317.52 79.9414 317.691C79.7188 317.863 79.6074 318.088 79.6074 318.365C79.6074 318.627 79.7109 318.824 79.918 318.957C80.125 319.09 80.498 319.217 81.0371 319.338C81.5801 319.459 82.0195 319.604 82.3555 319.771C82.6914 319.939 82.9395 320.143 83.0996 320.381C83.2637 320.615 83.3457 320.902 83.3457 321.242C83.3457 321.809 83.1191 322.264 82.666 322.607C82.2129 322.947 81.625 323.117 80.9023 323.117C80.3945 323.117 79.9453 323.027 79.5547 322.848C79.1641 322.668 78.8574 322.418 78.6348 322.098C78.416 321.773 78.3066 321.424 78.3066 321.049H79.3906C79.4102 321.412 79.5547 321.701 79.8242 321.916C80.0977 322.127 80.457 322.232 80.9023 322.232C81.3125 322.232 81.6406 322.15 81.8867 321.986C82.1367 321.818 82.2617 321.596 82.2617 321.318ZM93.3477 321.506L94.5664 316.66H95.6504L93.8047 323H92.9258L91.3848 318.195L89.8848 323H89.0059L87.166 316.66H88.2441L89.4922 321.406L90.9688 316.66H91.8418L93.3477 321.506ZM97.9355 323H96.8516V316.66H97.9355V323ZM96.7637 314.979C96.7637 314.803 96.8164 314.654 96.9219 314.533C97.0312 314.412 97.1914 314.352 97.4023 314.352C97.6133 314.352 97.7734 314.412 97.8828 314.533C97.9922 314.654 98.0469 314.803 98.0469 314.979C98.0469 315.154 97.9922 315.301 97.8828 315.418C97.7734 315.535 97.6133 315.594 97.4023 315.594C97.1914 315.594 97.0312 315.535 96.9219 315.418C96.8164 315.301 96.7637 315.154 96.7637 314.979ZM100.854 323H99.7695V314H100.854V323ZM103.771 323H102.688V314H103.771V323ZM109.959 315.125V316.66H111.143V317.498H109.959V321.43C109.959 321.684 110.012 321.875 110.117 322.004C110.223 322.129 110.402 322.191 110.656 322.191C110.781 322.191 110.953 322.168 111.172 322.121V323C110.887 323.078 110.609 323.117 110.34 323.117C109.855 323.117 109.49 322.971 109.244 322.678C108.998 322.385 108.875 321.969 108.875 321.43V317.498H107.721V316.66H108.875V315.125H109.959ZM116.328 323C116.266 322.875 116.215 322.652 116.176 322.332C115.672 322.855 115.07 323.117 114.371 323.117C113.746 323.117 113.232 322.941 112.83 322.59C112.432 322.234 112.232 321.785 112.232 321.242C112.232 320.582 112.482 320.07 112.982 319.707C113.486 319.34 114.193 319.156 115.104 319.156H116.158V318.658C116.158 318.279 116.045 317.979 115.818 317.756C115.592 317.529 115.258 317.416 114.816 317.416C114.43 317.416 114.105 317.514 113.844 317.709C113.582 317.904 113.451 318.141 113.451 318.418H112.361C112.361 318.102 112.473 317.797 112.695 317.504C112.922 317.207 113.227 316.973 113.609 316.801C113.996 316.629 114.42 316.543 114.881 316.543C115.611 316.543 116.184 316.727 116.598 317.094C117.012 317.457 117.227 317.959 117.242 318.6V321.518C117.242 322.1 117.316 322.562 117.465 322.906V323H116.328ZM114.529 322.174C114.869 322.174 115.191 322.086 115.496 321.91C115.801 321.734 116.021 321.506 116.158 321.225V319.924H115.309C113.98 319.924 113.316 320.312 113.316 321.09C113.316 321.43 113.43 321.695 113.656 321.887C113.883 322.078 114.174 322.174 114.529 322.174ZM120.711 320.064L120.031 320.773V323H118.947V314H120.031V319.443L120.611 318.746L122.586 316.66H123.904L121.438 319.309L124.191 323H122.92L120.711 320.064ZM127.537 323.117C126.678 323.117 125.979 322.836 125.439 322.273C124.9 321.707 124.631 320.951 124.631 320.006V319.807C124.631 319.178 124.75 318.617 124.988 318.125C125.23 317.629 125.566 317.242 125.996 316.965C126.43 316.684 126.898 316.543 127.402 316.543C128.227 316.543 128.867 316.814 129.324 317.357C129.781 317.9 130.01 318.678 130.01 319.689V320.141H125.715C125.73 320.766 125.912 321.271 126.26 321.658C126.611 322.041 127.057 322.232 127.596 322.232C127.979 322.232 128.303 322.154 128.568 321.998C128.834 321.842 129.066 321.635 129.266 321.377L129.928 321.893C129.396 322.709 128.6 323.117 127.537 323.117ZM127.402 317.434C126.965 317.434 126.598 317.594 126.301 317.914C126.004 318.23 125.82 318.676 125.75 319.25H128.926V319.168C128.895 318.617 128.746 318.191 128.48 317.891C128.215 317.586 127.855 317.434 127.402 317.434ZM138.16 323C138.098 322.875 138.047 322.652 138.008 322.332C137.504 322.855 136.902 323.117 136.203 323.117C135.578 323.117 135.064 322.941 134.662 322.59C134.264 322.234 134.064 321.785 134.064 321.242C134.064 320.582 134.314 320.07 134.814 319.707C135.318 319.34 136.025 319.156 136.936 319.156H137.99V318.658C137.99 318.279 137.877 317.979 137.65 317.756C137.424 317.529 137.09 317.416 136.648 317.416C136.262 317.416 135.938 317.514 135.676 317.709C135.414 317.904 135.283 318.141 135.283 318.418H134.193C134.193 318.102 134.305 317.797 134.527 317.504C134.754 317.207 135.059 316.973 135.441 316.801C135.828 316.629 136.252 316.543 136.713 316.543C137.443 316.543 138.016 316.727 138.43 317.094C138.844 317.457 139.059 317.959 139.074 318.6V321.518C139.074 322.1 139.148 322.562 139.297 322.906V323H138.16ZM136.361 322.174C136.701 322.174 137.023 322.086 137.328 321.91C137.633 321.734 137.854 321.506 137.99 321.225V319.924H137.141C135.812 319.924 135.148 320.312 135.148 321.09C135.148 321.43 135.262 321.695 135.488 321.887C135.715 322.078 136.006 322.174 136.361 322.174ZM143.316 322.232C143.703 322.232 144.041 322.115 144.33 321.881C144.619 321.646 144.779 321.354 144.811 321.002H145.836C145.816 321.365 145.691 321.711 145.461 322.039C145.23 322.367 144.922 322.629 144.535 322.824C144.152 323.02 143.746 323.117 143.316 323.117C142.453 323.117 141.766 322.83 141.254 322.256C140.746 321.678 140.492 320.889 140.492 319.889V319.707C140.492 319.09 140.605 318.541 140.832 318.061C141.059 317.58 141.383 317.207 141.805 316.941C142.23 316.676 142.732 316.543 143.311 316.543C144.021 316.543 144.611 316.756 145.08 317.182C145.553 317.607 145.805 318.16 145.836 318.84H144.811C144.779 318.43 144.623 318.094 144.342 317.832C144.064 317.566 143.721 317.434 143.311 317.434C142.76 317.434 142.332 317.633 142.027 318.031C141.727 318.426 141.576 318.998 141.576 319.748V319.953C141.576 320.684 141.727 321.246 142.027 321.641C142.328 322.035 142.758 322.232 143.316 322.232ZM148.525 315.125V316.66H149.709V317.498H148.525V321.43C148.525 321.684 148.578 321.875 148.684 322.004C148.789 322.129 148.969 322.191 149.223 322.191C149.348 322.191 149.52 322.168 149.738 322.121V323C149.453 323.078 149.176 323.117 148.906 323.117C148.422 323.117 148.057 322.971 147.811 322.678C147.564 322.385 147.441 321.969 147.441 321.43V317.498H146.287V316.66H147.441V315.125H148.525ZM152.158 323H151.074V316.66H152.158V323ZM150.986 314.979C150.986 314.803 151.039 314.654 151.145 314.533C151.254 314.412 151.414 314.352 151.625 314.352C151.836 314.352 151.996 314.412 152.105 314.533C152.215 314.654 152.27 314.803 152.27 314.979C152.27 315.154 152.215 315.301 152.105 315.418C151.996 315.535 151.836 315.594 151.625 315.594C151.414 315.594 151.254 315.535 151.145 315.418C151.039 315.301 150.986 315.154 150.986 314.979ZM153.611 319.771C153.611 319.15 153.732 318.592 153.975 318.096C154.221 317.6 154.561 317.217 154.994 316.947C155.432 316.678 155.93 316.543 156.488 316.543C157.352 316.543 158.049 316.842 158.58 317.439C159.115 318.037 159.383 318.832 159.383 319.824V319.9C159.383 320.518 159.264 321.072 159.025 321.564C158.791 322.053 158.453 322.434 158.012 322.707C157.574 322.98 157.07 323.117 156.5 323.117C155.641 323.117 154.943 322.818 154.408 322.221C153.877 321.623 153.611 320.832 153.611 319.848V319.771ZM154.701 319.9C154.701 320.604 154.863 321.168 155.188 321.594C155.516 322.02 155.953 322.232 156.5 322.232C157.051 322.232 157.488 322.018 157.812 321.588C158.137 321.154 158.299 320.549 158.299 319.771C158.299 319.076 158.133 318.514 157.801 318.084C157.473 317.65 157.035 317.434 156.488 317.434C155.953 317.434 155.521 317.646 155.193 318.072C154.865 318.498 154.701 319.107 154.701 319.9ZM161.768 316.66L161.803 317.457C162.287 316.848 162.92 316.543 163.701 316.543C165.041 316.543 165.717 317.299 165.729 318.811V323H164.645V318.805C164.641 318.348 164.535 318.01 164.328 317.791C164.125 317.572 163.807 317.463 163.373 317.463C163.021 317.463 162.713 317.557 162.447 317.744C162.182 317.932 161.975 318.178 161.826 318.482V323H160.742V316.66H161.768ZM171.518 323H170.434V316.66H171.518V323ZM170.346 314.979C170.346 314.803 170.398 314.654 170.504 314.533C170.613 314.412 170.773 314.352 170.984 314.352C171.195 314.352 171.355 314.412 171.465 314.533C171.574 314.654 171.629 314.803 171.629 314.979C171.629 315.154 171.574 315.301 171.465 315.418C171.355 315.535 171.195 315.594 170.984 315.594C170.773 315.594 170.613 315.535 170.504 315.418C170.398 315.301 170.346 315.154 170.346 314.979ZM174.283 316.66L174.318 317.457C174.803 316.848 175.436 316.543 176.217 316.543C177.557 316.543 178.232 317.299 178.244 318.811V323H177.16V318.805C177.156 318.348 177.051 318.01 176.844 317.791C176.641 317.572 176.322 317.463 175.889 317.463C175.537 317.463 175.229 317.557 174.963 317.744C174.697 317.932 174.49 318.178 174.342 318.482V323H173.258V316.66H174.283ZM184.326 315.125V316.66H185.51V317.498H184.326V321.43C184.326 321.684 184.379 321.875 184.484 322.004C184.59 322.129 184.77 322.191 185.023 322.191C185.148 322.191 185.32 322.168 185.539 322.121V323C185.254 323.078 184.977 323.117 184.707 323.117C184.223 323.117 183.857 322.971 183.611 322.678C183.365 322.385 183.242 321.969 183.242 321.43V317.498H182.088V316.66H183.242V315.125H184.326ZM187.865 317.428C188.346 316.838 188.971 316.543 189.74 316.543C191.08 316.543 191.756 317.299 191.768 318.811V323H190.684V318.805C190.68 318.348 190.574 318.01 190.367 317.791C190.164 317.572 189.846 317.463 189.412 317.463C189.061 317.463 188.752 317.557 188.486 317.744C188.221 317.932 188.014 318.178 187.865 318.482V323H186.781V314H187.865V317.428ZM196.021 323.117C195.162 323.117 194.463 322.836 193.924 322.273C193.385 321.707 193.115 320.951 193.115 320.006V319.807C193.115 319.178 193.234 318.617 193.473 318.125C193.715 317.629 194.051 317.242 194.48 316.965C194.914 316.684 195.383 316.543 195.887 316.543C196.711 316.543 197.352 316.814 197.809 317.357C198.266 317.9 198.494 318.678 198.494 319.689V320.141H194.199C194.215 320.766 194.396 321.271 194.744 321.658C195.096 322.041 195.541 322.232 196.08 322.232C196.463 322.232 196.787 322.154 197.053 321.998C197.318 321.842 197.551 321.635 197.75 321.377L198.412 321.893C197.881 322.709 197.084 323.117 196.021 323.117ZM195.887 317.434C195.449 317.434 195.082 317.594 194.785 317.914C194.488 318.23 194.305 318.676 194.234 319.25H197.41V319.168C197.379 318.617 197.23 318.191 196.965 317.891C196.699 317.586 196.34 317.434 195.887 317.434ZM203.756 316.66L203.791 317.457C204.275 316.848 204.908 316.543 205.689 316.543C207.029 316.543 207.705 317.299 207.717 318.811V323H206.633V318.805C206.629 318.348 206.523 318.01 206.316 317.791C206.113 317.572 205.795 317.463 205.361 317.463C205.01 317.463 204.701 317.557 204.436 317.744C204.17 317.932 203.963 318.178 203.814 318.482V323H202.73V316.66H203.756ZM211.982 323.117C211.123 323.117 210.424 322.836 209.885 322.273C209.346 321.707 209.076 320.951 209.076 320.006V319.807C209.076 319.178 209.195 318.617 209.434 318.125C209.676 317.629 210.012 317.242 210.441 316.965C210.875 316.684 211.344 316.543 211.848 316.543C212.672 316.543 213.312 316.814 213.77 317.357C214.227 317.9 214.455 318.678 214.455 319.689V320.141H210.16C210.176 320.766 210.357 321.271 210.705 321.658C211.057 322.041 211.502 322.232 212.041 322.232C212.424 322.232 212.748 322.154 213.014 321.998C213.279 321.842 213.512 321.635 213.711 321.377L214.373 321.893C213.842 322.709 213.045 323.117 211.982 323.117ZM211.848 317.434C211.41 317.434 211.043 317.594 210.746 317.914C210.449 318.23 210.266 318.676 210.195 319.25H213.371V319.168C213.34 318.617 213.191 318.191 212.926 317.891C212.66 317.586 212.301 317.434 211.848 317.434ZM217.842 318.975L219.248 316.66H220.514L218.439 319.795L220.578 323H219.324L217.859 320.627L216.395 323H215.135L217.273 319.795L215.199 316.66H216.453L217.842 318.975ZM223.139 315.125V316.66H224.322V317.498H223.139V321.43C223.139 321.684 223.191 321.875 223.297 322.004C223.402 322.129 223.582 322.191 223.836 322.191C223.961 322.191 224.133 322.168 224.352 322.121V323C224.066 323.078 223.789 323.117 223.52 323.117C223.035 323.117 222.67 322.971 222.424 322.678C222.178 322.385 222.055 321.969 222.055 321.43V317.498H220.9V316.66H222.055V315.125H223.139ZM23.5566 333.777C23.5566 332.805 23.7871 332.023 24.248 331.434C24.709 330.84 25.3125 330.543 26.0586 330.543C26.8008 330.543 27.3887 330.797 27.8223 331.305V328H28.9062V337H27.9102L27.8574 336.32C27.4238 336.852 26.8203 337.117 26.0469 337.117C25.3125 337.117 24.7129 336.816 24.248 336.215C23.7871 335.613 23.5566 334.828 23.5566 333.859V333.777ZM24.6406 333.9C24.6406 334.619 24.7891 335.182 25.0859 335.588C25.3828 335.994 25.793 336.197 26.3164 336.197C27.0039 336.197 27.5059 335.889 27.8223 335.271V332.359C27.498 331.762 27 331.463 26.3281 331.463C25.7969 331.463 25.3828 331.668 25.0859 332.078C24.7891 332.488 24.6406 333.096 24.6406 333.9ZM34.5078 337C34.4453 336.875 34.3945 336.652 34.3555 336.332C33.8516 336.855 33.25 337.117 32.5508 337.117C31.9258 337.117 31.4121 336.941 31.0098 336.59C30.6113 336.234 30.4121 335.785 30.4121 335.242C30.4121 334.582 30.6621 334.07 31.1621 333.707C31.666 333.34 32.373 333.156 33.2832 333.156H34.3379V332.658C34.3379 332.279 34.2246 331.979 33.998 331.756C33.7715 331.529 33.4375 331.416 32.9961 331.416C32.6094 331.416 32.2852 331.514 32.0234 331.709C31.7617 331.904 31.6309 332.141 31.6309 332.418H30.541C30.541 332.102 30.6523 331.797 30.875 331.504C31.1016 331.207 31.4062 330.973 31.7891 330.801C32.1758 330.629 32.5996 330.543 33.0605 330.543C33.791 330.543 34.3633 330.727 34.7773 331.094C35.1914 331.457 35.4062 331.959 35.4219 332.6V335.518C35.4219 336.1 35.4961 336.562 35.6445 336.906V337H34.5078ZM32.709 336.174C33.0488 336.174 33.3711 336.086 33.6758 335.91C33.9805 335.734 34.2012 335.506 34.3379 335.225V333.924H33.4883C32.1602 333.924 31.4961 334.312 31.4961 335.09C31.4961 335.43 31.6094 335.695 31.8359 335.887C32.0625 336.078 32.3535 336.174 32.709 336.174ZM39.1016 335.412L40.5781 330.66H41.7383L39.1895 337.979C38.7949 339.033 38.168 339.561 37.3086 339.561L37.1035 339.543L36.6992 339.467V338.588L36.9922 338.611C37.3594 338.611 37.6445 338.537 37.8477 338.389C38.0547 338.24 38.2246 337.969 38.3574 337.574L38.5977 336.93L36.3359 330.66H37.5195L39.1016 335.412ZM51.3008 335.506L52.5195 330.66H53.6035L51.7578 337H50.8789L49.3379 332.195L47.8379 337H46.959L45.1191 330.66H46.1973L47.4453 335.406L48.9219 330.66H49.7949L51.3008 335.506ZM55.7949 331.428C56.2754 330.838 56.9004 330.543 57.6699 330.543C59.0098 330.543 59.6855 331.299 59.6973 332.811V337H58.6133V332.805C58.6094 332.348 58.5039 332.01 58.2969 331.791C58.0938 331.572 57.7754 331.463 57.3418 331.463C56.9902 331.463 56.6816 331.557 56.416 331.744C56.1504 331.932 55.9434 332.178 55.7949 332.482V337H54.7109V328H55.7949V331.428ZM63.9512 337.117C63.0918 337.117 62.3926 336.836 61.8535 336.273C61.3145 335.707 61.0449 334.951 61.0449 334.006V333.807C61.0449 333.178 61.1641 332.617 61.4023 332.125C61.6445 331.629 61.9805 331.242 62.4102 330.965C62.8438 330.684 63.3125 330.543 63.8164 330.543C64.6406 330.543 65.2812 330.814 65.7383 331.357C66.1953 331.9 66.4238 332.678 66.4238 333.689V334.141H62.1289C62.1445 334.766 62.3262 335.271 62.6738 335.658C63.0254 336.041 63.4707 336.232 64.0098 336.232C64.3926 336.232 64.7168 336.154 64.9824 335.998C65.248 335.842 65.4805 335.635 65.6797 335.377L66.3418 335.893C65.8105 336.709 65.0137 337.117 63.9512 337.117ZM63.8164 331.434C63.3789 331.434 63.0117 331.594 62.7148 331.914C62.418 332.23 62.2344 332.676 62.1641 333.25H65.3398V333.168C65.3086 332.617 65.1602 332.191 64.8945 331.891C64.6289 331.586 64.2695 331.434 63.8164 331.434ZM68.709 330.66L68.7441 331.457C69.2285 330.848 69.8613 330.543 70.6426 330.543C71.9824 330.543 72.6582 331.299 72.6699 332.811V337H71.5859V332.805C71.582 332.348 71.4766 332.01 71.2695 331.791C71.0664 331.572 70.748 331.463 70.3145 331.463C69.9629 331.463 69.6543 331.557 69.3887 331.744C69.123 331.932 68.916 332.178 68.7676 332.482V337H67.6836V330.66H68.709ZM78.752 329.125V330.66H79.9355V331.498H78.752V335.43C78.752 335.684 78.8047 335.875 78.9102 336.004C79.0156 336.129 79.1953 336.191 79.4492 336.191C79.5742 336.191 79.7461 336.168 79.9648 336.121V337C79.6797 337.078 79.4023 337.117 79.1328 337.117C78.6484 337.117 78.2832 336.971 78.0371 336.678C77.791 336.385 77.668 335.969 77.668 335.43V331.498H76.5137V330.66H77.668V329.125H78.752ZM82.291 331.428C82.7715 330.838 83.3965 330.543 84.166 330.543C85.5059 330.543 86.1816 331.299 86.1934 332.811V337H85.1094V332.805C85.1055 332.348 85 332.01 84.793 331.791C84.5898 331.572 84.2715 331.463 83.8379 331.463C83.4863 331.463 83.1777 331.557 82.9121 331.744C82.6465 331.932 82.4395 332.178 82.291 332.482V337H81.207V328H82.291V331.428ZM90.4473 337.117C89.5879 337.117 88.8887 336.836 88.3496 336.273C87.8105 335.707 87.541 334.951 87.541 334.006V333.807C87.541 333.178 87.6602 332.617 87.8984 332.125C88.1406 331.629 88.4766 331.242 88.9062 330.965C89.3398 330.684 89.8086 330.543 90.3125 330.543C91.1367 330.543 91.7773 330.814 92.2344 331.357C92.6914 331.9 92.9199 332.678 92.9199 333.689V334.141H88.625C88.6406 334.766 88.8223 335.271 89.1699 335.658C89.5215 336.041 89.9668 336.232 90.5059 336.232C90.8887 336.232 91.2129 336.154 91.4785 335.998C91.7441 335.842 91.9766 335.635 92.1758 335.377L92.8379 335.893C92.3066 336.709 91.5098 337.117 90.4473 337.117ZM90.3125 331.434C89.875 331.434 89.5078 331.594 89.2109 331.914C88.9141 332.23 88.7305 332.676 88.6602 333.25H91.8359V333.168C91.8047 332.617 91.6562 332.191 91.3906 331.891C91.125 331.586 90.7656 331.434 90.3125 331.434ZM98.1758 330.66L98.2051 331.363C98.6699 330.816 99.2969 330.543 100.086 330.543C100.973 330.543 101.576 330.883 101.896 331.562C102.107 331.258 102.381 331.012 102.717 330.824C103.057 330.637 103.457 330.543 103.918 330.543C105.309 330.543 106.016 331.279 106.039 332.752V337H104.955V332.816C104.955 332.363 104.852 332.025 104.645 331.803C104.438 331.576 104.09 331.463 103.602 331.463C103.199 331.463 102.865 331.584 102.6 331.826C102.334 332.064 102.18 332.387 102.137 332.793V337H101.047V332.846C101.047 331.924 100.596 331.463 99.6934 331.463C98.9824 331.463 98.4961 331.766 98.2344 332.371V337H97.1504V330.66H98.1758ZM111.594 337C111.531 336.875 111.48 336.652 111.441 336.332C110.938 336.855 110.336 337.117 109.637 337.117C109.012 337.117 108.498 336.941 108.096 336.59C107.697 336.234 107.498 335.785 107.498 335.242C107.498 334.582 107.748 334.07 108.248 333.707C108.752 333.34 109.459 333.156 110.369 333.156H111.424V332.658C111.424 332.279 111.311 331.979 111.084 331.756C110.857 331.529 110.523 331.416 110.082 331.416C109.695 331.416 109.371 331.514 109.109 331.709C108.848 331.904 108.717 332.141 108.717 332.418H107.627C107.627 332.102 107.738 331.797 107.961 331.504C108.188 331.207 108.492 330.973 108.875 330.801C109.262 330.629 109.686 330.543 110.146 330.543C110.877 330.543 111.449 330.727 111.863 331.094C112.277 331.457 112.492 331.959 112.508 332.6V335.518C112.508 336.1 112.582 336.562 112.73 336.906V337H111.594ZM109.795 336.174C110.135 336.174 110.457 336.086 110.762 335.91C111.066 335.734 111.287 335.506 111.424 335.225V333.924H110.574C109.246 333.924 108.582 334.312 108.582 335.09C108.582 335.43 108.695 335.695 108.922 335.887C109.148 336.078 109.439 336.174 109.795 336.174ZM117.271 331.633C117.107 331.605 116.93 331.592 116.738 331.592C116.027 331.592 115.545 331.895 115.291 332.5V337H114.207V330.66H115.262L115.279 331.393C115.635 330.826 116.139 330.543 116.791 330.543C117.002 330.543 117.162 330.57 117.271 330.625V331.633ZM120.043 334.064L119.363 334.773V337H118.279V328H119.363V333.443L119.943 332.746L121.918 330.66H123.236L120.77 333.309L123.523 337H122.252L120.043 334.064ZM126.869 337.117C126.01 337.117 125.311 336.836 124.771 336.273C124.232 335.707 123.963 334.951 123.963 334.006V333.807C123.963 333.178 124.082 332.617 124.32 332.125C124.562 331.629 124.898 331.242 125.328 330.965C125.762 330.684 126.23 330.543 126.734 330.543C127.559 330.543 128.199 330.814 128.656 331.357C129.113 331.9 129.342 332.678 129.342 333.689V334.141H125.047C125.062 334.766 125.244 335.271 125.592 335.658C125.943 336.041 126.389 336.232 126.928 336.232C127.311 336.232 127.635 336.154 127.9 335.998C128.166 335.842 128.398 335.635 128.598 335.377L129.26 335.893C128.729 336.709 127.932 337.117 126.869 337.117ZM126.734 331.434C126.297 331.434 125.93 331.594 125.633 331.914C125.336 332.23 125.152 332.676 125.082 333.25H128.258V333.168C128.227 332.617 128.078 332.191 127.812 331.891C127.547 331.586 127.188 331.434 126.734 331.434ZM132.072 329.125V330.66H133.256V331.498H132.072V335.43C132.072 335.684 132.125 335.875 132.23 336.004C132.336 336.129 132.516 336.191 132.77 336.191C132.895 336.191 133.066 336.168 133.285 336.121V337C133 337.078 132.723 337.117 132.453 337.117C131.969 337.117 131.604 336.971 131.357 336.678C131.111 336.385 130.988 335.969 130.988 335.43V331.498H129.834V330.66H130.988V329.125H132.072ZM137.217 333.771C137.217 333.15 137.338 332.592 137.58 332.096C137.826 331.6 138.166 331.217 138.6 330.947C139.037 330.678 139.535 330.543 140.094 330.543C140.957 330.543 141.654 330.842 142.186 331.439C142.721 332.037 142.988 332.832 142.988 333.824V333.9C142.988 334.518 142.869 335.072 142.631 335.564C142.396 336.053 142.059 336.434 141.617 336.707C141.18 336.98 140.676 337.117 140.105 337.117C139.246 337.117 138.549 336.818 138.014 336.221C137.482 335.623 137.217 334.832 137.217 333.848V333.771ZM138.307 333.9C138.307 334.604 138.469 335.168 138.793 335.594C139.121 336.02 139.559 336.232 140.105 336.232C140.656 336.232 141.094 336.018 141.418 335.588C141.742 335.154 141.904 334.549 141.904 333.771C141.904 333.076 141.738 332.514 141.406 332.084C141.078 331.65 140.641 331.434 140.094 331.434C139.559 331.434 139.127 331.646 138.799 332.072C138.471 332.498 138.307 333.107 138.307 333.9ZM149.703 333.9C149.703 334.865 149.482 335.643 149.041 336.232C148.6 336.822 148.002 337.117 147.248 337.117C146.479 337.117 145.873 336.873 145.432 336.385V339.438H144.348V330.66H145.338L145.391 331.363C145.832 330.816 146.445 330.543 147.23 330.543C147.992 330.543 148.594 330.83 149.035 331.404C149.48 331.979 149.703 332.777 149.703 333.801V333.9ZM148.619 333.777C148.619 333.062 148.467 332.498 148.162 332.084C147.857 331.67 147.439 331.463 146.908 331.463C146.252 331.463 145.76 331.754 145.432 332.336V335.365C145.756 335.943 146.252 336.232 146.92 336.232C147.439 336.232 147.852 336.027 148.156 335.617C148.465 335.203 148.619 334.59 148.619 333.777ZM153.717 337.117C152.857 337.117 152.158 336.836 151.619 336.273C151.08 335.707 150.811 334.951 150.811 334.006V333.807C150.811 333.178 150.93 332.617 151.168 332.125C151.41 331.629 151.746 331.242 152.176 330.965C152.609 330.684 153.078 330.543 153.582 330.543C154.406 330.543 155.047 330.814 155.504 331.357C155.961 331.9 156.189 332.678 156.189 333.689V334.141H151.895C151.91 334.766 152.092 335.271 152.439 335.658C152.791 336.041 153.236 336.232 153.775 336.232C154.158 336.232 154.482 336.154 154.748 335.998C155.014 335.842 155.246 335.635 155.445 335.377L156.107 335.893C155.576 336.709 154.779 337.117 153.717 337.117ZM153.582 331.434C153.145 331.434 152.777 331.594 152.48 331.914C152.184 332.23 152 332.676 151.93 333.25H155.105V333.168C155.074 332.617 154.926 332.191 154.66 331.891C154.395 331.586 154.035 331.434 153.582 331.434ZM158.475 330.66L158.51 331.457C158.994 330.848 159.627 330.543 160.408 330.543C161.748 330.543 162.424 331.299 162.436 332.811V337H161.352V332.805C161.348 332.348 161.242 332.01 161.035 331.791C160.832 331.572 160.514 331.463 160.08 331.463C159.729 331.463 159.42 331.557 159.154 331.744C158.889 331.932 158.682 332.178 158.533 332.482V337H157.449V330.66H158.475ZM167.762 335.318C167.762 335.025 167.65 334.799 167.428 334.639C167.209 334.475 166.824 334.334 166.273 334.217C165.727 334.1 165.291 333.959 164.967 333.795C164.646 333.631 164.408 333.436 164.252 333.209C164.1 332.982 164.023 332.713 164.023 332.4C164.023 331.881 164.242 331.441 164.68 331.082C165.121 330.723 165.684 330.543 166.367 330.543C167.086 330.543 167.668 330.729 168.113 331.1C168.562 331.471 168.787 331.945 168.787 332.523H167.697C167.697 332.227 167.57 331.971 167.316 331.756C167.066 331.541 166.75 331.434 166.367 331.434C165.973 331.434 165.664 331.52 165.441 331.691C165.219 331.863 165.107 332.088 165.107 332.365C165.107 332.627 165.211 332.824 165.418 332.957C165.625 333.09 165.998 333.217 166.537 333.338C167.08 333.459 167.52 333.604 167.855 333.771C168.191 333.939 168.439 334.143 168.6 334.381C168.764 334.615 168.846 334.902 168.846 335.242C168.846 335.809 168.619 336.264 168.166 336.607C167.713 336.947 167.125 337.117 166.402 337.117C165.895 337.117 165.445 337.027 165.055 336.848C164.664 336.668 164.357 336.418 164.135 336.098C163.916 335.773 163.807 335.424 163.807 335.049H164.891C164.91 335.412 165.055 335.701 165.324 335.916C165.598 336.127 165.957 336.232 166.402 336.232C166.812 336.232 167.141 336.15 167.387 335.986C167.637 335.818 167.762 335.596 167.762 335.318ZM177.148 337C177.086 336.875 177.035 336.652 176.996 336.332C176.492 336.855 175.891 337.117 175.191 337.117C174.566 337.117 174.053 336.941 173.65 336.59C173.252 336.234 173.053 335.785 173.053 335.242C173.053 334.582 173.303 334.07 173.803 333.707C174.307 333.34 175.014 333.156 175.924 333.156H176.979V332.658C176.979 332.279 176.865 331.979 176.639 331.756C176.412 331.529 176.078 331.416 175.637 331.416C175.25 331.416 174.926 331.514 174.664 331.709C174.402 331.904 174.271 332.141 174.271 332.418H173.182C173.182 332.102 173.293 331.797 173.516 331.504C173.742 331.207 174.047 330.973 174.43 330.801C174.816 330.629 175.24 330.543 175.701 330.543C176.432 330.543 177.004 330.727 177.418 331.094C177.832 331.457 178.047 331.959 178.062 332.6V335.518C178.062 336.1 178.137 336.562 178.285 336.906V337H177.148ZM175.35 336.174C175.689 336.174 176.012 336.086 176.316 335.91C176.621 335.734 176.842 335.506 176.979 335.225V333.924H176.129C174.801 333.924 174.137 334.312 174.137 335.09C174.137 335.43 174.25 335.695 174.477 335.887C174.703 336.078 174.994 336.174 175.35 336.174ZM179.504 333.777C179.504 332.789 179.732 332.004 180.189 331.422C180.646 330.836 181.252 330.543 182.006 330.543C182.779 330.543 183.383 330.816 183.816 331.363L183.869 330.66H184.859V336.848C184.859 337.668 184.615 338.314 184.127 338.787C183.643 339.26 182.99 339.496 182.17 339.496C181.713 339.496 181.266 339.398 180.828 339.203C180.391 339.008 180.057 338.74 179.826 338.4L180.389 337.75C180.854 338.324 181.422 338.611 182.094 338.611C182.621 338.611 183.031 338.463 183.324 338.166C183.621 337.869 183.77 337.451 183.77 336.912V336.367C183.336 336.867 182.744 337.117 181.994 337.117C181.252 337.117 180.65 336.818 180.189 336.221C179.732 335.623 179.504 334.809 179.504 333.777ZM180.594 333.9C180.594 334.615 180.74 335.178 181.033 335.588C181.326 335.994 181.736 336.197 182.264 336.197C182.947 336.197 183.449 335.887 183.77 335.266V332.371C183.438 331.766 182.939 331.463 182.275 331.463C181.748 331.463 181.336 331.668 181.039 332.078C180.742 332.488 180.594 333.096 180.594 333.9ZM190.414 337C190.352 336.875 190.301 336.652 190.262 336.332C189.758 336.855 189.156 337.117 188.457 337.117C187.832 337.117 187.318 336.941 186.916 336.59C186.518 336.234 186.318 335.785 186.318 335.242C186.318 334.582 186.568 334.07 187.068 333.707C187.572 333.34 188.279 333.156 189.189 333.156H190.244V332.658C190.244 332.279 190.131 331.979 189.904 331.756C189.678 331.529 189.344 331.416 188.902 331.416C188.516 331.416 188.191 331.514 187.93 331.709C187.668 331.904 187.537 332.141 187.537 332.418H186.447C186.447 332.102 186.559 331.797 186.781 331.504C187.008 331.207 187.312 330.973 187.695 330.801C188.082 330.629 188.506 330.543 188.967 330.543C189.697 330.543 190.27 330.727 190.684 331.094C191.098 331.457 191.312 331.959 191.328 332.6V335.518C191.328 336.1 191.402 336.562 191.551 336.906V337H190.414ZM188.615 336.174C188.955 336.174 189.277 336.086 189.582 335.91C189.887 335.734 190.107 335.506 190.244 335.225V333.924H189.395C188.066 333.924 187.402 334.312 187.402 335.09C187.402 335.43 187.516 335.695 187.742 335.887C187.969 336.078 188.26 336.174 188.615 336.174ZM194.205 337H193.121V330.66H194.205V337ZM193.033 328.979C193.033 328.803 193.086 328.654 193.191 328.533C193.301 328.412 193.461 328.352 193.672 328.352C193.883 328.352 194.043 328.412 194.152 328.533C194.262 328.654 194.316 328.803 194.316 328.979C194.316 329.154 194.262 329.301 194.152 329.418C194.043 329.535 193.883 329.594 193.672 329.594C193.461 329.594 193.301 329.535 193.191 329.418C193.086 329.301 193.033 329.154 193.033 328.979ZM196.971 330.66L197.006 331.457C197.49 330.848 198.123 330.543 198.904 330.543C200.244 330.543 200.92 331.299 200.932 332.811V337H199.848V332.805C199.844 332.348 199.738 332.01 199.531 331.791C199.328 331.572 199.01 331.463 198.576 331.463C198.225 331.463 197.916 331.557 197.65 331.744C197.385 331.932 197.178 332.178 197.029 332.482V337H195.945V330.66H196.971ZM202.59 336.432C202.59 336.244 202.645 336.088 202.754 335.963C202.867 335.838 203.035 335.775 203.258 335.775C203.48 335.775 203.648 335.838 203.762 335.963C203.879 336.088 203.938 336.244 203.938 336.432C203.938 336.611 203.879 336.762 203.762 336.883C203.648 337.004 203.48 337.064 203.258 337.064C203.035 337.064 202.867 337.004 202.754 336.883C202.645 336.762 202.59 336.611 202.59 336.432Z" fill="#858383"/>
<path id="Confirm and go to the next trading day" d="M48.1836 262.667C48.1426 263.558 47.9023 264.346 47.4629 265.031C47.0234 265.711 46.4053 266.238 45.6084 266.613C44.8174 266.988 43.9121 267.176 42.8926 267.176C41.2109 267.176 39.8867 266.628 38.9199 265.532C37.9531 264.437 37.4697 262.89 37.4697 260.892V260.259C37.4697 259.005 37.6865 257.909 38.1201 256.972C38.5596 256.028 39.1895 255.302 40.0098 254.792C40.8301 254.276 41.7793 254.019 42.8574 254.019C44.4102 254.019 45.6582 254.429 46.6016 255.249C47.5449 256.063 48.0811 257.188 48.21 258.624H45.1338C45.1104 257.845 44.9141 257.285 44.5449 256.945C44.1758 256.605 43.6133 256.436 42.8574 256.436C42.0898 256.436 41.5273 256.723 41.1699 257.297C40.8125 257.871 40.625 258.788 40.6074 260.048V260.953C40.6074 262.318 40.7773 263.294 41.1172 263.88C41.4629 264.466 42.0547 264.759 42.8926 264.759C43.6016 264.759 44.1436 264.592 44.5186 264.258C44.8936 263.924 45.0928 263.394 45.1162 262.667H48.1836ZM49.1328 262.157C49.1328 261.208 49.3174 260.364 49.6865 259.626C50.0557 258.882 50.5859 258.311 51.2773 257.912C51.9688 257.514 52.7803 257.314 53.7119 257.314C55.1357 257.314 56.2578 257.757 57.0781 258.642C57.8984 259.521 58.3086 260.719 58.3086 262.236V262.342C58.3086 263.824 57.8955 265.002 57.0693 265.875C56.249 266.742 55.1357 267.176 53.7295 267.176C52.376 267.176 51.2891 266.771 50.4688 265.963C49.6484 265.148 49.2061 264.047 49.1416 262.658L49.1328 262.157ZM52.0947 262.342C52.0947 263.221 52.2324 263.865 52.5078 264.275C52.7832 264.686 53.1904 264.891 53.7295 264.891C54.7842 264.891 55.3232 264.079 55.3467 262.456V262.157C55.3467 260.452 54.8018 259.6 53.7119 259.6C52.7217 259.6 52.1855 260.335 52.1035 261.806L52.0947 262.342ZM62.334 257.49L62.4307 258.606C63.0869 257.745 63.9922 257.314 65.1465 257.314C66.1367 257.314 66.875 257.61 67.3613 258.202C67.8535 258.794 68.1084 259.685 68.126 260.874V267H65.1553V260.997C65.1553 260.517 65.0586 260.165 64.8652 259.942C64.6719 259.714 64.3203 259.6 63.8105 259.6C63.2305 259.6 62.7998 259.828 62.5186 260.285V267H59.5566V257.49H62.334ZM70.4639 267V259.547H69.084V257.49H70.4639V257.174C70.4814 255.908 70.8975 254.938 71.7119 254.265C72.4854 253.632 73.5664 253.315 74.9551 253.315C75.8281 253.315 76.8594 253.485 78.0488 253.825L77.6445 256.163L77.1523 256.031C76.5137 255.861 75.8398 255.776 75.1309 255.776C74 255.776 73.4346 256.292 73.4346 257.323V257.49H75.2979V259.547H73.4346V267H70.4639ZM79.4111 267H76.4316V257.49H79.4111V267ZM86.9697 260.171L85.9941 260.101C85.0625 260.101 84.4648 260.394 84.2012 260.979V267H81.2393V257.49H84.0166L84.1133 258.712C84.6113 257.78 85.3057 257.314 86.1963 257.314C86.5127 257.314 86.7881 257.35 87.0225 257.42L86.9697 260.171ZM90.8369 257.49L90.9336 258.606C91.6074 257.745 92.5127 257.314 93.6494 257.314C94.8506 257.314 95.6621 257.792 96.084 258.747C96.7285 257.792 97.6602 257.314 98.8789 257.314C100.807 257.314 101.797 258.48 101.85 260.812V267H98.8789V260.997C98.8789 260.511 98.7969 260.156 98.6328 259.934C98.4688 259.711 98.1699 259.6 97.7363 259.6C97.1504 259.6 96.7139 259.86 96.4268 260.382L96.4355 260.505V267H93.4648V261.015C93.4648 260.517 93.3857 260.156 93.2275 259.934C93.0693 259.711 92.7676 259.6 92.3223 259.6C91.7539 259.6 91.3203 259.86 91.0215 260.382V267H88.0596V257.49H90.8369ZM113.381 267C113.275 266.807 113.182 266.522 113.1 266.147C112.555 266.833 111.793 267.176 110.814 267.176C109.918 267.176 109.156 266.906 108.529 266.367C107.902 265.822 107.589 265.14 107.589 264.319C107.589 263.288 107.97 262.509 108.731 261.981C109.493 261.454 110.601 261.19 112.054 261.19H112.968V260.689C112.968 259.816 112.59 259.38 111.834 259.38C111.131 259.38 110.779 259.726 110.779 260.417H107.817C107.817 259.497 108.207 258.75 108.986 258.176C109.771 257.602 110.771 257.314 111.983 257.314C113.196 257.314 114.154 257.61 114.857 258.202C115.561 258.794 115.921 259.605 115.938 260.637V264.847C115.95 265.72 116.085 266.388 116.343 266.851V267H113.381ZM111.526 265.066C111.896 265.066 112.2 264.987 112.44 264.829C112.687 264.671 112.862 264.492 112.968 264.293V262.772H112.106C111.075 262.772 110.56 263.235 110.56 264.161C110.56 264.431 110.65 264.65 110.832 264.82C111.014 264.984 111.245 265.066 111.526 265.066ZM120.307 257.49L120.403 258.606C121.06 257.745 121.965 257.314 123.119 257.314C124.109 257.314 124.848 257.61 125.334 258.202C125.826 258.794 126.081 259.685 126.099 260.874V267H123.128V260.997C123.128 260.517 123.031 260.165 122.838 259.942C122.645 259.714 122.293 259.6 121.783 259.6C121.203 259.6 120.772 259.828 120.491 260.285V267H117.529V257.49H120.307ZM127.373 262.175C127.373 260.669 127.698 259.482 128.349 258.615C128.999 257.748 129.907 257.314 131.073 257.314C131.923 257.314 132.638 257.648 133.218 258.316V253.5H136.188V267H133.525L133.376 265.98C132.767 266.777 131.993 267.176 131.056 267.176C129.925 267.176 129.028 266.742 128.366 265.875C127.704 265.008 127.373 263.774 127.373 262.175ZM130.335 262.359C130.335 264.047 130.827 264.891 131.812 264.891C132.468 264.891 132.937 264.615 133.218 264.064V260.443C132.948 259.881 132.485 259.6 131.829 259.6C130.915 259.6 130.42 260.338 130.344 261.814L130.335 262.359ZM142.007 262.175C142.007 261.214 142.165 260.364 142.481 259.626C142.798 258.888 143.252 258.319 143.844 257.921C144.436 257.517 145.124 257.314 145.909 257.314C146.899 257.314 147.673 257.648 148.229 258.316L148.335 257.49H151.024V266.64C151.024 267.478 150.828 268.204 150.436 268.819C150.049 269.44 149.486 269.915 148.748 270.243C148.01 270.577 147.154 270.744 146.182 270.744C145.484 270.744 144.808 270.612 144.151 270.349C143.501 270.085 143.003 269.742 142.657 269.32L143.896 267.58C144.447 268.23 145.174 268.556 146.076 268.556C147.389 268.556 148.045 267.882 148.045 266.534V266.235C147.477 266.862 146.759 267.176 145.892 267.176C144.731 267.176 143.794 266.733 143.079 265.849C142.364 264.958 142.007 263.769 142.007 262.28V262.175ZM144.978 262.359C144.978 263.139 145.124 263.757 145.417 264.214C145.71 264.665 146.12 264.891 146.647 264.891C147.286 264.891 147.752 264.677 148.045 264.249V260.25C147.758 259.816 147.298 259.6 146.665 259.6C146.138 259.6 145.725 259.837 145.426 260.312C145.127 260.78 144.978 261.463 144.978 262.359ZM152.334 262.157C152.334 261.208 152.519 260.364 152.888 259.626C153.257 258.882 153.787 258.311 154.479 257.912C155.17 257.514 155.981 257.314 156.913 257.314C158.337 257.314 159.459 257.757 160.279 258.642C161.1 259.521 161.51 260.719 161.51 262.236V262.342C161.51 263.824 161.097 265.002 160.271 265.875C159.45 266.742 158.337 267.176 156.931 267.176C155.577 267.176 154.49 266.771 153.67 265.963C152.85 265.148 152.407 264.047 152.343 262.658L152.334 262.157ZM155.296 262.342C155.296 263.221 155.434 263.865 155.709 264.275C155.984 264.686 156.392 264.891 156.931 264.891C157.985 264.891 158.524 264.079 158.548 262.456V262.157C158.548 260.452 158.003 259.6 156.913 259.6C155.923 259.6 155.387 260.335 155.305 261.806L155.296 262.342ZM170.747 255.126V257.49H172.312V259.547H170.747V263.897C170.747 264.255 170.812 264.504 170.94 264.645C171.069 264.785 171.324 264.855 171.705 264.855C171.998 264.855 172.244 264.838 172.443 264.803V266.921C171.91 267.091 171.354 267.176 170.773 267.176C169.754 267.176 169.001 266.936 168.515 266.455C168.028 265.975 167.785 265.245 167.785 264.267V259.547H166.572V257.49H167.785V255.126H170.747ZM172.848 262.157C172.848 261.208 173.032 260.364 173.401 259.626C173.771 258.882 174.301 258.311 174.992 257.912C175.684 257.514 176.495 257.314 177.427 257.314C178.851 257.314 179.973 257.757 180.793 258.642C181.613 259.521 182.023 260.719 182.023 262.236V262.342C182.023 263.824 181.61 265.002 180.784 265.875C179.964 266.742 178.851 267.176 177.444 267.176C176.091 267.176 175.004 266.771 174.184 265.963C173.363 265.148 172.921 264.047 172.856 262.658L172.848 262.157ZM175.81 262.342C175.81 263.221 175.947 263.865 176.223 264.275C176.498 264.686 176.905 264.891 177.444 264.891C178.499 264.891 179.038 264.079 179.062 262.456V262.157C179.062 260.452 178.517 259.6 177.427 259.6C176.437 259.6 175.9 260.335 175.818 261.806L175.81 262.342ZM191.261 255.126V257.49H192.825V259.547H191.261V263.897C191.261 264.255 191.325 264.504 191.454 264.645C191.583 264.785 191.838 264.855 192.219 264.855C192.512 264.855 192.758 264.838 192.957 264.803V266.921C192.424 267.091 191.867 267.176 191.287 267.176C190.268 267.176 189.515 266.936 189.028 266.455C188.542 265.975 188.299 265.245 188.299 264.267V259.547H187.086V257.49H188.299V255.126H191.261ZM196.895 258.51C197.527 257.713 198.336 257.314 199.32 257.314C200.369 257.314 201.16 257.625 201.693 258.246C202.227 258.867 202.499 259.784 202.511 260.997V267H199.54V261.067C199.54 260.563 199.438 260.194 199.232 259.96C199.027 259.72 198.679 259.6 198.187 259.6C197.577 259.6 197.146 259.793 196.895 260.18V267H193.933V253.5H196.895V258.51ZM208.76 267.176C207.301 267.176 206.12 266.742 205.218 265.875C204.315 265.002 203.864 263.868 203.864 262.474V262.228C203.864 261.255 204.043 260.396 204.4 259.652C204.764 258.908 205.291 258.334 205.982 257.93C206.674 257.52 207.494 257.314 208.443 257.314C209.779 257.314 210.834 257.73 211.607 258.562C212.381 259.389 212.768 260.543 212.768 262.025V263.177H206.879C206.984 263.71 207.216 264.129 207.573 264.434C207.931 264.738 208.394 264.891 208.962 264.891C209.899 264.891 210.632 264.562 211.159 263.906L212.513 265.506C212.144 266.016 211.619 266.423 210.939 266.728C210.266 267.026 209.539 267.176 208.76 267.176ZM208.426 259.6C207.559 259.6 207.043 260.174 206.879 261.322H209.867V261.094C209.879 260.619 209.759 260.253 209.507 259.995C209.255 259.731 208.895 259.6 208.426 259.6ZM62.9668 278.49L63.0635 279.606C63.7197 278.745 64.625 278.314 65.7793 278.314C66.7695 278.314 67.5078 278.61 67.9941 279.202C68.4863 279.794 68.7412 280.685 68.7588 281.874V288H65.7881V281.997C65.7881 281.517 65.6914 281.165 65.498 280.942C65.3047 280.714 64.9531 280.6 64.4434 280.6C63.8633 280.6 63.4326 280.828 63.1514 281.285V288H60.1895V278.49H62.9668ZM75.0078 288.176C73.5488 288.176 72.3682 287.742 71.4658 286.875C70.5635 286.002 70.1123 284.868 70.1123 283.474V283.228C70.1123 282.255 70.291 281.396 70.6484 280.652C71.0117 279.908 71.5391 279.334 72.2305 278.93C72.9219 278.52 73.7422 278.314 74.6914 278.314C76.0273 278.314 77.082 278.73 77.8555 279.562C78.6289 280.389 79.0156 281.543 79.0156 283.025V284.177H73.127C73.2324 284.71 73.4639 285.129 73.8213 285.434C74.1787 285.738 74.6416 285.891 75.21 285.891C76.1475 285.891 76.8799 285.562 77.4072 284.906L78.7607 286.506C78.3916 287.016 77.8672 287.423 77.1875 287.728C76.5137 288.026 75.7871 288.176 75.0078 288.176ZM74.6738 280.6C73.8066 280.6 73.291 281.174 73.127 282.322H76.1152V282.094C76.127 281.619 76.0068 281.253 75.7549 280.995C75.5029 280.731 75.1426 280.6 74.6738 280.6ZM84.0693 281.109L85.4492 278.49H88.5254L86.0205 283.122L88.6484 288H85.5547L84.0605 285.188L82.5928 288H79.4814L82.1182 283.122L79.6221 278.49H82.7334L84.0693 281.109ZM92.9287 276.126V278.49H94.4932V280.547H92.9287V284.897C92.9287 285.255 92.9932 285.504 93.1221 285.645C93.251 285.785 93.5059 285.855 93.8867 285.855C94.1797 285.855 94.4258 285.838 94.625 285.803V287.921C94.0918 288.091 93.5352 288.176 92.9551 288.176C91.9355 288.176 91.1826 287.936 90.6963 287.455C90.21 286.975 89.9668 286.245 89.9668 285.267V280.547H88.7539V278.49H89.9668V276.126H92.9287ZM103.599 276.126V278.49H105.163V280.547H103.599V284.897C103.599 285.255 103.663 285.504 103.792 285.645C103.921 285.785 104.176 285.855 104.557 285.855C104.85 285.855 105.096 285.838 105.295 285.803V287.921C104.762 288.091 104.205 288.176 103.625 288.176C102.605 288.176 101.853 287.936 101.366 287.455C100.88 286.975 100.637 286.245 100.637 285.267V280.547H99.4238V278.49H100.637V276.126H103.599ZM112.089 281.171L111.113 281.101C110.182 281.101 109.584 281.394 109.32 281.979V288H106.358V278.49H109.136L109.232 279.712C109.73 278.78 110.425 278.314 111.315 278.314C111.632 278.314 111.907 278.35 112.142 278.42L112.089 281.171ZM118.25 288C118.145 287.807 118.051 287.522 117.969 287.147C117.424 287.833 116.662 288.176 115.684 288.176C114.787 288.176 114.025 287.906 113.398 287.367C112.771 286.822 112.458 286.14 112.458 285.319C112.458 284.288 112.839 283.509 113.601 282.981C114.362 282.454 115.47 282.19 116.923 282.19H117.837V281.689C117.837 280.816 117.459 280.38 116.703 280.38C116 280.38 115.648 280.726 115.648 281.417H112.687C112.687 280.497 113.076 279.75 113.855 279.176C114.641 278.602 115.64 278.314 116.853 278.314C118.065 278.314 119.023 278.61 119.727 279.202C120.43 279.794 120.79 280.605 120.808 281.637V285.847C120.819 286.72 120.954 287.388 121.212 287.851V288H118.25ZM116.396 286.066C116.765 286.066 117.069 285.987 117.31 285.829C117.556 285.671 117.731 285.492 117.837 285.293V283.772H116.976C115.944 283.772 115.429 284.235 115.429 285.161C115.429 285.431 115.52 285.65 115.701 285.82C115.883 285.984 116.114 286.066 116.396 286.066ZM122.082 283.175C122.082 281.669 122.407 280.482 123.058 279.615C123.708 278.748 124.616 278.314 125.782 278.314C126.632 278.314 127.347 278.648 127.927 279.316V274.5H130.897V288H128.234L128.085 286.98C127.476 287.777 126.702 288.176 125.765 288.176C124.634 288.176 123.737 287.742 123.075 286.875C122.413 286.008 122.082 284.774 122.082 283.175ZM125.044 283.359C125.044 285.047 125.536 285.891 126.521 285.891C127.177 285.891 127.646 285.615 127.927 285.064V281.443C127.657 280.881 127.194 280.6 126.538 280.6C125.624 280.6 125.129 281.338 125.053 282.814L125.044 283.359ZM135.705 288H132.734V278.49H135.705V288ZM132.559 276.038C132.559 275.616 132.711 275.271 133.016 275.001C133.32 274.731 133.716 274.597 134.202 274.597C134.688 274.597 135.084 274.731 135.389 275.001C135.693 275.271 135.846 275.616 135.846 276.038C135.846 276.46 135.693 276.806 135.389 277.075C135.084 277.345 134.688 277.479 134.202 277.479C133.716 277.479 133.32 277.345 133.016 277.075C132.711 276.806 132.559 276.46 132.559 276.038ZM140.258 278.49L140.354 279.606C141.011 278.745 141.916 278.314 143.07 278.314C144.061 278.314 144.799 278.61 145.285 279.202C145.777 279.794 146.032 280.685 146.05 281.874V288H143.079V281.997C143.079 281.517 142.982 281.165 142.789 280.942C142.596 280.714 142.244 280.6 141.734 280.6C141.154 280.6 140.724 280.828 140.442 281.285V288H137.48V278.49H140.258ZM147.351 283.175C147.351 282.214 147.509 281.364 147.825 280.626C148.142 279.888 148.596 279.319 149.188 278.921C149.779 278.517 150.468 278.314 151.253 278.314C152.243 278.314 153.017 278.648 153.573 279.316L153.679 278.49H156.368V287.64C156.368 288.478 156.172 289.204 155.779 289.819C155.393 290.44 154.83 290.915 154.092 291.243C153.354 291.577 152.498 291.744 151.525 291.744C150.828 291.744 150.151 291.612 149.495 291.349C148.845 291.085 148.347 290.742 148.001 290.32L149.24 288.58C149.791 289.23 150.518 289.556 151.42 289.556C152.732 289.556 153.389 288.882 153.389 287.534V287.235C152.82 287.862 152.103 288.176 151.235 288.176C150.075 288.176 149.138 287.733 148.423 286.849C147.708 285.958 147.351 284.769 147.351 283.28V283.175ZM150.321 283.359C150.321 284.139 150.468 284.757 150.761 285.214C151.054 285.665 151.464 285.891 151.991 285.891C152.63 285.891 153.096 285.677 153.389 285.249V281.25C153.102 280.816 152.642 280.6 152.009 280.6C151.481 280.6 151.068 280.837 150.77 281.312C150.471 281.78 150.321 282.463 150.321 283.359ZM162.16 283.175C162.16 281.669 162.485 280.482 163.136 279.615C163.786 278.748 164.694 278.314 165.86 278.314C166.71 278.314 167.425 278.648 168.005 279.316V274.5H170.976V288H168.312L168.163 286.98C167.554 287.777 166.78 288.176 165.843 288.176C164.712 288.176 163.815 287.742 163.153 286.875C162.491 286.008 162.16 284.774 162.16 283.175ZM165.122 283.359C165.122 285.047 165.614 285.891 166.599 285.891C167.255 285.891 167.724 285.615 168.005 285.064V281.443C167.735 280.881 167.272 280.6 166.616 280.6C165.702 280.6 165.207 281.338 165.131 282.814L165.122 283.359ZM178.016 288C177.91 287.807 177.816 287.522 177.734 287.147C177.189 287.833 176.428 288.176 175.449 288.176C174.553 288.176 173.791 287.906 173.164 287.367C172.537 286.822 172.224 286.14 172.224 285.319C172.224 284.288 172.604 283.509 173.366 282.981C174.128 282.454 175.235 282.19 176.688 282.19H177.603V281.689C177.603 280.816 177.225 280.38 176.469 280.38C175.766 280.38 175.414 280.726 175.414 281.417H172.452C172.452 280.497 172.842 279.75 173.621 279.176C174.406 278.602 175.405 278.314 176.618 278.314C177.831 278.314 178.789 278.61 179.492 279.202C180.195 279.794 180.556 280.605 180.573 281.637V285.847C180.585 286.72 180.72 287.388 180.978 287.851V288H178.016ZM176.161 286.066C176.53 286.066 176.835 285.987 177.075 285.829C177.321 285.671 177.497 285.492 177.603 285.293V283.772H176.741C175.71 283.772 175.194 284.235 175.194 285.161C175.194 285.431 175.285 285.65 175.467 285.82C175.648 285.984 175.88 286.066 176.161 286.066ZM185.882 283.852L187.464 278.49H190.637L186.761 289.591L186.594 289.995C186.043 291.226 185.07 291.841 183.676 291.841C183.289 291.841 182.882 291.782 182.454 291.665V289.547H182.841C183.257 289.547 183.573 289.485 183.79 289.362C184.013 289.245 184.177 289.031 184.282 288.721L184.52 288.088L181.215 278.49H184.379L185.882 283.852Z" fill="white"/>
<path id="After day 2" d="M22.3672 32.3633H17.7441L16.8652 35H14.0615L18.8252 22.2031H21.2686L26.0586 35H23.2549L22.3672 32.3633ZM18.4561 30.2275H21.6553L20.0469 25.4375L18.4561 30.2275ZM27.7812 35V27.3535H26.3662V25.4902H27.7812V24.6816C27.7812 23.6152 28.0859 22.7891 28.6953 22.2031C29.3105 21.6113 30.1689 21.3154 31.2705 21.3154C31.6221 21.3154 32.0527 21.374 32.5625 21.4912L32.5361 23.46C32.3252 23.4072 32.0674 23.3809 31.7627 23.3809C30.8076 23.3809 30.3301 23.8291 30.3301 24.7256V25.4902H32.2197V27.3535H30.3301V35H27.7812ZM36.5791 23.1523V25.4902H38.2051V27.3535H36.5791V32.0996C36.5791 32.4512 36.6465 32.7031 36.7812 32.8555C36.916 33.0078 37.1738 33.084 37.5547 33.084C37.8359 33.084 38.085 33.0635 38.3018 33.0225V34.9473C37.8037 35.0996 37.291 35.1758 36.7637 35.1758C34.9824 35.1758 34.0742 34.2764 34.0391 32.4775V27.3535H32.6504V25.4902H34.0391V23.1523H36.5791ZM43.9971 35.1758C42.6025 35.1758 41.4658 34.748 40.5869 33.8926C39.7139 33.0371 39.2773 31.8975 39.2773 30.4736V30.2275C39.2773 29.2725 39.4619 28.4199 39.8311 27.6699C40.2002 26.9141 40.7217 26.334 41.3955 25.9297C42.0752 25.5195 42.8486 25.3145 43.7158 25.3145C45.0166 25.3145 46.0391 25.7246 46.7832 26.5449C47.5332 27.3652 47.9082 28.5283 47.9082 30.0342V31.0713H41.8525C41.9346 31.6924 42.1807 32.1904 42.5908 32.5654C43.0068 32.9404 43.5312 33.1279 44.1641 33.1279C45.1426 33.1279 45.9072 32.7734 46.458 32.0645L47.7061 33.4619C47.3252 34.001 46.8096 34.4229 46.1592 34.7275C45.5088 35.0264 44.7881 35.1758 43.9971 35.1758ZM43.707 27.3711C43.2031 27.3711 42.793 27.541 42.4766 27.8809C42.166 28.2207 41.9668 28.707 41.8789 29.3398H45.4121V29.1377C45.4004 28.5752 45.248 28.1416 44.9551 27.8369C44.6621 27.5264 44.2461 27.3711 43.707 27.3711ZM54.7021 27.8721C54.3564 27.8252 54.0518 27.8018 53.7881 27.8018C52.8271 27.8018 52.1973 28.127 51.8984 28.7773V35H49.3584V25.4902H51.7578L51.8281 26.624C52.3379 25.751 53.0439 25.3145 53.9463 25.3145C54.2275 25.3145 54.4912 25.3525 54.7373 25.4287L54.7021 27.8721ZM60.0195 30.1748C60.0195 28.6924 60.3506 27.5117 61.0127 26.6328C61.6807 25.7539 62.5918 25.3145 63.7461 25.3145C64.6719 25.3145 65.4365 25.6602 66.04 26.3516V21.5H68.5889V35H66.2949L66.1719 33.9893C65.5391 34.7803 64.7246 35.1758 63.7285 35.1758C62.6094 35.1758 61.71 34.7363 61.0303 33.8574C60.3564 32.9727 60.0195 31.7451 60.0195 30.1748ZM62.5596 30.3594C62.5596 31.25 62.7148 31.9326 63.0254 32.4072C63.3359 32.8818 63.7871 33.1191 64.3789 33.1191C65.1641 33.1191 65.7178 32.7881 66.04 32.126V28.373C65.7236 27.7109 65.1758 27.3799 64.3965 27.3799C63.1719 27.3799 62.5596 28.373 62.5596 30.3594ZM76.0684 35C75.9512 34.7715 75.8662 34.4873 75.8135 34.1475C75.1982 34.833 74.3984 35.1758 73.4141 35.1758C72.4824 35.1758 71.709 34.9062 71.0938 34.3672C70.4844 33.8281 70.1797 33.1484 70.1797 32.3281C70.1797 31.3203 70.5518 30.5469 71.2959 30.0078C72.0459 29.4688 73.127 29.1963 74.5391 29.1904H75.708V28.6455C75.708 28.2061 75.5938 27.8545 75.3652 27.5908C75.1426 27.3271 74.7881 27.1953 74.3018 27.1953C73.874 27.1953 73.5371 27.2979 73.291 27.5029C73.0508 27.708 72.9307 27.9893 72.9307 28.3467H70.3906C70.3906 27.7959 70.5605 27.2861 70.9004 26.8174C71.2402 26.3486 71.7207 25.9824 72.3418 25.7188C72.9629 25.4492 73.6602 25.3145 74.4336 25.3145C75.6055 25.3145 76.5342 25.6104 77.2197 26.2021C77.9111 26.7881 78.2568 27.6143 78.2568 28.6807V32.8027C78.2627 33.7051 78.3887 34.3877 78.6348 34.8506V35H76.0684ZM73.9678 33.2334C74.3428 33.2334 74.6885 33.1514 75.0049 32.9873C75.3213 32.8174 75.5557 32.5918 75.708 32.3105V30.6758H74.7588C73.4873 30.6758 72.8105 31.1152 72.7285 31.9941L72.7197 32.1436C72.7197 32.46 72.8311 32.7207 73.0537 32.9258C73.2764 33.1309 73.5811 33.2334 73.9678 33.2334ZM83.6182 31.4053L85.376 25.4902H88.1006L84.2773 36.4766L84.0664 36.9775C83.498 38.2197 82.5605 38.8408 81.2539 38.8408C80.8848 38.8408 80.5098 38.7852 80.1289 38.6738V36.749L80.5156 36.7578C80.9961 36.7578 81.3535 36.6846 81.5879 36.5381C81.8281 36.3916 82.0156 36.1484 82.1504 35.8086L82.4492 35.0264L79.1182 25.4902H81.8516L83.6182 31.4053ZM102.251 35H93.4795V33.2598L97.6191 28.8477C98.1875 28.2266 98.6064 27.6846 98.876 27.2217C99.1514 26.7588 99.2891 26.3193 99.2891 25.9033C99.2891 25.335 99.1455 24.8896 98.8584 24.5674C98.5713 24.2393 98.1611 24.0752 97.6279 24.0752C97.0537 24.0752 96.5996 24.2744 96.2656 24.6729C95.9375 25.0654 95.7734 25.584 95.7734 26.2285H93.2246C93.2246 25.4492 93.4092 24.7373 93.7783 24.0928C94.1533 23.4482 94.6807 22.9443 95.3604 22.5811C96.04 22.2119 96.8105 22.0273 97.6719 22.0273C98.9902 22.0273 100.013 22.3438 100.739 22.9766C101.472 23.6094 101.838 24.5029 101.838 25.6572C101.838 26.29 101.674 26.9346 101.346 27.5908C101.018 28.2471 100.455 29.0117 99.6582 29.8848L96.749 32.9521H102.251V35Z" fill="black"/>
</g>
</svg>
