<svg width="249" height="373" viewBox="0 0 249 373" fill="none" xmlns="http://www.w3.org/2000/svg">
<g id="day2Action">
<rect id="back" x="1.5" y="1.5" width="246" height="370" fill="white" stroke="#E5E5E5" stroke-width="3"/>
<rect id="cashIconPlaceHolder" x="21" y="153" width="207" height="29" fill="white"/>
<rect id="inMarketIcon" x="21" y="82" width="207" height="29" fill="white"/>
<rect id="day2SkipBT" x="14" y="243" width="219" height="56" rx="7" fill="#6BB8FF"/>
<path id="Your trades will take action in the next day when the market opens again." d="M18.5918 329.752L20.8184 325.469H22.0957L19.1543 330.818V334H18.0293V330.818L15.0879 325.469H16.377L18.5918 329.752ZM22.3535 330.771C22.3535 330.15 22.4746 329.592 22.7168 329.096C22.9629 328.6 23.3027 328.217 23.7363 327.947C24.1738 327.678 24.6719 327.543 25.2305 327.543C26.0938 327.543 26.791 327.842 27.3223 328.439C27.8574 329.037 28.125 329.832 28.125 330.824V330.9C28.125 331.518 28.0059 332.072 27.7676 332.564C27.5332 333.053 27.1953 333.434 26.7539 333.707C26.3164 333.98 25.8125 334.117 25.2422 334.117C24.3828 334.117 23.6855 333.818 23.1504 333.221C22.6191 332.623 22.3535 331.832 22.3535 330.848V330.771ZM23.4434 330.9C23.4434 331.604 23.6055 332.168 23.9297 332.594C24.2578 333.02 24.6953 333.232 25.2422 333.232C25.793 333.232 26.2305 333.018 26.5547 332.588C26.8789 332.154 27.041 331.549 27.041 330.771C27.041 330.076 26.875 329.514 26.543 329.084C26.2148 328.65 25.7773 328.434 25.2305 328.434C24.6953 328.434 24.2637 328.646 23.9355 329.072C23.6074 329.498 23.4434 330.107 23.4434 330.9ZM33.3984 333.373C32.9766 333.869 32.3574 334.117 31.541 334.117C30.8652 334.117 30.3496 333.922 29.9941 333.531C29.6426 333.137 29.4648 332.555 29.4609 331.785V327.66H30.5449V331.756C30.5449 332.717 30.9355 333.197 31.7168 333.197C32.5449 333.197 33.0957 332.889 33.3691 332.271V327.66H34.4531V334H33.4219L33.3984 333.373ZM39.1699 328.633C39.0059 328.605 38.8281 328.592 38.6367 328.592C37.9258 328.592 37.4434 328.895 37.1895 329.5V334H36.1055V327.66H37.1602L37.1777 328.393C37.5332 327.826 38.0371 327.543 38.6895 327.543C38.9004 327.543 39.0605 327.57 39.1699 327.625V328.633ZM44.6191 326.125V327.66H45.8027V328.498H44.6191V332.43C44.6191 332.684 44.6719 332.875 44.7773 333.004C44.8828 333.129 45.0625 333.191 45.3164 333.191C45.4414 333.191 45.6133 333.168 45.832 333.121V334C45.5469 334.078 45.2695 334.117 45 334.117C44.5156 334.117 44.1504 333.971 43.9043 333.678C43.6582 333.385 43.5352 332.969 43.5352 332.43V328.498H42.3809V327.66H43.5352V326.125H44.6191ZM50.1387 328.633C49.9746 328.605 49.7969 328.592 49.6055 328.592C48.8945 328.592 48.4121 328.895 48.1582 329.5V334H47.0742V327.66H48.1289L48.1465 328.393C48.502 327.826 49.0059 327.543 49.6582 327.543C49.8691 327.543 50.0293 327.57 50.1387 327.625V328.633ZM54.8203 334C54.7578 333.875 54.707 333.652 54.668 333.332C54.1641 333.855 53.5625 334.117 52.8633 334.117C52.2383 334.117 51.7246 333.941 51.3223 333.59C50.9238 333.234 50.7246 332.785 50.7246 332.242C50.7246 331.582 50.9746 331.07 51.4746 330.707C51.9785 330.34 52.6855 330.156 53.5957 330.156H54.6504V329.658C54.6504 329.279 54.5371 328.979 54.3105 328.756C54.084 328.529 53.75 328.416 53.3086 328.416C52.9219 328.416 52.5977 328.514 52.3359 328.709C52.0742 328.904 51.9434 329.141 51.9434 329.418H50.8535C50.8535 329.102 50.9648 328.797 51.1875 328.504C51.4141 328.207 51.7188 327.973 52.1016 327.801C52.4883 327.629 52.9121 327.543 53.373 327.543C54.1035 327.543 54.6758 327.727 55.0898 328.094C55.5039 328.457 55.7188 328.959 55.7344 329.6V332.518C55.7344 333.1 55.8086 333.562 55.957 333.906V334H54.8203ZM53.0215 333.174C53.3613 333.174 53.6836 333.086 53.9883 332.91C54.293 332.734 54.5137 332.506 54.6504 332.225V330.924H53.8008C52.4727 330.924 51.8086 331.312 51.8086 332.09C51.8086 332.43 51.9219 332.695 52.1484 332.887C52.375 333.078 52.666 333.174 53.0215 333.174ZM57.1699 330.777C57.1699 329.805 57.4004 329.023 57.8613 328.434C58.3223 327.84 58.9258 327.543 59.6719 327.543C60.4141 327.543 61.002 327.797 61.4355 328.305V325H62.5195V334H61.5234L61.4707 333.32C61.0371 333.852 60.4336 334.117 59.6602 334.117C58.9258 334.117 58.3262 333.816 57.8613 333.215C57.4004 332.613 57.1699 331.828 57.1699 330.859V330.777ZM58.2539 330.9C58.2539 331.619 58.4023 332.182 58.6992 332.588C58.9961 332.994 59.4062 333.197 59.9297 333.197C60.6172 333.197 61.1191 332.889 61.4355 332.271V329.359C61.1113 328.762 60.6133 328.463 59.9414 328.463C59.4102 328.463 58.9961 328.668 58.6992 329.078C58.4023 329.488 58.2539 330.096 58.2539 330.9ZM66.8379 334.117C65.9785 334.117 65.2793 333.836 64.7402 333.273C64.2012 332.707 63.9316 331.951 63.9316 331.006V330.807C63.9316 330.178 64.0508 329.617 64.2891 329.125C64.5312 328.629 64.8672 328.242 65.2969 327.965C65.7305 327.684 66.1992 327.543 66.7031 327.543C67.5273 327.543 68.168 327.814 68.625 328.357C69.082 328.9 69.3105 329.678 69.3105 330.689V331.141H65.0156C65.0312 331.766 65.2129 332.271 65.5605 332.658C65.9121 333.041 66.3574 333.232 66.8965 333.232C67.2793 333.232 67.6035 333.154 67.8691 332.998C68.1348 332.842 68.3672 332.635 68.5664 332.377L69.2285 332.893C68.6973 333.709 67.9004 334.117 66.8379 334.117ZM66.7031 328.434C66.2656 328.434 65.8984 328.594 65.6016 328.914C65.3047 329.23 65.1211 329.676 65.0508 330.25H68.2266V330.168C68.1953 329.617 68.0469 329.191 67.7812 328.891C67.5156 328.586 67.1562 328.434 66.7031 328.434ZM74.2617 332.318C74.2617 332.025 74.1504 331.799 73.9277 331.639C73.709 331.475 73.3242 331.334 72.7734 331.217C72.2266 331.1 71.791 330.959 71.4668 330.795C71.1465 330.631 70.9082 330.436 70.752 330.209C70.5996 329.982 70.5234 329.713 70.5234 329.4C70.5234 328.881 70.7422 328.441 71.1797 328.082C71.6211 327.723 72.1836 327.543 72.8672 327.543C73.5859 327.543 74.168 327.729 74.6133 328.1C75.0625 328.471 75.2871 328.945 75.2871 329.523H74.1973C74.1973 329.227 74.0703 328.971 73.8164 328.756C73.5664 328.541 73.25 328.434 72.8672 328.434C72.4727 328.434 72.1641 328.52 71.9414 328.691C71.7188 328.863 71.6074 329.088 71.6074 329.365C71.6074 329.627 71.7109 329.824 71.918 329.957C72.125 330.09 72.498 330.217 73.0371 330.338C73.5801 330.459 74.0195 330.604 74.3555 330.771C74.6914 330.939 74.9395 331.143 75.0996 331.381C75.2637 331.615 75.3457 331.902 75.3457 332.242C75.3457 332.809 75.1191 333.264 74.666 333.607C74.2129 333.947 73.625 334.117 72.9023 334.117C72.3945 334.117 71.9453 334.027 71.5547 333.848C71.1641 333.668 70.8574 333.418 70.6348 333.098C70.416 332.773 70.3066 332.424 70.3066 332.049H71.3906C71.4102 332.412 71.5547 332.701 71.8242 332.916C72.0977 333.127 72.457 333.232 72.9023 333.232C73.3125 333.232 73.6406 333.15 73.8867 332.986C74.1367 332.818 74.2617 332.596 74.2617 332.318ZM85.3477 332.506L86.5664 327.66H87.6504L85.8047 334H84.9258L83.3848 329.195L81.8848 334H81.0059L79.166 327.66H80.2441L81.4922 332.406L82.9688 327.66H83.8418L85.3477 332.506ZM89.9355 334H88.8516V327.66H89.9355V334ZM88.7637 325.979C88.7637 325.803 88.8164 325.654 88.9219 325.533C89.0312 325.412 89.1914 325.352 89.4023 325.352C89.6133 325.352 89.7734 325.412 89.8828 325.533C89.9922 325.654 90.0469 325.803 90.0469 325.979C90.0469 326.154 89.9922 326.301 89.8828 326.418C89.7734 326.535 89.6133 326.594 89.4023 326.594C89.1914 326.594 89.0312 326.535 88.9219 326.418C88.8164 326.301 88.7637 326.154 88.7637 325.979ZM92.8535 334H91.7695V325H92.8535V334ZM95.7715 334H94.6875V325H95.7715V334ZM101.959 326.125V327.66H103.143V328.498H101.959V332.43C101.959 332.684 102.012 332.875 102.117 333.004C102.223 333.129 102.402 333.191 102.656 333.191C102.781 333.191 102.953 333.168 103.172 333.121V334C102.887 334.078 102.609 334.117 102.34 334.117C101.855 334.117 101.49 333.971 101.244 333.678C100.998 333.385 100.875 332.969 100.875 332.43V328.498H99.7207V327.66H100.875V326.125H101.959ZM108.328 334C108.266 333.875 108.215 333.652 108.176 333.332C107.672 333.855 107.07 334.117 106.371 334.117C105.746 334.117 105.232 333.941 104.83 333.59C104.432 333.234 104.232 332.785 104.232 332.242C104.232 331.582 104.482 331.07 104.982 330.707C105.486 330.34 106.193 330.156 107.104 330.156H108.158V329.658C108.158 329.279 108.045 328.979 107.818 328.756C107.592 328.529 107.258 328.416 106.816 328.416C106.43 328.416 106.105 328.514 105.844 328.709C105.582 328.904 105.451 329.141 105.451 329.418H104.361C104.361 329.102 104.473 328.797 104.695 328.504C104.922 328.207 105.227 327.973 105.609 327.801C105.996 327.629 106.42 327.543 106.881 327.543C107.611 327.543 108.184 327.727 108.598 328.094C109.012 328.457 109.227 328.959 109.242 329.6V332.518C109.242 333.1 109.316 333.562 109.465 333.906V334H108.328ZM106.529 333.174C106.869 333.174 107.191 333.086 107.496 332.91C107.801 332.734 108.021 332.506 108.158 332.225V330.924H107.309C105.98 330.924 105.316 331.312 105.316 332.09C105.316 332.43 105.43 332.695 105.656 332.887C105.883 333.078 106.174 333.174 106.529 333.174ZM112.711 331.064L112.031 331.773V334H110.947V325H112.031V330.443L112.611 329.746L114.586 327.66H115.904L113.438 330.309L116.191 334H114.92L112.711 331.064ZM119.537 334.117C118.678 334.117 117.979 333.836 117.439 333.273C116.9 332.707 116.631 331.951 116.631 331.006V330.807C116.631 330.178 116.75 329.617 116.988 329.125C117.23 328.629 117.566 328.242 117.996 327.965C118.43 327.684 118.898 327.543 119.402 327.543C120.227 327.543 120.867 327.814 121.324 328.357C121.781 328.9 122.01 329.678 122.01 330.689V331.141H117.715C117.73 331.766 117.912 332.271 118.26 332.658C118.611 333.041 119.057 333.232 119.596 333.232C119.979 333.232 120.303 333.154 120.568 332.998C120.834 332.842 121.066 332.635 121.266 332.377L121.928 332.893C121.396 333.709 120.6 334.117 119.537 334.117ZM119.402 328.434C118.965 328.434 118.598 328.594 118.301 328.914C118.004 329.23 117.82 329.676 117.75 330.25H120.926V330.168C120.895 329.617 120.746 329.191 120.48 328.891C120.215 328.586 119.855 328.434 119.402 328.434ZM130.16 334C130.098 333.875 130.047 333.652 130.008 333.332C129.504 333.855 128.902 334.117 128.203 334.117C127.578 334.117 127.064 333.941 126.662 333.59C126.264 333.234 126.064 332.785 126.064 332.242C126.064 331.582 126.314 331.07 126.814 330.707C127.318 330.34 128.025 330.156 128.936 330.156H129.99V329.658C129.99 329.279 129.877 328.979 129.65 328.756C129.424 328.529 129.09 328.416 128.648 328.416C128.262 328.416 127.938 328.514 127.676 328.709C127.414 328.904 127.283 329.141 127.283 329.418H126.193C126.193 329.102 126.305 328.797 126.527 328.504C126.754 328.207 127.059 327.973 127.441 327.801C127.828 327.629 128.252 327.543 128.713 327.543C129.443 327.543 130.016 327.727 130.43 328.094C130.844 328.457 131.059 328.959 131.074 329.6V332.518C131.074 333.1 131.148 333.562 131.297 333.906V334H130.16ZM128.361 333.174C128.701 333.174 129.023 333.086 129.328 332.91C129.633 332.734 129.854 332.506 129.99 332.225V330.924H129.141C127.812 330.924 127.148 331.312 127.148 332.09C127.148 332.43 127.262 332.695 127.488 332.887C127.715 333.078 128.006 333.174 128.361 333.174ZM135.316 333.232C135.703 333.232 136.041 333.115 136.33 332.881C136.619 332.646 136.779 332.354 136.811 332.002H137.836C137.816 332.365 137.691 332.711 137.461 333.039C137.23 333.367 136.922 333.629 136.535 333.824C136.152 334.02 135.746 334.117 135.316 334.117C134.453 334.117 133.766 333.83 133.254 333.256C132.746 332.678 132.492 331.889 132.492 330.889V330.707C132.492 330.09 132.605 329.541 132.832 329.061C133.059 328.58 133.383 328.207 133.805 327.941C134.23 327.676 134.732 327.543 135.311 327.543C136.021 327.543 136.611 327.756 137.08 328.182C137.553 328.607 137.805 329.16 137.836 329.84H136.811C136.779 329.43 136.623 329.094 136.342 328.832C136.064 328.566 135.721 328.434 135.311 328.434C134.76 328.434 134.332 328.633 134.027 329.031C133.727 329.426 133.576 329.998 133.576 330.748V330.953C133.576 331.684 133.727 332.246 134.027 332.641C134.328 333.035 134.758 333.232 135.316 333.232ZM140.525 326.125V327.66H141.709V328.498H140.525V332.43C140.525 332.684 140.578 332.875 140.684 333.004C140.789 333.129 140.969 333.191 141.223 333.191C141.348 333.191 141.52 333.168 141.738 333.121V334C141.453 334.078 141.176 334.117 140.906 334.117C140.422 334.117 140.057 333.971 139.811 333.678C139.564 333.385 139.441 332.969 139.441 332.43V328.498H138.287V327.66H139.441V326.125H140.525ZM144.158 334H143.074V327.66H144.158V334ZM142.986 325.979C142.986 325.803 143.039 325.654 143.145 325.533C143.254 325.412 143.414 325.352 143.625 325.352C143.836 325.352 143.996 325.412 144.105 325.533C144.215 325.654 144.27 325.803 144.27 325.979C144.27 326.154 144.215 326.301 144.105 326.418C143.996 326.535 143.836 326.594 143.625 326.594C143.414 326.594 143.254 326.535 143.145 326.418C143.039 326.301 142.986 326.154 142.986 325.979ZM145.611 330.771C145.611 330.15 145.732 329.592 145.975 329.096C146.221 328.6 146.561 328.217 146.994 327.947C147.432 327.678 147.93 327.543 148.488 327.543C149.352 327.543 150.049 327.842 150.58 328.439C151.115 329.037 151.383 329.832 151.383 330.824V330.9C151.383 331.518 151.264 332.072 151.025 332.564C150.791 333.053 150.453 333.434 150.012 333.707C149.574 333.98 149.07 334.117 148.5 334.117C147.641 334.117 146.943 333.818 146.408 333.221C145.877 332.623 145.611 331.832 145.611 330.848V330.771ZM146.701 330.9C146.701 331.604 146.863 332.168 147.188 332.594C147.516 333.02 147.953 333.232 148.5 333.232C149.051 333.232 149.488 333.018 149.812 332.588C150.137 332.154 150.299 331.549 150.299 330.771C150.299 330.076 150.133 329.514 149.801 329.084C149.473 328.65 149.035 328.434 148.488 328.434C147.953 328.434 147.521 328.646 147.193 329.072C146.865 329.498 146.701 330.107 146.701 330.9ZM153.768 327.66L153.803 328.457C154.287 327.848 154.92 327.543 155.701 327.543C157.041 327.543 157.717 328.299 157.729 329.811V334H156.645V329.805C156.641 329.348 156.535 329.01 156.328 328.791C156.125 328.572 155.807 328.463 155.373 328.463C155.021 328.463 154.713 328.557 154.447 328.744C154.182 328.932 153.975 329.178 153.826 329.482V334H152.742V327.66H153.768ZM163.518 334H162.434V327.66H163.518V334ZM162.346 325.979C162.346 325.803 162.398 325.654 162.504 325.533C162.613 325.412 162.773 325.352 162.984 325.352C163.195 325.352 163.355 325.412 163.465 325.533C163.574 325.654 163.629 325.803 163.629 325.979C163.629 326.154 163.574 326.301 163.465 326.418C163.355 326.535 163.195 326.594 162.984 326.594C162.773 326.594 162.613 326.535 162.504 326.418C162.398 326.301 162.346 326.154 162.346 325.979ZM166.283 327.66L166.318 328.457C166.803 327.848 167.436 327.543 168.217 327.543C169.557 327.543 170.232 328.299 170.244 329.811V334H169.16V329.805C169.156 329.348 169.051 329.01 168.844 328.791C168.641 328.572 168.322 328.463 167.889 328.463C167.537 328.463 167.229 328.557 166.963 328.744C166.697 328.932 166.49 329.178 166.342 329.482V334H165.258V327.66H166.283ZM176.326 326.125V327.66H177.51V328.498H176.326V332.43C176.326 332.684 176.379 332.875 176.484 333.004C176.59 333.129 176.77 333.191 177.023 333.191C177.148 333.191 177.32 333.168 177.539 333.121V334C177.254 334.078 176.977 334.117 176.707 334.117C176.223 334.117 175.857 333.971 175.611 333.678C175.365 333.385 175.242 332.969 175.242 332.43V328.498H174.088V327.66H175.242V326.125H176.326ZM179.865 328.428C180.346 327.838 180.971 327.543 181.74 327.543C183.08 327.543 183.756 328.299 183.768 329.811V334H182.684V329.805C182.68 329.348 182.574 329.01 182.367 328.791C182.164 328.572 181.846 328.463 181.412 328.463C181.061 328.463 180.752 328.557 180.486 328.744C180.221 328.932 180.014 329.178 179.865 329.482V334H178.781V325H179.865V328.428ZM188.021 334.117C187.162 334.117 186.463 333.836 185.924 333.273C185.385 332.707 185.115 331.951 185.115 331.006V330.807C185.115 330.178 185.234 329.617 185.473 329.125C185.715 328.629 186.051 328.242 186.48 327.965C186.914 327.684 187.383 327.543 187.887 327.543C188.711 327.543 189.352 327.814 189.809 328.357C190.266 328.9 190.494 329.678 190.494 330.689V331.141H186.199C186.215 331.766 186.396 332.271 186.744 332.658C187.096 333.041 187.541 333.232 188.08 333.232C188.463 333.232 188.787 333.154 189.053 332.998C189.318 332.842 189.551 332.635 189.75 332.377L190.412 332.893C189.881 333.709 189.084 334.117 188.021 334.117ZM187.887 328.434C187.449 328.434 187.082 328.594 186.785 328.914C186.488 329.23 186.305 329.676 186.234 330.25H189.41V330.168C189.379 329.617 189.23 329.191 188.965 328.891C188.699 328.586 188.34 328.434 187.887 328.434ZM195.756 327.66L195.791 328.457C196.275 327.848 196.908 327.543 197.689 327.543C199.029 327.543 199.705 328.299 199.717 329.811V334H198.633V329.805C198.629 329.348 198.523 329.01 198.316 328.791C198.113 328.572 197.795 328.463 197.361 328.463C197.01 328.463 196.701 328.557 196.436 328.744C196.17 328.932 195.963 329.178 195.814 329.482V334H194.73V327.66H195.756ZM203.982 334.117C203.123 334.117 202.424 333.836 201.885 333.273C201.346 332.707 201.076 331.951 201.076 331.006V330.807C201.076 330.178 201.195 329.617 201.434 329.125C201.676 328.629 202.012 328.242 202.441 327.965C202.875 327.684 203.344 327.543 203.848 327.543C204.672 327.543 205.312 327.814 205.77 328.357C206.227 328.9 206.455 329.678 206.455 330.689V331.141H202.16C202.176 331.766 202.357 332.271 202.705 332.658C203.057 333.041 203.502 333.232 204.041 333.232C204.424 333.232 204.748 333.154 205.014 332.998C205.279 332.842 205.512 332.635 205.711 332.377L206.373 332.893C205.842 333.709 205.045 334.117 203.982 334.117ZM203.848 328.434C203.41 328.434 203.043 328.594 202.746 328.914C202.449 329.23 202.266 329.676 202.195 330.25H205.371V330.168C205.34 329.617 205.191 329.191 204.926 328.891C204.66 328.586 204.301 328.434 203.848 328.434ZM209.842 329.975L211.248 327.66H212.514L210.439 330.795L212.578 334H211.324L209.859 331.627L208.395 334H207.135L209.273 330.795L207.199 327.66H208.453L209.842 329.975ZM215.139 326.125V327.66H216.322V328.498H215.139V332.43C215.139 332.684 215.191 332.875 215.297 333.004C215.402 333.129 215.582 333.191 215.836 333.191C215.961 333.191 216.133 333.168 216.352 333.121V334C216.066 334.078 215.789 334.117 215.52 334.117C215.035 334.117 214.67 333.971 214.424 333.678C214.178 333.385 214.055 332.969 214.055 332.43V328.498H212.9V327.66H214.055V326.125H215.139ZM15.5566 344.777C15.5566 343.805 15.7871 343.023 16.248 342.434C16.709 341.84 17.3125 341.543 18.0586 341.543C18.8008 341.543 19.3887 341.797 19.8223 342.305V339H20.9062V348H19.9102L19.8574 347.32C19.4238 347.852 18.8203 348.117 18.0469 348.117C17.3125 348.117 16.7129 347.816 16.248 347.215C15.7871 346.613 15.5566 345.828 15.5566 344.859V344.777ZM16.6406 344.9C16.6406 345.619 16.7891 346.182 17.0859 346.588C17.3828 346.994 17.793 347.197 18.3164 347.197C19.0039 347.197 19.5059 346.889 19.8223 346.271V343.359C19.498 342.762 19 342.463 18.3281 342.463C17.7969 342.463 17.3828 342.668 17.0859 343.078C16.7891 343.488 16.6406 344.096 16.6406 344.9ZM26.5078 348C26.4453 347.875 26.3945 347.652 26.3555 347.332C25.8516 347.855 25.25 348.117 24.5508 348.117C23.9258 348.117 23.4121 347.941 23.0098 347.59C22.6113 347.234 22.4121 346.785 22.4121 346.242C22.4121 345.582 22.6621 345.07 23.1621 344.707C23.666 344.34 24.373 344.156 25.2832 344.156H26.3379V343.658C26.3379 343.279 26.2246 342.979 25.998 342.756C25.7715 342.529 25.4375 342.416 24.9961 342.416C24.6094 342.416 24.2852 342.514 24.0234 342.709C23.7617 342.904 23.6309 343.141 23.6309 343.418H22.541C22.541 343.102 22.6523 342.797 22.875 342.504C23.1016 342.207 23.4062 341.973 23.7891 341.801C24.1758 341.629 24.5996 341.543 25.0605 341.543C25.791 341.543 26.3633 341.727 26.7773 342.094C27.1914 342.457 27.4062 342.959 27.4219 343.6V346.518C27.4219 347.1 27.4961 347.562 27.6445 347.906V348H26.5078ZM24.709 347.174C25.0488 347.174 25.3711 347.086 25.6758 346.91C25.9805 346.734 26.2012 346.506 26.3379 346.225V344.924H25.4883C24.1602 344.924 23.4961 345.312 23.4961 346.09C23.4961 346.43 23.6094 346.695 23.8359 346.887C24.0625 347.078 24.3535 347.174 24.709 347.174ZM31.1016 346.412L32.5781 341.66H33.7383L31.1895 348.979C30.7949 350.033 30.168 350.561 29.3086 350.561L29.1035 350.543L28.6992 350.467V349.588L28.9922 349.611C29.3594 349.611 29.6445 349.537 29.8477 349.389C30.0547 349.24 30.2246 348.969 30.3574 348.574L30.5977 347.93L28.3359 341.66H29.5195L31.1016 346.412ZM43.3008 346.506L44.5195 341.66H45.6035L43.7578 348H42.8789L41.3379 343.195L39.8379 348H38.959L37.1191 341.66H38.1973L39.4453 346.406L40.9219 341.66H41.7949L43.3008 346.506ZM47.7949 342.428C48.2754 341.838 48.9004 341.543 49.6699 341.543C51.0098 341.543 51.6855 342.299 51.6973 343.811V348H50.6133V343.805C50.6094 343.348 50.5039 343.01 50.2969 342.791C50.0938 342.572 49.7754 342.463 49.3418 342.463C48.9902 342.463 48.6816 342.557 48.416 342.744C48.1504 342.932 47.9434 343.178 47.7949 343.482V348H46.7109V339H47.7949V342.428ZM55.9512 348.117C55.0918 348.117 54.3926 347.836 53.8535 347.273C53.3145 346.707 53.0449 345.951 53.0449 345.006V344.807C53.0449 344.178 53.1641 343.617 53.4023 343.125C53.6445 342.629 53.9805 342.242 54.4102 341.965C54.8438 341.684 55.3125 341.543 55.8164 341.543C56.6406 341.543 57.2812 341.814 57.7383 342.357C58.1953 342.9 58.4238 343.678 58.4238 344.689V345.141H54.1289C54.1445 345.766 54.3262 346.271 54.6738 346.658C55.0254 347.041 55.4707 347.232 56.0098 347.232C56.3926 347.232 56.7168 347.154 56.9824 346.998C57.248 346.842 57.4805 346.635 57.6797 346.377L58.3418 346.893C57.8105 347.709 57.0137 348.117 55.9512 348.117ZM55.8164 342.434C55.3789 342.434 55.0117 342.594 54.7148 342.914C54.418 343.23 54.2344 343.676 54.1641 344.25H57.3398V344.168C57.3086 343.617 57.1602 343.191 56.8945 342.891C56.6289 342.586 56.2695 342.434 55.8164 342.434ZM60.709 341.66L60.7441 342.457C61.2285 341.848 61.8613 341.543 62.6426 341.543C63.9824 341.543 64.6582 342.299 64.6699 343.811V348H63.5859V343.805C63.582 343.348 63.4766 343.01 63.2695 342.791C63.0664 342.572 62.748 342.463 62.3145 342.463C61.9629 342.463 61.6543 342.557 61.3887 342.744C61.123 342.932 60.916 343.178 60.7676 343.482V348H59.6836V341.66H60.709ZM70.752 340.125V341.66H71.9355V342.498H70.752V346.43C70.752 346.684 70.8047 346.875 70.9102 347.004C71.0156 347.129 71.1953 347.191 71.4492 347.191C71.5742 347.191 71.7461 347.168 71.9648 347.121V348C71.6797 348.078 71.4023 348.117 71.1328 348.117C70.6484 348.117 70.2832 347.971 70.0371 347.678C69.791 347.385 69.668 346.969 69.668 346.43V342.498H68.5137V341.66H69.668V340.125H70.752ZM74.291 342.428C74.7715 341.838 75.3965 341.543 76.166 341.543C77.5059 341.543 78.1816 342.299 78.1934 343.811V348H77.1094V343.805C77.1055 343.348 77 343.01 76.793 342.791C76.5898 342.572 76.2715 342.463 75.8379 342.463C75.4863 342.463 75.1777 342.557 74.9121 342.744C74.6465 342.932 74.4395 343.178 74.291 343.482V348H73.207V339H74.291V342.428ZM82.4473 348.117C81.5879 348.117 80.8887 347.836 80.3496 347.273C79.8105 346.707 79.541 345.951 79.541 345.006V344.807C79.541 344.178 79.6602 343.617 79.8984 343.125C80.1406 342.629 80.4766 342.242 80.9062 341.965C81.3398 341.684 81.8086 341.543 82.3125 341.543C83.1367 341.543 83.7773 341.814 84.2344 342.357C84.6914 342.9 84.9199 343.678 84.9199 344.689V345.141H80.625C80.6406 345.766 80.8223 346.271 81.1699 346.658C81.5215 347.041 81.9668 347.232 82.5059 347.232C82.8887 347.232 83.2129 347.154 83.4785 346.998C83.7441 346.842 83.9766 346.635 84.1758 346.377L84.8379 346.893C84.3066 347.709 83.5098 348.117 82.4473 348.117ZM82.3125 342.434C81.875 342.434 81.5078 342.594 81.2109 342.914C80.9141 343.23 80.7305 343.676 80.6602 344.25H83.8359V344.168C83.8047 343.617 83.6562 343.191 83.3906 342.891C83.125 342.586 82.7656 342.434 82.3125 342.434ZM90.1758 341.66L90.2051 342.363C90.6699 341.816 91.2969 341.543 92.0859 341.543C92.9727 341.543 93.5762 341.883 93.8965 342.562C94.1074 342.258 94.3809 342.012 94.7168 341.824C95.0566 341.637 95.457 341.543 95.918 341.543C97.3086 341.543 98.0156 342.279 98.0391 343.752V348H96.9551V343.816C96.9551 343.363 96.8516 343.025 96.6445 342.803C96.4375 342.576 96.0898 342.463 95.6016 342.463C95.1992 342.463 94.8652 342.584 94.5996 342.826C94.334 343.064 94.1797 343.387 94.1367 343.793V348H93.0469V343.846C93.0469 342.924 92.5957 342.463 91.6934 342.463C90.9824 342.463 90.4961 342.766 90.2344 343.371V348H89.1504V341.66H90.1758ZM103.594 348C103.531 347.875 103.48 347.652 103.441 347.332C102.938 347.855 102.336 348.117 101.637 348.117C101.012 348.117 100.498 347.941 100.096 347.59C99.6973 347.234 99.498 346.785 99.498 346.242C99.498 345.582 99.748 345.07 100.248 344.707C100.752 344.34 101.459 344.156 102.369 344.156H103.424V343.658C103.424 343.279 103.311 342.979 103.084 342.756C102.857 342.529 102.523 342.416 102.082 342.416C101.695 342.416 101.371 342.514 101.109 342.709C100.848 342.904 100.717 343.141 100.717 343.418H99.627C99.627 343.102 99.7383 342.797 99.9609 342.504C100.188 342.207 100.492 341.973 100.875 341.801C101.262 341.629 101.686 341.543 102.146 341.543C102.877 341.543 103.449 341.727 103.863 342.094C104.277 342.457 104.492 342.959 104.508 343.6V346.518C104.508 347.1 104.582 347.562 104.73 347.906V348H103.594ZM101.795 347.174C102.135 347.174 102.457 347.086 102.762 346.91C103.066 346.734 103.287 346.506 103.424 346.225V344.924H102.574C101.246 344.924 100.582 345.312 100.582 346.09C100.582 346.43 100.695 346.695 100.922 346.887C101.148 347.078 101.439 347.174 101.795 347.174ZM109.271 342.633C109.107 342.605 108.93 342.592 108.738 342.592C108.027 342.592 107.545 342.895 107.291 343.5V348H106.207V341.66H107.262L107.279 342.393C107.635 341.826 108.139 341.543 108.791 341.543C109.002 341.543 109.162 341.57 109.271 341.625V342.633ZM112.043 345.064L111.363 345.773V348H110.279V339H111.363V344.443L111.943 343.746L113.918 341.66H115.236L112.77 344.309L115.523 348H114.252L112.043 345.064ZM118.869 348.117C118.01 348.117 117.311 347.836 116.771 347.273C116.232 346.707 115.963 345.951 115.963 345.006V344.807C115.963 344.178 116.082 343.617 116.32 343.125C116.562 342.629 116.898 342.242 117.328 341.965C117.762 341.684 118.23 341.543 118.734 341.543C119.559 341.543 120.199 341.814 120.656 342.357C121.113 342.9 121.342 343.678 121.342 344.689V345.141H117.047C117.062 345.766 117.244 346.271 117.592 346.658C117.943 347.041 118.389 347.232 118.928 347.232C119.311 347.232 119.635 347.154 119.9 346.998C120.166 346.842 120.398 346.635 120.598 346.377L121.26 346.893C120.729 347.709 119.932 348.117 118.869 348.117ZM118.734 342.434C118.297 342.434 117.93 342.594 117.633 342.914C117.336 343.23 117.152 343.676 117.082 344.25H120.258V344.168C120.227 343.617 120.078 343.191 119.812 342.891C119.547 342.586 119.188 342.434 118.734 342.434ZM124.072 340.125V341.66H125.256V342.498H124.072V346.43C124.072 346.684 124.125 346.875 124.23 347.004C124.336 347.129 124.516 347.191 124.77 347.191C124.895 347.191 125.066 347.168 125.285 347.121V348C125 348.078 124.723 348.117 124.453 348.117C123.969 348.117 123.604 347.971 123.357 347.678C123.111 347.385 122.988 346.969 122.988 346.43V342.498H121.834V341.66H122.988V340.125H124.072ZM129.217 344.771C129.217 344.15 129.338 343.592 129.58 343.096C129.826 342.6 130.166 342.217 130.6 341.947C131.037 341.678 131.535 341.543 132.094 341.543C132.957 341.543 133.654 341.842 134.186 342.439C134.721 343.037 134.988 343.832 134.988 344.824V344.9C134.988 345.518 134.869 346.072 134.631 346.564C134.396 347.053 134.059 347.434 133.617 347.707C133.18 347.98 132.676 348.117 132.105 348.117C131.246 348.117 130.549 347.818 130.014 347.221C129.482 346.623 129.217 345.832 129.217 344.848V344.771ZM130.307 344.9C130.307 345.604 130.469 346.168 130.793 346.594C131.121 347.02 131.559 347.232 132.105 347.232C132.656 347.232 133.094 347.018 133.418 346.588C133.742 346.154 133.904 345.549 133.904 344.771C133.904 344.076 133.738 343.514 133.406 343.084C133.078 342.65 132.641 342.434 132.094 342.434C131.559 342.434 131.127 342.646 130.799 343.072C130.471 343.498 130.307 344.107 130.307 344.9ZM141.703 344.9C141.703 345.865 141.482 346.643 141.041 347.232C140.6 347.822 140.002 348.117 139.248 348.117C138.479 348.117 137.873 347.873 137.432 347.385V350.438H136.348V341.66H137.338L137.391 342.363C137.832 341.816 138.445 341.543 139.23 341.543C139.992 341.543 140.594 341.83 141.035 342.404C141.48 342.979 141.703 343.777 141.703 344.801V344.9ZM140.619 344.777C140.619 344.062 140.467 343.498 140.162 343.084C139.857 342.67 139.439 342.463 138.908 342.463C138.252 342.463 137.76 342.754 137.432 343.336V346.365C137.756 346.943 138.252 347.232 138.92 347.232C139.439 347.232 139.852 347.027 140.156 346.617C140.465 346.203 140.619 345.59 140.619 344.777ZM145.717 348.117C144.857 348.117 144.158 347.836 143.619 347.273C143.08 346.707 142.811 345.951 142.811 345.006V344.807C142.811 344.178 142.93 343.617 143.168 343.125C143.41 342.629 143.746 342.242 144.176 341.965C144.609 341.684 145.078 341.543 145.582 341.543C146.406 341.543 147.047 341.814 147.504 342.357C147.961 342.9 148.189 343.678 148.189 344.689V345.141H143.895C143.91 345.766 144.092 346.271 144.439 346.658C144.791 347.041 145.236 347.232 145.775 347.232C146.158 347.232 146.482 347.154 146.748 346.998C147.014 346.842 147.246 346.635 147.445 346.377L148.107 346.893C147.576 347.709 146.779 348.117 145.717 348.117ZM145.582 342.434C145.145 342.434 144.777 342.594 144.48 342.914C144.184 343.23 144 343.676 143.93 344.25H147.105V344.168C147.074 343.617 146.926 343.191 146.66 342.891C146.395 342.586 146.035 342.434 145.582 342.434ZM150.475 341.66L150.51 342.457C150.994 341.848 151.627 341.543 152.408 341.543C153.748 341.543 154.424 342.299 154.436 343.811V348H153.352V343.805C153.348 343.348 153.242 343.01 153.035 342.791C152.832 342.572 152.514 342.463 152.08 342.463C151.729 342.463 151.42 342.557 151.154 342.744C150.889 342.932 150.682 343.178 150.533 343.482V348H149.449V341.66H150.475ZM159.762 346.318C159.762 346.025 159.65 345.799 159.428 345.639C159.209 345.475 158.824 345.334 158.273 345.217C157.727 345.1 157.291 344.959 156.967 344.795C156.646 344.631 156.408 344.436 156.252 344.209C156.1 343.982 156.023 343.713 156.023 343.4C156.023 342.881 156.242 342.441 156.68 342.082C157.121 341.723 157.684 341.543 158.367 341.543C159.086 341.543 159.668 341.729 160.113 342.1C160.562 342.471 160.787 342.945 160.787 343.523H159.697C159.697 343.227 159.57 342.971 159.316 342.756C159.066 342.541 158.75 342.434 158.367 342.434C157.973 342.434 157.664 342.52 157.441 342.691C157.219 342.863 157.107 343.088 157.107 343.365C157.107 343.627 157.211 343.824 157.418 343.957C157.625 344.09 157.998 344.217 158.537 344.338C159.08 344.459 159.52 344.604 159.855 344.771C160.191 344.939 160.439 345.143 160.6 345.381C160.764 345.615 160.846 345.902 160.846 346.242C160.846 346.809 160.619 347.264 160.166 347.607C159.713 347.947 159.125 348.117 158.402 348.117C157.895 348.117 157.445 348.027 157.055 347.848C156.664 347.668 156.357 347.418 156.135 347.098C155.916 346.773 155.807 346.424 155.807 346.049H156.891C156.91 346.412 157.055 346.701 157.324 346.916C157.598 347.127 157.957 347.232 158.402 347.232C158.812 347.232 159.141 347.15 159.387 346.986C159.637 346.818 159.762 346.596 159.762 346.318ZM169.148 348C169.086 347.875 169.035 347.652 168.996 347.332C168.492 347.855 167.891 348.117 167.191 348.117C166.566 348.117 166.053 347.941 165.65 347.59C165.252 347.234 165.053 346.785 165.053 346.242C165.053 345.582 165.303 345.07 165.803 344.707C166.307 344.34 167.014 344.156 167.924 344.156H168.979V343.658C168.979 343.279 168.865 342.979 168.639 342.756C168.412 342.529 168.078 342.416 167.637 342.416C167.25 342.416 166.926 342.514 166.664 342.709C166.402 342.904 166.271 343.141 166.271 343.418H165.182C165.182 343.102 165.293 342.797 165.516 342.504C165.742 342.207 166.047 341.973 166.43 341.801C166.816 341.629 167.24 341.543 167.701 341.543C168.432 341.543 169.004 341.727 169.418 342.094C169.832 342.457 170.047 342.959 170.062 343.6V346.518C170.062 347.1 170.137 347.562 170.285 347.906V348H169.148ZM167.35 347.174C167.689 347.174 168.012 347.086 168.316 346.91C168.621 346.734 168.842 346.506 168.979 346.225V344.924H168.129C166.801 344.924 166.137 345.312 166.137 346.09C166.137 346.43 166.25 346.695 166.477 346.887C166.703 347.078 166.994 347.174 167.35 347.174ZM171.504 344.777C171.504 343.789 171.732 343.004 172.189 342.422C172.646 341.836 173.252 341.543 174.006 341.543C174.779 341.543 175.383 341.816 175.816 342.363L175.869 341.66H176.859V347.848C176.859 348.668 176.615 349.314 176.127 349.787C175.643 350.26 174.99 350.496 174.17 350.496C173.713 350.496 173.266 350.398 172.828 350.203C172.391 350.008 172.057 349.74 171.826 349.4L172.389 348.75C172.854 349.324 173.422 349.611 174.094 349.611C174.621 349.611 175.031 349.463 175.324 349.166C175.621 348.869 175.77 348.451 175.77 347.912V347.367C175.336 347.867 174.744 348.117 173.994 348.117C173.252 348.117 172.65 347.818 172.189 347.221C171.732 346.623 171.504 345.809 171.504 344.777ZM172.594 344.9C172.594 345.615 172.74 346.178 173.033 346.588C173.326 346.994 173.736 347.197 174.264 347.197C174.947 347.197 175.449 346.887 175.77 346.266V343.371C175.438 342.766 174.939 342.463 174.275 342.463C173.748 342.463 173.336 342.668 173.039 343.078C172.742 343.488 172.594 344.096 172.594 344.9ZM182.414 348C182.352 347.875 182.301 347.652 182.262 347.332C181.758 347.855 181.156 348.117 180.457 348.117C179.832 348.117 179.318 347.941 178.916 347.59C178.518 347.234 178.318 346.785 178.318 346.242C178.318 345.582 178.568 345.07 179.068 344.707C179.572 344.34 180.279 344.156 181.189 344.156H182.244V343.658C182.244 343.279 182.131 342.979 181.904 342.756C181.678 342.529 181.344 342.416 180.902 342.416C180.516 342.416 180.191 342.514 179.93 342.709C179.668 342.904 179.537 343.141 179.537 343.418H178.447C178.447 343.102 178.559 342.797 178.781 342.504C179.008 342.207 179.312 341.973 179.695 341.801C180.082 341.629 180.506 341.543 180.967 341.543C181.697 341.543 182.27 341.727 182.684 342.094C183.098 342.457 183.312 342.959 183.328 343.6V346.518C183.328 347.1 183.402 347.562 183.551 347.906V348H182.414ZM180.615 347.174C180.955 347.174 181.277 347.086 181.582 346.91C181.887 346.734 182.107 346.506 182.244 346.225V344.924H181.395C180.066 344.924 179.402 345.312 179.402 346.09C179.402 346.43 179.516 346.695 179.742 346.887C179.969 347.078 180.26 347.174 180.615 347.174ZM186.205 348H185.121V341.66H186.205V348ZM185.033 339.979C185.033 339.803 185.086 339.654 185.191 339.533C185.301 339.412 185.461 339.352 185.672 339.352C185.883 339.352 186.043 339.412 186.152 339.533C186.262 339.654 186.316 339.803 186.316 339.979C186.316 340.154 186.262 340.301 186.152 340.418C186.043 340.535 185.883 340.594 185.672 340.594C185.461 340.594 185.301 340.535 185.191 340.418C185.086 340.301 185.033 340.154 185.033 339.979ZM188.971 341.66L189.006 342.457C189.49 341.848 190.123 341.543 190.904 341.543C192.244 341.543 192.92 342.299 192.932 343.811V348H191.848V343.805C191.844 343.348 191.738 343.01 191.531 342.791C191.328 342.572 191.01 342.463 190.576 342.463C190.225 342.463 189.916 342.557 189.65 342.744C189.385 342.932 189.178 343.178 189.029 343.482V348H187.945V341.66H188.971ZM194.59 347.432C194.59 347.244 194.645 347.088 194.754 346.963C194.867 346.838 195.035 346.775 195.258 346.775C195.48 346.775 195.648 346.838 195.762 346.963C195.879 347.088 195.938 347.244 195.938 347.432C195.938 347.611 195.879 347.762 195.762 347.883C195.648 348.004 195.48 348.064 195.258 348.064C195.035 348.064 194.867 348.004 194.754 347.883C194.645 347.762 194.59 347.611 194.59 347.432Z" fill="black"/>
<path id="Confirm and go to the next trading day" d="M48.1836 262.667C48.1426 263.558 47.9023 264.346 47.4629 265.031C47.0234 265.711 46.4053 266.238 45.6084 266.613C44.8174 266.988 43.9121 267.176 42.8926 267.176C41.2109 267.176 39.8867 266.628 38.9199 265.532C37.9531 264.437 37.4697 262.89 37.4697 260.892V260.259C37.4697 259.005 37.6865 257.909 38.1201 256.972C38.5596 256.028 39.1895 255.302 40.0098 254.792C40.8301 254.276 41.7793 254.019 42.8574 254.019C44.4102 254.019 45.6582 254.429 46.6016 255.249C47.5449 256.063 48.0811 257.188 48.21 258.624H45.1338C45.1104 257.845 44.9141 257.285 44.5449 256.945C44.1758 256.605 43.6133 256.436 42.8574 256.436C42.0898 256.436 41.5273 256.723 41.1699 257.297C40.8125 257.871 40.625 258.788 40.6074 260.048V260.953C40.6074 262.318 40.7773 263.294 41.1172 263.88C41.4629 264.466 42.0547 264.759 42.8926 264.759C43.6016 264.759 44.1436 264.592 44.5186 264.258C44.8936 263.924 45.0928 263.394 45.1162 262.667H48.1836ZM49.1328 262.157C49.1328 261.208 49.3174 260.364 49.6865 259.626C50.0557 258.882 50.5859 258.311 51.2773 257.912C51.9688 257.514 52.7803 257.314 53.7119 257.314C55.1357 257.314 56.2578 257.757 57.0781 258.642C57.8984 259.521 58.3086 260.719 58.3086 262.236V262.342C58.3086 263.824 57.8955 265.002 57.0693 265.875C56.249 266.742 55.1357 267.176 53.7295 267.176C52.376 267.176 51.2891 266.771 50.4688 265.963C49.6484 265.148 49.2061 264.047 49.1416 262.658L49.1328 262.157ZM52.0947 262.342C52.0947 263.221 52.2324 263.865 52.5078 264.275C52.7832 264.686 53.1904 264.891 53.7295 264.891C54.7842 264.891 55.3232 264.079 55.3467 262.456V262.157C55.3467 260.452 54.8018 259.6 53.7119 259.6C52.7217 259.6 52.1855 260.335 52.1035 261.806L52.0947 262.342ZM62.334 257.49L62.4307 258.606C63.0869 257.745 63.9922 257.314 65.1465 257.314C66.1367 257.314 66.875 257.61 67.3613 258.202C67.8535 258.794 68.1084 259.685 68.126 260.874V267H65.1553V260.997C65.1553 260.517 65.0586 260.165 64.8652 259.942C64.6719 259.714 64.3203 259.6 63.8105 259.6C63.2305 259.6 62.7998 259.828 62.5186 260.285V267H59.5566V257.49H62.334ZM70.4639 267V259.547H69.084V257.49H70.4639V257.174C70.4814 255.908 70.8975 254.938 71.7119 254.265C72.4854 253.632 73.5664 253.315 74.9551 253.315C75.8281 253.315 76.8594 253.485 78.0488 253.825L77.6445 256.163L77.1523 256.031C76.5137 255.861 75.8398 255.776 75.1309 255.776C74 255.776 73.4346 256.292 73.4346 257.323V257.49H75.2979V259.547H73.4346V267H70.4639ZM79.4111 267H76.4316V257.49H79.4111V267ZM86.9697 260.171L85.9941 260.101C85.0625 260.101 84.4648 260.394 84.2012 260.979V267H81.2393V257.49H84.0166L84.1133 258.712C84.6113 257.78 85.3057 257.314 86.1963 257.314C86.5127 257.314 86.7881 257.35 87.0225 257.42L86.9697 260.171ZM90.8369 257.49L90.9336 258.606C91.6074 257.745 92.5127 257.314 93.6494 257.314C94.8506 257.314 95.6621 257.792 96.084 258.747C96.7285 257.792 97.6602 257.314 98.8789 257.314C100.807 257.314 101.797 258.48 101.85 260.812V267H98.8789V260.997C98.8789 260.511 98.7969 260.156 98.6328 259.934C98.4688 259.711 98.1699 259.6 97.7363 259.6C97.1504 259.6 96.7139 259.86 96.4268 260.382L96.4355 260.505V267H93.4648V261.015C93.4648 260.517 93.3857 260.156 93.2275 259.934C93.0693 259.711 92.7676 259.6 92.3223 259.6C91.7539 259.6 91.3203 259.86 91.0215 260.382V267H88.0596V257.49H90.8369ZM113.381 267C113.275 266.807 113.182 266.522 113.1 266.147C112.555 266.833 111.793 267.176 110.814 267.176C109.918 267.176 109.156 266.906 108.529 266.367C107.902 265.822 107.589 265.14 107.589 264.319C107.589 263.288 107.97 262.509 108.731 261.981C109.493 261.454 110.601 261.19 112.054 261.19H112.968V260.689C112.968 259.816 112.59 259.38 111.834 259.38C111.131 259.38 110.779 259.726 110.779 260.417H107.817C107.817 259.497 108.207 258.75 108.986 258.176C109.771 257.602 110.771 257.314 111.983 257.314C113.196 257.314 114.154 257.61 114.857 258.202C115.561 258.794 115.921 259.605 115.938 260.637V264.847C115.95 265.72 116.085 266.388 116.343 266.851V267H113.381ZM111.526 265.066C111.896 265.066 112.2 264.987 112.44 264.829C112.687 264.671 112.862 264.492 112.968 264.293V262.772H112.106C111.075 262.772 110.56 263.235 110.56 264.161C110.56 264.431 110.65 264.65 110.832 264.82C111.014 264.984 111.245 265.066 111.526 265.066ZM120.307 257.49L120.403 258.606C121.06 257.745 121.965 257.314 123.119 257.314C124.109 257.314 124.848 257.61 125.334 258.202C125.826 258.794 126.081 259.685 126.099 260.874V267H123.128V260.997C123.128 260.517 123.031 260.165 122.838 259.942C122.645 259.714 122.293 259.6 121.783 259.6C121.203 259.6 120.772 259.828 120.491 260.285V267H117.529V257.49H120.307ZM127.373 262.175C127.373 260.669 127.698 259.482 128.349 258.615C128.999 257.748 129.907 257.314 131.073 257.314C131.923 257.314 132.638 257.648 133.218 258.316V253.5H136.188V267H133.525L133.376 265.98C132.767 266.777 131.993 267.176 131.056 267.176C129.925 267.176 129.028 266.742 128.366 265.875C127.704 265.008 127.373 263.774 127.373 262.175ZM130.335 262.359C130.335 264.047 130.827 264.891 131.812 264.891C132.468 264.891 132.937 264.615 133.218 264.064V260.443C132.948 259.881 132.485 259.6 131.829 259.6C130.915 259.6 130.42 260.338 130.344 261.814L130.335 262.359ZM142.007 262.175C142.007 261.214 142.165 260.364 142.481 259.626C142.798 258.888 143.252 258.319 143.844 257.921C144.436 257.517 145.124 257.314 145.909 257.314C146.899 257.314 147.673 257.648 148.229 258.316L148.335 257.49H151.024V266.64C151.024 267.478 150.828 268.204 150.436 268.819C150.049 269.44 149.486 269.915 148.748 270.243C148.01 270.577 147.154 270.744 146.182 270.744C145.484 270.744 144.808 270.612 144.151 270.349C143.501 270.085 143.003 269.742 142.657 269.32L143.896 267.58C144.447 268.23 145.174 268.556 146.076 268.556C147.389 268.556 148.045 267.882 148.045 266.534V266.235C147.477 266.862 146.759 267.176 145.892 267.176C144.731 267.176 143.794 266.733 143.079 265.849C142.364 264.958 142.007 263.769 142.007 262.28V262.175ZM144.978 262.359C144.978 263.139 145.124 263.757 145.417 264.214C145.71 264.665 146.12 264.891 146.647 264.891C147.286 264.891 147.752 264.677 148.045 264.249V260.25C147.758 259.816 147.298 259.6 146.665 259.6C146.138 259.6 145.725 259.837 145.426 260.312C145.127 260.78 144.978 261.463 144.978 262.359ZM152.334 262.157C152.334 261.208 152.519 260.364 152.888 259.626C153.257 258.882 153.787 258.311 154.479 257.912C155.17 257.514 155.981 257.314 156.913 257.314C158.337 257.314 159.459 257.757 160.279 258.642C161.1 259.521 161.51 260.719 161.51 262.236V262.342C161.51 263.824 161.097 265.002 160.271 265.875C159.45 266.742 158.337 267.176 156.931 267.176C155.577 267.176 154.49 266.771 153.67 265.963C152.85 265.148 152.407 264.047 152.343 262.658L152.334 262.157ZM155.296 262.342C155.296 263.221 155.434 263.865 155.709 264.275C155.984 264.686 156.392 264.891 156.931 264.891C157.985 264.891 158.524 264.079 158.548 262.456V262.157C158.548 260.452 158.003 259.6 156.913 259.6C155.923 259.6 155.387 260.335 155.305 261.806L155.296 262.342ZM170.747 255.126V257.49H172.312V259.547H170.747V263.897C170.747 264.255 170.812 264.504 170.94 264.645C171.069 264.785 171.324 264.855 171.705 264.855C171.998 264.855 172.244 264.838 172.443 264.803V266.921C171.91 267.091 171.354 267.176 170.773 267.176C169.754 267.176 169.001 266.936 168.515 266.455C168.028 265.975 167.785 265.245 167.785 264.267V259.547H166.572V257.49H167.785V255.126H170.747ZM172.848 262.157C172.848 261.208 173.032 260.364 173.401 259.626C173.771 258.882 174.301 258.311 174.992 257.912C175.684 257.514 176.495 257.314 177.427 257.314C178.851 257.314 179.973 257.757 180.793 258.642C181.613 259.521 182.023 260.719 182.023 262.236V262.342C182.023 263.824 181.61 265.002 180.784 265.875C179.964 266.742 178.851 267.176 177.444 267.176C176.091 267.176 175.004 266.771 174.184 265.963C173.363 265.148 172.921 264.047 172.856 262.658L172.848 262.157ZM175.81 262.342C175.81 263.221 175.947 263.865 176.223 264.275C176.498 264.686 176.905 264.891 177.444 264.891C178.499 264.891 179.038 264.079 179.062 262.456V262.157C179.062 260.452 178.517 259.6 177.427 259.6C176.437 259.6 175.9 260.335 175.818 261.806L175.81 262.342ZM191.261 255.126V257.49H192.825V259.547H191.261V263.897C191.261 264.255 191.325 264.504 191.454 264.645C191.583 264.785 191.838 264.855 192.219 264.855C192.512 264.855 192.758 264.838 192.957 264.803V266.921C192.424 267.091 191.867 267.176 191.287 267.176C190.268 267.176 189.515 266.936 189.028 266.455C188.542 265.975 188.299 265.245 188.299 264.267V259.547H187.086V257.49H188.299V255.126H191.261ZM196.895 258.51C197.527 257.713 198.336 257.314 199.32 257.314C200.369 257.314 201.16 257.625 201.693 258.246C202.227 258.867 202.499 259.784 202.511 260.997V267H199.54V261.067C199.54 260.563 199.438 260.194 199.232 259.96C199.027 259.72 198.679 259.6 198.187 259.6C197.577 259.6 197.146 259.793 196.895 260.18V267H193.933V253.5H196.895V258.51ZM208.76 267.176C207.301 267.176 206.12 266.742 205.218 265.875C204.315 265.002 203.864 263.868 203.864 262.474V262.228C203.864 261.255 204.043 260.396 204.4 259.652C204.764 258.908 205.291 258.334 205.982 257.93C206.674 257.52 207.494 257.314 208.443 257.314C209.779 257.314 210.834 257.73 211.607 258.562C212.381 259.389 212.768 260.543 212.768 262.025V263.177H206.879C206.984 263.71 207.216 264.129 207.573 264.434C207.931 264.738 208.394 264.891 208.962 264.891C209.899 264.891 210.632 264.562 211.159 263.906L212.513 265.506C212.144 266.016 211.619 266.423 210.939 266.728C210.266 267.026 209.539 267.176 208.76 267.176ZM208.426 259.6C207.559 259.6 207.043 260.174 206.879 261.322H209.867V261.094C209.879 260.619 209.759 260.253 209.507 259.995C209.255 259.731 208.895 259.6 208.426 259.6ZM62.9668 278.49L63.0635 279.606C63.7197 278.745 64.625 278.314 65.7793 278.314C66.7695 278.314 67.5078 278.61 67.9941 279.202C68.4863 279.794 68.7412 280.685 68.7588 281.874V288H65.7881V281.997C65.7881 281.517 65.6914 281.165 65.498 280.942C65.3047 280.714 64.9531 280.6 64.4434 280.6C63.8633 280.6 63.4326 280.828 63.1514 281.285V288H60.1895V278.49H62.9668ZM75.0078 288.176C73.5488 288.176 72.3682 287.742 71.4658 286.875C70.5635 286.002 70.1123 284.868 70.1123 283.474V283.228C70.1123 282.255 70.291 281.396 70.6484 280.652C71.0117 279.908 71.5391 279.334 72.2305 278.93C72.9219 278.52 73.7422 278.314 74.6914 278.314C76.0273 278.314 77.082 278.73 77.8555 279.562C78.6289 280.389 79.0156 281.543 79.0156 283.025V284.177H73.127C73.2324 284.71 73.4639 285.129 73.8213 285.434C74.1787 285.738 74.6416 285.891 75.21 285.891C76.1475 285.891 76.8799 285.562 77.4072 284.906L78.7607 286.506C78.3916 287.016 77.8672 287.423 77.1875 287.728C76.5137 288.026 75.7871 288.176 75.0078 288.176ZM74.6738 280.6C73.8066 280.6 73.291 281.174 73.127 282.322H76.1152V282.094C76.127 281.619 76.0068 281.253 75.7549 280.995C75.5029 280.731 75.1426 280.6 74.6738 280.6ZM84.0693 281.109L85.4492 278.49H88.5254L86.0205 283.122L88.6484 288H85.5547L84.0605 285.188L82.5928 288H79.4814L82.1182 283.122L79.6221 278.49H82.7334L84.0693 281.109ZM92.9287 276.126V278.49H94.4932V280.547H92.9287V284.897C92.9287 285.255 92.9932 285.504 93.1221 285.645C93.251 285.785 93.5059 285.855 93.8867 285.855C94.1797 285.855 94.4258 285.838 94.625 285.803V287.921C94.0918 288.091 93.5352 288.176 92.9551 288.176C91.9355 288.176 91.1826 287.936 90.6963 287.455C90.21 286.975 89.9668 286.245 89.9668 285.267V280.547H88.7539V278.49H89.9668V276.126H92.9287ZM103.599 276.126V278.49H105.163V280.547H103.599V284.897C103.599 285.255 103.663 285.504 103.792 285.645C103.921 285.785 104.176 285.855 104.557 285.855C104.85 285.855 105.096 285.838 105.295 285.803V287.921C104.762 288.091 104.205 288.176 103.625 288.176C102.605 288.176 101.853 287.936 101.366 287.455C100.88 286.975 100.637 286.245 100.637 285.267V280.547H99.4238V278.49H100.637V276.126H103.599ZM112.089 281.171L111.113 281.101C110.182 281.101 109.584 281.394 109.32 281.979V288H106.358V278.49H109.136L109.232 279.712C109.73 278.78 110.425 278.314 111.315 278.314C111.632 278.314 111.907 278.35 112.142 278.42L112.089 281.171ZM118.25 288C118.145 287.807 118.051 287.522 117.969 287.147C117.424 287.833 116.662 288.176 115.684 288.176C114.787 288.176 114.025 287.906 113.398 287.367C112.771 286.822 112.458 286.14 112.458 285.319C112.458 284.288 112.839 283.509 113.601 282.981C114.362 282.454 115.47 282.19 116.923 282.19H117.837V281.689C117.837 280.816 117.459 280.38 116.703 280.38C116 280.38 115.648 280.726 115.648 281.417H112.687C112.687 280.497 113.076 279.75 113.855 279.176C114.641 278.602 115.64 278.314 116.853 278.314C118.065 278.314 119.023 278.61 119.727 279.202C120.43 279.794 120.79 280.605 120.808 281.637V285.847C120.819 286.72 120.954 287.388 121.212 287.851V288H118.25ZM116.396 286.066C116.765 286.066 117.069 285.987 117.31 285.829C117.556 285.671 117.731 285.492 117.837 285.293V283.772H116.976C115.944 283.772 115.429 284.235 115.429 285.161C115.429 285.431 115.52 285.65 115.701 285.82C115.883 285.984 116.114 286.066 116.396 286.066ZM122.082 283.175C122.082 281.669 122.407 280.482 123.058 279.615C123.708 278.748 124.616 278.314 125.782 278.314C126.632 278.314 127.347 278.648 127.927 279.316V274.5H130.897V288H128.234L128.085 286.98C127.476 287.777 126.702 288.176 125.765 288.176C124.634 288.176 123.737 287.742 123.075 286.875C122.413 286.008 122.082 284.774 122.082 283.175ZM125.044 283.359C125.044 285.047 125.536 285.891 126.521 285.891C127.177 285.891 127.646 285.615 127.927 285.064V281.443C127.657 280.881 127.194 280.6 126.538 280.6C125.624 280.6 125.129 281.338 125.053 282.814L125.044 283.359ZM135.705 288H132.734V278.49H135.705V288ZM132.559 276.038C132.559 275.616 132.711 275.271 133.016 275.001C133.32 274.731 133.716 274.597 134.202 274.597C134.688 274.597 135.084 274.731 135.389 275.001C135.693 275.271 135.846 275.616 135.846 276.038C135.846 276.46 135.693 276.806 135.389 277.075C135.084 277.345 134.688 277.479 134.202 277.479C133.716 277.479 133.32 277.345 133.016 277.075C132.711 276.806 132.559 276.46 132.559 276.038ZM140.258 278.49L140.354 279.606C141.011 278.745 141.916 278.314 143.07 278.314C144.061 278.314 144.799 278.61 145.285 279.202C145.777 279.794 146.032 280.685 146.05 281.874V288H143.079V281.997C143.079 281.517 142.982 281.165 142.789 280.942C142.596 280.714 142.244 280.6 141.734 280.6C141.154 280.6 140.724 280.828 140.442 281.285V288H137.48V278.49H140.258ZM147.351 283.175C147.351 282.214 147.509 281.364 147.825 280.626C148.142 279.888 148.596 279.319 149.188 278.921C149.779 278.517 150.468 278.314 151.253 278.314C152.243 278.314 153.017 278.648 153.573 279.316L153.679 278.49H156.368V287.64C156.368 288.478 156.172 289.204 155.779 289.819C155.393 290.44 154.83 290.915 154.092 291.243C153.354 291.577 152.498 291.744 151.525 291.744C150.828 291.744 150.151 291.612 149.495 291.349C148.845 291.085 148.347 290.742 148.001 290.32L149.24 288.58C149.791 289.23 150.518 289.556 151.42 289.556C152.732 289.556 153.389 288.882 153.389 287.534V287.235C152.82 287.862 152.103 288.176 151.235 288.176C150.075 288.176 149.138 287.733 148.423 286.849C147.708 285.958 147.351 284.769 147.351 283.28V283.175ZM150.321 283.359C150.321 284.139 150.468 284.757 150.761 285.214C151.054 285.665 151.464 285.891 151.991 285.891C152.63 285.891 153.096 285.677 153.389 285.249V281.25C153.102 280.816 152.642 280.6 152.009 280.6C151.481 280.6 151.068 280.837 150.77 281.312C150.471 281.78 150.321 282.463 150.321 283.359ZM162.16 283.175C162.16 281.669 162.485 280.482 163.136 279.615C163.786 278.748 164.694 278.314 165.86 278.314C166.71 278.314 167.425 278.648 168.005 279.316V274.5H170.976V288H168.312L168.163 286.98C167.554 287.777 166.78 288.176 165.843 288.176C164.712 288.176 163.815 287.742 163.153 286.875C162.491 286.008 162.16 284.774 162.16 283.175ZM165.122 283.359C165.122 285.047 165.614 285.891 166.599 285.891C167.255 285.891 167.724 285.615 168.005 285.064V281.443C167.735 280.881 167.272 280.6 166.616 280.6C165.702 280.6 165.207 281.338 165.131 282.814L165.122 283.359ZM178.016 288C177.91 287.807 177.816 287.522 177.734 287.147C177.189 287.833 176.428 288.176 175.449 288.176C174.553 288.176 173.791 287.906 173.164 287.367C172.537 286.822 172.224 286.14 172.224 285.319C172.224 284.288 172.604 283.509 173.366 282.981C174.128 282.454 175.235 282.19 176.688 282.19H177.603V281.689C177.603 280.816 177.225 280.38 176.469 280.38C175.766 280.38 175.414 280.726 175.414 281.417H172.452C172.452 280.497 172.842 279.75 173.621 279.176C174.406 278.602 175.405 278.314 176.618 278.314C177.831 278.314 178.789 278.61 179.492 279.202C180.195 279.794 180.556 280.605 180.573 281.637V285.847C180.585 286.72 180.72 287.388 180.978 287.851V288H178.016ZM176.161 286.066C176.53 286.066 176.835 285.987 177.075 285.829C177.321 285.671 177.497 285.492 177.603 285.293V283.772H176.741C175.71 283.772 175.194 284.235 175.194 285.161C175.194 285.431 175.285 285.65 175.467 285.82C175.648 285.984 175.88 286.066 176.161 286.066ZM185.882 283.852L187.464 278.49H190.637L186.761 289.591L186.594 289.995C186.043 291.226 185.07 291.841 183.676 291.841C183.289 291.841 182.882 291.782 182.454 291.665V289.547H182.841C183.257 289.547 183.573 289.485 183.79 289.362C184.013 289.245 184.177 289.031 184.282 288.721L184.52 288.088L181.215 278.49H184.379L185.882 283.852Z" fill="white"/>
<g id="day1BuyBT">
<rect id="RectangleDay1BuyBT" x="14" y="189" width="219" height="44" rx="7" fill="#6BB8FF"/>
<path id="Buy:" d="M69.6113 221V199.672H77.2725C80.0166 199.672 82.1016 200.175 83.5273 201.181C84.9629 202.187 85.6807 203.646 85.6807 205.561C85.6807 206.664 85.4268 207.606 84.9189 208.388C84.4111 209.169 83.6641 209.745 82.6777 210.116C83.791 210.409 84.6455 210.956 85.2412 211.757C85.8369 212.558 86.1348 213.534 86.1348 214.687C86.1348 216.776 85.4707 218.349 84.1426 219.403C82.8242 220.448 80.8662 220.98 78.2686 221H69.6113ZM74.7529 211.933V217.045H78.1221C79.0498 217.045 79.7627 216.835 80.2607 216.415C80.7588 215.985 81.0078 215.385 81.0078 214.613C81.0078 212.836 80.124 211.942 78.3564 211.933H74.7529ZM74.7529 208.563H77.4336C78.5566 208.554 79.3574 208.349 79.8359 207.948C80.3145 207.548 80.5537 206.957 80.5537 206.176C80.5537 205.277 80.2949 204.633 79.7773 204.242C79.2598 203.842 78.4248 203.642 77.2725 203.642H74.7529V208.563ZM98.1904 219.286C97.1455 220.624 95.7344 221.293 93.957 221.293C92.2188 221.293 90.9004 220.79 90.002 219.784C89.1133 218.769 88.6689 217.313 88.6689 215.419V205.15H93.6055V215.448C93.6055 216.806 94.2646 217.484 95.583 217.484C96.7158 217.484 97.5215 217.079 98 216.269V205.15H102.966V221H98.3369L98.1904 219.286ZM112.019 214.086L114.655 205.15H119.943L113.483 223.651L113.205 224.325C112.287 226.376 110.666 227.401 108.342 227.401C107.697 227.401 107.019 227.304 106.306 227.108V223.578H106.95C107.644 223.578 108.171 223.476 108.532 223.271C108.903 223.075 109.177 222.719 109.353 222.201L109.748 221.146L104.24 205.15H109.514L112.019 214.086ZM124.309 216.21C125.09 216.21 125.739 216.444 126.257 216.913C126.774 217.372 127.033 217.963 127.033 218.686C127.033 219.408 126.774 220.004 126.257 220.473C125.739 220.932 125.09 221.161 124.309 221.161C123.518 221.161 122.863 220.927 122.346 220.458C121.838 219.989 121.584 219.398 121.584 218.686C121.584 217.973 121.838 217.382 122.346 216.913C122.863 216.444 123.518 216.21 124.309 216.21ZM124.309 204.521C125.09 204.521 125.739 204.755 126.257 205.224C126.774 205.683 127.033 206.273 127.033 206.996C127.033 207.719 126.774 208.314 126.257 208.783C125.739 209.242 125.09 209.472 124.309 209.472C123.518 209.472 122.863 209.237 122.346 208.769C121.838 208.3 121.584 207.709 121.584 206.996C121.584 206.283 121.838 205.692 122.346 205.224C122.863 204.755 123.518 204.521 124.309 204.521Z" fill="white"/>
</g>
<g id="Group 16">
<circle id="Ellipse 3" cx="47" cy="211" r="11" stroke="white" stroke-width="2"/>
<line id="Line 5" x1="41" y1="211" x2="53" y2="211" stroke="white" stroke-width="2" stroke-linecap="round"/>
<line id="Line 7" x1="47" y1="205" x2="47" y2="218" stroke="white" stroke-width="2" stroke-linecap="round"/>
</g>
<path id="After day 2" d="M22.3672 32.3633H17.7441L16.8652 35H14.0615L18.8252 22.2031H21.2686L26.0586 35H23.2549L22.3672 32.3633ZM18.4561 30.2275H21.6553L20.0469 25.4375L18.4561 30.2275ZM27.7812 35V27.3535H26.3662V25.4902H27.7812V24.6816C27.7812 23.6152 28.0859 22.7891 28.6953 22.2031C29.3105 21.6113 30.1689 21.3154 31.2705 21.3154C31.6221 21.3154 32.0527 21.374 32.5625 21.4912L32.5361 23.46C32.3252 23.4072 32.0674 23.3809 31.7627 23.3809C30.8076 23.3809 30.3301 23.8291 30.3301 24.7256V25.4902H32.2197V27.3535H30.3301V35H27.7812ZM36.5791 23.1523V25.4902H38.2051V27.3535H36.5791V32.0996C36.5791 32.4512 36.6465 32.7031 36.7812 32.8555C36.916 33.0078 37.1738 33.084 37.5547 33.084C37.8359 33.084 38.085 33.0635 38.3018 33.0225V34.9473C37.8037 35.0996 37.291 35.1758 36.7637 35.1758C34.9824 35.1758 34.0742 34.2764 34.0391 32.4775V27.3535H32.6504V25.4902H34.0391V23.1523H36.5791ZM43.9971 35.1758C42.6025 35.1758 41.4658 34.748 40.5869 33.8926C39.7139 33.0371 39.2773 31.8975 39.2773 30.4736V30.2275C39.2773 29.2725 39.4619 28.4199 39.8311 27.6699C40.2002 26.9141 40.7217 26.334 41.3955 25.9297C42.0752 25.5195 42.8486 25.3145 43.7158 25.3145C45.0166 25.3145 46.0391 25.7246 46.7832 26.5449C47.5332 27.3652 47.9082 28.5283 47.9082 30.0342V31.0713H41.8525C41.9346 31.6924 42.1807 32.1904 42.5908 32.5654C43.0068 32.9404 43.5312 33.1279 44.1641 33.1279C45.1426 33.1279 45.9072 32.7734 46.458 32.0645L47.7061 33.4619C47.3252 34.001 46.8096 34.4229 46.1592 34.7275C45.5088 35.0264 44.7881 35.1758 43.9971 35.1758ZM43.707 27.3711C43.2031 27.3711 42.793 27.541 42.4766 27.8809C42.166 28.2207 41.9668 28.707 41.8789 29.3398H45.4121V29.1377C45.4004 28.5752 45.248 28.1416 44.9551 27.8369C44.6621 27.5264 44.2461 27.3711 43.707 27.3711ZM54.7021 27.8721C54.3564 27.8252 54.0518 27.8018 53.7881 27.8018C52.8271 27.8018 52.1973 28.127 51.8984 28.7773V35H49.3584V25.4902H51.7578L51.8281 26.624C52.3379 25.751 53.0439 25.3145 53.9463 25.3145C54.2275 25.3145 54.4912 25.3525 54.7373 25.4287L54.7021 27.8721ZM60.0195 30.1748C60.0195 28.6924 60.3506 27.5117 61.0127 26.6328C61.6807 25.7539 62.5918 25.3145 63.7461 25.3145C64.6719 25.3145 65.4365 25.6602 66.04 26.3516V21.5H68.5889V35H66.2949L66.1719 33.9893C65.5391 34.7803 64.7246 35.1758 63.7285 35.1758C62.6094 35.1758 61.71 34.7363 61.0303 33.8574C60.3564 32.9727 60.0195 31.7451 60.0195 30.1748ZM62.5596 30.3594C62.5596 31.25 62.7148 31.9326 63.0254 32.4072C63.3359 32.8818 63.7871 33.1191 64.3789 33.1191C65.1641 33.1191 65.7178 32.7881 66.04 32.126V28.373C65.7236 27.7109 65.1758 27.3799 64.3965 27.3799C63.1719 27.3799 62.5596 28.373 62.5596 30.3594ZM76.0684 35C75.9512 34.7715 75.8662 34.4873 75.8135 34.1475C75.1982 34.833 74.3984 35.1758 73.4141 35.1758C72.4824 35.1758 71.709 34.9062 71.0938 34.3672C70.4844 33.8281 70.1797 33.1484 70.1797 32.3281C70.1797 31.3203 70.5518 30.5469 71.2959 30.0078C72.0459 29.4688 73.127 29.1963 74.5391 29.1904H75.708V28.6455C75.708 28.2061 75.5938 27.8545 75.3652 27.5908C75.1426 27.3271 74.7881 27.1953 74.3018 27.1953C73.874 27.1953 73.5371 27.2979 73.291 27.5029C73.0508 27.708 72.9307 27.9893 72.9307 28.3467H70.3906C70.3906 27.7959 70.5605 27.2861 70.9004 26.8174C71.2402 26.3486 71.7207 25.9824 72.3418 25.7188C72.9629 25.4492 73.6602 25.3145 74.4336 25.3145C75.6055 25.3145 76.5342 25.6104 77.2197 26.2021C77.9111 26.7881 78.2568 27.6143 78.2568 28.6807V32.8027C78.2627 33.7051 78.3887 34.3877 78.6348 34.8506V35H76.0684ZM73.9678 33.2334C74.3428 33.2334 74.6885 33.1514 75.0049 32.9873C75.3213 32.8174 75.5557 32.5918 75.708 32.3105V30.6758H74.7588C73.4873 30.6758 72.8105 31.1152 72.7285 31.9941L72.7197 32.1436C72.7197 32.46 72.8311 32.7207 73.0537 32.9258C73.2764 33.1309 73.5811 33.2334 73.9678 33.2334ZM83.6182 31.4053L85.376 25.4902H88.1006L84.2773 36.4766L84.0664 36.9775C83.498 38.2197 82.5605 38.8408 81.2539 38.8408C80.8848 38.8408 80.5098 38.7852 80.1289 38.6738V36.749L80.5156 36.7578C80.9961 36.7578 81.3535 36.6846 81.5879 36.5381C81.8281 36.3916 82.0156 36.1484 82.1504 35.8086L82.4492 35.0264L79.1182 25.4902H81.8516L83.6182 31.4053ZM102.251 35H93.4795V33.2598L97.6191 28.8477C98.1875 28.2266 98.6064 27.6846 98.876 27.2217C99.1514 26.7588 99.2891 26.3193 99.2891 25.9033C99.2891 25.335 99.1455 24.8896 98.8584 24.5674C98.5713 24.2393 98.1611 24.0752 97.6279 24.0752C97.0537 24.0752 96.5996 24.2744 96.2656 24.6729C95.9375 25.0654 95.7734 25.584 95.7734 26.2285H93.2246C93.2246 25.4492 93.4092 24.7373 93.7783 24.0928C94.1533 23.4482 94.6807 22.9443 95.3604 22.5811C96.04 22.2119 96.8105 22.0273 97.6719 22.0273C98.9902 22.0273 100.013 22.3438 100.739 22.9766C101.472 23.6094 101.838 24.5029 101.838 25.6572C101.838 26.29 101.674 26.9346 101.346 27.5908C101.018 28.2471 100.455 29.0117 99.6582 29.8848L96.749 32.9521H102.251V35Z" fill="black"/>
<rect id="D2InputPlaceHolder" x="135" y="193" width="86" height="30" fill="#6BB8FF"/>
<path id="You have $ in the market" d="M24.8911 67.3979L27.3032 62.7578H28.687L25.5005 68.5532V72H24.2817V68.5532L21.0952 62.7578H22.4917L24.8911 67.3979ZM28.9663 68.5024C28.9663 67.8296 29.0975 67.2244 29.3599 66.687C29.6265 66.1496 29.9946 65.7349 30.4644 65.4429C30.9383 65.1509 31.4779 65.0049 32.083 65.0049C33.0182 65.0049 33.7736 65.3286 34.3491 65.9761C34.9289 66.6235 35.2188 67.4847 35.2188 68.5596V68.6421C35.2188 69.3107 35.0897 69.9116 34.8315 70.4448C34.5776 70.9738 34.2116 71.3864 33.7334 71.6826C33.2594 71.9788 32.7135 72.127 32.0957 72.127C31.1647 72.127 30.4093 71.8032 29.8296 71.1558C29.2541 70.5083 28.9663 69.6514 28.9663 68.585V68.5024ZM30.147 68.6421C30.147 69.4038 30.3226 70.0153 30.6738 70.4766C31.0293 70.9378 31.5033 71.1685 32.0957 71.1685C32.6924 71.1685 33.1663 70.9357 33.5176 70.4702C33.8688 70.0005 34.0444 69.3446 34.0444 68.5024C34.0444 67.7492 33.8646 67.1398 33.5049 66.6743C33.1494 66.2046 32.6755 65.9697 32.083 65.9697C31.5033 65.9697 31.0356 66.2004 30.6802 66.6616C30.3247 67.1229 30.147 67.783 30.147 68.6421ZM40.9316 71.3208C40.4746 71.8582 39.8039 72.127 38.9194 72.127C38.1873 72.127 37.6287 71.9154 37.2437 71.4922C36.8628 71.0648 36.6702 70.4342 36.666 69.6006V65.1318H37.8403V69.5688C37.8403 70.6099 38.2635 71.1304 39.1099 71.1304C40.007 71.1304 40.6037 70.7961 40.8999 70.1274V65.1318H42.0742V72H40.957L40.9316 71.3208ZM48.2632 65.9634C48.7837 65.3244 49.4608 65.0049 50.2944 65.0049C51.7459 65.0049 52.478 65.8237 52.4907 67.4614V72H51.3164V67.4551C51.3122 66.96 51.1979 66.5939 50.9736 66.3569C50.7536 66.12 50.4087 66.0015 49.939 66.0015C49.5581 66.0015 49.2238 66.103 48.936 66.3062C48.6483 66.5093 48.424 66.7759 48.2632 67.106V72H47.0889V62.25H48.2632V65.9634ZM58.4893 72C58.4215 71.8646 58.3665 71.6234 58.3242 71.2764C57.7783 71.8434 57.1266 72.127 56.3691 72.127C55.6921 72.127 55.1356 71.9365 54.6997 71.5557C54.2681 71.1706 54.0522 70.6839 54.0522 70.0957C54.0522 69.3805 54.3231 68.8262 54.8647 68.4326C55.4106 68.0348 56.1766 67.8359 57.1626 67.8359H58.3052V67.2964C58.3052 66.8859 58.1825 66.5601 57.937 66.3188C57.6916 66.0734 57.3298 65.9507 56.8516 65.9507C56.4326 65.9507 56.0814 66.0565 55.7979 66.2681C55.5143 66.4797 55.3726 66.7357 55.3726 67.0361H54.1919C54.1919 66.6934 54.3125 66.3633 54.5537 66.0459C54.7992 65.7243 55.1292 65.4704 55.5439 65.2842C55.9629 65.098 56.422 65.0049 56.9214 65.0049C57.7127 65.0049 58.3327 65.2038 58.7812 65.6016C59.2298 65.9951 59.4626 66.5389 59.4795 67.2329V70.394C59.4795 71.0246 59.5599 71.526 59.7207 71.8984V72H58.4893ZM56.5405 71.105C56.9087 71.105 57.2578 71.0098 57.5879 70.8193C57.918 70.6289 58.1571 70.3813 58.3052 70.0767V68.6675H57.3848C55.946 68.6675 55.2266 69.0885 55.2266 69.9307C55.2266 70.2988 55.3493 70.5866 55.5947 70.7939C55.8402 71.0013 56.1554 71.105 56.5405 71.105ZM63.4849 70.4067L65.186 65.1318H66.3857L63.9229 72H63.0278L60.5396 65.1318H61.7393L63.4849 70.4067ZM70.2769 72.127C69.3459 72.127 68.5884 71.8223 68.0044 71.2129C67.4204 70.5993 67.1284 69.7804 67.1284 68.7563V68.5405C67.1284 67.8592 67.2575 67.252 67.5156 66.7188C67.778 66.1813 68.1419 65.7624 68.6074 65.4619C69.0771 65.1572 69.585 65.0049 70.1309 65.0049C71.0238 65.0049 71.7178 65.299 72.2129 65.8872C72.708 66.4754 72.9556 67.3175 72.9556 68.4136V68.9023H68.3027C68.3197 69.5794 68.5164 70.1274 68.8931 70.5464C69.2739 70.9611 69.7563 71.1685 70.3403 71.1685C70.755 71.1685 71.1063 71.0838 71.394 70.9146C71.6818 70.7453 71.9336 70.521 72.1494 70.2417L72.8667 70.8003C72.2912 71.6847 71.4279 72.127 70.2769 72.127ZM70.1309 65.9697C69.6569 65.9697 69.2591 66.1432 68.9375 66.4902C68.6159 66.833 68.417 67.3154 68.3408 67.9375H71.7812V67.8486C71.7474 67.252 71.5866 66.7907 71.2988 66.4648C71.0111 66.1348 70.6217 65.9697 70.1309 65.9697ZM82.0898 69.6196C82.0898 69.2303 81.9523 68.9023 81.6772 68.6357C81.4064 68.3691 80.9473 68.1279 80.2998 67.9121C79.3984 67.637 78.7404 67.2795 78.3257 66.8394C77.9152 66.395 77.71 65.8322 77.71 65.1509C77.71 64.4569 77.911 63.8877 78.313 63.4434C78.7192 62.999 79.2757 62.7345 79.9824 62.6499V61.2598H80.9282V62.6562C81.6392 62.7536 82.1914 63.0519 82.585 63.5513C82.9827 64.0506 83.1816 64.734 83.1816 65.6016H82.0137C82.0137 65.0049 81.8719 64.5309 81.5884 64.1797C81.3049 63.8285 80.9219 63.6528 80.4395 63.6528C79.9359 63.6528 79.5508 63.784 79.2842 64.0464C79.0176 64.3045 78.8843 64.6663 78.8843 65.1318C78.8843 65.5635 79.0239 65.9084 79.3032 66.1665C79.5868 66.4204 80.0501 66.6532 80.6934 66.8647C81.3408 67.0721 81.8444 67.3027 82.2041 67.5566C82.568 67.8063 82.8346 68.0983 83.0039 68.4326C83.1774 68.7669 83.2642 69.1584 83.2642 69.6069C83.2642 70.3221 83.0483 70.8976 82.6167 71.3335C82.1893 71.7694 81.5884 72.0275 80.814 72.1079V73.3203H79.8745V72.1079C79.0874 72.036 78.4696 71.7567 78.021 71.27C77.5767 70.7791 77.3545 70.1147 77.3545 69.2769H78.5288C78.5288 69.8651 78.6833 70.3179 78.9922 70.6353C79.3011 70.9526 79.7391 71.1113 80.3062 71.1113C80.8605 71.1113 81.2964 70.978 81.6138 70.7114C81.9312 70.4448 82.0898 70.0809 82.0898 69.6196ZM118.367 72H117.192V65.1318H118.367V72ZM117.097 63.3101C117.097 63.1196 117.154 62.9588 117.269 62.8276C117.387 62.6965 117.561 62.6309 117.789 62.6309C118.018 62.6309 118.191 62.6965 118.31 62.8276C118.428 62.9588 118.487 63.1196 118.487 63.3101C118.487 63.5005 118.428 63.6592 118.31 63.7861C118.191 63.9131 118.018 63.9766 117.789 63.9766C117.561 63.9766 117.387 63.9131 117.269 63.7861C117.154 63.6592 117.097 63.5005 117.097 63.3101ZM121.363 65.1318L121.401 65.9951C121.926 65.335 122.611 65.0049 123.458 65.0049C124.909 65.0049 125.641 65.8237 125.654 67.4614V72H124.479V67.4551C124.475 66.96 124.361 66.5939 124.137 66.3569C123.917 66.12 123.572 66.0015 123.102 66.0015C122.721 66.0015 122.387 66.103 122.099 66.3062C121.811 66.5093 121.587 66.7759 121.426 67.106V72H120.252V65.1318H121.363ZM132.243 63.4688V65.1318H133.525V66.0396H132.243V70.2988C132.243 70.5739 132.3 70.7812 132.414 70.9209C132.528 71.0563 132.723 71.124 132.998 71.124C133.133 71.124 133.32 71.0986 133.557 71.0479V72C133.248 72.0846 132.947 72.127 132.655 72.127C132.131 72.127 131.735 71.9683 131.468 71.6509C131.202 71.3335 131.068 70.8828 131.068 70.2988V66.0396H129.818V65.1318H131.068V63.4688H132.243ZM136.077 65.9634C136.597 65.3244 137.274 65.0049 138.108 65.0049C139.559 65.0049 140.292 65.8237 140.304 67.4614V72H139.13V67.4551C139.126 66.96 139.011 66.5939 138.787 66.3569C138.567 66.12 138.222 66.0015 137.752 66.0015C137.372 66.0015 137.037 66.103 136.75 66.3062C136.462 66.5093 136.237 66.7759 136.077 67.106V72H134.902V62.25H136.077V65.9634ZM144.913 72.127C143.982 72.127 143.224 71.8223 142.64 71.2129C142.056 70.5993 141.764 69.7804 141.764 68.7563V68.5405C141.764 67.8592 141.893 67.252 142.151 66.7188C142.414 66.1813 142.778 65.7624 143.243 65.4619C143.713 65.1572 144.221 65.0049 144.767 65.0049C145.66 65.0049 146.354 65.299 146.849 65.8872C147.344 66.4754 147.591 67.3175 147.591 68.4136V68.9023H142.938C142.955 69.5794 143.152 70.1274 143.529 70.5464C143.91 70.9611 144.392 71.1685 144.976 71.1685C145.391 71.1685 145.742 71.0838 146.03 70.9146C146.318 70.7453 146.569 70.521 146.785 70.2417L147.502 70.8003C146.927 71.6847 146.064 72.127 144.913 72.127ZM144.767 65.9697C144.293 65.9697 143.895 66.1432 143.573 66.4902C143.252 66.833 143.053 67.3154 142.977 67.9375H146.417V67.8486C146.383 67.252 146.222 66.7907 145.935 66.4648C145.647 66.1348 145.257 65.9697 144.767 65.9697ZM153.285 65.1318L153.317 65.8936C153.82 65.3011 154.5 65.0049 155.354 65.0049C156.315 65.0049 156.969 65.373 157.316 66.1094C157.544 65.7793 157.841 65.5127 158.205 65.3096C158.573 65.1064 159.007 65.0049 159.506 65.0049C161.012 65.0049 161.778 65.8026 161.804 67.3979V72H160.629V67.4678C160.629 66.9769 160.517 66.6108 160.293 66.3696C160.069 66.1242 159.692 66.0015 159.163 66.0015C158.727 66.0015 158.365 66.1326 158.078 66.395C157.79 66.6532 157.623 67.0023 157.576 67.4424V72H156.396V67.4995C156.396 66.5008 155.907 66.0015 154.929 66.0015C154.159 66.0015 153.632 66.3294 153.349 66.9854V72H152.174V65.1318H153.285ZM167.821 72C167.754 71.8646 167.699 71.6234 167.656 71.2764C167.11 71.8434 166.459 72.127 165.701 72.127C165.024 72.127 164.468 71.9365 164.032 71.5557C163.6 71.1706 163.384 70.6839 163.384 70.0957C163.384 69.3805 163.655 68.8262 164.197 68.4326C164.743 68.0348 165.509 67.8359 166.495 67.8359H167.637V67.2964C167.637 66.8859 167.514 66.5601 167.269 66.3188C167.024 66.0734 166.662 65.9507 166.184 65.9507C165.765 65.9507 165.413 66.0565 165.13 66.2681C164.846 66.4797 164.705 66.7357 164.705 67.0361H163.524C163.524 66.6934 163.645 66.3633 163.886 66.0459C164.131 65.7243 164.461 65.4704 164.876 65.2842C165.295 65.098 165.754 65.0049 166.253 65.0049C167.045 65.0049 167.665 65.2038 168.113 65.6016C168.562 65.9951 168.795 66.5389 168.812 67.2329V70.394C168.812 71.0246 168.892 71.526 169.053 71.8984V72H167.821ZM165.873 71.105C166.241 71.105 166.59 71.0098 166.92 70.8193C167.25 70.6289 167.489 70.3813 167.637 70.0767V68.6675H166.717C165.278 68.6675 164.559 69.0885 164.559 69.9307C164.559 70.2988 164.681 70.5866 164.927 70.7939C165.172 71.0013 165.487 71.105 165.873 71.105ZM173.972 66.1855C173.794 66.1559 173.602 66.1411 173.395 66.1411C172.624 66.1411 172.102 66.4691 171.827 67.125V72H170.652V65.1318H171.795L171.814 65.9253C172.199 65.3117 172.745 65.0049 173.452 65.0049C173.68 65.0049 173.854 65.0345 173.972 65.0938V66.1855ZM176.975 68.8198L176.238 69.5879V72H175.064V62.25H176.238V68.147L176.867 67.3916L179.006 65.1318H180.434L177.762 68.001L180.745 72H179.368L176.975 68.8198ZM184.37 72.127C183.439 72.127 182.681 71.8223 182.097 71.2129C181.513 70.5993 181.221 69.7804 181.221 68.7563V68.5405C181.221 67.8592 181.35 67.252 181.608 66.7188C181.871 66.1813 182.235 65.7624 182.7 65.4619C183.17 65.1572 183.678 65.0049 184.224 65.0049C185.117 65.0049 185.811 65.299 186.306 65.8872C186.801 66.4754 187.048 67.3175 187.048 68.4136V68.9023H182.396C182.412 69.5794 182.609 70.1274 182.986 70.5464C183.367 70.9611 183.849 71.1685 184.433 71.1685C184.848 71.1685 185.199 71.0838 185.487 70.9146C185.775 70.7453 186.026 70.521 186.242 70.2417L186.959 70.8003C186.384 71.6847 185.521 72.127 184.37 72.127ZM184.224 65.9697C183.75 65.9697 183.352 66.1432 183.03 66.4902C182.709 66.833 182.51 67.3154 182.434 67.9375H185.874V67.8486C185.84 67.252 185.679 66.7907 185.392 66.4648C185.104 66.1348 184.715 65.9697 184.224 65.9697ZM190.006 63.4688V65.1318H191.289V66.0396H190.006V70.2988C190.006 70.5739 190.063 70.7812 190.178 70.9209C190.292 71.0563 190.487 71.124 190.762 71.124C190.897 71.124 191.083 71.0986 191.32 71.0479V72C191.011 72.0846 190.711 72.127 190.419 72.127C189.894 72.127 189.499 71.9683 189.232 71.6509C188.965 71.3335 188.832 70.8828 188.832 70.2988V66.0396H187.582V65.1318H188.832V63.4688H190.006Z" fill="black"/>
<path id="and $ virtual cash available to invest." d="M26.1289 130C26.0612 129.865 26.0062 129.623 25.9639 129.276C25.418 129.843 24.7663 130.127 24.0088 130.127C23.3317 130.127 22.7752 129.937 22.3394 129.556C21.9077 129.171 21.6919 128.684 21.6919 128.096C21.6919 127.381 21.9627 126.826 22.5044 126.433C23.0503 126.035 23.8162 125.836 24.8022 125.836H25.9448V125.296C25.9448 124.886 25.8221 124.56 25.5767 124.319C25.3312 124.073 24.9694 123.951 24.4912 123.951C24.0723 123.951 23.721 124.056 23.4375 124.268C23.154 124.48 23.0122 124.736 23.0122 125.036H21.8315C21.8315 124.693 21.9521 124.363 22.1934 124.046C22.4388 123.724 22.7689 123.47 23.1836 123.284C23.6025 123.098 24.0617 123.005 24.561 123.005C25.3524 123.005 25.9723 123.204 26.4209 123.602C26.8695 123.995 27.1022 124.539 27.1191 125.233V128.394C27.1191 129.025 27.1995 129.526 27.3604 129.898V130H26.1289ZM24.1802 129.105C24.5483 129.105 24.8975 129.01 25.2275 128.819C25.5576 128.629 25.7967 128.381 25.9448 128.077V126.667H25.0244C23.5856 126.667 22.8662 127.089 22.8662 127.931C22.8662 128.299 22.9889 128.587 23.2344 128.794C23.4798 129.001 23.7951 129.105 24.1802 129.105ZM30.0708 123.132L30.1089 123.995C30.6336 123.335 31.3192 123.005 32.1655 123.005C33.617 123.005 34.3491 123.824 34.3618 125.461V130H33.1875V125.455C33.1833 124.96 33.069 124.594 32.8447 124.357C32.6247 124.12 32.2798 124.001 31.8101 124.001C31.4292 124.001 31.0949 124.103 30.8071 124.306C30.5194 124.509 30.2951 124.776 30.1343 125.106V130H28.96V123.132H30.0708ZM35.8472 126.509C35.8472 125.455 36.0968 124.609 36.5962 123.97C37.0955 123.326 37.7493 123.005 38.5576 123.005C39.3617 123.005 39.9985 123.28 40.4683 123.83V120.25H41.6426V130H40.5635L40.5063 129.264C40.0366 129.839 39.3828 130.127 38.5449 130.127C37.7493 130.127 37.0998 129.801 36.5962 129.149C36.0968 128.498 35.8472 127.647 35.8472 126.598V126.509ZM37.0215 126.642C37.0215 127.421 37.1823 128.03 37.5039 128.47C37.8255 128.91 38.2699 129.13 38.8369 129.13C39.5817 129.13 40.1255 128.796 40.4683 128.127V124.973C40.117 124.325 39.5775 124.001 38.8496 124.001C38.2741 124.001 37.8255 124.224 37.5039 124.668C37.1823 125.112 37.0215 125.77 37.0215 126.642ZM54.4648 127.62C54.4648 127.23 54.3273 126.902 54.0522 126.636C53.7814 126.369 53.3223 126.128 52.6748 125.912C51.7734 125.637 51.1154 125.279 50.7007 124.839C50.2902 124.395 50.085 123.832 50.085 123.151C50.085 122.457 50.286 121.888 50.688 121.443C51.0942 120.999 51.6507 120.735 52.3574 120.65V119.26H53.3032V120.656C54.0142 120.754 54.5664 121.052 54.96 121.551C55.3577 122.051 55.5566 122.734 55.5566 123.602H54.3887C54.3887 123.005 54.2469 122.531 53.9634 122.18C53.6799 121.828 53.2969 121.653 52.8145 121.653C52.3109 121.653 51.9258 121.784 51.6592 122.046C51.3926 122.305 51.2593 122.666 51.2593 123.132C51.2593 123.563 51.3989 123.908 51.6782 124.167C51.9618 124.42 52.4251 124.653 53.0684 124.865C53.7158 125.072 54.2194 125.303 54.5791 125.557C54.943 125.806 55.2096 126.098 55.3789 126.433C55.5524 126.767 55.6392 127.158 55.6392 127.607C55.6392 128.322 55.4233 128.898 54.9917 129.333C54.5643 129.769 53.9634 130.028 53.189 130.108V131.32H52.2495V130.108C51.4624 130.036 50.8446 129.757 50.396 129.27C49.9517 128.779 49.7295 128.115 49.7295 127.277H50.9038C50.9038 127.865 51.0583 128.318 51.3672 128.635C51.6761 128.953 52.1141 129.111 52.6812 129.111C53.2355 129.111 53.6714 128.978 53.9888 128.711C54.3062 128.445 54.4648 128.081 54.4648 127.62ZM94.9565 128.407L96.6577 123.132H97.8574L95.3945 130H94.4995L92.0112 123.132H93.2109L94.9565 128.407ZM100.263 130H99.0889V123.132H100.263V130ZM98.9937 121.31C98.9937 121.12 99.0508 120.959 99.165 120.828C99.2835 120.696 99.457 120.631 99.6855 120.631C99.9141 120.631 100.088 120.696 100.206 120.828C100.325 120.959 100.384 121.12 100.384 121.31C100.384 121.5 100.325 121.659 100.206 121.786C100.088 121.913 99.9141 121.977 99.6855 121.977C99.457 121.977 99.2835 121.913 99.165 121.786C99.0508 121.659 98.9937 121.5 98.9937 121.31ZM105.468 124.186C105.291 124.156 105.098 124.141 104.891 124.141C104.12 124.141 103.598 124.469 103.323 125.125V130H102.148V123.132H103.291L103.31 123.925C103.695 123.312 104.241 123.005 104.948 123.005C105.176 123.005 105.35 123.035 105.468 123.094V124.186ZM108.464 121.469V123.132H109.747V124.04H108.464V128.299C108.464 128.574 108.521 128.781 108.636 128.921C108.75 129.056 108.945 129.124 109.22 129.124C109.355 129.124 109.541 129.099 109.778 129.048V130C109.469 130.085 109.169 130.127 108.877 130.127C108.352 130.127 107.957 129.968 107.69 129.651C107.423 129.333 107.29 128.883 107.29 128.299V124.04H106.04V123.132H107.29V121.469H108.464ZM115.364 129.321C114.907 129.858 114.236 130.127 113.352 130.127C112.62 130.127 112.061 129.915 111.676 129.492C111.295 129.065 111.103 128.434 111.099 127.601V123.132H112.273V127.569C112.273 128.61 112.696 129.13 113.542 129.13C114.44 129.13 115.036 128.796 115.333 128.127V123.132H116.507V130H115.39L115.364 129.321ZM122.537 130C122.469 129.865 122.414 129.623 122.372 129.276C121.826 129.843 121.174 130.127 120.417 130.127C119.74 130.127 119.183 129.937 118.748 129.556C118.316 129.171 118.1 128.684 118.1 128.096C118.1 127.381 118.371 126.826 118.913 126.433C119.458 126.035 120.224 125.836 121.21 125.836H122.353V125.296C122.353 124.886 122.23 124.56 121.985 124.319C121.739 124.073 121.378 123.951 120.899 123.951C120.48 123.951 120.129 124.056 119.846 124.268C119.562 124.48 119.42 124.736 119.42 125.036H118.24C118.24 124.693 118.36 124.363 118.602 124.046C118.847 123.724 119.177 123.47 119.592 123.284C120.011 123.098 120.47 123.005 120.969 123.005C121.761 123.005 122.381 123.204 122.829 123.602C123.278 123.995 123.51 124.539 123.527 125.233V128.394C123.527 129.025 123.608 129.526 123.769 129.898V130H122.537ZM120.588 129.105C120.957 129.105 121.306 129.01 121.636 128.819C121.966 128.629 122.205 128.381 122.353 128.077V126.667H121.433C119.994 126.667 119.274 127.089 119.274 127.931C119.274 128.299 119.397 128.587 119.643 128.794C119.888 129.001 120.203 129.105 120.588 129.105ZM126.644 130H125.47V120.25H126.644V130ZM134.509 129.168C134.928 129.168 135.294 129.042 135.607 128.788C135.92 128.534 136.094 128.216 136.127 127.835H137.238C137.217 128.229 137.082 128.604 136.832 128.959C136.582 129.314 136.248 129.598 135.829 129.81C135.414 130.021 134.974 130.127 134.509 130.127C133.574 130.127 132.829 129.816 132.274 129.194C131.724 128.568 131.449 127.713 131.449 126.629V126.433C131.449 125.764 131.572 125.169 131.817 124.649C132.063 124.128 132.414 123.724 132.871 123.437C133.332 123.149 133.876 123.005 134.502 123.005C135.273 123.005 135.912 123.236 136.419 123.697C136.931 124.158 137.204 124.757 137.238 125.493H136.127C136.094 125.049 135.924 124.685 135.62 124.401C135.319 124.114 134.947 123.97 134.502 123.97C133.906 123.97 133.442 124.186 133.112 124.617C132.786 125.045 132.624 125.665 132.624 126.477V126.699C132.624 127.491 132.786 128.1 133.112 128.527C133.438 128.955 133.904 129.168 134.509 129.168ZM142.799 130C142.731 129.865 142.676 129.623 142.634 129.276C142.088 129.843 141.436 130.127 140.679 130.127C140.002 130.127 139.445 129.937 139.009 129.556C138.578 129.171 138.362 128.684 138.362 128.096C138.362 127.381 138.633 126.826 139.174 126.433C139.72 126.035 140.486 125.836 141.472 125.836H142.615V125.296C142.615 124.886 142.492 124.56 142.247 124.319C142.001 124.073 141.639 123.951 141.161 123.951C140.742 123.951 140.391 124.056 140.107 124.268C139.824 124.48 139.682 124.736 139.682 125.036H138.501C138.501 124.693 138.622 124.363 138.863 124.046C139.109 123.724 139.439 123.47 139.854 123.284C140.272 123.098 140.732 123.005 141.231 123.005C142.022 123.005 142.642 123.204 143.091 123.602C143.539 123.995 143.772 124.539 143.789 125.233V128.394C143.789 129.025 143.869 129.526 144.03 129.898V130H142.799ZM140.85 129.105C141.218 129.105 141.567 129.01 141.897 128.819C142.228 128.629 142.467 128.381 142.615 128.077V126.667H141.694C140.256 126.667 139.536 127.089 139.536 127.931C139.536 128.299 139.659 128.587 139.904 128.794C140.15 129.001 140.465 129.105 140.85 129.105ZM149.629 128.178C149.629 127.861 149.508 127.615 149.267 127.442C149.03 127.264 148.613 127.112 148.017 126.985C147.424 126.858 146.952 126.706 146.601 126.528C146.254 126.35 145.996 126.139 145.827 125.893C145.662 125.648 145.579 125.356 145.579 125.017C145.579 124.454 145.816 123.978 146.29 123.589C146.768 123.2 147.378 123.005 148.118 123.005C148.897 123.005 149.527 123.206 150.01 123.608C150.496 124.01 150.74 124.524 150.74 125.15H149.559C149.559 124.829 149.422 124.552 149.146 124.319C148.876 124.086 148.533 123.97 148.118 123.97C147.691 123.97 147.356 124.063 147.115 124.249C146.874 124.435 146.753 124.679 146.753 124.979C146.753 125.263 146.866 125.476 147.09 125.62C147.314 125.764 147.718 125.902 148.302 126.033C148.89 126.164 149.367 126.32 149.73 126.502C150.094 126.684 150.363 126.904 150.537 127.163C150.714 127.417 150.803 127.728 150.803 128.096C150.803 128.709 150.558 129.202 150.067 129.575C149.576 129.943 148.939 130.127 148.156 130.127C147.606 130.127 147.119 130.03 146.696 129.835C146.273 129.64 145.941 129.369 145.7 129.022C145.463 128.671 145.344 128.292 145.344 127.886H146.519C146.54 128.28 146.696 128.593 146.988 128.826C147.285 129.054 147.674 129.168 148.156 129.168C148.601 129.168 148.956 129.08 149.223 128.902C149.493 128.72 149.629 128.479 149.629 128.178ZM153.507 123.963C154.028 123.324 154.705 123.005 155.539 123.005C156.99 123.005 157.722 123.824 157.735 125.461V130H156.561V125.455C156.556 124.96 156.442 124.594 156.218 124.357C155.998 124.12 155.653 124.001 155.183 124.001C154.802 124.001 154.468 124.103 154.18 124.306C153.892 124.509 153.668 124.776 153.507 125.106V130H152.333V120.25H153.507V123.963ZM166.958 130C166.89 129.865 166.835 129.623 166.793 129.276C166.247 129.843 165.595 130.127 164.838 130.127C164.161 130.127 163.604 129.937 163.168 129.556C162.737 129.171 162.521 128.684 162.521 128.096C162.521 127.381 162.792 126.826 163.333 126.433C163.879 126.035 164.645 125.836 165.631 125.836H166.774V125.296C166.774 124.886 166.651 124.56 166.406 124.319C166.16 124.073 165.799 123.951 165.32 123.951C164.901 123.951 164.55 124.056 164.267 124.268C163.983 124.48 163.841 124.736 163.841 125.036H162.661C162.661 124.693 162.781 124.363 163.022 124.046C163.268 123.724 163.598 123.47 164.013 123.284C164.432 123.098 164.891 123.005 165.39 123.005C166.181 123.005 166.801 123.204 167.25 123.602C167.699 123.995 167.931 124.539 167.948 125.233V128.394C167.948 129.025 168.029 129.526 168.189 129.898V130H166.958ZM165.009 129.105C165.377 129.105 165.727 129.01 166.057 128.819C166.387 128.629 166.626 128.381 166.774 128.077V126.667H165.854C164.415 126.667 163.695 127.089 163.695 127.931C163.695 128.299 163.818 128.587 164.063 128.794C164.309 129.001 164.624 129.105 165.009 129.105ZM171.954 128.407L173.655 123.132H174.854L172.392 130H171.497L169.008 123.132H170.208L171.954 128.407ZM180.123 130C180.055 129.865 180 129.623 179.958 129.276C179.412 129.843 178.76 130.127 178.003 130.127C177.326 130.127 176.769 129.937 176.333 129.556C175.902 129.171 175.686 128.684 175.686 128.096C175.686 127.381 175.957 126.826 176.499 126.433C177.044 126.035 177.81 125.836 178.796 125.836H179.939V125.296C179.939 124.886 179.816 124.56 179.571 124.319C179.325 124.073 178.964 123.951 178.485 123.951C178.066 123.951 177.715 124.056 177.432 124.268C177.148 124.48 177.006 124.736 177.006 125.036H175.826C175.826 124.693 175.946 124.363 176.188 124.046C176.433 123.724 176.763 123.47 177.178 123.284C177.597 123.098 178.056 123.005 178.555 123.005C179.347 123.005 179.966 123.204 180.415 123.602C180.864 123.995 181.096 124.539 181.113 125.233V128.394C181.113 129.025 181.194 129.526 181.354 129.898V130H180.123ZM178.174 129.105C178.542 129.105 178.892 129.01 179.222 128.819C179.552 128.629 179.791 128.381 179.939 128.077V126.667H179.019C177.58 126.667 176.86 127.089 176.86 127.931C176.86 128.299 176.983 128.587 177.229 128.794C177.474 129.001 177.789 129.105 178.174 129.105ZM184.23 130H183.056V123.132H184.23V130ZM182.96 121.31C182.96 121.12 183.018 120.959 183.132 120.828C183.25 120.696 183.424 120.631 183.652 120.631C183.881 120.631 184.054 120.696 184.173 120.828C184.291 120.959 184.351 121.12 184.351 121.31C184.351 121.5 184.291 121.659 184.173 121.786C184.054 121.913 183.881 121.977 183.652 121.977C183.424 121.977 183.25 121.913 183.132 121.786C183.018 121.659 182.96 121.5 182.96 121.31ZM187.391 130H186.217V120.25H187.391V130ZM193.517 130C193.449 129.865 193.394 129.623 193.352 129.276C192.806 129.843 192.154 130.127 191.396 130.127C190.719 130.127 190.163 129.937 189.727 129.556C189.295 129.171 189.08 128.684 189.08 128.096C189.08 127.381 189.35 126.826 189.892 126.433C190.438 126.035 191.204 125.836 192.19 125.836H193.333V125.296C193.333 124.886 193.21 124.56 192.964 124.319C192.719 124.073 192.357 123.951 191.879 123.951C191.46 123.951 191.109 124.056 190.825 124.268C190.542 124.48 190.4 124.736 190.4 125.036H189.219C189.219 124.693 189.34 124.363 189.581 124.046C189.826 123.724 190.157 123.47 190.571 123.284C190.99 123.098 191.449 123.005 191.949 123.005C192.74 123.005 193.36 123.204 193.809 123.602C194.257 123.995 194.49 124.539 194.507 125.233V128.394C194.507 129.025 194.587 129.526 194.748 129.898V130H193.517ZM191.568 129.105C191.936 129.105 192.285 129.01 192.615 128.819C192.945 128.629 193.184 128.381 193.333 128.077V126.667H192.412C190.973 126.667 190.254 127.089 190.254 127.931C190.254 128.299 190.377 128.587 190.622 128.794C190.868 129.001 191.183 129.105 191.568 129.105ZM202.162 126.642C202.162 127.692 201.921 128.536 201.438 129.175C200.956 129.81 200.309 130.127 199.496 130.127C198.629 130.127 197.958 129.82 197.484 129.207L197.427 130H196.348V120.25H197.522V123.887C197.996 123.299 198.65 123.005 199.483 123.005C200.317 123.005 200.971 123.32 201.445 123.951C201.923 124.581 202.162 125.444 202.162 126.541V126.642ZM200.988 126.509C200.988 125.709 200.833 125.091 200.524 124.655C200.215 124.219 199.771 124.001 199.191 124.001C198.417 124.001 197.861 124.361 197.522 125.081V128.051C197.882 128.771 198.442 129.13 199.204 129.13C199.767 129.13 200.205 128.912 200.518 128.477C200.831 128.041 200.988 127.385 200.988 126.509ZM204.923 130H203.749V120.25H204.923V130ZM209.659 130.127C208.728 130.127 207.97 129.822 207.386 129.213C206.802 128.599 206.51 127.78 206.51 126.756V126.541C206.51 125.859 206.639 125.252 206.897 124.719C207.16 124.181 207.524 123.762 207.989 123.462C208.459 123.157 208.967 123.005 209.513 123.005C210.406 123.005 211.1 123.299 211.595 123.887C212.09 124.475 212.337 125.318 212.337 126.414V126.902H207.685C207.701 127.579 207.898 128.127 208.275 128.546C208.656 128.961 209.138 129.168 209.722 129.168C210.137 129.168 210.488 129.084 210.776 128.915C211.064 128.745 211.315 128.521 211.531 128.242L212.249 128.8C211.673 129.685 210.81 130.127 209.659 130.127ZM209.513 123.97C209.039 123.97 208.641 124.143 208.319 124.49C207.998 124.833 207.799 125.315 207.723 125.938H211.163V125.849C211.129 125.252 210.968 124.791 210.681 124.465C210.393 124.135 210.004 123.97 209.513 123.97ZM218.52 121.469V123.132H219.802V124.04H218.52V128.299C218.52 128.574 218.577 128.781 218.691 128.921C218.806 129.056 219 129.124 219.275 129.124C219.411 129.124 219.597 129.099 219.834 129.048V130C219.525 130.085 219.225 130.127 218.933 130.127C218.408 130.127 218.012 129.968 217.746 129.651C217.479 129.333 217.346 128.883 217.346 128.299V124.04H216.095V123.132H217.346V121.469H218.52ZM220.742 126.502C220.742 125.83 220.873 125.224 221.135 124.687C221.402 124.15 221.77 123.735 222.24 123.443C222.714 123.151 223.253 123.005 223.858 123.005C224.794 123.005 225.549 123.329 226.125 123.976C226.704 124.624 226.994 125.485 226.994 126.56V126.642C226.994 127.311 226.865 127.912 226.607 128.445C226.353 128.974 225.987 129.386 225.509 129.683C225.035 129.979 224.489 130.127 223.871 130.127C222.94 130.127 222.185 129.803 221.605 129.156C221.029 128.508 220.742 127.651 220.742 126.585V126.502ZM221.922 126.642C221.922 127.404 222.098 128.015 222.449 128.477C222.805 128.938 223.279 129.168 223.871 129.168C224.468 129.168 224.942 128.936 225.293 128.47C225.644 128 225.82 127.345 225.82 126.502C225.82 125.749 225.64 125.14 225.28 124.674C224.925 124.205 224.451 123.97 223.858 123.97C223.279 123.97 222.811 124.2 222.456 124.662C222.1 125.123 221.922 125.783 221.922 126.642ZM23.1646 145H21.9902V138.132H23.1646V145ZM21.895 136.31C21.895 136.12 21.9521 135.959 22.0664 135.828C22.1849 135.696 22.3584 135.631 22.5869 135.631C22.8154 135.631 22.9889 135.696 23.1074 135.828C23.2259 135.959 23.2852 136.12 23.2852 136.31C23.2852 136.5 23.2259 136.659 23.1074 136.786C22.9889 136.913 22.8154 136.977 22.5869 136.977C22.3584 136.977 22.1849 136.913 22.0664 136.786C21.9521 136.659 21.895 136.5 21.895 136.31ZM26.1606 138.132L26.1987 138.995C26.7235 138.335 27.409 138.005 28.2554 138.005C29.7069 138.005 30.439 138.824 30.4517 140.461V145H29.2773V140.455C29.2731 139.96 29.1589 139.594 28.9346 139.357C28.7145 139.12 28.3696 139.001 27.8999 139.001C27.519 139.001 27.1847 139.103 26.897 139.306C26.6092 139.509 26.3849 139.776 26.2241 140.106V145H25.0498V138.132H26.1606ZM34.4888 143.407L36.1899 138.132H37.3896L34.9268 145H34.0317L31.5435 138.132H32.7432L34.4888 143.407ZM41.2808 145.127C40.3498 145.127 39.5923 144.822 39.0083 144.213C38.4243 143.599 38.1323 142.78 38.1323 141.756V141.541C38.1323 140.859 38.2614 140.252 38.5195 139.719C38.7819 139.181 39.1458 138.762 39.6113 138.462C40.0811 138.157 40.5889 138.005 41.1348 138.005C42.0277 138.005 42.7217 138.299 43.2168 138.887C43.7119 139.475 43.9595 140.318 43.9595 141.414V141.902H39.3066C39.3236 142.579 39.5203 143.127 39.897 143.546C40.2778 143.961 40.7603 144.168 41.3442 144.168C41.759 144.168 42.1102 144.084 42.3979 143.915C42.6857 143.745 42.9375 143.521 43.1533 143.242L43.8706 143.8C43.2951 144.685 42.4318 145.127 41.2808 145.127ZM41.1348 138.97C40.6608 138.97 40.263 139.143 39.9414 139.49C39.6198 139.833 39.4209 140.315 39.3447 140.938H42.7852V140.849C42.7513 140.252 42.5905 139.791 42.3027 139.465C42.015 139.135 41.6257 138.97 41.1348 138.97ZM49.3232 143.178C49.3232 142.861 49.2026 142.615 48.9614 142.442C48.7244 142.264 48.3076 142.112 47.7109 141.985C47.1185 141.858 46.6466 141.706 46.2954 141.528C45.9484 141.35 45.6903 141.139 45.521 140.893C45.356 140.648 45.2734 140.356 45.2734 140.017C45.2734 139.454 45.5104 138.978 45.9844 138.589C46.4626 138.2 47.0719 138.005 47.8125 138.005C48.5911 138.005 49.2217 138.206 49.7041 138.608C50.1908 139.01 50.4341 139.524 50.4341 140.15H49.2534C49.2534 139.829 49.1159 139.552 48.8408 139.319C48.57 139.086 48.2272 138.97 47.8125 138.97C47.3851 138.97 47.0508 139.063 46.8096 139.249C46.5684 139.435 46.4478 139.679 46.4478 139.979C46.4478 140.263 46.5599 140.476 46.7842 140.62C47.0085 140.764 47.4126 140.902 47.9966 141.033C48.5848 141.164 49.0609 141.32 49.4248 141.502C49.7887 141.684 50.0575 141.904 50.231 142.163C50.4087 142.417 50.4976 142.728 50.4976 143.096C50.4976 143.709 50.2521 144.202 49.7612 144.575C49.2703 144.943 48.6335 145.127 47.8506 145.127C47.3005 145.127 46.8138 145.03 46.3906 144.835C45.9674 144.64 45.6353 144.369 45.394 144.022C45.1571 143.671 45.0386 143.292 45.0386 142.886H46.2129C46.234 143.28 46.3906 143.593 46.6826 143.826C46.9788 144.054 47.3682 144.168 47.8506 144.168C48.2949 144.168 48.6504 144.08 48.917 143.902C49.1878 143.72 49.3232 143.479 49.3232 143.178ZM53.6206 136.469V138.132H54.9028V139.04H53.6206V143.299C53.6206 143.574 53.6777 143.781 53.792 143.921C53.9062 144.056 54.1009 144.124 54.376 144.124C54.5114 144.124 54.6976 144.099 54.9346 144.048V145C54.6257 145.085 54.3252 145.127 54.0332 145.127C53.5085 145.127 53.1128 144.968 52.8462 144.651C52.5796 144.333 52.4463 143.883 52.4463 143.299V139.04H51.1958V138.132H52.4463V136.469H53.6206ZM56.3057 144.384C56.3057 144.181 56.3649 144.012 56.4834 143.876C56.6061 143.741 56.7881 143.673 57.0293 143.673C57.2705 143.673 57.4525 143.741 57.5752 143.876C57.7021 144.012 57.7656 144.181 57.7656 144.384C57.7656 144.579 57.7021 144.742 57.5752 144.873C57.4525 145.004 57.2705 145.07 57.0293 145.07C56.7881 145.07 56.6061 145.004 56.4834 144.873C56.3649 144.742 56.3057 144.579 56.3057 144.384Z" fill="black"/>
<rect id="cash" x="59" y="118" width="22" height="16" fill="white"/>
<rect id="inMarket" x="85" y="59" width="22" height="16" fill="white"/>
</g>
</svg>
