<svg width="249" height="373" viewBox="0 0 249 373" fill="none" xmlns="http://www.w3.org/2000/svg">
<rect x="1.5" y="1.5" width="246" height="370" fill="white" stroke="#E5E5E5" stroke-width="3"/>
<rect x="14.5" y="117.5" width="104" height="55" rx="8.5" fill="#6BB8FF" stroke="white"/>
<rect x="131.5" y="117.5" width="101" height="55" rx="8.5" fill="#6BB8FF" stroke="white"/>
<rect x="14.5" y="182.5" width="218" height="55" rx="8.5" fill="#6BB8FF" stroke="white"/>
<path d="M54.6113 156V134.672H62.2725C65.0166 134.672 67.1016 135.175 68.5273 136.181C69.9629 137.187 70.6807 138.646 70.6807 140.561C70.6807 141.664 70.4268 142.606 69.9189 143.388C69.4111 144.169 68.6641 144.745 67.6777 145.116C68.791 145.409 69.6455 145.956 70.2412 146.757C70.8369 147.558 71.1348 148.534 71.1348 149.687C71.1348 151.776 70.4707 153.349 69.1426 154.403C67.8242 155.448 65.8662 155.98 63.2686 156H54.6113ZM59.7529 146.933V152.045H63.1221C64.0498 152.045 64.7627 151.835 65.2607 151.415C65.7588 150.985 66.0078 150.385 66.0078 149.613C66.0078 147.836 65.124 146.942 63.3564 146.933H59.7529ZM59.7529 143.563H62.4336C63.5566 143.554 64.3574 143.349 64.8359 142.948C65.3145 142.548 65.5537 141.957 65.5537 141.176C65.5537 140.277 65.2949 139.633 64.7773 139.242C64.2598 138.842 63.4248 138.642 62.2725 138.642H59.7529V143.563ZM83.1904 154.286C82.1455 155.624 80.7344 156.293 78.957 156.293C77.2188 156.293 75.9004 155.79 75.002 154.784C74.1133 153.769 73.6689 152.313 73.6689 150.419V140.15H78.6055V150.448C78.6055 151.806 79.2646 152.484 80.583 152.484C81.7158 152.484 82.5215 152.079 83 151.269V140.15H87.9658V156H83.3369L83.1904 154.286ZM97.0186 149.086L99.6553 140.15H104.943L98.4834 158.651L98.2051 159.325C97.2871 161.376 95.666 162.401 93.3418 162.401C92.6973 162.401 92.0186 162.304 91.3057 162.108V158.578H91.9502C92.6436 158.578 93.1709 158.476 93.5322 158.271C93.9033 158.075 94.1768 157.719 94.3525 157.201L94.748 156.146L89.2402 140.15H94.5137L97.0186 149.086Z" fill="white"/>
<path d="M181.612 150.331C181.612 149.579 181.344 148.993 180.807 148.573C180.279 148.153 179.347 147.719 178.009 147.27C176.671 146.82 175.577 146.386 174.728 145.966C171.964 144.608 170.582 142.743 170.582 140.37C170.582 139.188 170.924 138.148 171.607 137.25C172.301 136.342 173.277 135.639 174.537 135.141C175.797 134.633 177.213 134.379 178.785 134.379C180.318 134.379 181.69 134.652 182.901 135.199C184.122 135.746 185.069 136.527 185.743 137.543C186.417 138.549 186.754 139.701 186.754 141H181.627C181.627 140.131 181.358 139.457 180.821 138.979C180.294 138.5 179.576 138.261 178.668 138.261C177.75 138.261 177.022 138.466 176.485 138.876C175.958 139.276 175.694 139.789 175.694 140.414C175.694 140.961 175.987 141.459 176.573 141.908C177.159 142.348 178.189 142.807 179.664 143.285C181.139 143.754 182.35 144.262 183.297 144.809C185.602 146.137 186.754 147.968 186.754 150.302C186.754 152.167 186.051 153.632 184.645 154.696C183.238 155.761 181.31 156.293 178.858 156.293C177.13 156.293 175.562 155.985 174.156 155.37C172.76 154.745 171.705 153.896 170.992 152.821C170.289 151.737 169.938 150.492 169.938 149.086H175.094C175.094 150.229 175.387 151.073 175.973 151.62C176.568 152.157 177.53 152.426 178.858 152.426C179.708 152.426 180.377 152.245 180.865 151.884C181.363 151.513 181.612 150.995 181.612 150.331ZM196.832 156.293C194.4 156.293 192.433 155.57 190.929 154.125C189.425 152.67 188.673 150.78 188.673 148.456V148.046C188.673 146.425 188.971 144.994 189.566 143.754C190.172 142.514 191.051 141.557 192.203 140.883C193.355 140.199 194.723 139.857 196.305 139.857C198.531 139.857 200.289 140.551 201.578 141.938C202.867 143.314 203.512 145.238 203.512 147.709V149.628H193.697C193.873 150.517 194.259 151.215 194.854 151.723C195.45 152.23 196.222 152.484 197.169 152.484C198.731 152.484 199.952 151.938 200.831 150.844L203.087 153.51C202.472 154.359 201.598 155.038 200.465 155.546C199.342 156.044 198.131 156.293 196.832 156.293ZM196.275 143.666C194.83 143.666 193.971 144.623 193.697 146.537H198.678V146.156C198.697 145.365 198.497 144.755 198.077 144.325C197.657 143.886 197.057 143.666 196.275 143.666ZM210.719 156H205.768V133.5H210.719V156ZM218.98 156H214.029V133.5H218.98V156Z" fill="white"/>
<path d="M47.1377 195.585H43.2969V206H40.2119V195.585H36.4414V193.203H47.1377V195.585ZM52.1914 206C52.0859 205.807 51.9922 205.522 51.9102 205.147C51.3652 205.833 50.6035 206.176 49.625 206.176C48.7285 206.176 47.9668 205.906 47.3398 205.367C46.7129 204.822 46.3994 204.14 46.3994 203.319C46.3994 202.288 46.7803 201.509 47.542 200.981C48.3037 200.454 49.4111 200.19 50.8643 200.19H51.7783V199.689C51.7783 198.816 51.4004 198.38 50.6445 198.38C49.9414 198.38 49.5898 198.726 49.5898 199.417H46.6279C46.6279 198.497 47.0176 197.75 47.7969 197.176C48.582 196.602 49.5811 196.314 50.7939 196.314C52.0068 196.314 52.9648 196.61 53.668 197.202C54.3711 197.794 54.7314 198.605 54.749 199.637V203.847C54.7607 204.72 54.8955 205.388 55.1533 205.851V206H52.1914ZM50.3369 204.066C50.7061 204.066 51.0107 203.987 51.251 203.829C51.4971 203.671 51.6729 203.492 51.7783 203.293V201.772H50.917C49.8857 201.772 49.3701 202.235 49.3701 203.161C49.3701 203.431 49.4609 203.65 49.6426 203.82C49.8242 203.984 50.0557 204.066 50.3369 204.066ZM60.2158 202.458L59.3809 203.293V206H56.4189V192.491H59.3809V199.663L59.6797 199.268L61.9121 196.49H65.4629L62.1318 200.401L65.6826 206H62.29L60.2158 202.458ZM70.666 206.176C69.207 206.176 68.0264 205.742 67.124 204.875C66.2217 204.002 65.7705 202.868 65.7705 201.474V201.228C65.7705 200.255 65.9492 199.396 66.3066 198.652C66.6699 197.908 67.1973 197.334 67.8887 196.93C68.5801 196.52 69.4004 196.314 70.3496 196.314C71.6855 196.314 72.7402 196.73 73.5137 197.562C74.2871 198.389 74.6738 199.543 74.6738 201.025V202.177H68.7852C68.8906 202.71 69.1221 203.129 69.4795 203.434C69.8369 203.738 70.2998 203.891 70.8682 203.891C71.8057 203.891 72.5381 203.562 73.0654 202.906L74.4189 204.506C74.0498 205.016 73.5254 205.423 72.8457 205.728C72.1719 206.026 71.4453 206.176 70.666 206.176ZM70.332 198.6C69.4648 198.6 68.9492 199.174 68.7852 200.322H71.7734V200.094C71.7852 199.619 71.665 199.253 71.4131 198.995C71.1611 198.731 70.8008 198.6 70.332 198.6ZM83.0762 196.49L83.1729 197.606C83.8291 196.745 84.7344 196.314 85.8887 196.314C86.8789 196.314 87.6172 196.61 88.1035 197.202C88.5957 197.794 88.8506 198.685 88.8682 199.874V206H85.8975V199.997C85.8975 199.517 85.8008 199.165 85.6074 198.942C85.4141 198.714 85.0625 198.6 84.5527 198.6C83.9727 198.6 83.542 198.828 83.2607 199.285V206H80.2988V196.49H83.0762ZM90.1426 201.157C90.1426 200.208 90.3271 199.364 90.6963 198.626C91.0654 197.882 91.5957 197.311 92.2871 196.912C92.9785 196.514 93.79 196.314 94.7217 196.314C96.1455 196.314 97.2676 196.757 98.0879 197.642C98.9082 198.521 99.3184 199.719 99.3184 201.236V201.342C99.3184 202.824 98.9053 204.002 98.0791 204.875C97.2588 205.742 96.1455 206.176 94.7393 206.176C93.3857 206.176 92.2988 205.771 91.4785 204.963C90.6582 204.148 90.2158 203.047 90.1514 201.658L90.1426 201.157ZM93.1045 201.342C93.1045 202.221 93.2422 202.865 93.5176 203.275C93.793 203.686 94.2002 203.891 94.7393 203.891C95.7939 203.891 96.333 203.079 96.3564 201.456V201.157C96.3564 199.452 95.8115 198.6 94.7217 198.6C93.7314 198.6 93.1953 199.335 93.1133 200.806L93.1045 201.342ZM110.463 206C110.357 205.807 110.264 205.522 110.182 205.147C109.637 205.833 108.875 206.176 107.896 206.176C107 206.176 106.238 205.906 105.611 205.367C104.984 204.822 104.671 204.14 104.671 203.319C104.671 202.288 105.052 201.509 105.813 200.981C106.575 200.454 107.683 200.19 109.136 200.19H110.05V199.689C110.05 198.816 109.672 198.38 108.916 198.38C108.213 198.38 107.861 198.726 107.861 199.417H104.899C104.899 198.497 105.289 197.75 106.068 197.176C106.854 196.602 107.853 196.314 109.065 196.314C110.278 196.314 111.236 196.61 111.939 197.202C112.643 197.794 113.003 198.605 113.021 199.637V203.847C113.032 204.72 113.167 205.388 113.425 205.851V206H110.463ZM108.608 204.066C108.978 204.066 109.282 203.987 109.522 203.829C109.769 203.671 109.944 203.492 110.05 203.293V201.772H109.188C108.157 201.772 107.642 202.235 107.642 203.161C107.642 203.431 107.732 203.65 107.914 203.82C108.096 203.984 108.327 204.066 108.608 204.066ZM118.689 203.891C119.105 203.891 119.428 203.779 119.656 203.557C119.885 203.328 119.996 203.012 119.99 202.607H122.768C122.768 203.65 122.393 204.506 121.643 205.174C120.898 205.842 119.938 206.176 118.76 206.176C117.377 206.176 116.287 205.742 115.49 204.875C114.693 204.008 114.295 202.807 114.295 201.271V201.148C114.295 200.188 114.471 199.341 114.822 198.608C115.18 197.87 115.692 197.305 116.36 196.912C117.028 196.514 117.819 196.314 118.733 196.314C119.97 196.314 120.951 196.657 121.678 197.343C122.404 198.028 122.768 198.957 122.768 200.129H119.99C119.99 199.637 119.87 199.259 119.63 198.995C119.39 198.731 119.067 198.6 118.663 198.6C117.896 198.6 117.447 199.089 117.318 200.067C117.277 200.378 117.257 200.806 117.257 201.351C117.257 202.306 117.371 202.968 117.6 203.337C117.828 203.706 118.191 203.891 118.689 203.891ZM127.47 194.126V196.49H129.034V198.547H127.47V202.897C127.47 203.255 127.534 203.504 127.663 203.645C127.792 203.785 128.047 203.855 128.428 203.855C128.721 203.855 128.967 203.838 129.166 203.803V205.921C128.633 206.091 128.076 206.176 127.496 206.176C126.477 206.176 125.724 205.936 125.237 205.455C124.751 204.975 124.508 204.245 124.508 203.267V198.547H123.295V196.49H124.508V194.126H127.47ZM133.332 206H130.361V196.49H133.332V206ZM130.186 194.038C130.186 193.616 130.338 193.271 130.643 193.001C130.947 192.731 131.343 192.597 131.829 192.597C132.315 192.597 132.711 192.731 133.016 193.001C133.32 193.271 133.473 193.616 133.473 194.038C133.473 194.46 133.32 194.806 133.016 195.075C132.711 195.345 132.315 195.479 131.829 195.479C131.343 195.479 130.947 195.345 130.643 195.075C130.338 194.806 130.186 194.46 130.186 194.038ZM134.791 201.157C134.791 200.208 134.976 199.364 135.345 198.626C135.714 197.882 136.244 197.311 136.936 196.912C137.627 196.514 138.438 196.314 139.37 196.314C140.794 196.314 141.916 196.757 142.736 197.642C143.557 198.521 143.967 199.719 143.967 201.236V201.342C143.967 202.824 143.554 204.002 142.728 204.875C141.907 205.742 140.794 206.176 139.388 206.176C138.034 206.176 136.947 205.771 136.127 204.963C135.307 204.148 134.864 203.047 134.8 201.658L134.791 201.157ZM137.753 201.342C137.753 202.221 137.891 202.865 138.166 203.275C138.441 203.686 138.849 203.891 139.388 203.891C140.442 203.891 140.981 203.079 141.005 201.456V201.157C141.005 199.452 140.46 198.6 139.37 198.6C138.38 198.6 137.844 199.335 137.762 200.806L137.753 201.342ZM147.992 196.49L148.089 197.606C148.745 196.745 149.65 196.314 150.805 196.314C151.795 196.314 152.533 196.61 153.02 197.202C153.512 197.794 153.767 198.685 153.784 199.874V206H150.813V199.997C150.813 199.517 150.717 199.165 150.523 198.942C150.33 198.714 149.979 198.6 149.469 198.6C148.889 198.6 148.458 198.828 148.177 199.285V206H145.215V196.49H147.992ZM165.271 206C165.166 205.807 165.072 205.522 164.99 205.147C164.445 205.833 163.684 206.176 162.705 206.176C161.809 206.176 161.047 205.906 160.42 205.367C159.793 204.822 159.479 204.14 159.479 203.319C159.479 202.288 159.86 201.509 160.622 200.981C161.384 200.454 162.491 200.19 163.944 200.19H164.858V199.689C164.858 198.816 164.48 198.38 163.725 198.38C163.021 198.38 162.67 198.726 162.67 199.417H159.708C159.708 198.497 160.098 197.75 160.877 197.176C161.662 196.602 162.661 196.314 163.874 196.314C165.087 196.314 166.045 196.61 166.748 197.202C167.451 197.794 167.812 198.605 167.829 199.637V203.847C167.841 204.72 167.976 205.388 168.233 205.851V206H165.271ZM163.417 204.066C163.786 204.066 164.091 203.987 164.331 203.829C164.577 203.671 164.753 203.492 164.858 203.293V201.772H163.997C162.966 201.772 162.45 202.235 162.45 203.161C162.45 203.431 162.541 203.65 162.723 203.82C162.904 203.984 163.136 204.066 163.417 204.066ZM172.197 196.49L172.294 197.606C172.95 196.745 173.855 196.314 175.01 196.314C176 196.314 176.738 196.61 177.225 197.202C177.717 197.794 177.972 198.685 177.989 199.874V206H175.019V199.997C175.019 199.517 174.922 199.165 174.729 198.942C174.535 198.714 174.184 198.6 173.674 198.6C173.094 198.6 172.663 198.828 172.382 199.285V206H169.42V196.49H172.197ZM179.264 201.175C179.264 199.669 179.589 198.482 180.239 197.615C180.89 196.748 181.798 196.314 182.964 196.314C183.813 196.314 184.528 196.648 185.108 197.316V192.5H188.079V206H185.416L185.267 204.98C184.657 205.777 183.884 206.176 182.946 206.176C181.815 206.176 180.919 205.742 180.257 204.875C179.595 204.008 179.264 202.774 179.264 201.175ZM182.226 201.359C182.226 203.047 182.718 203.891 183.702 203.891C184.358 203.891 184.827 203.615 185.108 203.064V199.443C184.839 198.881 184.376 198.6 183.72 198.6C182.806 198.6 182.311 199.338 182.234 200.814L182.226 201.359ZM193.897 201.175C193.897 200.214 194.056 199.364 194.372 198.626C194.688 197.888 195.143 197.319 195.734 196.921C196.326 196.517 197.015 196.314 197.8 196.314C198.79 196.314 199.563 196.648 200.12 197.316L200.226 196.49H202.915V205.64C202.915 206.478 202.719 207.204 202.326 207.819C201.939 208.44 201.377 208.915 200.639 209.243C199.9 209.577 199.045 209.744 198.072 209.744C197.375 209.744 196.698 209.612 196.042 209.349C195.392 209.085 194.894 208.742 194.548 208.32L195.787 206.58C196.338 207.23 197.064 207.556 197.967 207.556C199.279 207.556 199.936 206.882 199.936 205.534V205.235C199.367 205.862 198.649 206.176 197.782 206.176C196.622 206.176 195.685 205.733 194.97 204.849C194.255 203.958 193.897 202.769 193.897 201.28V201.175ZM196.868 201.359C196.868 202.139 197.015 202.757 197.308 203.214C197.601 203.665 198.011 203.891 198.538 203.891C199.177 203.891 199.643 203.677 199.936 203.249V199.25C199.648 198.816 199.188 198.6 198.556 198.6C198.028 198.6 197.615 198.837 197.316 199.312C197.018 199.78 196.868 200.463 196.868 201.359ZM204.225 201.157C204.225 200.208 204.409 199.364 204.778 198.626C205.147 197.882 205.678 197.311 206.369 196.912C207.061 196.514 207.872 196.314 208.804 196.314C210.228 196.314 211.35 196.757 212.17 197.642C212.99 198.521 213.4 199.719 213.4 201.236V201.342C213.4 202.824 212.987 204.002 212.161 204.875C211.341 205.742 210.228 206.176 208.821 206.176C207.468 206.176 206.381 205.771 205.561 204.963C204.74 204.148 204.298 203.047 204.233 201.658L204.225 201.157ZM207.187 201.342C207.187 202.221 207.324 202.865 207.6 203.275C207.875 203.686 208.282 203.891 208.821 203.891C209.876 203.891 210.415 203.079 210.438 201.456V201.157C210.438 199.452 209.894 198.6 208.804 198.6C207.813 198.6 207.277 199.335 207.195 200.806L207.187 201.342ZM53.4395 215.126V217.49H55.0039V219.547H53.4395V223.897C53.4395 224.255 53.5039 224.504 53.6328 224.645C53.7617 224.785 54.0166 224.855 54.3975 224.855C54.6904 224.855 54.9365 224.838 55.1357 224.803V226.921C54.6025 227.091 54.0459 227.176 53.4658 227.176C52.4463 227.176 51.6934 226.936 51.207 226.455C50.7207 225.975 50.4775 225.245 50.4775 224.267V219.547H49.2646V217.49H50.4775V215.126H53.4395ZM55.54 222.157C55.54 221.208 55.7246 220.364 56.0938 219.626C56.4629 218.882 56.9932 218.311 57.6846 217.912C58.376 217.514 59.1875 217.314 60.1191 217.314C61.543 217.314 62.665 217.757 63.4854 218.642C64.3057 219.521 64.7158 220.719 64.7158 222.236V222.342C64.7158 223.824 64.3027 225.002 63.4766 225.875C62.6562 226.742 61.543 227.176 60.1367 227.176C58.7832 227.176 57.6963 226.771 56.876 225.963C56.0557 225.148 55.6133 224.047 55.5488 222.658L55.54 222.157ZM58.502 222.342C58.502 223.221 58.6396 223.865 58.915 224.275C59.1904 224.686 59.5977 224.891 60.1367 224.891C61.1914 224.891 61.7305 224.079 61.7539 222.456V222.157C61.7539 220.452 61.209 219.6 60.1191 219.6C59.1289 219.6 58.5928 220.335 58.5107 221.806L58.502 222.342ZM73.2236 217.49L73.3203 218.606C73.9766 217.745 74.8818 217.314 76.0361 217.314C77.0264 217.314 77.7646 217.61 78.251 218.202C78.7432 218.794 78.998 219.685 79.0156 220.874V227H76.0449V220.997C76.0449 220.517 75.9482 220.165 75.7549 219.942C75.5615 219.714 75.21 219.6 74.7002 219.6C74.1201 219.6 73.6895 219.828 73.4082 220.285V227H70.4463V217.49H73.2236ZM85.2646 227.176C83.8057 227.176 82.625 226.742 81.7227 225.875C80.8203 225.002 80.3691 223.868 80.3691 222.474V222.228C80.3691 221.255 80.5479 220.396 80.9053 219.652C81.2686 218.908 81.7959 218.334 82.4873 217.93C83.1787 217.52 83.999 217.314 84.9482 217.314C86.2842 217.314 87.3389 217.73 88.1123 218.562C88.8857 219.389 89.2725 220.543 89.2725 222.025V223.177H83.3838C83.4893 223.71 83.7207 224.129 84.0781 224.434C84.4355 224.738 84.8984 224.891 85.4668 224.891C86.4043 224.891 87.1367 224.562 87.6641 223.906L89.0176 225.506C88.6484 226.016 88.124 226.423 87.4443 226.728C86.7705 227.026 86.0439 227.176 85.2646 227.176ZM84.9307 219.6C84.0635 219.6 83.5479 220.174 83.3838 221.322H86.3721V221.094C86.3838 220.619 86.2637 220.253 86.0117 219.995C85.7598 219.731 85.3994 219.6 84.9307 219.6ZM94.3262 220.109L95.7061 217.49H98.7822L96.2773 222.122L98.9053 227H95.8115L94.3174 224.188L92.8496 227H89.7383L92.375 222.122L89.8789 217.49H92.9902L94.3262 220.109ZM103.186 215.126V217.49H104.75V219.547H103.186V223.897C103.186 224.255 103.25 224.504 103.379 224.645C103.508 224.785 103.763 224.855 104.144 224.855C104.437 224.855 104.683 224.838 104.882 224.803V226.921C104.349 227.091 103.792 227.176 103.212 227.176C102.192 227.176 101.439 226.936 100.953 226.455C100.467 225.975 100.224 225.245 100.224 224.267V219.547H99.0107V217.49H100.224V215.126H103.186ZM113.855 215.126V217.49H115.42V219.547H113.855V223.897C113.855 224.255 113.92 224.504 114.049 224.645C114.178 224.785 114.433 224.855 114.813 224.855C115.106 224.855 115.353 224.838 115.552 224.803V226.921C115.019 227.091 114.462 227.176 113.882 227.176C112.862 227.176 112.109 226.936 111.623 226.455C111.137 225.975 110.894 225.245 110.894 224.267V219.547H109.681V217.49H110.894V215.126H113.855ZM122.346 220.171L121.37 220.101C120.438 220.101 119.841 220.394 119.577 220.979V227H116.615V217.49H119.393L119.489 218.712C119.987 217.78 120.682 217.314 121.572 217.314C121.889 217.314 122.164 217.35 122.398 217.42L122.346 220.171ZM128.507 227C128.401 226.807 128.308 226.522 128.226 226.147C127.681 226.833 126.919 227.176 125.94 227.176C125.044 227.176 124.282 226.906 123.655 226.367C123.028 225.822 122.715 225.14 122.715 224.319C122.715 223.288 123.096 222.509 123.857 221.981C124.619 221.454 125.727 221.19 127.18 221.19H128.094V220.689C128.094 219.816 127.716 219.38 126.96 219.38C126.257 219.38 125.905 219.726 125.905 220.417H122.943C122.943 219.497 123.333 218.75 124.112 218.176C124.897 217.602 125.896 217.314 127.109 217.314C128.322 217.314 129.28 217.61 129.983 218.202C130.687 218.794 131.047 219.605 131.064 220.637V224.847C131.076 225.72 131.211 226.388 131.469 226.851V227H128.507ZM126.652 225.066C127.021 225.066 127.326 224.987 127.566 224.829C127.812 224.671 127.988 224.492 128.094 224.293V222.772H127.232C126.201 222.772 125.686 223.235 125.686 224.161C125.686 224.431 125.776 224.65 125.958 224.82C126.14 224.984 126.371 225.066 126.652 225.066ZM132.339 222.175C132.339 220.669 132.664 219.482 133.314 218.615C133.965 217.748 134.873 217.314 136.039 217.314C136.889 217.314 137.604 217.648 138.184 218.316V213.5H141.154V227H138.491L138.342 225.98C137.732 226.777 136.959 227.176 136.021 227.176C134.891 227.176 133.994 226.742 133.332 225.875C132.67 225.008 132.339 223.774 132.339 222.175ZM135.301 222.359C135.301 224.047 135.793 224.891 136.777 224.891C137.434 224.891 137.902 224.615 138.184 224.064V220.443C137.914 219.881 137.451 219.6 136.795 219.6C135.881 219.6 135.386 220.338 135.31 221.814L135.301 222.359ZM145.962 227H142.991V217.49H145.962V227ZM142.815 215.038C142.815 214.616 142.968 214.271 143.272 214.001C143.577 213.731 143.973 213.597 144.459 213.597C144.945 213.597 145.341 213.731 145.646 214.001C145.95 214.271 146.103 214.616 146.103 215.038C146.103 215.46 145.95 215.806 145.646 216.075C145.341 216.345 144.945 216.479 144.459 216.479C143.973 216.479 143.577 216.345 143.272 216.075C142.968 215.806 142.815 215.46 142.815 215.038ZM150.515 217.49L150.611 218.606C151.268 217.745 152.173 217.314 153.327 217.314C154.317 217.314 155.056 217.61 155.542 218.202C156.034 218.794 156.289 219.685 156.307 220.874V227H153.336V220.997C153.336 220.517 153.239 220.165 153.046 219.942C152.853 219.714 152.501 219.6 151.991 219.6C151.411 219.6 150.98 219.828 150.699 220.285V227H147.737V217.49H150.515ZM157.607 222.175C157.607 221.214 157.766 220.364 158.082 219.626C158.398 218.888 158.853 218.319 159.444 217.921C160.036 217.517 160.725 217.314 161.51 217.314C162.5 217.314 163.273 217.648 163.83 218.316L163.936 217.49H166.625V226.64C166.625 227.478 166.429 228.204 166.036 228.819C165.649 229.44 165.087 229.915 164.349 230.243C163.61 230.577 162.755 230.744 161.782 230.744C161.085 230.744 160.408 230.612 159.752 230.349C159.102 230.085 158.604 229.742 158.258 229.32L159.497 227.58C160.048 228.23 160.774 228.556 161.677 228.556C162.989 228.556 163.646 227.882 163.646 226.534V226.235C163.077 226.862 162.359 227.176 161.492 227.176C160.332 227.176 159.395 226.733 158.68 225.849C157.965 224.958 157.607 223.769 157.607 222.28V222.175ZM160.578 222.359C160.578 223.139 160.725 223.757 161.018 224.214C161.311 224.665 161.721 224.891 162.248 224.891C162.887 224.891 163.353 224.677 163.646 224.249V220.25C163.358 219.816 162.898 219.6 162.266 219.6C161.738 219.6 161.325 219.837 161.026 220.312C160.728 220.78 160.578 221.463 160.578 222.359ZM172.417 222.175C172.417 220.669 172.742 219.482 173.393 218.615C174.043 217.748 174.951 217.314 176.117 217.314C176.967 217.314 177.682 217.648 178.262 218.316V213.5H181.232V227H178.569L178.42 225.98C177.811 226.777 177.037 227.176 176.1 227.176C174.969 227.176 174.072 226.742 173.41 225.875C172.748 225.008 172.417 223.774 172.417 222.175ZM175.379 222.359C175.379 224.047 175.871 224.891 176.855 224.891C177.512 224.891 177.98 224.615 178.262 224.064V220.443C177.992 219.881 177.529 219.6 176.873 219.6C175.959 219.6 175.464 220.338 175.388 221.814L175.379 222.359ZM188.272 227C188.167 226.807 188.073 226.522 187.991 226.147C187.446 226.833 186.685 227.176 185.706 227.176C184.81 227.176 184.048 226.906 183.421 226.367C182.794 225.822 182.48 225.14 182.48 224.319C182.48 223.288 182.861 222.509 183.623 221.981C184.385 221.454 185.492 221.19 186.945 221.19H187.859V220.689C187.859 219.816 187.481 219.38 186.726 219.38C186.022 219.38 185.671 219.726 185.671 220.417H182.709C182.709 219.497 183.099 218.75 183.878 218.176C184.663 217.602 185.662 217.314 186.875 217.314C188.088 217.314 189.046 217.61 189.749 218.202C190.452 218.794 190.812 219.605 190.83 220.637V224.847C190.842 225.72 190.977 226.388 191.234 226.851V227H188.272ZM186.418 225.066C186.787 225.066 187.092 224.987 187.332 224.829C187.578 224.671 187.754 224.492 187.859 224.293V222.772H186.998C185.967 222.772 185.451 223.235 185.451 224.161C185.451 224.431 185.542 224.65 185.724 224.82C185.905 224.984 186.137 225.066 186.418 225.066ZM196.139 222.852L197.721 217.49H200.894L197.018 228.591L196.851 228.995C196.3 230.226 195.327 230.841 193.933 230.841C193.546 230.841 193.139 230.782 192.711 230.665V228.547H193.098C193.514 228.547 193.83 228.485 194.047 228.362C194.27 228.245 194.434 228.031 194.539 227.721L194.776 227.088L191.472 217.49H194.636L196.139 222.852Z" fill="white"/>
<circle cx="152" cy="145" r="11" fill="#6BB8FF" stroke="white" stroke-width="2"/>
<line x1="146" y1="145" x2="158" y2="145" stroke="white" stroke-width="2" stroke-linecap="round"/>
<circle cx="35" cy="145" r="11" fill="#6BB8FF" stroke="white" stroke-width="2"/>
<line x1="29" y1="145" x2="41" y2="145" stroke="white" stroke-width="2" stroke-linecap="round"/>
<line x1="35" y1="139" x2="35" y2="152" stroke="white" stroke-width="2" stroke-linecap="round"/>
<path d="M27.8911 67.3979L30.3032 62.7578H31.687L28.5005 68.5532V72H27.2817V68.5532L24.0952 62.7578H25.4917L27.8911 67.3979ZM31.9663 68.5024C31.9663 67.8296 32.0975 67.2244 32.3599 66.687C32.6265 66.1496 32.9946 65.7349 33.4644 65.4429C33.9383 65.1509 34.4779 65.0049 35.083 65.0049C36.0182 65.0049 36.7736 65.3286 37.3491 65.9761C37.9289 66.6235 38.2188 67.4847 38.2188 68.5596V68.6421C38.2188 69.3107 38.0897 69.9116 37.8315 70.4448C37.5776 70.9738 37.2116 71.3864 36.7334 71.6826C36.2594 71.9788 35.7135 72.127 35.0957 72.127C34.1647 72.127 33.4093 71.8032 32.8296 71.1558C32.2541 70.5083 31.9663 69.6514 31.9663 68.585V68.5024ZM33.147 68.6421C33.147 69.4038 33.3226 70.0153 33.6738 70.4766C34.0293 70.9378 34.5033 71.1685 35.0957 71.1685C35.6924 71.1685 36.1663 70.9357 36.5176 70.4702C36.8688 70.0005 37.0444 69.3446 37.0444 68.5024C37.0444 67.7492 36.8646 67.1398 36.5049 66.6743C36.1494 66.2046 35.6755 65.9697 35.083 65.9697C34.5033 65.9697 34.0356 66.2004 33.6802 66.6616C33.3247 67.1229 33.147 67.783 33.147 68.6421ZM43.9316 71.3208C43.4746 71.8582 42.8039 72.127 41.9194 72.127C41.1873 72.127 40.6287 71.9154 40.2437 71.4922C39.8628 71.0648 39.6702 70.4342 39.666 69.6006V65.1318H40.8403V69.5688C40.8403 70.6099 41.2635 71.1304 42.1099 71.1304C43.007 71.1304 43.6037 70.7961 43.8999 70.1274V65.1318H45.0742V72H43.957L43.9316 71.3208ZM51.2632 65.9634C51.7837 65.3244 52.4608 65.0049 53.2944 65.0049C54.7459 65.0049 55.478 65.8237 55.4907 67.4614V72H54.3164V67.4551C54.3122 66.96 54.1979 66.5939 53.9736 66.3569C53.7536 66.12 53.4087 66.0015 52.939 66.0015C52.5581 66.0015 52.2238 66.103 51.936 66.3062C51.6483 66.5093 51.424 66.7759 51.2632 67.106V72H50.0889V62.25H51.2632V65.9634ZM61.4893 72C61.4215 71.8646 61.3665 71.6234 61.3242 71.2764C60.7783 71.8434 60.1266 72.127 59.3691 72.127C58.6921 72.127 58.1356 71.9365 57.6997 71.5557C57.2681 71.1706 57.0522 70.6839 57.0522 70.0957C57.0522 69.3805 57.3231 68.8262 57.8647 68.4326C58.4106 68.0348 59.1766 67.8359 60.1626 67.8359H61.3052V67.2964C61.3052 66.8859 61.1825 66.5601 60.937 66.3188C60.6916 66.0734 60.3298 65.9507 59.8516 65.9507C59.4326 65.9507 59.0814 66.0565 58.7979 66.2681C58.5143 66.4797 58.3726 66.7357 58.3726 67.0361H57.1919C57.1919 66.6934 57.3125 66.3633 57.5537 66.0459C57.7992 65.7243 58.1292 65.4704 58.5439 65.2842C58.9629 65.098 59.422 65.0049 59.9214 65.0049C60.7127 65.0049 61.3327 65.2038 61.7812 65.6016C62.2298 65.9951 62.4626 66.5389 62.4795 67.2329V70.394C62.4795 71.0246 62.5599 71.526 62.7207 71.8984V72H61.4893ZM59.5405 71.105C59.9087 71.105 60.2578 71.0098 60.5879 70.8193C60.918 70.6289 61.1571 70.3813 61.3052 70.0767V68.6675H60.3848C58.946 68.6675 58.2266 69.0885 58.2266 69.9307C58.2266 70.2988 58.3493 70.5866 58.5947 70.7939C58.8402 71.0013 59.1554 71.105 59.5405 71.105ZM66.4849 70.4067L68.186 65.1318H69.3857L66.9229 72H66.0278L63.5396 65.1318H64.7393L66.4849 70.4067ZM73.2769 72.127C72.3459 72.127 71.5884 71.8223 71.0044 71.2129C70.4204 70.5993 70.1284 69.7804 70.1284 68.7563V68.5405C70.1284 67.8592 70.2575 67.252 70.5156 66.7188C70.778 66.1813 71.1419 65.7624 71.6074 65.4619C72.0771 65.1572 72.585 65.0049 73.1309 65.0049C74.0238 65.0049 74.7178 65.299 75.2129 65.8872C75.708 66.4754 75.9556 67.3175 75.9556 68.4136V68.9023H71.3027C71.3197 69.5794 71.5164 70.1274 71.8931 70.5464C72.2739 70.9611 72.7563 71.1685 73.3403 71.1685C73.755 71.1685 74.1063 71.0838 74.394 70.9146C74.6818 70.7453 74.9336 70.521 75.1494 70.2417L75.8667 70.8003C75.2912 71.6847 74.4279 72.127 73.2769 72.127ZM73.1309 65.9697C72.6569 65.9697 72.2591 66.1432 71.9375 66.4902C71.6159 66.833 71.417 67.3154 71.3408 67.9375H74.7812V67.8486C74.7474 67.252 74.5866 66.7907 74.2988 66.4648C74.0111 66.1348 73.6217 65.9697 73.1309 65.9697ZM85.0898 69.6196C85.0898 69.2303 84.9523 68.9023 84.6772 68.6357C84.4064 68.3691 83.9473 68.1279 83.2998 67.9121C82.3984 67.637 81.7404 67.2795 81.3257 66.8394C80.9152 66.395 80.71 65.8322 80.71 65.1509C80.71 64.4569 80.911 63.8877 81.313 63.4434C81.7192 62.999 82.2757 62.7345 82.9824 62.6499V61.2598H83.9282V62.6562C84.6392 62.7536 85.1914 63.0519 85.585 63.5513C85.9827 64.0506 86.1816 64.734 86.1816 65.6016H85.0137C85.0137 65.0049 84.8719 64.5309 84.5884 64.1797C84.3049 63.8285 83.9219 63.6528 83.4395 63.6528C82.9359 63.6528 82.5508 63.784 82.2842 64.0464C82.0176 64.3045 81.8843 64.6663 81.8843 65.1318C81.8843 65.5635 82.0239 65.9084 82.3032 66.1665C82.5868 66.4204 83.0501 66.6532 83.6934 66.8647C84.3408 67.0721 84.8444 67.3027 85.2041 67.5566C85.568 67.8063 85.8346 68.0983 86.0039 68.4326C86.1774 68.7669 86.2642 69.1584 86.2642 69.6069C86.2642 70.3221 86.0483 70.8976 85.6167 71.3335C85.1893 71.7694 84.5884 72.0275 83.814 72.1079V73.3203H82.8745V72.1079C82.0874 72.036 81.4696 71.7567 81.021 71.27C80.5767 70.7791 80.3545 70.1147 80.3545 69.2769H81.5288C81.5288 69.8651 81.6833 70.3179 81.9922 70.6353C82.3011 70.9526 82.7391 71.1113 83.3062 71.1113C83.8605 71.1113 84.2964 70.978 84.6138 70.7114C84.9312 70.4448 85.0898 70.0809 85.0898 69.6196ZM114.917 72H113.743V65.1318H114.917V72ZM113.648 63.3101C113.648 63.1196 113.705 62.9588 113.819 62.8276C113.938 62.6965 114.111 62.6309 114.34 62.6309C114.568 62.6309 114.742 62.6965 114.86 62.8276C114.979 62.9588 115.038 63.1196 115.038 63.3101C115.038 63.5005 114.979 63.6592 114.86 63.7861C114.742 63.9131 114.568 63.9766 114.34 63.9766C114.111 63.9766 113.938 63.9131 113.819 63.7861C113.705 63.6592 113.648 63.5005 113.648 63.3101ZM117.914 65.1318L117.952 65.9951C118.476 65.335 119.162 65.0049 120.008 65.0049C121.46 65.0049 122.192 65.8237 122.205 67.4614V72H121.03V67.4551C121.026 66.96 120.912 66.5939 120.688 66.3569C120.467 66.12 120.123 66.0015 119.653 66.0015C119.272 66.0015 118.938 66.103 118.65 66.3062C118.362 66.5093 118.138 66.7759 117.977 67.106V72H116.803V65.1318H117.914ZM128.793 63.4688V65.1318H130.076V66.0396H128.793V70.2988C128.793 70.5739 128.851 70.7812 128.965 70.9209C129.079 71.0563 129.274 71.124 129.549 71.124C129.684 71.124 129.87 71.0986 130.107 71.0479V72C129.799 72.0846 129.498 72.127 129.206 72.127C128.681 72.127 128.286 71.9683 128.019 71.6509C127.752 71.3335 127.619 70.8828 127.619 70.2988V66.0396H126.369V65.1318H127.619V63.4688H128.793ZM132.627 65.9634C133.148 65.3244 133.825 65.0049 134.659 65.0049C136.11 65.0049 136.842 65.8237 136.855 67.4614V72H135.681V67.4551C135.676 66.96 135.562 66.5939 135.338 66.3569C135.118 66.12 134.773 66.0015 134.303 66.0015C133.922 66.0015 133.588 66.103 133.3 66.3062C133.013 66.5093 132.788 66.7759 132.627 67.106V72H131.453V62.25H132.627V65.9634ZM141.463 72.127C140.532 72.127 139.775 71.8223 139.191 71.2129C138.607 70.5993 138.315 69.7804 138.315 68.7563V68.5405C138.315 67.8592 138.444 67.252 138.702 66.7188C138.965 66.1813 139.328 65.7624 139.794 65.4619C140.264 65.1572 140.771 65.0049 141.317 65.0049C142.21 65.0049 142.904 65.299 143.399 65.8872C143.895 66.4754 144.142 67.3175 144.142 68.4136V68.9023H139.489C139.506 69.5794 139.703 70.1274 140.08 70.5464C140.46 70.9611 140.943 71.1685 141.527 71.1685C141.942 71.1685 142.293 71.0838 142.581 70.9146C142.868 70.7453 143.12 70.521 143.336 70.2417L144.053 70.8003C143.478 71.6847 142.614 72.127 141.463 72.127ZM141.317 65.9697C140.843 65.9697 140.446 66.1432 140.124 66.4902C139.802 66.833 139.604 67.3154 139.527 67.9375H142.968V67.8486C142.934 67.252 142.773 66.7907 142.485 66.4648C142.198 66.1348 141.808 65.9697 141.317 65.9697ZM149.836 65.1318L149.868 65.8936C150.371 65.3011 151.05 65.0049 151.905 65.0049C152.866 65.0049 153.52 65.373 153.867 66.1094C154.095 65.7793 154.391 65.5127 154.755 65.3096C155.124 65.1064 155.557 65.0049 156.057 65.0049C157.563 65.0049 158.329 65.8026 158.354 67.3979V72H157.18V67.4678C157.18 66.9769 157.068 66.6108 156.844 66.3696C156.619 66.1242 156.243 66.0015 155.714 66.0015C155.278 66.0015 154.916 66.1326 154.628 66.395C154.341 66.6532 154.174 67.0023 154.127 67.4424V72H152.946V67.4995C152.946 66.5008 152.458 66.0015 151.48 66.0015C150.71 66.0015 150.183 66.3294 149.899 66.9854V72H148.725V65.1318H149.836ZM164.372 72C164.304 71.8646 164.249 71.6234 164.207 71.2764C163.661 71.8434 163.009 72.127 162.252 72.127C161.575 72.127 161.018 71.9365 160.583 71.5557C160.151 71.1706 159.935 70.6839 159.935 70.0957C159.935 69.3805 160.206 68.8262 160.748 68.4326C161.293 68.0348 162.059 67.8359 163.045 67.8359H164.188V67.2964C164.188 66.8859 164.065 66.5601 163.82 66.3188C163.574 66.0734 163.213 65.9507 162.734 65.9507C162.315 65.9507 161.964 66.0565 161.681 66.2681C161.397 66.4797 161.255 66.7357 161.255 67.0361H160.075C160.075 66.6934 160.195 66.3633 160.437 66.0459C160.682 65.7243 161.012 65.4704 161.427 65.2842C161.846 65.098 162.305 65.0049 162.804 65.0049C163.596 65.0049 164.215 65.2038 164.664 65.6016C165.113 65.9951 165.345 66.5389 165.362 67.2329V70.394C165.362 71.0246 165.443 71.526 165.604 71.8984V72H164.372ZM162.423 71.105C162.792 71.105 163.141 71.0098 163.471 70.8193C163.801 70.6289 164.04 70.3813 164.188 70.0767V68.6675H163.268C161.829 68.6675 161.109 69.0885 161.109 69.9307C161.109 70.2988 161.232 70.5866 161.478 70.7939C161.723 71.0013 162.038 71.105 162.423 71.105ZM170.523 66.1855C170.345 66.1559 170.153 66.1411 169.945 66.1411C169.175 66.1411 168.653 66.4691 168.377 67.125V72H167.203V65.1318H168.346L168.365 65.9253C168.75 65.3117 169.296 65.0049 170.002 65.0049C170.231 65.0049 170.404 65.0345 170.523 65.0938V66.1855ZM173.525 68.8198L172.789 69.5879V72H171.615V62.25H172.789V68.147L173.417 67.3916L175.557 65.1318H176.985L174.312 68.001L177.296 72H175.918L173.525 68.8198ZM180.92 72.127C179.989 72.127 179.232 71.8223 178.648 71.2129C178.064 70.5993 177.772 69.7804 177.772 68.7563V68.5405C177.772 67.8592 177.901 67.252 178.159 66.7188C178.422 66.1813 178.785 65.7624 179.251 65.4619C179.721 65.1572 180.229 65.0049 180.774 65.0049C181.667 65.0049 182.361 65.299 182.856 65.8872C183.352 66.4754 183.599 67.3175 183.599 68.4136V68.9023H178.946C178.963 69.5794 179.16 70.1274 179.537 70.5464C179.917 70.9611 180.4 71.1685 180.984 71.1685C181.399 71.1685 181.75 71.0838 182.038 70.9146C182.325 70.7453 182.577 70.521 182.793 70.2417L183.51 70.8003C182.935 71.6847 182.071 72.127 180.92 72.127ZM180.774 65.9697C180.3 65.9697 179.903 66.1432 179.581 66.4902C179.259 66.833 179.061 67.3154 178.984 67.9375H182.425V67.8486C182.391 67.252 182.23 66.7907 181.942 66.4648C181.655 66.1348 181.265 65.9697 180.774 65.9697ZM186.557 63.4688V65.1318H187.839V66.0396H186.557V70.2988C186.557 70.5739 186.614 70.7812 186.729 70.9209C186.843 71.0563 187.037 71.124 187.312 71.124C187.448 71.124 187.634 71.0986 187.871 71.0479V72C187.562 72.0846 187.262 72.127 186.97 72.127C186.445 72.127 186.049 71.9683 185.783 71.6509C185.516 71.3335 185.383 70.8828 185.383 70.2988V66.0396H184.132V65.1318H185.383V63.4688H186.557ZM189.179 73.8408L188.512 73.3838C188.91 72.8294 189.117 72.2581 189.134 71.6699V70.6099H190.283V71.5303C190.283 71.9577 190.177 72.3851 189.966 72.8125C189.758 73.2399 189.496 73.5827 189.179 73.8408ZM199.233 72C199.166 71.8646 199.111 71.6234 199.068 71.2764C198.522 71.8434 197.871 72.127 197.113 72.127C196.436 72.127 195.88 71.9365 195.444 71.5557C195.012 71.1706 194.796 70.6839 194.796 70.0957C194.796 69.3805 195.067 68.8262 195.609 68.4326C196.155 68.0348 196.921 67.8359 197.907 67.8359H199.049V67.2964C199.049 66.8859 198.927 66.5601 198.681 66.3188C198.436 66.0734 198.074 65.9507 197.596 65.9507C197.177 65.9507 196.826 66.0565 196.542 66.2681C196.258 66.4797 196.117 66.7357 196.117 67.0361H194.936C194.936 66.6934 195.057 66.3633 195.298 66.0459C195.543 65.7243 195.873 65.4704 196.288 65.2842C196.707 65.098 197.166 65.0049 197.666 65.0049C198.457 65.0049 199.077 65.2038 199.525 65.6016C199.974 65.9951 200.207 66.5389 200.224 67.2329V70.394C200.224 71.0246 200.304 71.526 200.465 71.8984V72H199.233ZM197.285 71.105C197.653 71.105 198.002 71.0098 198.332 70.8193C198.662 70.6289 198.901 70.3813 199.049 70.0767V68.6675H198.129C196.69 68.6675 195.971 69.0885 195.971 69.9307C195.971 70.2988 196.093 70.5866 196.339 70.7939C196.584 71.0013 196.9 71.105 197.285 71.105ZM203.175 65.1318L203.213 65.9951C203.738 65.335 204.424 65.0049 205.27 65.0049C206.722 65.0049 207.454 65.8237 207.466 67.4614V72H206.292V67.4551C206.288 66.96 206.174 66.5939 205.949 66.3569C205.729 66.12 205.384 66.0015 204.915 66.0015C204.534 66.0015 204.199 66.103 203.912 66.3062C203.624 66.5093 203.4 66.7759 203.239 67.106V72H202.064V65.1318H203.175ZM208.952 68.5088C208.952 67.4551 209.201 66.6087 209.701 65.9697C210.2 65.3265 210.854 65.0049 211.662 65.0049C212.466 65.0049 213.103 65.2799 213.573 65.8301V62.25H214.747V72H213.668L213.611 71.2637C213.141 71.8392 212.487 72.127 211.649 72.127C210.854 72.127 210.204 71.8011 209.701 71.1494C209.201 70.4977 208.952 69.6471 208.952 68.5977V68.5088ZM210.126 68.6421C210.126 69.4207 210.287 70.0301 210.608 70.4702C210.93 70.9103 211.374 71.1304 211.941 71.1304C212.686 71.1304 213.23 70.7961 213.573 70.1274V66.9727C213.222 66.3252 212.682 66.0015 211.954 66.0015C211.379 66.0015 210.93 66.2236 210.608 66.668C210.287 67.1123 210.126 67.7703 210.126 68.6421ZM29.4336 90.6196C29.4336 90.2303 29.2961 89.9023 29.021 89.6357C28.7502 89.3691 28.291 89.1279 27.6436 88.9121C26.7422 88.637 26.0841 88.2795 25.6694 87.8394C25.259 87.395 25.0537 86.8322 25.0537 86.1509C25.0537 85.4569 25.2547 84.8877 25.6567 84.4434C26.063 83.999 26.6195 83.7345 27.3262 83.6499V82.2598H28.272V83.6562C28.9829 83.7536 29.5352 84.0519 29.9287 84.5513C30.3265 85.0506 30.5254 85.734 30.5254 86.6016H29.3574C29.3574 86.0049 29.2157 85.5309 28.9321 85.1797C28.6486 84.8285 28.2656 84.6528 27.7832 84.6528C27.2796 84.6528 26.8945 84.784 26.6279 85.0464C26.3613 85.3045 26.228 85.6663 26.228 86.1318C26.228 86.5635 26.3677 86.9084 26.647 87.1665C26.9305 87.4204 27.3939 87.6532 28.0371 87.8647C28.6846 88.0721 29.1882 88.3027 29.5479 88.5566C29.9118 88.8063 30.1784 89.0983 30.3477 89.4326C30.5212 89.7669 30.6079 90.1584 30.6079 90.6069C30.6079 91.3221 30.3921 91.8976 29.9604 92.3335C29.533 92.7694 28.9321 93.0275 28.1577 93.1079V94.3203H27.2183V93.1079C26.4312 93.036 25.8133 92.7567 25.3647 92.27C24.9204 91.7791 24.6982 91.1147 24.6982 90.2769H25.8726C25.8726 90.8651 26.027 91.3179 26.3359 91.6353C26.6449 91.9526 27.0828 92.1113 27.6499 92.1113C28.2043 92.1113 28.6401 91.978 28.9575 91.7114C29.2749 91.4448 29.4336 91.0809 29.4336 90.6196ZM62.4858 93H61.3115V83.25H62.4858V93ZM67.2212 93.127C66.2902 93.127 65.5327 92.8223 64.9487 92.2129C64.3647 91.5993 64.0728 90.7804 64.0728 89.7563V89.5405C64.0728 88.8592 64.2018 88.252 64.46 87.7188C64.7223 87.1813 65.0863 86.7624 65.5518 86.4619C66.0215 86.1572 66.5293 86.0049 67.0752 86.0049C67.9681 86.0049 68.6621 86.299 69.1572 86.8872C69.6523 87.4754 69.8999 88.3175 69.8999 89.4136V89.9023H65.2471C65.264 90.5794 65.4608 91.1274 65.8374 91.5464C66.2183 91.9611 66.7007 92.1685 67.2847 92.1685C67.6994 92.1685 68.0506 92.0838 68.3384 91.9146C68.6261 91.7453 68.8779 91.521 69.0938 91.2417L69.811 91.8003C69.2355 92.6847 68.3722 93.127 67.2212 93.127ZM67.0752 86.9697C66.6012 86.9697 66.2035 87.1432 65.8818 87.4902C65.5602 87.833 65.3613 88.3154 65.2852 88.9375H68.7256V88.8486C68.6917 88.252 68.5309 87.7907 68.2432 87.4648C67.9554 87.1348 67.5661 86.9697 67.0752 86.9697ZM71.8423 93V87.0396H70.7568V86.1318H71.8423V85.4272C71.8423 84.6909 72.0391 84.1217 72.4326 83.7197C72.8262 83.3177 73.3826 83.1167 74.1021 83.1167C74.3729 83.1167 74.6416 83.1527 74.9082 83.2246L74.8447 84.1768C74.6458 84.1387 74.4342 84.1196 74.21 84.1196C73.8291 84.1196 73.535 84.2318 73.3276 84.4561C73.1203 84.6761 73.0166 84.9935 73.0166 85.4082V86.1318H74.4829V87.0396H73.0166V93H71.8423ZM77.3774 84.4688V86.1318H78.6597V87.0396H77.3774V91.2988C77.3774 91.5739 77.4346 91.7812 77.5488 91.9209C77.6631 92.0563 77.8577 92.124 78.1328 92.124C78.2682 92.124 78.4544 92.0986 78.6914 92.0479V93C78.3825 93.0846 78.082 93.127 77.79 93.127C77.2653 93.127 76.8696 92.9683 76.603 92.6509C76.3364 92.3335 76.2031 91.8828 76.2031 91.2988V87.0396H74.9526V86.1318H76.2031V84.4688H77.3774ZM84.5376 93H83.3633V86.1318H84.5376V93ZM83.2681 84.3101C83.2681 84.1196 83.3252 83.9588 83.4395 83.8276C83.5579 83.6965 83.7314 83.6309 83.96 83.6309C84.1885 83.6309 84.362 83.6965 84.4805 83.8276C84.599 83.9588 84.6582 84.1196 84.6582 84.3101C84.6582 84.5005 84.599 84.6592 84.4805 84.7861C84.362 84.9131 84.1885 84.9766 83.96 84.9766C83.7314 84.9766 83.5579 84.9131 83.4395 84.7861C83.3252 84.6592 83.2681 84.5005 83.2681 84.3101ZM87.5337 86.1318L87.5718 86.9951C88.0965 86.335 88.7821 86.0049 89.6284 86.0049C91.0799 86.0049 91.812 86.8237 91.8247 88.4614V93H90.6504V88.4551C90.6462 87.96 90.5319 87.5939 90.3076 87.3569C90.0876 87.12 89.7427 87.0015 89.2729 87.0015C88.8921 87.0015 88.5578 87.103 88.27 87.3062C87.9823 87.5093 87.758 87.7759 87.5972 88.106V93H86.4229V86.1318H87.5337ZM99.0674 91.2798L100.667 86.1318H101.924L99.1626 94.0601C98.7352 95.2026 98.056 95.7739 97.125 95.7739L96.9028 95.7549L96.4648 95.6724V94.7202L96.7822 94.7456C97.18 94.7456 97.4889 94.6652 97.709 94.5044C97.9333 94.3436 98.1174 94.0495 98.2612 93.6221L98.5215 92.9238L96.0713 86.1318H97.3535L99.0674 91.2798ZM102.565 89.5024C102.565 88.8296 102.696 88.2244 102.958 87.687C103.225 87.1496 103.593 86.7349 104.063 86.4429C104.537 86.1509 105.076 86.0049 105.682 86.0049C106.617 86.0049 107.372 86.3286 107.948 86.9761C108.528 87.6235 108.817 88.4847 108.817 89.5596V89.6421C108.817 90.3107 108.688 90.9116 108.43 91.4448C108.176 91.9738 107.81 92.3864 107.332 92.6826C106.858 92.9788 106.312 93.127 105.694 93.127C104.763 93.127 104.008 92.8032 103.428 92.1558C102.853 91.5083 102.565 90.6514 102.565 89.585V89.5024ZM103.746 89.6421C103.746 90.4038 103.921 91.0153 104.272 91.4766C104.628 91.9378 105.102 92.1685 105.694 92.1685C106.291 92.1685 106.765 91.9357 107.116 91.4702C107.467 91.0005 107.643 90.3446 107.643 89.5024C107.643 88.7492 107.463 88.1398 107.104 87.6743C106.748 87.2046 106.274 86.9697 105.682 86.9697C105.102 86.9697 104.634 87.2004 104.279 87.6616C103.923 88.1229 103.746 88.783 103.746 89.6421ZM114.53 92.3208C114.073 92.8582 113.403 93.127 112.518 93.127C111.786 93.127 111.227 92.9154 110.842 92.4922C110.461 92.0648 110.269 91.4342 110.265 90.6006V86.1318H111.439V90.5688C111.439 91.6099 111.862 92.1304 112.708 92.1304C113.606 92.1304 114.202 91.7961 114.499 91.1274V86.1318H115.673V93H114.556L114.53 92.3208ZM120.783 87.1855C120.605 87.1559 120.412 87.1411 120.205 87.1411C119.435 87.1411 118.912 87.4691 118.637 88.125V93H117.463V86.1318H118.605L118.625 86.9253C119.01 86.3117 119.556 86.0049 120.262 86.0049C120.491 86.0049 120.664 86.0345 120.783 86.0938V87.1855ZM129.333 93C129.265 92.8646 129.21 92.6234 129.168 92.2764C128.622 92.8434 127.97 93.127 127.213 93.127C126.536 93.127 125.979 92.9365 125.543 92.5557C125.112 92.1706 124.896 91.6839 124.896 91.0957C124.896 90.3805 125.167 89.8262 125.708 89.4326C126.254 89.0348 127.02 88.8359 128.006 88.8359H129.149V88.2964C129.149 87.8859 129.026 87.5601 128.781 87.3188C128.535 87.0734 128.174 86.9507 127.695 86.9507C127.276 86.9507 126.925 87.0565 126.642 87.2681C126.358 87.4797 126.216 87.7357 126.216 88.0361H125.036C125.036 87.6934 125.156 87.3633 125.397 87.0459C125.643 86.7243 125.973 86.4704 126.388 86.2842C126.807 86.098 127.266 86.0049 127.765 86.0049C128.556 86.0049 129.176 86.2038 129.625 86.6016C130.074 86.9951 130.306 87.5389 130.323 88.2329V91.394C130.323 92.0246 130.404 92.526 130.564 92.8984V93H129.333ZM127.384 92.105C127.752 92.105 128.102 92.0098 128.432 91.8193C128.762 91.6289 129.001 91.3813 129.149 91.0767V89.6675H128.229C126.79 89.6675 126.07 90.0885 126.07 90.9307C126.07 91.2988 126.193 91.5866 126.438 91.7939C126.684 92.0013 126.999 92.105 127.384 92.105ZM134.919 92.1685C135.338 92.1685 135.704 92.0415 136.017 91.7876C136.33 91.5337 136.504 91.2163 136.538 90.8354H137.648C137.627 91.229 137.492 91.6035 137.242 91.959C136.993 92.3145 136.658 92.598 136.239 92.8096C135.825 93.0212 135.384 93.127 134.919 93.127C133.984 93.127 133.239 92.8159 132.685 92.1938C132.134 91.5675 131.859 90.7127 131.859 89.6294V89.4326C131.859 88.764 131.982 88.1694 132.228 87.6489C132.473 87.1284 132.824 86.7243 133.281 86.4365C133.743 86.1488 134.286 86.0049 134.913 86.0049C135.683 86.0049 136.322 86.2355 136.83 86.6968C137.342 87.158 137.615 87.7568 137.648 88.4932H136.538C136.504 88.0488 136.334 87.6849 136.03 87.4014C135.729 87.1136 135.357 86.9697 134.913 86.9697C134.316 86.9697 133.853 87.1855 133.522 87.6172C133.197 88.0446 133.034 88.6646 133.034 89.4771V89.6992C133.034 90.4906 133.197 91.0999 133.522 91.5273C133.848 91.9548 134.314 92.1685 134.919 92.1685ZM141.724 92.1685C142.143 92.1685 142.509 92.0415 142.822 91.7876C143.135 91.5337 143.308 91.2163 143.342 90.8354H144.453C144.432 91.229 144.297 91.6035 144.047 91.959C143.797 92.3145 143.463 92.598 143.044 92.8096C142.629 93.0212 142.189 93.127 141.724 93.127C140.788 93.127 140.044 92.8159 139.489 92.1938C138.939 91.5675 138.664 90.7127 138.664 89.6294V89.4326C138.664 88.764 138.787 88.1694 139.032 87.6489C139.278 87.1284 139.629 86.7243 140.086 86.4365C140.547 86.1488 141.091 86.0049 141.717 86.0049C142.487 86.0049 143.126 86.2355 143.634 86.6968C144.146 87.158 144.419 87.7568 144.453 88.4932H143.342C143.308 88.0488 143.139 87.6849 142.834 87.4014C142.534 87.1136 142.162 86.9697 141.717 86.9697C141.121 86.9697 140.657 87.1855 140.327 87.6172C140.001 88.0446 139.838 88.6646 139.838 89.4771V89.6992C139.838 90.4906 140.001 91.0999 140.327 91.5273C140.653 91.9548 141.118 92.1685 141.724 92.1685ZM145.462 89.5024C145.462 88.8296 145.594 88.2244 145.856 87.687C146.123 87.1496 146.491 86.7349 146.96 86.4429C147.434 86.1509 147.974 86.0049 148.579 86.0049C149.514 86.0049 150.27 86.3286 150.845 86.9761C151.425 87.6235 151.715 88.4847 151.715 89.5596V89.6421C151.715 90.3107 151.586 90.9116 151.328 91.4448C151.074 91.9738 150.708 92.3864 150.229 92.6826C149.756 92.9788 149.21 93.127 148.592 93.127C147.661 93.127 146.905 92.8032 146.326 92.1558C145.75 91.5083 145.462 90.6514 145.462 89.585V89.5024ZM146.643 89.6421C146.643 90.4038 146.819 91.0153 147.17 91.4766C147.525 91.9378 147.999 92.1685 148.592 92.1685C149.188 92.1685 149.662 91.9357 150.014 91.4702C150.365 91.0005 150.541 90.3446 150.541 89.5024C150.541 88.7492 150.361 88.1398 150.001 87.6743C149.646 87.2046 149.172 86.9697 148.579 86.9697C147.999 86.9697 147.532 87.2004 147.176 87.6616C146.821 88.1229 146.643 88.783 146.643 89.6421ZM157.428 92.3208C156.971 92.8582 156.3 93.127 155.416 93.127C154.683 93.127 154.125 92.9154 153.74 92.4922C153.359 92.0648 153.166 91.4342 153.162 90.6006V86.1318H154.336V90.5688C154.336 91.6099 154.76 92.1304 155.606 92.1304C156.503 92.1304 157.1 91.7961 157.396 91.1274V86.1318H158.57V93H157.453L157.428 92.3208ZM161.471 86.1318L161.509 86.9951C162.034 86.335 162.72 86.0049 163.566 86.0049C165.017 86.0049 165.75 86.8237 165.762 88.4614V93H164.588V88.4551C164.584 87.96 164.469 87.5939 164.245 87.3569C164.025 87.12 163.68 87.0015 163.21 87.0015C162.83 87.0015 162.495 87.103 162.208 87.3062C161.92 87.5093 161.695 87.7759 161.535 88.106V93H160.36V86.1318H161.471ZM169.126 84.4688V86.1318H170.409V87.0396H169.126V91.2988C169.126 91.5739 169.184 91.7812 169.298 91.9209C169.412 92.0563 169.607 92.124 169.882 92.124C170.017 92.124 170.203 92.0986 170.44 92.0479V93C170.132 93.0846 169.831 93.127 169.539 93.127C169.014 93.127 168.619 92.9683 168.352 92.6509C168.085 92.3335 167.952 91.8828 167.952 91.2988V87.0396H166.702V86.1318H167.952V84.4688H169.126ZM171.812 92.3843C171.812 92.1812 171.871 92.0119 171.989 91.8765C172.112 91.741 172.294 91.6733 172.535 91.6733C172.776 91.6733 172.958 91.741 173.081 91.8765C173.208 92.0119 173.271 92.1812 173.271 92.3843C173.271 92.5789 173.208 92.7419 173.081 92.873C172.958 93.0042 172.776 93.0698 172.535 93.0698C172.294 93.0698 172.112 93.0042 171.989 92.873C171.871 92.7419 171.812 92.5789 171.812 92.3843Z" fill="black"/>
<path d="M32.3672 32.3633H27.7441L26.8652 35H24.0615L28.8252 22.2031H31.2686L36.0586 35H33.2549L32.3672 32.3633ZM28.4561 30.2275H31.6553L30.0469 25.4375L28.4561 30.2275ZM37.7812 35V27.3535H36.3662V25.4902H37.7812V24.6816C37.7812 23.6152 38.0859 22.7891 38.6953 22.2031C39.3105 21.6113 40.1689 21.3154 41.2705 21.3154C41.6221 21.3154 42.0527 21.374 42.5625 21.4912L42.5361 23.46C42.3252 23.4072 42.0674 23.3809 41.7627 23.3809C40.8076 23.3809 40.3301 23.8291 40.3301 24.7256V25.4902H42.2197V27.3535H40.3301V35H37.7812ZM46.5791 23.1523V25.4902H48.2051V27.3535H46.5791V32.0996C46.5791 32.4512 46.6465 32.7031 46.7812 32.8555C46.916 33.0078 47.1738 33.084 47.5547 33.084C47.8359 33.084 48.085 33.0635 48.3018 33.0225V34.9473C47.8037 35.0996 47.291 35.1758 46.7637 35.1758C44.9824 35.1758 44.0742 34.2764 44.0391 32.4775V27.3535H42.6504V25.4902H44.0391V23.1523H46.5791ZM53.9971 35.1758C52.6025 35.1758 51.4658 34.748 50.5869 33.8926C49.7139 33.0371 49.2773 31.8975 49.2773 30.4736V30.2275C49.2773 29.2725 49.4619 28.4199 49.8311 27.6699C50.2002 26.9141 50.7217 26.334 51.3955 25.9297C52.0752 25.5195 52.8486 25.3145 53.7158 25.3145C55.0166 25.3145 56.0391 25.7246 56.7832 26.5449C57.5332 27.3652 57.9082 28.5283 57.9082 30.0342V31.0713H51.8525C51.9346 31.6924 52.1807 32.1904 52.5908 32.5654C53.0068 32.9404 53.5312 33.1279 54.1641 33.1279C55.1426 33.1279 55.9072 32.7734 56.458 32.0645L57.7061 33.4619C57.3252 34.001 56.8096 34.4229 56.1592 34.7275C55.5088 35.0264 54.7881 35.1758 53.9971 35.1758ZM53.707 27.3711C53.2031 27.3711 52.793 27.541 52.4766 27.8809C52.166 28.2207 51.9668 28.707 51.8789 29.3398H55.4121V29.1377C55.4004 28.5752 55.248 28.1416 54.9551 27.8369C54.6621 27.5264 54.2461 27.3711 53.707 27.3711ZM64.7021 27.8721C64.3564 27.8252 64.0518 27.8018 63.7881 27.8018C62.8271 27.8018 62.1973 28.127 61.8984 28.7773V35H59.3584V25.4902H61.7578L61.8281 26.624C62.3379 25.751 63.0439 25.3145 63.9463 25.3145C64.2275 25.3145 64.4912 25.3525 64.7373 25.4287L64.7021 27.8721ZM70.0195 30.1748C70.0195 28.6924 70.3506 27.5117 71.0127 26.6328C71.6807 25.7539 72.5918 25.3145 73.7461 25.3145C74.6719 25.3145 75.4365 25.6602 76.04 26.3516V21.5H78.5889V35H76.2949L76.1719 33.9893C75.5391 34.7803 74.7246 35.1758 73.7285 35.1758C72.6094 35.1758 71.71 34.7363 71.0303 33.8574C70.3564 32.9727 70.0195 31.7451 70.0195 30.1748ZM72.5596 30.3594C72.5596 31.25 72.7148 31.9326 73.0254 32.4072C73.3359 32.8818 73.7871 33.1191 74.3789 33.1191C75.1641 33.1191 75.7178 32.7881 76.04 32.126V28.373C75.7236 27.7109 75.1758 27.3799 74.3965 27.3799C73.1719 27.3799 72.5596 28.373 72.5596 30.3594ZM86.0684 35C85.9512 34.7715 85.8662 34.4873 85.8135 34.1475C85.1982 34.833 84.3984 35.1758 83.4141 35.1758C82.4824 35.1758 81.709 34.9062 81.0938 34.3672C80.4844 33.8281 80.1797 33.1484 80.1797 32.3281C80.1797 31.3203 80.5518 30.5469 81.2959 30.0078C82.0459 29.4688 83.127 29.1963 84.5391 29.1904H85.708V28.6455C85.708 28.2061 85.5938 27.8545 85.3652 27.5908C85.1426 27.3271 84.7881 27.1953 84.3018 27.1953C83.874 27.1953 83.5371 27.2979 83.291 27.5029C83.0508 27.708 82.9307 27.9893 82.9307 28.3467H80.3906C80.3906 27.7959 80.5605 27.2861 80.9004 26.8174C81.2402 26.3486 81.7207 25.9824 82.3418 25.7188C82.9629 25.4492 83.6602 25.3145 84.4336 25.3145C85.6055 25.3145 86.5342 25.6104 87.2197 26.2021C87.9111 26.7881 88.2568 27.6143 88.2568 28.6807V32.8027C88.2627 33.7051 88.3887 34.3877 88.6348 34.8506V35H86.0684ZM83.9678 33.2334C84.3428 33.2334 84.6885 33.1514 85.0049 32.9873C85.3213 32.8174 85.5557 32.5918 85.708 32.3105V30.6758H84.7588C83.4873 30.6758 82.8105 31.1152 82.7285 31.9941L82.7197 32.1436C82.7197 32.46 82.8311 32.7207 83.0537 32.9258C83.2764 33.1309 83.5811 33.2334 83.9678 33.2334ZM93.6182 31.4053L95.376 25.4902H98.1006L94.2773 36.4766L94.0664 36.9775C93.498 38.2197 92.5605 38.8408 91.2539 38.8408C90.8848 38.8408 90.5098 38.7852 90.1289 38.6738V36.749L90.5156 36.7578C90.9961 36.7578 91.3535 36.6846 91.5879 36.5381C91.8281 36.3916 92.0156 36.1484 92.1504 35.8086L92.4492 35.0264L89.1182 25.4902H91.8516L93.6182 31.4053ZM112.251 35H103.479V33.2598L107.619 28.8477C108.188 28.2266 108.606 27.6846 108.876 27.2217C109.151 26.7588 109.289 26.3193 109.289 25.9033C109.289 25.335 109.146 24.8896 108.858 24.5674C108.571 24.2393 108.161 24.0752 107.628 24.0752C107.054 24.0752 106.6 24.2744 106.266 24.6729C105.938 25.0654 105.773 25.584 105.773 26.2285H103.225C103.225 25.4492 103.409 24.7373 103.778 24.0928C104.153 23.4482 104.681 22.9443 105.36 22.5811C106.04 22.2119 106.811 22.0273 107.672 22.0273C108.99 22.0273 110.013 22.3438 110.739 22.9766C111.472 23.6094 111.838 24.5029 111.838 25.6572C111.838 26.29 111.674 26.9346 111.346 27.5908C111.018 28.2471 110.455 29.0117 109.658 29.8848L106.749 32.9521H112.251V35Z" fill="black"/>
</svg>
