<svg width="249" height="373" viewBox="0 0 249 373" fill="none" xmlns="http://www.w3.org/2000/svg">
<g id="day4Action">
<rect id="back" x="1.5" y="1.5" width="246" height="370" fill="white" stroke="#E5E5E5" stroke-width="3"/>
<rect id="day4SkipBT" x="14" y="224" width="219" height="56" rx="7" fill="#6BB8FF"/>
<path id="Your trades will take action in the next day when the market opens again." d="M26.5918 318.752L28.8184 314.469H30.0957L27.1543 319.818V323H26.0293V319.818L23.0879 314.469H24.377L26.5918 318.752ZM30.3535 319.771C30.3535 319.15 30.4746 318.592 30.7168 318.096C30.9629 317.6 31.3027 317.217 31.7363 316.947C32.1738 316.678 32.6719 316.543 33.2305 316.543C34.0938 316.543 34.791 316.842 35.3223 317.439C35.8574 318.037 36.125 318.832 36.125 319.824V319.9C36.125 320.518 36.0059 321.072 35.7676 321.564C35.5332 322.053 35.1953 322.434 34.7539 322.707C34.3164 322.98 33.8125 323.117 33.2422 323.117C32.3828 323.117 31.6855 322.818 31.1504 322.221C30.6191 321.623 30.3535 320.832 30.3535 319.848V319.771ZM31.4434 319.9C31.4434 320.604 31.6055 321.168 31.9297 321.594C32.2578 322.02 32.6953 322.232 33.2422 322.232C33.793 322.232 34.2305 322.018 34.5547 321.588C34.8789 321.154 35.041 320.549 35.041 319.771C35.041 319.076 34.875 318.514 34.543 318.084C34.2148 317.65 33.7773 317.434 33.2305 317.434C32.6953 317.434 32.2637 317.646 31.9355 318.072C31.6074 318.498 31.4434 319.107 31.4434 319.9ZM41.3984 322.373C40.9766 322.869 40.3574 323.117 39.541 323.117C38.8652 323.117 38.3496 322.922 37.9941 322.531C37.6426 322.137 37.4648 321.555 37.4609 320.785V316.66H38.5449V320.756C38.5449 321.717 38.9355 322.197 39.7168 322.197C40.5449 322.197 41.0957 321.889 41.3691 321.271V316.66H42.4531V323H41.4219L41.3984 322.373ZM47.1699 317.633C47.0059 317.605 46.8281 317.592 46.6367 317.592C45.9258 317.592 45.4434 317.895 45.1895 318.5V323H44.1055V316.66H45.1602L45.1777 317.393C45.5332 316.826 46.0371 316.543 46.6895 316.543C46.9004 316.543 47.0605 316.57 47.1699 316.625V317.633ZM52.6191 315.125V316.66H53.8027V317.498H52.6191V321.43C52.6191 321.684 52.6719 321.875 52.7773 322.004C52.8828 322.129 53.0625 322.191 53.3164 322.191C53.4414 322.191 53.6133 322.168 53.832 322.121V323C53.5469 323.078 53.2695 323.117 53 323.117C52.5156 323.117 52.1504 322.971 51.9043 322.678C51.6582 322.385 51.5352 321.969 51.5352 321.43V317.498H50.3809V316.66H51.5352V315.125H52.6191ZM58.1387 317.633C57.9746 317.605 57.7969 317.592 57.6055 317.592C56.8945 317.592 56.4121 317.895 56.1582 318.5V323H55.0742V316.66H56.1289L56.1465 317.393C56.502 316.826 57.0059 316.543 57.6582 316.543C57.8691 316.543 58.0293 316.57 58.1387 316.625V317.633ZM62.8203 323C62.7578 322.875 62.707 322.652 62.668 322.332C62.1641 322.855 61.5625 323.117 60.8633 323.117C60.2383 323.117 59.7246 322.941 59.3223 322.59C58.9238 322.234 58.7246 321.785 58.7246 321.242C58.7246 320.582 58.9746 320.07 59.4746 319.707C59.9785 319.34 60.6855 319.156 61.5957 319.156H62.6504V318.658C62.6504 318.279 62.5371 317.979 62.3105 317.756C62.084 317.529 61.75 317.416 61.3086 317.416C60.9219 317.416 60.5977 317.514 60.3359 317.709C60.0742 317.904 59.9434 318.141 59.9434 318.418H58.8535C58.8535 318.102 58.9648 317.797 59.1875 317.504C59.4141 317.207 59.7188 316.973 60.1016 316.801C60.4883 316.629 60.9121 316.543 61.373 316.543C62.1035 316.543 62.6758 316.727 63.0898 317.094C63.5039 317.457 63.7188 317.959 63.7344 318.6V321.518C63.7344 322.1 63.8086 322.562 63.957 322.906V323H62.8203ZM61.0215 322.174C61.3613 322.174 61.6836 322.086 61.9883 321.91C62.293 321.734 62.5137 321.506 62.6504 321.225V319.924H61.8008C60.4727 319.924 59.8086 320.312 59.8086 321.09C59.8086 321.43 59.9219 321.695 60.1484 321.887C60.375 322.078 60.666 322.174 61.0215 322.174ZM65.1699 319.777C65.1699 318.805 65.4004 318.023 65.8613 317.434C66.3223 316.84 66.9258 316.543 67.6719 316.543C68.4141 316.543 69.002 316.797 69.4355 317.305V314H70.5195V323H69.5234L69.4707 322.32C69.0371 322.852 68.4336 323.117 67.6602 323.117C66.9258 323.117 66.3262 322.816 65.8613 322.215C65.4004 321.613 65.1699 320.828 65.1699 319.859V319.777ZM66.2539 319.9C66.2539 320.619 66.4023 321.182 66.6992 321.588C66.9961 321.994 67.4062 322.197 67.9297 322.197C68.6172 322.197 69.1191 321.889 69.4355 321.271V318.359C69.1113 317.762 68.6133 317.463 67.9414 317.463C67.4102 317.463 66.9961 317.668 66.6992 318.078C66.4023 318.488 66.2539 319.096 66.2539 319.9ZM74.8379 323.117C73.9785 323.117 73.2793 322.836 72.7402 322.273C72.2012 321.707 71.9316 320.951 71.9316 320.006V319.807C71.9316 319.178 72.0508 318.617 72.2891 318.125C72.5312 317.629 72.8672 317.242 73.2969 316.965C73.7305 316.684 74.1992 316.543 74.7031 316.543C75.5273 316.543 76.168 316.814 76.625 317.357C77.082 317.9 77.3105 318.678 77.3105 319.689V320.141H73.0156C73.0312 320.766 73.2129 321.271 73.5605 321.658C73.9121 322.041 74.3574 322.232 74.8965 322.232C75.2793 322.232 75.6035 322.154 75.8691 321.998C76.1348 321.842 76.3672 321.635 76.5664 321.377L77.2285 321.893C76.6973 322.709 75.9004 323.117 74.8379 323.117ZM74.7031 317.434C74.2656 317.434 73.8984 317.594 73.6016 317.914C73.3047 318.23 73.1211 318.676 73.0508 319.25H76.2266V319.168C76.1953 318.617 76.0469 318.191 75.7812 317.891C75.5156 317.586 75.1562 317.434 74.7031 317.434ZM82.2617 321.318C82.2617 321.025 82.1504 320.799 81.9277 320.639C81.709 320.475 81.3242 320.334 80.7734 320.217C80.2266 320.1 79.791 319.959 79.4668 319.795C79.1465 319.631 78.9082 319.436 78.752 319.209C78.5996 318.982 78.5234 318.713 78.5234 318.4C78.5234 317.881 78.7422 317.441 79.1797 317.082C79.6211 316.723 80.1836 316.543 80.8672 316.543C81.5859 316.543 82.168 316.729 82.6133 317.1C83.0625 317.471 83.2871 317.945 83.2871 318.523H82.1973C82.1973 318.227 82.0703 317.971 81.8164 317.756C81.5664 317.541 81.25 317.434 80.8672 317.434C80.4727 317.434 80.1641 317.52 79.9414 317.691C79.7188 317.863 79.6074 318.088 79.6074 318.365C79.6074 318.627 79.7109 318.824 79.918 318.957C80.125 319.09 80.498 319.217 81.0371 319.338C81.5801 319.459 82.0195 319.604 82.3555 319.771C82.6914 319.939 82.9395 320.143 83.0996 320.381C83.2637 320.615 83.3457 320.902 83.3457 321.242C83.3457 321.809 83.1191 322.264 82.666 322.607C82.2129 322.947 81.625 323.117 80.9023 323.117C80.3945 323.117 79.9453 323.027 79.5547 322.848C79.1641 322.668 78.8574 322.418 78.6348 322.098C78.416 321.773 78.3066 321.424 78.3066 321.049H79.3906C79.4102 321.412 79.5547 321.701 79.8242 321.916C80.0977 322.127 80.457 322.232 80.9023 322.232C81.3125 322.232 81.6406 322.15 81.8867 321.986C82.1367 321.818 82.2617 321.596 82.2617 321.318ZM93.3477 321.506L94.5664 316.66H95.6504L93.8047 323H92.9258L91.3848 318.195L89.8848 323H89.0059L87.166 316.66H88.2441L89.4922 321.406L90.9688 316.66H91.8418L93.3477 321.506ZM97.9355 323H96.8516V316.66H97.9355V323ZM96.7637 314.979C96.7637 314.803 96.8164 314.654 96.9219 314.533C97.0312 314.412 97.1914 314.352 97.4023 314.352C97.6133 314.352 97.7734 314.412 97.8828 314.533C97.9922 314.654 98.0469 314.803 98.0469 314.979C98.0469 315.154 97.9922 315.301 97.8828 315.418C97.7734 315.535 97.6133 315.594 97.4023 315.594C97.1914 315.594 97.0312 315.535 96.9219 315.418C96.8164 315.301 96.7637 315.154 96.7637 314.979ZM100.854 323H99.7695V314H100.854V323ZM103.771 323H102.688V314H103.771V323ZM109.959 315.125V316.66H111.143V317.498H109.959V321.43C109.959 321.684 110.012 321.875 110.117 322.004C110.223 322.129 110.402 322.191 110.656 322.191C110.781 322.191 110.953 322.168 111.172 322.121V323C110.887 323.078 110.609 323.117 110.34 323.117C109.855 323.117 109.49 322.971 109.244 322.678C108.998 322.385 108.875 321.969 108.875 321.43V317.498H107.721V316.66H108.875V315.125H109.959ZM116.328 323C116.266 322.875 116.215 322.652 116.176 322.332C115.672 322.855 115.07 323.117 114.371 323.117C113.746 323.117 113.232 322.941 112.83 322.59C112.432 322.234 112.232 321.785 112.232 321.242C112.232 320.582 112.482 320.07 112.982 319.707C113.486 319.34 114.193 319.156 115.104 319.156H116.158V318.658C116.158 318.279 116.045 317.979 115.818 317.756C115.592 317.529 115.258 317.416 114.816 317.416C114.43 317.416 114.105 317.514 113.844 317.709C113.582 317.904 113.451 318.141 113.451 318.418H112.361C112.361 318.102 112.473 317.797 112.695 317.504C112.922 317.207 113.227 316.973 113.609 316.801C113.996 316.629 114.42 316.543 114.881 316.543C115.611 316.543 116.184 316.727 116.598 317.094C117.012 317.457 117.227 317.959 117.242 318.6V321.518C117.242 322.1 117.316 322.562 117.465 322.906V323H116.328ZM114.529 322.174C114.869 322.174 115.191 322.086 115.496 321.91C115.801 321.734 116.021 321.506 116.158 321.225V319.924H115.309C113.98 319.924 113.316 320.312 113.316 321.09C113.316 321.43 113.43 321.695 113.656 321.887C113.883 322.078 114.174 322.174 114.529 322.174ZM120.711 320.064L120.031 320.773V323H118.947V314H120.031V319.443L120.611 318.746L122.586 316.66H123.904L121.438 319.309L124.191 323H122.92L120.711 320.064ZM127.537 323.117C126.678 323.117 125.979 322.836 125.439 322.273C124.9 321.707 124.631 320.951 124.631 320.006V319.807C124.631 319.178 124.75 318.617 124.988 318.125C125.23 317.629 125.566 317.242 125.996 316.965C126.43 316.684 126.898 316.543 127.402 316.543C128.227 316.543 128.867 316.814 129.324 317.357C129.781 317.9 130.01 318.678 130.01 319.689V320.141H125.715C125.73 320.766 125.912 321.271 126.26 321.658C126.611 322.041 127.057 322.232 127.596 322.232C127.979 322.232 128.303 322.154 128.568 321.998C128.834 321.842 129.066 321.635 129.266 321.377L129.928 321.893C129.396 322.709 128.6 323.117 127.537 323.117ZM127.402 317.434C126.965 317.434 126.598 317.594 126.301 317.914C126.004 318.23 125.82 318.676 125.75 319.25H128.926V319.168C128.895 318.617 128.746 318.191 128.48 317.891C128.215 317.586 127.855 317.434 127.402 317.434ZM138.16 323C138.098 322.875 138.047 322.652 138.008 322.332C137.504 322.855 136.902 323.117 136.203 323.117C135.578 323.117 135.064 322.941 134.662 322.59C134.264 322.234 134.064 321.785 134.064 321.242C134.064 320.582 134.314 320.07 134.814 319.707C135.318 319.34 136.025 319.156 136.936 319.156H137.99V318.658C137.99 318.279 137.877 317.979 137.65 317.756C137.424 317.529 137.09 317.416 136.648 317.416C136.262 317.416 135.938 317.514 135.676 317.709C135.414 317.904 135.283 318.141 135.283 318.418H134.193C134.193 318.102 134.305 317.797 134.527 317.504C134.754 317.207 135.059 316.973 135.441 316.801C135.828 316.629 136.252 316.543 136.713 316.543C137.443 316.543 138.016 316.727 138.43 317.094C138.844 317.457 139.059 317.959 139.074 318.6V321.518C139.074 322.1 139.148 322.562 139.297 322.906V323H138.16ZM136.361 322.174C136.701 322.174 137.023 322.086 137.328 321.91C137.633 321.734 137.854 321.506 137.99 321.225V319.924H137.141C135.812 319.924 135.148 320.312 135.148 321.09C135.148 321.43 135.262 321.695 135.488 321.887C135.715 322.078 136.006 322.174 136.361 322.174ZM143.316 322.232C143.703 322.232 144.041 322.115 144.33 321.881C144.619 321.646 144.779 321.354 144.811 321.002H145.836C145.816 321.365 145.691 321.711 145.461 322.039C145.23 322.367 144.922 322.629 144.535 322.824C144.152 323.02 143.746 323.117 143.316 323.117C142.453 323.117 141.766 322.83 141.254 322.256C140.746 321.678 140.492 320.889 140.492 319.889V319.707C140.492 319.09 140.605 318.541 140.832 318.061C141.059 317.58 141.383 317.207 141.805 316.941C142.23 316.676 142.732 316.543 143.311 316.543C144.021 316.543 144.611 316.756 145.08 317.182C145.553 317.607 145.805 318.16 145.836 318.84H144.811C144.779 318.43 144.623 318.094 144.342 317.832C144.064 317.566 143.721 317.434 143.311 317.434C142.76 317.434 142.332 317.633 142.027 318.031C141.727 318.426 141.576 318.998 141.576 319.748V319.953C141.576 320.684 141.727 321.246 142.027 321.641C142.328 322.035 142.758 322.232 143.316 322.232ZM148.525 315.125V316.66H149.709V317.498H148.525V321.43C148.525 321.684 148.578 321.875 148.684 322.004C148.789 322.129 148.969 322.191 149.223 322.191C149.348 322.191 149.52 322.168 149.738 322.121V323C149.453 323.078 149.176 323.117 148.906 323.117C148.422 323.117 148.057 322.971 147.811 322.678C147.564 322.385 147.441 321.969 147.441 321.43V317.498H146.287V316.66H147.441V315.125H148.525ZM152.158 323H151.074V316.66H152.158V323ZM150.986 314.979C150.986 314.803 151.039 314.654 151.145 314.533C151.254 314.412 151.414 314.352 151.625 314.352C151.836 314.352 151.996 314.412 152.105 314.533C152.215 314.654 152.27 314.803 152.27 314.979C152.27 315.154 152.215 315.301 152.105 315.418C151.996 315.535 151.836 315.594 151.625 315.594C151.414 315.594 151.254 315.535 151.145 315.418C151.039 315.301 150.986 315.154 150.986 314.979ZM153.611 319.771C153.611 319.15 153.732 318.592 153.975 318.096C154.221 317.6 154.561 317.217 154.994 316.947C155.432 316.678 155.93 316.543 156.488 316.543C157.352 316.543 158.049 316.842 158.58 317.439C159.115 318.037 159.383 318.832 159.383 319.824V319.9C159.383 320.518 159.264 321.072 159.025 321.564C158.791 322.053 158.453 322.434 158.012 322.707C157.574 322.98 157.07 323.117 156.5 323.117C155.641 323.117 154.943 322.818 154.408 322.221C153.877 321.623 153.611 320.832 153.611 319.848V319.771ZM154.701 319.9C154.701 320.604 154.863 321.168 155.188 321.594C155.516 322.02 155.953 322.232 156.5 322.232C157.051 322.232 157.488 322.018 157.812 321.588C158.137 321.154 158.299 320.549 158.299 319.771C158.299 319.076 158.133 318.514 157.801 318.084C157.473 317.65 157.035 317.434 156.488 317.434C155.953 317.434 155.521 317.646 155.193 318.072C154.865 318.498 154.701 319.107 154.701 319.9ZM161.768 316.66L161.803 317.457C162.287 316.848 162.92 316.543 163.701 316.543C165.041 316.543 165.717 317.299 165.729 318.811V323H164.645V318.805C164.641 318.348 164.535 318.01 164.328 317.791C164.125 317.572 163.807 317.463 163.373 317.463C163.021 317.463 162.713 317.557 162.447 317.744C162.182 317.932 161.975 318.178 161.826 318.482V323H160.742V316.66H161.768ZM171.518 323H170.434V316.66H171.518V323ZM170.346 314.979C170.346 314.803 170.398 314.654 170.504 314.533C170.613 314.412 170.773 314.352 170.984 314.352C171.195 314.352 171.355 314.412 171.465 314.533C171.574 314.654 171.629 314.803 171.629 314.979C171.629 315.154 171.574 315.301 171.465 315.418C171.355 315.535 171.195 315.594 170.984 315.594C170.773 315.594 170.613 315.535 170.504 315.418C170.398 315.301 170.346 315.154 170.346 314.979ZM174.283 316.66L174.318 317.457C174.803 316.848 175.436 316.543 176.217 316.543C177.557 316.543 178.232 317.299 178.244 318.811V323H177.16V318.805C177.156 318.348 177.051 318.01 176.844 317.791C176.641 317.572 176.322 317.463 175.889 317.463C175.537 317.463 175.229 317.557 174.963 317.744C174.697 317.932 174.49 318.178 174.342 318.482V323H173.258V316.66H174.283ZM184.326 315.125V316.66H185.51V317.498H184.326V321.43C184.326 321.684 184.379 321.875 184.484 322.004C184.59 322.129 184.77 322.191 185.023 322.191C185.148 322.191 185.32 322.168 185.539 322.121V323C185.254 323.078 184.977 323.117 184.707 323.117C184.223 323.117 183.857 322.971 183.611 322.678C183.365 322.385 183.242 321.969 183.242 321.43V317.498H182.088V316.66H183.242V315.125H184.326ZM187.865 317.428C188.346 316.838 188.971 316.543 189.74 316.543C191.08 316.543 191.756 317.299 191.768 318.811V323H190.684V318.805C190.68 318.348 190.574 318.01 190.367 317.791C190.164 317.572 189.846 317.463 189.412 317.463C189.061 317.463 188.752 317.557 188.486 317.744C188.221 317.932 188.014 318.178 187.865 318.482V323H186.781V314H187.865V317.428ZM196.021 323.117C195.162 323.117 194.463 322.836 193.924 322.273C193.385 321.707 193.115 320.951 193.115 320.006V319.807C193.115 319.178 193.234 318.617 193.473 318.125C193.715 317.629 194.051 317.242 194.48 316.965C194.914 316.684 195.383 316.543 195.887 316.543C196.711 316.543 197.352 316.814 197.809 317.357C198.266 317.9 198.494 318.678 198.494 319.689V320.141H194.199C194.215 320.766 194.396 321.271 194.744 321.658C195.096 322.041 195.541 322.232 196.08 322.232C196.463 322.232 196.787 322.154 197.053 321.998C197.318 321.842 197.551 321.635 197.75 321.377L198.412 321.893C197.881 322.709 197.084 323.117 196.021 323.117ZM195.887 317.434C195.449 317.434 195.082 317.594 194.785 317.914C194.488 318.23 194.305 318.676 194.234 319.25H197.41V319.168C197.379 318.617 197.23 318.191 196.965 317.891C196.699 317.586 196.34 317.434 195.887 317.434ZM203.756 316.66L203.791 317.457C204.275 316.848 204.908 316.543 205.689 316.543C207.029 316.543 207.705 317.299 207.717 318.811V323H206.633V318.805C206.629 318.348 206.523 318.01 206.316 317.791C206.113 317.572 205.795 317.463 205.361 317.463C205.01 317.463 204.701 317.557 204.436 317.744C204.17 317.932 203.963 318.178 203.814 318.482V323H202.73V316.66H203.756ZM211.982 323.117C211.123 323.117 210.424 322.836 209.885 322.273C209.346 321.707 209.076 320.951 209.076 320.006V319.807C209.076 319.178 209.195 318.617 209.434 318.125C209.676 317.629 210.012 317.242 210.441 316.965C210.875 316.684 211.344 316.543 211.848 316.543C212.672 316.543 213.312 316.814 213.77 317.357C214.227 317.9 214.455 318.678 214.455 319.689V320.141H210.16C210.176 320.766 210.357 321.271 210.705 321.658C211.057 322.041 211.502 322.232 212.041 322.232C212.424 322.232 212.748 322.154 213.014 321.998C213.279 321.842 213.512 321.635 213.711 321.377L214.373 321.893C213.842 322.709 213.045 323.117 211.982 323.117ZM211.848 317.434C211.41 317.434 211.043 317.594 210.746 317.914C210.449 318.23 210.266 318.676 210.195 319.25H213.371V319.168C213.34 318.617 213.191 318.191 212.926 317.891C212.66 317.586 212.301 317.434 211.848 317.434ZM217.842 318.975L219.248 316.66H220.514L218.439 319.795L220.578 323H219.324L217.859 320.627L216.395 323H215.135L217.273 319.795L215.199 316.66H216.453L217.842 318.975ZM223.139 315.125V316.66H224.322V317.498H223.139V321.43C223.139 321.684 223.191 321.875 223.297 322.004C223.402 322.129 223.582 322.191 223.836 322.191C223.961 322.191 224.133 322.168 224.352 322.121V323C224.066 323.078 223.789 323.117 223.52 323.117C223.035 323.117 222.67 322.971 222.424 322.678C222.178 322.385 222.055 321.969 222.055 321.43V317.498H220.9V316.66H222.055V315.125H223.139ZM23.5566 333.777C23.5566 332.805 23.7871 332.023 24.248 331.434C24.709 330.84 25.3125 330.543 26.0586 330.543C26.8008 330.543 27.3887 330.797 27.8223 331.305V328H28.9062V337H27.9102L27.8574 336.32C27.4238 336.852 26.8203 337.117 26.0469 337.117C25.3125 337.117 24.7129 336.816 24.248 336.215C23.7871 335.613 23.5566 334.828 23.5566 333.859V333.777ZM24.6406 333.9C24.6406 334.619 24.7891 335.182 25.0859 335.588C25.3828 335.994 25.793 336.197 26.3164 336.197C27.0039 336.197 27.5059 335.889 27.8223 335.271V332.359C27.498 331.762 27 331.463 26.3281 331.463C25.7969 331.463 25.3828 331.668 25.0859 332.078C24.7891 332.488 24.6406 333.096 24.6406 333.9ZM34.5078 337C34.4453 336.875 34.3945 336.652 34.3555 336.332C33.8516 336.855 33.25 337.117 32.5508 337.117C31.9258 337.117 31.4121 336.941 31.0098 336.59C30.6113 336.234 30.4121 335.785 30.4121 335.242C30.4121 334.582 30.6621 334.07 31.1621 333.707C31.666 333.34 32.373 333.156 33.2832 333.156H34.3379V332.658C34.3379 332.279 34.2246 331.979 33.998 331.756C33.7715 331.529 33.4375 331.416 32.9961 331.416C32.6094 331.416 32.2852 331.514 32.0234 331.709C31.7617 331.904 31.6309 332.141 31.6309 332.418H30.541C30.541 332.102 30.6523 331.797 30.875 331.504C31.1016 331.207 31.4062 330.973 31.7891 330.801C32.1758 330.629 32.5996 330.543 33.0605 330.543C33.791 330.543 34.3633 330.727 34.7773 331.094C35.1914 331.457 35.4062 331.959 35.4219 332.6V335.518C35.4219 336.1 35.4961 336.562 35.6445 336.906V337H34.5078ZM32.709 336.174C33.0488 336.174 33.3711 336.086 33.6758 335.91C33.9805 335.734 34.2012 335.506 34.3379 335.225V333.924H33.4883C32.1602 333.924 31.4961 334.312 31.4961 335.09C31.4961 335.43 31.6094 335.695 31.8359 335.887C32.0625 336.078 32.3535 336.174 32.709 336.174ZM39.1016 335.412L40.5781 330.66H41.7383L39.1895 337.979C38.7949 339.033 38.168 339.561 37.3086 339.561L37.1035 339.543L36.6992 339.467V338.588L36.9922 338.611C37.3594 338.611 37.6445 338.537 37.8477 338.389C38.0547 338.24 38.2246 337.969 38.3574 337.574L38.5977 336.93L36.3359 330.66H37.5195L39.1016 335.412ZM51.3008 335.506L52.5195 330.66H53.6035L51.7578 337H50.8789L49.3379 332.195L47.8379 337H46.959L45.1191 330.66H46.1973L47.4453 335.406L48.9219 330.66H49.7949L51.3008 335.506ZM55.7949 331.428C56.2754 330.838 56.9004 330.543 57.6699 330.543C59.0098 330.543 59.6855 331.299 59.6973 332.811V337H58.6133V332.805C58.6094 332.348 58.5039 332.01 58.2969 331.791C58.0938 331.572 57.7754 331.463 57.3418 331.463C56.9902 331.463 56.6816 331.557 56.416 331.744C56.1504 331.932 55.9434 332.178 55.7949 332.482V337H54.7109V328H55.7949V331.428ZM63.9512 337.117C63.0918 337.117 62.3926 336.836 61.8535 336.273C61.3145 335.707 61.0449 334.951 61.0449 334.006V333.807C61.0449 333.178 61.1641 332.617 61.4023 332.125C61.6445 331.629 61.9805 331.242 62.4102 330.965C62.8438 330.684 63.3125 330.543 63.8164 330.543C64.6406 330.543 65.2812 330.814 65.7383 331.357C66.1953 331.9 66.4238 332.678 66.4238 333.689V334.141H62.1289C62.1445 334.766 62.3262 335.271 62.6738 335.658C63.0254 336.041 63.4707 336.232 64.0098 336.232C64.3926 336.232 64.7168 336.154 64.9824 335.998C65.248 335.842 65.4805 335.635 65.6797 335.377L66.3418 335.893C65.8105 336.709 65.0137 337.117 63.9512 337.117ZM63.8164 331.434C63.3789 331.434 63.0117 331.594 62.7148 331.914C62.418 332.23 62.2344 332.676 62.1641 333.25H65.3398V333.168C65.3086 332.617 65.1602 332.191 64.8945 331.891C64.6289 331.586 64.2695 331.434 63.8164 331.434ZM68.709 330.66L68.7441 331.457C69.2285 330.848 69.8613 330.543 70.6426 330.543C71.9824 330.543 72.6582 331.299 72.6699 332.811V337H71.5859V332.805C71.582 332.348 71.4766 332.01 71.2695 331.791C71.0664 331.572 70.748 331.463 70.3145 331.463C69.9629 331.463 69.6543 331.557 69.3887 331.744C69.123 331.932 68.916 332.178 68.7676 332.482V337H67.6836V330.66H68.709ZM78.752 329.125V330.66H79.9355V331.498H78.752V335.43C78.752 335.684 78.8047 335.875 78.9102 336.004C79.0156 336.129 79.1953 336.191 79.4492 336.191C79.5742 336.191 79.7461 336.168 79.9648 336.121V337C79.6797 337.078 79.4023 337.117 79.1328 337.117C78.6484 337.117 78.2832 336.971 78.0371 336.678C77.791 336.385 77.668 335.969 77.668 335.43V331.498H76.5137V330.66H77.668V329.125H78.752ZM82.291 331.428C82.7715 330.838 83.3965 330.543 84.166 330.543C85.5059 330.543 86.1816 331.299 86.1934 332.811V337H85.1094V332.805C85.1055 332.348 85 332.01 84.793 331.791C84.5898 331.572 84.2715 331.463 83.8379 331.463C83.4863 331.463 83.1777 331.557 82.9121 331.744C82.6465 331.932 82.4395 332.178 82.291 332.482V337H81.207V328H82.291V331.428ZM90.4473 337.117C89.5879 337.117 88.8887 336.836 88.3496 336.273C87.8105 335.707 87.541 334.951 87.541 334.006V333.807C87.541 333.178 87.6602 332.617 87.8984 332.125C88.1406 331.629 88.4766 331.242 88.9062 330.965C89.3398 330.684 89.8086 330.543 90.3125 330.543C91.1367 330.543 91.7773 330.814 92.2344 331.357C92.6914 331.9 92.9199 332.678 92.9199 333.689V334.141H88.625C88.6406 334.766 88.8223 335.271 89.1699 335.658C89.5215 336.041 89.9668 336.232 90.5059 336.232C90.8887 336.232 91.2129 336.154 91.4785 335.998C91.7441 335.842 91.9766 335.635 92.1758 335.377L92.8379 335.893C92.3066 336.709 91.5098 337.117 90.4473 337.117ZM90.3125 331.434C89.875 331.434 89.5078 331.594 89.2109 331.914C88.9141 332.23 88.7305 332.676 88.6602 333.25H91.8359V333.168C91.8047 332.617 91.6562 332.191 91.3906 331.891C91.125 331.586 90.7656 331.434 90.3125 331.434ZM98.1758 330.66L98.2051 331.363C98.6699 330.816 99.2969 330.543 100.086 330.543C100.973 330.543 101.576 330.883 101.896 331.562C102.107 331.258 102.381 331.012 102.717 330.824C103.057 330.637 103.457 330.543 103.918 330.543C105.309 330.543 106.016 331.279 106.039 332.752V337H104.955V332.816C104.955 332.363 104.852 332.025 104.645 331.803C104.438 331.576 104.09 331.463 103.602 331.463C103.199 331.463 102.865 331.584 102.6 331.826C102.334 332.064 102.18 332.387 102.137 332.793V337H101.047V332.846C101.047 331.924 100.596 331.463 99.6934 331.463C98.9824 331.463 98.4961 331.766 98.2344 332.371V337H97.1504V330.66H98.1758ZM111.594 337C111.531 336.875 111.48 336.652 111.441 336.332C110.938 336.855 110.336 337.117 109.637 337.117C109.012 337.117 108.498 336.941 108.096 336.59C107.697 336.234 107.498 335.785 107.498 335.242C107.498 334.582 107.748 334.07 108.248 333.707C108.752 333.34 109.459 333.156 110.369 333.156H111.424V332.658C111.424 332.279 111.311 331.979 111.084 331.756C110.857 331.529 110.523 331.416 110.082 331.416C109.695 331.416 109.371 331.514 109.109 331.709C108.848 331.904 108.717 332.141 108.717 332.418H107.627C107.627 332.102 107.738 331.797 107.961 331.504C108.188 331.207 108.492 330.973 108.875 330.801C109.262 330.629 109.686 330.543 110.146 330.543C110.877 330.543 111.449 330.727 111.863 331.094C112.277 331.457 112.492 331.959 112.508 332.6V335.518C112.508 336.1 112.582 336.562 112.73 336.906V337H111.594ZM109.795 336.174C110.135 336.174 110.457 336.086 110.762 335.91C111.066 335.734 111.287 335.506 111.424 335.225V333.924H110.574C109.246 333.924 108.582 334.312 108.582 335.09C108.582 335.43 108.695 335.695 108.922 335.887C109.148 336.078 109.439 336.174 109.795 336.174ZM117.271 331.633C117.107 331.605 116.93 331.592 116.738 331.592C116.027 331.592 115.545 331.895 115.291 332.5V337H114.207V330.66H115.262L115.279 331.393C115.635 330.826 116.139 330.543 116.791 330.543C117.002 330.543 117.162 330.57 117.271 330.625V331.633ZM120.043 334.064L119.363 334.773V337H118.279V328H119.363V333.443L119.943 332.746L121.918 330.66H123.236L120.77 333.309L123.523 337H122.252L120.043 334.064ZM126.869 337.117C126.01 337.117 125.311 336.836 124.771 336.273C124.232 335.707 123.963 334.951 123.963 334.006V333.807C123.963 333.178 124.082 332.617 124.32 332.125C124.562 331.629 124.898 331.242 125.328 330.965C125.762 330.684 126.23 330.543 126.734 330.543C127.559 330.543 128.199 330.814 128.656 331.357C129.113 331.9 129.342 332.678 129.342 333.689V334.141H125.047C125.062 334.766 125.244 335.271 125.592 335.658C125.943 336.041 126.389 336.232 126.928 336.232C127.311 336.232 127.635 336.154 127.9 335.998C128.166 335.842 128.398 335.635 128.598 335.377L129.26 335.893C128.729 336.709 127.932 337.117 126.869 337.117ZM126.734 331.434C126.297 331.434 125.93 331.594 125.633 331.914C125.336 332.23 125.152 332.676 125.082 333.25H128.258V333.168C128.227 332.617 128.078 332.191 127.812 331.891C127.547 331.586 127.188 331.434 126.734 331.434ZM132.072 329.125V330.66H133.256V331.498H132.072V335.43C132.072 335.684 132.125 335.875 132.23 336.004C132.336 336.129 132.516 336.191 132.77 336.191C132.895 336.191 133.066 336.168 133.285 336.121V337C133 337.078 132.723 337.117 132.453 337.117C131.969 337.117 131.604 336.971 131.357 336.678C131.111 336.385 130.988 335.969 130.988 335.43V331.498H129.834V330.66H130.988V329.125H132.072ZM137.217 333.771C137.217 333.15 137.338 332.592 137.58 332.096C137.826 331.6 138.166 331.217 138.6 330.947C139.037 330.678 139.535 330.543 140.094 330.543C140.957 330.543 141.654 330.842 142.186 331.439C142.721 332.037 142.988 332.832 142.988 333.824V333.9C142.988 334.518 142.869 335.072 142.631 335.564C142.396 336.053 142.059 336.434 141.617 336.707C141.18 336.98 140.676 337.117 140.105 337.117C139.246 337.117 138.549 336.818 138.014 336.221C137.482 335.623 137.217 334.832 137.217 333.848V333.771ZM138.307 333.9C138.307 334.604 138.469 335.168 138.793 335.594C139.121 336.02 139.559 336.232 140.105 336.232C140.656 336.232 141.094 336.018 141.418 335.588C141.742 335.154 141.904 334.549 141.904 333.771C141.904 333.076 141.738 332.514 141.406 332.084C141.078 331.65 140.641 331.434 140.094 331.434C139.559 331.434 139.127 331.646 138.799 332.072C138.471 332.498 138.307 333.107 138.307 333.9ZM149.703 333.9C149.703 334.865 149.482 335.643 149.041 336.232C148.6 336.822 148.002 337.117 147.248 337.117C146.479 337.117 145.873 336.873 145.432 336.385V339.438H144.348V330.66H145.338L145.391 331.363C145.832 330.816 146.445 330.543 147.23 330.543C147.992 330.543 148.594 330.83 149.035 331.404C149.48 331.979 149.703 332.777 149.703 333.801V333.9ZM148.619 333.777C148.619 333.062 148.467 332.498 148.162 332.084C147.857 331.67 147.439 331.463 146.908 331.463C146.252 331.463 145.76 331.754 145.432 332.336V335.365C145.756 335.943 146.252 336.232 146.92 336.232C147.439 336.232 147.852 336.027 148.156 335.617C148.465 335.203 148.619 334.59 148.619 333.777ZM153.717 337.117C152.857 337.117 152.158 336.836 151.619 336.273C151.08 335.707 150.811 334.951 150.811 334.006V333.807C150.811 333.178 150.93 332.617 151.168 332.125C151.41 331.629 151.746 331.242 152.176 330.965C152.609 330.684 153.078 330.543 153.582 330.543C154.406 330.543 155.047 330.814 155.504 331.357C155.961 331.9 156.189 332.678 156.189 333.689V334.141H151.895C151.91 334.766 152.092 335.271 152.439 335.658C152.791 336.041 153.236 336.232 153.775 336.232C154.158 336.232 154.482 336.154 154.748 335.998C155.014 335.842 155.246 335.635 155.445 335.377L156.107 335.893C155.576 336.709 154.779 337.117 153.717 337.117ZM153.582 331.434C153.145 331.434 152.777 331.594 152.48 331.914C152.184 332.23 152 332.676 151.93 333.25H155.105V333.168C155.074 332.617 154.926 332.191 154.66 331.891C154.395 331.586 154.035 331.434 153.582 331.434ZM158.475 330.66L158.51 331.457C158.994 330.848 159.627 330.543 160.408 330.543C161.748 330.543 162.424 331.299 162.436 332.811V337H161.352V332.805C161.348 332.348 161.242 332.01 161.035 331.791C160.832 331.572 160.514 331.463 160.08 331.463C159.729 331.463 159.42 331.557 159.154 331.744C158.889 331.932 158.682 332.178 158.533 332.482V337H157.449V330.66H158.475ZM167.762 335.318C167.762 335.025 167.65 334.799 167.428 334.639C167.209 334.475 166.824 334.334 166.273 334.217C165.727 334.1 165.291 333.959 164.967 333.795C164.646 333.631 164.408 333.436 164.252 333.209C164.1 332.982 164.023 332.713 164.023 332.4C164.023 331.881 164.242 331.441 164.68 331.082C165.121 330.723 165.684 330.543 166.367 330.543C167.086 330.543 167.668 330.729 168.113 331.1C168.562 331.471 168.787 331.945 168.787 332.523H167.697C167.697 332.227 167.57 331.971 167.316 331.756C167.066 331.541 166.75 331.434 166.367 331.434C165.973 331.434 165.664 331.52 165.441 331.691C165.219 331.863 165.107 332.088 165.107 332.365C165.107 332.627 165.211 332.824 165.418 332.957C165.625 333.09 165.998 333.217 166.537 333.338C167.08 333.459 167.52 333.604 167.855 333.771C168.191 333.939 168.439 334.143 168.6 334.381C168.764 334.615 168.846 334.902 168.846 335.242C168.846 335.809 168.619 336.264 168.166 336.607C167.713 336.947 167.125 337.117 166.402 337.117C165.895 337.117 165.445 337.027 165.055 336.848C164.664 336.668 164.357 336.418 164.135 336.098C163.916 335.773 163.807 335.424 163.807 335.049H164.891C164.91 335.412 165.055 335.701 165.324 335.916C165.598 336.127 165.957 336.232 166.402 336.232C166.812 336.232 167.141 336.15 167.387 335.986C167.637 335.818 167.762 335.596 167.762 335.318ZM177.148 337C177.086 336.875 177.035 336.652 176.996 336.332C176.492 336.855 175.891 337.117 175.191 337.117C174.566 337.117 174.053 336.941 173.65 336.59C173.252 336.234 173.053 335.785 173.053 335.242C173.053 334.582 173.303 334.07 173.803 333.707C174.307 333.34 175.014 333.156 175.924 333.156H176.979V332.658C176.979 332.279 176.865 331.979 176.639 331.756C176.412 331.529 176.078 331.416 175.637 331.416C175.25 331.416 174.926 331.514 174.664 331.709C174.402 331.904 174.271 332.141 174.271 332.418H173.182C173.182 332.102 173.293 331.797 173.516 331.504C173.742 331.207 174.047 330.973 174.43 330.801C174.816 330.629 175.24 330.543 175.701 330.543C176.432 330.543 177.004 330.727 177.418 331.094C177.832 331.457 178.047 331.959 178.062 332.6V335.518C178.062 336.1 178.137 336.562 178.285 336.906V337H177.148ZM175.35 336.174C175.689 336.174 176.012 336.086 176.316 335.91C176.621 335.734 176.842 335.506 176.979 335.225V333.924H176.129C174.801 333.924 174.137 334.312 174.137 335.09C174.137 335.43 174.25 335.695 174.477 335.887C174.703 336.078 174.994 336.174 175.35 336.174ZM179.504 333.777C179.504 332.789 179.732 332.004 180.189 331.422C180.646 330.836 181.252 330.543 182.006 330.543C182.779 330.543 183.383 330.816 183.816 331.363L183.869 330.66H184.859V336.848C184.859 337.668 184.615 338.314 184.127 338.787C183.643 339.26 182.99 339.496 182.17 339.496C181.713 339.496 181.266 339.398 180.828 339.203C180.391 339.008 180.057 338.74 179.826 338.4L180.389 337.75C180.854 338.324 181.422 338.611 182.094 338.611C182.621 338.611 183.031 338.463 183.324 338.166C183.621 337.869 183.77 337.451 183.77 336.912V336.367C183.336 336.867 182.744 337.117 181.994 337.117C181.252 337.117 180.65 336.818 180.189 336.221C179.732 335.623 179.504 334.809 179.504 333.777ZM180.594 333.9C180.594 334.615 180.74 335.178 181.033 335.588C181.326 335.994 181.736 336.197 182.264 336.197C182.947 336.197 183.449 335.887 183.77 335.266V332.371C183.438 331.766 182.939 331.463 182.275 331.463C181.748 331.463 181.336 331.668 181.039 332.078C180.742 332.488 180.594 333.096 180.594 333.9ZM190.414 337C190.352 336.875 190.301 336.652 190.262 336.332C189.758 336.855 189.156 337.117 188.457 337.117C187.832 337.117 187.318 336.941 186.916 336.59C186.518 336.234 186.318 335.785 186.318 335.242C186.318 334.582 186.568 334.07 187.068 333.707C187.572 333.34 188.279 333.156 189.189 333.156H190.244V332.658C190.244 332.279 190.131 331.979 189.904 331.756C189.678 331.529 189.344 331.416 188.902 331.416C188.516 331.416 188.191 331.514 187.93 331.709C187.668 331.904 187.537 332.141 187.537 332.418H186.447C186.447 332.102 186.559 331.797 186.781 331.504C187.008 331.207 187.312 330.973 187.695 330.801C188.082 330.629 188.506 330.543 188.967 330.543C189.697 330.543 190.27 330.727 190.684 331.094C191.098 331.457 191.312 331.959 191.328 332.6V335.518C191.328 336.1 191.402 336.562 191.551 336.906V337H190.414ZM188.615 336.174C188.955 336.174 189.277 336.086 189.582 335.91C189.887 335.734 190.107 335.506 190.244 335.225V333.924H189.395C188.066 333.924 187.402 334.312 187.402 335.09C187.402 335.43 187.516 335.695 187.742 335.887C187.969 336.078 188.26 336.174 188.615 336.174ZM194.205 337H193.121V330.66H194.205V337ZM193.033 328.979C193.033 328.803 193.086 328.654 193.191 328.533C193.301 328.412 193.461 328.352 193.672 328.352C193.883 328.352 194.043 328.412 194.152 328.533C194.262 328.654 194.316 328.803 194.316 328.979C194.316 329.154 194.262 329.301 194.152 329.418C194.043 329.535 193.883 329.594 193.672 329.594C193.461 329.594 193.301 329.535 193.191 329.418C193.086 329.301 193.033 329.154 193.033 328.979ZM196.971 330.66L197.006 331.457C197.49 330.848 198.123 330.543 198.904 330.543C200.244 330.543 200.92 331.299 200.932 332.811V337H199.848V332.805C199.844 332.348 199.738 332.01 199.531 331.791C199.328 331.572 199.01 331.463 198.576 331.463C198.225 331.463 197.916 331.557 197.65 331.744C197.385 331.932 197.178 332.178 197.029 332.482V337H195.945V330.66H196.971ZM202.59 336.432C202.59 336.244 202.645 336.088 202.754 335.963C202.867 335.838 203.035 335.775 203.258 335.775C203.48 335.775 203.648 335.838 203.762 335.963C203.879 336.088 203.938 336.244 203.938 336.432C203.938 336.611 203.879 336.762 203.762 336.883C203.648 337.004 203.48 337.064 203.258 337.064C203.035 337.064 202.867 337.004 202.754 336.883C202.645 336.762 202.59 336.611 202.59 336.432Z" fill="#858383"/>
<g id="Group 54">
<path id="Input the amount above" d="M21.3804 79H20.1616V69.7578H21.3804V79ZM24.5415 72.1318L24.5796 72.9951C25.1043 72.335 25.7899 72.0049 26.6362 72.0049C28.0877 72.0049 28.8198 72.8237 28.8325 74.4614V79H27.6582V74.4551C27.654 73.96 27.5397 73.5939 27.3154 73.3569C27.0954 73.12 26.7505 73.0015 26.2808 73.0015C25.8999 73.0015 25.5656 73.103 25.2778 73.3062C24.9901 73.5093 24.7658 73.7759 24.605 74.106V79H23.4307V72.1318H24.5415ZM36.4053 75.6421C36.4053 76.6873 36.1662 77.5295 35.688 78.1685C35.2098 78.8075 34.5623 79.127 33.7456 79.127C32.9119 79.127 32.256 78.8625 31.7778 78.3335V81.6406H30.6035V72.1318H31.6763L31.7334 72.8936C32.2116 72.3011 32.876 72.0049 33.7266 72.0049C34.5518 72.0049 35.2035 72.3159 35.6816 72.938C36.1641 73.5601 36.4053 74.4255 36.4053 75.5342V75.6421ZM35.231 75.5088C35.231 74.7344 35.0659 74.1229 34.7358 73.6743C34.4058 73.2257 33.953 73.0015 33.3774 73.0015C32.6665 73.0015 32.1333 73.3167 31.7778 73.9473V77.229C32.1291 77.8553 32.6665 78.1685 33.3901 78.1685C33.953 78.1685 34.3994 77.9463 34.7295 77.502C35.0638 77.0534 35.231 76.389 35.231 75.5088ZM42.1436 78.3208C41.6865 78.8582 41.0158 79.127 40.1313 79.127C39.3993 79.127 38.8407 78.9154 38.4556 78.4922C38.0747 78.0648 37.8822 77.4342 37.8779 76.6006V72.1318H39.0522V76.5688C39.0522 77.6099 39.4754 78.1304 40.3218 78.1304C41.2189 78.1304 41.8156 77.7961 42.1118 77.1274V72.1318H43.2861V79H42.1689L42.1436 78.3208ZM46.6694 70.4688V72.1318H47.9517V73.0396H46.6694V77.2988C46.6694 77.5739 46.7266 77.7812 46.8408 77.9209C46.9551 78.0563 47.1497 78.124 47.4248 78.124C47.5602 78.124 47.7464 78.0986 47.9834 78.0479V79C47.6745 79.0846 47.374 79.127 47.082 79.127C46.5573 79.127 46.1616 78.9683 45.895 78.6509C45.6284 78.3335 45.4951 77.8828 45.4951 77.2988V73.0396H44.2446V72.1318H45.4951V70.4688H46.6694ZM54.147 70.4688V72.1318H55.4292V73.0396H54.147V77.2988C54.147 77.5739 54.2041 77.7812 54.3184 77.9209C54.4326 78.0563 54.6273 78.124 54.9023 78.124C55.0378 78.124 55.224 78.0986 55.4609 78.0479V79C55.152 79.0846 54.8516 79.127 54.5596 79.127C54.0348 79.127 53.6392 78.9683 53.3726 78.6509C53.106 78.3335 52.9727 77.8828 52.9727 77.2988V73.0396H51.7222V72.1318H52.9727V70.4688H54.147ZM57.981 72.9634C58.5015 72.3244 59.1785 72.0049 60.0122 72.0049C61.4637 72.0049 62.1958 72.8237 62.2085 74.4614V79H61.0342V74.4551C61.0299 73.96 60.9157 73.5939 60.6914 73.3569C60.4714 73.12 60.1265 73.0015 59.6567 73.0015C59.2759 73.0015 58.9416 73.103 58.6538 73.3062C58.366 73.5093 58.1418 73.7759 57.981 74.106V79H56.8066V69.25H57.981V72.9634ZM66.8169 79.127C65.8859 79.127 65.1284 78.8223 64.5444 78.2129C63.9604 77.5993 63.6685 76.7804 63.6685 75.7563V75.5405C63.6685 74.8592 63.7975 74.252 64.0557 73.7188C64.318 73.1813 64.682 72.7624 65.1475 72.4619C65.6172 72.1572 66.125 72.0049 66.6709 72.0049C67.5638 72.0049 68.2578 72.299 68.7529 72.8872C69.248 73.4754 69.4956 74.3175 69.4956 75.4136V75.9023H64.8428C64.8597 76.5794 65.0565 77.1274 65.4331 77.5464C65.814 77.9611 66.2964 78.1685 66.8804 78.1685C67.2951 78.1685 67.6463 78.0838 67.9341 77.9146C68.2218 77.7453 68.4736 77.521 68.6895 77.2417L69.4067 77.8003C68.8312 78.6847 67.9679 79.127 66.8169 79.127ZM66.6709 72.9697C66.1969 72.9697 65.7992 73.1432 65.4775 73.4902C65.1559 73.833 64.957 74.3154 64.8809 74.9375H68.3213V74.8486C68.2874 74.252 68.1266 73.7907 67.8389 73.4648C67.5511 73.1348 67.1618 72.9697 66.6709 72.9697ZM78.3252 79C78.2575 78.8646 78.2025 78.6234 78.1602 78.2764C77.6143 78.8434 76.9626 79.127 76.2051 79.127C75.528 79.127 74.9715 78.9365 74.5356 78.5557C74.104 78.1706 73.8882 77.6839 73.8882 77.0957C73.8882 76.3805 74.159 75.8262 74.7007 75.4326C75.2466 75.0348 76.0125 74.8359 76.9985 74.8359H78.1411V74.2964C78.1411 73.8859 78.0184 73.5601 77.7729 73.3188C77.5275 73.0734 77.1657 72.9507 76.6875 72.9507C76.2686 72.9507 75.9173 73.0565 75.6338 73.2681C75.3503 73.4797 75.2085 73.7357 75.2085 74.0361H74.0278C74.0278 73.6934 74.1484 73.3633 74.3896 73.0459C74.6351 72.7243 74.9652 72.4704 75.3799 72.2842C75.7988 72.098 76.258 72.0049 76.7573 72.0049C77.5487 72.0049 78.1686 72.2038 78.6172 72.6016C79.0658 72.9951 79.2985 73.5389 79.3154 74.2329V77.394C79.3154 78.0246 79.3958 78.526 79.5566 78.8984V79H78.3252ZM76.3765 78.105C76.7446 78.105 77.0938 78.0098 77.4238 77.8193C77.7539 77.6289 77.993 77.3813 78.1411 77.0767V75.6675H77.2207C75.7819 75.6675 75.0625 76.0885 75.0625 76.9307C75.0625 77.2988 75.1852 77.5866 75.4307 77.7939C75.6761 78.0013 75.9914 78.105 76.3765 78.105ZM82.2607 72.1318L82.2925 72.8936C82.7961 72.3011 83.4753 72.0049 84.3301 72.0049C85.2907 72.0049 85.9445 72.373 86.2915 73.1094C86.52 72.7793 86.8162 72.5127 87.1802 72.3096C87.5483 72.1064 87.9821 72.0049 88.4814 72.0049C89.988 72.0049 90.7539 72.8026 90.7793 74.3979V79H89.605V74.4678C89.605 73.9769 89.4928 73.6108 89.2686 73.3696C89.0443 73.1242 88.6676 73.0015 88.1387 73.0015C87.7028 73.0015 87.341 73.1326 87.0532 73.395C86.7655 73.6532 86.5983 74.0023 86.5518 74.4424V79H85.3711V74.4995C85.3711 73.5008 84.8823 73.0015 83.9048 73.0015C83.1346 73.0015 82.6077 73.3294 82.3242 73.9854V79H81.1499V72.1318H82.2607ZM92.2456 75.5024C92.2456 74.8296 92.3768 74.2244 92.6392 73.687C92.9058 73.1496 93.2739 72.7349 93.7437 72.4429C94.2176 72.1509 94.7572 72.0049 95.3623 72.0049C96.2975 72.0049 97.0529 72.3286 97.6284 72.9761C98.2082 73.6235 98.498 74.4847 98.498 75.5596V75.6421C98.498 76.3107 98.369 76.9116 98.1108 77.4448C97.8569 77.9738 97.4909 78.3864 97.0127 78.6826C96.5387 78.9788 95.9928 79.127 95.375 79.127C94.444 79.127 93.6886 78.8032 93.1089 78.1558C92.5334 77.5083 92.2456 76.6514 92.2456 75.585V75.5024ZM93.4263 75.6421C93.4263 76.4038 93.6019 77.0153 93.9531 77.4766C94.3086 77.9378 94.7826 78.1685 95.375 78.1685C95.9717 78.1685 96.4456 77.9357 96.7969 77.4702C97.1481 77.0005 97.3237 76.3446 97.3237 75.5024C97.3237 74.7492 97.1439 74.1398 96.7842 73.6743C96.4287 73.2046 95.9548 72.9697 95.3623 72.9697C94.7826 72.9697 94.3149 73.2004 93.9595 73.6616C93.604 74.1229 93.4263 74.783 93.4263 75.6421ZM104.211 78.3208C103.754 78.8582 103.083 79.127 102.199 79.127C101.467 79.127 100.908 78.9154 100.523 78.4922C100.142 78.0648 99.9495 77.4342 99.9453 76.6006V72.1318H101.12V76.5688C101.12 77.6099 101.543 78.1304 102.389 78.1304C103.286 78.1304 103.883 77.7961 104.179 77.1274V72.1318H105.354V79H104.236L104.211 78.3208ZM108.254 72.1318L108.292 72.9951C108.817 72.335 109.503 72.0049 110.349 72.0049C111.801 72.0049 112.533 72.8237 112.545 74.4614V79H111.371V74.4551C111.367 73.96 111.253 73.5939 111.028 73.3569C110.808 73.12 110.463 73.0015 109.994 73.0015C109.613 73.0015 109.278 73.103 108.991 73.3062C108.703 73.5093 108.479 73.7759 108.318 74.106V79H107.144V72.1318H108.254ZM115.91 70.4688V72.1318H117.192V73.0396H115.91V77.2988C115.91 77.5739 115.967 77.7812 116.081 77.9209C116.195 78.0563 116.39 78.124 116.665 78.124C116.8 78.124 116.987 78.0986 117.224 78.0479V79C116.915 79.0846 116.614 79.127 116.322 79.127C115.798 79.127 115.402 78.9683 115.135 78.6509C114.869 78.3335 114.735 77.8828 114.735 77.2988V73.0396H113.485V72.1318H114.735V70.4688H115.91ZM126.034 79C125.966 78.8646 125.911 78.6234 125.869 78.2764C125.323 78.8434 124.672 79.127 123.914 79.127C123.237 79.127 122.681 78.9365 122.245 78.5557C121.813 78.1706 121.597 77.6839 121.597 77.0957C121.597 76.3805 121.868 75.8262 122.41 75.4326C122.956 75.0348 123.722 74.8359 124.708 74.8359H125.85V74.2964C125.85 73.8859 125.727 73.5601 125.482 73.3188C125.236 73.0734 124.875 72.9507 124.396 72.9507C123.978 72.9507 123.626 73.0565 123.343 73.2681C123.059 73.4797 122.917 73.7357 122.917 74.0361H121.737C121.737 73.6934 121.857 73.3633 122.099 73.0459C122.344 72.7243 122.674 72.4704 123.089 72.2842C123.508 72.098 123.967 72.0049 124.466 72.0049C125.258 72.0049 125.878 72.2038 126.326 72.6016C126.775 72.9951 127.007 73.5389 127.024 74.2329V77.394C127.024 78.0246 127.105 78.526 127.266 78.8984V79H126.034ZM124.085 78.105C124.454 78.105 124.803 78.0098 125.133 77.8193C125.463 77.6289 125.702 77.3813 125.85 77.0767V75.6675H124.93C123.491 75.6675 122.771 76.0885 122.771 76.9307C122.771 77.2988 122.894 77.5866 123.14 77.7939C123.385 78.0013 123.7 78.105 124.085 78.105ZM134.68 75.6421C134.68 76.6916 134.438 77.5358 133.956 78.1748C133.474 78.8096 132.826 79.127 132.014 79.127C131.146 79.127 130.475 78.8201 130.001 78.2065L129.944 79H128.865V69.25H130.04V72.8872C130.514 72.299 131.167 72.0049 132.001 72.0049C132.835 72.0049 133.488 72.3201 133.962 72.9507C134.441 73.5812 134.68 74.4445 134.68 75.5405V75.6421ZM133.505 75.5088C133.505 74.709 133.351 74.0911 133.042 73.6553C132.733 73.2194 132.289 73.0015 131.709 73.0015C130.935 73.0015 130.378 73.3612 130.04 74.0806V77.0513C130.399 77.7707 130.96 78.1304 131.722 78.1304C132.285 78.1304 132.722 77.9124 133.036 77.4766C133.349 77.0407 133.505 76.3848 133.505 75.5088ZM135.854 75.5024C135.854 74.8296 135.985 74.2244 136.248 73.687C136.514 73.1496 136.882 72.7349 137.352 72.4429C137.826 72.1509 138.366 72.0049 138.971 72.0049C139.906 72.0049 140.661 72.3286 141.237 72.9761C141.817 73.6235 142.106 74.4847 142.106 75.5596V75.6421C142.106 76.3107 141.977 76.9116 141.719 77.4448C141.465 77.9738 141.099 78.3864 140.621 78.6826C140.147 78.9788 139.601 79.127 138.983 79.127C138.052 79.127 137.297 78.8032 136.717 78.1558C136.142 77.5083 135.854 76.6514 135.854 75.585V75.5024ZM137.035 75.6421C137.035 76.4038 137.21 77.0153 137.562 77.4766C137.917 77.9378 138.391 78.1685 138.983 78.1685C139.58 78.1685 140.054 77.9357 140.405 77.4702C140.757 77.0005 140.932 76.3446 140.932 75.5024C140.932 74.7492 140.752 74.1398 140.393 73.6743C140.037 73.2046 139.563 72.9697 138.971 72.9697C138.391 72.9697 137.923 73.2004 137.568 73.6616C137.212 74.1229 137.035 74.783 137.035 75.6421ZM145.744 77.4067L147.445 72.1318H148.645L146.182 79H145.287L142.798 72.1318H143.998L145.744 77.4067ZM152.536 79.127C151.605 79.127 150.847 78.8223 150.263 78.2129C149.679 77.5993 149.387 76.7804 149.387 75.7563V75.5405C149.387 74.8592 149.516 74.252 149.774 73.7188C150.037 73.1813 150.401 72.7624 150.866 72.4619C151.336 72.1572 151.844 72.0049 152.39 72.0049C153.283 72.0049 153.977 72.299 154.472 72.8872C154.967 73.4754 155.214 74.3175 155.214 75.4136V75.9023H150.562C150.578 76.5794 150.775 77.1274 151.152 77.5464C151.533 77.9611 152.015 78.1685 152.599 78.1685C153.014 78.1685 153.365 78.0838 153.653 77.9146C153.941 77.7453 154.192 77.521 154.408 77.2417L155.125 77.8003C154.55 78.6847 153.687 79.127 152.536 79.127ZM152.39 72.9697C151.916 72.9697 151.518 73.1432 151.196 73.4902C150.875 73.833 150.676 74.3154 150.6 74.9375H154.04V74.8486C154.006 74.252 153.845 73.7907 153.558 73.4648C153.27 73.1348 152.881 72.9697 152.39 72.9697Z" fill="#2B2E55"/>
<rect id="Rectangle 133" x="14.5" y="65.5" width="145" height="20" stroke="#2B2E55"/>
<rect id="Rectangle 134" x="123.5" y="100.5" width="78" height="20" stroke="#2B2E55"/>
<path id="...then click" d="M133.914 113.384C133.914 113.181 133.973 113.012 134.092 112.876C134.215 112.741 134.396 112.673 134.638 112.673C134.879 112.673 135.061 112.741 135.184 112.876C135.311 113.012 135.374 113.181 135.374 113.384C135.374 113.579 135.311 113.742 135.184 113.873C135.061 114.004 134.879 114.07 134.638 114.07C134.396 114.07 134.215 114.004 134.092 113.873C133.973 113.742 133.914 113.579 133.914 113.384ZM137.342 113.384C137.342 113.181 137.401 113.012 137.52 112.876C137.642 112.741 137.824 112.673 138.065 112.673C138.307 112.673 138.489 112.741 138.611 112.876C138.738 113.012 138.802 113.181 138.802 113.384C138.802 113.579 138.738 113.742 138.611 113.873C138.489 114.004 138.307 114.07 138.065 114.07C137.824 114.07 137.642 114.004 137.52 113.873C137.401 113.742 137.342 113.579 137.342 113.384ZM140.77 113.384C140.77 113.181 140.829 113.012 140.947 112.876C141.07 112.741 141.252 112.673 141.493 112.673C141.734 112.673 141.916 112.741 142.039 112.876C142.166 113.012 142.229 113.181 142.229 113.384C142.229 113.579 142.166 113.742 142.039 113.873C141.916 114.004 141.734 114.07 141.493 114.07C141.252 114.07 141.07 114.004 140.947 113.873C140.829 113.742 140.77 113.579 140.77 113.384ZM145.765 105.469V107.132H147.047V108.04H145.765V112.299C145.765 112.574 145.822 112.781 145.937 112.921C146.051 113.056 146.245 113.124 146.521 113.124C146.656 113.124 146.842 113.099 147.079 113.048V114C146.77 114.085 146.47 114.127 146.178 114.127C145.653 114.127 145.257 113.968 144.991 113.651C144.724 113.333 144.591 112.883 144.591 112.299V108.04H143.34V107.132H144.591V105.469H145.765ZM149.599 107.963C150.12 107.324 150.797 107.005 151.63 107.005C153.082 107.005 153.814 107.824 153.827 109.461V114H152.652V109.455C152.648 108.96 152.534 108.594 152.31 108.357C152.09 108.12 151.745 108.001 151.275 108.001C150.894 108.001 150.56 108.103 150.272 108.306C149.984 108.509 149.76 108.776 149.599 109.106V114H148.425V104.25H149.599V107.963ZM158.435 114.127C157.504 114.127 156.747 113.822 156.163 113.213C155.579 112.599 155.287 111.78 155.287 110.756V110.541C155.287 109.859 155.416 109.252 155.674 108.719C155.936 108.181 156.3 107.762 156.766 107.462C157.235 107.157 157.743 107.005 158.289 107.005C159.182 107.005 159.876 107.299 160.371 107.887C160.866 108.475 161.114 109.318 161.114 110.414V110.902H156.461C156.478 111.579 156.675 112.127 157.051 112.546C157.432 112.961 157.915 113.168 158.499 113.168C158.913 113.168 159.264 113.084 159.552 112.915C159.84 112.745 160.092 112.521 160.308 112.242L161.025 112.8C160.449 113.685 159.586 114.127 158.435 114.127ZM158.289 107.97C157.815 107.97 157.417 108.143 157.096 108.49C156.774 108.833 156.575 109.315 156.499 109.938H159.939V109.849C159.906 109.252 159.745 108.791 159.457 108.465C159.169 108.135 158.78 107.97 158.289 107.97ZM163.589 107.132L163.627 107.995C164.152 107.335 164.838 107.005 165.684 107.005C167.136 107.005 167.868 107.824 167.88 109.461V114H166.706V109.455C166.702 108.96 166.588 108.594 166.363 108.357C166.143 108.12 165.798 108.001 165.329 108.001C164.948 108.001 164.613 108.103 164.326 108.306C164.038 108.509 163.814 108.776 163.653 109.106V114H162.479V107.132H163.589ZM175.631 113.168C176.05 113.168 176.416 113.042 176.729 112.788C177.042 112.534 177.216 112.216 177.25 111.835H178.36C178.339 112.229 178.204 112.604 177.954 112.959C177.704 113.314 177.37 113.598 176.951 113.81C176.536 114.021 176.096 114.127 175.631 114.127C174.696 114.127 173.951 113.816 173.396 113.194C172.846 112.568 172.571 111.713 172.571 110.629V110.433C172.571 109.764 172.694 109.169 172.939 108.649C173.185 108.128 173.536 107.724 173.993 107.437C174.454 107.149 174.998 107.005 175.625 107.005C176.395 107.005 177.034 107.236 177.542 107.697C178.054 108.158 178.326 108.757 178.36 109.493H177.25C177.216 109.049 177.046 108.685 176.742 108.401C176.441 108.114 176.069 107.97 175.625 107.97C175.028 107.97 174.564 108.186 174.234 108.617C173.909 109.045 173.746 109.665 173.746 110.477V110.699C173.746 111.491 173.909 112.1 174.234 112.527C174.56 112.955 175.026 113.168 175.631 113.168ZM180.957 114H179.782V104.25H180.957V114ZM184.118 114H182.943V107.132H184.118V114ZM182.848 105.31C182.848 105.12 182.905 104.959 183.02 104.828C183.138 104.696 183.312 104.631 183.54 104.631C183.769 104.631 183.942 104.696 184.061 104.828C184.179 104.959 184.238 105.12 184.238 105.31C184.238 105.5 184.179 105.659 184.061 105.786C183.942 105.913 183.769 105.977 183.54 105.977C183.312 105.977 183.138 105.913 183.02 105.786C182.905 105.659 182.848 105.5 182.848 105.31ZM188.758 113.168C189.177 113.168 189.543 113.042 189.856 112.788C190.169 112.534 190.343 112.216 190.376 111.835H191.487C191.466 112.229 191.331 112.604 191.081 112.959C190.831 113.314 190.497 113.598 190.078 113.81C189.663 114.021 189.223 114.127 188.758 114.127C187.823 114.127 187.078 113.816 186.523 113.194C185.973 112.568 185.698 111.713 185.698 110.629V110.433C185.698 109.764 185.821 109.169 186.066 108.649C186.312 108.128 186.663 107.724 187.12 107.437C187.581 107.149 188.125 107.005 188.751 107.005C189.522 107.005 190.161 107.236 190.668 107.697C191.181 108.158 191.453 108.757 191.487 109.493H190.376C190.343 109.049 190.173 108.685 189.869 108.401C189.568 108.114 189.196 107.97 188.751 107.97C188.155 107.97 187.691 108.186 187.361 108.617C187.035 109.045 186.873 109.665 186.873 110.477V110.699C186.873 111.491 187.035 112.1 187.361 112.527C187.687 112.955 188.153 113.168 188.758 113.168ZM194.725 110.82L193.988 111.588V114H192.814V104.25H193.988V110.147L194.617 109.392L196.756 107.132H198.184L195.512 110.001L198.495 114H197.118L194.725 110.82Z" fill="#2B2E55"/>
<path id="Arrow 4" d="M143.354 11.6464C143.158 11.4512 142.842 11.4512 142.646 11.6464L139.464 14.8284C139.269 15.0237 139.269 15.3403 139.464 15.5355C139.66 15.7308 139.976 15.7308 140.172 15.5355L143 12.7071L145.828 15.5355C146.024 15.7308 146.34 15.7308 146.536 15.5355C146.731 15.3403 146.731 15.0237 146.536 14.8284L143.354 11.6464ZM125 65.5C125.158 65.9743 125.158 65.9742 125.159 65.9741C125.159 65.974 125.159 65.9739 125.16 65.9737C125.161 65.9734 125.162 65.973 125.163 65.9726C125.166 65.9716 125.17 65.9703 125.175 65.9685C125.185 65.9651 125.199 65.9602 125.218 65.9537C125.255 65.9407 125.308 65.9215 125.377 65.8958C125.515 65.8445 125.714 65.7671 125.967 65.6614C126.471 65.4501 127.189 65.1252 128.047 64.6679C129.764 63.7538 132.052 62.308 134.341 60.1785C138.926 55.9114 143.5 48.9093 143.5 38L142.5 38C142.5 48.5907 138.074 55.3386 133.659 59.4465C131.448 61.5045 129.236 62.9024 127.578 63.7852C126.749 64.2264 126.06 64.5382 125.58 64.739C125.341 64.8393 125.153 64.9119 125.027 64.9589C124.964 64.9824 124.917 64.9996 124.885 65.0106C124.87 65.0161 124.858 65.0201 124.851 65.0226C124.847 65.0238 124.845 65.0247 124.843 65.0252C124.842 65.0255 124.842 65.0256 124.842 65.0257C124.842 65.0258 124.842 65.0257 124.842 65.0258C124.842 65.0257 124.842 65.0257 125 65.5ZM143.5 38L143.5 12L142.5 12L142.5 38L143.5 38Z" fill="#2B2E55"/>
<path id="Arrow 5" d="M192.646 208.354C192.842 208.549 193.158 208.549 193.354 208.354L196.536 205.172C196.731 204.976 196.731 204.66 196.536 204.464C196.34 204.269 196.024 204.269 195.828 204.464L193 207.293L190.172 204.464C189.976 204.269 189.66 204.269 189.464 204.464C189.269 204.66 189.269 204.976 189.464 205.172L192.646 208.354ZM192.5 121V208H193.5V121H192.5Z" fill="#2B2E55"/>
</g>
<path id="Confirm and go to the next trading day" d="M48.1836 243.667C48.1426 244.558 47.9023 245.346 47.4629 246.031C47.0234 246.711 46.4053 247.238 45.6084 247.613C44.8174 247.988 43.9121 248.176 42.8926 248.176C41.2109 248.176 39.8867 247.628 38.9199 246.532C37.9531 245.437 37.4697 243.89 37.4697 241.892V241.259C37.4697 240.005 37.6865 238.909 38.1201 237.972C38.5596 237.028 39.1895 236.302 40.0098 235.792C40.8301 235.276 41.7793 235.019 42.8574 235.019C44.4102 235.019 45.6582 235.429 46.6016 236.249C47.5449 237.063 48.0811 238.188 48.21 239.624H45.1338C45.1104 238.845 44.9141 238.285 44.5449 237.945C44.1758 237.605 43.6133 237.436 42.8574 237.436C42.0898 237.436 41.5273 237.723 41.1699 238.297C40.8125 238.871 40.625 239.788 40.6074 241.048V241.953C40.6074 243.318 40.7773 244.294 41.1172 244.88C41.4629 245.466 42.0547 245.759 42.8926 245.759C43.6016 245.759 44.1436 245.592 44.5186 245.258C44.8936 244.924 45.0928 244.394 45.1162 243.667H48.1836ZM49.1328 243.157C49.1328 242.208 49.3174 241.364 49.6865 240.626C50.0557 239.882 50.5859 239.311 51.2773 238.912C51.9688 238.514 52.7803 238.314 53.7119 238.314C55.1357 238.314 56.2578 238.757 57.0781 239.642C57.8984 240.521 58.3086 241.719 58.3086 243.236V243.342C58.3086 244.824 57.8955 246.002 57.0693 246.875C56.249 247.742 55.1357 248.176 53.7295 248.176C52.376 248.176 51.2891 247.771 50.4688 246.963C49.6484 246.148 49.2061 245.047 49.1416 243.658L49.1328 243.157ZM52.0947 243.342C52.0947 244.221 52.2324 244.865 52.5078 245.275C52.7832 245.686 53.1904 245.891 53.7295 245.891C54.7842 245.891 55.3232 245.079 55.3467 243.456V243.157C55.3467 241.452 54.8018 240.6 53.7119 240.6C52.7217 240.6 52.1855 241.335 52.1035 242.806L52.0947 243.342ZM62.334 238.49L62.4307 239.606C63.0869 238.745 63.9922 238.314 65.1465 238.314C66.1367 238.314 66.875 238.61 67.3613 239.202C67.8535 239.794 68.1084 240.685 68.126 241.874V248H65.1553V241.997C65.1553 241.517 65.0586 241.165 64.8652 240.942C64.6719 240.714 64.3203 240.6 63.8105 240.6C63.2305 240.6 62.7998 240.828 62.5186 241.285V248H59.5566V238.49H62.334ZM70.4639 248V240.547H69.084V238.49H70.4639V238.174C70.4814 236.908 70.8975 235.938 71.7119 235.265C72.4854 234.632 73.5664 234.315 74.9551 234.315C75.8281 234.315 76.8594 234.485 78.0488 234.825L77.6445 237.163L77.1523 237.031C76.5137 236.861 75.8398 236.776 75.1309 236.776C74 236.776 73.4346 237.292 73.4346 238.323V238.49H75.2979V240.547H73.4346V248H70.4639ZM79.4111 248H76.4316V238.49H79.4111V248ZM86.9697 241.171L85.9941 241.101C85.0625 241.101 84.4648 241.394 84.2012 241.979V248H81.2393V238.49H84.0166L84.1133 239.712C84.6113 238.78 85.3057 238.314 86.1963 238.314C86.5127 238.314 86.7881 238.35 87.0225 238.42L86.9697 241.171ZM90.8369 238.49L90.9336 239.606C91.6074 238.745 92.5127 238.314 93.6494 238.314C94.8506 238.314 95.6621 238.792 96.084 239.747C96.7285 238.792 97.6602 238.314 98.8789 238.314C100.807 238.314 101.797 239.48 101.85 241.812V248H98.8789V241.997C98.8789 241.511 98.7969 241.156 98.6328 240.934C98.4688 240.711 98.1699 240.6 97.7363 240.6C97.1504 240.6 96.7139 240.86 96.4268 241.382L96.4355 241.505V248H93.4648V242.015C93.4648 241.517 93.3857 241.156 93.2275 240.934C93.0693 240.711 92.7676 240.6 92.3223 240.6C91.7539 240.6 91.3203 240.86 91.0215 241.382V248H88.0596V238.49H90.8369ZM113.381 248C113.275 247.807 113.182 247.522 113.1 247.147C112.555 247.833 111.793 248.176 110.814 248.176C109.918 248.176 109.156 247.906 108.529 247.367C107.902 246.822 107.589 246.14 107.589 245.319C107.589 244.288 107.97 243.509 108.731 242.981C109.493 242.454 110.601 242.19 112.054 242.19H112.968V241.689C112.968 240.816 112.59 240.38 111.834 240.38C111.131 240.38 110.779 240.726 110.779 241.417H107.817C107.817 240.497 108.207 239.75 108.986 239.176C109.771 238.602 110.771 238.314 111.983 238.314C113.196 238.314 114.154 238.61 114.857 239.202C115.561 239.794 115.921 240.605 115.938 241.637V245.847C115.95 246.72 116.085 247.388 116.343 247.851V248H113.381ZM111.526 246.066C111.896 246.066 112.2 245.987 112.44 245.829C112.687 245.671 112.862 245.492 112.968 245.293V243.772H112.106C111.075 243.772 110.56 244.235 110.56 245.161C110.56 245.431 110.65 245.65 110.832 245.82C111.014 245.984 111.245 246.066 111.526 246.066ZM120.307 238.49L120.403 239.606C121.06 238.745 121.965 238.314 123.119 238.314C124.109 238.314 124.848 238.61 125.334 239.202C125.826 239.794 126.081 240.685 126.099 241.874V248H123.128V241.997C123.128 241.517 123.031 241.165 122.838 240.942C122.645 240.714 122.293 240.6 121.783 240.6C121.203 240.6 120.772 240.828 120.491 241.285V248H117.529V238.49H120.307ZM127.373 243.175C127.373 241.669 127.698 240.482 128.349 239.615C128.999 238.748 129.907 238.314 131.073 238.314C131.923 238.314 132.638 238.648 133.218 239.316V234.5H136.188V248H133.525L133.376 246.98C132.767 247.777 131.993 248.176 131.056 248.176C129.925 248.176 129.028 247.742 128.366 246.875C127.704 246.008 127.373 244.774 127.373 243.175ZM130.335 243.359C130.335 245.047 130.827 245.891 131.812 245.891C132.468 245.891 132.937 245.615 133.218 245.064V241.443C132.948 240.881 132.485 240.6 131.829 240.6C130.915 240.6 130.42 241.338 130.344 242.814L130.335 243.359ZM142.007 243.175C142.007 242.214 142.165 241.364 142.481 240.626C142.798 239.888 143.252 239.319 143.844 238.921C144.436 238.517 145.124 238.314 145.909 238.314C146.899 238.314 147.673 238.648 148.229 239.316L148.335 238.49H151.024V247.64C151.024 248.478 150.828 249.204 150.436 249.819C150.049 250.44 149.486 250.915 148.748 251.243C148.01 251.577 147.154 251.744 146.182 251.744C145.484 251.744 144.808 251.612 144.151 251.349C143.501 251.085 143.003 250.742 142.657 250.32L143.896 248.58C144.447 249.23 145.174 249.556 146.076 249.556C147.389 249.556 148.045 248.882 148.045 247.534V247.235C147.477 247.862 146.759 248.176 145.892 248.176C144.731 248.176 143.794 247.733 143.079 246.849C142.364 245.958 142.007 244.769 142.007 243.28V243.175ZM144.978 243.359C144.978 244.139 145.124 244.757 145.417 245.214C145.71 245.665 146.12 245.891 146.647 245.891C147.286 245.891 147.752 245.677 148.045 245.249V241.25C147.758 240.816 147.298 240.6 146.665 240.6C146.138 240.6 145.725 240.837 145.426 241.312C145.127 241.78 144.978 242.463 144.978 243.359ZM152.334 243.157C152.334 242.208 152.519 241.364 152.888 240.626C153.257 239.882 153.787 239.311 154.479 238.912C155.17 238.514 155.981 238.314 156.913 238.314C158.337 238.314 159.459 238.757 160.279 239.642C161.1 240.521 161.51 241.719 161.51 243.236V243.342C161.51 244.824 161.097 246.002 160.271 246.875C159.45 247.742 158.337 248.176 156.931 248.176C155.577 248.176 154.49 247.771 153.67 246.963C152.85 246.148 152.407 245.047 152.343 243.658L152.334 243.157ZM155.296 243.342C155.296 244.221 155.434 244.865 155.709 245.275C155.984 245.686 156.392 245.891 156.931 245.891C157.985 245.891 158.524 245.079 158.548 243.456V243.157C158.548 241.452 158.003 240.6 156.913 240.6C155.923 240.6 155.387 241.335 155.305 242.806L155.296 243.342ZM170.747 236.126V238.49H172.312V240.547H170.747V244.897C170.747 245.255 170.812 245.504 170.94 245.645C171.069 245.785 171.324 245.855 171.705 245.855C171.998 245.855 172.244 245.838 172.443 245.803V247.921C171.91 248.091 171.354 248.176 170.773 248.176C169.754 248.176 169.001 247.936 168.515 247.455C168.028 246.975 167.785 246.245 167.785 245.267V240.547H166.572V238.49H167.785V236.126H170.747ZM172.848 243.157C172.848 242.208 173.032 241.364 173.401 240.626C173.771 239.882 174.301 239.311 174.992 238.912C175.684 238.514 176.495 238.314 177.427 238.314C178.851 238.314 179.973 238.757 180.793 239.642C181.613 240.521 182.023 241.719 182.023 243.236V243.342C182.023 244.824 181.61 246.002 180.784 246.875C179.964 247.742 178.851 248.176 177.444 248.176C176.091 248.176 175.004 247.771 174.184 246.963C173.363 246.148 172.921 245.047 172.856 243.658L172.848 243.157ZM175.81 243.342C175.81 244.221 175.947 244.865 176.223 245.275C176.498 245.686 176.905 245.891 177.444 245.891C178.499 245.891 179.038 245.079 179.062 243.456V243.157C179.062 241.452 178.517 240.6 177.427 240.6C176.437 240.6 175.9 241.335 175.818 242.806L175.81 243.342ZM191.261 236.126V238.49H192.825V240.547H191.261V244.897C191.261 245.255 191.325 245.504 191.454 245.645C191.583 245.785 191.838 245.855 192.219 245.855C192.512 245.855 192.758 245.838 192.957 245.803V247.921C192.424 248.091 191.867 248.176 191.287 248.176C190.268 248.176 189.515 247.936 189.028 247.455C188.542 246.975 188.299 246.245 188.299 245.267V240.547H187.086V238.49H188.299V236.126H191.261ZM196.895 239.51C197.527 238.713 198.336 238.314 199.32 238.314C200.369 238.314 201.16 238.625 201.693 239.246C202.227 239.867 202.499 240.784 202.511 241.997V248H199.54V242.067C199.54 241.563 199.438 241.194 199.232 240.96C199.027 240.72 198.679 240.6 198.187 240.6C197.577 240.6 197.146 240.793 196.895 241.18V248H193.933V234.5H196.895V239.51ZM208.76 248.176C207.301 248.176 206.12 247.742 205.218 246.875C204.315 246.002 203.864 244.868 203.864 243.474V243.228C203.864 242.255 204.043 241.396 204.4 240.652C204.764 239.908 205.291 239.334 205.982 238.93C206.674 238.52 207.494 238.314 208.443 238.314C209.779 238.314 210.834 238.73 211.607 239.562C212.381 240.389 212.768 241.543 212.768 243.025V244.177H206.879C206.984 244.71 207.216 245.129 207.573 245.434C207.931 245.738 208.394 245.891 208.962 245.891C209.899 245.891 210.632 245.562 211.159 244.906L212.513 246.506C212.144 247.016 211.619 247.423 210.939 247.728C210.266 248.026 209.539 248.176 208.76 248.176ZM208.426 240.6C207.559 240.6 207.043 241.174 206.879 242.322H209.867V242.094C209.879 241.619 209.759 241.253 209.507 240.995C209.255 240.731 208.895 240.6 208.426 240.6ZM62.9668 259.49L63.0635 260.606C63.7197 259.745 64.625 259.314 65.7793 259.314C66.7695 259.314 67.5078 259.61 67.9941 260.202C68.4863 260.794 68.7412 261.685 68.7588 262.874V269H65.7881V262.997C65.7881 262.517 65.6914 262.165 65.498 261.942C65.3047 261.714 64.9531 261.6 64.4434 261.6C63.8633 261.6 63.4326 261.828 63.1514 262.285V269H60.1895V259.49H62.9668ZM75.0078 269.176C73.5488 269.176 72.3682 268.742 71.4658 267.875C70.5635 267.002 70.1123 265.868 70.1123 264.474V264.228C70.1123 263.255 70.291 262.396 70.6484 261.652C71.0117 260.908 71.5391 260.334 72.2305 259.93C72.9219 259.52 73.7422 259.314 74.6914 259.314C76.0273 259.314 77.082 259.73 77.8555 260.562C78.6289 261.389 79.0156 262.543 79.0156 264.025V265.177H73.127C73.2324 265.71 73.4639 266.129 73.8213 266.434C74.1787 266.738 74.6416 266.891 75.21 266.891C76.1475 266.891 76.8799 266.562 77.4072 265.906L78.7607 267.506C78.3916 268.016 77.8672 268.423 77.1875 268.728C76.5137 269.026 75.7871 269.176 75.0078 269.176ZM74.6738 261.6C73.8066 261.6 73.291 262.174 73.127 263.322H76.1152V263.094C76.127 262.619 76.0068 262.253 75.7549 261.995C75.5029 261.731 75.1426 261.6 74.6738 261.6ZM84.0693 262.109L85.4492 259.49H88.5254L86.0205 264.122L88.6484 269H85.5547L84.0605 266.188L82.5928 269H79.4814L82.1182 264.122L79.6221 259.49H82.7334L84.0693 262.109ZM92.9287 257.126V259.49H94.4932V261.547H92.9287V265.897C92.9287 266.255 92.9932 266.504 93.1221 266.645C93.251 266.785 93.5059 266.855 93.8867 266.855C94.1797 266.855 94.4258 266.838 94.625 266.803V268.921C94.0918 269.091 93.5352 269.176 92.9551 269.176C91.9355 269.176 91.1826 268.936 90.6963 268.455C90.21 267.975 89.9668 267.245 89.9668 266.267V261.547H88.7539V259.49H89.9668V257.126H92.9287ZM103.599 257.126V259.49H105.163V261.547H103.599V265.897C103.599 266.255 103.663 266.504 103.792 266.645C103.921 266.785 104.176 266.855 104.557 266.855C104.85 266.855 105.096 266.838 105.295 266.803V268.921C104.762 269.091 104.205 269.176 103.625 269.176C102.605 269.176 101.853 268.936 101.366 268.455C100.88 267.975 100.637 267.245 100.637 266.267V261.547H99.4238V259.49H100.637V257.126H103.599ZM112.089 262.171L111.113 262.101C110.182 262.101 109.584 262.394 109.32 262.979V269H106.358V259.49H109.136L109.232 260.712C109.73 259.78 110.425 259.314 111.315 259.314C111.632 259.314 111.907 259.35 112.142 259.42L112.089 262.171ZM118.25 269C118.145 268.807 118.051 268.522 117.969 268.147C117.424 268.833 116.662 269.176 115.684 269.176C114.787 269.176 114.025 268.906 113.398 268.367C112.771 267.822 112.458 267.14 112.458 266.319C112.458 265.288 112.839 264.509 113.601 263.981C114.362 263.454 115.47 263.19 116.923 263.19H117.837V262.689C117.837 261.816 117.459 261.38 116.703 261.38C116 261.38 115.648 261.726 115.648 262.417H112.687C112.687 261.497 113.076 260.75 113.855 260.176C114.641 259.602 115.64 259.314 116.853 259.314C118.065 259.314 119.023 259.61 119.727 260.202C120.43 260.794 120.79 261.605 120.808 262.637V266.847C120.819 267.72 120.954 268.388 121.212 268.851V269H118.25ZM116.396 267.066C116.765 267.066 117.069 266.987 117.31 266.829C117.556 266.671 117.731 266.492 117.837 266.293V264.772H116.976C115.944 264.772 115.429 265.235 115.429 266.161C115.429 266.431 115.52 266.65 115.701 266.82C115.883 266.984 116.114 267.066 116.396 267.066ZM122.082 264.175C122.082 262.669 122.407 261.482 123.058 260.615C123.708 259.748 124.616 259.314 125.782 259.314C126.632 259.314 127.347 259.648 127.927 260.316V255.5H130.897V269H128.234L128.085 267.98C127.476 268.777 126.702 269.176 125.765 269.176C124.634 269.176 123.737 268.742 123.075 267.875C122.413 267.008 122.082 265.774 122.082 264.175ZM125.044 264.359C125.044 266.047 125.536 266.891 126.521 266.891C127.177 266.891 127.646 266.615 127.927 266.064V262.443C127.657 261.881 127.194 261.6 126.538 261.6C125.624 261.6 125.129 262.338 125.053 263.814L125.044 264.359ZM135.705 269H132.734V259.49H135.705V269ZM132.559 257.038C132.559 256.616 132.711 256.271 133.016 256.001C133.32 255.731 133.716 255.597 134.202 255.597C134.688 255.597 135.084 255.731 135.389 256.001C135.693 256.271 135.846 256.616 135.846 257.038C135.846 257.46 135.693 257.806 135.389 258.075C135.084 258.345 134.688 258.479 134.202 258.479C133.716 258.479 133.32 258.345 133.016 258.075C132.711 257.806 132.559 257.46 132.559 257.038ZM140.258 259.49L140.354 260.606C141.011 259.745 141.916 259.314 143.07 259.314C144.061 259.314 144.799 259.61 145.285 260.202C145.777 260.794 146.032 261.685 146.05 262.874V269H143.079V262.997C143.079 262.517 142.982 262.165 142.789 261.942C142.596 261.714 142.244 261.6 141.734 261.6C141.154 261.6 140.724 261.828 140.442 262.285V269H137.48V259.49H140.258ZM147.351 264.175C147.351 263.214 147.509 262.364 147.825 261.626C148.142 260.888 148.596 260.319 149.188 259.921C149.779 259.517 150.468 259.314 151.253 259.314C152.243 259.314 153.017 259.648 153.573 260.316L153.679 259.49H156.368V268.64C156.368 269.478 156.172 270.204 155.779 270.819C155.393 271.44 154.83 271.915 154.092 272.243C153.354 272.577 152.498 272.744 151.525 272.744C150.828 272.744 150.151 272.612 149.495 272.349C148.845 272.085 148.347 271.742 148.001 271.32L149.24 269.58C149.791 270.23 150.518 270.556 151.42 270.556C152.732 270.556 153.389 269.882 153.389 268.534V268.235C152.82 268.862 152.103 269.176 151.235 269.176C150.075 269.176 149.138 268.733 148.423 267.849C147.708 266.958 147.351 265.769 147.351 264.28V264.175ZM150.321 264.359C150.321 265.139 150.468 265.757 150.761 266.214C151.054 266.665 151.464 266.891 151.991 266.891C152.63 266.891 153.096 266.677 153.389 266.249V262.25C153.102 261.816 152.642 261.6 152.009 261.6C151.481 261.6 151.068 261.837 150.77 262.312C150.471 262.78 150.321 263.463 150.321 264.359ZM162.16 264.175C162.16 262.669 162.485 261.482 163.136 260.615C163.786 259.748 164.694 259.314 165.86 259.314C166.71 259.314 167.425 259.648 168.005 260.316V255.5H170.976V269H168.312L168.163 267.98C167.554 268.777 166.78 269.176 165.843 269.176C164.712 269.176 163.815 268.742 163.153 267.875C162.491 267.008 162.16 265.774 162.16 264.175ZM165.122 264.359C165.122 266.047 165.614 266.891 166.599 266.891C167.255 266.891 167.724 266.615 168.005 266.064V262.443C167.735 261.881 167.272 261.6 166.616 261.6C165.702 261.6 165.207 262.338 165.131 263.814L165.122 264.359ZM178.016 269C177.91 268.807 177.816 268.522 177.734 268.147C177.189 268.833 176.428 269.176 175.449 269.176C174.553 269.176 173.791 268.906 173.164 268.367C172.537 267.822 172.224 267.14 172.224 266.319C172.224 265.288 172.604 264.509 173.366 263.981C174.128 263.454 175.235 263.19 176.688 263.19H177.603V262.689C177.603 261.816 177.225 261.38 176.469 261.38C175.766 261.38 175.414 261.726 175.414 262.417H172.452C172.452 261.497 172.842 260.75 173.621 260.176C174.406 259.602 175.405 259.314 176.618 259.314C177.831 259.314 178.789 259.61 179.492 260.202C180.195 260.794 180.556 261.605 180.573 262.637V266.847C180.585 267.72 180.72 268.388 180.978 268.851V269H178.016ZM176.161 267.066C176.53 267.066 176.835 266.987 177.075 266.829C177.321 266.671 177.497 266.492 177.603 266.293V264.772H176.741C175.71 264.772 175.194 265.235 175.194 266.161C175.194 266.431 175.285 266.65 175.467 266.82C175.648 266.984 175.88 267.066 176.161 267.066ZM185.882 264.852L187.464 259.49H190.637L186.761 270.591L186.594 270.995C186.043 272.226 185.07 272.841 183.676 272.841C183.289 272.841 182.882 272.782 182.454 272.665V270.547H182.841C183.257 270.547 183.573 270.485 183.79 270.362C184.013 270.245 184.177 270.031 184.282 269.721L184.52 269.088L181.215 259.49H184.379L185.882 264.852Z" fill="white"/>
<path id="After day 4" d="M22.3672 32.3633H17.7441L16.8652 35H14.0615L18.8252 22.2031H21.2686L26.0586 35H23.2549L22.3672 32.3633ZM18.4561 30.2275H21.6553L20.0469 25.4375L18.4561 30.2275ZM27.7812 35V27.3535H26.3662V25.4902H27.7812V24.6816C27.7812 23.6152 28.0859 22.7891 28.6953 22.2031C29.3105 21.6113 30.1689 21.3154 31.2705 21.3154C31.6221 21.3154 32.0527 21.374 32.5625 21.4912L32.5361 23.46C32.3252 23.4072 32.0674 23.3809 31.7627 23.3809C30.8076 23.3809 30.3301 23.8291 30.3301 24.7256V25.4902H32.2197V27.3535H30.3301V35H27.7812ZM36.5791 23.1523V25.4902H38.2051V27.3535H36.5791V32.0996C36.5791 32.4512 36.6465 32.7031 36.7812 32.8555C36.916 33.0078 37.1738 33.084 37.5547 33.084C37.8359 33.084 38.085 33.0635 38.3018 33.0225V34.9473C37.8037 35.0996 37.291 35.1758 36.7637 35.1758C34.9824 35.1758 34.0742 34.2764 34.0391 32.4775V27.3535H32.6504V25.4902H34.0391V23.1523H36.5791ZM43.9971 35.1758C42.6025 35.1758 41.4658 34.748 40.5869 33.8926C39.7139 33.0371 39.2773 31.8975 39.2773 30.4736V30.2275C39.2773 29.2725 39.4619 28.4199 39.8311 27.6699C40.2002 26.9141 40.7217 26.334 41.3955 25.9297C42.0752 25.5195 42.8486 25.3145 43.7158 25.3145C45.0166 25.3145 46.0391 25.7246 46.7832 26.5449C47.5332 27.3652 47.9082 28.5283 47.9082 30.0342V31.0713H41.8525C41.9346 31.6924 42.1807 32.1904 42.5908 32.5654C43.0068 32.9404 43.5312 33.1279 44.1641 33.1279C45.1426 33.1279 45.9072 32.7734 46.458 32.0645L47.7061 33.4619C47.3252 34.001 46.8096 34.4229 46.1592 34.7275C45.5088 35.0264 44.7881 35.1758 43.9971 35.1758ZM43.707 27.3711C43.2031 27.3711 42.793 27.541 42.4766 27.8809C42.166 28.2207 41.9668 28.707 41.8789 29.3398H45.4121V29.1377C45.4004 28.5752 45.248 28.1416 44.9551 27.8369C44.6621 27.5264 44.2461 27.3711 43.707 27.3711ZM54.7021 27.8721C54.3564 27.8252 54.0518 27.8018 53.7881 27.8018C52.8271 27.8018 52.1973 28.127 51.8984 28.7773V35H49.3584V25.4902H51.7578L51.8281 26.624C52.3379 25.751 53.0439 25.3145 53.9463 25.3145C54.2275 25.3145 54.4912 25.3525 54.7373 25.4287L54.7021 27.8721ZM60.0195 30.1748C60.0195 28.6924 60.3506 27.5117 61.0127 26.6328C61.6807 25.7539 62.5918 25.3145 63.7461 25.3145C64.6719 25.3145 65.4365 25.6602 66.04 26.3516V21.5H68.5889V35H66.2949L66.1719 33.9893C65.5391 34.7803 64.7246 35.1758 63.7285 35.1758C62.6094 35.1758 61.71 34.7363 61.0303 33.8574C60.3564 32.9727 60.0195 31.7451 60.0195 30.1748ZM62.5596 30.3594C62.5596 31.25 62.7148 31.9326 63.0254 32.4072C63.3359 32.8818 63.7871 33.1191 64.3789 33.1191C65.1641 33.1191 65.7178 32.7881 66.04 32.126V28.373C65.7236 27.7109 65.1758 27.3799 64.3965 27.3799C63.1719 27.3799 62.5596 28.373 62.5596 30.3594ZM76.0684 35C75.9512 34.7715 75.8662 34.4873 75.8135 34.1475C75.1982 34.833 74.3984 35.1758 73.4141 35.1758C72.4824 35.1758 71.709 34.9062 71.0938 34.3672C70.4844 33.8281 70.1797 33.1484 70.1797 32.3281C70.1797 31.3203 70.5518 30.5469 71.2959 30.0078C72.0459 29.4688 73.127 29.1963 74.5391 29.1904H75.708V28.6455C75.708 28.2061 75.5938 27.8545 75.3652 27.5908C75.1426 27.3271 74.7881 27.1953 74.3018 27.1953C73.874 27.1953 73.5371 27.2979 73.291 27.5029C73.0508 27.708 72.9307 27.9893 72.9307 28.3467H70.3906C70.3906 27.7959 70.5605 27.2861 70.9004 26.8174C71.2402 26.3486 71.7207 25.9824 72.3418 25.7188C72.9629 25.4492 73.6602 25.3145 74.4336 25.3145C75.6055 25.3145 76.5342 25.6104 77.2197 26.2021C77.9111 26.7881 78.2568 27.6143 78.2568 28.6807V32.8027C78.2627 33.7051 78.3887 34.3877 78.6348 34.8506V35H76.0684ZM73.9678 33.2334C74.3428 33.2334 74.6885 33.1514 75.0049 32.9873C75.3213 32.8174 75.5557 32.5918 75.708 32.3105V30.6758H74.7588C73.4873 30.6758 72.8105 31.1152 72.7285 31.9941L72.7197 32.1436C72.7197 32.46 72.8311 32.7207 73.0537 32.9258C73.2764 33.1309 73.5811 33.2334 73.9678 33.2334ZM83.6182 31.4053L85.376 25.4902H88.1006L84.2773 36.4766L84.0664 36.9775C83.498 38.2197 82.5605 38.8408 81.2539 38.8408C80.8848 38.8408 80.5098 38.7852 80.1289 38.6738V36.749L80.5156 36.7578C80.9961 36.7578 81.3535 36.6846 81.5879 36.5381C81.8281 36.3916 82.0156 36.1484 82.1504 35.8086L82.4492 35.0264L79.1182 25.4902H81.8516L83.6182 31.4053ZM100.994 30.1836H102.444V32.2314H100.994V35H98.4541V32.2314H93.207L93.0928 30.6318L98.4277 22.2031H100.994V30.1836ZM95.624 30.1836H98.4541V25.666L98.2871 25.9561L95.624 30.1836Z" fill="#2B2E55"/>
</g>
</svg>
