<svg width="249" height="373" viewBox="0 0 249 373" fill="none" xmlns="http://www.w3.org/2000/svg">
<g id="m1Action">
<rect id="back" x="1.5" y="1.5" width="246" height="370" fill="white" stroke="#E5E5E5" stroke-width="3"/>
<g id="Group 54">
<rect id="jumpToTrading" x="14.5" y="65.5" width="145" height="51" fill="white" stroke="#2B2E55"/>
<path id="Modify or Input new value above on the trading area" d="M21.647 69.7578L24.6685 77.2988L27.6899 69.7578H29.2705V79H28.0518V75.4009L28.166 71.5161L25.1318 79H24.1987L21.1709 71.5352L21.2915 75.4009V79H20.0728V69.7578H21.647ZM30.9272 75.5024C30.9272 74.8296 31.0584 74.2244 31.3208 73.687C31.5874 73.1496 31.9556 72.7349 32.4253 72.4429C32.8993 72.1509 33.4388 72.0049 34.0439 72.0049C34.9792 72.0049 35.7345 72.3286 36.3101 72.9761C36.8898 73.6235 37.1797 74.4847 37.1797 75.5596V75.6421C37.1797 76.3107 37.0506 76.9116 36.7925 77.4448C36.5386 77.9738 36.1725 78.3864 35.6943 78.6826C35.2204 78.9788 34.6745 79.127 34.0566 79.127C33.1257 79.127 32.3703 78.8032 31.7905 78.1558C31.215 77.5083 30.9272 76.6514 30.9272 75.585V75.5024ZM32.1079 75.6421C32.1079 76.4038 32.2835 77.0153 32.6348 77.4766C32.9902 77.9378 33.4642 78.1685 34.0566 78.1685C34.6533 78.1685 35.1273 77.9357 35.4785 77.4702C35.8298 77.0005 36.0054 76.3446 36.0054 75.5024C36.0054 74.7492 35.8255 74.1398 35.4658 73.6743C35.1104 73.2046 34.6364 72.9697 34.0439 72.9697C33.4642 72.9697 32.9966 73.2004 32.6411 73.6616C32.2856 74.1229 32.1079 74.783 32.1079 75.6421ZM38.3667 75.5088C38.3667 74.4551 38.6164 73.6087 39.1157 72.9697C39.6151 72.3265 40.2689 72.0049 41.0771 72.0049C41.8812 72.0049 42.5181 72.2799 42.9878 72.8301V69.25H44.1621V79H43.083L43.0259 78.2637C42.5562 78.8392 41.9023 79.127 41.0645 79.127C40.2689 79.127 39.6193 78.8011 39.1157 78.1494C38.6164 77.4977 38.3667 76.6471 38.3667 75.5977V75.5088ZM39.541 75.6421C39.541 76.4207 39.7018 77.0301 40.0234 77.4702C40.3451 77.9103 40.7894 78.1304 41.3564 78.1304C42.1012 78.1304 42.645 77.7961 42.9878 77.1274V73.9727C42.6366 73.3252 42.097 73.0015 41.3691 73.0015C40.7936 73.0015 40.3451 73.2236 40.0234 73.668C39.7018 74.1123 39.541 74.7703 39.541 75.6421ZM47.2661 79H46.0918V72.1318H47.2661V79ZM45.9966 70.3101C45.9966 70.1196 46.0537 69.9588 46.168 69.8276C46.2865 69.6965 46.46 69.6309 46.6885 69.6309C46.917 69.6309 47.0905 69.6965 47.209 69.8276C47.3275 69.9588 47.3867 70.1196 47.3867 70.3101C47.3867 70.5005 47.3275 70.6592 47.209 70.7861C47.0905 70.9131 46.917 70.9766 46.6885 70.9766C46.46 70.9766 46.2865 70.9131 46.168 70.7861C46.0537 70.6592 45.9966 70.5005 45.9966 70.3101ZM49.729 79V73.0396H48.6436V72.1318H49.729V71.4272C49.729 70.6909 49.9258 70.1217 50.3193 69.7197C50.7129 69.3177 51.2694 69.1167 51.9888 69.1167C52.2596 69.1167 52.5283 69.1527 52.7949 69.2246L52.7314 70.1768C52.5326 70.1387 52.321 70.1196 52.0967 70.1196C51.7158 70.1196 51.4217 70.2318 51.2144 70.4561C51.007 70.6761 50.9033 70.9935 50.9033 71.4082V72.1318H52.3696V73.0396H50.9033V79H49.729ZM55.918 77.2798L57.5176 72.1318H58.7744L56.0132 80.0601C55.5858 81.2026 54.9066 81.7739 53.9756 81.7739L53.7534 81.7549L53.3154 81.6724V80.7202L53.6328 80.7456C54.0306 80.7456 54.3395 80.6652 54.5596 80.5044C54.7839 80.3436 54.9679 80.0495 55.1118 79.6221L55.3721 78.9238L52.9219 72.1318H54.2041L55.918 77.2798ZM62.7417 75.5024C62.7417 74.8296 62.8729 74.2244 63.1353 73.687C63.4019 73.1496 63.77 72.7349 64.2397 72.4429C64.7137 72.1509 65.2533 72.0049 65.8584 72.0049C66.7936 72.0049 67.549 72.3286 68.1245 72.9761C68.7043 73.6235 68.9941 74.4847 68.9941 75.5596V75.6421C68.9941 76.3107 68.8651 76.9116 68.6069 77.4448C68.353 77.9738 67.987 78.3864 67.5088 78.6826C67.0348 78.9788 66.4889 79.127 65.8711 79.127C64.9401 79.127 64.1847 78.8032 63.605 78.1558C63.0295 77.5083 62.7417 76.6514 62.7417 75.585V75.5024ZM63.9224 75.6421C63.9224 76.4038 64.098 77.0153 64.4492 77.4766C64.8047 77.9378 65.2786 78.1685 65.8711 78.1685C66.4678 78.1685 66.9417 77.9357 67.293 77.4702C67.6442 77.0005 67.8198 76.3446 67.8198 75.5024C67.8198 74.7492 67.64 74.1398 67.2803 73.6743C66.9248 73.2046 66.4508 72.9697 65.8584 72.9697C65.2786 72.9697 64.811 73.2004 64.4556 73.6616C64.1001 74.1229 63.9224 74.783 63.9224 75.6421ZM73.7866 73.1855C73.6089 73.1559 73.4163 73.1411 73.209 73.1411C72.4388 73.1411 71.9162 73.4691 71.6411 74.125V79H70.4668V72.1318H71.6094L71.6284 72.9253C72.0135 72.3117 72.5594 72.0049 73.2661 72.0049C73.4946 72.0049 73.6681 72.0345 73.7866 72.0938V73.1855ZM79.5884 79H78.3696V69.7578H79.5884V79ZM82.7495 72.1318L82.7876 72.9951C83.3123 72.335 83.9979 72.0049 84.8442 72.0049C86.2957 72.0049 87.0278 72.8237 87.0405 74.4614V79H85.8662V74.4551C85.862 73.96 85.7477 73.5939 85.5234 73.3569C85.3034 73.12 84.9585 73.0015 84.4888 73.0015C84.1079 73.0015 83.7736 73.103 83.4858 73.3062C83.1981 73.5093 82.9738 73.7759 82.813 74.106V79H81.6387V72.1318H82.7495ZM94.6133 75.6421C94.6133 76.6873 94.3742 77.5295 93.896 78.1685C93.4178 78.8075 92.7703 79.127 91.9536 79.127C91.12 79.127 90.464 78.8625 89.9858 78.3335V81.6406H88.8115V72.1318H89.8843L89.9414 72.8936C90.4196 72.3011 91.084 72.0049 91.9346 72.0049C92.7598 72.0049 93.4115 72.3159 93.8896 72.938C94.3721 73.5601 94.6133 74.4255 94.6133 75.5342V75.6421ZM93.439 75.5088C93.439 74.7344 93.2739 74.1229 92.9438 73.6743C92.6138 73.2257 92.161 73.0015 91.5854 73.0015C90.8745 73.0015 90.3413 73.3167 89.9858 73.9473V77.229C90.3371 77.8553 90.8745 78.1685 91.5981 78.1685C92.161 78.1685 92.6074 77.9463 92.9375 77.502C93.2718 77.0534 93.439 76.389 93.439 75.5088ZM100.352 78.3208C99.8945 78.8582 99.2238 79.127 98.3394 79.127C97.6073 79.127 97.0487 78.9154 96.6636 78.4922C96.2827 78.0648 96.0902 77.4342 96.0859 76.6006V72.1318H97.2603V76.5688C97.2603 77.6099 97.6834 78.1304 98.5298 78.1304C99.4269 78.1304 100.024 77.7961 100.32 77.1274V72.1318H101.494V79H100.377L100.352 78.3208ZM104.877 70.4688V72.1318H106.16V73.0396H104.877V77.2988C104.877 77.5739 104.935 77.7812 105.049 77.9209C105.163 78.0563 105.358 78.124 105.633 78.124C105.768 78.124 105.954 78.0986 106.191 78.0479V79C105.882 79.0846 105.582 79.127 105.29 79.127C104.765 79.127 104.37 78.9683 104.103 78.6509C103.836 78.3335 103.703 77.8828 103.703 77.2988V73.0396H102.453V72.1318H103.703V70.4688H104.877ZM111.873 72.1318L111.911 72.9951C112.435 72.335 113.121 72.0049 113.967 72.0049C115.419 72.0049 116.151 72.8237 116.164 74.4614V79H114.989V74.4551C114.985 73.96 114.871 73.5939 114.646 73.3569C114.426 73.12 114.082 73.0015 113.612 73.0015C113.231 73.0015 112.897 73.103 112.609 73.3062C112.321 73.5093 112.097 73.7759 111.936 74.106V79H110.762V72.1318H111.873ZM120.785 79.127C119.854 79.127 119.096 78.8223 118.512 78.2129C117.928 77.5993 117.636 76.7804 117.636 75.7563V75.5405C117.636 74.8592 117.765 74.252 118.023 73.7188C118.286 73.1813 118.65 72.7624 119.115 72.4619C119.585 72.1572 120.093 72.0049 120.639 72.0049C121.532 72.0049 122.226 72.299 122.721 72.8872C123.216 73.4754 123.463 74.3175 123.463 75.4136V75.9023H118.811C118.827 76.5794 119.024 77.1274 119.401 77.5464C119.782 77.9611 120.264 78.1685 120.848 78.1685C121.263 78.1685 121.614 78.0838 121.902 77.9146C122.19 77.7453 122.441 77.521 122.657 77.2417L123.375 77.8003C122.799 78.6847 121.936 79.127 120.785 79.127ZM120.639 72.9697C120.165 72.9697 119.767 73.1432 119.445 73.4902C119.124 73.833 118.925 74.3154 118.849 74.9375H122.289V74.8486C122.255 74.252 122.094 73.7907 121.807 73.4648C121.519 73.1348 121.13 72.9697 120.639 72.9697ZM130.909 77.3813L132.229 72.1318H133.404L131.404 79H130.452L128.783 73.7949L127.158 79H126.206L124.212 72.1318H125.38L126.732 77.2734L128.332 72.1318H129.278L130.909 77.3813ZM22.1548 92.4067L23.856 87.1318H25.0557L22.5928 94H21.6978L19.2095 87.1318H20.4092L22.1548 92.4067ZM30.3242 94C30.2565 93.8646 30.2015 93.6234 30.1592 93.2764C29.6133 93.8434 28.9616 94.127 28.2041 94.127C27.527 94.127 26.9705 93.9365 26.5347 93.5557C26.103 93.1706 25.8872 92.6839 25.8872 92.0957C25.8872 91.3805 26.158 90.8262 26.6997 90.4326C27.2456 90.0348 28.0116 89.8359 28.9976 89.8359H30.1401V89.2964C30.1401 88.8859 30.0174 88.5601 29.772 88.3188C29.5265 88.0734 29.1647 87.9507 28.6865 87.9507C28.2676 87.9507 27.9163 88.0565 27.6328 88.2681C27.3493 88.4797 27.2075 88.7357 27.2075 89.0361H26.0269C26.0269 88.6934 26.1475 88.3633 26.3887 88.0459C26.6341 87.7243 26.9642 87.4704 27.3789 87.2842C27.7979 87.098 28.257 87.0049 28.7563 87.0049C29.5477 87.0049 30.1676 87.2038 30.6162 87.6016C31.0648 87.9951 31.2975 88.5389 31.3145 89.2329V92.394C31.3145 93.0246 31.3949 93.526 31.5557 93.8984V94H30.3242ZM28.3755 93.105C28.7437 93.105 29.0928 93.0098 29.4229 92.8193C29.7529 92.6289 29.992 92.3813 30.1401 92.0767V90.6675H29.2197C27.7809 90.6675 27.0615 91.0885 27.0615 91.9307C27.0615 92.2988 27.1842 92.5866 27.4297 92.7939C27.6751 93.0013 27.9904 93.105 28.3755 93.105ZM34.4312 94H33.2568V84.25H34.4312V94ZM40.5566 93.3208C40.0996 93.8582 39.4289 94.127 38.5444 94.127C37.8123 94.127 37.2537 93.9154 36.8687 93.4922C36.4878 93.0648 36.2952 92.4342 36.291 91.6006V87.1318H37.4653V91.5688C37.4653 92.6099 37.8885 93.1304 38.7349 93.1304C39.632 93.1304 40.2287 92.7961 40.5249 92.1274V87.1318H41.6992V94H40.582L40.5566 93.3208ZM46.3394 94.127C45.4084 94.127 44.6509 93.8223 44.0669 93.2129C43.4829 92.5993 43.1909 91.7804 43.1909 90.7563V90.5405C43.1909 89.8592 43.32 89.252 43.5781 88.7188C43.8405 88.1813 44.2044 87.7624 44.6699 87.4619C45.1396 87.1572 45.6475 87.0049 46.1934 87.0049C47.0863 87.0049 47.7803 87.299 48.2754 87.8872C48.7705 88.4754 49.0181 89.3175 49.0181 90.4136V90.9023H44.3652C44.3822 91.5794 44.5789 92.1274 44.9556 92.5464C45.3364 92.9611 45.8188 93.1685 46.4028 93.1685C46.8175 93.1685 47.1688 93.0838 47.4565 92.9146C47.7443 92.7453 47.9961 92.521 48.2119 92.2417L48.9292 92.8003C48.3537 93.6847 47.4904 94.127 46.3394 94.127ZM46.1934 87.9697C45.7194 87.9697 45.3216 88.1432 45 88.4902C44.6784 88.833 44.4795 89.3154 44.4033 89.9375H47.8438V89.8486C47.8099 89.252 47.6491 88.7907 47.3613 88.4648C47.0736 88.1348 46.6842 87.9697 46.1934 87.9697ZM57.8477 94C57.7799 93.8646 57.7249 93.6234 57.6826 93.2764C57.1367 93.8434 56.485 94.127 55.7275 94.127C55.0505 94.127 54.494 93.9365 54.0581 93.5557C53.6265 93.1706 53.4106 92.6839 53.4106 92.0957C53.4106 91.3805 53.6815 90.8262 54.2231 90.4326C54.769 90.0348 55.535 89.8359 56.521 89.8359H57.6636V89.2964C57.6636 88.8859 57.5409 88.5601 57.2954 88.3188C57.05 88.0734 56.6882 87.9507 56.21 87.9507C55.791 87.9507 55.4398 88.0565 55.1562 88.2681C54.8727 88.4797 54.731 88.7357 54.731 89.0361H53.5503C53.5503 88.6934 53.6709 88.3633 53.9121 88.0459C54.1576 87.7243 54.4876 87.4704 54.9023 87.2842C55.3213 87.098 55.7804 87.0049 56.2798 87.0049C57.0711 87.0049 57.6911 87.2038 58.1396 87.6016C58.5882 87.9951 58.821 88.5389 58.8379 89.2329V92.394C58.8379 93.0246 58.9183 93.526 59.0791 93.8984V94H57.8477ZM55.8989 93.105C56.2671 93.105 56.6162 93.0098 56.9463 92.8193C57.2764 92.6289 57.5155 92.3813 57.6636 92.0767V90.6675H56.7432C55.3044 90.6675 54.585 91.0885 54.585 91.9307C54.585 92.2988 54.7077 92.5866 54.9531 92.7939C55.1986 93.0013 55.5138 93.105 55.8989 93.105ZM66.4932 90.6421C66.4932 91.6916 66.252 92.5358 65.7695 93.1748C65.2871 93.8096 64.6396 94.127 63.8271 94.127C62.9596 94.127 62.2889 93.8201 61.8149 93.2065L61.7578 94H60.6787V84.25H61.853V87.8872C62.327 87.299 62.9808 87.0049 63.8145 87.0049C64.6481 87.0049 65.3019 87.3201 65.7759 87.9507C66.2541 88.5812 66.4932 89.4445 66.4932 90.5405V90.6421ZM65.3188 90.5088C65.3188 89.709 65.1644 89.0911 64.8555 88.6553C64.5465 88.2194 64.1022 88.0015 63.5225 88.0015C62.748 88.0015 62.1916 88.3612 61.853 89.0806V92.0513C62.2127 92.7707 62.7734 93.1304 63.5352 93.1304C64.098 93.1304 64.536 92.9124 64.8491 92.4766C65.1623 92.0407 65.3188 91.3848 65.3188 90.5088ZM67.6675 90.5024C67.6675 89.8296 67.7987 89.2244 68.061 88.687C68.3276 88.1496 68.6958 87.7349 69.1655 87.4429C69.6395 87.1509 70.179 87.0049 70.7842 87.0049C71.7194 87.0049 72.4748 87.3286 73.0503 87.9761C73.63 88.6235 73.9199 89.4847 73.9199 90.5596V90.6421C73.9199 91.3107 73.7909 91.9116 73.5327 92.4448C73.2788 92.9738 72.9128 93.3864 72.4346 93.6826C71.9606 93.9788 71.4147 94.127 70.7969 94.127C69.8659 94.127 69.1105 93.8032 68.5308 93.1558C67.9552 92.5083 67.6675 91.6514 67.6675 90.585V90.5024ZM68.8481 90.6421C68.8481 91.4038 69.0238 92.0153 69.375 92.4766C69.7305 92.9378 70.2044 93.1685 70.7969 93.1685C71.3936 93.1685 71.8675 92.9357 72.2188 92.4702C72.57 92.0005 72.7456 91.3446 72.7456 90.5024C72.7456 89.7492 72.5658 89.1398 72.2061 88.6743C71.8506 88.2046 71.3766 87.9697 70.7842 87.9697C70.2044 87.9697 69.7368 88.2004 69.3813 88.6616C69.0259 89.1229 68.8481 89.783 68.8481 90.6421ZM77.5571 92.4067L79.2583 87.1318H80.458L77.9951 94H77.1001L74.6118 87.1318H75.8115L77.5571 92.4067ZM84.3491 94.127C83.4181 94.127 82.6606 93.8223 82.0767 93.2129C81.4927 92.5993 81.2007 91.7804 81.2007 90.7563V90.5405C81.2007 89.8592 81.3298 89.252 81.5879 88.7188C81.8503 88.1813 82.2142 87.7624 82.6797 87.4619C83.1494 87.1572 83.6572 87.0049 84.2031 87.0049C85.096 87.0049 85.79 87.299 86.2852 87.8872C86.7803 88.4754 87.0278 89.3175 87.0278 90.4136V90.9023H82.375C82.3919 91.5794 82.5887 92.1274 82.9653 92.5464C83.3462 92.9611 83.8286 93.1685 84.4126 93.1685C84.8273 93.1685 85.1785 93.0838 85.4663 92.9146C85.7541 92.7453 86.0059 92.521 86.2217 92.2417L86.939 92.8003C86.3634 93.6847 85.5002 94.127 84.3491 94.127ZM84.2031 87.9697C83.7292 87.9697 83.3314 88.1432 83.0098 88.4902C82.6882 88.833 82.4893 89.3154 82.4131 89.9375H85.8535V89.8486C85.8197 89.252 85.6589 88.7907 85.3711 88.4648C85.0833 88.1348 84.694 87.9697 84.2031 87.9697ZM91.3062 90.5024C91.3062 89.8296 91.4373 89.2244 91.6997 88.687C91.9663 88.1496 92.3345 87.7349 92.8042 87.4429C93.2782 87.1509 93.8177 87.0049 94.4229 87.0049C95.3581 87.0049 96.1134 87.3286 96.689 87.9761C97.2687 88.6235 97.5586 89.4847 97.5586 90.5596V90.6421C97.5586 91.3107 97.4295 91.9116 97.1714 92.4448C96.9175 92.9738 96.5514 93.3864 96.0732 93.6826C95.5993 93.9788 95.0534 94.127 94.4355 94.127C93.5046 94.127 92.7492 93.8032 92.1694 93.1558C91.5939 92.5083 91.3062 91.6514 91.3062 90.585V90.5024ZM92.4868 90.6421C92.4868 91.4038 92.6624 92.0153 93.0137 92.4766C93.3691 92.9378 93.8431 93.1685 94.4355 93.1685C95.0322 93.1685 95.5062 92.9357 95.8574 92.4702C96.2087 92.0005 96.3843 91.3446 96.3843 90.5024C96.3843 89.7492 96.2044 89.1398 95.8447 88.6743C95.4893 88.2046 95.0153 87.9697 94.4229 87.9697C93.8431 87.9697 93.3755 88.2004 93.02 88.6616C92.6646 89.1229 92.4868 89.783 92.4868 90.6421ZM100.142 87.1318L100.18 87.9951C100.705 87.335 101.39 87.0049 102.237 87.0049C103.688 87.0049 104.42 87.8237 104.433 89.4614V94H103.259V89.4551C103.255 88.96 103.14 88.5939 102.916 88.3569C102.696 88.12 102.351 88.0015 101.881 88.0015C101.5 88.0015 101.166 88.103 100.878 88.3062C100.591 88.5093 100.366 88.7759 100.206 89.106V94H99.0312V87.1318H100.142ZM111.022 85.4688V87.1318H112.304V88.0396H111.022V92.2988C111.022 92.5739 111.079 92.7812 111.193 92.9209C111.308 93.0563 111.502 93.124 111.777 93.124C111.913 93.124 112.099 93.0986 112.336 93.0479V94C112.027 94.0846 111.727 94.127 111.435 94.127C110.91 94.127 110.514 93.9683 110.248 93.6509C109.981 93.3335 109.848 92.8828 109.848 92.2988V88.0396H108.597V87.1318H109.848V85.4688H111.022ZM114.856 87.9634C115.376 87.3244 116.054 87.0049 116.887 87.0049C118.339 87.0049 119.071 87.8237 119.083 89.4614V94H117.909V89.4551C117.905 88.96 117.791 88.5939 117.566 88.3569C117.346 88.12 117.001 88.0015 116.532 88.0015C116.151 88.0015 115.817 88.103 115.529 88.3062C115.241 88.5093 115.017 88.7759 114.856 89.106V94H113.682V84.25H114.856V87.9634ZM123.692 94.127C122.761 94.127 122.003 93.8223 121.419 93.2129C120.835 92.5993 120.543 91.7804 120.543 90.7563V90.5405C120.543 89.8592 120.673 89.252 120.931 88.7188C121.193 88.1813 121.557 87.7624 122.022 87.4619C122.492 87.1572 123 87.0049 123.546 87.0049C124.439 87.0049 125.133 87.299 125.628 87.8872C126.123 88.4754 126.371 89.3175 126.371 90.4136V90.9023H121.718C121.735 91.5794 121.931 92.1274 122.308 92.5464C122.689 92.9611 123.171 93.1685 123.755 93.1685C124.17 93.1685 124.521 93.0838 124.809 92.9146C125.097 92.7453 125.349 92.521 125.564 92.2417L126.282 92.8003C125.706 93.6847 124.843 94.127 123.692 94.127ZM123.546 87.9697C123.072 87.9697 122.674 88.1432 122.353 88.4902C122.031 88.833 121.832 89.3154 121.756 89.9375H125.196V89.8486C125.162 89.252 125.002 88.7907 124.714 88.4648C124.426 88.1348 124.037 87.9697 123.546 87.9697ZM21.4819 100.469V102.132H22.7642V103.04H21.4819V107.299C21.4819 107.574 21.5391 107.781 21.6533 107.921C21.7676 108.056 21.9622 108.124 22.2373 108.124C22.3727 108.124 22.5589 108.099 22.7959 108.048V109C22.487 109.085 22.1865 109.127 21.8945 109.127C21.3698 109.127 20.9741 108.968 20.7075 108.651C20.4409 108.333 20.3076 107.883 20.3076 107.299V103.04H19.0571V102.132H20.3076V100.469H21.4819ZM27.4614 103.186C27.2837 103.156 27.0911 103.141 26.8838 103.141C26.1136 103.141 25.591 103.469 25.3159 104.125V109H24.1416V102.132H25.2842L25.3032 102.925C25.6883 102.312 26.2342 102.005 26.9409 102.005C27.1694 102.005 27.3429 102.035 27.4614 102.094V103.186ZM32.5332 109C32.4655 108.865 32.4105 108.623 32.3682 108.276C31.8223 108.843 31.1706 109.127 30.4131 109.127C29.736 109.127 29.1795 108.937 28.7437 108.556C28.312 108.171 28.0962 107.684 28.0962 107.096C28.0962 106.381 28.367 105.826 28.9087 105.433C29.4546 105.035 30.2205 104.836 31.2065 104.836H32.3491V104.296C32.3491 103.886 32.2264 103.56 31.981 103.319C31.7355 103.073 31.3737 102.951 30.8955 102.951C30.4766 102.951 30.1253 103.056 29.8418 103.268C29.5583 103.48 29.4165 103.736 29.4165 104.036H28.2358C28.2358 103.693 28.3564 103.363 28.5977 103.046C28.8431 102.724 29.1732 102.47 29.5879 102.284C30.0068 102.098 30.466 102.005 30.9653 102.005C31.7567 102.005 32.3766 102.204 32.8252 102.602C33.2738 102.995 33.5065 103.539 33.5234 104.233V107.394C33.5234 108.025 33.6038 108.526 33.7646 108.898V109H32.5332ZM30.5845 108.105C30.9526 108.105 31.3018 108.01 31.6318 107.819C31.9619 107.629 32.201 107.381 32.3491 107.077V105.667H31.4287C29.9899 105.667 29.2705 106.089 29.2705 106.931C29.2705 107.299 29.3932 107.587 29.6387 107.794C29.8841 108.001 30.1994 108.105 30.5845 108.105ZM35.0786 105.509C35.0786 104.455 35.3283 103.609 35.8276 102.97C36.327 102.326 36.9808 102.005 37.7891 102.005C38.5931 102.005 39.23 102.28 39.6997 102.83V99.25H40.874V109H39.7949L39.7378 108.264C39.2681 108.839 38.6143 109.127 37.7764 109.127C36.9808 109.127 36.3312 108.801 35.8276 108.149C35.3283 107.498 35.0786 106.647 35.0786 105.598V105.509ZM36.2529 105.642C36.2529 106.421 36.4137 107.03 36.7354 107.47C37.057 107.91 37.5013 108.13 38.0684 108.13C38.8132 108.13 39.3569 107.796 39.6997 107.127V103.973C39.3485 103.325 38.8089 103.001 38.0811 103.001C37.5055 103.001 37.057 103.224 36.7354 103.668C36.4137 104.112 36.2529 104.77 36.2529 105.642ZM43.978 109H42.8037V102.132H43.978V109ZM42.7085 100.31C42.7085 100.12 42.7656 99.9588 42.8799 99.8276C42.9984 99.6965 43.1719 99.6309 43.4004 99.6309C43.6289 99.6309 43.8024 99.6965 43.9209 99.8276C44.0394 99.9588 44.0986 100.12 44.0986 100.31C44.0986 100.5 44.0394 100.659 43.9209 100.786C43.8024 100.913 43.6289 100.977 43.4004 100.977C43.1719 100.977 42.9984 100.913 42.8799 100.786C42.7656 100.659 42.7085 100.5 42.7085 100.31ZM46.9741 102.132L47.0122 102.995C47.5369 102.335 48.2225 102.005 49.0688 102.005C50.5203 102.005 51.2524 102.824 51.2651 104.461V109H50.0908V104.455C50.0866 103.96 49.9723 103.594 49.748 103.357C49.528 103.12 49.1831 103.001 48.7134 103.001C48.3325 103.001 47.9982 103.103 47.7104 103.306C47.4227 103.509 47.1984 103.776 47.0376 104.106V109H45.8633V102.132H46.9741ZM52.7568 105.509C52.7568 104.438 53.0044 103.588 53.4995 102.957C53.9946 102.322 54.6506 102.005 55.4673 102.005C56.3052 102.005 56.959 102.301 57.4287 102.894L57.4858 102.132H58.5586V108.835C58.5586 109.724 58.2941 110.424 57.7651 110.936C57.2404 111.448 56.5337 111.704 55.645 111.704C55.1499 111.704 54.6654 111.598 54.1914 111.387C53.7174 111.175 53.3556 110.885 53.106 110.517L53.7153 109.812C54.2189 110.435 54.8346 110.746 55.5625 110.746C56.1338 110.746 56.5781 110.585 56.8955 110.263C57.2171 109.942 57.3779 109.489 57.3779 108.905V108.314C56.9082 108.856 56.2671 109.127 55.4546 109.127C54.6506 109.127 53.9989 108.803 53.4995 108.156C53.0044 107.508 52.7568 106.626 52.7568 105.509ZM53.9375 105.642C53.9375 106.417 54.0962 107.026 54.4136 107.47C54.731 107.91 55.1753 108.13 55.7466 108.13C56.4871 108.13 57.0309 107.794 57.3779 107.121V103.985C57.0182 103.329 56.4787 103.001 55.7593 103.001C55.188 103.001 54.7415 103.224 54.4199 103.668C54.0983 104.112 53.9375 104.77 53.9375 105.642ZM67.8008 109C67.7331 108.865 67.6781 108.623 67.6357 108.276C67.0898 108.843 66.4382 109.127 65.6807 109.127C65.0036 109.127 64.4471 108.937 64.0112 108.556C63.5796 108.171 63.3638 107.684 63.3638 107.096C63.3638 106.381 63.6346 105.826 64.1763 105.433C64.7222 105.035 65.4881 104.836 66.4741 104.836H67.6167V104.296C67.6167 103.886 67.494 103.56 67.2485 103.319C67.0031 103.073 66.6413 102.951 66.1631 102.951C65.7441 102.951 65.3929 103.056 65.1094 103.268C64.8258 103.48 64.6841 103.736 64.6841 104.036H63.5034C63.5034 103.693 63.624 103.363 63.8652 103.046C64.1107 102.724 64.4408 102.47 64.8555 102.284C65.2744 102.098 65.7336 102.005 66.2329 102.005C67.0243 102.005 67.6442 102.204 68.0928 102.602C68.5413 102.995 68.7741 103.539 68.791 104.233V107.394C68.791 108.025 68.8714 108.526 69.0322 108.898V109H67.8008ZM65.8521 108.105C66.2202 108.105 66.5693 108.01 66.8994 107.819C67.2295 107.629 67.4686 107.381 67.6167 107.077V105.667H66.6963C65.2575 105.667 64.5381 106.089 64.5381 106.931C64.5381 107.299 64.6608 107.587 64.9062 107.794C65.1517 108.001 65.467 108.105 65.8521 108.105ZM73.9517 103.186C73.7739 103.156 73.5814 103.141 73.374 103.141C72.6038 103.141 72.0812 103.469 71.8062 104.125V109H70.6318V102.132H71.7744L71.7935 102.925C72.1785 102.312 72.7244 102.005 73.4312 102.005C73.6597 102.005 73.8332 102.035 73.9517 102.094V103.186ZM77.7603 109.127C76.8293 109.127 76.0718 108.822 75.4878 108.213C74.9038 107.599 74.6118 106.78 74.6118 105.756V105.541C74.6118 104.859 74.7409 104.252 74.999 103.719C75.2614 103.181 75.6253 102.762 76.0908 102.462C76.5605 102.157 77.0684 102.005 77.6143 102.005C78.5072 102.005 79.2012 102.299 79.6963 102.887C80.1914 103.475 80.439 104.318 80.439 105.414V105.902H75.7861C75.8031 106.579 75.9998 107.127 76.3765 107.546C76.7573 107.961 77.2397 108.168 77.8237 108.168C78.2384 108.168 78.5897 108.084 78.8774 107.915C79.1652 107.745 79.417 107.521 79.6328 107.242L80.3501 107.8C79.7746 108.685 78.9113 109.127 77.7603 109.127ZM77.6143 102.97C77.1403 102.97 76.7425 103.143 76.4209 103.49C76.0993 103.833 75.9004 104.315 75.8242 104.938H79.2646V104.849C79.2308 104.252 79.07 103.791 78.7822 103.465C78.4945 103.135 78.1051 102.97 77.6143 102.97ZM86.0439 109C85.9762 108.865 85.9212 108.623 85.8789 108.276C85.333 108.843 84.6813 109.127 83.9238 109.127C83.2467 109.127 82.6903 108.937 82.2544 108.556C81.8228 108.171 81.6069 107.684 81.6069 107.096C81.6069 106.381 81.8778 105.826 82.4194 105.433C82.9653 105.035 83.7313 104.836 84.7173 104.836H85.8599V104.296C85.8599 103.886 85.7371 103.56 85.4917 103.319C85.2463 103.073 84.8844 102.951 84.4062 102.951C83.9873 102.951 83.6361 103.056 83.3525 103.268C83.069 103.48 82.9272 103.736 82.9272 104.036H81.7466C81.7466 103.693 81.8672 103.363 82.1084 103.046C82.3538 102.724 82.6839 102.47 83.0986 102.284C83.5176 102.098 83.9767 102.005 84.4761 102.005C85.2674 102.005 85.8874 102.204 86.3359 102.602C86.7845 102.995 87.0173 103.539 87.0342 104.233V107.394C87.0342 108.025 87.1146 108.526 87.2754 108.898V109H86.0439ZM84.0952 108.105C84.4634 108.105 84.8125 108.01 85.1426 107.819C85.4727 107.629 85.7118 107.381 85.8599 107.077V105.667H84.9395C83.5007 105.667 82.7812 106.089 82.7812 106.931C82.7812 107.299 82.904 107.587 83.1494 107.794C83.3949 108.001 83.7101 108.105 84.0952 108.105Z" fill="#2B2E55"/>
<rect id="Rectangle 134" x="123.5" y="132.5" width="78" height="20" stroke="#2B2E55"/>
<path id="...then click" d="M133.914 145.384C133.914 145.181 133.973 145.012 134.092 144.876C134.215 144.741 134.396 144.673 134.638 144.673C134.879 144.673 135.061 144.741 135.184 144.876C135.311 145.012 135.374 145.181 135.374 145.384C135.374 145.579 135.311 145.742 135.184 145.873C135.061 146.004 134.879 146.07 134.638 146.07C134.396 146.07 134.215 146.004 134.092 145.873C133.973 145.742 133.914 145.579 133.914 145.384ZM137.342 145.384C137.342 145.181 137.401 145.012 137.52 144.876C137.642 144.741 137.824 144.673 138.065 144.673C138.307 144.673 138.489 144.741 138.611 144.876C138.738 145.012 138.802 145.181 138.802 145.384C138.802 145.579 138.738 145.742 138.611 145.873C138.489 146.004 138.307 146.07 138.065 146.07C137.824 146.07 137.642 146.004 137.52 145.873C137.401 145.742 137.342 145.579 137.342 145.384ZM140.77 145.384C140.77 145.181 140.829 145.012 140.947 144.876C141.07 144.741 141.252 144.673 141.493 144.673C141.734 144.673 141.916 144.741 142.039 144.876C142.166 145.012 142.229 145.181 142.229 145.384C142.229 145.579 142.166 145.742 142.039 145.873C141.916 146.004 141.734 146.07 141.493 146.07C141.252 146.07 141.07 146.004 140.947 145.873C140.829 145.742 140.77 145.579 140.77 145.384ZM145.765 137.469V139.132H147.047V140.04H145.765V144.299C145.765 144.574 145.822 144.781 145.937 144.921C146.051 145.056 146.245 145.124 146.521 145.124C146.656 145.124 146.842 145.099 147.079 145.048V146C146.77 146.085 146.47 146.127 146.178 146.127C145.653 146.127 145.257 145.968 144.991 145.651C144.724 145.333 144.591 144.883 144.591 144.299V140.04H143.34V139.132H144.591V137.469H145.765ZM149.599 139.963C150.12 139.324 150.797 139.005 151.63 139.005C153.082 139.005 153.814 139.824 153.827 141.461V146H152.652V141.455C152.648 140.96 152.534 140.594 152.31 140.357C152.09 140.12 151.745 140.001 151.275 140.001C150.894 140.001 150.56 140.103 150.272 140.306C149.984 140.509 149.76 140.776 149.599 141.106V146H148.425V136.25H149.599V139.963ZM158.435 146.127C157.504 146.127 156.747 145.822 156.163 145.213C155.579 144.599 155.287 143.78 155.287 142.756V142.541C155.287 141.859 155.416 141.252 155.674 140.719C155.936 140.181 156.3 139.762 156.766 139.462C157.235 139.157 157.743 139.005 158.289 139.005C159.182 139.005 159.876 139.299 160.371 139.887C160.866 140.475 161.114 141.318 161.114 142.414V142.902H156.461C156.478 143.579 156.675 144.127 157.051 144.546C157.432 144.961 157.915 145.168 158.499 145.168C158.913 145.168 159.264 145.084 159.552 144.915C159.84 144.745 160.092 144.521 160.308 144.242L161.025 144.8C160.449 145.685 159.586 146.127 158.435 146.127ZM158.289 139.97C157.815 139.97 157.417 140.143 157.096 140.49C156.774 140.833 156.575 141.315 156.499 141.938H159.939V141.849C159.906 141.252 159.745 140.791 159.457 140.465C159.169 140.135 158.78 139.97 158.289 139.97ZM163.589 139.132L163.627 139.995C164.152 139.335 164.838 139.005 165.684 139.005C167.136 139.005 167.868 139.824 167.88 141.461V146H166.706V141.455C166.702 140.96 166.588 140.594 166.363 140.357C166.143 140.12 165.798 140.001 165.329 140.001C164.948 140.001 164.613 140.103 164.326 140.306C164.038 140.509 163.814 140.776 163.653 141.106V146H162.479V139.132H163.589ZM175.631 145.168C176.05 145.168 176.416 145.042 176.729 144.788C177.042 144.534 177.216 144.216 177.25 143.835H178.36C178.339 144.229 178.204 144.604 177.954 144.959C177.704 145.314 177.37 145.598 176.951 145.81C176.536 146.021 176.096 146.127 175.631 146.127C174.696 146.127 173.951 145.816 173.396 145.194C172.846 144.568 172.571 143.713 172.571 142.629V142.433C172.571 141.764 172.694 141.169 172.939 140.649C173.185 140.128 173.536 139.724 173.993 139.437C174.454 139.149 174.998 139.005 175.625 139.005C176.395 139.005 177.034 139.236 177.542 139.697C178.054 140.158 178.326 140.757 178.36 141.493H177.25C177.216 141.049 177.046 140.685 176.742 140.401C176.441 140.114 176.069 139.97 175.625 139.97C175.028 139.97 174.564 140.186 174.234 140.617C173.909 141.045 173.746 141.665 173.746 142.477V142.699C173.746 143.491 173.909 144.1 174.234 144.527C174.56 144.955 175.026 145.168 175.631 145.168ZM180.957 146H179.782V136.25H180.957V146ZM184.118 146H182.943V139.132H184.118V146ZM182.848 137.31C182.848 137.12 182.905 136.959 183.02 136.828C183.138 136.696 183.312 136.631 183.54 136.631C183.769 136.631 183.942 136.696 184.061 136.828C184.179 136.959 184.238 137.12 184.238 137.31C184.238 137.5 184.179 137.659 184.061 137.786C183.942 137.913 183.769 137.977 183.54 137.977C183.312 137.977 183.138 137.913 183.02 137.786C182.905 137.659 182.848 137.5 182.848 137.31ZM188.758 145.168C189.177 145.168 189.543 145.042 189.856 144.788C190.169 144.534 190.343 144.216 190.376 143.835H191.487C191.466 144.229 191.331 144.604 191.081 144.959C190.831 145.314 190.497 145.598 190.078 145.81C189.663 146.021 189.223 146.127 188.758 146.127C187.823 146.127 187.078 145.816 186.523 145.194C185.973 144.568 185.698 143.713 185.698 142.629V142.433C185.698 141.764 185.821 141.169 186.066 140.649C186.312 140.128 186.663 139.724 187.12 139.437C187.581 139.149 188.125 139.005 188.751 139.005C189.522 139.005 190.161 139.236 190.668 139.697C191.181 140.158 191.453 140.757 191.487 141.493H190.376C190.343 141.049 190.173 140.685 189.869 140.401C189.568 140.114 189.196 139.97 188.751 139.97C188.155 139.97 187.691 140.186 187.361 140.617C187.035 141.045 186.873 141.665 186.873 142.477V142.699C186.873 143.491 187.035 144.1 187.361 144.527C187.687 144.955 188.153 145.168 188.758 145.168ZM194.725 142.82L193.988 143.588V146H192.814V136.25H193.988V142.147L194.617 141.392L196.756 139.132H198.184L195.512 142.001L198.495 146H197.118L194.725 142.82Z" fill="#2B2E55"/>
<path id="Arrow 4" d="M143.354 11.6464C143.158 11.4512 142.842 11.4512 142.646 11.6464L139.464 14.8284C139.269 15.0237 139.269 15.3403 139.464 15.5355C139.66 15.7308 139.976 15.7308 140.172 15.5355L143 12.7071L145.828 15.5355C146.024 15.7308 146.34 15.7308 146.536 15.5355C146.731 15.3403 146.731 15.0237 146.536 14.8284L143.354 11.6464ZM125 65.5C125.158 65.9743 125.158 65.9742 125.159 65.9741C125.159 65.974 125.159 65.9739 125.16 65.9737C125.161 65.9734 125.162 65.973 125.163 65.9726C125.166 65.9716 125.17 65.9703 125.175 65.9685C125.185 65.9651 125.199 65.9602 125.218 65.9537C125.255 65.9407 125.308 65.9215 125.377 65.8958C125.515 65.8445 125.714 65.7671 125.967 65.6614C126.471 65.4501 127.189 65.1252 128.047 64.6679C129.764 63.7538 132.052 62.308 134.341 60.1785C138.926 55.9114 143.5 48.9093 143.5 38L142.5 38C142.5 48.5907 138.074 55.3386 133.659 59.4465C131.448 61.5045 129.236 62.9024 127.578 63.7852C126.749 64.2264 126.06 64.5382 125.58 64.739C125.341 64.8393 125.153 64.9119 125.027 64.9589C124.964 64.9824 124.917 64.9996 124.885 65.0106C124.87 65.0161 124.858 65.0201 124.851 65.0226C124.847 65.0238 124.845 65.0247 124.843 65.0252C124.842 65.0255 124.842 65.0256 124.842 65.0257C124.842 65.0258 124.842 65.0257 124.842 65.0258C124.842 65.0257 124.842 65.0257 125 65.5ZM143.5 38L143.5 12L142.5 12L142.5 38L143.5 38Z" fill="#2B2E55"/>
<path id="Arrow 5" d="M192.646 208.354C192.842 208.549 193.158 208.549 193.354 208.354L196.536 205.172C196.731 204.976 196.731 204.66 196.536 204.464C196.34 204.269 196.024 204.269 195.828 204.464L193 207.293L190.172 204.464C189.976 204.269 189.66 204.269 189.464 204.464C189.269 204.66 189.269 204.976 189.464 205.172L192.646 208.354ZM192.5 153L192.5 208L193.5 208L193.5 153L192.5 153Z" fill="#2B2E55"/>
</g>
<rect id="m1SkipBT" x="14" y="224" width="219" height="56" rx="7" fill="#6BB8FF"/>
<path id="Your trades will take action in the next day when the market opens again." d="M22.5918 318.752L24.8184 314.469H26.0957L23.1543 319.818V323H22.0293V319.818L19.0879 314.469H20.377L22.5918 318.752ZM26.3535 319.771C26.3535 319.15 26.4746 318.592 26.7168 318.096C26.9629 317.6 27.3027 317.217 27.7363 316.947C28.1738 316.678 28.6719 316.543 29.2305 316.543C30.0938 316.543 30.791 316.842 31.3223 317.439C31.8574 318.037 32.125 318.832 32.125 319.824V319.9C32.125 320.518 32.0059 321.072 31.7676 321.564C31.5332 322.053 31.1953 322.434 30.7539 322.707C30.3164 322.98 29.8125 323.117 29.2422 323.117C28.3828 323.117 27.6855 322.818 27.1504 322.221C26.6191 321.623 26.3535 320.832 26.3535 319.848V319.771ZM27.4434 319.9C27.4434 320.604 27.6055 321.168 27.9297 321.594C28.2578 322.02 28.6953 322.232 29.2422 322.232C29.793 322.232 30.2305 322.018 30.5547 321.588C30.8789 321.154 31.041 320.549 31.041 319.771C31.041 319.076 30.875 318.514 30.543 318.084C30.2148 317.65 29.7773 317.434 29.2305 317.434C28.6953 317.434 28.2637 317.646 27.9355 318.072C27.6074 318.498 27.4434 319.107 27.4434 319.9ZM37.3984 322.373C36.9766 322.869 36.3574 323.117 35.541 323.117C34.8652 323.117 34.3496 322.922 33.9941 322.531C33.6426 322.137 33.4648 321.555 33.4609 320.785V316.66H34.5449V320.756C34.5449 321.717 34.9355 322.197 35.7168 322.197C36.5449 322.197 37.0957 321.889 37.3691 321.271V316.66H38.4531V323H37.4219L37.3984 322.373ZM43.1699 317.633C43.0059 317.605 42.8281 317.592 42.6367 317.592C41.9258 317.592 41.4434 317.895 41.1895 318.5V323H40.1055V316.66H41.1602L41.1777 317.393C41.5332 316.826 42.0371 316.543 42.6895 316.543C42.9004 316.543 43.0605 316.57 43.1699 316.625V317.633ZM48.6191 315.125V316.66H49.8027V317.498H48.6191V321.43C48.6191 321.684 48.6719 321.875 48.7773 322.004C48.8828 322.129 49.0625 322.191 49.3164 322.191C49.4414 322.191 49.6133 322.168 49.832 322.121V323C49.5469 323.078 49.2695 323.117 49 323.117C48.5156 323.117 48.1504 322.971 47.9043 322.678C47.6582 322.385 47.5352 321.969 47.5352 321.43V317.498H46.3809V316.66H47.5352V315.125H48.6191ZM54.1387 317.633C53.9746 317.605 53.7969 317.592 53.6055 317.592C52.8945 317.592 52.4121 317.895 52.1582 318.5V323H51.0742V316.66H52.1289L52.1465 317.393C52.502 316.826 53.0059 316.543 53.6582 316.543C53.8691 316.543 54.0293 316.57 54.1387 316.625V317.633ZM58.8203 323C58.7578 322.875 58.707 322.652 58.668 322.332C58.1641 322.855 57.5625 323.117 56.8633 323.117C56.2383 323.117 55.7246 322.941 55.3223 322.59C54.9238 322.234 54.7246 321.785 54.7246 321.242C54.7246 320.582 54.9746 320.07 55.4746 319.707C55.9785 319.34 56.6855 319.156 57.5957 319.156H58.6504V318.658C58.6504 318.279 58.5371 317.979 58.3105 317.756C58.084 317.529 57.75 317.416 57.3086 317.416C56.9219 317.416 56.5977 317.514 56.3359 317.709C56.0742 317.904 55.9434 318.141 55.9434 318.418H54.8535C54.8535 318.102 54.9648 317.797 55.1875 317.504C55.4141 317.207 55.7188 316.973 56.1016 316.801C56.4883 316.629 56.9121 316.543 57.373 316.543C58.1035 316.543 58.6758 316.727 59.0898 317.094C59.5039 317.457 59.7188 317.959 59.7344 318.6V321.518C59.7344 322.1 59.8086 322.562 59.957 322.906V323H58.8203ZM57.0215 322.174C57.3613 322.174 57.6836 322.086 57.9883 321.91C58.293 321.734 58.5137 321.506 58.6504 321.225V319.924H57.8008C56.4727 319.924 55.8086 320.312 55.8086 321.09C55.8086 321.43 55.9219 321.695 56.1484 321.887C56.375 322.078 56.666 322.174 57.0215 322.174ZM61.1699 319.777C61.1699 318.805 61.4004 318.023 61.8613 317.434C62.3223 316.84 62.9258 316.543 63.6719 316.543C64.4141 316.543 65.002 316.797 65.4355 317.305V314H66.5195V323H65.5234L65.4707 322.32C65.0371 322.852 64.4336 323.117 63.6602 323.117C62.9258 323.117 62.3262 322.816 61.8613 322.215C61.4004 321.613 61.1699 320.828 61.1699 319.859V319.777ZM62.2539 319.9C62.2539 320.619 62.4023 321.182 62.6992 321.588C62.9961 321.994 63.4062 322.197 63.9297 322.197C64.6172 322.197 65.1191 321.889 65.4355 321.271V318.359C65.1113 317.762 64.6133 317.463 63.9414 317.463C63.4102 317.463 62.9961 317.668 62.6992 318.078C62.4023 318.488 62.2539 319.096 62.2539 319.9ZM70.8379 323.117C69.9785 323.117 69.2793 322.836 68.7402 322.273C68.2012 321.707 67.9316 320.951 67.9316 320.006V319.807C67.9316 319.178 68.0508 318.617 68.2891 318.125C68.5312 317.629 68.8672 317.242 69.2969 316.965C69.7305 316.684 70.1992 316.543 70.7031 316.543C71.5273 316.543 72.168 316.814 72.625 317.357C73.082 317.9 73.3105 318.678 73.3105 319.689V320.141H69.0156C69.0312 320.766 69.2129 321.271 69.5605 321.658C69.9121 322.041 70.3574 322.232 70.8965 322.232C71.2793 322.232 71.6035 322.154 71.8691 321.998C72.1348 321.842 72.3672 321.635 72.5664 321.377L73.2285 321.893C72.6973 322.709 71.9004 323.117 70.8379 323.117ZM70.7031 317.434C70.2656 317.434 69.8984 317.594 69.6016 317.914C69.3047 318.23 69.1211 318.676 69.0508 319.25H72.2266V319.168C72.1953 318.617 72.0469 318.191 71.7812 317.891C71.5156 317.586 71.1562 317.434 70.7031 317.434ZM78.2617 321.318C78.2617 321.025 78.1504 320.799 77.9277 320.639C77.709 320.475 77.3242 320.334 76.7734 320.217C76.2266 320.1 75.791 319.959 75.4668 319.795C75.1465 319.631 74.9082 319.436 74.752 319.209C74.5996 318.982 74.5234 318.713 74.5234 318.4C74.5234 317.881 74.7422 317.441 75.1797 317.082C75.6211 316.723 76.1836 316.543 76.8672 316.543C77.5859 316.543 78.168 316.729 78.6133 317.1C79.0625 317.471 79.2871 317.945 79.2871 318.523H78.1973C78.1973 318.227 78.0703 317.971 77.8164 317.756C77.5664 317.541 77.25 317.434 76.8672 317.434C76.4727 317.434 76.1641 317.52 75.9414 317.691C75.7188 317.863 75.6074 318.088 75.6074 318.365C75.6074 318.627 75.7109 318.824 75.918 318.957C76.125 319.09 76.498 319.217 77.0371 319.338C77.5801 319.459 78.0195 319.604 78.3555 319.771C78.6914 319.939 78.9395 320.143 79.0996 320.381C79.2637 320.615 79.3457 320.902 79.3457 321.242C79.3457 321.809 79.1191 322.264 78.666 322.607C78.2129 322.947 77.625 323.117 76.9023 323.117C76.3945 323.117 75.9453 323.027 75.5547 322.848C75.1641 322.668 74.8574 322.418 74.6348 322.098C74.416 321.773 74.3066 321.424 74.3066 321.049H75.3906C75.4102 321.412 75.5547 321.701 75.8242 321.916C76.0977 322.127 76.457 322.232 76.9023 322.232C77.3125 322.232 77.6406 322.15 77.8867 321.986C78.1367 321.818 78.2617 321.596 78.2617 321.318ZM89.3477 321.506L90.5664 316.66H91.6504L89.8047 323H88.9258L87.3848 318.195L85.8848 323H85.0059L83.166 316.66H84.2441L85.4922 321.406L86.9688 316.66H87.8418L89.3477 321.506ZM93.9355 323H92.8516V316.66H93.9355V323ZM92.7637 314.979C92.7637 314.803 92.8164 314.654 92.9219 314.533C93.0312 314.412 93.1914 314.352 93.4023 314.352C93.6133 314.352 93.7734 314.412 93.8828 314.533C93.9922 314.654 94.0469 314.803 94.0469 314.979C94.0469 315.154 93.9922 315.301 93.8828 315.418C93.7734 315.535 93.6133 315.594 93.4023 315.594C93.1914 315.594 93.0312 315.535 92.9219 315.418C92.8164 315.301 92.7637 315.154 92.7637 314.979ZM96.8535 323H95.7695V314H96.8535V323ZM99.7715 323H98.6875V314H99.7715V323ZM105.959 315.125V316.66H107.143V317.498H105.959V321.43C105.959 321.684 106.012 321.875 106.117 322.004C106.223 322.129 106.402 322.191 106.656 322.191C106.781 322.191 106.953 322.168 107.172 322.121V323C106.887 323.078 106.609 323.117 106.34 323.117C105.855 323.117 105.49 322.971 105.244 322.678C104.998 322.385 104.875 321.969 104.875 321.43V317.498H103.721V316.66H104.875V315.125H105.959ZM112.328 323C112.266 322.875 112.215 322.652 112.176 322.332C111.672 322.855 111.07 323.117 110.371 323.117C109.746 323.117 109.232 322.941 108.83 322.59C108.432 322.234 108.232 321.785 108.232 321.242C108.232 320.582 108.482 320.07 108.982 319.707C109.486 319.34 110.193 319.156 111.104 319.156H112.158V318.658C112.158 318.279 112.045 317.979 111.818 317.756C111.592 317.529 111.258 317.416 110.816 317.416C110.43 317.416 110.105 317.514 109.844 317.709C109.582 317.904 109.451 318.141 109.451 318.418H108.361C108.361 318.102 108.473 317.797 108.695 317.504C108.922 317.207 109.227 316.973 109.609 316.801C109.996 316.629 110.42 316.543 110.881 316.543C111.611 316.543 112.184 316.727 112.598 317.094C113.012 317.457 113.227 317.959 113.242 318.6V321.518C113.242 322.1 113.316 322.562 113.465 322.906V323H112.328ZM110.529 322.174C110.869 322.174 111.191 322.086 111.496 321.91C111.801 321.734 112.021 321.506 112.158 321.225V319.924H111.309C109.98 319.924 109.316 320.312 109.316 321.09C109.316 321.43 109.43 321.695 109.656 321.887C109.883 322.078 110.174 322.174 110.529 322.174ZM116.711 320.064L116.031 320.773V323H114.947V314H116.031V319.443L116.611 318.746L118.586 316.66H119.904L117.438 319.309L120.191 323H118.92L116.711 320.064ZM123.537 323.117C122.678 323.117 121.979 322.836 121.439 322.273C120.9 321.707 120.631 320.951 120.631 320.006V319.807C120.631 319.178 120.75 318.617 120.988 318.125C121.23 317.629 121.566 317.242 121.996 316.965C122.43 316.684 122.898 316.543 123.402 316.543C124.227 316.543 124.867 316.814 125.324 317.357C125.781 317.9 126.01 318.678 126.01 319.689V320.141H121.715C121.73 320.766 121.912 321.271 122.26 321.658C122.611 322.041 123.057 322.232 123.596 322.232C123.979 322.232 124.303 322.154 124.568 321.998C124.834 321.842 125.066 321.635 125.266 321.377L125.928 321.893C125.396 322.709 124.6 323.117 123.537 323.117ZM123.402 317.434C122.965 317.434 122.598 317.594 122.301 317.914C122.004 318.23 121.82 318.676 121.75 319.25H124.926V319.168C124.895 318.617 124.746 318.191 124.48 317.891C124.215 317.586 123.855 317.434 123.402 317.434ZM134.16 323C134.098 322.875 134.047 322.652 134.008 322.332C133.504 322.855 132.902 323.117 132.203 323.117C131.578 323.117 131.064 322.941 130.662 322.59C130.264 322.234 130.064 321.785 130.064 321.242C130.064 320.582 130.314 320.07 130.814 319.707C131.318 319.34 132.025 319.156 132.936 319.156H133.99V318.658C133.99 318.279 133.877 317.979 133.65 317.756C133.424 317.529 133.09 317.416 132.648 317.416C132.262 317.416 131.938 317.514 131.676 317.709C131.414 317.904 131.283 318.141 131.283 318.418H130.193C130.193 318.102 130.305 317.797 130.527 317.504C130.754 317.207 131.059 316.973 131.441 316.801C131.828 316.629 132.252 316.543 132.713 316.543C133.443 316.543 134.016 316.727 134.43 317.094C134.844 317.457 135.059 317.959 135.074 318.6V321.518C135.074 322.1 135.148 322.562 135.297 322.906V323H134.16ZM132.361 322.174C132.701 322.174 133.023 322.086 133.328 321.91C133.633 321.734 133.854 321.506 133.99 321.225V319.924H133.141C131.812 319.924 131.148 320.312 131.148 321.09C131.148 321.43 131.262 321.695 131.488 321.887C131.715 322.078 132.006 322.174 132.361 322.174ZM139.316 322.232C139.703 322.232 140.041 322.115 140.33 321.881C140.619 321.646 140.779 321.354 140.811 321.002H141.836C141.816 321.365 141.691 321.711 141.461 322.039C141.23 322.367 140.922 322.629 140.535 322.824C140.152 323.02 139.746 323.117 139.316 323.117C138.453 323.117 137.766 322.83 137.254 322.256C136.746 321.678 136.492 320.889 136.492 319.889V319.707C136.492 319.09 136.605 318.541 136.832 318.061C137.059 317.58 137.383 317.207 137.805 316.941C138.23 316.676 138.732 316.543 139.311 316.543C140.021 316.543 140.611 316.756 141.08 317.182C141.553 317.607 141.805 318.16 141.836 318.84H140.811C140.779 318.43 140.623 318.094 140.342 317.832C140.064 317.566 139.721 317.434 139.311 317.434C138.76 317.434 138.332 317.633 138.027 318.031C137.727 318.426 137.576 318.998 137.576 319.748V319.953C137.576 320.684 137.727 321.246 138.027 321.641C138.328 322.035 138.758 322.232 139.316 322.232ZM144.525 315.125V316.66H145.709V317.498H144.525V321.43C144.525 321.684 144.578 321.875 144.684 322.004C144.789 322.129 144.969 322.191 145.223 322.191C145.348 322.191 145.52 322.168 145.738 322.121V323C145.453 323.078 145.176 323.117 144.906 323.117C144.422 323.117 144.057 322.971 143.811 322.678C143.564 322.385 143.441 321.969 143.441 321.43V317.498H142.287V316.66H143.441V315.125H144.525ZM148.158 323H147.074V316.66H148.158V323ZM146.986 314.979C146.986 314.803 147.039 314.654 147.145 314.533C147.254 314.412 147.414 314.352 147.625 314.352C147.836 314.352 147.996 314.412 148.105 314.533C148.215 314.654 148.27 314.803 148.27 314.979C148.27 315.154 148.215 315.301 148.105 315.418C147.996 315.535 147.836 315.594 147.625 315.594C147.414 315.594 147.254 315.535 147.145 315.418C147.039 315.301 146.986 315.154 146.986 314.979ZM149.611 319.771C149.611 319.15 149.732 318.592 149.975 318.096C150.221 317.6 150.561 317.217 150.994 316.947C151.432 316.678 151.93 316.543 152.488 316.543C153.352 316.543 154.049 316.842 154.58 317.439C155.115 318.037 155.383 318.832 155.383 319.824V319.9C155.383 320.518 155.264 321.072 155.025 321.564C154.791 322.053 154.453 322.434 154.012 322.707C153.574 322.98 153.07 323.117 152.5 323.117C151.641 323.117 150.943 322.818 150.408 322.221C149.877 321.623 149.611 320.832 149.611 319.848V319.771ZM150.701 319.9C150.701 320.604 150.863 321.168 151.188 321.594C151.516 322.02 151.953 322.232 152.5 322.232C153.051 322.232 153.488 322.018 153.812 321.588C154.137 321.154 154.299 320.549 154.299 319.771C154.299 319.076 154.133 318.514 153.801 318.084C153.473 317.65 153.035 317.434 152.488 317.434C151.953 317.434 151.521 317.646 151.193 318.072C150.865 318.498 150.701 319.107 150.701 319.9ZM157.768 316.66L157.803 317.457C158.287 316.848 158.92 316.543 159.701 316.543C161.041 316.543 161.717 317.299 161.729 318.811V323H160.645V318.805C160.641 318.348 160.535 318.01 160.328 317.791C160.125 317.572 159.807 317.463 159.373 317.463C159.021 317.463 158.713 317.557 158.447 317.744C158.182 317.932 157.975 318.178 157.826 318.482V323H156.742V316.66H157.768ZM167.518 323H166.434V316.66H167.518V323ZM166.346 314.979C166.346 314.803 166.398 314.654 166.504 314.533C166.613 314.412 166.773 314.352 166.984 314.352C167.195 314.352 167.355 314.412 167.465 314.533C167.574 314.654 167.629 314.803 167.629 314.979C167.629 315.154 167.574 315.301 167.465 315.418C167.355 315.535 167.195 315.594 166.984 315.594C166.773 315.594 166.613 315.535 166.504 315.418C166.398 315.301 166.346 315.154 166.346 314.979ZM170.283 316.66L170.318 317.457C170.803 316.848 171.436 316.543 172.217 316.543C173.557 316.543 174.232 317.299 174.244 318.811V323H173.16V318.805C173.156 318.348 173.051 318.01 172.844 317.791C172.641 317.572 172.322 317.463 171.889 317.463C171.537 317.463 171.229 317.557 170.963 317.744C170.697 317.932 170.49 318.178 170.342 318.482V323H169.258V316.66H170.283ZM180.326 315.125V316.66H181.51V317.498H180.326V321.43C180.326 321.684 180.379 321.875 180.484 322.004C180.59 322.129 180.77 322.191 181.023 322.191C181.148 322.191 181.32 322.168 181.539 322.121V323C181.254 323.078 180.977 323.117 180.707 323.117C180.223 323.117 179.857 322.971 179.611 322.678C179.365 322.385 179.242 321.969 179.242 321.43V317.498H178.088V316.66H179.242V315.125H180.326ZM183.865 317.428C184.346 316.838 184.971 316.543 185.74 316.543C187.08 316.543 187.756 317.299 187.768 318.811V323H186.684V318.805C186.68 318.348 186.574 318.01 186.367 317.791C186.164 317.572 185.846 317.463 185.412 317.463C185.061 317.463 184.752 317.557 184.486 317.744C184.221 317.932 184.014 318.178 183.865 318.482V323H182.781V314H183.865V317.428ZM192.021 323.117C191.162 323.117 190.463 322.836 189.924 322.273C189.385 321.707 189.115 320.951 189.115 320.006V319.807C189.115 319.178 189.234 318.617 189.473 318.125C189.715 317.629 190.051 317.242 190.48 316.965C190.914 316.684 191.383 316.543 191.887 316.543C192.711 316.543 193.352 316.814 193.809 317.357C194.266 317.9 194.494 318.678 194.494 319.689V320.141H190.199C190.215 320.766 190.396 321.271 190.744 321.658C191.096 322.041 191.541 322.232 192.08 322.232C192.463 322.232 192.787 322.154 193.053 321.998C193.318 321.842 193.551 321.635 193.75 321.377L194.412 321.893C193.881 322.709 193.084 323.117 192.021 323.117ZM191.887 317.434C191.449 317.434 191.082 317.594 190.785 317.914C190.488 318.23 190.305 318.676 190.234 319.25H193.41V319.168C193.379 318.617 193.23 318.191 192.965 317.891C192.699 317.586 192.34 317.434 191.887 317.434ZM199.756 316.66L199.791 317.457C200.275 316.848 200.908 316.543 201.689 316.543C203.029 316.543 203.705 317.299 203.717 318.811V323H202.633V318.805C202.629 318.348 202.523 318.01 202.316 317.791C202.113 317.572 201.795 317.463 201.361 317.463C201.01 317.463 200.701 317.557 200.436 317.744C200.17 317.932 199.963 318.178 199.814 318.482V323H198.73V316.66H199.756ZM207.982 323.117C207.123 323.117 206.424 322.836 205.885 322.273C205.346 321.707 205.076 320.951 205.076 320.006V319.807C205.076 319.178 205.195 318.617 205.434 318.125C205.676 317.629 206.012 317.242 206.441 316.965C206.875 316.684 207.344 316.543 207.848 316.543C208.672 316.543 209.312 316.814 209.77 317.357C210.227 317.9 210.455 318.678 210.455 319.689V320.141H206.16C206.176 320.766 206.357 321.271 206.705 321.658C207.057 322.041 207.502 322.232 208.041 322.232C208.424 322.232 208.748 322.154 209.014 321.998C209.279 321.842 209.512 321.635 209.711 321.377L210.373 321.893C209.842 322.709 209.045 323.117 207.982 323.117ZM207.848 317.434C207.41 317.434 207.043 317.594 206.746 317.914C206.449 318.23 206.266 318.676 206.195 319.25H209.371V319.168C209.34 318.617 209.191 318.191 208.926 317.891C208.66 317.586 208.301 317.434 207.848 317.434ZM213.842 318.975L215.248 316.66H216.514L214.439 319.795L216.578 323H215.324L213.859 320.627L212.395 323H211.135L213.273 319.795L211.199 316.66H212.453L213.842 318.975ZM219.139 315.125V316.66H220.322V317.498H219.139V321.43C219.139 321.684 219.191 321.875 219.297 322.004C219.402 322.129 219.582 322.191 219.836 322.191C219.961 322.191 220.133 322.168 220.352 322.121V323C220.066 323.078 219.789 323.117 219.52 323.117C219.035 323.117 218.67 322.971 218.424 322.678C218.178 322.385 218.055 321.969 218.055 321.43V317.498H216.9V316.66H218.055V315.125H219.139ZM19.5566 333.777C19.5566 332.805 19.7871 332.023 20.248 331.434C20.709 330.84 21.3125 330.543 22.0586 330.543C22.8008 330.543 23.3887 330.797 23.8223 331.305V328H24.9062V337H23.9102L23.8574 336.32C23.4238 336.852 22.8203 337.117 22.0469 337.117C21.3125 337.117 20.7129 336.816 20.248 336.215C19.7871 335.613 19.5566 334.828 19.5566 333.859V333.777ZM20.6406 333.9C20.6406 334.619 20.7891 335.182 21.0859 335.588C21.3828 335.994 21.793 336.197 22.3164 336.197C23.0039 336.197 23.5059 335.889 23.8223 335.271V332.359C23.498 331.762 23 331.463 22.3281 331.463C21.7969 331.463 21.3828 331.668 21.0859 332.078C20.7891 332.488 20.6406 333.096 20.6406 333.9ZM30.5078 337C30.4453 336.875 30.3945 336.652 30.3555 336.332C29.8516 336.855 29.25 337.117 28.5508 337.117C27.9258 337.117 27.4121 336.941 27.0098 336.59C26.6113 336.234 26.4121 335.785 26.4121 335.242C26.4121 334.582 26.6621 334.07 27.1621 333.707C27.666 333.34 28.373 333.156 29.2832 333.156H30.3379V332.658C30.3379 332.279 30.2246 331.979 29.998 331.756C29.7715 331.529 29.4375 331.416 28.9961 331.416C28.6094 331.416 28.2852 331.514 28.0234 331.709C27.7617 331.904 27.6309 332.141 27.6309 332.418H26.541C26.541 332.102 26.6523 331.797 26.875 331.504C27.1016 331.207 27.4062 330.973 27.7891 330.801C28.1758 330.629 28.5996 330.543 29.0605 330.543C29.791 330.543 30.3633 330.727 30.7773 331.094C31.1914 331.457 31.4062 331.959 31.4219 332.6V335.518C31.4219 336.1 31.4961 336.562 31.6445 336.906V337H30.5078ZM28.709 336.174C29.0488 336.174 29.3711 336.086 29.6758 335.91C29.9805 335.734 30.2012 335.506 30.3379 335.225V333.924H29.4883C28.1602 333.924 27.4961 334.312 27.4961 335.09C27.4961 335.43 27.6094 335.695 27.8359 335.887C28.0625 336.078 28.3535 336.174 28.709 336.174ZM35.1016 335.412L36.5781 330.66H37.7383L35.1895 337.979C34.7949 339.033 34.168 339.561 33.3086 339.561L33.1035 339.543L32.6992 339.467V338.588L32.9922 338.611C33.3594 338.611 33.6445 338.537 33.8477 338.389C34.0547 338.24 34.2246 337.969 34.3574 337.574L34.5977 336.93L32.3359 330.66H33.5195L35.1016 335.412ZM47.3008 335.506L48.5195 330.66H49.6035L47.7578 337H46.8789L45.3379 332.195L43.8379 337H42.959L41.1191 330.66H42.1973L43.4453 335.406L44.9219 330.66H45.7949L47.3008 335.506ZM51.7949 331.428C52.2754 330.838 52.9004 330.543 53.6699 330.543C55.0098 330.543 55.6855 331.299 55.6973 332.811V337H54.6133V332.805C54.6094 332.348 54.5039 332.01 54.2969 331.791C54.0938 331.572 53.7754 331.463 53.3418 331.463C52.9902 331.463 52.6816 331.557 52.416 331.744C52.1504 331.932 51.9434 332.178 51.7949 332.482V337H50.7109V328H51.7949V331.428ZM59.9512 337.117C59.0918 337.117 58.3926 336.836 57.8535 336.273C57.3145 335.707 57.0449 334.951 57.0449 334.006V333.807C57.0449 333.178 57.1641 332.617 57.4023 332.125C57.6445 331.629 57.9805 331.242 58.4102 330.965C58.8438 330.684 59.3125 330.543 59.8164 330.543C60.6406 330.543 61.2812 330.814 61.7383 331.357C62.1953 331.9 62.4238 332.678 62.4238 333.689V334.141H58.1289C58.1445 334.766 58.3262 335.271 58.6738 335.658C59.0254 336.041 59.4707 336.232 60.0098 336.232C60.3926 336.232 60.7168 336.154 60.9824 335.998C61.248 335.842 61.4805 335.635 61.6797 335.377L62.3418 335.893C61.8105 336.709 61.0137 337.117 59.9512 337.117ZM59.8164 331.434C59.3789 331.434 59.0117 331.594 58.7148 331.914C58.418 332.23 58.2344 332.676 58.1641 333.25H61.3398V333.168C61.3086 332.617 61.1602 332.191 60.8945 331.891C60.6289 331.586 60.2695 331.434 59.8164 331.434ZM64.709 330.66L64.7441 331.457C65.2285 330.848 65.8613 330.543 66.6426 330.543C67.9824 330.543 68.6582 331.299 68.6699 332.811V337H67.5859V332.805C67.582 332.348 67.4766 332.01 67.2695 331.791C67.0664 331.572 66.748 331.463 66.3145 331.463C65.9629 331.463 65.6543 331.557 65.3887 331.744C65.123 331.932 64.916 332.178 64.7676 332.482V337H63.6836V330.66H64.709ZM74.752 329.125V330.66H75.9355V331.498H74.752V335.43C74.752 335.684 74.8047 335.875 74.9102 336.004C75.0156 336.129 75.1953 336.191 75.4492 336.191C75.5742 336.191 75.7461 336.168 75.9648 336.121V337C75.6797 337.078 75.4023 337.117 75.1328 337.117C74.6484 337.117 74.2832 336.971 74.0371 336.678C73.791 336.385 73.668 335.969 73.668 335.43V331.498H72.5137V330.66H73.668V329.125H74.752ZM78.291 331.428C78.7715 330.838 79.3965 330.543 80.166 330.543C81.5059 330.543 82.1816 331.299 82.1934 332.811V337H81.1094V332.805C81.1055 332.348 81 332.01 80.793 331.791C80.5898 331.572 80.2715 331.463 79.8379 331.463C79.4863 331.463 79.1777 331.557 78.9121 331.744C78.6465 331.932 78.4395 332.178 78.291 332.482V337H77.207V328H78.291V331.428ZM86.4473 337.117C85.5879 337.117 84.8887 336.836 84.3496 336.273C83.8105 335.707 83.541 334.951 83.541 334.006V333.807C83.541 333.178 83.6602 332.617 83.8984 332.125C84.1406 331.629 84.4766 331.242 84.9062 330.965C85.3398 330.684 85.8086 330.543 86.3125 330.543C87.1367 330.543 87.7773 330.814 88.2344 331.357C88.6914 331.9 88.9199 332.678 88.9199 333.689V334.141H84.625C84.6406 334.766 84.8223 335.271 85.1699 335.658C85.5215 336.041 85.9668 336.232 86.5059 336.232C86.8887 336.232 87.2129 336.154 87.4785 335.998C87.7441 335.842 87.9766 335.635 88.1758 335.377L88.8379 335.893C88.3066 336.709 87.5098 337.117 86.4473 337.117ZM86.3125 331.434C85.875 331.434 85.5078 331.594 85.2109 331.914C84.9141 332.23 84.7305 332.676 84.6602 333.25H87.8359V333.168C87.8047 332.617 87.6562 332.191 87.3906 331.891C87.125 331.586 86.7656 331.434 86.3125 331.434ZM94.1758 330.66L94.2051 331.363C94.6699 330.816 95.2969 330.543 96.0859 330.543C96.9727 330.543 97.5762 330.883 97.8965 331.562C98.1074 331.258 98.3809 331.012 98.7168 330.824C99.0566 330.637 99.457 330.543 99.918 330.543C101.309 330.543 102.016 331.279 102.039 332.752V337H100.955V332.816C100.955 332.363 100.852 332.025 100.645 331.803C100.438 331.576 100.09 331.463 99.6016 331.463C99.1992 331.463 98.8652 331.584 98.5996 331.826C98.334 332.064 98.1797 332.387 98.1367 332.793V337H97.0469V332.846C97.0469 331.924 96.5957 331.463 95.6934 331.463C94.9824 331.463 94.4961 331.766 94.2344 332.371V337H93.1504V330.66H94.1758ZM107.594 337C107.531 336.875 107.48 336.652 107.441 336.332C106.938 336.855 106.336 337.117 105.637 337.117C105.012 337.117 104.498 336.941 104.096 336.59C103.697 336.234 103.498 335.785 103.498 335.242C103.498 334.582 103.748 334.07 104.248 333.707C104.752 333.34 105.459 333.156 106.369 333.156H107.424V332.658C107.424 332.279 107.311 331.979 107.084 331.756C106.857 331.529 106.523 331.416 106.082 331.416C105.695 331.416 105.371 331.514 105.109 331.709C104.848 331.904 104.717 332.141 104.717 332.418H103.627C103.627 332.102 103.738 331.797 103.961 331.504C104.188 331.207 104.492 330.973 104.875 330.801C105.262 330.629 105.686 330.543 106.146 330.543C106.877 330.543 107.449 330.727 107.863 331.094C108.277 331.457 108.492 331.959 108.508 332.6V335.518C108.508 336.1 108.582 336.562 108.73 336.906V337H107.594ZM105.795 336.174C106.135 336.174 106.457 336.086 106.762 335.91C107.066 335.734 107.287 335.506 107.424 335.225V333.924H106.574C105.246 333.924 104.582 334.312 104.582 335.09C104.582 335.43 104.695 335.695 104.922 335.887C105.148 336.078 105.439 336.174 105.795 336.174ZM113.271 331.633C113.107 331.605 112.93 331.592 112.738 331.592C112.027 331.592 111.545 331.895 111.291 332.5V337H110.207V330.66H111.262L111.279 331.393C111.635 330.826 112.139 330.543 112.791 330.543C113.002 330.543 113.162 330.57 113.271 330.625V331.633ZM116.043 334.064L115.363 334.773V337H114.279V328H115.363V333.443L115.943 332.746L117.918 330.66H119.236L116.77 333.309L119.523 337H118.252L116.043 334.064ZM122.869 337.117C122.01 337.117 121.311 336.836 120.771 336.273C120.232 335.707 119.963 334.951 119.963 334.006V333.807C119.963 333.178 120.082 332.617 120.32 332.125C120.562 331.629 120.898 331.242 121.328 330.965C121.762 330.684 122.23 330.543 122.734 330.543C123.559 330.543 124.199 330.814 124.656 331.357C125.113 331.9 125.342 332.678 125.342 333.689V334.141H121.047C121.062 334.766 121.244 335.271 121.592 335.658C121.943 336.041 122.389 336.232 122.928 336.232C123.311 336.232 123.635 336.154 123.9 335.998C124.166 335.842 124.398 335.635 124.598 335.377L125.26 335.893C124.729 336.709 123.932 337.117 122.869 337.117ZM122.734 331.434C122.297 331.434 121.93 331.594 121.633 331.914C121.336 332.23 121.152 332.676 121.082 333.25H124.258V333.168C124.227 332.617 124.078 332.191 123.812 331.891C123.547 331.586 123.188 331.434 122.734 331.434ZM128.072 329.125V330.66H129.256V331.498H128.072V335.43C128.072 335.684 128.125 335.875 128.23 336.004C128.336 336.129 128.516 336.191 128.77 336.191C128.895 336.191 129.066 336.168 129.285 336.121V337C129 337.078 128.723 337.117 128.453 337.117C127.969 337.117 127.604 336.971 127.357 336.678C127.111 336.385 126.988 335.969 126.988 335.43V331.498H125.834V330.66H126.988V329.125H128.072ZM133.217 333.771C133.217 333.15 133.338 332.592 133.58 332.096C133.826 331.6 134.166 331.217 134.6 330.947C135.037 330.678 135.535 330.543 136.094 330.543C136.957 330.543 137.654 330.842 138.186 331.439C138.721 332.037 138.988 332.832 138.988 333.824V333.9C138.988 334.518 138.869 335.072 138.631 335.564C138.396 336.053 138.059 336.434 137.617 336.707C137.18 336.98 136.676 337.117 136.105 337.117C135.246 337.117 134.549 336.818 134.014 336.221C133.482 335.623 133.217 334.832 133.217 333.848V333.771ZM134.307 333.9C134.307 334.604 134.469 335.168 134.793 335.594C135.121 336.02 135.559 336.232 136.105 336.232C136.656 336.232 137.094 336.018 137.418 335.588C137.742 335.154 137.904 334.549 137.904 333.771C137.904 333.076 137.738 332.514 137.406 332.084C137.078 331.65 136.641 331.434 136.094 331.434C135.559 331.434 135.127 331.646 134.799 332.072C134.471 332.498 134.307 333.107 134.307 333.9ZM145.703 333.9C145.703 334.865 145.482 335.643 145.041 336.232C144.6 336.822 144.002 337.117 143.248 337.117C142.479 337.117 141.873 336.873 141.432 336.385V339.438H140.348V330.66H141.338L141.391 331.363C141.832 330.816 142.445 330.543 143.23 330.543C143.992 330.543 144.594 330.83 145.035 331.404C145.48 331.979 145.703 332.777 145.703 333.801V333.9ZM144.619 333.777C144.619 333.062 144.467 332.498 144.162 332.084C143.857 331.67 143.439 331.463 142.908 331.463C142.252 331.463 141.76 331.754 141.432 332.336V335.365C141.756 335.943 142.252 336.232 142.92 336.232C143.439 336.232 143.852 336.027 144.156 335.617C144.465 335.203 144.619 334.59 144.619 333.777ZM149.717 337.117C148.857 337.117 148.158 336.836 147.619 336.273C147.08 335.707 146.811 334.951 146.811 334.006V333.807C146.811 333.178 146.93 332.617 147.168 332.125C147.41 331.629 147.746 331.242 148.176 330.965C148.609 330.684 149.078 330.543 149.582 330.543C150.406 330.543 151.047 330.814 151.504 331.357C151.961 331.9 152.189 332.678 152.189 333.689V334.141H147.895C147.91 334.766 148.092 335.271 148.439 335.658C148.791 336.041 149.236 336.232 149.775 336.232C150.158 336.232 150.482 336.154 150.748 335.998C151.014 335.842 151.246 335.635 151.445 335.377L152.107 335.893C151.576 336.709 150.779 337.117 149.717 337.117ZM149.582 331.434C149.145 331.434 148.777 331.594 148.48 331.914C148.184 332.23 148 332.676 147.93 333.25H151.105V333.168C151.074 332.617 150.926 332.191 150.66 331.891C150.395 331.586 150.035 331.434 149.582 331.434ZM154.475 330.66L154.51 331.457C154.994 330.848 155.627 330.543 156.408 330.543C157.748 330.543 158.424 331.299 158.436 332.811V337H157.352V332.805C157.348 332.348 157.242 332.01 157.035 331.791C156.832 331.572 156.514 331.463 156.08 331.463C155.729 331.463 155.42 331.557 155.154 331.744C154.889 331.932 154.682 332.178 154.533 332.482V337H153.449V330.66H154.475ZM163.762 335.318C163.762 335.025 163.65 334.799 163.428 334.639C163.209 334.475 162.824 334.334 162.273 334.217C161.727 334.1 161.291 333.959 160.967 333.795C160.646 333.631 160.408 333.436 160.252 333.209C160.1 332.982 160.023 332.713 160.023 332.4C160.023 331.881 160.242 331.441 160.68 331.082C161.121 330.723 161.684 330.543 162.367 330.543C163.086 330.543 163.668 330.729 164.113 331.1C164.562 331.471 164.787 331.945 164.787 332.523H163.697C163.697 332.227 163.57 331.971 163.316 331.756C163.066 331.541 162.75 331.434 162.367 331.434C161.973 331.434 161.664 331.52 161.441 331.691C161.219 331.863 161.107 332.088 161.107 332.365C161.107 332.627 161.211 332.824 161.418 332.957C161.625 333.09 161.998 333.217 162.537 333.338C163.08 333.459 163.52 333.604 163.855 333.771C164.191 333.939 164.439 334.143 164.6 334.381C164.764 334.615 164.846 334.902 164.846 335.242C164.846 335.809 164.619 336.264 164.166 336.607C163.713 336.947 163.125 337.117 162.402 337.117C161.895 337.117 161.445 337.027 161.055 336.848C160.664 336.668 160.357 336.418 160.135 336.098C159.916 335.773 159.807 335.424 159.807 335.049H160.891C160.91 335.412 161.055 335.701 161.324 335.916C161.598 336.127 161.957 336.232 162.402 336.232C162.812 336.232 163.141 336.15 163.387 335.986C163.637 335.818 163.762 335.596 163.762 335.318ZM173.148 337C173.086 336.875 173.035 336.652 172.996 336.332C172.492 336.855 171.891 337.117 171.191 337.117C170.566 337.117 170.053 336.941 169.65 336.59C169.252 336.234 169.053 335.785 169.053 335.242C169.053 334.582 169.303 334.07 169.803 333.707C170.307 333.34 171.014 333.156 171.924 333.156H172.979V332.658C172.979 332.279 172.865 331.979 172.639 331.756C172.412 331.529 172.078 331.416 171.637 331.416C171.25 331.416 170.926 331.514 170.664 331.709C170.402 331.904 170.271 332.141 170.271 332.418H169.182C169.182 332.102 169.293 331.797 169.516 331.504C169.742 331.207 170.047 330.973 170.43 330.801C170.816 330.629 171.24 330.543 171.701 330.543C172.432 330.543 173.004 330.727 173.418 331.094C173.832 331.457 174.047 331.959 174.062 332.6V335.518C174.062 336.1 174.137 336.562 174.285 336.906V337H173.148ZM171.35 336.174C171.689 336.174 172.012 336.086 172.316 335.91C172.621 335.734 172.842 335.506 172.979 335.225V333.924H172.129C170.801 333.924 170.137 334.312 170.137 335.09C170.137 335.43 170.25 335.695 170.477 335.887C170.703 336.078 170.994 336.174 171.35 336.174ZM175.504 333.777C175.504 332.789 175.732 332.004 176.189 331.422C176.646 330.836 177.252 330.543 178.006 330.543C178.779 330.543 179.383 330.816 179.816 331.363L179.869 330.66H180.859V336.848C180.859 337.668 180.615 338.314 180.127 338.787C179.643 339.26 178.99 339.496 178.17 339.496C177.713 339.496 177.266 339.398 176.828 339.203C176.391 339.008 176.057 338.74 175.826 338.4L176.389 337.75C176.854 338.324 177.422 338.611 178.094 338.611C178.621 338.611 179.031 338.463 179.324 338.166C179.621 337.869 179.77 337.451 179.77 336.912V336.367C179.336 336.867 178.744 337.117 177.994 337.117C177.252 337.117 176.65 336.818 176.189 336.221C175.732 335.623 175.504 334.809 175.504 333.777ZM176.594 333.9C176.594 334.615 176.74 335.178 177.033 335.588C177.326 335.994 177.736 336.197 178.264 336.197C178.947 336.197 179.449 335.887 179.77 335.266V332.371C179.438 331.766 178.939 331.463 178.275 331.463C177.748 331.463 177.336 331.668 177.039 332.078C176.742 332.488 176.594 333.096 176.594 333.9ZM186.414 337C186.352 336.875 186.301 336.652 186.262 336.332C185.758 336.855 185.156 337.117 184.457 337.117C183.832 337.117 183.318 336.941 182.916 336.59C182.518 336.234 182.318 335.785 182.318 335.242C182.318 334.582 182.568 334.07 183.068 333.707C183.572 333.34 184.279 333.156 185.189 333.156H186.244V332.658C186.244 332.279 186.131 331.979 185.904 331.756C185.678 331.529 185.344 331.416 184.902 331.416C184.516 331.416 184.191 331.514 183.93 331.709C183.668 331.904 183.537 332.141 183.537 332.418H182.447C182.447 332.102 182.559 331.797 182.781 331.504C183.008 331.207 183.312 330.973 183.695 330.801C184.082 330.629 184.506 330.543 184.967 330.543C185.697 330.543 186.27 330.727 186.684 331.094C187.098 331.457 187.312 331.959 187.328 332.6V335.518C187.328 336.1 187.402 336.562 187.551 336.906V337H186.414ZM184.615 336.174C184.955 336.174 185.277 336.086 185.582 335.91C185.887 335.734 186.107 335.506 186.244 335.225V333.924H185.395C184.066 333.924 183.402 334.312 183.402 335.09C183.402 335.43 183.516 335.695 183.742 335.887C183.969 336.078 184.26 336.174 184.615 336.174ZM190.205 337H189.121V330.66H190.205V337ZM189.033 328.979C189.033 328.803 189.086 328.654 189.191 328.533C189.301 328.412 189.461 328.352 189.672 328.352C189.883 328.352 190.043 328.412 190.152 328.533C190.262 328.654 190.316 328.803 190.316 328.979C190.316 329.154 190.262 329.301 190.152 329.418C190.043 329.535 189.883 329.594 189.672 329.594C189.461 329.594 189.301 329.535 189.191 329.418C189.086 329.301 189.033 329.154 189.033 328.979ZM192.971 330.66L193.006 331.457C193.49 330.848 194.123 330.543 194.904 330.543C196.244 330.543 196.92 331.299 196.932 332.811V337H195.848V332.805C195.844 332.348 195.738 332.01 195.531 331.791C195.328 331.572 195.01 331.463 194.576 331.463C194.225 331.463 193.916 331.557 193.65 331.744C193.385 331.932 193.178 332.178 193.029 332.482V337H191.945V330.66H192.971ZM198.59 336.432C198.59 336.244 198.645 336.088 198.754 335.963C198.867 335.838 199.035 335.775 199.258 335.775C199.48 335.775 199.648 335.838 199.762 335.963C199.879 336.088 199.938 336.244 199.938 336.432C199.938 336.611 199.879 336.762 199.762 336.883C199.648 337.004 199.48 337.064 199.258 337.064C199.035 337.064 198.867 337.004 198.754 336.883C198.645 336.762 198.59 336.611 198.59 336.432Z" fill="#858383"/>
<path id="Confirm and go to the next month" d="M48.1836 243.667C48.1426 244.558 47.9023 245.346 47.4629 246.031C47.0234 246.711 46.4053 247.238 45.6084 247.613C44.8174 247.988 43.9121 248.176 42.8926 248.176C41.2109 248.176 39.8867 247.628 38.9199 246.532C37.9531 245.437 37.4697 243.89 37.4697 241.892V241.259C37.4697 240.005 37.6865 238.909 38.1201 237.972C38.5596 237.028 39.1895 236.302 40.0098 235.792C40.8301 235.276 41.7793 235.019 42.8574 235.019C44.4102 235.019 45.6582 235.429 46.6016 236.249C47.5449 237.063 48.0811 238.188 48.21 239.624H45.1338C45.1104 238.845 44.9141 238.285 44.5449 237.945C44.1758 237.605 43.6133 237.436 42.8574 237.436C42.0898 237.436 41.5273 237.723 41.1699 238.297C40.8125 238.871 40.625 239.788 40.6074 241.048V241.953C40.6074 243.318 40.7773 244.294 41.1172 244.88C41.4629 245.466 42.0547 245.759 42.8926 245.759C43.6016 245.759 44.1436 245.592 44.5186 245.258C44.8936 244.924 45.0928 244.394 45.1162 243.667H48.1836ZM49.1328 243.157C49.1328 242.208 49.3174 241.364 49.6865 240.626C50.0557 239.882 50.5859 239.311 51.2773 238.912C51.9688 238.514 52.7803 238.314 53.7119 238.314C55.1357 238.314 56.2578 238.757 57.0781 239.642C57.8984 240.521 58.3086 241.719 58.3086 243.236V243.342C58.3086 244.824 57.8955 246.002 57.0693 246.875C56.249 247.742 55.1357 248.176 53.7295 248.176C52.376 248.176 51.2891 247.771 50.4688 246.963C49.6484 246.148 49.2061 245.047 49.1416 243.658L49.1328 243.157ZM52.0947 243.342C52.0947 244.221 52.2324 244.865 52.5078 245.275C52.7832 245.686 53.1904 245.891 53.7295 245.891C54.7842 245.891 55.3232 245.079 55.3467 243.456V243.157C55.3467 241.452 54.8018 240.6 53.7119 240.6C52.7217 240.6 52.1855 241.335 52.1035 242.806L52.0947 243.342ZM62.334 238.49L62.4307 239.606C63.0869 238.745 63.9922 238.314 65.1465 238.314C66.1367 238.314 66.875 238.61 67.3613 239.202C67.8535 239.794 68.1084 240.685 68.126 241.874V248H65.1553V241.997C65.1553 241.517 65.0586 241.165 64.8652 240.942C64.6719 240.714 64.3203 240.6 63.8105 240.6C63.2305 240.6 62.7998 240.828 62.5186 241.285V248H59.5566V238.49H62.334ZM70.4639 248V240.547H69.084V238.49H70.4639V238.174C70.4814 236.908 70.8975 235.938 71.7119 235.265C72.4854 234.632 73.5664 234.315 74.9551 234.315C75.8281 234.315 76.8594 234.485 78.0488 234.825L77.6445 237.163L77.1523 237.031C76.5137 236.861 75.8398 236.776 75.1309 236.776C74 236.776 73.4346 237.292 73.4346 238.323V238.49H75.2979V240.547H73.4346V248H70.4639ZM79.4111 248H76.4316V238.49H79.4111V248ZM86.9697 241.171L85.9941 241.101C85.0625 241.101 84.4648 241.394 84.2012 241.979V248H81.2393V238.49H84.0166L84.1133 239.712C84.6113 238.78 85.3057 238.314 86.1963 238.314C86.5127 238.314 86.7881 238.35 87.0225 238.42L86.9697 241.171ZM90.8369 238.49L90.9336 239.606C91.6074 238.745 92.5127 238.314 93.6494 238.314C94.8506 238.314 95.6621 238.792 96.084 239.747C96.7285 238.792 97.6602 238.314 98.8789 238.314C100.807 238.314 101.797 239.48 101.85 241.812V248H98.8789V241.997C98.8789 241.511 98.7969 241.156 98.6328 240.934C98.4688 240.711 98.1699 240.6 97.7363 240.6C97.1504 240.6 96.7139 240.86 96.4268 241.382L96.4355 241.505V248H93.4648V242.015C93.4648 241.517 93.3857 241.156 93.2275 240.934C93.0693 240.711 92.7676 240.6 92.3223 240.6C91.7539 240.6 91.3203 240.86 91.0215 241.382V248H88.0596V238.49H90.8369ZM113.381 248C113.275 247.807 113.182 247.522 113.1 247.147C112.555 247.833 111.793 248.176 110.814 248.176C109.918 248.176 109.156 247.906 108.529 247.367C107.902 246.822 107.589 246.14 107.589 245.319C107.589 244.288 107.97 243.509 108.731 242.981C109.493 242.454 110.601 242.19 112.054 242.19H112.968V241.689C112.968 240.816 112.59 240.38 111.834 240.38C111.131 240.38 110.779 240.726 110.779 241.417H107.817C107.817 240.497 108.207 239.75 108.986 239.176C109.771 238.602 110.771 238.314 111.983 238.314C113.196 238.314 114.154 238.61 114.857 239.202C115.561 239.794 115.921 240.605 115.938 241.637V245.847C115.95 246.72 116.085 247.388 116.343 247.851V248H113.381ZM111.526 246.066C111.896 246.066 112.2 245.987 112.44 245.829C112.687 245.671 112.862 245.492 112.968 245.293V243.772H112.106C111.075 243.772 110.56 244.235 110.56 245.161C110.56 245.431 110.65 245.65 110.832 245.82C111.014 245.984 111.245 246.066 111.526 246.066ZM120.307 238.49L120.403 239.606C121.06 238.745 121.965 238.314 123.119 238.314C124.109 238.314 124.848 238.61 125.334 239.202C125.826 239.794 126.081 240.685 126.099 241.874V248H123.128V241.997C123.128 241.517 123.031 241.165 122.838 240.942C122.645 240.714 122.293 240.6 121.783 240.6C121.203 240.6 120.772 240.828 120.491 241.285V248H117.529V238.49H120.307ZM127.373 243.175C127.373 241.669 127.698 240.482 128.349 239.615C128.999 238.748 129.907 238.314 131.073 238.314C131.923 238.314 132.638 238.648 133.218 239.316V234.5H136.188V248H133.525L133.376 246.98C132.767 247.777 131.993 248.176 131.056 248.176C129.925 248.176 129.028 247.742 128.366 246.875C127.704 246.008 127.373 244.774 127.373 243.175ZM130.335 243.359C130.335 245.047 130.827 245.891 131.812 245.891C132.468 245.891 132.937 245.615 133.218 245.064V241.443C132.948 240.881 132.485 240.6 131.829 240.6C130.915 240.6 130.42 241.338 130.344 242.814L130.335 243.359ZM142.007 243.175C142.007 242.214 142.165 241.364 142.481 240.626C142.798 239.888 143.252 239.319 143.844 238.921C144.436 238.517 145.124 238.314 145.909 238.314C146.899 238.314 147.673 238.648 148.229 239.316L148.335 238.49H151.024V247.64C151.024 248.478 150.828 249.204 150.436 249.819C150.049 250.44 149.486 250.915 148.748 251.243C148.01 251.577 147.154 251.744 146.182 251.744C145.484 251.744 144.808 251.612 144.151 251.349C143.501 251.085 143.003 250.742 142.657 250.32L143.896 248.58C144.447 249.23 145.174 249.556 146.076 249.556C147.389 249.556 148.045 248.882 148.045 247.534V247.235C147.477 247.862 146.759 248.176 145.892 248.176C144.731 248.176 143.794 247.733 143.079 246.849C142.364 245.958 142.007 244.769 142.007 243.28V243.175ZM144.978 243.359C144.978 244.139 145.124 244.757 145.417 245.214C145.71 245.665 146.12 245.891 146.647 245.891C147.286 245.891 147.752 245.677 148.045 245.249V241.25C147.758 240.816 147.298 240.6 146.665 240.6C146.138 240.6 145.725 240.837 145.426 241.312C145.127 241.78 144.978 242.463 144.978 243.359ZM152.334 243.157C152.334 242.208 152.519 241.364 152.888 240.626C153.257 239.882 153.787 239.311 154.479 238.912C155.17 238.514 155.981 238.314 156.913 238.314C158.337 238.314 159.459 238.757 160.279 239.642C161.1 240.521 161.51 241.719 161.51 243.236V243.342C161.51 244.824 161.097 246.002 160.271 246.875C159.45 247.742 158.337 248.176 156.931 248.176C155.577 248.176 154.49 247.771 153.67 246.963C152.85 246.148 152.407 245.047 152.343 243.658L152.334 243.157ZM155.296 243.342C155.296 244.221 155.434 244.865 155.709 245.275C155.984 245.686 156.392 245.891 156.931 245.891C157.985 245.891 158.524 245.079 158.548 243.456V243.157C158.548 241.452 158.003 240.6 156.913 240.6C155.923 240.6 155.387 241.335 155.305 242.806L155.296 243.342ZM170.747 236.126V238.49H172.312V240.547H170.747V244.897C170.747 245.255 170.812 245.504 170.94 245.645C171.069 245.785 171.324 245.855 171.705 245.855C171.998 245.855 172.244 245.838 172.443 245.803V247.921C171.91 248.091 171.354 248.176 170.773 248.176C169.754 248.176 169.001 247.936 168.515 247.455C168.028 246.975 167.785 246.245 167.785 245.267V240.547H166.572V238.49H167.785V236.126H170.747ZM172.848 243.157C172.848 242.208 173.032 241.364 173.401 240.626C173.771 239.882 174.301 239.311 174.992 238.912C175.684 238.514 176.495 238.314 177.427 238.314C178.851 238.314 179.973 238.757 180.793 239.642C181.613 240.521 182.023 241.719 182.023 243.236V243.342C182.023 244.824 181.61 246.002 180.784 246.875C179.964 247.742 178.851 248.176 177.444 248.176C176.091 248.176 175.004 247.771 174.184 246.963C173.363 246.148 172.921 245.047 172.856 243.658L172.848 243.157ZM175.81 243.342C175.81 244.221 175.947 244.865 176.223 245.275C176.498 245.686 176.905 245.891 177.444 245.891C178.499 245.891 179.038 245.079 179.062 243.456V243.157C179.062 241.452 178.517 240.6 177.427 240.6C176.437 240.6 175.9 241.335 175.818 242.806L175.81 243.342ZM191.261 236.126V238.49H192.825V240.547H191.261V244.897C191.261 245.255 191.325 245.504 191.454 245.645C191.583 245.785 191.838 245.855 192.219 245.855C192.512 245.855 192.758 245.838 192.957 245.803V247.921C192.424 248.091 191.867 248.176 191.287 248.176C190.268 248.176 189.515 247.936 189.028 247.455C188.542 246.975 188.299 246.245 188.299 245.267V240.547H187.086V238.49H188.299V236.126H191.261ZM196.895 239.51C197.527 238.713 198.336 238.314 199.32 238.314C200.369 238.314 201.16 238.625 201.693 239.246C202.227 239.867 202.499 240.784 202.511 241.997V248H199.54V242.067C199.54 241.563 199.438 241.194 199.232 240.96C199.027 240.72 198.679 240.6 198.187 240.6C197.577 240.6 197.146 240.793 196.895 241.18V248H193.933V234.5H196.895V239.51ZM208.76 248.176C207.301 248.176 206.12 247.742 205.218 246.875C204.315 246.002 203.864 244.868 203.864 243.474V243.228C203.864 242.255 204.043 241.396 204.4 240.652C204.764 239.908 205.291 239.334 205.982 238.93C206.674 238.52 207.494 238.314 208.443 238.314C209.779 238.314 210.834 238.73 211.607 239.562C212.381 240.389 212.768 241.543 212.768 243.025V244.177H206.879C206.984 244.71 207.216 245.129 207.573 245.434C207.931 245.738 208.394 245.891 208.962 245.891C209.899 245.891 210.632 245.562 211.159 244.906L212.513 246.506C212.144 247.016 211.619 247.423 210.939 247.728C210.266 248.026 209.539 248.176 208.76 248.176ZM208.426 240.6C207.559 240.6 207.043 241.174 206.879 242.322H209.867V242.094C209.879 241.619 209.759 241.253 209.507 240.995C209.255 240.731 208.895 240.6 208.426 240.6ZM82.54 259.49L82.6367 260.606C83.293 259.745 84.1982 259.314 85.3525 259.314C86.3428 259.314 87.0811 259.61 87.5674 260.202C88.0596 260.794 88.3145 261.685 88.332 262.874V269H85.3613V262.997C85.3613 262.517 85.2646 262.165 85.0713 261.942C84.8779 261.714 84.5264 261.6 84.0166 261.6C83.4365 261.6 83.0059 261.828 82.7246 262.285V269H79.7627V259.49H82.54ZM94.5811 269.176C93.1221 269.176 91.9414 268.742 91.0391 267.875C90.1367 267.002 89.6855 265.868 89.6855 264.474V264.228C89.6855 263.255 89.8643 262.396 90.2217 261.652C90.585 260.908 91.1123 260.334 91.8037 259.93C92.4951 259.52 93.3154 259.314 94.2646 259.314C95.6006 259.314 96.6553 259.73 97.4287 260.562C98.2021 261.389 98.5889 262.543 98.5889 264.025V265.177H92.7002C92.8057 265.71 93.0371 266.129 93.3945 266.434C93.752 266.738 94.2148 266.891 94.7832 266.891C95.7207 266.891 96.4531 266.562 96.9805 265.906L98.334 267.506C97.9648 268.016 97.4404 268.423 96.7607 268.728C96.0869 269.026 95.3604 269.176 94.5811 269.176ZM94.2471 261.6C93.3799 261.6 92.8643 262.174 92.7002 263.322H95.6885V263.094C95.7002 262.619 95.5801 262.253 95.3281 261.995C95.0762 261.731 94.7158 261.6 94.2471 261.6ZM103.643 262.109L105.022 259.49H108.099L105.594 264.122L108.222 269H105.128L103.634 266.188L102.166 269H99.0547L101.691 264.122L99.1953 259.49H102.307L103.643 262.109ZM112.502 257.126V259.49H114.066V261.547H112.502V265.897C112.502 266.255 112.566 266.504 112.695 266.645C112.824 266.785 113.079 266.855 113.46 266.855C113.753 266.855 113.999 266.838 114.198 266.803V268.921C113.665 269.091 113.108 269.176 112.528 269.176C111.509 269.176 110.756 268.936 110.27 268.455C109.783 267.975 109.54 267.245 109.54 266.267V261.547H108.327V259.49H109.54V257.126H112.502ZM122.521 259.49L122.618 260.606C123.292 259.745 124.197 259.314 125.334 259.314C126.535 259.314 127.347 259.792 127.769 260.747C128.413 259.792 129.345 259.314 130.563 259.314C132.491 259.314 133.481 260.48 133.534 262.812V269H130.563V262.997C130.563 262.511 130.481 262.156 130.317 261.934C130.153 261.711 129.854 261.6 129.421 261.6C128.835 261.6 128.398 261.86 128.111 262.382L128.12 262.505V269H125.149V263.015C125.149 262.517 125.07 262.156 124.912 261.934C124.754 261.711 124.452 261.6 124.007 261.6C123.438 261.6 123.005 261.86 122.706 262.382V269H119.744V259.49H122.521ZM134.853 264.157C134.853 263.208 135.037 262.364 135.406 261.626C135.775 260.882 136.306 260.311 136.997 259.912C137.688 259.514 138.5 259.314 139.432 259.314C140.855 259.314 141.978 259.757 142.798 260.642C143.618 261.521 144.028 262.719 144.028 264.236V264.342C144.028 265.824 143.615 267.002 142.789 267.875C141.969 268.742 140.855 269.176 139.449 269.176C138.096 269.176 137.009 268.771 136.188 267.963C135.368 267.148 134.926 266.047 134.861 264.658L134.853 264.157ZM137.814 264.342C137.814 265.221 137.952 265.865 138.228 266.275C138.503 266.686 138.91 266.891 139.449 266.891C140.504 266.891 141.043 266.079 141.066 264.456V264.157C141.066 262.452 140.521 261.6 139.432 261.6C138.441 261.6 137.905 262.335 137.823 263.806L137.814 264.342ZM148.054 259.49L148.15 260.606C148.807 259.745 149.712 259.314 150.866 259.314C151.856 259.314 152.595 259.61 153.081 260.202C153.573 260.794 153.828 261.685 153.846 262.874V269H150.875V262.997C150.875 262.517 150.778 262.165 150.585 261.942C150.392 261.714 150.04 261.6 149.53 261.6C148.95 261.6 148.52 261.828 148.238 262.285V269H145.276V259.49H148.054ZM158.943 257.126V259.49H160.508V261.547H158.943V265.897C158.943 266.255 159.008 266.504 159.137 266.645C159.266 266.785 159.521 266.855 159.901 266.855C160.194 266.855 160.44 266.838 160.64 266.803V268.921C160.106 269.091 159.55 269.176 158.97 269.176C157.95 269.176 157.197 268.936 156.711 268.455C156.225 267.975 155.981 267.245 155.981 266.267V261.547H154.769V259.49H155.981V257.126H158.943ZM164.577 260.51C165.21 259.713 166.019 259.314 167.003 259.314C168.052 259.314 168.843 259.625 169.376 260.246C169.909 260.867 170.182 261.784 170.193 262.997V269H167.223V263.067C167.223 262.563 167.12 262.194 166.915 261.96C166.71 261.72 166.361 261.6 165.869 261.6C165.26 261.6 164.829 261.793 164.577 262.18V269H161.615V255.5H164.577V260.51Z" fill="white"/>
<path id="After month 1" d="M22.3672 32.3633H17.7441L16.8652 35H14.0615L18.8252 22.2031H21.2686L26.0586 35H23.2549L22.3672 32.3633ZM18.4561 30.2275H21.6553L20.0469 25.4375L18.4561 30.2275ZM27.7812 35V27.3535H26.3662V25.4902H27.7812V24.6816C27.7812 23.6152 28.0859 22.7891 28.6953 22.2031C29.3105 21.6113 30.1689 21.3154 31.2705 21.3154C31.6221 21.3154 32.0527 21.374 32.5625 21.4912L32.5361 23.46C32.3252 23.4072 32.0674 23.3809 31.7627 23.3809C30.8076 23.3809 30.3301 23.8291 30.3301 24.7256V25.4902H32.2197V27.3535H30.3301V35H27.7812ZM36.5791 23.1523V25.4902H38.2051V27.3535H36.5791V32.0996C36.5791 32.4512 36.6465 32.7031 36.7812 32.8555C36.916 33.0078 37.1738 33.084 37.5547 33.084C37.8359 33.084 38.085 33.0635 38.3018 33.0225V34.9473C37.8037 35.0996 37.291 35.1758 36.7637 35.1758C34.9824 35.1758 34.0742 34.2764 34.0391 32.4775V27.3535H32.6504V25.4902H34.0391V23.1523H36.5791ZM43.9971 35.1758C42.6025 35.1758 41.4658 34.748 40.5869 33.8926C39.7139 33.0371 39.2773 31.8975 39.2773 30.4736V30.2275C39.2773 29.2725 39.4619 28.4199 39.8311 27.6699C40.2002 26.9141 40.7217 26.334 41.3955 25.9297C42.0752 25.5195 42.8486 25.3145 43.7158 25.3145C45.0166 25.3145 46.0391 25.7246 46.7832 26.5449C47.5332 27.3652 47.9082 28.5283 47.9082 30.0342V31.0713H41.8525C41.9346 31.6924 42.1807 32.1904 42.5908 32.5654C43.0068 32.9404 43.5312 33.1279 44.1641 33.1279C45.1426 33.1279 45.9072 32.7734 46.458 32.0645L47.7061 33.4619C47.3252 34.001 46.8096 34.4229 46.1592 34.7275C45.5088 35.0264 44.7881 35.1758 43.9971 35.1758ZM43.707 27.3711C43.2031 27.3711 42.793 27.541 42.4766 27.8809C42.166 28.2207 41.9668 28.707 41.8789 29.3398H45.4121V29.1377C45.4004 28.5752 45.248 28.1416 44.9551 27.8369C44.6621 27.5264 44.2461 27.3711 43.707 27.3711ZM54.7021 27.8721C54.3564 27.8252 54.0518 27.8018 53.7881 27.8018C52.8271 27.8018 52.1973 28.127 51.8984 28.7773V35H49.3584V25.4902H51.7578L51.8281 26.624C52.3379 25.751 53.0439 25.3145 53.9463 25.3145C54.2275 25.3145 54.4912 25.3525 54.7373 25.4287L54.7021 27.8721ZM62.7969 25.4902L62.876 26.5537C63.5498 25.7275 64.4609 25.3145 65.6094 25.3145C66.834 25.3145 67.6748 25.7979 68.1318 26.7646C68.7998 25.7979 69.752 25.3145 70.9883 25.3145C72.0195 25.3145 72.7871 25.6162 73.291 26.2197C73.7949 26.8174 74.0469 27.7197 74.0469 28.9268V35H71.498V28.9355C71.498 28.3965 71.3926 28.0039 71.1816 27.7578C70.9707 27.5059 70.5986 27.3799 70.0654 27.3799C69.3037 27.3799 68.7764 27.7432 68.4834 28.4697L68.4922 35H65.9521V28.9443C65.9521 28.3936 65.8438 27.9951 65.627 27.749C65.4102 27.5029 65.041 27.3799 64.5195 27.3799C63.7988 27.3799 63.2773 27.6787 62.9551 28.2764V35H60.415V25.4902H62.7969ZM75.6113 30.1572C75.6113 29.2139 75.793 28.373 76.1562 27.6348C76.5195 26.8965 77.041 26.3252 77.7207 25.9209C78.4062 25.5166 79.2002 25.3145 80.1025 25.3145C81.3857 25.3145 82.4316 25.707 83.2402 26.4922C84.0547 27.2773 84.5088 28.3438 84.6025 29.6914L84.6201 30.3418C84.6201 31.8008 84.2129 32.9727 83.3984 33.8574C82.584 34.7363 81.4912 35.1758 80.1201 35.1758C78.749 35.1758 77.6533 34.7363 76.833 33.8574C76.0186 32.9785 75.6113 31.7832 75.6113 30.2715V30.1572ZM78.1514 30.3418C78.1514 31.2441 78.3213 31.9355 78.6611 32.416C79.001 32.8906 79.4873 33.1279 80.1201 33.1279C80.7354 33.1279 81.2158 32.8936 81.5615 32.4248C81.9072 31.9502 82.0801 31.1943 82.0801 30.1572C82.0801 29.2725 81.9072 28.5869 81.5615 28.1006C81.2158 27.6143 80.7295 27.3711 80.1025 27.3711C79.4814 27.3711 79.001 27.6143 78.6611 28.1006C78.3213 28.5811 78.1514 29.3281 78.1514 30.3418ZM88.5225 25.4902L88.6016 26.5889C89.2812 25.7393 90.1924 25.3145 91.335 25.3145C92.3428 25.3145 93.0928 25.6104 93.585 26.2021C94.0771 26.7939 94.3291 27.6787 94.3408 28.8564V35H91.8008V28.918C91.8008 28.3789 91.6836 27.9893 91.4492 27.749C91.2148 27.5029 90.8252 27.3799 90.2803 27.3799C89.5654 27.3799 89.0293 27.6846 88.6719 28.2939V35H86.1318V25.4902H88.5225ZM99.3154 23.1523V25.4902H100.941V27.3535H99.3154V32.0996C99.3154 32.4512 99.3828 32.7031 99.5176 32.8555C99.6523 33.0078 99.9102 33.084 100.291 33.084C100.572 33.084 100.821 33.0635 101.038 33.0225V34.9473C100.54 35.0996 100.027 35.1758 99.5 35.1758C97.7188 35.1758 96.8105 34.2764 96.7754 32.4775V27.3535H95.3867V25.4902H96.7754V23.1523H99.3154ZM104.835 26.5273C105.509 25.7188 106.355 25.3145 107.375 25.3145C109.438 25.3145 110.483 26.5127 110.513 28.9092V35H107.973V28.9795C107.973 28.4346 107.855 28.0332 107.621 27.7754C107.387 27.5117 106.997 27.3799 106.452 27.3799C105.708 27.3799 105.169 27.667 104.835 28.2412V35H102.295V21.5H104.835V26.5273ZM122.976 35H120.436V25.209L117.403 26.1494V24.084L122.703 22.1855H122.976V35Z" fill="#2B2E55"/>
</g>
</svg>
