<svg width="166" height="84" viewBox="0 0 166 84" fill="none" xmlns="http://www.w3.org/2000/svg">
<g id="moneyIcon">
<rect id="Rectangle 119" x="2.5" y="2.5" width="161" height="78.4171" fill="white" stroke="#2B2E55" stroke-width="5"/>
<rect id="Rectangle 120" x="5.00504" y="5.00513" width="85.0854" height="78.4121" fill="#F3A83B"/>
<rect id="Rectangle 121" x="106" y="5" width="10" height="78" fill="#F3A83B"/>
<rect id="Rectangle 122" x="123.457" y="5.00513" width="35.0352" height="78.4121" fill="#E5E5E5"/>
<path id="$100" d="M21.1429 66.5566C21.1429 65.7852 20.9524 65.1797 20.5716 64.7402C20.1907 64.3008 19.5218 63.8857 18.5647 63.4951C17.6077 63.1045 16.7239 62.709 15.9134 62.3086C15.1028 61.9082 14.4046 61.4443 13.8186 60.917C13.2327 60.3896 12.7835 59.7793 12.471 59.0859C12.1585 58.3926 12.0022 57.5527 12.0022 56.5664C12.0022 54.916 12.5589 53.5586 13.6721 52.4941C14.7854 51.4199 16.2698 50.7949 18.1253 50.6191V47.5283H20.4544V50.6777C22.2415 50.9414 23.6429 51.6787 24.6585 52.8896C25.6839 54.0908 26.1966 55.6191 26.1966 57.4746H21.2454C21.2454 56.459 21.0501 55.6777 20.6595 55.1309C20.2688 54.584 19.7122 54.3105 18.9895 54.3105C18.345 54.3105 17.8421 54.5156 17.4807 54.9258C17.1292 55.3262 16.9534 55.8828 16.9534 56.5957C16.9534 57.3184 17.1585 57.8945 17.5686 58.3242C17.9788 58.7441 18.638 59.1494 19.5462 59.54C20.4544 59.9209 21.3089 60.3213 22.1096 60.7412C22.9202 61.1514 23.6184 61.6201 24.2044 62.1475C24.7903 62.6748 25.2493 63.29 25.5813 63.9932C25.9134 64.6963 26.0794 65.541 26.0794 66.5273C26.0794 68.1973 25.5471 69.5596 24.4827 70.6143C23.428 71.6689 21.9876 72.2842 20.1614 72.46V75.4043H17.8323V72.4453C15.7034 72.2207 14.0677 71.4932 12.9251 70.2627C11.7923 69.0225 11.2259 67.3916 11.2259 65.3701H16.1624C16.1624 66.4834 16.4065 67.333 16.8948 67.9189C17.3929 68.4951 18.096 68.7832 19.0042 68.7832C19.6682 68.7832 20.1907 68.5879 20.5716 68.1973C20.9524 67.7969 21.1429 67.25 21.1429 66.5566ZM39.6292 72.2109H34.678V56.4492L29.8147 57.8701V54.1201L39.1751 50.8828H39.6292V72.2109ZM60.8694 63.4951C60.8694 66.376 60.22 68.5977 58.9212 70.1602C57.6321 71.7227 55.8108 72.5039 53.4573 72.5039C51.0843 72.5039 49.2483 71.7178 47.9495 70.1455C46.6507 68.5732 46.0013 66.3564 46.0013 63.4951V59.5986C46.0013 56.7178 46.6458 54.4961 47.9348 52.9336C49.2337 51.3711 51.0647 50.5898 53.428 50.5898C55.7913 50.5898 57.6223 51.376 58.9212 52.9482C60.22 54.5205 60.8694 56.7422 60.8694 59.6133V63.4951ZM55.9329 58.9688C55.9329 57.4355 55.7327 56.293 55.3323 55.541C54.9319 54.7793 54.2971 54.3984 53.428 54.3984C52.5784 54.3984 51.9583 54.75 51.5677 55.4531C51.1868 56.1562 50.9817 57.2207 50.9524 58.6465V64.0957C50.9524 65.6875 51.1526 66.8545 51.553 67.5967C51.9534 68.3291 52.5882 68.6953 53.4573 68.6953C54.2971 68.6953 54.9173 68.3389 55.3177 67.626C55.718 66.9033 55.9231 65.7754 55.9329 64.2422V58.9688ZM78.2425 63.4951C78.2425 66.376 77.593 68.5977 76.2942 70.1602C75.0052 71.7227 73.1839 72.5039 70.8304 72.5039C68.4573 72.5039 66.6214 71.7178 65.3225 70.1455C64.0237 68.5732 63.3743 66.3564 63.3743 63.4951V59.5986C63.3743 56.7178 64.0188 54.4961 65.3079 52.9336C66.6067 51.3711 68.4378 50.5898 70.8011 50.5898C73.1643 50.5898 74.9954 51.376 76.2942 52.9482C77.593 54.5205 78.2425 56.7422 78.2425 59.6133V63.4951ZM73.3059 58.9688C73.3059 57.4355 73.1057 56.293 72.7054 55.541C72.305 54.7793 71.6702 54.3984 70.8011 54.3984C69.9514 54.3984 69.3313 54.75 68.9407 55.4531C68.5598 56.1562 68.3548 57.2207 68.3255 58.6465V64.0957C68.3255 65.6875 68.5257 66.8545 68.9261 67.5967C69.3264 68.3291 69.9612 68.6953 70.8304 68.6953C71.6702 68.6953 72.2903 68.3389 72.6907 67.626C73.0911 66.9033 73.2962 65.7754 73.3059 64.2422V58.9688Z" fill="#2B2E55"/>
</g>
</svg>
