<svg width="190" height="86" viewBox="0 0 190 86" fill="none" xmlns="http://www.w3.org/2000/svg">
<g id="moneyIcon">
<rect id="Rectangle 18" width="190" height="86" fill="white"/>
<rect id="Rectangle 119" x="2.5" y="3.5" width="161" height="78.4171" fill="white" stroke="#2B2E55" stroke-width="5"/>
<rect id="Rectangle 120" x="5.00504" y="6.00513" width="85.0854" height="78.4121" fill="#F3A83B"/>
<rect id="Rectangle 121" x="106" y="6" width="10" height="78" fill="#F3A83B"/>
<rect id="Rectangle 122" x="123.457" y="6.00513" width="35.0352" height="78.4121" fill="#E5E5E5"/>
<path id="$100" d="M21.1429 67.5566C21.1429 66.7852 20.9524 66.1797 20.5716 65.7402C20.1907 65.3008 19.5218 64.8857 18.5647 64.4951C17.6077 64.1045 16.7239 63.709 15.9134 63.3086C15.1028 62.9082 14.4046 62.4443 13.8186 61.917C13.2327 61.3896 12.7835 60.7793 12.471 60.0859C12.1585 59.3926 12.0022 58.5527 12.0022 57.5664C12.0022 55.916 12.5589 54.5586 13.6721 53.4941C14.7854 52.4199 16.2698 51.7949 18.1253 51.6191V48.5283H20.4544V51.6777C22.2415 51.9414 23.6429 52.6787 24.6585 53.8896C25.6839 55.0908 26.1966 56.6191 26.1966 58.4746H21.2454C21.2454 57.459 21.0501 56.6777 20.6595 56.1309C20.2688 55.584 19.7122 55.3105 18.9895 55.3105C18.345 55.3105 17.8421 55.5156 17.4807 55.9258C17.1292 56.3262 16.9534 56.8828 16.9534 57.5957C16.9534 58.3184 17.1585 58.8945 17.5686 59.3242C17.9788 59.7441 18.638 60.1494 19.5462 60.54C20.4544 60.9209 21.3089 61.3213 22.1096 61.7412C22.9202 62.1514 23.6184 62.6201 24.2044 63.1475C24.7903 63.6748 25.2493 64.29 25.5813 64.9932C25.9134 65.6963 26.0794 66.541 26.0794 67.5273C26.0794 69.1973 25.5471 70.5596 24.4827 71.6143C23.428 72.6689 21.9876 73.2842 20.1614 73.46V76.4043H17.8323V73.4453C15.7034 73.2207 14.0677 72.4932 12.9251 71.2627C11.7923 70.0225 11.2259 68.3916 11.2259 66.3701H16.1624C16.1624 67.4834 16.4065 68.333 16.8948 68.9189C17.3929 69.4951 18.096 69.7832 19.0042 69.7832C19.6682 69.7832 20.1907 69.5879 20.5716 69.1973C20.9524 68.7969 21.1429 68.25 21.1429 67.5566ZM39.6292 73.2109H34.678V57.4492L29.8147 58.8701V55.1201L39.1751 51.8828H39.6292V73.2109ZM60.8694 64.4951C60.8694 67.376 60.22 69.5977 58.9212 71.1602C57.6321 72.7227 55.8108 73.5039 53.4573 73.5039C51.0843 73.5039 49.2483 72.7178 47.9495 71.1455C46.6507 69.5732 46.0013 67.3564 46.0013 64.4951V60.5986C46.0013 57.7178 46.6458 55.4961 47.9348 53.9336C49.2337 52.3711 51.0647 51.5898 53.428 51.5898C55.7913 51.5898 57.6223 52.376 58.9212 53.9482C60.22 55.5205 60.8694 57.7422 60.8694 60.6133V64.4951ZM55.9329 59.9688C55.9329 58.4355 55.7327 57.293 55.3323 56.541C54.9319 55.7793 54.2971 55.3984 53.428 55.3984C52.5784 55.3984 51.9583 55.75 51.5677 56.4531C51.1868 57.1562 50.9817 58.2207 50.9524 59.6465V65.0957C50.9524 66.6875 51.1526 67.8545 51.553 68.5967C51.9534 69.3291 52.5882 69.6953 53.4573 69.6953C54.2971 69.6953 54.9173 69.3389 55.3177 68.626C55.718 67.9033 55.9231 66.7754 55.9329 65.2422V59.9688ZM78.2425 64.4951C78.2425 67.376 77.593 69.5977 76.2942 71.1602C75.0052 72.7227 73.1839 73.5039 70.8304 73.5039C68.4573 73.5039 66.6214 72.7178 65.3225 71.1455C64.0237 69.5732 63.3743 67.3564 63.3743 64.4951V60.5986C63.3743 57.7178 64.0188 55.4961 65.3079 53.9336C66.6067 52.3711 68.4378 51.5898 70.8011 51.5898C73.1643 51.5898 74.9954 52.376 76.2942 53.9482C77.593 55.5205 78.2425 57.7422 78.2425 60.6133V64.4951ZM73.3059 59.9688C73.3059 58.4355 73.1057 57.293 72.7054 56.541C72.305 55.7793 71.6702 55.3984 70.8011 55.3984C69.9514 55.3984 69.3313 55.75 68.9407 56.4531C68.5598 57.1562 68.3548 58.2207 68.3255 59.6465V65.0957C68.3255 66.6875 68.5257 67.8545 68.9261 68.5967C69.3264 69.3291 69.9612 69.6953 70.8304 69.6953C71.6702 69.6953 72.2903 69.3389 72.6907 68.626C73.0911 67.9033 73.2962 66.7754 73.3059 65.2422V59.9688Z" fill="#2B2E55"/>
</g>
</svg>
