<svg width="190" height="87" viewBox="0 0 190 87" fill="none" xmlns="http://www.w3.org/2000/svg">
<g id="moneyIcon">
<rect id="Rectangle 18" width="190" height="86" fill="white"/>
<path id="Vector" d="M69.0442 82.2831H108.091C118.816 75.7473 125.855 64.0165 125.855 50.6099C125.855 29.9972 109.097 13.4065 88.6514 13.4065C68.0387 13.4065 51.448 30.1648 51.448 50.6099C51.2804 64.0165 58.3189 75.7473 69.0442 82.2831Z" fill="#E5CF5C"/>
<path id="Vector_2" d="M83.6239 68.0387C81.7805 68.0387 80.4398 66.6981 80.4398 64.8547V62.3409C80.4398 60.4975 81.7805 58.9893 83.6239 58.9893C85.4673 58.9893 86.9756 60.3299 86.9756 62.1733V64.6871C86.9756 66.5305 85.4673 68.0387 83.6239 68.0387ZM82.786 27.4837C80.9426 27.4837 79.6019 26.143 79.6019 24.2996V21.6183C79.6019 19.7748 80.9426 18.2666 82.786 18.2666C84.6294 18.2666 86.1377 19.6073 86.1377 21.4507V24.132C85.9701 25.9754 84.6294 27.3161 82.786 27.4837Z" fill="#256782"/>
<path id="Vector_3" d="M82.6184 63.849C76.0827 63.849 71.5579 59.6594 70.2173 58.3188C69.0442 56.9781 69.0442 54.9671 70.2173 53.6265C71.5579 52.4534 73.5689 52.4534 74.9096 53.6265C75.5799 54.2968 78.9316 57.4809 83.4563 57.1457C85.8025 56.9781 89.6569 55.6374 90.4948 53.1237C90.9976 51.4479 90.3272 49.2693 88.9866 47.5935C87.4783 45.9176 85.2997 45.5825 81.9481 45.2473C78.4288 44.9121 74.2393 44.4094 71.2228 40.555C68.8766 37.3709 68.2063 33.0137 69.5469 29.3269C71.5579 23.9643 77.7585 21.7857 82.6184 21.9533C88.3162 22.1209 92.003 25.8077 93.3437 27.3159C94.5168 28.6566 94.3492 30.6676 93.0086 31.8407C91.6679 33.0138 89.6569 32.8462 88.4838 31.5055C87.8135 30.8352 85.8025 28.489 82.4508 28.3214C79.7695 28.1538 76.5854 29.3269 75.7475 31.6731C75.2448 33.1813 75.5799 35.1923 76.5854 36.533C77.7585 38.0412 79.6019 38.3764 82.786 38.7116C86.3052 39.0467 90.6624 39.5495 94.0141 43.2363C96.863 46.4204 98.036 51.1127 96.863 54.9671C95.1871 60.6649 88.9866 63.1787 84.2942 63.6814C83.6239 63.849 83.1212 63.849 82.6184 63.849Z" fill="#256782"/>
<path id="Vector_4" d="M163.058 86.4728H3.18408C1.34067 86.4728 1.95313e-09 84.9645 0 83.2887V3.18407C0 1.34066 1.50825 3.90625e-09 3.18408 0H163.058C164.902 0 166.242 1.50824 166.242 3.18407V83.1211C166.242 84.9645 164.902 86.4728 163.058 86.4728ZM6.53574 79.9371H159.874V6.53573H6.53574V79.9371Z" fill="#256782"/>
<path id="Vector_5" d="M3.18408 29.9973C1.34066 29.9973 1.95313e-09 28.4891 0 26.8133V3.35166C0 1.50825 1.50825 0.167581 3.18408 0.167581H26.6457C28.4891 0.167581 29.8298 1.67583 29.8298 3.35166C29.9973 17.9314 17.9314 29.9973 3.18408 29.9973ZM6.53574 6.53573V23.294C15.0825 21.9534 21.7858 15.0825 23.294 6.53573H6.53574ZM163.058 29.9973C148.311 29.9973 136.245 17.9314 136.245 3.18407C136.245 1.34066 137.753 3.90625e-09 139.429 0H162.891C164.734 0 166.075 1.50824 166.075 3.18407V26.6457C166.242 28.4891 164.902 29.9973 163.058 29.9973ZM143.116 6.53573C144.456 15.0825 151.327 21.7858 159.874 23.294V6.53573H143.116ZM163.058 86.4728H139.597C137.753 86.4728 136.413 84.9645 136.413 83.2887C136.413 68.5414 148.478 56.4754 163.226 56.4754C165.069 56.4754 166.41 57.9837 166.41 59.6595V83.1211C166.242 84.9645 164.902 86.4728 163.058 86.4728ZM143.116 79.9371H159.874V63.1788C151.327 64.5194 144.456 71.3903 143.116 79.9371Z" fill="#256782"/>
<path id="Vector_6" d="M26.6457 86.4728H3.18408C1.34066 86.4728 1.95312e-09 84.9646 0 83.2887V59.8271C0 57.9837 1.50825 56.6431 3.18408 56.6431C17.9314 56.6431 29.9973 68.709 29.9973 83.4563C29.9973 84.9646 28.4891 86.4728 26.6457 86.4728ZM6.53574 79.9371H23.294C21.9534 71.3904 15.0825 64.687 6.53574 63.1788V79.9371Z" fill="#256782"/>
<path id="Vector_7" d="M103.064 86.4728H63.1788C62.676 86.4728 62.1733 86.3052 61.6705 86.1376C45.2474 77.9261 35.1924 61.5029 35.1924 43.2364C35.1924 24.9699 45.415 8.54673 61.6705 0.335166C62.1733 0.167583 62.676 -1.95313e-09 63.1788 0H102.896C103.399 0 103.901 0.167583 104.404 0.335166C120.827 8.54673 130.882 24.9699 130.882 43.2364C130.882 61.5029 120.66 77.9261 104.404 86.1376C104.069 86.3052 103.566 86.4728 103.064 86.4728ZM64.0167 79.9371H102.226C115.967 72.731 124.514 58.8216 124.514 43.2364C124.514 27.6512 115.967 13.7418 102.226 6.53573H64.0167C50.2749 13.7418 41.7282 27.6512 41.7282 43.2364C41.7282 58.8216 50.2749 72.731 64.0167 79.9371Z" fill="#256782"/>
</g>
</svg>
