<svg width="245" height="292" viewBox="0 0 245 292" fill="none" xmlns="http://www.w3.org/2000/svg">
<g id="monthphew">
<rect id="Rectangle 19" x="1.5" y="1.5" width="242" height="289" fill="white" stroke="#E34D4D" stroke-width="3"/>
<path id="Phew... it&#226;&#128;&#153;s not real money $ after five months, now you have $ left in total." d="M33.0518 52.6582V57H29.9668V44.2031H35.0732C36.0518 44.2031 36.916 44.3848 37.666 44.748C38.4219 45.1055 39.0049 45.6182 39.415 46.2861C39.8311 46.9482 40.0391 47.7012 40.0391 48.5449C40.0391 49.793 39.5908 50.792 38.6943 51.542C37.8037 52.2861 36.5791 52.6582 35.0205 52.6582H33.0518ZM33.0518 50.2764H35.0732C35.6709 50.2764 36.125 50.127 36.4355 49.8281C36.752 49.5293 36.9102 49.1074 36.9102 48.5625C36.9102 47.9648 36.749 47.4873 36.4268 47.1299C36.1045 46.7725 35.665 46.5908 35.1084 46.585H33.0518V50.2764ZM44.4512 48.5098C45.084 47.7129 45.8926 47.3145 46.877 47.3145C47.9258 47.3145 48.7168 47.625 49.25 48.2461C49.7832 48.8672 50.0557 49.7842 50.0674 50.9971V57H47.0967V51.0674C47.0967 50.5635 46.9941 50.1943 46.7891 49.96C46.584 49.7197 46.2354 49.5996 45.7432 49.5996C45.1338 49.5996 44.7031 49.793 44.4512 50.1797V57H41.4893V43.5H44.4512V48.5098ZM56.3164 57.1758C54.8574 57.1758 53.6768 56.7422 52.7744 55.875C51.8721 55.002 51.4209 53.8682 51.4209 52.4736V52.2275C51.4209 51.2549 51.5996 50.3965 51.957 49.6523C52.3203 48.9082 52.8477 48.334 53.5391 47.9297C54.2305 47.5195 55.0508 47.3145 56 47.3145C57.3359 47.3145 58.3906 47.7305 59.1641 48.5625C59.9375 49.3887 60.3242 50.543 60.3242 52.0254V53.1768H54.4355C54.541 53.71 54.7725 54.1289 55.1299 54.4336C55.4873 54.7383 55.9502 54.8906 56.5186 54.8906C57.4561 54.8906 58.1885 54.5625 58.7158 53.9062L60.0693 55.5059C59.7002 56.0156 59.1758 56.4229 58.4961 56.7275C57.8223 57.0264 57.0957 57.1758 56.3164 57.1758ZM55.9824 49.5996C55.1152 49.5996 54.5996 50.1738 54.4355 51.3223H57.4238V51.0938C57.4355 50.6191 57.3154 50.2529 57.0635 49.9951C56.8115 49.7314 56.4512 49.5996 55.9824 49.5996ZM69.7373 53.0977L70.6953 47.4902H73.5342L71.293 57H68.7881L67.2148 51.3574L65.6328 57H63.1279L60.8867 47.4902H63.7256L64.666 53.2295L66.1777 47.4902H68.2432L69.7373 53.0977ZM75.3447 54.126C75.8135 54.126 76.2031 54.2666 76.5137 54.5479C76.8242 54.8232 76.9795 55.1777 76.9795 55.6113C76.9795 56.0449 76.8242 56.4023 76.5137 56.6836C76.2031 56.959 75.8135 57.0967 75.3447 57.0967C74.8701 57.0967 74.4775 56.9561 74.167 56.6748C73.8623 56.3936 73.71 56.0391 73.71 55.6113C73.71 55.1836 73.8623 54.8291 74.167 54.5479C74.4775 54.2666 74.8701 54.126 75.3447 54.126ZM80.7939 54.126C81.2627 54.126 81.6523 54.2666 81.9629 54.5479C82.2734 54.8232 82.4287 55.1777 82.4287 55.6113C82.4287 56.0449 82.2734 56.4023 81.9629 56.6836C81.6523 56.959 81.2627 57.0967 80.7939 57.0967C80.3193 57.0967 79.9268 56.9561 79.6162 56.6748C79.3115 56.3936 79.1592 56.0391 79.1592 55.6113C79.1592 55.1836 79.3115 54.8291 79.6162 54.5479C79.9268 54.2666 80.3193 54.126 80.7939 54.126ZM86.2432 54.126C86.7119 54.126 87.1016 54.2666 87.4121 54.5479C87.7227 54.8232 87.8779 55.1777 87.8779 55.6113C87.8779 56.0449 87.7227 56.4023 87.4121 56.6836C87.1016 56.959 86.7119 57.0967 86.2432 57.0967C85.7686 57.0967 85.376 56.9561 85.0654 56.6748C84.7607 56.3936 84.6084 56.0391 84.6084 55.6113C84.6084 55.1836 84.7607 54.8291 85.0654 54.5479C85.376 54.2666 85.7686 54.126 86.2432 54.126ZM97.4668 57H94.4961V47.4902H97.4668V57ZM94.3203 45.0381C94.3203 44.6162 94.4727 44.2705 94.7773 44.001C95.082 43.7314 95.4775 43.5967 95.9639 43.5967C96.4502 43.5967 96.8457 43.7314 97.1504 44.001C97.4551 44.2705 97.6074 44.6162 97.6074 45.0381C97.6074 45.46 97.4551 45.8057 97.1504 46.0752C96.8457 46.3447 96.4502 46.4795 95.9639 46.4795C95.4775 46.4795 95.082 46.3447 94.7773 46.0752C94.4727 45.8057 94.3203 45.46 94.3203 45.0381ZM102.749 45.126V47.4902H104.313V49.5469H102.749V53.8975C102.749 54.2549 102.813 54.5039 102.942 54.6445C103.071 54.7852 103.326 54.8555 103.707 54.8555C104 54.8555 104.246 54.8379 104.445 54.8027V56.9209C103.912 57.0908 103.355 57.1758 102.775 57.1758C101.756 57.1758 101.003 56.9355 100.517 56.4551C100.03 55.9746 99.7871 55.2451 99.7871 54.2666V49.5469H98.5742V47.4902H99.7871V45.126H102.749ZM106.748 48.2109L105.447 47.5078C105.934 46.6641 106.183 45.8379 106.194 45.0293V43.5H108.356V44.9326C108.356 45.4775 108.198 46.0605 107.882 46.6816C107.571 47.2969 107.193 47.8066 106.748 48.2109ZM113.015 54.3281C113.015 54.0762 112.883 53.874 112.619 53.7217C112.355 53.5693 111.854 53.4111 111.116 53.2471C110.378 53.083 109.769 52.8691 109.288 52.6055C108.808 52.3359 108.441 52.0107 108.189 51.6299C107.938 51.249 107.812 50.8125 107.812 50.3203C107.812 49.4473 108.172 48.7295 108.893 48.167C109.613 47.5986 110.557 47.3145 111.723 47.3145C112.977 47.3145 113.984 47.5986 114.746 48.167C115.508 48.7354 115.889 49.4824 115.889 50.4082H112.918C112.918 49.6465 112.517 49.2656 111.714 49.2656C111.403 49.2656 111.143 49.3535 110.932 49.5293C110.721 49.6992 110.615 49.9131 110.615 50.1709C110.615 50.4346 110.744 50.6484 111.002 50.8125C111.26 50.9766 111.67 51.1113 112.232 51.2168C112.801 51.3223 113.299 51.4482 113.727 51.5947C115.156 52.0869 115.871 52.9688 115.871 54.2402C115.871 55.1074 115.484 55.8135 114.711 56.3584C113.943 56.9033 112.947 57.1758 111.723 57.1758C110.908 57.1758 110.182 57.0293 109.543 56.7363C108.904 56.4434 108.406 56.0449 108.049 55.541C107.691 55.0371 107.513 54.5068 107.513 53.9502H110.281C110.293 54.3896 110.439 54.7119 110.721 54.917C111.002 55.1162 111.362 55.2158 111.802 55.2158C112.206 55.2158 112.508 55.1338 112.707 54.9697C112.912 54.8057 113.015 54.5918 113.015 54.3281ZM124.467 47.4902L124.563 48.6064C125.22 47.7451 126.125 47.3145 127.279 47.3145C128.27 47.3145 129.008 47.6104 129.494 48.2021C129.986 48.7939 130.241 49.6846 130.259 50.874V57H127.288V50.9971C127.288 50.5166 127.191 50.165 126.998 49.9424C126.805 49.7139 126.453 49.5996 125.943 49.5996C125.363 49.5996 124.933 49.8281 124.651 50.2852V57H121.689V47.4902H124.467ZM131.533 52.1572C131.533 51.208 131.718 50.3643 132.087 49.626C132.456 48.8818 132.986 48.3105 133.678 47.9121C134.369 47.5137 135.181 47.3145 136.112 47.3145C137.536 47.3145 138.658 47.7568 139.479 48.6416C140.299 49.5205 140.709 50.7188 140.709 52.2363V52.3418C140.709 53.8242 140.296 55.002 139.47 55.875C138.649 56.7422 137.536 57.1758 136.13 57.1758C134.776 57.1758 133.689 56.7715 132.869 55.9629C132.049 55.1484 131.606 54.0469 131.542 52.6582L131.533 52.1572ZM134.495 52.3418C134.495 53.2207 134.633 53.8652 134.908 54.2754C135.184 54.6855 135.591 54.8906 136.13 54.8906C137.185 54.8906 137.724 54.0791 137.747 52.4561V52.1572C137.747 50.4521 137.202 49.5996 136.112 49.5996C135.122 49.5996 134.586 50.335 134.504 51.8057L134.495 52.3418ZM145.464 45.126V47.4902H147.028V49.5469H145.464V53.8975C145.464 54.2549 145.528 54.5039 145.657 54.6445C145.786 54.7852 146.041 54.8555 146.422 54.8555C146.715 54.8555 146.961 54.8379 147.16 54.8027V56.9209C146.627 57.0908 146.07 57.1758 145.49 57.1758C144.471 57.1758 143.718 56.9355 143.231 56.4551C142.745 55.9746 142.502 55.2451 142.502 54.2666V49.5469H141.289V47.4902H142.502V45.126H145.464ZM158.437 50.1709L157.461 50.1006C156.529 50.1006 155.932 50.3936 155.668 50.9795V57H152.706V47.4902H155.483L155.58 48.7119C156.078 47.7803 156.772 47.3145 157.663 47.3145C157.979 47.3145 158.255 47.3496 158.489 47.4199L158.437 50.1709ZM163.93 57.1758C162.471 57.1758 161.29 56.7422 160.388 55.875C159.485 55.002 159.034 53.8682 159.034 52.4736V52.2275C159.034 51.2549 159.213 50.3965 159.57 49.6523C159.934 48.9082 160.461 48.334 161.152 47.9297C161.844 47.5195 162.664 47.3145 163.613 47.3145C164.949 47.3145 166.004 47.7305 166.777 48.5625C167.551 49.3887 167.938 50.543 167.938 52.0254V53.1768H162.049C162.154 53.71 162.386 54.1289 162.743 54.4336C163.101 54.7383 163.563 54.8906 164.132 54.8906C165.069 54.8906 165.802 54.5625 166.329 53.9062L167.683 55.5059C167.313 56.0156 166.789 56.4229 166.109 56.7275C165.436 57.0264 164.709 57.1758 163.93 57.1758ZM163.596 49.5996C162.729 49.5996 162.213 50.1738 162.049 51.3223H165.037V51.0938C165.049 50.6191 164.929 50.2529 164.677 49.9951C164.425 49.7314 164.064 49.5996 163.596 49.5996ZM174.494 57C174.389 56.8066 174.295 56.5225 174.213 56.1475C173.668 56.833 172.906 57.1758 171.928 57.1758C171.031 57.1758 170.27 56.9062 169.643 56.3672C169.016 55.8223 168.702 55.1396 168.702 54.3193C168.702 53.2881 169.083 52.5088 169.845 51.9814C170.606 51.4541 171.714 51.1904 173.167 51.1904H174.081V50.6895C174.081 49.8164 173.703 49.3799 172.947 49.3799C172.244 49.3799 171.893 49.7256 171.893 50.417H168.931C168.931 49.4971 169.32 48.75 170.1 48.1758C170.885 47.6016 171.884 47.3145 173.097 47.3145C174.31 47.3145 175.268 47.6104 175.971 48.2021C176.674 48.7939 177.034 49.6055 177.052 50.6367V54.8467C177.063 55.7197 177.198 56.3877 177.456 56.8506V57H174.494ZM172.64 55.0664C173.009 55.0664 173.313 54.9873 173.554 54.8291C173.8 54.6709 173.976 54.4922 174.081 54.293V52.7725H173.22C172.188 52.7725 171.673 53.2354 171.673 54.1611C171.673 54.4307 171.764 54.6504 171.945 54.8203C172.127 54.9844 172.358 55.0664 172.64 55.0664ZM181.824 57H178.854V43.5H181.824V57ZM32.6299 68.4902L32.7266 69.6064C33.4004 68.7451 34.3057 68.3145 35.4424 68.3145C36.6436 68.3145 37.4551 68.792 37.877 69.7471C38.5215 68.792 39.4531 68.3145 40.6719 68.3145C42.5996 68.3145 43.5898 69.4805 43.6426 71.8125V78H40.6719V71.9971C40.6719 71.5107 40.5898 71.1562 40.4258 70.9336C40.2617 70.7109 39.9629 70.5996 39.5293 70.5996C38.9434 70.5996 38.5068 70.8604 38.2197 71.3818L38.2285 71.5049V78H35.2578V72.0146C35.2578 71.5166 35.1787 71.1562 35.0205 70.9336C34.8623 70.7109 34.5605 70.5996 34.1152 70.5996C33.5469 70.5996 33.1133 70.8604 32.8145 71.3818V78H29.8525V68.4902H32.6299ZM44.9609 73.1572C44.9609 72.208 45.1455 71.3643 45.5146 70.626C45.8838 69.8818 46.4141 69.3105 47.1055 68.9121C47.7969 68.5137 48.6084 68.3145 49.54 68.3145C50.9639 68.3145 52.0859 68.7568 52.9062 69.6416C53.7266 70.5205 54.1367 71.7188 54.1367 73.2363V73.3418C54.1367 74.8242 53.7236 76.002 52.8975 76.875C52.0771 77.7422 50.9639 78.1758 49.5576 78.1758C48.2041 78.1758 47.1172 77.7715 46.2969 76.9629C45.4766 76.1484 45.0342 75.0469 44.9697 73.6582L44.9609 73.1572ZM47.9229 73.3418C47.9229 74.2207 48.0605 74.8652 48.3359 75.2754C48.6113 75.6855 49.0186 75.8906 49.5576 75.8906C50.6123 75.8906 51.1514 75.0791 51.1748 73.4561V73.1572C51.1748 71.4521 50.6299 70.5996 49.54 70.5996C48.5498 70.5996 48.0137 71.335 47.9316 72.8057L47.9229 73.3418ZM58.1621 68.4902L58.2588 69.6064C58.915 68.7451 59.8203 68.3145 60.9746 68.3145C61.9648 68.3145 62.7031 68.6104 63.1895 69.2021C63.6816 69.7939 63.9365 70.6846 63.9541 71.874V78H60.9834V71.9971C60.9834 71.5166 60.8867 71.165 60.6934 70.9424C60.5 70.7139 60.1484 70.5996 59.6387 70.5996C59.0586 70.5996 58.6279 70.8281 58.3467 71.2852V78H55.3848V68.4902H58.1621ZM70.2031 78.1758C68.7441 78.1758 67.5635 77.7422 66.6611 76.875C65.7588 76.002 65.3076 74.8682 65.3076 73.4736V73.2275C65.3076 72.2549 65.4863 71.3965 65.8438 70.6523C66.207 69.9082 66.7344 69.334 67.4258 68.9297C68.1172 68.5195 68.9375 68.3145 69.8867 68.3145C71.2227 68.3145 72.2773 68.7305 73.0508 69.5625C73.8242 70.3887 74.2109 71.543 74.2109 73.0254V74.1768H68.3223C68.4277 74.71 68.6592 75.1289 69.0166 75.4336C69.374 75.7383 69.8369 75.8906 70.4053 75.8906C71.3428 75.8906 72.0752 75.5625 72.6025 74.9062L73.9561 76.5059C73.5869 77.0156 73.0625 77.4229 72.3828 77.7275C71.709 78.0264 70.9824 78.1758 70.2031 78.1758ZM69.8691 70.5996C69.002 70.5996 68.4863 71.1738 68.3223 72.3223H71.3105V72.0938C71.3223 71.6191 71.2021 71.2529 70.9502 70.9951C70.6982 70.7314 70.3379 70.5996 69.8691 70.5996ZM79.0889 73.8516L80.6709 68.4902H83.8438L79.9678 79.5908L79.8008 79.9951C79.25 81.2256 78.2773 81.8408 76.8828 81.8408C76.4961 81.8408 76.0889 81.7822 75.6611 81.665V79.5469H76.0479C76.4639 79.5469 76.7803 79.4854 76.9971 79.3623C77.2197 79.2451 77.3838 79.0312 77.4893 78.7207L77.7266 78.0879L74.4219 68.4902H77.5859L79.0889 73.8516ZM36.5234 116.704C36.5234 116.165 36.333 115.711 35.9521 115.342C35.5771 114.973 34.9414 114.639 34.0449 114.34C32.7969 113.959 31.8857 113.464 31.3115 112.854C30.7432 112.239 30.459 111.46 30.459 110.517C30.459 109.556 30.7373 108.768 31.2939 108.152C31.8564 107.537 32.627 107.171 33.6055 107.054V105.129H34.915V107.062C35.8994 107.197 36.6641 107.61 37.209 108.302C37.7598 108.993 38.0352 109.939 38.0352 111.141H36.418C36.418 110.314 36.2217 109.658 35.8291 109.172C35.4365 108.686 34.9062 108.442 34.2383 108.442C33.541 108.442 33.0078 108.624 32.6387 108.987C32.2695 109.345 32.085 109.846 32.085 110.49C32.085 111.088 32.2783 111.565 32.665 111.923C33.0576 112.274 33.6992 112.597 34.5898 112.89C35.4863 113.177 36.1836 113.496 36.6816 113.848C37.1855 114.193 37.5547 114.598 37.7891 115.061C38.0293 115.523 38.1494 116.065 38.1494 116.687C38.1494 117.677 37.8506 118.474 37.2529 119.077C36.6611 119.681 35.8291 120.038 34.7568 120.149V121.828H33.4561V120.149C32.3662 120.05 31.5107 119.663 30.8896 118.989C30.2744 118.31 29.9668 117.39 29.9668 116.229H31.5928C31.5928 117.044 31.8066 117.671 32.2344 118.11C32.6621 118.55 33.2686 118.77 34.0537 118.77C34.8213 118.77 35.4248 118.585 35.8643 118.216C36.3037 117.847 36.5234 117.343 36.5234 116.704ZM95.3223 120C95.2285 119.812 95.1523 119.479 95.0938 118.998C94.3379 119.783 93.4355 120.176 92.3867 120.176C91.4492 120.176 90.6787 119.912 90.0752 119.385C89.4775 118.852 89.1787 118.178 89.1787 117.363C89.1787 116.373 89.5537 115.605 90.3037 115.061C91.0596 114.51 92.1201 114.234 93.4854 114.234H95.0674V113.487C95.0674 112.919 94.8975 112.468 94.5576 112.134C94.2178 111.794 93.7168 111.624 93.0547 111.624C92.4746 111.624 91.9883 111.771 91.5957 112.063C91.2031 112.356 91.0068 112.711 91.0068 113.127H89.3721C89.3721 112.652 89.5391 112.195 89.873 111.756C90.2129 111.311 90.6699 110.959 91.2441 110.701C91.8242 110.443 92.46 110.314 93.1514 110.314C94.2471 110.314 95.1055 110.59 95.7266 111.141C96.3477 111.686 96.6699 112.438 96.6934 113.399V117.776C96.6934 118.649 96.8047 119.344 97.0273 119.859V120H95.3223ZM92.624 118.761C93.1338 118.761 93.6172 118.629 94.0742 118.365C94.5312 118.102 94.8623 117.759 95.0674 117.337V115.386H93.793C91.8008 115.386 90.8047 115.969 90.8047 117.135C90.8047 117.645 90.9746 118.043 91.3145 118.33C91.6543 118.617 92.0908 118.761 92.624 118.761ZM100.042 120V111.747H98.5391V110.49H100.042V109.515C100.042 108.495 100.314 107.707 100.859 107.15C101.404 106.594 102.175 106.315 103.171 106.315C103.546 106.315 103.918 106.365 104.287 106.465L104.199 107.783C103.924 107.73 103.631 107.704 103.32 107.704C102.793 107.704 102.386 107.859 102.099 108.17C101.812 108.475 101.668 108.914 101.668 109.488V110.49H103.698V111.747H101.668V120H100.042ZM107.706 108.188V110.49H109.481V111.747H107.706V117.645C107.706 118.025 107.785 118.312 107.943 118.506C108.102 118.693 108.371 118.787 108.752 118.787C108.939 118.787 109.197 118.752 109.525 118.682V120C109.098 120.117 108.682 120.176 108.277 120.176C107.551 120.176 107.003 119.956 106.634 119.517C106.265 119.077 106.08 118.453 106.08 117.645V111.747H104.349V110.49H106.08V108.188H107.706ZM115.335 120.176C114.046 120.176 112.997 119.754 112.188 118.91C111.38 118.061 110.976 116.927 110.976 115.509V115.21C110.976 114.267 111.154 113.426 111.512 112.688C111.875 111.943 112.379 111.363 113.023 110.947C113.674 110.525 114.377 110.314 115.133 110.314C116.369 110.314 117.33 110.722 118.016 111.536C118.701 112.351 119.044 113.517 119.044 115.034V115.711H112.602C112.625 116.648 112.897 117.407 113.419 117.987C113.946 118.562 114.614 118.849 115.423 118.849C115.997 118.849 116.483 118.731 116.882 118.497C117.28 118.263 117.629 117.952 117.928 117.565L118.921 118.339C118.124 119.563 116.929 120.176 115.335 120.176ZM115.133 111.65C114.477 111.65 113.926 111.891 113.48 112.371C113.035 112.846 112.76 113.514 112.654 114.375H117.418V114.252C117.371 113.426 117.148 112.787 116.75 112.336C116.352 111.879 115.812 111.65 115.133 111.65ZM125.53 111.949C125.284 111.908 125.018 111.888 124.73 111.888C123.664 111.888 122.94 112.342 122.56 113.25V120H120.934V110.49H122.516L122.542 111.589C123.075 110.739 123.831 110.314 124.81 110.314C125.126 110.314 125.366 110.355 125.53 110.438V111.949ZM132.043 120V111.747H130.54V110.49H132.043V109.682C132.043 108.621 132.345 107.795 132.948 107.203C133.558 106.611 134.416 106.315 135.523 106.315C136.18 106.315 137.009 106.494 138.011 106.852L137.738 108.223C137.006 107.93 136.309 107.783 135.646 107.783C134.949 107.783 134.445 107.941 134.135 108.258C133.83 108.568 133.678 109.037 133.678 109.664V110.49H135.62V111.747H133.678V120H132.043ZM138.819 120H137.185V110.49H138.819V120ZM144.603 117.794L146.958 110.49H148.619L145.209 120H143.97L140.524 110.49H142.186L144.603 117.794ZM154.007 120.176C152.718 120.176 151.669 119.754 150.86 118.91C150.052 118.061 149.647 116.927 149.647 115.509V115.21C149.647 114.267 149.826 113.426 150.184 112.688C150.547 111.943 151.051 111.363 151.695 110.947C152.346 110.525 153.049 110.314 153.805 110.314C155.041 110.314 156.002 110.722 156.688 111.536C157.373 112.351 157.716 113.517 157.716 115.034V115.711H151.273C151.297 116.648 151.569 117.407 152.091 117.987C152.618 118.562 153.286 118.849 154.095 118.849C154.669 118.849 155.155 118.731 155.554 118.497C155.952 118.263 156.301 117.952 156.6 117.565L157.593 118.339C156.796 119.563 155.601 120.176 154.007 120.176ZM153.805 111.65C153.148 111.65 152.598 111.891 152.152 112.371C151.707 112.846 151.432 113.514 151.326 114.375H156.09V114.252C156.043 113.426 155.82 112.787 155.422 112.336C155.023 111.879 154.484 111.65 153.805 111.65ZM31.7598 131.49L31.8037 132.545C32.501 131.725 33.4414 131.314 34.625 131.314C35.9551 131.314 36.8604 131.824 37.3408 132.844C37.6572 132.387 38.0674 132.018 38.5713 131.736C39.0811 131.455 39.6816 131.314 40.373 131.314C42.459 131.314 43.5195 132.419 43.5547 134.628V141H41.9287V134.725C41.9287 134.045 41.7734 133.538 41.4629 133.204C41.1523 132.864 40.6309 132.694 39.8984 132.694C39.2949 132.694 38.7939 132.876 38.3955 133.239C37.9971 133.597 37.7656 134.08 37.7012 134.689V141H36.0664V134.769C36.0664 133.386 35.3896 132.694 34.0361 132.694C32.9697 132.694 32.2402 133.148 31.8477 134.057V141H30.2217V131.49H31.7598ZM45.585 136.157C45.585 135.226 45.7666 134.388 46.1299 133.644C46.499 132.899 47.0088 132.325 47.6592 131.921C48.3154 131.517 49.0625 131.314 49.9004 131.314C51.1953 131.314 52.2412 131.763 53.0381 132.659C53.8408 133.556 54.2422 134.748 54.2422 136.236V136.351C54.2422 137.276 54.0635 138.108 53.7061 138.847C53.3545 139.579 52.8477 140.15 52.1855 140.561C51.5293 140.971 50.7734 141.176 49.918 141.176C48.6289 141.176 47.583 140.728 46.7803 139.831C45.9834 138.935 45.585 137.748 45.585 136.271V136.157ZM47.2197 136.351C47.2197 137.405 47.4629 138.252 47.9492 138.891C48.4414 139.529 49.0977 139.849 49.918 139.849C50.7441 139.849 51.4004 139.526 51.8867 138.882C52.373 138.231 52.6162 137.323 52.6162 136.157C52.6162 135.114 52.3672 134.271 51.8691 133.626C51.377 132.976 50.7207 132.65 49.9004 132.65C49.0977 132.65 48.4502 132.97 47.958 133.608C47.4658 134.247 47.2197 135.161 47.2197 136.351ZM57.8193 131.49L57.8721 132.686C58.5986 131.771 59.5479 131.314 60.7197 131.314C62.7295 131.314 63.7432 132.448 63.7607 134.716V141H62.1348V134.707C62.1289 134.021 61.9707 133.515 61.6602 133.187C61.3555 132.858 60.8779 132.694 60.2275 132.694C59.7002 132.694 59.2373 132.835 58.8389 133.116C58.4404 133.397 58.1299 133.767 57.9072 134.224V141H56.2812V131.49H57.8193ZM68.4189 129.188V131.49H70.1943V132.747H68.4189V138.645C68.4189 139.025 68.498 139.312 68.6562 139.506C68.8145 139.693 69.084 139.787 69.4648 139.787C69.6523 139.787 69.9102 139.752 70.2383 139.682V141C69.8105 141.117 69.3945 141.176 68.9902 141.176C68.2637 141.176 67.7158 140.956 67.3467 140.517C66.9775 140.077 66.793 139.453 66.793 138.645V132.747H65.0615V131.49H66.793V129.188H68.4189ZM73.7275 132.642C74.4482 131.757 75.3857 131.314 76.54 131.314C78.5498 131.314 79.5635 132.448 79.5811 134.716V141H77.9551V134.707C77.9492 134.021 77.791 133.515 77.4805 133.187C77.1758 132.858 76.6982 132.694 76.0479 132.694C75.5205 132.694 75.0576 132.835 74.6592 133.116C74.2607 133.397 73.9502 133.767 73.7275 134.224V141H72.1016V127.5H73.7275V132.642ZM87.5527 138.478C87.5527 138.038 87.3857 137.698 87.0518 137.458C86.7236 137.212 86.1465 137.001 85.3203 136.825C84.5 136.649 83.8467 136.438 83.3604 136.192C82.8799 135.946 82.5225 135.653 82.2881 135.313C82.0596 134.974 81.9453 134.569 81.9453 134.101C81.9453 133.321 82.2734 132.662 82.9297 132.123C83.5918 131.584 84.4355 131.314 85.4609 131.314C86.5391 131.314 87.4121 131.593 88.0801 132.149C88.7539 132.706 89.0908 133.418 89.0908 134.285H87.4561C87.4561 133.84 87.2656 133.456 86.8848 133.134C86.5098 132.812 86.0352 132.65 85.4609 132.65C84.8691 132.65 84.4062 132.779 84.0723 133.037C83.7383 133.295 83.5713 133.632 83.5713 134.048C83.5713 134.44 83.7266 134.736 84.0371 134.936C84.3477 135.135 84.9072 135.325 85.7158 135.507C86.5303 135.688 87.1895 135.905 87.6934 136.157C88.1973 136.409 88.5693 136.714 88.8096 137.071C89.0557 137.423 89.1787 137.854 89.1787 138.363C89.1787 139.213 88.8389 139.896 88.1592 140.411C87.4795 140.921 86.5977 141.176 85.5137 141.176C84.752 141.176 84.0781 141.041 83.4922 140.771C82.9062 140.502 82.4463 140.127 82.1123 139.646C81.7842 139.16 81.6201 138.636 81.6201 138.073H83.2461C83.2754 138.618 83.4922 139.052 83.8965 139.374C84.3066 139.69 84.8457 139.849 85.5137 139.849C86.1289 139.849 86.6211 139.726 86.9902 139.479C87.3652 139.228 87.5527 138.894 87.5527 138.478ZM91.2441 143.549L90.3213 142.916C90.8721 142.148 91.1592 141.357 91.1826 140.543V139.075H92.7734V140.35C92.7734 140.941 92.627 141.533 92.334 142.125C92.0469 142.717 91.6836 143.191 91.2441 143.549ZM100.833 131.49L100.886 132.686C101.612 131.771 102.562 131.314 103.733 131.314C105.743 131.314 106.757 132.448 106.774 134.716V141H105.148V134.707C105.143 134.021 104.984 133.515 104.674 133.187C104.369 132.858 103.892 132.694 103.241 132.694C102.714 132.694 102.251 132.835 101.853 133.116C101.454 133.397 101.144 133.767 100.921 134.224V141H99.2949V131.49H100.833ZM108.796 136.157C108.796 135.226 108.978 134.388 109.341 133.644C109.71 132.899 110.22 132.325 110.87 131.921C111.526 131.517 112.273 131.314 113.111 131.314C114.406 131.314 115.452 131.763 116.249 132.659C117.052 133.556 117.453 134.748 117.453 136.236V136.351C117.453 137.276 117.274 138.108 116.917 138.847C116.565 139.579 116.059 140.15 115.396 140.561C114.74 140.971 113.984 141.176 113.129 141.176C111.84 141.176 110.794 140.728 109.991 139.831C109.194 138.935 108.796 137.748 108.796 136.271V136.157ZM110.431 136.351C110.431 137.405 110.674 138.252 111.16 138.891C111.652 139.529 112.309 139.849 113.129 139.849C113.955 139.849 114.611 139.526 115.098 138.882C115.584 138.231 115.827 137.323 115.827 136.157C115.827 135.114 115.578 134.271 115.08 133.626C114.588 132.976 113.932 132.65 113.111 132.65C112.309 132.65 111.661 132.97 111.169 133.608C110.677 134.247 110.431 135.161 110.431 136.351ZM127.912 138.759L129.74 131.49H131.366L128.598 141H127.279L124.968 133.793L122.718 141H121.399L118.64 131.49H120.257L122.129 138.609L124.344 131.49H125.653L127.912 138.759ZM140.604 138.618L142.818 131.49H144.559L140.735 142.468C140.144 144.05 139.203 144.841 137.914 144.841L137.606 144.814L137 144.7V143.382L137.439 143.417C137.99 143.417 138.418 143.306 138.723 143.083C139.033 142.86 139.288 142.453 139.487 141.861L139.848 140.895L136.455 131.49H138.23L140.604 138.618ZM145.446 136.157C145.446 135.226 145.628 134.388 145.991 133.644C146.36 132.899 146.87 132.325 147.521 131.921C148.177 131.517 148.924 131.314 149.762 131.314C151.057 131.314 152.103 131.763 152.899 132.659C153.702 133.556 154.104 134.748 154.104 136.236V136.351C154.104 137.276 153.925 138.108 153.567 138.847C153.216 139.579 152.709 140.15 152.047 140.561C151.391 140.971 150.635 141.176 149.779 141.176C148.49 141.176 147.444 140.728 146.642 139.831C145.845 138.935 145.446 137.748 145.446 136.271V136.157ZM147.081 136.351C147.081 137.405 147.324 138.252 147.811 138.891C148.303 139.529 148.959 139.849 149.779 139.849C150.605 139.849 151.262 139.526 151.748 138.882C152.234 138.231 152.478 137.323 152.478 136.157C152.478 135.114 152.229 134.271 151.73 133.626C151.238 132.976 150.582 132.65 149.762 132.65C148.959 132.65 148.312 132.97 147.819 133.608C147.327 134.247 147.081 135.161 147.081 136.351ZM162.014 140.06C161.381 140.804 160.452 141.176 159.228 141.176C158.214 141.176 157.44 140.883 156.907 140.297C156.38 139.705 156.113 138.832 156.107 137.678V131.49H157.733V137.634C157.733 139.075 158.319 139.796 159.491 139.796C160.733 139.796 161.56 139.333 161.97 138.407V131.49H163.596V141H162.049L162.014 140.06ZM172.165 132.642C172.886 131.757 173.823 131.314 174.978 131.314C176.987 131.314 178.001 132.448 178.019 134.716V141H176.393V134.707C176.387 134.021 176.229 133.515 175.918 133.187C175.613 132.858 175.136 132.694 174.485 132.694C173.958 132.694 173.495 132.835 173.097 133.116C172.698 133.397 172.388 133.767 172.165 134.224V141H170.539V127.5H172.165V132.642ZM186.324 141C186.23 140.812 186.154 140.479 186.096 139.998C185.34 140.783 184.438 141.176 183.389 141.176C182.451 141.176 181.681 140.912 181.077 140.385C180.479 139.852 180.181 139.178 180.181 138.363C180.181 137.373 180.556 136.605 181.306 136.061C182.062 135.51 183.122 135.234 184.487 135.234H186.069V134.487C186.069 133.919 185.899 133.468 185.56 133.134C185.22 132.794 184.719 132.624 184.057 132.624C183.477 132.624 182.99 132.771 182.598 133.063C182.205 133.356 182.009 133.711 182.009 134.127H180.374C180.374 133.652 180.541 133.195 180.875 132.756C181.215 132.311 181.672 131.959 182.246 131.701C182.826 131.443 183.462 131.314 184.153 131.314C185.249 131.314 186.107 131.59 186.729 132.141C187.35 132.686 187.672 133.438 187.695 134.399V138.776C187.695 139.649 187.807 140.344 188.029 140.859V141H186.324ZM183.626 139.761C184.136 139.761 184.619 139.629 185.076 139.365C185.533 139.102 185.864 138.759 186.069 138.337V136.386H184.795C182.803 136.386 181.807 136.969 181.807 138.135C181.807 138.645 181.977 139.043 182.316 139.33C182.656 139.617 183.093 139.761 183.626 139.761ZM193.241 138.794L195.597 131.49H197.258L193.848 141H192.608L189.163 131.49H190.824L193.241 138.794ZM202.646 141.176C201.356 141.176 200.308 140.754 199.499 139.91C198.69 139.061 198.286 137.927 198.286 136.509V136.21C198.286 135.267 198.465 134.426 198.822 133.688C199.186 132.943 199.689 132.363 200.334 131.947C200.984 131.525 201.688 131.314 202.443 131.314C203.68 131.314 204.641 131.722 205.326 132.536C206.012 133.351 206.354 134.517 206.354 136.034V136.711H199.912C199.936 137.648 200.208 138.407 200.729 138.987C201.257 139.562 201.925 139.849 202.733 139.849C203.308 139.849 203.794 139.731 204.192 139.497C204.591 139.263 204.939 138.952 205.238 138.565L206.231 139.339C205.435 140.563 204.239 141.176 202.646 141.176ZM202.443 132.65C201.787 132.65 201.236 132.891 200.791 133.371C200.346 133.846 200.07 134.514 199.965 135.375H204.729V135.252C204.682 134.426 204.459 133.787 204.061 133.336C203.662 132.879 203.123 132.65 202.443 132.65ZM36.5234 158.704C36.5234 158.165 36.333 157.711 35.9521 157.342C35.5771 156.973 34.9414 156.639 34.0449 156.34C32.7969 155.959 31.8857 155.464 31.3115 154.854C30.7432 154.239 30.459 153.46 30.459 152.517C30.459 151.556 30.7373 150.768 31.2939 150.152C31.8564 149.537 32.627 149.171 33.6055 149.054V147.129H34.915V149.062C35.8994 149.197 36.6641 149.61 37.209 150.302C37.7598 150.993 38.0352 151.939 38.0352 153.141H36.418C36.418 152.314 36.2217 151.658 35.8291 151.172C35.4365 150.686 34.9062 150.442 34.2383 150.442C33.541 150.442 33.0078 150.624 32.6387 150.987C32.2695 151.345 32.085 151.846 32.085 152.49C32.085 153.088 32.2783 153.565 32.665 153.923C33.0576 154.274 33.6992 154.597 34.5898 154.89C35.4863 155.177 36.1836 155.496 36.6816 155.848C37.1855 156.193 37.5547 156.598 37.7891 157.061C38.0293 157.523 38.1494 158.065 38.1494 158.687C38.1494 159.677 37.8506 160.474 37.2529 161.077C36.6611 161.681 35.8291 162.038 34.7568 162.149V163.828H33.4561V162.149C32.3662 162.05 31.5107 161.663 30.8896 160.989C30.2744 160.31 29.9668 159.39 29.9668 158.229H31.5928C31.5928 159.044 31.8066 159.671 32.2344 160.11C32.6621 160.55 33.2686 160.77 34.0537 160.77C34.8213 160.77 35.4248 160.585 35.8643 160.216C36.3037 159.847 36.5234 159.343 36.5234 158.704ZM100.147 162H98.5215V148.5H100.147V162ZM106.704 162.176C105.415 162.176 104.366 161.754 103.558 160.91C102.749 160.061 102.345 158.927 102.345 157.509V157.21C102.345 156.267 102.523 155.426 102.881 154.688C103.244 153.943 103.748 153.363 104.393 152.947C105.043 152.525 105.746 152.314 106.502 152.314C107.738 152.314 108.699 152.722 109.385 153.536C110.07 154.351 110.413 155.517 110.413 157.034V157.711H103.971C103.994 158.648 104.267 159.407 104.788 159.987C105.315 160.562 105.983 160.849 106.792 160.849C107.366 160.849 107.853 160.731 108.251 160.497C108.649 160.263 108.998 159.952 109.297 159.565L110.29 160.339C109.493 161.563 108.298 162.176 106.704 162.176ZM106.502 153.65C105.846 153.65 105.295 153.891 104.85 154.371C104.404 154.846 104.129 155.514 104.023 156.375H108.787V156.252C108.74 155.426 108.518 154.787 108.119 154.336C107.721 153.879 107.182 153.65 106.502 153.65ZM113.103 162V153.747H111.6V152.49H113.103V151.515C113.103 150.495 113.375 149.707 113.92 149.15C114.465 148.594 115.235 148.315 116.231 148.315C116.606 148.315 116.979 148.365 117.348 148.465L117.26 149.783C116.984 149.73 116.691 149.704 116.381 149.704C115.854 149.704 115.446 149.859 115.159 150.17C114.872 150.475 114.729 150.914 114.729 151.488V152.49H116.759V153.747H114.729V162H113.103ZM120.767 150.188V152.49H122.542V153.747H120.767V159.645C120.767 160.025 120.846 160.312 121.004 160.506C121.162 160.693 121.432 160.787 121.812 160.787C122 160.787 122.258 160.752 122.586 160.682V162C122.158 162.117 121.742 162.176 121.338 162.176C120.611 162.176 120.063 161.956 119.694 161.517C119.325 161.077 119.141 160.453 119.141 159.645V153.747H117.409V152.49H119.141V150.188H120.767ZM130.681 162H129.055V152.49H130.681V162ZM128.923 149.968C128.923 149.704 129.002 149.481 129.16 149.3C129.324 149.118 129.564 149.027 129.881 149.027C130.197 149.027 130.438 149.118 130.602 149.3C130.766 149.481 130.848 149.704 130.848 149.968C130.848 150.231 130.766 150.451 130.602 150.627C130.438 150.803 130.197 150.891 129.881 150.891C129.564 150.891 129.324 150.803 129.16 150.627C129.002 150.451 128.923 150.231 128.923 149.968ZM134.829 152.49L134.882 153.686C135.608 152.771 136.558 152.314 137.729 152.314C139.739 152.314 140.753 153.448 140.771 155.716V162H139.145V155.707C139.139 155.021 138.98 154.515 138.67 154.187C138.365 153.858 137.888 153.694 137.237 153.694C136.71 153.694 136.247 153.835 135.849 154.116C135.45 154.397 135.14 154.767 134.917 155.224V162H133.291V152.49H134.829ZM149.894 150.188V152.49H151.669V153.747H149.894V159.645C149.894 160.025 149.973 160.312 150.131 160.506C150.289 160.693 150.559 160.787 150.939 160.787C151.127 160.787 151.385 160.752 151.713 160.682V162C151.285 162.117 150.869 162.176 150.465 162.176C149.738 162.176 149.19 161.956 148.821 161.517C148.452 161.077 148.268 160.453 148.268 159.645V153.747H146.536V152.49H148.268V150.188H149.894ZM152.97 157.157C152.97 156.226 153.151 155.388 153.515 154.644C153.884 153.899 154.394 153.325 155.044 152.921C155.7 152.517 156.447 152.314 157.285 152.314C158.58 152.314 159.626 152.763 160.423 153.659C161.226 154.556 161.627 155.748 161.627 157.236V157.351C161.627 158.276 161.448 159.108 161.091 159.847C160.739 160.579 160.232 161.15 159.57 161.561C158.914 161.971 158.158 162.176 157.303 162.176C156.014 162.176 154.968 161.728 154.165 160.831C153.368 159.935 152.97 158.748 152.97 157.271V157.157ZM154.604 157.351C154.604 158.405 154.848 159.252 155.334 159.891C155.826 160.529 156.482 160.849 157.303 160.849C158.129 160.849 158.785 160.526 159.271 159.882C159.758 159.231 160.001 158.323 160.001 157.157C160.001 156.114 159.752 155.271 159.254 154.626C158.762 153.976 158.105 153.65 157.285 153.65C156.482 153.65 155.835 153.97 155.343 154.608C154.851 155.247 154.604 156.161 154.604 157.351ZM165.872 150.188V152.49H167.647V153.747H165.872V159.645C165.872 160.025 165.951 160.312 166.109 160.506C166.268 160.693 166.537 160.787 166.918 160.787C167.105 160.787 167.363 160.752 167.691 160.682V162C167.264 162.117 166.848 162.176 166.443 162.176C165.717 162.176 165.169 161.956 164.8 161.517C164.431 161.077 164.246 160.453 164.246 159.645V153.747H162.515V152.49H164.246V150.188H165.872ZM175.426 162C175.332 161.812 175.256 161.479 175.197 160.998C174.441 161.783 173.539 162.176 172.49 162.176C171.553 162.176 170.782 161.912 170.179 161.385C169.581 160.852 169.282 160.178 169.282 159.363C169.282 158.373 169.657 157.605 170.407 157.061C171.163 156.51 172.224 156.234 173.589 156.234H175.171V155.487C175.171 154.919 175.001 154.468 174.661 154.134C174.321 153.794 173.82 153.624 173.158 153.624C172.578 153.624 172.092 153.771 171.699 154.063C171.307 154.356 171.11 154.711 171.11 155.127H169.476C169.476 154.652 169.643 154.195 169.977 153.756C170.316 153.311 170.773 152.959 171.348 152.701C171.928 152.443 172.563 152.314 173.255 152.314C174.351 152.314 175.209 152.59 175.83 153.141C176.451 153.686 176.773 154.438 176.797 155.399V159.776C176.797 160.649 176.908 161.344 177.131 161.859V162H175.426ZM172.728 160.761C173.237 160.761 173.721 160.629 174.178 160.365C174.635 160.102 174.966 159.759 175.171 159.337V157.386H173.896C171.904 157.386 170.908 157.969 170.908 159.135C170.908 159.645 171.078 160.043 171.418 160.33C171.758 160.617 172.194 160.761 172.728 160.761ZM181.112 162H179.486V148.5H181.112V162ZM183.758 161.147C183.758 160.866 183.84 160.632 184.004 160.444C184.174 160.257 184.426 160.163 184.76 160.163C185.094 160.163 185.346 160.257 185.516 160.444C185.691 160.632 185.779 160.866 185.779 161.147C185.779 161.417 185.691 161.643 185.516 161.824C185.346 162.006 185.094 162.097 184.76 162.097C184.426 162.097 184.174 162.006 184.004 161.824C183.84 161.643 183.758 161.417 183.758 161.147Z" fill="black"/>
<rect id="earnedTotalMonthly" x="45" y="103" width="38" height="20" fill="white"/>
<rect id="moneyTotalMonthly" x="45" y="146" width="47" height="20" fill="white"/>
</g>
</svg>
