<svg width="245" height="292" viewBox="0 0 245 292" fill="none" xmlns="http://www.w3.org/2000/svg">
<g id="phew">
<rect id="Rectangle 19" x="1.5" y="1.5" width="242" height="289" fill="white" stroke="#E34D4D" stroke-width="3"/>
<path id="Phew... it&#226;&#128;&#153;s not real money With $ lost in the market, you have $ in total." d="M33.0518 52.6582V57H29.9668V44.2031H35.0732C36.0518 44.2031 36.916 44.3848 37.666 44.748C38.4219 45.1055 39.0049 45.6182 39.415 46.2861C39.8311 46.9482 40.0391 47.7012 40.0391 48.5449C40.0391 49.793 39.5908 50.792 38.6943 51.542C37.8037 52.2861 36.5791 52.6582 35.0205 52.6582H33.0518ZM33.0518 50.2764H35.0732C35.6709 50.2764 36.125 50.127 36.4355 49.8281C36.752 49.5293 36.9102 49.1074 36.9102 48.5625C36.9102 47.9648 36.749 47.4873 36.4268 47.1299C36.1045 46.7725 35.665 46.5908 35.1084 46.585H33.0518V50.2764ZM44.4512 48.5098C45.084 47.7129 45.8926 47.3145 46.877 47.3145C47.9258 47.3145 48.7168 47.625 49.25 48.2461C49.7832 48.8672 50.0557 49.7842 50.0674 50.9971V57H47.0967V51.0674C47.0967 50.5635 46.9941 50.1943 46.7891 49.96C46.584 49.7197 46.2354 49.5996 45.7432 49.5996C45.1338 49.5996 44.7031 49.793 44.4512 50.1797V57H41.4893V43.5H44.4512V48.5098ZM56.3164 57.1758C54.8574 57.1758 53.6768 56.7422 52.7744 55.875C51.8721 55.002 51.4209 53.8682 51.4209 52.4736V52.2275C51.4209 51.2549 51.5996 50.3965 51.957 49.6523C52.3203 48.9082 52.8477 48.334 53.5391 47.9297C54.2305 47.5195 55.0508 47.3145 56 47.3145C57.3359 47.3145 58.3906 47.7305 59.1641 48.5625C59.9375 49.3887 60.3242 50.543 60.3242 52.0254V53.1768H54.4355C54.541 53.71 54.7725 54.1289 55.1299 54.4336C55.4873 54.7383 55.9502 54.8906 56.5186 54.8906C57.4561 54.8906 58.1885 54.5625 58.7158 53.9062L60.0693 55.5059C59.7002 56.0156 59.1758 56.4229 58.4961 56.7275C57.8223 57.0264 57.0957 57.1758 56.3164 57.1758ZM55.9824 49.5996C55.1152 49.5996 54.5996 50.1738 54.4355 51.3223H57.4238V51.0938C57.4355 50.6191 57.3154 50.2529 57.0635 49.9951C56.8115 49.7314 56.4512 49.5996 55.9824 49.5996ZM69.7373 53.0977L70.6953 47.4902H73.5342L71.293 57H68.7881L67.2148 51.3574L65.6328 57H63.1279L60.8867 47.4902H63.7256L64.666 53.2295L66.1777 47.4902H68.2432L69.7373 53.0977ZM75.3447 54.126C75.8135 54.126 76.2031 54.2666 76.5137 54.5479C76.8242 54.8232 76.9795 55.1777 76.9795 55.6113C76.9795 56.0449 76.8242 56.4023 76.5137 56.6836C76.2031 56.959 75.8135 57.0967 75.3447 57.0967C74.8701 57.0967 74.4775 56.9561 74.167 56.6748C73.8623 56.3936 73.71 56.0391 73.71 55.6113C73.71 55.1836 73.8623 54.8291 74.167 54.5479C74.4775 54.2666 74.8701 54.126 75.3447 54.126ZM80.7939 54.126C81.2627 54.126 81.6523 54.2666 81.9629 54.5479C82.2734 54.8232 82.4287 55.1777 82.4287 55.6113C82.4287 56.0449 82.2734 56.4023 81.9629 56.6836C81.6523 56.959 81.2627 57.0967 80.7939 57.0967C80.3193 57.0967 79.9268 56.9561 79.6162 56.6748C79.3115 56.3936 79.1592 56.0391 79.1592 55.6113C79.1592 55.1836 79.3115 54.8291 79.6162 54.5479C79.9268 54.2666 80.3193 54.126 80.7939 54.126ZM86.2432 54.126C86.7119 54.126 87.1016 54.2666 87.4121 54.5479C87.7227 54.8232 87.8779 55.1777 87.8779 55.6113C87.8779 56.0449 87.7227 56.4023 87.4121 56.6836C87.1016 56.959 86.7119 57.0967 86.2432 57.0967C85.7686 57.0967 85.376 56.9561 85.0654 56.6748C84.7607 56.3936 84.6084 56.0391 84.6084 55.6113C84.6084 55.1836 84.7607 54.8291 85.0654 54.5479C85.376 54.2666 85.7686 54.126 86.2432 54.126ZM97.4668 57H94.4961V47.4902H97.4668V57ZM94.3203 45.0381C94.3203 44.6162 94.4727 44.2705 94.7773 44.001C95.082 43.7314 95.4775 43.5967 95.9639 43.5967C96.4502 43.5967 96.8457 43.7314 97.1504 44.001C97.4551 44.2705 97.6074 44.6162 97.6074 45.0381C97.6074 45.46 97.4551 45.8057 97.1504 46.0752C96.8457 46.3447 96.4502 46.4795 95.9639 46.4795C95.4775 46.4795 95.082 46.3447 94.7773 46.0752C94.4727 45.8057 94.3203 45.46 94.3203 45.0381ZM102.749 45.126V47.4902H104.313V49.5469H102.749V53.8975C102.749 54.2549 102.813 54.5039 102.942 54.6445C103.071 54.7852 103.326 54.8555 103.707 54.8555C104 54.8555 104.246 54.8379 104.445 54.8027V56.9209C103.912 57.0908 103.355 57.1758 102.775 57.1758C101.756 57.1758 101.003 56.9355 100.517 56.4551C100.03 55.9746 99.7871 55.2451 99.7871 54.2666V49.5469H98.5742V47.4902H99.7871V45.126H102.749ZM106.748 48.2109L105.447 47.5078C105.934 46.6641 106.183 45.8379 106.194 45.0293V43.5H108.356V44.9326C108.356 45.4775 108.198 46.0605 107.882 46.6816C107.571 47.2969 107.193 47.8066 106.748 48.2109ZM113.015 54.3281C113.015 54.0762 112.883 53.874 112.619 53.7217C112.355 53.5693 111.854 53.4111 111.116 53.2471C110.378 53.083 109.769 52.8691 109.288 52.6055C108.808 52.3359 108.441 52.0107 108.189 51.6299C107.938 51.249 107.812 50.8125 107.812 50.3203C107.812 49.4473 108.172 48.7295 108.893 48.167C109.613 47.5986 110.557 47.3145 111.723 47.3145C112.977 47.3145 113.984 47.5986 114.746 48.167C115.508 48.7354 115.889 49.4824 115.889 50.4082H112.918C112.918 49.6465 112.517 49.2656 111.714 49.2656C111.403 49.2656 111.143 49.3535 110.932 49.5293C110.721 49.6992 110.615 49.9131 110.615 50.1709C110.615 50.4346 110.744 50.6484 111.002 50.8125C111.26 50.9766 111.67 51.1113 112.232 51.2168C112.801 51.3223 113.299 51.4482 113.727 51.5947C115.156 52.0869 115.871 52.9688 115.871 54.2402C115.871 55.1074 115.484 55.8135 114.711 56.3584C113.943 56.9033 112.947 57.1758 111.723 57.1758C110.908 57.1758 110.182 57.0293 109.543 56.7363C108.904 56.4434 108.406 56.0449 108.049 55.541C107.691 55.0371 107.513 54.5068 107.513 53.9502H110.281C110.293 54.3896 110.439 54.7119 110.721 54.917C111.002 55.1162 111.362 55.2158 111.802 55.2158C112.206 55.2158 112.508 55.1338 112.707 54.9697C112.912 54.8057 113.015 54.5918 113.015 54.3281ZM124.467 47.4902L124.563 48.6064C125.22 47.7451 126.125 47.3145 127.279 47.3145C128.27 47.3145 129.008 47.6104 129.494 48.2021C129.986 48.7939 130.241 49.6846 130.259 50.874V57H127.288V50.9971C127.288 50.5166 127.191 50.165 126.998 49.9424C126.805 49.7139 126.453 49.5996 125.943 49.5996C125.363 49.5996 124.933 49.8281 124.651 50.2852V57H121.689V47.4902H124.467ZM131.533 52.1572C131.533 51.208 131.718 50.3643 132.087 49.626C132.456 48.8818 132.986 48.3105 133.678 47.9121C134.369 47.5137 135.181 47.3145 136.112 47.3145C137.536 47.3145 138.658 47.7568 139.479 48.6416C140.299 49.5205 140.709 50.7188 140.709 52.2363V52.3418C140.709 53.8242 140.296 55.002 139.47 55.875C138.649 56.7422 137.536 57.1758 136.13 57.1758C134.776 57.1758 133.689 56.7715 132.869 55.9629C132.049 55.1484 131.606 54.0469 131.542 52.6582L131.533 52.1572ZM134.495 52.3418C134.495 53.2207 134.633 53.8652 134.908 54.2754C135.184 54.6855 135.591 54.8906 136.13 54.8906C137.185 54.8906 137.724 54.0791 137.747 52.4561V52.1572C137.747 50.4521 137.202 49.5996 136.112 49.5996C135.122 49.5996 134.586 50.335 134.504 51.8057L134.495 52.3418ZM145.464 45.126V47.4902H147.028V49.5469H145.464V53.8975C145.464 54.2549 145.528 54.5039 145.657 54.6445C145.786 54.7852 146.041 54.8555 146.422 54.8555C146.715 54.8555 146.961 54.8379 147.16 54.8027V56.9209C146.627 57.0908 146.07 57.1758 145.49 57.1758C144.471 57.1758 143.718 56.9355 143.231 56.4551C142.745 55.9746 142.502 55.2451 142.502 54.2666V49.5469H141.289V47.4902H142.502V45.126H145.464ZM158.437 50.1709L157.461 50.1006C156.529 50.1006 155.932 50.3936 155.668 50.9795V57H152.706V47.4902H155.483L155.58 48.7119C156.078 47.7803 156.772 47.3145 157.663 47.3145C157.979 47.3145 158.255 47.3496 158.489 47.4199L158.437 50.1709ZM163.93 57.1758C162.471 57.1758 161.29 56.7422 160.388 55.875C159.485 55.002 159.034 53.8682 159.034 52.4736V52.2275C159.034 51.2549 159.213 50.3965 159.57 49.6523C159.934 48.9082 160.461 48.334 161.152 47.9297C161.844 47.5195 162.664 47.3145 163.613 47.3145C164.949 47.3145 166.004 47.7305 166.777 48.5625C167.551 49.3887 167.938 50.543 167.938 52.0254V53.1768H162.049C162.154 53.71 162.386 54.1289 162.743 54.4336C163.101 54.7383 163.563 54.8906 164.132 54.8906C165.069 54.8906 165.802 54.5625 166.329 53.9062L167.683 55.5059C167.313 56.0156 166.789 56.4229 166.109 56.7275C165.436 57.0264 164.709 57.1758 163.93 57.1758ZM163.596 49.5996C162.729 49.5996 162.213 50.1738 162.049 51.3223H165.037V51.0938C165.049 50.6191 164.929 50.2529 164.677 49.9951C164.425 49.7314 164.064 49.5996 163.596 49.5996ZM174.494 57C174.389 56.8066 174.295 56.5225 174.213 56.1475C173.668 56.833 172.906 57.1758 171.928 57.1758C171.031 57.1758 170.27 56.9062 169.643 56.3672C169.016 55.8223 168.702 55.1396 168.702 54.3193C168.702 53.2881 169.083 52.5088 169.845 51.9814C170.606 51.4541 171.714 51.1904 173.167 51.1904H174.081V50.6895C174.081 49.8164 173.703 49.3799 172.947 49.3799C172.244 49.3799 171.893 49.7256 171.893 50.417H168.931C168.931 49.4971 169.32 48.75 170.1 48.1758C170.885 47.6016 171.884 47.3145 173.097 47.3145C174.31 47.3145 175.268 47.6104 175.971 48.2021C176.674 48.7939 177.034 49.6055 177.052 50.6367V54.8467C177.063 55.7197 177.198 56.3877 177.456 56.8506V57H174.494ZM172.64 55.0664C173.009 55.0664 173.313 54.9873 173.554 54.8291C173.8 54.6709 173.976 54.4922 174.081 54.293V52.7725H173.22C172.188 52.7725 171.673 53.2354 171.673 54.1611C171.673 54.4307 171.764 54.6504 171.945 54.8203C172.127 54.9844 172.358 55.0664 172.64 55.0664ZM181.824 57H178.854V43.5H181.824V57ZM32.6299 68.4902L32.7266 69.6064C33.4004 68.7451 34.3057 68.3145 35.4424 68.3145C36.6436 68.3145 37.4551 68.792 37.877 69.7471C38.5215 68.792 39.4531 68.3145 40.6719 68.3145C42.5996 68.3145 43.5898 69.4805 43.6426 71.8125V78H40.6719V71.9971C40.6719 71.5107 40.5898 71.1562 40.4258 70.9336C40.2617 70.7109 39.9629 70.5996 39.5293 70.5996C38.9434 70.5996 38.5068 70.8604 38.2197 71.3818L38.2285 71.5049V78H35.2578V72.0146C35.2578 71.5166 35.1787 71.1562 35.0205 70.9336C34.8623 70.7109 34.5605 70.5996 34.1152 70.5996C33.5469 70.5996 33.1133 70.8604 32.8145 71.3818V78H29.8525V68.4902H32.6299ZM44.9609 73.1572C44.9609 72.208 45.1455 71.3643 45.5146 70.626C45.8838 69.8818 46.4141 69.3105 47.1055 68.9121C47.7969 68.5137 48.6084 68.3145 49.54 68.3145C50.9639 68.3145 52.0859 68.7568 52.9062 69.6416C53.7266 70.5205 54.1367 71.7188 54.1367 73.2363V73.3418C54.1367 74.8242 53.7236 76.002 52.8975 76.875C52.0771 77.7422 50.9639 78.1758 49.5576 78.1758C48.2041 78.1758 47.1172 77.7715 46.2969 76.9629C45.4766 76.1484 45.0342 75.0469 44.9697 73.6582L44.9609 73.1572ZM47.9229 73.3418C47.9229 74.2207 48.0605 74.8652 48.3359 75.2754C48.6113 75.6855 49.0186 75.8906 49.5576 75.8906C50.6123 75.8906 51.1514 75.0791 51.1748 73.4561V73.1572C51.1748 71.4521 50.6299 70.5996 49.54 70.5996C48.5498 70.5996 48.0137 71.335 47.9316 72.8057L47.9229 73.3418ZM58.1621 68.4902L58.2588 69.6064C58.915 68.7451 59.8203 68.3145 60.9746 68.3145C61.9648 68.3145 62.7031 68.6104 63.1895 69.2021C63.6816 69.7939 63.9365 70.6846 63.9541 71.874V78H60.9834V71.9971C60.9834 71.5166 60.8867 71.165 60.6934 70.9424C60.5 70.7139 60.1484 70.5996 59.6387 70.5996C59.0586 70.5996 58.6279 70.8281 58.3467 71.2852V78H55.3848V68.4902H58.1621ZM70.2031 78.1758C68.7441 78.1758 67.5635 77.7422 66.6611 76.875C65.7588 76.002 65.3076 74.8682 65.3076 73.4736V73.2275C65.3076 72.2549 65.4863 71.3965 65.8438 70.6523C66.207 69.9082 66.7344 69.334 67.4258 68.9297C68.1172 68.5195 68.9375 68.3145 69.8867 68.3145C71.2227 68.3145 72.2773 68.7305 73.0508 69.5625C73.8242 70.3887 74.2109 71.543 74.2109 73.0254V74.1768H68.3223C68.4277 74.71 68.6592 75.1289 69.0166 75.4336C69.374 75.7383 69.8369 75.8906 70.4053 75.8906C71.3428 75.8906 72.0752 75.5625 72.6025 74.9062L73.9561 76.5059C73.5869 77.0156 73.0625 77.4229 72.3828 77.7275C71.709 78.0264 70.9824 78.1758 70.2031 78.1758ZM69.8691 70.5996C69.002 70.5996 68.4863 71.1738 68.3223 72.3223H71.3105V72.0938C71.3223 71.6191 71.2021 71.2529 70.9502 70.9951C70.6982 70.7314 70.3379 70.5996 69.8691 70.5996ZM79.0889 73.8516L80.6709 68.4902H83.8438L79.9678 79.5908L79.8008 79.9951C79.25 81.2256 78.2773 81.8408 76.8828 81.8408C76.4961 81.8408 76.0889 81.7822 75.6611 81.665V79.5469H76.0479C76.4639 79.5469 76.7803 79.4854 76.9971 79.3623C77.2197 79.2451 77.3838 79.0312 77.4893 78.7207L77.7266 78.0879L74.4219 68.4902H77.5859L79.0889 73.8516ZM33.2451 115.966L33.4912 117.653L33.8516 116.133L36.3828 107.203H37.8066L40.2764 116.133L40.6279 117.68L40.9004 115.957L42.8867 107.203H44.583L41.4805 120H39.9424L37.3057 110.675L37.1035 109.699L36.9014 110.675L34.168 120H32.6299L29.5361 107.203H31.2236L33.2451 115.966ZM47.9756 120H46.3496V110.49H47.9756V120ZM46.2178 107.968C46.2178 107.704 46.2969 107.481 46.4551 107.3C46.6191 107.118 46.8594 107.027 47.1758 107.027C47.4922 107.027 47.7324 107.118 47.8965 107.3C48.0605 107.481 48.1426 107.704 48.1426 107.968C48.1426 108.231 48.0605 108.451 47.8965 108.627C47.7324 108.803 47.4922 108.891 47.1758 108.891C46.8594 108.891 46.6191 108.803 46.4551 108.627C46.2969 108.451 46.2178 108.231 46.2178 107.968ZM52.792 108.188V110.49H54.5674V111.747H52.792V117.645C52.792 118.025 52.8711 118.312 53.0293 118.506C53.1875 118.693 53.457 118.787 53.8379 118.787C54.0254 118.787 54.2832 118.752 54.6113 118.682V120C54.1836 120.117 53.7676 120.176 53.3633 120.176C52.6367 120.176 52.0889 119.956 51.7197 119.517C51.3506 119.077 51.166 118.453 51.166 117.645V111.747H49.4346V110.49H51.166V108.188H52.792ZM58.1006 111.642C58.8213 110.757 59.7588 110.314 60.9131 110.314C62.9229 110.314 63.9365 111.448 63.9541 113.716V120H62.3281V113.707C62.3223 113.021 62.1641 112.515 61.8535 112.187C61.5488 111.858 61.0713 111.694 60.4209 111.694C59.8936 111.694 59.4307 111.835 59.0322 112.116C58.6338 112.397 58.3232 112.767 58.1006 113.224V120H56.4746V106.5H58.1006V111.642ZM77.1465 116.704C77.1465 116.165 76.9561 115.711 76.5752 115.342C76.2002 114.973 75.5645 114.639 74.668 114.34C73.4199 113.959 72.5088 113.464 71.9346 112.854C71.3662 112.239 71.082 111.46 71.082 110.517C71.082 109.556 71.3604 108.768 71.917 108.152C72.4795 107.537 73.25 107.171 74.2285 107.054V105.129H75.5381V107.062C76.5225 107.197 77.2871 107.61 77.832 108.302C78.3828 108.993 78.6582 109.939 78.6582 111.141H77.041C77.041 110.314 76.8447 109.658 76.4521 109.172C76.0596 108.686 75.5293 108.442 74.8613 108.442C74.1641 108.442 73.6309 108.624 73.2617 108.987C72.8926 109.345 72.708 109.846 72.708 110.49C72.708 111.088 72.9014 111.565 73.2881 111.923C73.6807 112.274 74.3223 112.597 75.2129 112.89C76.1094 113.177 76.8066 113.496 77.3047 113.848C77.8086 114.193 78.1777 114.598 78.4121 115.061C78.6523 115.523 78.7725 116.065 78.7725 116.687C78.7725 117.677 78.4736 118.474 77.876 119.077C77.2842 119.681 76.4521 120.038 75.3799 120.149V121.828H74.0791V120.149C72.9893 120.05 72.1338 119.663 71.5127 118.989C70.8975 118.31 70.5898 117.39 70.5898 116.229H72.2158C72.2158 117.044 72.4297 117.671 72.8574 118.11C73.2852 118.55 73.8916 118.77 74.6768 118.77C75.4443 118.77 76.0479 118.585 76.4873 118.216C76.9268 117.847 77.1465 117.343 77.1465 116.704ZM122.911 120H121.285V106.5H122.911V120ZM125.091 115.157C125.091 114.226 125.272 113.388 125.636 112.644C126.005 111.899 126.515 111.325 127.165 110.921C127.821 110.517 128.568 110.314 129.406 110.314C130.701 110.314 131.747 110.763 132.544 111.659C133.347 112.556 133.748 113.748 133.748 115.236V115.351C133.748 116.276 133.569 117.108 133.212 117.847C132.86 118.579 132.354 119.15 131.691 119.561C131.035 119.971 130.279 120.176 129.424 120.176C128.135 120.176 127.089 119.728 126.286 118.831C125.489 117.935 125.091 116.748 125.091 115.271V115.157ZM126.726 115.351C126.726 116.405 126.969 117.252 127.455 117.891C127.947 118.529 128.604 118.849 129.424 118.849C130.25 118.849 130.906 118.526 131.393 117.882C131.879 117.231 132.122 116.323 132.122 115.157C132.122 114.114 131.873 113.271 131.375 112.626C130.883 111.976 130.227 111.65 129.406 111.65C128.604 111.65 127.956 111.97 127.464 112.608C126.972 113.247 126.726 114.161 126.726 115.351ZM141.324 117.478C141.324 117.038 141.157 116.698 140.823 116.458C140.495 116.212 139.918 116.001 139.092 115.825C138.271 115.649 137.618 115.438 137.132 115.192C136.651 114.946 136.294 114.653 136.06 114.313C135.831 113.974 135.717 113.569 135.717 113.101C135.717 112.321 136.045 111.662 136.701 111.123C137.363 110.584 138.207 110.314 139.232 110.314C140.311 110.314 141.184 110.593 141.852 111.149C142.525 111.706 142.862 112.418 142.862 113.285H141.228C141.228 112.84 141.037 112.456 140.656 112.134C140.281 111.812 139.807 111.65 139.232 111.65C138.641 111.65 138.178 111.779 137.844 112.037C137.51 112.295 137.343 112.632 137.343 113.048C137.343 113.44 137.498 113.736 137.809 113.936C138.119 114.135 138.679 114.325 139.487 114.507C140.302 114.688 140.961 114.905 141.465 115.157C141.969 115.409 142.341 115.714 142.581 116.071C142.827 116.423 142.95 116.854 142.95 117.363C142.95 118.213 142.61 118.896 141.931 119.411C141.251 119.921 140.369 120.176 139.285 120.176C138.523 120.176 137.85 120.041 137.264 119.771C136.678 119.502 136.218 119.127 135.884 118.646C135.556 118.16 135.392 117.636 135.392 117.073H137.018C137.047 117.618 137.264 118.052 137.668 118.374C138.078 118.69 138.617 118.849 139.285 118.849C139.9 118.849 140.393 118.726 140.762 118.479C141.137 118.228 141.324 117.894 141.324 117.478ZM147.274 108.188V110.49H149.05V111.747H147.274V117.645C147.274 118.025 147.354 118.312 147.512 118.506C147.67 118.693 147.939 118.787 148.32 118.787C148.508 118.787 148.766 118.752 149.094 118.682V120C148.666 120.117 148.25 120.176 147.846 120.176C147.119 120.176 146.571 119.956 146.202 119.517C145.833 119.077 145.648 118.453 145.648 117.645V111.747H143.917V110.49H145.648V108.188H147.274ZM157.188 120H155.562V110.49H157.188V120ZM155.431 107.968C155.431 107.704 155.51 107.481 155.668 107.3C155.832 107.118 156.072 107.027 156.389 107.027C156.705 107.027 156.945 107.118 157.109 107.3C157.273 107.481 157.355 107.704 157.355 107.968C157.355 108.231 157.273 108.451 157.109 108.627C156.945 108.803 156.705 108.891 156.389 108.891C156.072 108.891 155.832 108.803 155.668 108.627C155.51 108.451 155.431 108.231 155.431 107.968ZM161.337 110.49L161.39 111.686C162.116 110.771 163.065 110.314 164.237 110.314C166.247 110.314 167.261 111.448 167.278 113.716V120H165.652V113.707C165.646 113.021 165.488 112.515 165.178 112.187C164.873 111.858 164.396 111.694 163.745 111.694C163.218 111.694 162.755 111.835 162.356 112.116C161.958 112.397 161.647 112.767 161.425 113.224V120H159.799V110.49H161.337ZM176.401 108.188V110.49H178.177V111.747H176.401V117.645C176.401 118.025 176.48 118.312 176.639 118.506C176.797 118.693 177.066 118.787 177.447 118.787C177.635 118.787 177.893 118.752 178.221 118.682V120C177.793 120.117 177.377 120.176 176.973 120.176C176.246 120.176 175.698 119.956 175.329 119.517C174.96 119.077 174.775 118.453 174.775 117.645V111.747H173.044V110.49H174.775V108.188H176.401ZM181.71 111.642C182.431 110.757 183.368 110.314 184.522 110.314C186.532 110.314 187.546 111.448 187.563 113.716V120H185.938V113.707C185.932 113.021 185.773 112.515 185.463 112.187C185.158 111.858 184.681 111.694 184.03 111.694C183.503 111.694 183.04 111.835 182.642 112.116C182.243 112.397 181.933 112.767 181.71 113.224V120H180.084V106.5H181.71V111.642ZM193.944 120.176C192.655 120.176 191.606 119.754 190.798 118.91C189.989 118.061 189.585 116.927 189.585 115.509V115.21C189.585 114.267 189.764 113.426 190.121 112.688C190.484 111.943 190.988 111.363 191.633 110.947C192.283 110.525 192.986 110.314 193.742 110.314C194.979 110.314 195.939 110.722 196.625 111.536C197.311 112.351 197.653 113.517 197.653 115.034V115.711H191.211C191.234 116.648 191.507 117.407 192.028 117.987C192.556 118.562 193.224 118.849 194.032 118.849C194.606 118.849 195.093 118.731 195.491 118.497C195.89 118.263 196.238 117.952 196.537 117.565L197.53 118.339C196.733 119.563 195.538 120.176 193.944 120.176ZM193.742 111.65C193.086 111.65 192.535 111.891 192.09 112.371C191.645 112.846 191.369 113.514 191.264 114.375H196.027V114.252C195.98 113.426 195.758 112.787 195.359 112.336C194.961 111.879 194.422 111.65 193.742 111.65ZM31.7598 131.49L31.8037 132.545C32.501 131.725 33.4414 131.314 34.625 131.314C35.9551 131.314 36.8604 131.824 37.3408 132.844C37.6572 132.387 38.0674 132.018 38.5713 131.736C39.0811 131.455 39.6816 131.314 40.373 131.314C42.459 131.314 43.5195 132.419 43.5547 134.628V141H41.9287V134.725C41.9287 134.045 41.7734 133.538 41.4629 133.204C41.1523 132.864 40.6309 132.694 39.8984 132.694C39.2949 132.694 38.7939 132.876 38.3955 133.239C37.9971 133.597 37.7656 134.08 37.7012 134.689V141H36.0664V134.769C36.0664 133.386 35.3896 132.694 34.0361 132.694C32.9697 132.694 32.2402 133.148 31.8477 134.057V141H30.2217V131.49H31.7598ZM51.8867 141C51.793 140.812 51.7168 140.479 51.6582 139.998C50.9023 140.783 50 141.176 48.9512 141.176C48.0137 141.176 47.2432 140.912 46.6396 140.385C46.042 139.852 45.7432 139.178 45.7432 138.363C45.7432 137.373 46.1182 136.605 46.8682 136.061C47.624 135.51 48.6846 135.234 50.0498 135.234H51.6318V134.487C51.6318 133.919 51.4619 133.468 51.1221 133.134C50.7822 132.794 50.2812 132.624 49.6191 132.624C49.0391 132.624 48.5527 132.771 48.1602 133.063C47.7676 133.356 47.5713 133.711 47.5713 134.127H45.9365C45.9365 133.652 46.1035 133.195 46.4375 132.756C46.7773 132.311 47.2344 131.959 47.8086 131.701C48.3887 131.443 49.0244 131.314 49.7158 131.314C50.8115 131.314 51.6699 131.59 52.291 132.141C52.9121 132.686 53.2344 133.438 53.2578 134.399V138.776C53.2578 139.649 53.3691 140.344 53.5918 140.859V141H51.8867ZM49.1885 139.761C49.6982 139.761 50.1816 139.629 50.6387 139.365C51.0957 139.102 51.4268 138.759 51.6318 138.337V136.386H50.3574C48.3652 136.386 47.3691 136.969 47.3691 138.135C47.3691 138.645 47.5391 139.043 47.8789 139.33C48.2188 139.617 48.6553 139.761 49.1885 139.761ZM60.4033 132.949C60.1572 132.908 59.8906 132.888 59.6035 132.888C58.5371 132.888 57.8135 133.342 57.4326 134.25V141H55.8066V131.49H57.3887L57.415 132.589C57.9482 131.739 58.7041 131.314 59.6826 131.314C59.999 131.314 60.2393 131.355 60.4033 131.438V132.949ZM64.5605 136.597L63.541 137.66V141H61.915V127.5H63.541V135.665L64.4111 134.619L67.373 131.49H69.3506L65.6504 135.463L69.7812 141H67.874L64.5605 136.597ZM74.7998 141.176C73.5107 141.176 72.4619 140.754 71.6533 139.91C70.8447 139.061 70.4404 137.927 70.4404 136.509V136.21C70.4404 135.267 70.6191 134.426 70.9766 133.688C71.3398 132.943 71.8438 132.363 72.4883 131.947C73.1387 131.525 73.8418 131.314 74.5977 131.314C75.834 131.314 76.7949 131.722 77.4805 132.536C78.166 133.351 78.5088 134.517 78.5088 136.034V136.711H72.0664C72.0898 137.648 72.3623 138.407 72.8838 138.987C73.4111 139.562 74.0791 139.849 74.8877 139.849C75.4619 139.849 75.9482 139.731 76.3467 139.497C76.7451 139.263 77.0938 138.952 77.3926 138.565L78.3857 139.339C77.5889 140.563 76.3936 141.176 74.7998 141.176ZM74.5977 132.65C73.9414 132.65 73.3906 132.891 72.9453 133.371C72.5 133.846 72.2246 134.514 72.1191 135.375H76.8828V135.252C76.8359 134.426 76.6133 133.787 76.2148 133.336C75.8164 132.879 75.2773 132.65 74.5977 132.65ZM82.6045 129.188V131.49H84.3799V132.747H82.6045V138.645C82.6045 139.025 82.6836 139.312 82.8418 139.506C83 139.693 83.2695 139.787 83.6504 139.787C83.8379 139.787 84.0957 139.752 84.4238 139.682V141C83.9961 141.117 83.5801 141.176 83.1758 141.176C82.4492 141.176 81.9014 140.956 81.5322 140.517C81.1631 140.077 80.9785 139.453 80.9785 138.645V132.747H79.2471V131.49H80.9785V129.188H82.6045ZM86.2344 143.549L85.3115 142.916C85.8623 142.148 86.1494 141.357 86.1729 140.543V139.075H87.7637V140.35C87.7637 140.941 87.6172 141.533 87.3242 142.125C87.0371 142.717 86.6738 143.191 86.2344 143.549ZM97.3965 138.618L99.6113 131.49H101.352L97.5283 142.468C96.9365 144.05 95.9961 144.841 94.707 144.841L94.3994 144.814L93.793 144.7V143.382L94.2324 143.417C94.7832 143.417 95.2109 143.306 95.5156 143.083C95.8262 142.86 96.0811 142.453 96.2803 141.861L96.6406 140.895L93.248 131.49H95.0234L97.3965 138.618ZM102.239 136.157C102.239 135.226 102.421 134.388 102.784 133.644C103.153 132.899 103.663 132.325 104.313 131.921C104.97 131.517 105.717 131.314 106.555 131.314C107.85 131.314 108.896 131.763 109.692 132.659C110.495 133.556 110.896 134.748 110.896 136.236V136.351C110.896 137.276 110.718 138.108 110.36 138.847C110.009 139.579 109.502 140.15 108.84 140.561C108.184 140.971 107.428 141.176 106.572 141.176C105.283 141.176 104.237 140.728 103.435 139.831C102.638 138.935 102.239 137.748 102.239 136.271V136.157ZM103.874 136.351C103.874 137.405 104.117 138.252 104.604 138.891C105.096 139.529 105.752 139.849 106.572 139.849C107.398 139.849 108.055 139.526 108.541 138.882C109.027 138.231 109.271 137.323 109.271 136.157C109.271 135.114 109.021 134.271 108.523 133.626C108.031 132.976 107.375 132.65 106.555 132.65C105.752 132.65 105.104 132.97 104.612 133.608C104.12 134.247 103.874 135.161 103.874 136.351ZM118.807 140.06C118.174 140.804 117.245 141.176 116.021 141.176C115.007 141.176 114.233 140.883 113.7 140.297C113.173 139.705 112.906 138.832 112.9 137.678V131.49H114.526V137.634C114.526 139.075 115.112 139.796 116.284 139.796C117.526 139.796 118.353 139.333 118.763 138.407V131.49H120.389V141H118.842L118.807 140.06ZM128.958 132.642C129.679 131.757 130.616 131.314 131.771 131.314C133.78 131.314 134.794 132.448 134.812 134.716V141H133.186V134.707C133.18 134.021 133.021 133.515 132.711 133.187C132.406 132.858 131.929 132.694 131.278 132.694C130.751 132.694 130.288 132.835 129.89 133.116C129.491 133.397 129.181 133.767 128.958 134.224V141H127.332V127.5H128.958V132.642ZM143.117 141C143.023 140.812 142.947 140.479 142.889 139.998C142.133 140.783 141.23 141.176 140.182 141.176C139.244 141.176 138.474 140.912 137.87 140.385C137.272 139.852 136.974 139.178 136.974 138.363C136.974 137.373 137.349 136.605 138.099 136.061C138.854 135.51 139.915 135.234 141.28 135.234H142.862V134.487C142.862 133.919 142.692 133.468 142.353 133.134C142.013 132.794 141.512 132.624 140.85 132.624C140.27 132.624 139.783 132.771 139.391 133.063C138.998 133.356 138.802 133.711 138.802 134.127H137.167C137.167 133.652 137.334 133.195 137.668 132.756C138.008 132.311 138.465 131.959 139.039 131.701C139.619 131.443 140.255 131.314 140.946 131.314C142.042 131.314 142.9 131.59 143.521 132.141C144.143 132.686 144.465 133.438 144.488 134.399V138.776C144.488 139.649 144.6 140.344 144.822 140.859V141H143.117ZM140.419 139.761C140.929 139.761 141.412 139.629 141.869 139.365C142.326 139.102 142.657 138.759 142.862 138.337V136.386H141.588C139.596 136.386 138.6 136.969 138.6 138.135C138.6 138.645 138.77 139.043 139.109 139.33C139.449 139.617 139.886 139.761 140.419 139.761ZM150.034 138.794L152.39 131.49H154.051L150.641 141H149.401L145.956 131.49H147.617L150.034 138.794ZM159.438 141.176C158.149 141.176 157.101 140.754 156.292 139.91C155.483 139.061 155.079 137.927 155.079 136.509V136.21C155.079 135.267 155.258 134.426 155.615 133.688C155.979 132.943 156.482 132.363 157.127 131.947C157.777 131.525 158.48 131.314 159.236 131.314C160.473 131.314 161.434 131.722 162.119 132.536C162.805 133.351 163.147 134.517 163.147 136.034V136.711H156.705C156.729 137.648 157.001 138.407 157.522 138.987C158.05 139.562 158.718 139.849 159.526 139.849C160.101 139.849 160.587 139.731 160.985 139.497C161.384 139.263 161.732 138.952 162.031 138.565L163.024 139.339C162.228 140.563 161.032 141.176 159.438 141.176ZM159.236 132.65C158.58 132.65 158.029 132.891 157.584 133.371C157.139 133.846 156.863 134.514 156.758 135.375H161.521V135.252C161.475 134.426 161.252 133.787 160.854 133.336C160.455 132.879 159.916 132.65 159.236 132.65ZM36.5234 158.704C36.5234 158.165 36.333 157.711 35.9521 157.342C35.5771 156.973 34.9414 156.639 34.0449 156.34C32.7969 155.959 31.8857 155.464 31.3115 154.854C30.7432 154.239 30.459 153.46 30.459 152.517C30.459 151.556 30.7373 150.768 31.2939 150.152C31.8564 149.537 32.627 149.171 33.6055 149.054V147.129H34.915V149.062C35.8994 149.197 36.6641 149.61 37.209 150.302C37.7598 150.993 38.0352 151.939 38.0352 153.141H36.418C36.418 152.314 36.2217 151.658 35.8291 151.172C35.4365 150.686 34.9062 150.442 34.2383 150.442C33.541 150.442 33.0078 150.624 32.6387 150.987C32.2695 151.345 32.085 151.846 32.085 152.49C32.085 153.088 32.2783 153.565 32.665 153.923C33.0576 154.274 33.6992 154.597 34.5898 154.89C35.4863 155.177 36.1836 155.496 36.6816 155.848C37.1855 156.193 37.5547 156.598 37.7891 157.061C38.0293 157.523 38.1494 158.065 38.1494 158.687C38.1494 159.677 37.8506 160.474 37.2529 161.077C36.6611 161.681 35.8291 162.038 34.7568 162.149V163.828H33.4561V162.149C32.3662 162.05 31.5107 161.663 30.8896 160.989C30.2744 160.31 29.9668 159.39 29.9668 158.229H31.5928C31.5928 159.044 31.8066 159.671 32.2344 160.11C32.6621 160.55 33.2686 160.77 34.0537 160.77C34.8213 160.77 35.4248 160.585 35.8643 160.216C36.3037 159.847 36.5234 159.343 36.5234 158.704ZM100.147 162H98.5215V152.49H100.147V162ZM98.3896 149.968C98.3896 149.704 98.4688 149.481 98.627 149.3C98.791 149.118 99.0312 149.027 99.3477 149.027C99.6641 149.027 99.9043 149.118 100.068 149.3C100.232 149.481 100.314 149.704 100.314 149.968C100.314 150.231 100.232 150.451 100.068 150.627C99.9043 150.803 99.6641 150.891 99.3477 150.891C99.0312 150.891 98.791 150.803 98.627 150.627C98.4688 150.451 98.3896 150.231 98.3896 149.968ZM104.296 152.49L104.349 153.686C105.075 152.771 106.024 152.314 107.196 152.314C109.206 152.314 110.22 153.448 110.237 155.716V162H108.611V155.707C108.605 155.021 108.447 154.515 108.137 154.187C107.832 153.858 107.354 153.694 106.704 153.694C106.177 153.694 105.714 153.835 105.315 154.116C104.917 154.397 104.606 154.767 104.384 155.224V162H102.758V152.49H104.296ZM119.36 150.188V152.49H121.136V153.747H119.36V159.645C119.36 160.025 119.439 160.312 119.598 160.506C119.756 160.693 120.025 160.787 120.406 160.787C120.594 160.787 120.852 160.752 121.18 160.682V162C120.752 162.117 120.336 162.176 119.932 162.176C119.205 162.176 118.657 161.956 118.288 161.517C117.919 161.077 117.734 160.453 117.734 159.645V153.747H116.003V152.49H117.734V150.188H119.36ZM122.437 157.157C122.437 156.226 122.618 155.388 122.981 154.644C123.351 153.899 123.86 153.325 124.511 152.921C125.167 152.517 125.914 152.314 126.752 152.314C128.047 152.314 129.093 152.763 129.89 153.659C130.692 154.556 131.094 155.748 131.094 157.236V157.351C131.094 158.276 130.915 159.108 130.558 159.847C130.206 160.579 129.699 161.15 129.037 161.561C128.381 161.971 127.625 162.176 126.77 162.176C125.48 162.176 124.435 161.728 123.632 160.831C122.835 159.935 122.437 158.748 122.437 157.271V157.157ZM124.071 157.351C124.071 158.405 124.314 159.252 124.801 159.891C125.293 160.529 125.949 160.849 126.77 160.849C127.596 160.849 128.252 160.526 128.738 159.882C129.225 159.231 129.468 158.323 129.468 157.157C129.468 156.114 129.219 155.271 128.721 154.626C128.229 153.976 127.572 153.65 126.752 153.65C125.949 153.65 125.302 153.97 124.81 154.608C124.317 155.247 124.071 156.161 124.071 157.351ZM135.339 150.188V152.49H137.114V153.747H135.339V159.645C135.339 160.025 135.418 160.312 135.576 160.506C135.734 160.693 136.004 160.787 136.385 160.787C136.572 160.787 136.83 160.752 137.158 160.682V162C136.73 162.117 136.314 162.176 135.91 162.176C135.184 162.176 134.636 161.956 134.267 161.517C133.897 161.077 133.713 160.453 133.713 159.645V153.747H131.981V152.49H133.713V150.188H135.339ZM144.893 162C144.799 161.812 144.723 161.479 144.664 160.998C143.908 161.783 143.006 162.176 141.957 162.176C141.02 162.176 140.249 161.912 139.646 161.385C139.048 160.852 138.749 160.178 138.749 159.363C138.749 158.373 139.124 157.605 139.874 157.061C140.63 156.51 141.69 156.234 143.056 156.234H144.638V155.487C144.638 154.919 144.468 154.468 144.128 154.134C143.788 153.794 143.287 153.624 142.625 153.624C142.045 153.624 141.559 153.771 141.166 154.063C140.773 154.356 140.577 154.711 140.577 155.127H138.942C138.942 154.652 139.109 154.195 139.443 153.756C139.783 153.311 140.24 152.959 140.814 152.701C141.395 152.443 142.03 152.314 142.722 152.314C143.817 152.314 144.676 152.59 145.297 153.141C145.918 153.686 146.24 154.438 146.264 155.399V159.776C146.264 160.649 146.375 161.344 146.598 161.859V162H144.893ZM142.194 160.761C142.704 160.761 143.188 160.629 143.645 160.365C144.102 160.102 144.433 159.759 144.638 159.337V157.386H143.363C141.371 157.386 140.375 157.969 140.375 159.135C140.375 159.645 140.545 160.043 140.885 160.33C141.225 160.617 141.661 160.761 142.194 160.761ZM150.579 162H148.953V148.5H150.579V162ZM153.225 161.147C153.225 160.866 153.307 160.632 153.471 160.444C153.641 160.257 153.893 160.163 154.227 160.163C154.561 160.163 154.812 160.257 154.982 160.444C155.158 160.632 155.246 160.866 155.246 161.147C155.246 161.417 155.158 161.643 154.982 161.824C154.812 162.006 154.561 162.097 154.227 162.097C153.893 162.097 153.641 162.006 153.471 161.824C153.307 161.643 153.225 161.417 153.225 161.147Z" fill="black"/>
<rect id="earnedTotal" x="85" y="102" width="33" height="20" fill="white"/>
<rect id="moneyTotal" x="45" y="146" width="47" height="20" fill="white"/>
</g>
</svg>
