<svg width="249" height="373" viewBox="0 0 249 373" fill="none" xmlns="http://www.w3.org/2000/svg">
<g id="y3Action">
<rect id="back" x="1.5" y="1.5" width="246" height="370" fill="white" stroke="#E5E5E5" stroke-width="3"/>
<g id="Group 54">
<rect id="jumpToTrading" x="14.5" y="65.5" width="145" height="51" fill="white" stroke="#2B2E55"/>
<path id="Modify or Input new value above on the trading area" d="M21.647 69.7578L24.6685 77.2988L27.6899 69.7578H29.2705V79H28.0518V75.4009L28.166 71.5161L25.1318 79H24.1987L21.1709 71.5352L21.2915 75.4009V79H20.0728V69.7578H21.647ZM30.9272 75.5024C30.9272 74.8296 31.0584 74.2244 31.3208 73.687C31.5874 73.1496 31.9556 72.7349 32.4253 72.4429C32.8993 72.1509 33.4388 72.0049 34.0439 72.0049C34.9792 72.0049 35.7345 72.3286 36.3101 72.9761C36.8898 73.6235 37.1797 74.4847 37.1797 75.5596V75.6421C37.1797 76.3107 37.0506 76.9116 36.7925 77.4448C36.5386 77.9738 36.1725 78.3864 35.6943 78.6826C35.2204 78.9788 34.6745 79.127 34.0566 79.127C33.1257 79.127 32.3703 78.8032 31.7905 78.1558C31.215 77.5083 30.9272 76.6514 30.9272 75.585V75.5024ZM32.1079 75.6421C32.1079 76.4038 32.2835 77.0153 32.6348 77.4766C32.9902 77.9378 33.4642 78.1685 34.0566 78.1685C34.6533 78.1685 35.1273 77.9357 35.4785 77.4702C35.8298 77.0005 36.0054 76.3446 36.0054 75.5024C36.0054 74.7492 35.8255 74.1398 35.4658 73.6743C35.1104 73.2046 34.6364 72.9697 34.0439 72.9697C33.4642 72.9697 32.9966 73.2004 32.6411 73.6616C32.2856 74.1229 32.1079 74.783 32.1079 75.6421ZM38.3667 75.5088C38.3667 74.4551 38.6164 73.6087 39.1157 72.9697C39.6151 72.3265 40.2689 72.0049 41.0771 72.0049C41.8812 72.0049 42.5181 72.2799 42.9878 72.8301V69.25H44.1621V79H43.083L43.0259 78.2637C42.5562 78.8392 41.9023 79.127 41.0645 79.127C40.2689 79.127 39.6193 78.8011 39.1157 78.1494C38.6164 77.4977 38.3667 76.6471 38.3667 75.5977V75.5088ZM39.541 75.6421C39.541 76.4207 39.7018 77.0301 40.0234 77.4702C40.3451 77.9103 40.7894 78.1304 41.3564 78.1304C42.1012 78.1304 42.645 77.7961 42.9878 77.1274V73.9727C42.6366 73.3252 42.097 73.0015 41.3691 73.0015C40.7936 73.0015 40.3451 73.2236 40.0234 73.668C39.7018 74.1123 39.541 74.7703 39.541 75.6421ZM47.2661 79H46.0918V72.1318H47.2661V79ZM45.9966 70.3101C45.9966 70.1196 46.0537 69.9588 46.168 69.8276C46.2865 69.6965 46.46 69.6309 46.6885 69.6309C46.917 69.6309 47.0905 69.6965 47.209 69.8276C47.3275 69.9588 47.3867 70.1196 47.3867 70.3101C47.3867 70.5005 47.3275 70.6592 47.209 70.7861C47.0905 70.9131 46.917 70.9766 46.6885 70.9766C46.46 70.9766 46.2865 70.9131 46.168 70.7861C46.0537 70.6592 45.9966 70.5005 45.9966 70.3101ZM49.729 79V73.0396H48.6436V72.1318H49.729V71.4272C49.729 70.6909 49.9258 70.1217 50.3193 69.7197C50.7129 69.3177 51.2694 69.1167 51.9888 69.1167C52.2596 69.1167 52.5283 69.1527 52.7949 69.2246L52.7314 70.1768C52.5326 70.1387 52.321 70.1196 52.0967 70.1196C51.7158 70.1196 51.4217 70.2318 51.2144 70.4561C51.007 70.6761 50.9033 70.9935 50.9033 71.4082V72.1318H52.3696V73.0396H50.9033V79H49.729ZM55.918 77.2798L57.5176 72.1318H58.7744L56.0132 80.0601C55.5858 81.2026 54.9066 81.7739 53.9756 81.7739L53.7534 81.7549L53.3154 81.6724V80.7202L53.6328 80.7456C54.0306 80.7456 54.3395 80.6652 54.5596 80.5044C54.7839 80.3436 54.9679 80.0495 55.1118 79.6221L55.3721 78.9238L52.9219 72.1318H54.2041L55.918 77.2798ZM62.7417 75.5024C62.7417 74.8296 62.8729 74.2244 63.1353 73.687C63.4019 73.1496 63.77 72.7349 64.2397 72.4429C64.7137 72.1509 65.2533 72.0049 65.8584 72.0049C66.7936 72.0049 67.549 72.3286 68.1245 72.9761C68.7043 73.6235 68.9941 74.4847 68.9941 75.5596V75.6421C68.9941 76.3107 68.8651 76.9116 68.6069 77.4448C68.353 77.9738 67.987 78.3864 67.5088 78.6826C67.0348 78.9788 66.4889 79.127 65.8711 79.127C64.9401 79.127 64.1847 78.8032 63.605 78.1558C63.0295 77.5083 62.7417 76.6514 62.7417 75.585V75.5024ZM63.9224 75.6421C63.9224 76.4038 64.098 77.0153 64.4492 77.4766C64.8047 77.9378 65.2786 78.1685 65.8711 78.1685C66.4678 78.1685 66.9417 77.9357 67.293 77.4702C67.6442 77.0005 67.8198 76.3446 67.8198 75.5024C67.8198 74.7492 67.64 74.1398 67.2803 73.6743C66.9248 73.2046 66.4508 72.9697 65.8584 72.9697C65.2786 72.9697 64.811 73.2004 64.4556 73.6616C64.1001 74.1229 63.9224 74.783 63.9224 75.6421ZM73.7866 73.1855C73.6089 73.1559 73.4163 73.1411 73.209 73.1411C72.4388 73.1411 71.9162 73.4691 71.6411 74.125V79H70.4668V72.1318H71.6094L71.6284 72.9253C72.0135 72.3117 72.5594 72.0049 73.2661 72.0049C73.4946 72.0049 73.6681 72.0345 73.7866 72.0938V73.1855ZM79.5884 79H78.3696V69.7578H79.5884V79ZM82.7495 72.1318L82.7876 72.9951C83.3123 72.335 83.9979 72.0049 84.8442 72.0049C86.2957 72.0049 87.0278 72.8237 87.0405 74.4614V79H85.8662V74.4551C85.862 73.96 85.7477 73.5939 85.5234 73.3569C85.3034 73.12 84.9585 73.0015 84.4888 73.0015C84.1079 73.0015 83.7736 73.103 83.4858 73.3062C83.1981 73.5093 82.9738 73.7759 82.813 74.106V79H81.6387V72.1318H82.7495ZM94.6133 75.6421C94.6133 76.6873 94.3742 77.5295 93.896 78.1685C93.4178 78.8075 92.7703 79.127 91.9536 79.127C91.12 79.127 90.464 78.8625 89.9858 78.3335V81.6406H88.8115V72.1318H89.8843L89.9414 72.8936C90.4196 72.3011 91.084 72.0049 91.9346 72.0049C92.7598 72.0049 93.4115 72.3159 93.8896 72.938C94.3721 73.5601 94.6133 74.4255 94.6133 75.5342V75.6421ZM93.439 75.5088C93.439 74.7344 93.2739 74.1229 92.9438 73.6743C92.6138 73.2257 92.161 73.0015 91.5854 73.0015C90.8745 73.0015 90.3413 73.3167 89.9858 73.9473V77.229C90.3371 77.8553 90.8745 78.1685 91.5981 78.1685C92.161 78.1685 92.6074 77.9463 92.9375 77.502C93.2718 77.0534 93.439 76.389 93.439 75.5088ZM100.352 78.3208C99.8945 78.8582 99.2238 79.127 98.3394 79.127C97.6073 79.127 97.0487 78.9154 96.6636 78.4922C96.2827 78.0648 96.0902 77.4342 96.0859 76.6006V72.1318H97.2603V76.5688C97.2603 77.6099 97.6834 78.1304 98.5298 78.1304C99.4269 78.1304 100.024 77.7961 100.32 77.1274V72.1318H101.494V79H100.377L100.352 78.3208ZM104.877 70.4688V72.1318H106.16V73.0396H104.877V77.2988C104.877 77.5739 104.935 77.7812 105.049 77.9209C105.163 78.0563 105.358 78.124 105.633 78.124C105.768 78.124 105.954 78.0986 106.191 78.0479V79C105.882 79.0846 105.582 79.127 105.29 79.127C104.765 79.127 104.37 78.9683 104.103 78.6509C103.836 78.3335 103.703 77.8828 103.703 77.2988V73.0396H102.453V72.1318H103.703V70.4688H104.877ZM111.873 72.1318L111.911 72.9951C112.435 72.335 113.121 72.0049 113.967 72.0049C115.419 72.0049 116.151 72.8237 116.164 74.4614V79H114.989V74.4551C114.985 73.96 114.871 73.5939 114.646 73.3569C114.426 73.12 114.082 73.0015 113.612 73.0015C113.231 73.0015 112.897 73.103 112.609 73.3062C112.321 73.5093 112.097 73.7759 111.936 74.106V79H110.762V72.1318H111.873ZM120.785 79.127C119.854 79.127 119.096 78.8223 118.512 78.2129C117.928 77.5993 117.636 76.7804 117.636 75.7563V75.5405C117.636 74.8592 117.765 74.252 118.023 73.7188C118.286 73.1813 118.65 72.7624 119.115 72.4619C119.585 72.1572 120.093 72.0049 120.639 72.0049C121.532 72.0049 122.226 72.299 122.721 72.8872C123.216 73.4754 123.463 74.3175 123.463 75.4136V75.9023H118.811C118.827 76.5794 119.024 77.1274 119.401 77.5464C119.782 77.9611 120.264 78.1685 120.848 78.1685C121.263 78.1685 121.614 78.0838 121.902 77.9146C122.19 77.7453 122.441 77.521 122.657 77.2417L123.375 77.8003C122.799 78.6847 121.936 79.127 120.785 79.127ZM120.639 72.9697C120.165 72.9697 119.767 73.1432 119.445 73.4902C119.124 73.833 118.925 74.3154 118.849 74.9375H122.289V74.8486C122.255 74.252 122.094 73.7907 121.807 73.4648C121.519 73.1348 121.13 72.9697 120.639 72.9697ZM130.909 77.3813L132.229 72.1318H133.404L131.404 79H130.452L128.783 73.7949L127.158 79H126.206L124.212 72.1318H125.38L126.732 77.2734L128.332 72.1318H129.278L130.909 77.3813ZM22.1548 92.4067L23.856 87.1318H25.0557L22.5928 94H21.6978L19.2095 87.1318H20.4092L22.1548 92.4067ZM30.3242 94C30.2565 93.8646 30.2015 93.6234 30.1592 93.2764C29.6133 93.8434 28.9616 94.127 28.2041 94.127C27.527 94.127 26.9705 93.9365 26.5347 93.5557C26.103 93.1706 25.8872 92.6839 25.8872 92.0957C25.8872 91.3805 26.158 90.8262 26.6997 90.4326C27.2456 90.0348 28.0116 89.8359 28.9976 89.8359H30.1401V89.2964C30.1401 88.8859 30.0174 88.5601 29.772 88.3188C29.5265 88.0734 29.1647 87.9507 28.6865 87.9507C28.2676 87.9507 27.9163 88.0565 27.6328 88.2681C27.3493 88.4797 27.2075 88.7357 27.2075 89.0361H26.0269C26.0269 88.6934 26.1475 88.3633 26.3887 88.0459C26.6341 87.7243 26.9642 87.4704 27.3789 87.2842C27.7979 87.098 28.257 87.0049 28.7563 87.0049C29.5477 87.0049 30.1676 87.2038 30.6162 87.6016C31.0648 87.9951 31.2975 88.5389 31.3145 89.2329V92.394C31.3145 93.0246 31.3949 93.526 31.5557 93.8984V94H30.3242ZM28.3755 93.105C28.7437 93.105 29.0928 93.0098 29.4229 92.8193C29.7529 92.6289 29.992 92.3813 30.1401 92.0767V90.6675H29.2197C27.7809 90.6675 27.0615 91.0885 27.0615 91.9307C27.0615 92.2988 27.1842 92.5866 27.4297 92.7939C27.6751 93.0013 27.9904 93.105 28.3755 93.105ZM34.4312 94H33.2568V84.25H34.4312V94ZM40.5566 93.3208C40.0996 93.8582 39.4289 94.127 38.5444 94.127C37.8123 94.127 37.2537 93.9154 36.8687 93.4922C36.4878 93.0648 36.2952 92.4342 36.291 91.6006V87.1318H37.4653V91.5688C37.4653 92.6099 37.8885 93.1304 38.7349 93.1304C39.632 93.1304 40.2287 92.7961 40.5249 92.1274V87.1318H41.6992V94H40.582L40.5566 93.3208ZM46.3394 94.127C45.4084 94.127 44.6509 93.8223 44.0669 93.2129C43.4829 92.5993 43.1909 91.7804 43.1909 90.7563V90.5405C43.1909 89.8592 43.32 89.252 43.5781 88.7188C43.8405 88.1813 44.2044 87.7624 44.6699 87.4619C45.1396 87.1572 45.6475 87.0049 46.1934 87.0049C47.0863 87.0049 47.7803 87.299 48.2754 87.8872C48.7705 88.4754 49.0181 89.3175 49.0181 90.4136V90.9023H44.3652C44.3822 91.5794 44.5789 92.1274 44.9556 92.5464C45.3364 92.9611 45.8188 93.1685 46.4028 93.1685C46.8175 93.1685 47.1688 93.0838 47.4565 92.9146C47.7443 92.7453 47.9961 92.521 48.2119 92.2417L48.9292 92.8003C48.3537 93.6847 47.4904 94.127 46.3394 94.127ZM46.1934 87.9697C45.7194 87.9697 45.3216 88.1432 45 88.4902C44.6784 88.833 44.4795 89.3154 44.4033 89.9375H47.8438V89.8486C47.8099 89.252 47.6491 88.7907 47.3613 88.4648C47.0736 88.1348 46.6842 87.9697 46.1934 87.9697ZM57.8477 94C57.7799 93.8646 57.7249 93.6234 57.6826 93.2764C57.1367 93.8434 56.485 94.127 55.7275 94.127C55.0505 94.127 54.494 93.9365 54.0581 93.5557C53.6265 93.1706 53.4106 92.6839 53.4106 92.0957C53.4106 91.3805 53.6815 90.8262 54.2231 90.4326C54.769 90.0348 55.535 89.8359 56.521 89.8359H57.6636V89.2964C57.6636 88.8859 57.5409 88.5601 57.2954 88.3188C57.05 88.0734 56.6882 87.9507 56.21 87.9507C55.791 87.9507 55.4398 88.0565 55.1562 88.2681C54.8727 88.4797 54.731 88.7357 54.731 89.0361H53.5503C53.5503 88.6934 53.6709 88.3633 53.9121 88.0459C54.1576 87.7243 54.4876 87.4704 54.9023 87.2842C55.3213 87.098 55.7804 87.0049 56.2798 87.0049C57.0711 87.0049 57.6911 87.2038 58.1396 87.6016C58.5882 87.9951 58.821 88.5389 58.8379 89.2329V92.394C58.8379 93.0246 58.9183 93.526 59.0791 93.8984V94H57.8477ZM55.8989 93.105C56.2671 93.105 56.6162 93.0098 56.9463 92.8193C57.2764 92.6289 57.5155 92.3813 57.6636 92.0767V90.6675H56.7432C55.3044 90.6675 54.585 91.0885 54.585 91.9307C54.585 92.2988 54.7077 92.5866 54.9531 92.7939C55.1986 93.0013 55.5138 93.105 55.8989 93.105ZM66.4932 90.6421C66.4932 91.6916 66.252 92.5358 65.7695 93.1748C65.2871 93.8096 64.6396 94.127 63.8271 94.127C62.9596 94.127 62.2889 93.8201 61.8149 93.2065L61.7578 94H60.6787V84.25H61.853V87.8872C62.327 87.299 62.9808 87.0049 63.8145 87.0049C64.6481 87.0049 65.3019 87.3201 65.7759 87.9507C66.2541 88.5812 66.4932 89.4445 66.4932 90.5405V90.6421ZM65.3188 90.5088C65.3188 89.709 65.1644 89.0911 64.8555 88.6553C64.5465 88.2194 64.1022 88.0015 63.5225 88.0015C62.748 88.0015 62.1916 88.3612 61.853 89.0806V92.0513C62.2127 92.7707 62.7734 93.1304 63.5352 93.1304C64.098 93.1304 64.536 92.9124 64.8491 92.4766C65.1623 92.0407 65.3188 91.3848 65.3188 90.5088ZM67.6675 90.5024C67.6675 89.8296 67.7987 89.2244 68.061 88.687C68.3276 88.1496 68.6958 87.7349 69.1655 87.4429C69.6395 87.1509 70.179 87.0049 70.7842 87.0049C71.7194 87.0049 72.4748 87.3286 73.0503 87.9761C73.63 88.6235 73.9199 89.4847 73.9199 90.5596V90.6421C73.9199 91.3107 73.7909 91.9116 73.5327 92.4448C73.2788 92.9738 72.9128 93.3864 72.4346 93.6826C71.9606 93.9788 71.4147 94.127 70.7969 94.127C69.8659 94.127 69.1105 93.8032 68.5308 93.1558C67.9552 92.5083 67.6675 91.6514 67.6675 90.585V90.5024ZM68.8481 90.6421C68.8481 91.4038 69.0238 92.0153 69.375 92.4766C69.7305 92.9378 70.2044 93.1685 70.7969 93.1685C71.3936 93.1685 71.8675 92.9357 72.2188 92.4702C72.57 92.0005 72.7456 91.3446 72.7456 90.5024C72.7456 89.7492 72.5658 89.1398 72.2061 88.6743C71.8506 88.2046 71.3766 87.9697 70.7842 87.9697C70.2044 87.9697 69.7368 88.2004 69.3813 88.6616C69.0259 89.1229 68.8481 89.783 68.8481 90.6421ZM77.5571 92.4067L79.2583 87.1318H80.458L77.9951 94H77.1001L74.6118 87.1318H75.8115L77.5571 92.4067ZM84.3491 94.127C83.4181 94.127 82.6606 93.8223 82.0767 93.2129C81.4927 92.5993 81.2007 91.7804 81.2007 90.7563V90.5405C81.2007 89.8592 81.3298 89.252 81.5879 88.7188C81.8503 88.1813 82.2142 87.7624 82.6797 87.4619C83.1494 87.1572 83.6572 87.0049 84.2031 87.0049C85.096 87.0049 85.79 87.299 86.2852 87.8872C86.7803 88.4754 87.0278 89.3175 87.0278 90.4136V90.9023H82.375C82.3919 91.5794 82.5887 92.1274 82.9653 92.5464C83.3462 92.9611 83.8286 93.1685 84.4126 93.1685C84.8273 93.1685 85.1785 93.0838 85.4663 92.9146C85.7541 92.7453 86.0059 92.521 86.2217 92.2417L86.939 92.8003C86.3634 93.6847 85.5002 94.127 84.3491 94.127ZM84.2031 87.9697C83.7292 87.9697 83.3314 88.1432 83.0098 88.4902C82.6882 88.833 82.4893 89.3154 82.4131 89.9375H85.8535V89.8486C85.8197 89.252 85.6589 88.7907 85.3711 88.4648C85.0833 88.1348 84.694 87.9697 84.2031 87.9697ZM91.3062 90.5024C91.3062 89.8296 91.4373 89.2244 91.6997 88.687C91.9663 88.1496 92.3345 87.7349 92.8042 87.4429C93.2782 87.1509 93.8177 87.0049 94.4229 87.0049C95.3581 87.0049 96.1134 87.3286 96.689 87.9761C97.2687 88.6235 97.5586 89.4847 97.5586 90.5596V90.6421C97.5586 91.3107 97.4295 91.9116 97.1714 92.4448C96.9175 92.9738 96.5514 93.3864 96.0732 93.6826C95.5993 93.9788 95.0534 94.127 94.4355 94.127C93.5046 94.127 92.7492 93.8032 92.1694 93.1558C91.5939 92.5083 91.3062 91.6514 91.3062 90.585V90.5024ZM92.4868 90.6421C92.4868 91.4038 92.6624 92.0153 93.0137 92.4766C93.3691 92.9378 93.8431 93.1685 94.4355 93.1685C95.0322 93.1685 95.5062 92.9357 95.8574 92.4702C96.2087 92.0005 96.3843 91.3446 96.3843 90.5024C96.3843 89.7492 96.2044 89.1398 95.8447 88.6743C95.4893 88.2046 95.0153 87.9697 94.4229 87.9697C93.8431 87.9697 93.3755 88.2004 93.02 88.6616C92.6646 89.1229 92.4868 89.783 92.4868 90.6421ZM100.142 87.1318L100.18 87.9951C100.705 87.335 101.39 87.0049 102.237 87.0049C103.688 87.0049 104.42 87.8237 104.433 89.4614V94H103.259V89.4551C103.255 88.96 103.14 88.5939 102.916 88.3569C102.696 88.12 102.351 88.0015 101.881 88.0015C101.5 88.0015 101.166 88.103 100.878 88.3062C100.591 88.5093 100.366 88.7759 100.206 89.106V94H99.0312V87.1318H100.142ZM111.022 85.4688V87.1318H112.304V88.0396H111.022V92.2988C111.022 92.5739 111.079 92.7812 111.193 92.9209C111.308 93.0563 111.502 93.124 111.777 93.124C111.913 93.124 112.099 93.0986 112.336 93.0479V94C112.027 94.0846 111.727 94.127 111.435 94.127C110.91 94.127 110.514 93.9683 110.248 93.6509C109.981 93.3335 109.848 92.8828 109.848 92.2988V88.0396H108.597V87.1318H109.848V85.4688H111.022ZM114.856 87.9634C115.376 87.3244 116.054 87.0049 116.887 87.0049C118.339 87.0049 119.071 87.8237 119.083 89.4614V94H117.909V89.4551C117.905 88.96 117.791 88.5939 117.566 88.3569C117.346 88.12 117.001 88.0015 116.532 88.0015C116.151 88.0015 115.817 88.103 115.529 88.3062C115.241 88.5093 115.017 88.7759 114.856 89.106V94H113.682V84.25H114.856V87.9634ZM123.692 94.127C122.761 94.127 122.003 93.8223 121.419 93.2129C120.835 92.5993 120.543 91.7804 120.543 90.7563V90.5405C120.543 89.8592 120.673 89.252 120.931 88.7188C121.193 88.1813 121.557 87.7624 122.022 87.4619C122.492 87.1572 123 87.0049 123.546 87.0049C124.439 87.0049 125.133 87.299 125.628 87.8872C126.123 88.4754 126.371 89.3175 126.371 90.4136V90.9023H121.718C121.735 91.5794 121.931 92.1274 122.308 92.5464C122.689 92.9611 123.171 93.1685 123.755 93.1685C124.17 93.1685 124.521 93.0838 124.809 92.9146C125.097 92.7453 125.349 92.521 125.564 92.2417L126.282 92.8003C125.706 93.6847 124.843 94.127 123.692 94.127ZM123.546 87.9697C123.072 87.9697 122.674 88.1432 122.353 88.4902C122.031 88.833 121.832 89.3154 121.756 89.9375H125.196V89.8486C125.162 89.252 125.002 88.7907 124.714 88.4648C124.426 88.1348 124.037 87.9697 123.546 87.9697ZM21.4819 100.469V102.132H22.7642V103.04H21.4819V107.299C21.4819 107.574 21.5391 107.781 21.6533 107.921C21.7676 108.056 21.9622 108.124 22.2373 108.124C22.3727 108.124 22.5589 108.099 22.7959 108.048V109C22.487 109.085 22.1865 109.127 21.8945 109.127C21.3698 109.127 20.9741 108.968 20.7075 108.651C20.4409 108.333 20.3076 107.883 20.3076 107.299V103.04H19.0571V102.132H20.3076V100.469H21.4819ZM27.4614 103.186C27.2837 103.156 27.0911 103.141 26.8838 103.141C26.1136 103.141 25.591 103.469 25.3159 104.125V109H24.1416V102.132H25.2842L25.3032 102.925C25.6883 102.312 26.2342 102.005 26.9409 102.005C27.1694 102.005 27.3429 102.035 27.4614 102.094V103.186ZM32.5332 109C32.4655 108.865 32.4105 108.623 32.3682 108.276C31.8223 108.843 31.1706 109.127 30.4131 109.127C29.736 109.127 29.1795 108.937 28.7437 108.556C28.312 108.171 28.0962 107.684 28.0962 107.096C28.0962 106.381 28.367 105.826 28.9087 105.433C29.4546 105.035 30.2205 104.836 31.2065 104.836H32.3491V104.296C32.3491 103.886 32.2264 103.56 31.981 103.319C31.7355 103.073 31.3737 102.951 30.8955 102.951C30.4766 102.951 30.1253 103.056 29.8418 103.268C29.5583 103.48 29.4165 103.736 29.4165 104.036H28.2358C28.2358 103.693 28.3564 103.363 28.5977 103.046C28.8431 102.724 29.1732 102.47 29.5879 102.284C30.0068 102.098 30.466 102.005 30.9653 102.005C31.7567 102.005 32.3766 102.204 32.8252 102.602C33.2738 102.995 33.5065 103.539 33.5234 104.233V107.394C33.5234 108.025 33.6038 108.526 33.7646 108.898V109H32.5332ZM30.5845 108.105C30.9526 108.105 31.3018 108.01 31.6318 107.819C31.9619 107.629 32.201 107.381 32.3491 107.077V105.667H31.4287C29.9899 105.667 29.2705 106.089 29.2705 106.931C29.2705 107.299 29.3932 107.587 29.6387 107.794C29.8841 108.001 30.1994 108.105 30.5845 108.105ZM35.0786 105.509C35.0786 104.455 35.3283 103.609 35.8276 102.97C36.327 102.326 36.9808 102.005 37.7891 102.005C38.5931 102.005 39.23 102.28 39.6997 102.83V99.25H40.874V109H39.7949L39.7378 108.264C39.2681 108.839 38.6143 109.127 37.7764 109.127C36.9808 109.127 36.3312 108.801 35.8276 108.149C35.3283 107.498 35.0786 106.647 35.0786 105.598V105.509ZM36.2529 105.642C36.2529 106.421 36.4137 107.03 36.7354 107.47C37.057 107.91 37.5013 108.13 38.0684 108.13C38.8132 108.13 39.3569 107.796 39.6997 107.127V103.973C39.3485 103.325 38.8089 103.001 38.0811 103.001C37.5055 103.001 37.057 103.224 36.7354 103.668C36.4137 104.112 36.2529 104.77 36.2529 105.642ZM43.978 109H42.8037V102.132H43.978V109ZM42.7085 100.31C42.7085 100.12 42.7656 99.9588 42.8799 99.8276C42.9984 99.6965 43.1719 99.6309 43.4004 99.6309C43.6289 99.6309 43.8024 99.6965 43.9209 99.8276C44.0394 99.9588 44.0986 100.12 44.0986 100.31C44.0986 100.5 44.0394 100.659 43.9209 100.786C43.8024 100.913 43.6289 100.977 43.4004 100.977C43.1719 100.977 42.9984 100.913 42.8799 100.786C42.7656 100.659 42.7085 100.5 42.7085 100.31ZM46.9741 102.132L47.0122 102.995C47.5369 102.335 48.2225 102.005 49.0688 102.005C50.5203 102.005 51.2524 102.824 51.2651 104.461V109H50.0908V104.455C50.0866 103.96 49.9723 103.594 49.748 103.357C49.528 103.12 49.1831 103.001 48.7134 103.001C48.3325 103.001 47.9982 103.103 47.7104 103.306C47.4227 103.509 47.1984 103.776 47.0376 104.106V109H45.8633V102.132H46.9741ZM52.7568 105.509C52.7568 104.438 53.0044 103.588 53.4995 102.957C53.9946 102.322 54.6506 102.005 55.4673 102.005C56.3052 102.005 56.959 102.301 57.4287 102.894L57.4858 102.132H58.5586V108.835C58.5586 109.724 58.2941 110.424 57.7651 110.936C57.2404 111.448 56.5337 111.704 55.645 111.704C55.1499 111.704 54.6654 111.598 54.1914 111.387C53.7174 111.175 53.3556 110.885 53.106 110.517L53.7153 109.812C54.2189 110.435 54.8346 110.746 55.5625 110.746C56.1338 110.746 56.5781 110.585 56.8955 110.263C57.2171 109.942 57.3779 109.489 57.3779 108.905V108.314C56.9082 108.856 56.2671 109.127 55.4546 109.127C54.6506 109.127 53.9989 108.803 53.4995 108.156C53.0044 107.508 52.7568 106.626 52.7568 105.509ZM53.9375 105.642C53.9375 106.417 54.0962 107.026 54.4136 107.47C54.731 107.91 55.1753 108.13 55.7466 108.13C56.4871 108.13 57.0309 107.794 57.3779 107.121V103.985C57.0182 103.329 56.4787 103.001 55.7593 103.001C55.188 103.001 54.7415 103.224 54.4199 103.668C54.0983 104.112 53.9375 104.77 53.9375 105.642ZM67.8008 109C67.7331 108.865 67.6781 108.623 67.6357 108.276C67.0898 108.843 66.4382 109.127 65.6807 109.127C65.0036 109.127 64.4471 108.937 64.0112 108.556C63.5796 108.171 63.3638 107.684 63.3638 107.096C63.3638 106.381 63.6346 105.826 64.1763 105.433C64.7222 105.035 65.4881 104.836 66.4741 104.836H67.6167V104.296C67.6167 103.886 67.494 103.56 67.2485 103.319C67.0031 103.073 66.6413 102.951 66.1631 102.951C65.7441 102.951 65.3929 103.056 65.1094 103.268C64.8258 103.48 64.6841 103.736 64.6841 104.036H63.5034C63.5034 103.693 63.624 103.363 63.8652 103.046C64.1107 102.724 64.4408 102.47 64.8555 102.284C65.2744 102.098 65.7336 102.005 66.2329 102.005C67.0243 102.005 67.6442 102.204 68.0928 102.602C68.5413 102.995 68.7741 103.539 68.791 104.233V107.394C68.791 108.025 68.8714 108.526 69.0322 108.898V109H67.8008ZM65.8521 108.105C66.2202 108.105 66.5693 108.01 66.8994 107.819C67.2295 107.629 67.4686 107.381 67.6167 107.077V105.667H66.6963C65.2575 105.667 64.5381 106.089 64.5381 106.931C64.5381 107.299 64.6608 107.587 64.9062 107.794C65.1517 108.001 65.467 108.105 65.8521 108.105ZM73.9517 103.186C73.7739 103.156 73.5814 103.141 73.374 103.141C72.6038 103.141 72.0812 103.469 71.8062 104.125V109H70.6318V102.132H71.7744L71.7935 102.925C72.1785 102.312 72.7244 102.005 73.4312 102.005C73.6597 102.005 73.8332 102.035 73.9517 102.094V103.186ZM77.7603 109.127C76.8293 109.127 76.0718 108.822 75.4878 108.213C74.9038 107.599 74.6118 106.78 74.6118 105.756V105.541C74.6118 104.859 74.7409 104.252 74.999 103.719C75.2614 103.181 75.6253 102.762 76.0908 102.462C76.5605 102.157 77.0684 102.005 77.6143 102.005C78.5072 102.005 79.2012 102.299 79.6963 102.887C80.1914 103.475 80.439 104.318 80.439 105.414V105.902H75.7861C75.8031 106.579 75.9998 107.127 76.3765 107.546C76.7573 107.961 77.2397 108.168 77.8237 108.168C78.2384 108.168 78.5897 108.084 78.8774 107.915C79.1652 107.745 79.417 107.521 79.6328 107.242L80.3501 107.8C79.7746 108.685 78.9113 109.127 77.7603 109.127ZM77.6143 102.97C77.1403 102.97 76.7425 103.143 76.4209 103.49C76.0993 103.833 75.9004 104.315 75.8242 104.938H79.2646V104.849C79.2308 104.252 79.07 103.791 78.7822 103.465C78.4945 103.135 78.1051 102.97 77.6143 102.97ZM86.0439 109C85.9762 108.865 85.9212 108.623 85.8789 108.276C85.333 108.843 84.6813 109.127 83.9238 109.127C83.2467 109.127 82.6903 108.937 82.2544 108.556C81.8228 108.171 81.6069 107.684 81.6069 107.096C81.6069 106.381 81.8778 105.826 82.4194 105.433C82.9653 105.035 83.7313 104.836 84.7173 104.836H85.8599V104.296C85.8599 103.886 85.7371 103.56 85.4917 103.319C85.2463 103.073 84.8844 102.951 84.4062 102.951C83.9873 102.951 83.6361 103.056 83.3525 103.268C83.069 103.48 82.9272 103.736 82.9272 104.036H81.7466C81.7466 103.693 81.8672 103.363 82.1084 103.046C82.3538 102.724 82.6839 102.47 83.0986 102.284C83.5176 102.098 83.9767 102.005 84.4761 102.005C85.2674 102.005 85.8874 102.204 86.3359 102.602C86.7845 102.995 87.0173 103.539 87.0342 104.233V107.394C87.0342 108.025 87.1146 108.526 87.2754 108.898V109H86.0439ZM84.0952 108.105C84.4634 108.105 84.8125 108.01 85.1426 107.819C85.4727 107.629 85.7118 107.381 85.8599 107.077V105.667H84.9395C83.5007 105.667 82.7812 106.089 82.7812 106.931C82.7812 107.299 82.904 107.587 83.1494 107.794C83.3949 108.001 83.7101 108.105 84.0952 108.105Z" fill="#2B2E55"/>
<rect id="Rectangle 134" x="123.5" y="132.5" width="78" height="20" stroke="#2B2E55"/>
<path id="...then click" d="M133.914 145.384C133.914 145.181 133.973 145.012 134.092 144.876C134.215 144.741 134.396 144.673 134.638 144.673C134.879 144.673 135.061 144.741 135.184 144.876C135.311 145.012 135.374 145.181 135.374 145.384C135.374 145.579 135.311 145.742 135.184 145.873C135.061 146.004 134.879 146.07 134.638 146.07C134.396 146.07 134.215 146.004 134.092 145.873C133.973 145.742 133.914 145.579 133.914 145.384ZM137.342 145.384C137.342 145.181 137.401 145.012 137.52 144.876C137.642 144.741 137.824 144.673 138.065 144.673C138.307 144.673 138.489 144.741 138.611 144.876C138.738 145.012 138.802 145.181 138.802 145.384C138.802 145.579 138.738 145.742 138.611 145.873C138.489 146.004 138.307 146.07 138.065 146.07C137.824 146.07 137.642 146.004 137.52 145.873C137.401 145.742 137.342 145.579 137.342 145.384ZM140.77 145.384C140.77 145.181 140.829 145.012 140.947 144.876C141.07 144.741 141.252 144.673 141.493 144.673C141.734 144.673 141.916 144.741 142.039 144.876C142.166 145.012 142.229 145.181 142.229 145.384C142.229 145.579 142.166 145.742 142.039 145.873C141.916 146.004 141.734 146.07 141.493 146.07C141.252 146.07 141.07 146.004 140.947 145.873C140.829 145.742 140.77 145.579 140.77 145.384ZM145.765 137.469V139.132H147.047V140.04H145.765V144.299C145.765 144.574 145.822 144.781 145.937 144.921C146.051 145.056 146.245 145.124 146.521 145.124C146.656 145.124 146.842 145.099 147.079 145.048V146C146.77 146.085 146.47 146.127 146.178 146.127C145.653 146.127 145.257 145.968 144.991 145.651C144.724 145.333 144.591 144.883 144.591 144.299V140.04H143.34V139.132H144.591V137.469H145.765ZM149.599 139.963C150.12 139.324 150.797 139.005 151.63 139.005C153.082 139.005 153.814 139.824 153.827 141.461V146H152.652V141.455C152.648 140.96 152.534 140.594 152.31 140.357C152.09 140.12 151.745 140.001 151.275 140.001C150.894 140.001 150.56 140.103 150.272 140.306C149.984 140.509 149.76 140.776 149.599 141.106V146H148.425V136.25H149.599V139.963ZM158.435 146.127C157.504 146.127 156.747 145.822 156.163 145.213C155.579 144.599 155.287 143.78 155.287 142.756V142.541C155.287 141.859 155.416 141.252 155.674 140.719C155.936 140.181 156.3 139.762 156.766 139.462C157.235 139.157 157.743 139.005 158.289 139.005C159.182 139.005 159.876 139.299 160.371 139.887C160.866 140.475 161.114 141.318 161.114 142.414V142.902H156.461C156.478 143.579 156.675 144.127 157.051 144.546C157.432 144.961 157.915 145.168 158.499 145.168C158.913 145.168 159.264 145.084 159.552 144.915C159.84 144.745 160.092 144.521 160.308 144.242L161.025 144.8C160.449 145.685 159.586 146.127 158.435 146.127ZM158.289 139.97C157.815 139.97 157.417 140.143 157.096 140.49C156.774 140.833 156.575 141.315 156.499 141.938H159.939V141.849C159.906 141.252 159.745 140.791 159.457 140.465C159.169 140.135 158.78 139.97 158.289 139.97ZM163.589 139.132L163.627 139.995C164.152 139.335 164.838 139.005 165.684 139.005C167.136 139.005 167.868 139.824 167.88 141.461V146H166.706V141.455C166.702 140.96 166.588 140.594 166.363 140.357C166.143 140.12 165.798 140.001 165.329 140.001C164.948 140.001 164.613 140.103 164.326 140.306C164.038 140.509 163.814 140.776 163.653 141.106V146H162.479V139.132H163.589ZM175.631 145.168C176.05 145.168 176.416 145.042 176.729 144.788C177.042 144.534 177.216 144.216 177.25 143.835H178.36C178.339 144.229 178.204 144.604 177.954 144.959C177.704 145.314 177.37 145.598 176.951 145.81C176.536 146.021 176.096 146.127 175.631 146.127C174.696 146.127 173.951 145.816 173.396 145.194C172.846 144.568 172.571 143.713 172.571 142.629V142.433C172.571 141.764 172.694 141.169 172.939 140.649C173.185 140.128 173.536 139.724 173.993 139.437C174.454 139.149 174.998 139.005 175.625 139.005C176.395 139.005 177.034 139.236 177.542 139.697C178.054 140.158 178.326 140.757 178.36 141.493H177.25C177.216 141.049 177.046 140.685 176.742 140.401C176.441 140.114 176.069 139.97 175.625 139.97C175.028 139.97 174.564 140.186 174.234 140.617C173.909 141.045 173.746 141.665 173.746 142.477V142.699C173.746 143.491 173.909 144.1 174.234 144.527C174.56 144.955 175.026 145.168 175.631 145.168ZM180.957 146H179.782V136.25H180.957V146ZM184.118 146H182.943V139.132H184.118V146ZM182.848 137.31C182.848 137.12 182.905 136.959 183.02 136.828C183.138 136.696 183.312 136.631 183.54 136.631C183.769 136.631 183.942 136.696 184.061 136.828C184.179 136.959 184.238 137.12 184.238 137.31C184.238 137.5 184.179 137.659 184.061 137.786C183.942 137.913 183.769 137.977 183.54 137.977C183.312 137.977 183.138 137.913 183.02 137.786C182.905 137.659 182.848 137.5 182.848 137.31ZM188.758 145.168C189.177 145.168 189.543 145.042 189.856 144.788C190.169 144.534 190.343 144.216 190.376 143.835H191.487C191.466 144.229 191.331 144.604 191.081 144.959C190.831 145.314 190.497 145.598 190.078 145.81C189.663 146.021 189.223 146.127 188.758 146.127C187.823 146.127 187.078 145.816 186.523 145.194C185.973 144.568 185.698 143.713 185.698 142.629V142.433C185.698 141.764 185.821 141.169 186.066 140.649C186.312 140.128 186.663 139.724 187.12 139.437C187.581 139.149 188.125 139.005 188.751 139.005C189.522 139.005 190.161 139.236 190.668 139.697C191.181 140.158 191.453 140.757 191.487 141.493H190.376C190.343 141.049 190.173 140.685 189.869 140.401C189.568 140.114 189.196 139.97 188.751 139.97C188.155 139.97 187.691 140.186 187.361 140.617C187.035 141.045 186.873 141.665 186.873 142.477V142.699C186.873 143.491 187.035 144.1 187.361 144.527C187.687 144.955 188.153 145.168 188.758 145.168ZM194.725 142.82L193.988 143.588V146H192.814V136.25H193.988V142.147L194.617 141.392L196.756 139.132H198.184L195.512 142.001L198.495 146H197.118L194.725 142.82Z" fill="#2B2E55"/>
<path id="Arrow 4" d="M143.354 11.6464C143.158 11.4512 142.842 11.4512 142.646 11.6464L139.464 14.8284C139.269 15.0237 139.269 15.3403 139.464 15.5355C139.66 15.7308 139.976 15.7308 140.172 15.5355L143 12.7071L145.828 15.5355C146.024 15.7308 146.34 15.7308 146.536 15.5355C146.731 15.3403 146.731 15.0237 146.536 14.8284L143.354 11.6464ZM125 65.5C125.158 65.9743 125.158 65.9742 125.159 65.9741C125.159 65.974 125.159 65.9739 125.16 65.9737C125.161 65.9734 125.162 65.973 125.163 65.9726C125.166 65.9716 125.17 65.9703 125.175 65.9685C125.185 65.9651 125.199 65.9602 125.218 65.9537C125.255 65.9407 125.308 65.9215 125.377 65.8958C125.515 65.8445 125.714 65.7671 125.967 65.6614C126.471 65.4501 127.189 65.1252 128.047 64.6679C129.764 63.7538 132.052 62.308 134.341 60.1785C138.926 55.9114 143.5 48.9093 143.5 38L142.5 38C142.5 48.5907 138.074 55.3386 133.659 59.4465C131.448 61.5045 129.236 62.9024 127.578 63.7852C126.749 64.2264 126.06 64.5382 125.58 64.739C125.341 64.8393 125.153 64.9119 125.027 64.9589C124.964 64.9824 124.917 64.9996 124.885 65.0106C124.87 65.0161 124.858 65.0201 124.851 65.0226C124.847 65.0238 124.845 65.0247 124.843 65.0252C124.842 65.0255 124.842 65.0256 124.842 65.0257C124.842 65.0258 124.842 65.0257 124.842 65.0258C124.842 65.0257 124.842 65.0257 125 65.5ZM143.5 38L143.5 12L142.5 12L142.5 38L143.5 38Z" fill="#2B2E55"/>
<path id="Arrow 5" d="M192.646 208.354C192.842 208.549 193.158 208.549 193.354 208.354L196.536 205.172C196.731 204.976 196.731 204.66 196.536 204.464C196.34 204.269 196.024 204.269 195.828 204.464L193 207.293L190.172 204.464C189.976 204.269 189.66 204.269 189.464 204.464C189.269 204.66 189.269 204.976 189.464 205.172L192.646 208.354ZM192.5 153L192.5 208L193.5 208L193.5 153L192.5 153Z" fill="#2B2E55"/>
</g>
<rect id="y3SkipBT" x="14" y="224" width="219" height="56" rx="7" fill="#6BB8FF"/>
<path id="Your trades will take action in the next day when the market opens again." d="M26.5918 318.752L28.8184 314.469H30.0957L27.1543 319.818V323H26.0293V319.818L23.0879 314.469H24.377L26.5918 318.752ZM30.3535 319.771C30.3535 319.15 30.4746 318.592 30.7168 318.096C30.9629 317.6 31.3027 317.217 31.7363 316.947C32.1738 316.678 32.6719 316.543 33.2305 316.543C34.0938 316.543 34.791 316.842 35.3223 317.439C35.8574 318.037 36.125 318.832 36.125 319.824V319.9C36.125 320.518 36.0059 321.072 35.7676 321.564C35.5332 322.053 35.1953 322.434 34.7539 322.707C34.3164 322.98 33.8125 323.117 33.2422 323.117C32.3828 323.117 31.6855 322.818 31.1504 322.221C30.6191 321.623 30.3535 320.832 30.3535 319.848V319.771ZM31.4434 319.9C31.4434 320.604 31.6055 321.168 31.9297 321.594C32.2578 322.02 32.6953 322.232 33.2422 322.232C33.793 322.232 34.2305 322.018 34.5547 321.588C34.8789 321.154 35.041 320.549 35.041 319.771C35.041 319.076 34.875 318.514 34.543 318.084C34.2148 317.65 33.7773 317.434 33.2305 317.434C32.6953 317.434 32.2637 317.646 31.9355 318.072C31.6074 318.498 31.4434 319.107 31.4434 319.9ZM41.3984 322.373C40.9766 322.869 40.3574 323.117 39.541 323.117C38.8652 323.117 38.3496 322.922 37.9941 322.531C37.6426 322.137 37.4648 321.555 37.4609 320.785V316.66H38.5449V320.756C38.5449 321.717 38.9355 322.197 39.7168 322.197C40.5449 322.197 41.0957 321.889 41.3691 321.271V316.66H42.4531V323H41.4219L41.3984 322.373ZM47.1699 317.633C47.0059 317.605 46.8281 317.592 46.6367 317.592C45.9258 317.592 45.4434 317.895 45.1895 318.5V323H44.1055V316.66H45.1602L45.1777 317.393C45.5332 316.826 46.0371 316.543 46.6895 316.543C46.9004 316.543 47.0605 316.57 47.1699 316.625V317.633ZM52.6191 315.125V316.66H53.8027V317.498H52.6191V321.43C52.6191 321.684 52.6719 321.875 52.7773 322.004C52.8828 322.129 53.0625 322.191 53.3164 322.191C53.4414 322.191 53.6133 322.168 53.832 322.121V323C53.5469 323.078 53.2695 323.117 53 323.117C52.5156 323.117 52.1504 322.971 51.9043 322.678C51.6582 322.385 51.5352 321.969 51.5352 321.43V317.498H50.3809V316.66H51.5352V315.125H52.6191ZM58.1387 317.633C57.9746 317.605 57.7969 317.592 57.6055 317.592C56.8945 317.592 56.4121 317.895 56.1582 318.5V323H55.0742V316.66H56.1289L56.1465 317.393C56.502 316.826 57.0059 316.543 57.6582 316.543C57.8691 316.543 58.0293 316.57 58.1387 316.625V317.633ZM62.8203 323C62.7578 322.875 62.707 322.652 62.668 322.332C62.1641 322.855 61.5625 323.117 60.8633 323.117C60.2383 323.117 59.7246 322.941 59.3223 322.59C58.9238 322.234 58.7246 321.785 58.7246 321.242C58.7246 320.582 58.9746 320.07 59.4746 319.707C59.9785 319.34 60.6855 319.156 61.5957 319.156H62.6504V318.658C62.6504 318.279 62.5371 317.979 62.3105 317.756C62.084 317.529 61.75 317.416 61.3086 317.416C60.9219 317.416 60.5977 317.514 60.3359 317.709C60.0742 317.904 59.9434 318.141 59.9434 318.418H58.8535C58.8535 318.102 58.9648 317.797 59.1875 317.504C59.4141 317.207 59.7188 316.973 60.1016 316.801C60.4883 316.629 60.9121 316.543 61.373 316.543C62.1035 316.543 62.6758 316.727 63.0898 317.094C63.5039 317.457 63.7188 317.959 63.7344 318.6V321.518C63.7344 322.1 63.8086 322.562 63.957 322.906V323H62.8203ZM61.0215 322.174C61.3613 322.174 61.6836 322.086 61.9883 321.91C62.293 321.734 62.5137 321.506 62.6504 321.225V319.924H61.8008C60.4727 319.924 59.8086 320.312 59.8086 321.09C59.8086 321.43 59.9219 321.695 60.1484 321.887C60.375 322.078 60.666 322.174 61.0215 322.174ZM65.1699 319.777C65.1699 318.805 65.4004 318.023 65.8613 317.434C66.3223 316.84 66.9258 316.543 67.6719 316.543C68.4141 316.543 69.002 316.797 69.4355 317.305V314H70.5195V323H69.5234L69.4707 322.32C69.0371 322.852 68.4336 323.117 67.6602 323.117C66.9258 323.117 66.3262 322.816 65.8613 322.215C65.4004 321.613 65.1699 320.828 65.1699 319.859V319.777ZM66.2539 319.9C66.2539 320.619 66.4023 321.182 66.6992 321.588C66.9961 321.994 67.4062 322.197 67.9297 322.197C68.6172 322.197 69.1191 321.889 69.4355 321.271V318.359C69.1113 317.762 68.6133 317.463 67.9414 317.463C67.4102 317.463 66.9961 317.668 66.6992 318.078C66.4023 318.488 66.2539 319.096 66.2539 319.9ZM74.8379 323.117C73.9785 323.117 73.2793 322.836 72.7402 322.273C72.2012 321.707 71.9316 320.951 71.9316 320.006V319.807C71.9316 319.178 72.0508 318.617 72.2891 318.125C72.5312 317.629 72.8672 317.242 73.2969 316.965C73.7305 316.684 74.1992 316.543 74.7031 316.543C75.5273 316.543 76.168 316.814 76.625 317.357C77.082 317.9 77.3105 318.678 77.3105 319.689V320.141H73.0156C73.0312 320.766 73.2129 321.271 73.5605 321.658C73.9121 322.041 74.3574 322.232 74.8965 322.232C75.2793 322.232 75.6035 322.154 75.8691 321.998C76.1348 321.842 76.3672 321.635 76.5664 321.377L77.2285 321.893C76.6973 322.709 75.9004 323.117 74.8379 323.117ZM74.7031 317.434C74.2656 317.434 73.8984 317.594 73.6016 317.914C73.3047 318.23 73.1211 318.676 73.0508 319.25H76.2266V319.168C76.1953 318.617 76.0469 318.191 75.7812 317.891C75.5156 317.586 75.1562 317.434 74.7031 317.434ZM82.2617 321.318C82.2617 321.025 82.1504 320.799 81.9277 320.639C81.709 320.475 81.3242 320.334 80.7734 320.217C80.2266 320.1 79.791 319.959 79.4668 319.795C79.1465 319.631 78.9082 319.436 78.752 319.209C78.5996 318.982 78.5234 318.713 78.5234 318.4C78.5234 317.881 78.7422 317.441 79.1797 317.082C79.6211 316.723 80.1836 316.543 80.8672 316.543C81.5859 316.543 82.168 316.729 82.6133 317.1C83.0625 317.471 83.2871 317.945 83.2871 318.523H82.1973C82.1973 318.227 82.0703 317.971 81.8164 317.756C81.5664 317.541 81.25 317.434 80.8672 317.434C80.4727 317.434 80.1641 317.52 79.9414 317.691C79.7188 317.863 79.6074 318.088 79.6074 318.365C79.6074 318.627 79.7109 318.824 79.918 318.957C80.125 319.09 80.498 319.217 81.0371 319.338C81.5801 319.459 82.0195 319.604 82.3555 319.771C82.6914 319.939 82.9395 320.143 83.0996 320.381C83.2637 320.615 83.3457 320.902 83.3457 321.242C83.3457 321.809 83.1191 322.264 82.666 322.607C82.2129 322.947 81.625 323.117 80.9023 323.117C80.3945 323.117 79.9453 323.027 79.5547 322.848C79.1641 322.668 78.8574 322.418 78.6348 322.098C78.416 321.773 78.3066 321.424 78.3066 321.049H79.3906C79.4102 321.412 79.5547 321.701 79.8242 321.916C80.0977 322.127 80.457 322.232 80.9023 322.232C81.3125 322.232 81.6406 322.15 81.8867 321.986C82.1367 321.818 82.2617 321.596 82.2617 321.318ZM93.3477 321.506L94.5664 316.66H95.6504L93.8047 323H92.9258L91.3848 318.195L89.8848 323H89.0059L87.166 316.66H88.2441L89.4922 321.406L90.9688 316.66H91.8418L93.3477 321.506ZM97.9355 323H96.8516V316.66H97.9355V323ZM96.7637 314.979C96.7637 314.803 96.8164 314.654 96.9219 314.533C97.0312 314.412 97.1914 314.352 97.4023 314.352C97.6133 314.352 97.7734 314.412 97.8828 314.533C97.9922 314.654 98.0469 314.803 98.0469 314.979C98.0469 315.154 97.9922 315.301 97.8828 315.418C97.7734 315.535 97.6133 315.594 97.4023 315.594C97.1914 315.594 97.0312 315.535 96.9219 315.418C96.8164 315.301 96.7637 315.154 96.7637 314.979ZM100.854 323H99.7695V314H100.854V323ZM103.771 323H102.688V314H103.771V323ZM109.959 315.125V316.66H111.143V317.498H109.959V321.43C109.959 321.684 110.012 321.875 110.117 322.004C110.223 322.129 110.402 322.191 110.656 322.191C110.781 322.191 110.953 322.168 111.172 322.121V323C110.887 323.078 110.609 323.117 110.34 323.117C109.855 323.117 109.49 322.971 109.244 322.678C108.998 322.385 108.875 321.969 108.875 321.43V317.498H107.721V316.66H108.875V315.125H109.959ZM116.328 323C116.266 322.875 116.215 322.652 116.176 322.332C115.672 322.855 115.07 323.117 114.371 323.117C113.746 323.117 113.232 322.941 112.83 322.59C112.432 322.234 112.232 321.785 112.232 321.242C112.232 320.582 112.482 320.07 112.982 319.707C113.486 319.34 114.193 319.156 115.104 319.156H116.158V318.658C116.158 318.279 116.045 317.979 115.818 317.756C115.592 317.529 115.258 317.416 114.816 317.416C114.43 317.416 114.105 317.514 113.844 317.709C113.582 317.904 113.451 318.141 113.451 318.418H112.361C112.361 318.102 112.473 317.797 112.695 317.504C112.922 317.207 113.227 316.973 113.609 316.801C113.996 316.629 114.42 316.543 114.881 316.543C115.611 316.543 116.184 316.727 116.598 317.094C117.012 317.457 117.227 317.959 117.242 318.6V321.518C117.242 322.1 117.316 322.562 117.465 322.906V323H116.328ZM114.529 322.174C114.869 322.174 115.191 322.086 115.496 321.91C115.801 321.734 116.021 321.506 116.158 321.225V319.924H115.309C113.98 319.924 113.316 320.312 113.316 321.09C113.316 321.43 113.43 321.695 113.656 321.887C113.883 322.078 114.174 322.174 114.529 322.174ZM120.711 320.064L120.031 320.773V323H118.947V314H120.031V319.443L120.611 318.746L122.586 316.66H123.904L121.438 319.309L124.191 323H122.92L120.711 320.064ZM127.537 323.117C126.678 323.117 125.979 322.836 125.439 322.273C124.9 321.707 124.631 320.951 124.631 320.006V319.807C124.631 319.178 124.75 318.617 124.988 318.125C125.23 317.629 125.566 317.242 125.996 316.965C126.43 316.684 126.898 316.543 127.402 316.543C128.227 316.543 128.867 316.814 129.324 317.357C129.781 317.9 130.01 318.678 130.01 319.689V320.141H125.715C125.73 320.766 125.912 321.271 126.26 321.658C126.611 322.041 127.057 322.232 127.596 322.232C127.979 322.232 128.303 322.154 128.568 321.998C128.834 321.842 129.066 321.635 129.266 321.377L129.928 321.893C129.396 322.709 128.6 323.117 127.537 323.117ZM127.402 317.434C126.965 317.434 126.598 317.594 126.301 317.914C126.004 318.23 125.82 318.676 125.75 319.25H128.926V319.168C128.895 318.617 128.746 318.191 128.48 317.891C128.215 317.586 127.855 317.434 127.402 317.434ZM138.16 323C138.098 322.875 138.047 322.652 138.008 322.332C137.504 322.855 136.902 323.117 136.203 323.117C135.578 323.117 135.064 322.941 134.662 322.59C134.264 322.234 134.064 321.785 134.064 321.242C134.064 320.582 134.314 320.07 134.814 319.707C135.318 319.34 136.025 319.156 136.936 319.156H137.99V318.658C137.99 318.279 137.877 317.979 137.65 317.756C137.424 317.529 137.09 317.416 136.648 317.416C136.262 317.416 135.938 317.514 135.676 317.709C135.414 317.904 135.283 318.141 135.283 318.418H134.193C134.193 318.102 134.305 317.797 134.527 317.504C134.754 317.207 135.059 316.973 135.441 316.801C135.828 316.629 136.252 316.543 136.713 316.543C137.443 316.543 138.016 316.727 138.43 317.094C138.844 317.457 139.059 317.959 139.074 318.6V321.518C139.074 322.1 139.148 322.562 139.297 322.906V323H138.16ZM136.361 322.174C136.701 322.174 137.023 322.086 137.328 321.91C137.633 321.734 137.854 321.506 137.99 321.225V319.924H137.141C135.812 319.924 135.148 320.312 135.148 321.09C135.148 321.43 135.262 321.695 135.488 321.887C135.715 322.078 136.006 322.174 136.361 322.174ZM143.316 322.232C143.703 322.232 144.041 322.115 144.33 321.881C144.619 321.646 144.779 321.354 144.811 321.002H145.836C145.816 321.365 145.691 321.711 145.461 322.039C145.23 322.367 144.922 322.629 144.535 322.824C144.152 323.02 143.746 323.117 143.316 323.117C142.453 323.117 141.766 322.83 141.254 322.256C140.746 321.678 140.492 320.889 140.492 319.889V319.707C140.492 319.09 140.605 318.541 140.832 318.061C141.059 317.58 141.383 317.207 141.805 316.941C142.23 316.676 142.732 316.543 143.311 316.543C144.021 316.543 144.611 316.756 145.08 317.182C145.553 317.607 145.805 318.16 145.836 318.84H144.811C144.779 318.43 144.623 318.094 144.342 317.832C144.064 317.566 143.721 317.434 143.311 317.434C142.76 317.434 142.332 317.633 142.027 318.031C141.727 318.426 141.576 318.998 141.576 319.748V319.953C141.576 320.684 141.727 321.246 142.027 321.641C142.328 322.035 142.758 322.232 143.316 322.232ZM148.525 315.125V316.66H149.709V317.498H148.525V321.43C148.525 321.684 148.578 321.875 148.684 322.004C148.789 322.129 148.969 322.191 149.223 322.191C149.348 322.191 149.52 322.168 149.738 322.121V323C149.453 323.078 149.176 323.117 148.906 323.117C148.422 323.117 148.057 322.971 147.811 322.678C147.564 322.385 147.441 321.969 147.441 321.43V317.498H146.287V316.66H147.441V315.125H148.525ZM152.158 323H151.074V316.66H152.158V323ZM150.986 314.979C150.986 314.803 151.039 314.654 151.145 314.533C151.254 314.412 151.414 314.352 151.625 314.352C151.836 314.352 151.996 314.412 152.105 314.533C152.215 314.654 152.27 314.803 152.27 314.979C152.27 315.154 152.215 315.301 152.105 315.418C151.996 315.535 151.836 315.594 151.625 315.594C151.414 315.594 151.254 315.535 151.145 315.418C151.039 315.301 150.986 315.154 150.986 314.979ZM153.611 319.771C153.611 319.15 153.732 318.592 153.975 318.096C154.221 317.6 154.561 317.217 154.994 316.947C155.432 316.678 155.93 316.543 156.488 316.543C157.352 316.543 158.049 316.842 158.58 317.439C159.115 318.037 159.383 318.832 159.383 319.824V319.9C159.383 320.518 159.264 321.072 159.025 321.564C158.791 322.053 158.453 322.434 158.012 322.707C157.574 322.98 157.07 323.117 156.5 323.117C155.641 323.117 154.943 322.818 154.408 322.221C153.877 321.623 153.611 320.832 153.611 319.848V319.771ZM154.701 319.9C154.701 320.604 154.863 321.168 155.188 321.594C155.516 322.02 155.953 322.232 156.5 322.232C157.051 322.232 157.488 322.018 157.812 321.588C158.137 321.154 158.299 320.549 158.299 319.771C158.299 319.076 158.133 318.514 157.801 318.084C157.473 317.65 157.035 317.434 156.488 317.434C155.953 317.434 155.521 317.646 155.193 318.072C154.865 318.498 154.701 319.107 154.701 319.9ZM161.768 316.66L161.803 317.457C162.287 316.848 162.92 316.543 163.701 316.543C165.041 316.543 165.717 317.299 165.729 318.811V323H164.645V318.805C164.641 318.348 164.535 318.01 164.328 317.791C164.125 317.572 163.807 317.463 163.373 317.463C163.021 317.463 162.713 317.557 162.447 317.744C162.182 317.932 161.975 318.178 161.826 318.482V323H160.742V316.66H161.768ZM171.518 323H170.434V316.66H171.518V323ZM170.346 314.979C170.346 314.803 170.398 314.654 170.504 314.533C170.613 314.412 170.773 314.352 170.984 314.352C171.195 314.352 171.355 314.412 171.465 314.533C171.574 314.654 171.629 314.803 171.629 314.979C171.629 315.154 171.574 315.301 171.465 315.418C171.355 315.535 171.195 315.594 170.984 315.594C170.773 315.594 170.613 315.535 170.504 315.418C170.398 315.301 170.346 315.154 170.346 314.979ZM174.283 316.66L174.318 317.457C174.803 316.848 175.436 316.543 176.217 316.543C177.557 316.543 178.232 317.299 178.244 318.811V323H177.16V318.805C177.156 318.348 177.051 318.01 176.844 317.791C176.641 317.572 176.322 317.463 175.889 317.463C175.537 317.463 175.229 317.557 174.963 317.744C174.697 317.932 174.49 318.178 174.342 318.482V323H173.258V316.66H174.283ZM184.326 315.125V316.66H185.51V317.498H184.326V321.43C184.326 321.684 184.379 321.875 184.484 322.004C184.59 322.129 184.77 322.191 185.023 322.191C185.148 322.191 185.32 322.168 185.539 322.121V323C185.254 323.078 184.977 323.117 184.707 323.117C184.223 323.117 183.857 322.971 183.611 322.678C183.365 322.385 183.242 321.969 183.242 321.43V317.498H182.088V316.66H183.242V315.125H184.326ZM187.865 317.428C188.346 316.838 188.971 316.543 189.74 316.543C191.08 316.543 191.756 317.299 191.768 318.811V323H190.684V318.805C190.68 318.348 190.574 318.01 190.367 317.791C190.164 317.572 189.846 317.463 189.412 317.463C189.061 317.463 188.752 317.557 188.486 317.744C188.221 317.932 188.014 318.178 187.865 318.482V323H186.781V314H187.865V317.428ZM196.021 323.117C195.162 323.117 194.463 322.836 193.924 322.273C193.385 321.707 193.115 320.951 193.115 320.006V319.807C193.115 319.178 193.234 318.617 193.473 318.125C193.715 317.629 194.051 317.242 194.48 316.965C194.914 316.684 195.383 316.543 195.887 316.543C196.711 316.543 197.352 316.814 197.809 317.357C198.266 317.9 198.494 318.678 198.494 319.689V320.141H194.199C194.215 320.766 194.396 321.271 194.744 321.658C195.096 322.041 195.541 322.232 196.08 322.232C196.463 322.232 196.787 322.154 197.053 321.998C197.318 321.842 197.551 321.635 197.75 321.377L198.412 321.893C197.881 322.709 197.084 323.117 196.021 323.117ZM195.887 317.434C195.449 317.434 195.082 317.594 194.785 317.914C194.488 318.23 194.305 318.676 194.234 319.25H197.41V319.168C197.379 318.617 197.23 318.191 196.965 317.891C196.699 317.586 196.34 317.434 195.887 317.434ZM203.756 316.66L203.791 317.457C204.275 316.848 204.908 316.543 205.689 316.543C207.029 316.543 207.705 317.299 207.717 318.811V323H206.633V318.805C206.629 318.348 206.523 318.01 206.316 317.791C206.113 317.572 205.795 317.463 205.361 317.463C205.01 317.463 204.701 317.557 204.436 317.744C204.17 317.932 203.963 318.178 203.814 318.482V323H202.73V316.66H203.756ZM211.982 323.117C211.123 323.117 210.424 322.836 209.885 322.273C209.346 321.707 209.076 320.951 209.076 320.006V319.807C209.076 319.178 209.195 318.617 209.434 318.125C209.676 317.629 210.012 317.242 210.441 316.965C210.875 316.684 211.344 316.543 211.848 316.543C212.672 316.543 213.312 316.814 213.77 317.357C214.227 317.9 214.455 318.678 214.455 319.689V320.141H210.16C210.176 320.766 210.357 321.271 210.705 321.658C211.057 322.041 211.502 322.232 212.041 322.232C212.424 322.232 212.748 322.154 213.014 321.998C213.279 321.842 213.512 321.635 213.711 321.377L214.373 321.893C213.842 322.709 213.045 323.117 211.982 323.117ZM211.848 317.434C211.41 317.434 211.043 317.594 210.746 317.914C210.449 318.23 210.266 318.676 210.195 319.25H213.371V319.168C213.34 318.617 213.191 318.191 212.926 317.891C212.66 317.586 212.301 317.434 211.848 317.434ZM217.842 318.975L219.248 316.66H220.514L218.439 319.795L220.578 323H219.324L217.859 320.627L216.395 323H215.135L217.273 319.795L215.199 316.66H216.453L217.842 318.975ZM223.139 315.125V316.66H224.322V317.498H223.139V321.43C223.139 321.684 223.191 321.875 223.297 322.004C223.402 322.129 223.582 322.191 223.836 322.191C223.961 322.191 224.133 322.168 224.352 322.121V323C224.066 323.078 223.789 323.117 223.52 323.117C223.035 323.117 222.67 322.971 222.424 322.678C222.178 322.385 222.055 321.969 222.055 321.43V317.498H220.9V316.66H222.055V315.125H223.139ZM23.5566 333.777C23.5566 332.805 23.7871 332.023 24.248 331.434C24.709 330.84 25.3125 330.543 26.0586 330.543C26.8008 330.543 27.3887 330.797 27.8223 331.305V328H28.9062V337H27.9102L27.8574 336.32C27.4238 336.852 26.8203 337.117 26.0469 337.117C25.3125 337.117 24.7129 336.816 24.248 336.215C23.7871 335.613 23.5566 334.828 23.5566 333.859V333.777ZM24.6406 333.9C24.6406 334.619 24.7891 335.182 25.0859 335.588C25.3828 335.994 25.793 336.197 26.3164 336.197C27.0039 336.197 27.5059 335.889 27.8223 335.271V332.359C27.498 331.762 27 331.463 26.3281 331.463C25.7969 331.463 25.3828 331.668 25.0859 332.078C24.7891 332.488 24.6406 333.096 24.6406 333.9ZM34.5078 337C34.4453 336.875 34.3945 336.652 34.3555 336.332C33.8516 336.855 33.25 337.117 32.5508 337.117C31.9258 337.117 31.4121 336.941 31.0098 336.59C30.6113 336.234 30.4121 335.785 30.4121 335.242C30.4121 334.582 30.6621 334.07 31.1621 333.707C31.666 333.34 32.373 333.156 33.2832 333.156H34.3379V332.658C34.3379 332.279 34.2246 331.979 33.998 331.756C33.7715 331.529 33.4375 331.416 32.9961 331.416C32.6094 331.416 32.2852 331.514 32.0234 331.709C31.7617 331.904 31.6309 332.141 31.6309 332.418H30.541C30.541 332.102 30.6523 331.797 30.875 331.504C31.1016 331.207 31.4062 330.973 31.7891 330.801C32.1758 330.629 32.5996 330.543 33.0605 330.543C33.791 330.543 34.3633 330.727 34.7773 331.094C35.1914 331.457 35.4062 331.959 35.4219 332.6V335.518C35.4219 336.1 35.4961 336.562 35.6445 336.906V337H34.5078ZM32.709 336.174C33.0488 336.174 33.3711 336.086 33.6758 335.91C33.9805 335.734 34.2012 335.506 34.3379 335.225V333.924H33.4883C32.1602 333.924 31.4961 334.312 31.4961 335.09C31.4961 335.43 31.6094 335.695 31.8359 335.887C32.0625 336.078 32.3535 336.174 32.709 336.174ZM39.1016 335.412L40.5781 330.66H41.7383L39.1895 337.979C38.7949 339.033 38.168 339.561 37.3086 339.561L37.1035 339.543L36.6992 339.467V338.588L36.9922 338.611C37.3594 338.611 37.6445 338.537 37.8477 338.389C38.0547 338.24 38.2246 337.969 38.3574 337.574L38.5977 336.93L36.3359 330.66H37.5195L39.1016 335.412ZM51.3008 335.506L52.5195 330.66H53.6035L51.7578 337H50.8789L49.3379 332.195L47.8379 337H46.959L45.1191 330.66H46.1973L47.4453 335.406L48.9219 330.66H49.7949L51.3008 335.506ZM55.7949 331.428C56.2754 330.838 56.9004 330.543 57.6699 330.543C59.0098 330.543 59.6855 331.299 59.6973 332.811V337H58.6133V332.805C58.6094 332.348 58.5039 332.01 58.2969 331.791C58.0938 331.572 57.7754 331.463 57.3418 331.463C56.9902 331.463 56.6816 331.557 56.416 331.744C56.1504 331.932 55.9434 332.178 55.7949 332.482V337H54.7109V328H55.7949V331.428ZM63.9512 337.117C63.0918 337.117 62.3926 336.836 61.8535 336.273C61.3145 335.707 61.0449 334.951 61.0449 334.006V333.807C61.0449 333.178 61.1641 332.617 61.4023 332.125C61.6445 331.629 61.9805 331.242 62.4102 330.965C62.8438 330.684 63.3125 330.543 63.8164 330.543C64.6406 330.543 65.2812 330.814 65.7383 331.357C66.1953 331.9 66.4238 332.678 66.4238 333.689V334.141H62.1289C62.1445 334.766 62.3262 335.271 62.6738 335.658C63.0254 336.041 63.4707 336.232 64.0098 336.232C64.3926 336.232 64.7168 336.154 64.9824 335.998C65.248 335.842 65.4805 335.635 65.6797 335.377L66.3418 335.893C65.8105 336.709 65.0137 337.117 63.9512 337.117ZM63.8164 331.434C63.3789 331.434 63.0117 331.594 62.7148 331.914C62.418 332.23 62.2344 332.676 62.1641 333.25H65.3398V333.168C65.3086 332.617 65.1602 332.191 64.8945 331.891C64.6289 331.586 64.2695 331.434 63.8164 331.434ZM68.709 330.66L68.7441 331.457C69.2285 330.848 69.8613 330.543 70.6426 330.543C71.9824 330.543 72.6582 331.299 72.6699 332.811V337H71.5859V332.805C71.582 332.348 71.4766 332.01 71.2695 331.791C71.0664 331.572 70.748 331.463 70.3145 331.463C69.9629 331.463 69.6543 331.557 69.3887 331.744C69.123 331.932 68.916 332.178 68.7676 332.482V337H67.6836V330.66H68.709ZM78.752 329.125V330.66H79.9355V331.498H78.752V335.43C78.752 335.684 78.8047 335.875 78.9102 336.004C79.0156 336.129 79.1953 336.191 79.4492 336.191C79.5742 336.191 79.7461 336.168 79.9648 336.121V337C79.6797 337.078 79.4023 337.117 79.1328 337.117C78.6484 337.117 78.2832 336.971 78.0371 336.678C77.791 336.385 77.668 335.969 77.668 335.43V331.498H76.5137V330.66H77.668V329.125H78.752ZM82.291 331.428C82.7715 330.838 83.3965 330.543 84.166 330.543C85.5059 330.543 86.1816 331.299 86.1934 332.811V337H85.1094V332.805C85.1055 332.348 85 332.01 84.793 331.791C84.5898 331.572 84.2715 331.463 83.8379 331.463C83.4863 331.463 83.1777 331.557 82.9121 331.744C82.6465 331.932 82.4395 332.178 82.291 332.482V337H81.207V328H82.291V331.428ZM90.4473 337.117C89.5879 337.117 88.8887 336.836 88.3496 336.273C87.8105 335.707 87.541 334.951 87.541 334.006V333.807C87.541 333.178 87.6602 332.617 87.8984 332.125C88.1406 331.629 88.4766 331.242 88.9062 330.965C89.3398 330.684 89.8086 330.543 90.3125 330.543C91.1367 330.543 91.7773 330.814 92.2344 331.357C92.6914 331.9 92.9199 332.678 92.9199 333.689V334.141H88.625C88.6406 334.766 88.8223 335.271 89.1699 335.658C89.5215 336.041 89.9668 336.232 90.5059 336.232C90.8887 336.232 91.2129 336.154 91.4785 335.998C91.7441 335.842 91.9766 335.635 92.1758 335.377L92.8379 335.893C92.3066 336.709 91.5098 337.117 90.4473 337.117ZM90.3125 331.434C89.875 331.434 89.5078 331.594 89.2109 331.914C88.9141 332.23 88.7305 332.676 88.6602 333.25H91.8359V333.168C91.8047 332.617 91.6562 332.191 91.3906 331.891C91.125 331.586 90.7656 331.434 90.3125 331.434ZM98.1758 330.66L98.2051 331.363C98.6699 330.816 99.2969 330.543 100.086 330.543C100.973 330.543 101.576 330.883 101.896 331.562C102.107 331.258 102.381 331.012 102.717 330.824C103.057 330.637 103.457 330.543 103.918 330.543C105.309 330.543 106.016 331.279 106.039 332.752V337H104.955V332.816C104.955 332.363 104.852 332.025 104.645 331.803C104.438 331.576 104.09 331.463 103.602 331.463C103.199 331.463 102.865 331.584 102.6 331.826C102.334 332.064 102.18 332.387 102.137 332.793V337H101.047V332.846C101.047 331.924 100.596 331.463 99.6934 331.463C98.9824 331.463 98.4961 331.766 98.2344 332.371V337H97.1504V330.66H98.1758ZM111.594 337C111.531 336.875 111.48 336.652 111.441 336.332C110.938 336.855 110.336 337.117 109.637 337.117C109.012 337.117 108.498 336.941 108.096 336.59C107.697 336.234 107.498 335.785 107.498 335.242C107.498 334.582 107.748 334.07 108.248 333.707C108.752 333.34 109.459 333.156 110.369 333.156H111.424V332.658C111.424 332.279 111.311 331.979 111.084 331.756C110.857 331.529 110.523 331.416 110.082 331.416C109.695 331.416 109.371 331.514 109.109 331.709C108.848 331.904 108.717 332.141 108.717 332.418H107.627C107.627 332.102 107.738 331.797 107.961 331.504C108.188 331.207 108.492 330.973 108.875 330.801C109.262 330.629 109.686 330.543 110.146 330.543C110.877 330.543 111.449 330.727 111.863 331.094C112.277 331.457 112.492 331.959 112.508 332.6V335.518C112.508 336.1 112.582 336.562 112.73 336.906V337H111.594ZM109.795 336.174C110.135 336.174 110.457 336.086 110.762 335.91C111.066 335.734 111.287 335.506 111.424 335.225V333.924H110.574C109.246 333.924 108.582 334.312 108.582 335.09C108.582 335.43 108.695 335.695 108.922 335.887C109.148 336.078 109.439 336.174 109.795 336.174ZM117.271 331.633C117.107 331.605 116.93 331.592 116.738 331.592C116.027 331.592 115.545 331.895 115.291 332.5V337H114.207V330.66H115.262L115.279 331.393C115.635 330.826 116.139 330.543 116.791 330.543C117.002 330.543 117.162 330.57 117.271 330.625V331.633ZM120.043 334.064L119.363 334.773V337H118.279V328H119.363V333.443L119.943 332.746L121.918 330.66H123.236L120.77 333.309L123.523 337H122.252L120.043 334.064ZM126.869 337.117C126.01 337.117 125.311 336.836 124.771 336.273C124.232 335.707 123.963 334.951 123.963 334.006V333.807C123.963 333.178 124.082 332.617 124.32 332.125C124.562 331.629 124.898 331.242 125.328 330.965C125.762 330.684 126.23 330.543 126.734 330.543C127.559 330.543 128.199 330.814 128.656 331.357C129.113 331.9 129.342 332.678 129.342 333.689V334.141H125.047C125.062 334.766 125.244 335.271 125.592 335.658C125.943 336.041 126.389 336.232 126.928 336.232C127.311 336.232 127.635 336.154 127.9 335.998C128.166 335.842 128.398 335.635 128.598 335.377L129.26 335.893C128.729 336.709 127.932 337.117 126.869 337.117ZM126.734 331.434C126.297 331.434 125.93 331.594 125.633 331.914C125.336 332.23 125.152 332.676 125.082 333.25H128.258V333.168C128.227 332.617 128.078 332.191 127.812 331.891C127.547 331.586 127.188 331.434 126.734 331.434ZM132.072 329.125V330.66H133.256V331.498H132.072V335.43C132.072 335.684 132.125 335.875 132.23 336.004C132.336 336.129 132.516 336.191 132.77 336.191C132.895 336.191 133.066 336.168 133.285 336.121V337C133 337.078 132.723 337.117 132.453 337.117C131.969 337.117 131.604 336.971 131.357 336.678C131.111 336.385 130.988 335.969 130.988 335.43V331.498H129.834V330.66H130.988V329.125H132.072ZM137.217 333.771C137.217 333.15 137.338 332.592 137.58 332.096C137.826 331.6 138.166 331.217 138.6 330.947C139.037 330.678 139.535 330.543 140.094 330.543C140.957 330.543 141.654 330.842 142.186 331.439C142.721 332.037 142.988 332.832 142.988 333.824V333.9C142.988 334.518 142.869 335.072 142.631 335.564C142.396 336.053 142.059 336.434 141.617 336.707C141.18 336.98 140.676 337.117 140.105 337.117C139.246 337.117 138.549 336.818 138.014 336.221C137.482 335.623 137.217 334.832 137.217 333.848V333.771ZM138.307 333.9C138.307 334.604 138.469 335.168 138.793 335.594C139.121 336.02 139.559 336.232 140.105 336.232C140.656 336.232 141.094 336.018 141.418 335.588C141.742 335.154 141.904 334.549 141.904 333.771C141.904 333.076 141.738 332.514 141.406 332.084C141.078 331.65 140.641 331.434 140.094 331.434C139.559 331.434 139.127 331.646 138.799 332.072C138.471 332.498 138.307 333.107 138.307 333.9ZM149.703 333.9C149.703 334.865 149.482 335.643 149.041 336.232C148.6 336.822 148.002 337.117 147.248 337.117C146.479 337.117 145.873 336.873 145.432 336.385V339.438H144.348V330.66H145.338L145.391 331.363C145.832 330.816 146.445 330.543 147.23 330.543C147.992 330.543 148.594 330.83 149.035 331.404C149.48 331.979 149.703 332.777 149.703 333.801V333.9ZM148.619 333.777C148.619 333.062 148.467 332.498 148.162 332.084C147.857 331.67 147.439 331.463 146.908 331.463C146.252 331.463 145.76 331.754 145.432 332.336V335.365C145.756 335.943 146.252 336.232 146.92 336.232C147.439 336.232 147.852 336.027 148.156 335.617C148.465 335.203 148.619 334.59 148.619 333.777ZM153.717 337.117C152.857 337.117 152.158 336.836 151.619 336.273C151.08 335.707 150.811 334.951 150.811 334.006V333.807C150.811 333.178 150.93 332.617 151.168 332.125C151.41 331.629 151.746 331.242 152.176 330.965C152.609 330.684 153.078 330.543 153.582 330.543C154.406 330.543 155.047 330.814 155.504 331.357C155.961 331.9 156.189 332.678 156.189 333.689V334.141H151.895C151.91 334.766 152.092 335.271 152.439 335.658C152.791 336.041 153.236 336.232 153.775 336.232C154.158 336.232 154.482 336.154 154.748 335.998C155.014 335.842 155.246 335.635 155.445 335.377L156.107 335.893C155.576 336.709 154.779 337.117 153.717 337.117ZM153.582 331.434C153.145 331.434 152.777 331.594 152.48 331.914C152.184 332.23 152 332.676 151.93 333.25H155.105V333.168C155.074 332.617 154.926 332.191 154.66 331.891C154.395 331.586 154.035 331.434 153.582 331.434ZM158.475 330.66L158.51 331.457C158.994 330.848 159.627 330.543 160.408 330.543C161.748 330.543 162.424 331.299 162.436 332.811V337H161.352V332.805C161.348 332.348 161.242 332.01 161.035 331.791C160.832 331.572 160.514 331.463 160.08 331.463C159.729 331.463 159.42 331.557 159.154 331.744C158.889 331.932 158.682 332.178 158.533 332.482V337H157.449V330.66H158.475ZM167.762 335.318C167.762 335.025 167.65 334.799 167.428 334.639C167.209 334.475 166.824 334.334 166.273 334.217C165.727 334.1 165.291 333.959 164.967 333.795C164.646 333.631 164.408 333.436 164.252 333.209C164.1 332.982 164.023 332.713 164.023 332.4C164.023 331.881 164.242 331.441 164.68 331.082C165.121 330.723 165.684 330.543 166.367 330.543C167.086 330.543 167.668 330.729 168.113 331.1C168.562 331.471 168.787 331.945 168.787 332.523H167.697C167.697 332.227 167.57 331.971 167.316 331.756C167.066 331.541 166.75 331.434 166.367 331.434C165.973 331.434 165.664 331.52 165.441 331.691C165.219 331.863 165.107 332.088 165.107 332.365C165.107 332.627 165.211 332.824 165.418 332.957C165.625 333.09 165.998 333.217 166.537 333.338C167.08 333.459 167.52 333.604 167.855 333.771C168.191 333.939 168.439 334.143 168.6 334.381C168.764 334.615 168.846 334.902 168.846 335.242C168.846 335.809 168.619 336.264 168.166 336.607C167.713 336.947 167.125 337.117 166.402 337.117C165.895 337.117 165.445 337.027 165.055 336.848C164.664 336.668 164.357 336.418 164.135 336.098C163.916 335.773 163.807 335.424 163.807 335.049H164.891C164.91 335.412 165.055 335.701 165.324 335.916C165.598 336.127 165.957 336.232 166.402 336.232C166.812 336.232 167.141 336.15 167.387 335.986C167.637 335.818 167.762 335.596 167.762 335.318ZM177.148 337C177.086 336.875 177.035 336.652 176.996 336.332C176.492 336.855 175.891 337.117 175.191 337.117C174.566 337.117 174.053 336.941 173.65 336.59C173.252 336.234 173.053 335.785 173.053 335.242C173.053 334.582 173.303 334.07 173.803 333.707C174.307 333.34 175.014 333.156 175.924 333.156H176.979V332.658C176.979 332.279 176.865 331.979 176.639 331.756C176.412 331.529 176.078 331.416 175.637 331.416C175.25 331.416 174.926 331.514 174.664 331.709C174.402 331.904 174.271 332.141 174.271 332.418H173.182C173.182 332.102 173.293 331.797 173.516 331.504C173.742 331.207 174.047 330.973 174.43 330.801C174.816 330.629 175.24 330.543 175.701 330.543C176.432 330.543 177.004 330.727 177.418 331.094C177.832 331.457 178.047 331.959 178.062 332.6V335.518C178.062 336.1 178.137 336.562 178.285 336.906V337H177.148ZM175.35 336.174C175.689 336.174 176.012 336.086 176.316 335.91C176.621 335.734 176.842 335.506 176.979 335.225V333.924H176.129C174.801 333.924 174.137 334.312 174.137 335.09C174.137 335.43 174.25 335.695 174.477 335.887C174.703 336.078 174.994 336.174 175.35 336.174ZM179.504 333.777C179.504 332.789 179.732 332.004 180.189 331.422C180.646 330.836 181.252 330.543 182.006 330.543C182.779 330.543 183.383 330.816 183.816 331.363L183.869 330.66H184.859V336.848C184.859 337.668 184.615 338.314 184.127 338.787C183.643 339.26 182.99 339.496 182.17 339.496C181.713 339.496 181.266 339.398 180.828 339.203C180.391 339.008 180.057 338.74 179.826 338.4L180.389 337.75C180.854 338.324 181.422 338.611 182.094 338.611C182.621 338.611 183.031 338.463 183.324 338.166C183.621 337.869 183.77 337.451 183.77 336.912V336.367C183.336 336.867 182.744 337.117 181.994 337.117C181.252 337.117 180.65 336.818 180.189 336.221C179.732 335.623 179.504 334.809 179.504 333.777ZM180.594 333.9C180.594 334.615 180.74 335.178 181.033 335.588C181.326 335.994 181.736 336.197 182.264 336.197C182.947 336.197 183.449 335.887 183.77 335.266V332.371C183.438 331.766 182.939 331.463 182.275 331.463C181.748 331.463 181.336 331.668 181.039 332.078C180.742 332.488 180.594 333.096 180.594 333.9ZM190.414 337C190.352 336.875 190.301 336.652 190.262 336.332C189.758 336.855 189.156 337.117 188.457 337.117C187.832 337.117 187.318 336.941 186.916 336.59C186.518 336.234 186.318 335.785 186.318 335.242C186.318 334.582 186.568 334.07 187.068 333.707C187.572 333.34 188.279 333.156 189.189 333.156H190.244V332.658C190.244 332.279 190.131 331.979 189.904 331.756C189.678 331.529 189.344 331.416 188.902 331.416C188.516 331.416 188.191 331.514 187.93 331.709C187.668 331.904 187.537 332.141 187.537 332.418H186.447C186.447 332.102 186.559 331.797 186.781 331.504C187.008 331.207 187.312 330.973 187.695 330.801C188.082 330.629 188.506 330.543 188.967 330.543C189.697 330.543 190.27 330.727 190.684 331.094C191.098 331.457 191.312 331.959 191.328 332.6V335.518C191.328 336.1 191.402 336.562 191.551 336.906V337H190.414ZM188.615 336.174C188.955 336.174 189.277 336.086 189.582 335.91C189.887 335.734 190.107 335.506 190.244 335.225V333.924H189.395C188.066 333.924 187.402 334.312 187.402 335.09C187.402 335.43 187.516 335.695 187.742 335.887C187.969 336.078 188.26 336.174 188.615 336.174ZM194.205 337H193.121V330.66H194.205V337ZM193.033 328.979C193.033 328.803 193.086 328.654 193.191 328.533C193.301 328.412 193.461 328.352 193.672 328.352C193.883 328.352 194.043 328.412 194.152 328.533C194.262 328.654 194.316 328.803 194.316 328.979C194.316 329.154 194.262 329.301 194.152 329.418C194.043 329.535 193.883 329.594 193.672 329.594C193.461 329.594 193.301 329.535 193.191 329.418C193.086 329.301 193.033 329.154 193.033 328.979ZM196.971 330.66L197.006 331.457C197.49 330.848 198.123 330.543 198.904 330.543C200.244 330.543 200.92 331.299 200.932 332.811V337H199.848V332.805C199.844 332.348 199.738 332.01 199.531 331.791C199.328 331.572 199.01 331.463 198.576 331.463C198.225 331.463 197.916 331.557 197.65 331.744C197.385 331.932 197.178 332.178 197.029 332.482V337H195.945V330.66H196.971ZM202.59 336.432C202.59 336.244 202.645 336.088 202.754 335.963C202.867 335.838 203.035 335.775 203.258 335.775C203.48 335.775 203.648 335.838 203.762 335.963C203.879 336.088 203.938 336.244 203.938 336.432C203.938 336.611 203.879 336.762 203.762 336.883C203.648 337.004 203.48 337.064 203.258 337.064C203.035 337.064 202.867 337.004 202.754 336.883C202.645 336.762 202.59 336.611 202.59 336.432Z" fill="#858383"/>
<path id="Confirm and go to the next month" d="M48.1836 243.667C48.1426 244.558 47.9023 245.346 47.4629 246.031C47.0234 246.711 46.4053 247.238 45.6084 247.613C44.8174 247.988 43.9121 248.176 42.8926 248.176C41.2109 248.176 39.8867 247.628 38.9199 246.532C37.9531 245.437 37.4697 243.89 37.4697 241.892V241.259C37.4697 240.005 37.6865 238.909 38.1201 237.972C38.5596 237.028 39.1895 236.302 40.0098 235.792C40.8301 235.276 41.7793 235.019 42.8574 235.019C44.4102 235.019 45.6582 235.429 46.6016 236.249C47.5449 237.063 48.0811 238.188 48.21 239.624H45.1338C45.1104 238.845 44.9141 238.285 44.5449 237.945C44.1758 237.605 43.6133 237.436 42.8574 237.436C42.0898 237.436 41.5273 237.723 41.1699 238.297C40.8125 238.871 40.625 239.788 40.6074 241.048V241.953C40.6074 243.318 40.7773 244.294 41.1172 244.88C41.4629 245.466 42.0547 245.759 42.8926 245.759C43.6016 245.759 44.1436 245.592 44.5186 245.258C44.8936 244.924 45.0928 244.394 45.1162 243.667H48.1836ZM49.1328 243.157C49.1328 242.208 49.3174 241.364 49.6865 240.626C50.0557 239.882 50.5859 239.311 51.2773 238.912C51.9688 238.514 52.7803 238.314 53.7119 238.314C55.1357 238.314 56.2578 238.757 57.0781 239.642C57.8984 240.521 58.3086 241.719 58.3086 243.236V243.342C58.3086 244.824 57.8955 246.002 57.0693 246.875C56.249 247.742 55.1357 248.176 53.7295 248.176C52.376 248.176 51.2891 247.771 50.4688 246.963C49.6484 246.148 49.2061 245.047 49.1416 243.658L49.1328 243.157ZM52.0947 243.342C52.0947 244.221 52.2324 244.865 52.5078 245.275C52.7832 245.686 53.1904 245.891 53.7295 245.891C54.7842 245.891 55.3232 245.079 55.3467 243.456V243.157C55.3467 241.452 54.8018 240.6 53.7119 240.6C52.7217 240.6 52.1855 241.335 52.1035 242.806L52.0947 243.342ZM62.334 238.49L62.4307 239.606C63.0869 238.745 63.9922 238.314 65.1465 238.314C66.1367 238.314 66.875 238.61 67.3613 239.202C67.8535 239.794 68.1084 240.685 68.126 241.874V248H65.1553V241.997C65.1553 241.517 65.0586 241.165 64.8652 240.942C64.6719 240.714 64.3203 240.6 63.8105 240.6C63.2305 240.6 62.7998 240.828 62.5186 241.285V248H59.5566V238.49H62.334ZM70.4639 248V240.547H69.084V238.49H70.4639V238.174C70.4814 236.908 70.8975 235.938 71.7119 235.265C72.4854 234.632 73.5664 234.315 74.9551 234.315C75.8281 234.315 76.8594 234.485 78.0488 234.825L77.6445 237.163L77.1523 237.031C76.5137 236.861 75.8398 236.776 75.1309 236.776C74 236.776 73.4346 237.292 73.4346 238.323V238.49H75.2979V240.547H73.4346V248H70.4639ZM79.4111 248H76.4316V238.49H79.4111V248ZM86.9697 241.171L85.9941 241.101C85.0625 241.101 84.4648 241.394 84.2012 241.979V248H81.2393V238.49H84.0166L84.1133 239.712C84.6113 238.78 85.3057 238.314 86.1963 238.314C86.5127 238.314 86.7881 238.35 87.0225 238.42L86.9697 241.171ZM90.8369 238.49L90.9336 239.606C91.6074 238.745 92.5127 238.314 93.6494 238.314C94.8506 238.314 95.6621 238.792 96.084 239.747C96.7285 238.792 97.6602 238.314 98.8789 238.314C100.807 238.314 101.797 239.48 101.85 241.812V248H98.8789V241.997C98.8789 241.511 98.7969 241.156 98.6328 240.934C98.4688 240.711 98.1699 240.6 97.7363 240.6C97.1504 240.6 96.7139 240.86 96.4268 241.382L96.4355 241.505V248H93.4648V242.015C93.4648 241.517 93.3857 241.156 93.2275 240.934C93.0693 240.711 92.7676 240.6 92.3223 240.6C91.7539 240.6 91.3203 240.86 91.0215 241.382V248H88.0596V238.49H90.8369ZM113.381 248C113.275 247.807 113.182 247.522 113.1 247.147C112.555 247.833 111.793 248.176 110.814 248.176C109.918 248.176 109.156 247.906 108.529 247.367C107.902 246.822 107.589 246.14 107.589 245.319C107.589 244.288 107.97 243.509 108.731 242.981C109.493 242.454 110.601 242.19 112.054 242.19H112.968V241.689C112.968 240.816 112.59 240.38 111.834 240.38C111.131 240.38 110.779 240.726 110.779 241.417H107.817C107.817 240.497 108.207 239.75 108.986 239.176C109.771 238.602 110.771 238.314 111.983 238.314C113.196 238.314 114.154 238.61 114.857 239.202C115.561 239.794 115.921 240.605 115.938 241.637V245.847C115.95 246.72 116.085 247.388 116.343 247.851V248H113.381ZM111.526 246.066C111.896 246.066 112.2 245.987 112.44 245.829C112.687 245.671 112.862 245.492 112.968 245.293V243.772H112.106C111.075 243.772 110.56 244.235 110.56 245.161C110.56 245.431 110.65 245.65 110.832 245.82C111.014 245.984 111.245 246.066 111.526 246.066ZM120.307 238.49L120.403 239.606C121.06 238.745 121.965 238.314 123.119 238.314C124.109 238.314 124.848 238.61 125.334 239.202C125.826 239.794 126.081 240.685 126.099 241.874V248H123.128V241.997C123.128 241.517 123.031 241.165 122.838 240.942C122.645 240.714 122.293 240.6 121.783 240.6C121.203 240.6 120.772 240.828 120.491 241.285V248H117.529V238.49H120.307ZM127.373 243.175C127.373 241.669 127.698 240.482 128.349 239.615C128.999 238.748 129.907 238.314 131.073 238.314C131.923 238.314 132.638 238.648 133.218 239.316V234.5H136.188V248H133.525L133.376 246.98C132.767 247.777 131.993 248.176 131.056 248.176C129.925 248.176 129.028 247.742 128.366 246.875C127.704 246.008 127.373 244.774 127.373 243.175ZM130.335 243.359C130.335 245.047 130.827 245.891 131.812 245.891C132.468 245.891 132.937 245.615 133.218 245.064V241.443C132.948 240.881 132.485 240.6 131.829 240.6C130.915 240.6 130.42 241.338 130.344 242.814L130.335 243.359ZM142.007 243.175C142.007 242.214 142.165 241.364 142.481 240.626C142.798 239.888 143.252 239.319 143.844 238.921C144.436 238.517 145.124 238.314 145.909 238.314C146.899 238.314 147.673 238.648 148.229 239.316L148.335 238.49H151.024V247.64C151.024 248.478 150.828 249.204 150.436 249.819C150.049 250.44 149.486 250.915 148.748 251.243C148.01 251.577 147.154 251.744 146.182 251.744C145.484 251.744 144.808 251.612 144.151 251.349C143.501 251.085 143.003 250.742 142.657 250.32L143.896 248.58C144.447 249.23 145.174 249.556 146.076 249.556C147.389 249.556 148.045 248.882 148.045 247.534V247.235C147.477 247.862 146.759 248.176 145.892 248.176C144.731 248.176 143.794 247.733 143.079 246.849C142.364 245.958 142.007 244.769 142.007 243.28V243.175ZM144.978 243.359C144.978 244.139 145.124 244.757 145.417 245.214C145.71 245.665 146.12 245.891 146.647 245.891C147.286 245.891 147.752 245.677 148.045 245.249V241.25C147.758 240.816 147.298 240.6 146.665 240.6C146.138 240.6 145.725 240.837 145.426 241.312C145.127 241.78 144.978 242.463 144.978 243.359ZM152.334 243.157C152.334 242.208 152.519 241.364 152.888 240.626C153.257 239.882 153.787 239.311 154.479 238.912C155.17 238.514 155.981 238.314 156.913 238.314C158.337 238.314 159.459 238.757 160.279 239.642C161.1 240.521 161.51 241.719 161.51 243.236V243.342C161.51 244.824 161.097 246.002 160.271 246.875C159.45 247.742 158.337 248.176 156.931 248.176C155.577 248.176 154.49 247.771 153.67 246.963C152.85 246.148 152.407 245.047 152.343 243.658L152.334 243.157ZM155.296 243.342C155.296 244.221 155.434 244.865 155.709 245.275C155.984 245.686 156.392 245.891 156.931 245.891C157.985 245.891 158.524 245.079 158.548 243.456V243.157C158.548 241.452 158.003 240.6 156.913 240.6C155.923 240.6 155.387 241.335 155.305 242.806L155.296 243.342ZM170.747 236.126V238.49H172.312V240.547H170.747V244.897C170.747 245.255 170.812 245.504 170.94 245.645C171.069 245.785 171.324 245.855 171.705 245.855C171.998 245.855 172.244 245.838 172.443 245.803V247.921C171.91 248.091 171.354 248.176 170.773 248.176C169.754 248.176 169.001 247.936 168.515 247.455C168.028 246.975 167.785 246.245 167.785 245.267V240.547H166.572V238.49H167.785V236.126H170.747ZM172.848 243.157C172.848 242.208 173.032 241.364 173.401 240.626C173.771 239.882 174.301 239.311 174.992 238.912C175.684 238.514 176.495 238.314 177.427 238.314C178.851 238.314 179.973 238.757 180.793 239.642C181.613 240.521 182.023 241.719 182.023 243.236V243.342C182.023 244.824 181.61 246.002 180.784 246.875C179.964 247.742 178.851 248.176 177.444 248.176C176.091 248.176 175.004 247.771 174.184 246.963C173.363 246.148 172.921 245.047 172.856 243.658L172.848 243.157ZM175.81 243.342C175.81 244.221 175.947 244.865 176.223 245.275C176.498 245.686 176.905 245.891 177.444 245.891C178.499 245.891 179.038 245.079 179.062 243.456V243.157C179.062 241.452 178.517 240.6 177.427 240.6C176.437 240.6 175.9 241.335 175.818 242.806L175.81 243.342ZM191.261 236.126V238.49H192.825V240.547H191.261V244.897C191.261 245.255 191.325 245.504 191.454 245.645C191.583 245.785 191.838 245.855 192.219 245.855C192.512 245.855 192.758 245.838 192.957 245.803V247.921C192.424 248.091 191.867 248.176 191.287 248.176C190.268 248.176 189.515 247.936 189.028 247.455C188.542 246.975 188.299 246.245 188.299 245.267V240.547H187.086V238.49H188.299V236.126H191.261ZM196.895 239.51C197.527 238.713 198.336 238.314 199.32 238.314C200.369 238.314 201.16 238.625 201.693 239.246C202.227 239.867 202.499 240.784 202.511 241.997V248H199.54V242.067C199.54 241.563 199.438 241.194 199.232 240.96C199.027 240.72 198.679 240.6 198.187 240.6C197.577 240.6 197.146 240.793 196.895 241.18V248H193.933V234.5H196.895V239.51ZM208.76 248.176C207.301 248.176 206.12 247.742 205.218 246.875C204.315 246.002 203.864 244.868 203.864 243.474V243.228C203.864 242.255 204.043 241.396 204.4 240.652C204.764 239.908 205.291 239.334 205.982 238.93C206.674 238.52 207.494 238.314 208.443 238.314C209.779 238.314 210.834 238.73 211.607 239.562C212.381 240.389 212.768 241.543 212.768 243.025V244.177H206.879C206.984 244.71 207.216 245.129 207.573 245.434C207.931 245.738 208.394 245.891 208.962 245.891C209.899 245.891 210.632 245.562 211.159 244.906L212.513 246.506C212.144 247.016 211.619 247.423 210.939 247.728C210.266 248.026 209.539 248.176 208.76 248.176ZM208.426 240.6C207.559 240.6 207.043 241.174 206.879 242.322H209.867V242.094C209.879 241.619 209.759 241.253 209.507 240.995C209.255 240.731 208.895 240.6 208.426 240.6ZM82.54 259.49L82.6367 260.606C83.293 259.745 84.1982 259.314 85.3525 259.314C86.3428 259.314 87.0811 259.61 87.5674 260.202C88.0596 260.794 88.3145 261.685 88.332 262.874V269H85.3613V262.997C85.3613 262.517 85.2646 262.165 85.0713 261.942C84.8779 261.714 84.5264 261.6 84.0166 261.6C83.4365 261.6 83.0059 261.828 82.7246 262.285V269H79.7627V259.49H82.54ZM94.5811 269.176C93.1221 269.176 91.9414 268.742 91.0391 267.875C90.1367 267.002 89.6855 265.868 89.6855 264.474V264.228C89.6855 263.255 89.8643 262.396 90.2217 261.652C90.585 260.908 91.1123 260.334 91.8037 259.93C92.4951 259.52 93.3154 259.314 94.2646 259.314C95.6006 259.314 96.6553 259.73 97.4287 260.562C98.2021 261.389 98.5889 262.543 98.5889 264.025V265.177H92.7002C92.8057 265.71 93.0371 266.129 93.3945 266.434C93.752 266.738 94.2148 266.891 94.7832 266.891C95.7207 266.891 96.4531 266.562 96.9805 265.906L98.334 267.506C97.9648 268.016 97.4404 268.423 96.7607 268.728C96.0869 269.026 95.3604 269.176 94.5811 269.176ZM94.2471 261.6C93.3799 261.6 92.8643 262.174 92.7002 263.322H95.6885V263.094C95.7002 262.619 95.5801 262.253 95.3281 261.995C95.0762 261.731 94.7158 261.6 94.2471 261.6ZM103.643 262.109L105.022 259.49H108.099L105.594 264.122L108.222 269H105.128L103.634 266.188L102.166 269H99.0547L101.691 264.122L99.1953 259.49H102.307L103.643 262.109ZM112.502 257.126V259.49H114.066V261.547H112.502V265.897C112.502 266.255 112.566 266.504 112.695 266.645C112.824 266.785 113.079 266.855 113.46 266.855C113.753 266.855 113.999 266.838 114.198 266.803V268.921C113.665 269.091 113.108 269.176 112.528 269.176C111.509 269.176 110.756 268.936 110.27 268.455C109.783 267.975 109.54 267.245 109.54 266.267V261.547H108.327V259.49H109.54V257.126H112.502ZM122.521 259.49L122.618 260.606C123.292 259.745 124.197 259.314 125.334 259.314C126.535 259.314 127.347 259.792 127.769 260.747C128.413 259.792 129.345 259.314 130.563 259.314C132.491 259.314 133.481 260.48 133.534 262.812V269H130.563V262.997C130.563 262.511 130.481 262.156 130.317 261.934C130.153 261.711 129.854 261.6 129.421 261.6C128.835 261.6 128.398 261.86 128.111 262.382L128.12 262.505V269H125.149V263.015C125.149 262.517 125.07 262.156 124.912 261.934C124.754 261.711 124.452 261.6 124.007 261.6C123.438 261.6 123.005 261.86 122.706 262.382V269H119.744V259.49H122.521ZM134.853 264.157C134.853 263.208 135.037 262.364 135.406 261.626C135.775 260.882 136.306 260.311 136.997 259.912C137.688 259.514 138.5 259.314 139.432 259.314C140.855 259.314 141.978 259.757 142.798 260.642C143.618 261.521 144.028 262.719 144.028 264.236V264.342C144.028 265.824 143.615 267.002 142.789 267.875C141.969 268.742 140.855 269.176 139.449 269.176C138.096 269.176 137.009 268.771 136.188 267.963C135.368 267.148 134.926 266.047 134.861 264.658L134.853 264.157ZM137.814 264.342C137.814 265.221 137.952 265.865 138.228 266.275C138.503 266.686 138.91 266.891 139.449 266.891C140.504 266.891 141.043 266.079 141.066 264.456V264.157C141.066 262.452 140.521 261.6 139.432 261.6C138.441 261.6 137.905 262.335 137.823 263.806L137.814 264.342ZM148.054 259.49L148.15 260.606C148.807 259.745 149.712 259.314 150.866 259.314C151.856 259.314 152.595 259.61 153.081 260.202C153.573 260.794 153.828 261.685 153.846 262.874V269H150.875V262.997C150.875 262.517 150.778 262.165 150.585 261.942C150.392 261.714 150.04 261.6 149.53 261.6C148.95 261.6 148.52 261.828 148.238 262.285V269H145.276V259.49H148.054ZM158.943 257.126V259.49H160.508V261.547H158.943V265.897C158.943 266.255 159.008 266.504 159.137 266.645C159.266 266.785 159.521 266.855 159.901 266.855C160.194 266.855 160.44 266.838 160.64 266.803V268.921C160.106 269.091 159.55 269.176 158.97 269.176C157.95 269.176 157.197 268.936 156.711 268.455C156.225 267.975 155.981 267.245 155.981 266.267V261.547H154.769V259.49H155.981V257.126H158.943ZM164.577 260.51C165.21 259.713 166.019 259.314 167.003 259.314C168.052 259.314 168.843 259.625 169.376 260.246C169.909 260.867 170.182 261.784 170.193 262.997V269H167.223V263.067C167.223 262.563 167.12 262.194 166.915 261.96C166.71 261.72 166.361 261.6 165.869 261.6C165.26 261.6 164.829 261.793 164.577 262.18V269H161.615V255.5H164.577V260.51Z" fill="white"/>
<path id="After year 3" d="M22.3672 32.3633H17.7441L16.8652 35H14.0615L18.8252 22.2031H21.2686L26.0586 35H23.2549L22.3672 32.3633ZM18.4561 30.2275H21.6553L20.0469 25.4375L18.4561 30.2275ZM27.7812 35V27.3535H26.3662V25.4902H27.7812V24.6816C27.7812 23.6152 28.0859 22.7891 28.6953 22.2031C29.3105 21.6113 30.1689 21.3154 31.2705 21.3154C31.6221 21.3154 32.0527 21.374 32.5625 21.4912L32.5361 23.46C32.3252 23.4072 32.0674 23.3809 31.7627 23.3809C30.8076 23.3809 30.3301 23.8291 30.3301 24.7256V25.4902H32.2197V27.3535H30.3301V35H27.7812ZM36.5791 23.1523V25.4902H38.2051V27.3535H36.5791V32.0996C36.5791 32.4512 36.6465 32.7031 36.7812 32.8555C36.916 33.0078 37.1738 33.084 37.5547 33.084C37.8359 33.084 38.085 33.0635 38.3018 33.0225V34.9473C37.8037 35.0996 37.291 35.1758 36.7637 35.1758C34.9824 35.1758 34.0742 34.2764 34.0391 32.4775V27.3535H32.6504V25.4902H34.0391V23.1523H36.5791ZM43.9971 35.1758C42.6025 35.1758 41.4658 34.748 40.5869 33.8926C39.7139 33.0371 39.2773 31.8975 39.2773 30.4736V30.2275C39.2773 29.2725 39.4619 28.4199 39.8311 27.6699C40.2002 26.9141 40.7217 26.334 41.3955 25.9297C42.0752 25.5195 42.8486 25.3145 43.7158 25.3145C45.0166 25.3145 46.0391 25.7246 46.7832 26.5449C47.5332 27.3652 47.9082 28.5283 47.9082 30.0342V31.0713H41.8525C41.9346 31.6924 42.1807 32.1904 42.5908 32.5654C43.0068 32.9404 43.5312 33.1279 44.1641 33.1279C45.1426 33.1279 45.9072 32.7734 46.458 32.0645L47.7061 33.4619C47.3252 34.001 46.8096 34.4229 46.1592 34.7275C45.5088 35.0264 44.7881 35.1758 43.9971 35.1758ZM43.707 27.3711C43.2031 27.3711 42.793 27.541 42.4766 27.8809C42.166 28.2207 41.9668 28.707 41.8789 29.3398H45.4121V29.1377C45.4004 28.5752 45.248 28.1416 44.9551 27.8369C44.6621 27.5264 44.2461 27.3711 43.707 27.3711ZM54.7021 27.8721C54.3564 27.8252 54.0518 27.8018 53.7881 27.8018C52.8271 27.8018 52.1973 28.127 51.8984 28.7773V35H49.3584V25.4902H51.7578L51.8281 26.624C52.3379 25.751 53.0439 25.3145 53.9463 25.3145C54.2275 25.3145 54.4912 25.3525 54.7373 25.4287L54.7021 27.8721ZM63.9658 31.4053L65.7236 25.4902H68.4482L64.625 36.4766L64.4141 36.9775C63.8457 38.2197 62.9082 38.8408 61.6016 38.8408C61.2324 38.8408 60.8574 38.7852 60.4766 38.6738V36.749L60.8633 36.7578C61.3438 36.7578 61.7012 36.6846 61.9355 36.5381C62.1758 36.3916 62.3633 36.1484 62.498 35.8086L62.7969 35.0264L59.4658 25.4902H62.1992L63.9658 31.4053ZM73.7041 35.1758C72.3096 35.1758 71.1729 34.748 70.2939 33.8926C69.4209 33.0371 68.9844 31.8975 68.9844 30.4736V30.2275C68.9844 29.2725 69.1689 28.4199 69.5381 27.6699C69.9072 26.9141 70.4287 26.334 71.1025 25.9297C71.7822 25.5195 72.5557 25.3145 73.4229 25.3145C74.7236 25.3145 75.7461 25.7246 76.4902 26.5449C77.2402 27.3652 77.6152 28.5283 77.6152 30.0342V31.0713H71.5596C71.6416 31.6924 71.8877 32.1904 72.2979 32.5654C72.7139 32.9404 73.2383 33.1279 73.8711 33.1279C74.8496 33.1279 75.6143 32.7734 76.165 32.0645L77.4131 33.4619C77.0322 34.001 76.5166 34.4229 75.8662 34.7275C75.2158 35.0264 74.4951 35.1758 73.7041 35.1758ZM73.4141 27.3711C72.9102 27.3711 72.5 27.541 72.1836 27.8809C71.873 28.2207 71.6738 28.707 71.5859 29.3398H75.1191V29.1377C75.1074 28.5752 74.9551 28.1416 74.6621 27.8369C74.3691 27.5264 73.9531 27.3711 73.4141 27.3711ZM84.5762 35C84.459 34.7715 84.374 34.4873 84.3213 34.1475C83.7061 34.833 82.9062 35.1758 81.9219 35.1758C80.9902 35.1758 80.2168 34.9062 79.6016 34.3672C78.9922 33.8281 78.6875 33.1484 78.6875 32.3281C78.6875 31.3203 79.0596 30.5469 79.8037 30.0078C80.5537 29.4688 81.6348 29.1963 83.0469 29.1904H84.2158V28.6455C84.2158 28.2061 84.1016 27.8545 83.873 27.5908C83.6504 27.3271 83.2959 27.1953 82.8096 27.1953C82.3818 27.1953 82.0449 27.2979 81.7988 27.5029C81.5586 27.708 81.4385 27.9893 81.4385 28.3467H78.8984C78.8984 27.7959 79.0684 27.2861 79.4082 26.8174C79.748 26.3486 80.2285 25.9824 80.8496 25.7188C81.4707 25.4492 82.168 25.3145 82.9414 25.3145C84.1133 25.3145 85.042 25.6104 85.7275 26.2021C86.4189 26.7881 86.7646 27.6143 86.7646 28.6807V32.8027C86.7705 33.7051 86.8965 34.3877 87.1426 34.8506V35H84.5762ZM82.4756 33.2334C82.8506 33.2334 83.1963 33.1514 83.5127 32.9873C83.8291 32.8174 84.0635 32.5918 84.2158 32.3105V30.6758H83.2666C81.9951 30.6758 81.3184 31.1152 81.2363 31.9941L81.2275 32.1436C81.2275 32.46 81.3389 32.7207 81.5615 32.9258C81.7842 33.1309 82.0889 33.2334 82.4756 33.2334ZM94.0596 27.8721C93.7139 27.8252 93.4092 27.8018 93.1455 27.8018C92.1846 27.8018 91.5547 28.127 91.2559 28.7773V35H88.7158V25.4902H91.1152L91.1855 26.624C91.6953 25.751 92.4014 25.3145 93.3037 25.3145C93.585 25.3145 93.8486 25.3525 94.0947 25.4287L94.0596 27.8721ZM102.251 27.4766H103.604C104.249 27.4766 104.727 27.3154 105.037 26.9932C105.348 26.6709 105.503 26.2432 105.503 25.71C105.503 25.1943 105.348 24.793 105.037 24.5059C104.732 24.2188 104.311 24.0752 103.771 24.0752C103.285 24.0752 102.878 24.21 102.55 24.4795C102.222 24.7432 102.058 25.0889 102.058 25.5166H99.5176C99.5176 24.8486 99.6963 24.251 100.054 23.7236C100.417 23.1904 100.921 22.7744 101.565 22.4756C102.216 22.1768 102.931 22.0273 103.71 22.0273C105.063 22.0273 106.124 22.3525 106.892 23.0029C107.659 23.6475 108.043 24.5381 108.043 25.6748C108.043 26.2607 107.864 26.7998 107.507 27.292C107.149 27.7842 106.681 28.1621 106.101 28.4258C106.821 28.6836 107.357 29.0703 107.709 29.5859C108.066 30.1016 108.245 30.7109 108.245 31.4141C108.245 32.5508 107.829 33.4619 106.997 34.1475C106.171 34.833 105.075 35.1758 103.71 35.1758C102.433 35.1758 101.387 34.8389 100.572 34.165C99.7637 33.4912 99.3594 32.6006 99.3594 31.4932H101.899C101.899 31.9736 102.078 32.3662 102.436 32.6709C102.799 32.9756 103.244 33.1279 103.771 33.1279C104.375 33.1279 104.847 32.9697 105.187 32.6533C105.532 32.3311 105.705 31.9062 105.705 31.3789C105.705 30.1016 105.002 29.4629 103.596 29.4629H102.251V27.4766Z" fill="#2B2E55"/>
</g>
</svg>
